<svg xmlns="http://www.w3.org/2000/svg" xmlns:xlink="http://www.w3.org/1999/xlink" contentStyleType="text/css" data-diagram-type="DESCRIPTION" height="902px" preserveAspectRatio="none" style="width:1907px;height:902px;background:#FFFFFF;" version="1.1" viewBox="0 0 1907 902" width="1907px" zoomAndPan="magnify"><title>MsQuic Layer Components</title><defs/><g><g class="title" data-source-line="9"><text fill="#000000" font-family="Verdana" font-size="22" font-weight="bold" lengthAdjust="spacing" textLength="326.1758" x="786.4071" y="37.1182">MsQuic Layer Components</text></g><!--cluster MsQuic Layer--><g class="cluster" data-entity="MsQuic Layer" data-source-line="11" data-uid="ent0002" id="cluster_MsQuic Layer"><path d="M389.49,58.7373 L495.3875,58.7373 A3.75,3.75 0 0 1 497.8875,61.2373 L504.8875,81.752 L762.49,81.752 A2.5,2.5 0 0 1 764.99,84.252 L764.99,693.2373 A2.5,2.5 0 0 1 762.49,695.7373 L389.49,695.7373 A2.5,2.5 0 0 1 386.99,693.2373 L386.99,61.2373 A2.5,2.5 0 0 1 389.49,58.7373" fill="#FFFFFF" style="stroke:#000000;stroke-width:1;"/><line style="stroke:#000000;stroke-width:1;" x1="386.99" x2="504.8875" y1="81.752" y2="81.752"/><text fill="#000000" font-family="Verdana" font-size="14" font-weight="bold" lengthAdjust="spacing" textLength="104.8975" x="390.99" y="74.8125">MsQuic Layer</text></g><!--entity Reg--><g class="entity" data-entity="Reg" data-source-line="12" data-uid="ent0003" id="entity_Reg"><rect fill="#FFFFE0" height="37.0146" rx="2.5" ry="2.5" style="stroke:#000000;stroke-width:1;" width="104.5469" x="602.49" y="94.7373"/><text fill="#000000" font-family="Verdana" font-size="14" lengthAdjust="spacing" textLength="84.5469" x="612.49" y="118.8125">Registration</text></g><!--entity Config--><g class="entity" data-entity="Config" data-source-line="13" data-uid="ent0004" id="entity_Config"><rect fill="#FFFFE0" height="37.0146" rx="2.5" ry="2.5" style="stroke:#000000;stroke-width:1;" width="114.5752" x="403.49" y="260.7373"/><text fill="#000000" font-family="Verdana" font-size="14" lengthAdjust="spacing" textLength="94.5752" x="413.49" y="284.8125">Configuration</text></g><!--entity Listener--><g class="entity" data-entity="Listener" data-source-line="14" data-uid="ent0005" id="entity_Listener"><rect fill="#FFFFE0" height="37.0146" rx="2.5" ry="2.5" style="stroke:#000000;stroke-width:1;" width="75.959" x="553.99" y="260.7373"/><text fill="#000000" font-family="Verdana" font-size="14" lengthAdjust="spacing" textLength="55.959" x="563.99" y="284.8125">Listener</text></g><!--entity Conn--><g class="entity" data-entity="Conn" data-source-line="15" data-uid="ent0006" id="entity_Conn"><rect fill="#FFFFE0" height="37.0146" rx="2.5" ry="2.5" style="stroke:#000000;stroke-width:1;" width="98.3398" x="547.99" y="426.7373"/><text fill="#000000" font-family="Verdana" font-size="14" lengthAdjust="spacing" textLength="78.3398" x="557.99" y="450.8125">Connection</text></g><!--entity Stream--><g class="entity" data-entity="Stream" data-source-line="16" data-uid="ent0007" id="entity_Stream"><rect fill="#FFFFE0" height="37.0146" rx="2.5" ry="2.5" style="stroke:#000000;stroke-width:1;" width="71.4268" x="677.49" y="642.7373"/><text fill="#000000" font-family="Verdana" font-size="14" lengthAdjust="spacing" textLength="51.4268" x="687.49" y="666.8125">Stream</text></g><!--entity Datagram--><g class="entity" data-entity="Datagram" data-source-line="17" data-uid="ent0008" id="entity_Datagram"><rect fill="#FFFFE0" height="37.0146" rx="2.5" ry="2.5" style="stroke:#000000;stroke-width:1;" width="89.8428" x="551.99" y="642.7373"/><text fill="#000000" font-family="Verdana" font-size="14" lengthAdjust="spacing" textLength="69.8428" x="561.99" y="666.8125">Datagram</text></g><!--entity TLS--><g class="entity" data-entity="TLS" data-source-line="18" data-uid="ent0009" id="entity_TLS"><rect fill="#FFFFE0" height="37.0146" rx="2.5" ry="2.5" style="stroke:#000000;stroke-width:1;" width="105.7021" x="410.99" y="642.7373"/><text fill="#000000" font-family="Verdana" font-size="14" lengthAdjust="spacing" textLength="85.7021" x="420.99" y="666.8125">TLS Context</text></g><!--entity IFromH3--><g class="entity" data-entity="IFromH3" data-source-line="31" data-uid="ent0018" id="entity_IFromH3"><ellipse cx="1609.99" cy="445.2373" fill="#FFFFFF" rx="8" ry="8" style="stroke:#000000;stroke-width:1;"/><text fill="#000000" font-family="Verdana" font-size="14" lengthAdjust="spacing" textLength="154.0137" x="1532.9832" y="476.3125">From HTTP/3 Protocol</text></g><!--entity IFromWT--><g class="entity" data-entity="IFromWT" data-source-line="32" data-uid="ent0019" id="entity_IFromWT"><ellipse cx="1224.99" cy="445.2373" fill="#FFFFFF" rx="8" ry="8" style="stroke:#000000;stroke-width:1;"/><text fill="#000000" font-family="Verdana" font-size="14" lengthAdjust="spacing" textLength="201.3184" x="1124.3308" y="476.3125">From WebTransport Protocol</text></g><!--entity IToTransport--><g class="entity" data-entity="IToTransport" data-source-line="33" data-uid="ent0020" id="entity_IToTransport"><ellipse cx="376.99" cy="862.7373" fill="#FFFFFF" rx="8" ry="8" style="stroke:#000000;stroke-width:1;"/><text fill="#000000" font-family="Verdana" font-size="14" lengthAdjust="spacing" textLength="133.6426" x="310.1687" y="893.8125">To Transport Layer</text></g><g class="entity" data-entity="GMN27" data-source-line="54" data-uid="ent0028" id="entity_GMN27"><path d="M780.99,68.7373 L780.99,109.2373 L707.78,113.2373 L780.99,117.2373 L780.99,157.7339 A0,0 0 0 0 780.99,157.7339 L965.093,157.7339 A0,0 0 0 0 965.093,157.7339 L965.093,78.7373 L955.093,68.7373 L780.99,68.7373 A0,0 0 0 0 780.99,68.7373" fill="#FFFFFF" style="stroke:#000000;stroke-width:1;"/><path d="M955.093,68.7373 L955.093,78.7373 L965.093,78.7373 L955.093,68.7373" fill="#FFFFFF" style="stroke:#000000;stroke-width:1;"/><text fill="#000000" font-family="Verdana" font-size="13" font-weight="bold" lengthAdjust="spacing" textLength="163.103" x="786.99" y="86.8071">Registration Features:</text><text fill="#000000" font-family="Verdana" font-size="13" lengthAdjust="spacing" textLength="149.1763" x="786.99" y="102.6064">- Process-level context</text><text fill="#000000" font-family="Verdana" font-size="13" lengthAdjust="spacing" textLength="126.2676" x="786.99" y="118.4058">- Execution profiles</text><text fill="#000000" font-family="Verdana" font-size="13" lengthAdjust="spacing" textLength="146.5483" x="786.99" y="134.2051">- Thread management</text><text fill="#000000" font-family="Verdana" font-size="13" lengthAdjust="spacing" textLength="107.4849" x="786.99" y="150.0044">- Global settings</text></g><g class="entity" data-entity="GMN30" data-source-line="56" data-uid="ent0031" id="entity_GMN30"><path d="M1050.99,234.7373 L1050.99,323.7339 L1245.0017,323.7339 L1245.0017,244.7373 L1235.0017,234.7373 L1050.99,234.7373" fill="#FFFFFF" style="stroke:#000000;stroke-width:1;"/><path d="M1235.0017,234.7373 L1235.0017,244.7373 L1245.0017,244.7373 L1235.0017,234.7373" fill="#FFFFFF" style="stroke:#000000;stroke-width:1;"/><text fill="#000000" font-family="Verdana" font-size="13" font-weight="bold" lengthAdjust="spacing" textLength="173.0117" x="1056.99" y="252.8071">Configuration Features:</text><text fill="#000000" font-family="Verdana" font-size="13" lengthAdjust="spacing" textLength="141.1528" x="1056.99" y="268.6064">- ALPN protocols (h3)</text><text fill="#000000" font-family="Verdana" font-size="13" lengthAdjust="spacing" textLength="110.1509" x="1056.99" y="284.4058">- TLS credentials</text><text fill="#000000" font-family="Verdana" font-size="13" lengthAdjust="spacing" textLength="98.0396" x="1056.99" y="300.2051">- Stream limits</text><text fill="#000000" font-family="Verdana" font-size="13" lengthAdjust="spacing" textLength="145.6279" x="1056.99" y="316.0044">- Flow control settings</text></g><g class="entity" data-entity="GMN33" data-source-line="58" data-uid="ent0034" id="entity_GMN33"><path d="M1506.99,234.7373 L1506.99,323.7339 L1688.6492,323.7339 L1688.6492,244.7373 L1678.6492,234.7373 L1506.99,234.7373" fill="#FFFFFF" style="stroke:#000000;stroke-width:1;"/><path d="M1678.6492,234.7373 L1678.6492,244.7373 L1688.6492,244.7373 L1678.6492,234.7373" fill="#FFFFFF" style="stroke:#000000;stroke-width:1;"/><text fill="#000000" font-family="Verdana" font-size="13" font-weight="bold" lengthAdjust="spacing" textLength="132.7866" x="1512.99" y="252.8071">Listener Features:</text><text fill="#000000" font-family="Verdana" font-size="13" lengthAdjust="spacing" textLength="146.0532" x="1512.99" y="268.6064">- Server-side acceptor</text><text fill="#000000" font-family="Verdana" font-size="13" lengthAdjust="spacing" textLength="89.3306" x="1512.99" y="284.4058">- Port binding</text><text fill="#000000" font-family="Verdana" font-size="13" lengthAdjust="spacing" textLength="160.6592" x="1512.99" y="300.2051">- Connection acceptance</text><text fill="#000000" font-family="Verdana" font-size="13" lengthAdjust="spacing" textLength="155.5049" x="1512.99" y="316.0044">- Callback management</text></g><g class="entity" data-entity="GMN36" data-source-line="60" data-uid="ent0037" id="entity_GMN36"><path d="M780.99,400.7373 L780.99,441.2373 L646.13,445.2373 L780.99,449.2373 L780.99,489.7339 A0,0 0 0 0 780.99,489.7339 L957.114,489.7339 A0,0 0 0 0 957.114,489.7339 L957.114,410.7373 L947.114,400.7373 L780.99,400.7373 A0,0 0 0 0 780.99,400.7373" fill="#FFFFFF" style="stroke:#000000;stroke-width:1;"/><path d="M947.114,400.7373 L947.114,410.7373 L957.114,410.7373 L947.114,400.7373" fill="#FFFFFF" style="stroke:#000000;stroke-width:1;"/><text fill="#000000" font-family="Verdana" font-size="13" font-weight="bold" lengthAdjust="spacing" textLength="155.124" x="786.99" y="418.8071">Connection Features:</text><text fill="#000000" font-family="Verdana" font-size="13" lengthAdjust="spacing" textLength="141.4702" x="786.99" y="434.6064">- QUIC state machine</text><text fill="#000000" font-family="Verdana" font-size="13" lengthAdjust="spacing" textLength="141.8447" x="786.99" y="450.4058">- Multiplexed streams</text><text fill="#000000" font-family="Verdana" font-size="13" lengthAdjust="spacing" textLength="89.6289" x="786.99" y="466.2051">- Flow control</text><text fill="#000000" font-family="Verdana" font-size="13" lengthAdjust="spacing" textLength="132.6787" x="786.99" y="482.0044">- Congestion control</text></g><g class="entity" data-entity="GMN39" data-source-line="62" data-uid="ent0040" id="entity_GMN39"><path d="M1429.49,616.7373 L1429.49,705.7339 L1626.009,705.7339 L1626.009,626.7373 L1616.009,616.7373 L1429.49,616.7373" fill="#FFFFFF" style="stroke:#000000;stroke-width:1;"/><path d="M1616.009,616.7373 L1616.009,626.7373 L1626.009,626.7373 L1616.009,616.7373" fill="#FFFFFF" style="stroke:#000000;stroke-width:1;"/><text fill="#000000" font-family="Verdana" font-size="13" font-weight="bold" lengthAdjust="spacing" textLength="126.1279" x="1435.49" y="634.8071">Stream Features:</text><text fill="#000000" font-family="Verdana" font-size="13" lengthAdjust="spacing" textLength="111.1094" x="1435.49" y="650.6064">Reliable, ordered</text><text fill="#000000" font-family="Verdana" font-size="13" lengthAdjust="spacing" textLength="51.6572" x="1435.49" y="666.4058">delivery</text><text fill="#000000" font-family="Verdana" font-size="13" lengthAdjust="spacing" textLength="175.519" x="1435.49" y="682.2051">Bidirectional/Unidirectional</text><text fill="#000000" font-family="Verdana" font-size="13" lengthAdjust="spacing" textLength="79.1553" x="1435.49" y="698.0044">Flow control</text></g><g class="entity" data-entity="GMN42" data-source-line="64" data-uid="ent0043" id="entity_GMN42"><path d="M1007.49,616.7373 L1007.49,705.7339 L1173.9973,705.7339 L1173.9973,626.7373 L1163.9973,616.7373 L1007.49,616.7373" fill="#FFFFFF" style="stroke:#000000;stroke-width:1;"/><path d="M1163.9973,616.7373 L1163.9973,626.7373 L1173.9973,626.7373 L1163.9973,616.7373" fill="#FFFFFF" style="stroke:#000000;stroke-width:1;"/><text fill="#000000" font-family="Verdana" font-size="13" font-weight="bold" lengthAdjust="spacing" textLength="145.5073" x="1013.49" y="634.8071">Datagram Features:</text><text fill="#000000" font-family="Verdana" font-size="13" lengthAdjust="spacing" textLength="70.1162" x="1013.49" y="650.6064">Unreliable,</text><text fill="#000000" font-family="Verdana" font-size="13" lengthAdjust="spacing" textLength="123.354" x="1013.49" y="666.4058">unordered delivery</text><text fill="#000000" font-family="Verdana" font-size="13" lengthAdjust="spacing" textLength="77.27" x="1013.49" y="682.2051">Low latency</text><text fill="#000000" font-family="Verdana" font-size="13" lengthAdjust="spacing" textLength="118.3965" x="1013.49" y="698.0044">No retransmission</text></g><g class="entity" data-entity="GMN45" data-source-line="66" data-uid="ent0046" id="entity_GMN45"><path d="M783.49,616.7373 L783.49,705.7339 L972.2459,705.7339 L972.2459,626.7373 L962.2459,616.7373 L783.49,616.7373" fill="#FFFFFF" style="stroke:#000000;stroke-width:1;"/><path d="M962.2459,616.7373 L962.2459,626.7373 L972.2459,626.7373 L962.2459,616.7373" fill="#FFFFFF" style="stroke:#000000;stroke-width:1;"/><text fill="#000000" font-family="Verdana" font-size="13" font-weight="bold" lengthAdjust="spacing" textLength="161.0273" x="789.49" y="634.8071">TLS Context Features:</text><text fill="#000000" font-family="Verdana" font-size="13" lengthAdjust="spacing" textLength="135.9287" x="789.49" y="650.6064">- TLS 1.3 integration</text><text fill="#000000" font-family="Verdana" font-size="13" lengthAdjust="spacing" textLength="167.7559" x="789.49" y="666.4058">- Certificate management</text><text fill="#000000" font-family="Verdana" font-size="13" lengthAdjust="spacing" textLength="104.7554" x="789.49" y="682.2051">- Key derivation</text><text fill="#000000" font-family="Verdana" font-size="13" lengthAdjust="spacing" textLength="154.5083" x="789.49" y="698.0044">- Encryption/decryption</text></g><g class="entity" data-entity="GMN48" data-source-line="69" data-uid="ent0049" id="entity_GMN48"><path d="M1724.49,258.2373 L1724.49,299.8359 L1847.3826,299.8359 L1847.3826,268.2373 L1837.3826,258.2373 L1724.49,258.2373" fill="#FFFFFF" style="stroke:#000000;stroke-width:1;"/><path d="M1837.3826,258.2373 L1837.3826,268.2373 L1847.3826,268.2373 L1837.3826,258.2373" fill="#FFFFFF" style="stroke:#000000;stroke-width:1;"/><text fill="#000000" font-family="Verdana" font-size="13" font-weight="bold" lengthAdjust="spacing" textLength="69.4434" x="1730.49" y="276.3071">RFC 9000</text><text fill="#000000" font-family="Verdana" font-size="13" lengthAdjust="spacing" textLength="101.8926" x="1730.49" y="292.1064">QUIC Transport</text></g><g class="entity" data-entity="GMN51" data-source-line="70" data-uid="ent0052" id="entity_GMN51"><path d="M991.99,424.2373 L991.99,465.8359 L1082.4334,465.8359 L1082.4334,434.2373 L1072.4334,424.2373 L991.99,424.2373" fill="#FFFFFF" style="stroke:#000000;stroke-width:1;"/><path d="M1072.4334,424.2373 L1072.4334,434.2373 L1082.4334,434.2373 L1072.4334,424.2373" fill="#FFFFFF" style="stroke:#000000;stroke-width:1;"/><text fill="#000000" font-family="Verdana" font-size="13" font-weight="bold" lengthAdjust="spacing" textLength="69.4434" x="997.99" y="442.3071">RFC 8446</text><text fill="#000000" font-family="Verdana" font-size="13" lengthAdjust="spacing" textLength="49.9624" x="997.99" y="458.1064">TLS 1.3</text></g><g class="entity" data-entity="GMN54" data-source-line="73" data-uid="ent0055" id="entity_GMN54"><path d="M783.99,250.7373 L783.99,308.1353 L1016.0686,308.1353 L1016.0686,260.7373 L1006.0686,250.7373 L783.99,250.7373" fill="#FFFFFF" style="stroke:#000000;stroke-width:1;"/><path d="M1006.0686,250.7373 L1006.0686,260.7373 L1016.0686,260.7373 L1006.0686,250.7373" fill="#FFFFFF" style="stroke:#000000;stroke-width:1;"/><text fill="#000000" font-family="Verdana" font-size="13" font-weight="bold" lengthAdjust="spacing" textLength="211.0786" x="789.99" y="268.8071">Configuration Dependencies:</text><text fill="#000000" font-family="Verdana" font-size="13" lengthAdjust="spacing" textLength="138.5566" x="789.99" y="284.6064">Must load credentials</text><text fill="#000000" font-family="Verdana" font-size="13" lengthAdjust="spacing" textLength="143.9204" x="789.99" y="300.4058">before connection use</text></g><g class="entity" data-entity="GMN57" data-source-line="75" data-uid="ent0058" id="entity_GMN57"><path d="M1279.99,250.7373 L1279.99,308.1353 L1471.8435,308.1353 L1471.8435,260.7373 L1461.8435,250.7373 L1279.99,250.7373" fill="#FFFFFF" style="stroke:#000000;stroke-width:1;"/><path d="M1461.8435,250.7373 L1461.8435,260.7373 L1471.8435,260.7373 L1461.8435,250.7373" fill="#FFFFFF" style="stroke:#000000;stroke-width:1;"/><text fill="#000000" font-family="Verdana" font-size="13" font-weight="bold" lengthAdjust="spacing" textLength="170.8535" x="1285.99" y="268.8071">Listener Dependencies:</text><text fill="#000000" font-family="Verdana" font-size="13" lengthAdjust="spacing" textLength="145.374" x="1285.99" y="284.6064">Must set configuration</text><text fill="#000000" font-family="Verdana" font-size="13" lengthAdjust="spacing" textLength="162.5254" x="1285.99" y="300.4058">for accepted connections</text></g><g class="entity" data-entity="GMN60" data-source-line="77" data-uid="ent0061" id="entity_GMN60"><path d="M1209.49,632.7373 L1209.49,690.1353 L1394.6848,690.1353 L1394.6848,642.7373 L1384.6848,632.7373 L1209.49,632.7373" fill="#FFFFFF" style="stroke:#000000;stroke-width:1;"/><path d="M1384.6848,632.7373 L1384.6848,642.7373 L1394.6848,642.7373 L1384.6848,632.7373" fill="#FFFFFF" style="stroke:#000000;stroke-width:1;"/><text fill="#000000" font-family="Verdana" font-size="13" font-weight="bold" lengthAdjust="spacing" textLength="164.1948" x="1215.49" y="650.8071">Stream Dependencies:</text><text fill="#000000" font-family="Verdana" font-size="13" lengthAdjust="spacing" textLength="111.9473" x="1215.49" y="666.6064">Must set callback</text><text fill="#000000" font-family="Verdana" font-size="13" lengthAdjust="spacing" textLength="123.2778" x="1215.49" y="682.4058">and enable receive</text></g><!--link Reg to Config--><g class="link" data-entity-1="Reg" data-entity-2="Config" data-source-line="20" data-uid="lnk10" id="link_Reg_Config"><path d="M632.71,131.8073 C614.16,146.5373 587.13,168.2373 563.99,187.7373 C534.5,212.5873 505.5488,238.2236 484.9888,256.6436" fill="none" id="Reg-to-Config" style="stroke:#000000;stroke-width:1;"/><polygon fill="#000000" points="480.52,260.6473,489.8924,257.621,484.244,257.3109,484.5541,251.6625,480.52,260.6473" style="stroke:#000000;stroke-width:1;"/><text fill="#000000" font-family="Verdana" font-size="13" lengthAdjust="spacing" textLength="47.5122" x="564.99" y="201.8071">creates</text></g><!--link Reg to Listener--><g class="link" data-entity-1="Reg" data-entity-2="Listener" data-source-line="21" data-uid="lnk11" id="link_Reg_Listener"><path d="M648.25,131.7873 C636.18,163.1873 613.1922,223.0466 601.0222,254.7166" fill="none" id="Reg-to-Listener" style="stroke:#000000;stroke-width:1;"/><polygon fill="#000000" points="598.87,260.3173,605.8321,253.351,600.6635,255.65,598.3645,250.4814,598.87,260.3173" style="stroke:#000000;stroke-width:1;"/><text fill="#000000" font-family="Verdana" font-size="13" lengthAdjust="spacing" textLength="47.5122" x="625.99" y="201.8071">creates</text></g><!--link Reg to Conn--><g class="link" data-entity-1="Reg" data-entity-2="Conn" data-source-line="22" data-uid="lnk12" id="link_Reg_Conn"><path d="M663.47,131.8673 C669.99,146.4573 678.46,167.9273 681.99,187.7373 C692.57,247.2273 717.91,222.1673 652.99,370.7373 C643.74,391.9073 631.2079,408.0794 618.4879,422.0594" fill="none" id="Reg-to-Conn" style="stroke:#000000;stroke-width:1;"/><polygon fill="#000000" points="614.45,426.4973,623.4655,422.5324,617.8149,422.799,617.5483,417.1485,614.45,426.4973" style="stroke:#000000;stroke-width:1;"/><text fill="#000000" font-family="Verdana" font-size="13" lengthAdjust="spacing" textLength="47.5122" x="695.99" y="284.8071">creates</text></g><!--link Config to Conn--><g class="link" data-entity-1="Config" data-entity-2="Conn" data-source-line="23" data-uid="lnk13" id="link_Config_Conn"><path d="M470,297.8573 C480.13,316.8073 497.68,347.3873 516.99,370.7373 C534.41,391.8173 553.1498,408.7693 570.1198,422.8293" fill="none" id="Config-to-Conn" style="stroke:#000000;stroke-width:1;"/><polygon fill="#000000" points="574.74,426.6573,570.3616,417.8352,570.8898,423.4673,565.2577,423.9955,574.74,426.6573" style="stroke:#000000;stroke-width:1;"/><text fill="#000000" font-family="Verdana" font-size="13" lengthAdjust="spacing" textLength="67.4185" x="517.99" y="367.8071">configures</text></g><!--link Listener to Conn--><g class="link" data-entity-1="Listener" data-entity-2="Conn" data-source-line="24" data-uid="lnk14" id="link_Listener_Conn"><path d="M592.52,297.7873 C593.48,329.1873 595.2982,388.6501 596.2582,420.3201" fill="none" id="Listener-to-Conn" style="stroke:#000000;stroke-width:1;"/><polygon fill="#000000" points="596.44,426.3173,600.1655,417.2002,596.2885,421.3196,592.1691,417.4426,596.44,426.3173" style="stroke:#000000;stroke-width:1;"/><text fill="#000000" font-family="Verdana" font-size="13" lengthAdjust="spacing" textLength="49.0928" x="594.99" y="367.8071">accepts</text></g><!--link Conn to Stream--><g class="link" data-entity-1="Conn" data-entity-2="Stream" data-source-line="25" data-uid="lnk15" id="link_Conn_Stream"><path d="M615.24,463.8873 C629.01,477.9773 647.57,498.7673 659.99,519.7373 C684.3,560.7873 699.3501,609.1591 706.8701,636.7091" fill="none" id="Conn-to-Stream" style="stroke:#000000;stroke-width:1;"/><polygon fill="#000000" points="708.45,642.4973,709.9389,632.7616,707.1334,637.6738,702.2212,634.8682,708.45,642.4973" style="stroke:#000000;stroke-width:1;"/><text fill="#000000" font-family="Verdana" font-size="13" lengthAdjust="spacing" textLength="47.5122" x="690.99" y="558.8071">creates</text></g><!--link Conn to Datagram--><g class="link" data-entity-1="Conn" data-entity-2="Datagram" data-source-line="26" data-uid="lnk16" id="link_Conn_Datagram"><path d="M596.38,463.7573 C595.89,478.6473 595.25,500.5873 594.99,519.7373 C594.58,549.5173 594.58,556.9573 594.99,586.7373 C595.25,605.8873 595.6927,621.8306 596.1827,636.7206" fill="none" id="Conn-to-Datagram" style="stroke:#000000;stroke-width:1;"/><polygon fill="#000000" points="596.38,642.7173,600.0818,633.5906,596.2155,637.72,592.0862,633.8537,596.38,642.7173" style="stroke:#000000;stroke-width:1;"/><text fill="#000000" font-family="Verdana" font-size="13" lengthAdjust="spacing" textLength="59.103" x="595.99" y="558.8071">manages</text></g><!--link Conn to TLS--><g class="link" data-entity-1="Conn" data-entity-2="TLS" data-source-line="27" data-uid="lnk17" id="link_Conn_TLS"><path d="M575.95,463.8773 C560.33,477.8073 539.35,498.3973 524.99,519.7373 C497.82,560.1073 480.1531,608.8442 471.2431,636.6142" fill="none" id="Conn-to-TLS" style="stroke:#000000;stroke-width:1;"/><polygon fill="#000000" points="469.41,642.3273,475.9683,634.9796,470.9375,637.5664,468.3508,632.5356,469.41,642.3273" style="stroke:#000000;stroke-width:1;"/><text fill="#000000" font-family="Verdana" font-size="13" lengthAdjust="spacing" textLength="59.103" x="525.99" y="558.8071">manages</text></g><!--link IFromH3 to Stream--><g class="link" data-entity-1="IFromH3" data-entity-2="Stream" data-source-line="35" data-uid="lnk21" id="link_IFromH3_Stream"><path d="M1610.41,454.3373 C1611.21,479.0473 1609.85,553.7673 1566.99,586.7373 C1496.39,641.0373 849.27,585.1673 765.99,616.7373 C751.74,622.1373 742.77,628.8124 733.08,638.3324" fill="none" id="IFromH3-to-Stream" style="stroke:#000000;stroke-width:1;"/><polygon fill="#000000" points="728.8,642.5373,738.0233,639.0833,732.3667,639.0332,732.4167,633.3766,728.8,642.5373" style="stroke:#000000;stroke-width:1;"/><path d="M1608.99,524.7373 L1608.99,581.7373 L1900.99,581.7373 L1900.99,534.7373 L1890.99,524.7373 L1608.99,524.7373" fill="#FFFFFF" style="stroke:#000000;stroke-width:1;"/><path d="M1890.99,524.7373 L1890.99,534.7373 L1900.99,534.7373 L1890.99,524.7373" fill="#FFFFFF" style="stroke:#000000;stroke-width:1;"/><text fill="#000000" font-family="Verdana" font-size="13" font-weight="bold" lengthAdjust="spacing" textLength="271.1528" x="1614.99" y="542.8071">Reference: HTTP/3 Protocol Diagram</text><text fill="#000000" font-family="Verdana" font-size="13" lengthAdjust="spacing" textLength="159.104" x="1614.99" y="558.6064">Receives HTTP/3 frames</text><text fill="#000000" font-family="Verdana" font-size="13" lengthAdjust="spacing" textLength="223.5708" x="1614.99" y="574.4058">Provides reliable, ordered delivery</text></g><!--link IFromWT to Stream--><g class="link" data-entity-1="IFromWT" data-entity-2="Stream" data-source-line="38" data-uid="lnk22" id="link_IFromWT_Stream"><path d="M1223.68,454.5773 C1219.19,482.1673 1203.43,569.6473 1181.99,586.7373 C1109.51,644.5073 852.07,582.3873 765.99,616.7373 C751.84,622.3873 742.8898,629.0726 733.1698,638.5326" fill="none" id="IFromWT-to-Stream" style="stroke:#000000;stroke-width:1;"/><polygon fill="#000000" points="728.87,642.7173,738.1095,639.3067,732.4531,639.23,732.5298,633.5737,728.87,642.7173" style="stroke:#000000;stroke-width:1;"/><path d="M1214.99,524.7373 L1214.99,581.7373 L1553.99,581.7373 L1553.99,534.7373 L1543.99,524.7373 L1214.99,524.7373" fill="#FFFFFF" style="stroke:#000000;stroke-width:1;"/><path d="M1543.99,524.7373 L1543.99,534.7373 L1553.99,534.7373 L1543.99,524.7373" fill="#FFFFFF" style="stroke:#000000;stroke-width:1;"/><text fill="#000000" font-family="Verdana" font-size="13" font-weight="bold" lengthAdjust="spacing" textLength="318.5825" x="1220.99" y="542.8071">Reference: WebTransport Protocol Diagram</text><text fill="#000000" font-family="Verdana" font-size="13" lengthAdjust="spacing" textLength="210.355" x="1220.99" y="558.6064">Receives WebTransport streams</text><text fill="#000000" font-family="Verdana" font-size="13" lengthAdjust="spacing" textLength="190.0615" x="1220.99" y="574.4058">Provides stream multiplexing</text></g><!--link IFromWT to Datagram--><g class="link" data-entity-1="IFromWT" data-entity-2="Datagram" data-source-line="41" data-uid="lnk23" id="link_IFromWT_Datagram"><path d="M1215.79,450.2473 C1195.38,458.9773 1144.59,479.6773 1099.99,489.7373 C1040.02,503.2573 875.13,484.1673 824.99,519.7373 C798.07,538.8273 818.78,566.1573 792.99,586.7373 C745.62,624.5373 715.49,592.4073 659.99,616.7373 C645.01,623.2973 634.6565,629.9531 622.9765,638.8831" fill="none" id="IFromWT-to-Datagram" style="stroke:#000000;stroke-width:1;"/><polygon fill="#000000" points="618.21,642.5273,627.7892,640.2386,622.1821,639.4904,622.9302,633.8833,618.21,642.5273" style="stroke:#000000;stroke-width:1;"/><path d="M829.99,524.7373 L829.99,581.7373 L1168.99,581.7373 L1168.99,534.7373 L1158.99,524.7373 L829.99,524.7373" fill="#FFFFFF" style="stroke:#000000;stroke-width:1;"/><path d="M1158.99,524.7373 L1158.99,534.7373 L1168.99,534.7373 L1158.99,524.7373" fill="#FFFFFF" style="stroke:#000000;stroke-width:1;"/><text fill="#000000" font-family="Verdana" font-size="13" font-weight="bold" lengthAdjust="spacing" textLength="318.5825" x="835.99" y="542.8071">Reference: WebTransport Protocol Diagram</text><text fill="#000000" font-family="Verdana" font-size="13" lengthAdjust="spacing" textLength="227.6523" x="835.99" y="558.6064">Receives WebTransport datagrams</text><text fill="#000000" font-family="Verdana" font-size="13" lengthAdjust="spacing" textLength="180.0513" x="835.99" y="574.4058">Provides unreliable delivery</text></g><!--link Conn to IToTransport--><g class="link" data-entity-1="Conn" data-entity-2="IToTransport" data-source-line="44" data-uid="lnk24" id="link_Conn_IToTransport"><path d="M547.59,445.8273 C443.66,447.9873 203.29,469.4773 97.99,616.7373 C11,738.3873 305.1022,838.949 362.0822,857.069" fill="none" id="Conn-to-IToTransport" style="stroke:#000000;stroke-width:1;"/><polygon fill="#000000" points="367.8,858.8873,360.4354,852.3479,363.0351,857.372,358.011,859.9717,367.8,858.8873" style="stroke:#000000;stroke-width:1;"/><path d="M102.99,632.7373 L102.99,689.7373 L388.99,689.7373 L388.99,642.7373 L378.99,632.7373 L102.99,632.7373" fill="#FFFFFF" style="stroke:#000000;stroke-width:1;"/><path d="M378.99,632.7373 L378.99,642.7373 L388.99,642.7373 L378.99,632.7373" fill="#FFFFFF" style="stroke:#000000;stroke-width:1;"/><text fill="#000000" font-family="Verdana" font-size="13" font-weight="bold" lengthAdjust="spacing" textLength="265.9351" x="108.99" y="650.8071">Reference: Transport Layer Diagram</text><text fill="#000000" font-family="Verdana" font-size="13" lengthAdjust="spacing" textLength="158.0376" x="108.99" y="666.6064">Connects to UDP Socket</text><text fill="#000000" font-family="Verdana" font-size="13" lengthAdjust="spacing" textLength="259.6699" x="108.99" y="682.4058">Provides QUIC connection management</text></g><!--link Datagram to IToTransport--><g class="link" data-entity-1="Datagram" data-entity-2="IToTransport" data-source-line="47" data-uid="lnk25" id="link_Datagram_IToTransport"><path d="M576.8,679.7473 C565.28,688.8473 550.14,699.3673 534.99,705.7373 C467.89,733.9473 420.5,679.7573 373.99,735.7373 C345.04,770.5773 362.6771,825.8724 371.3271,847.9024" fill="none" id="Datagram-to-IToTransport" style="stroke:#000000;stroke-width:1;"/><polygon fill="#000000" points="373.52,853.4873,373.9539,843.648,371.6926,848.8332,366.5074,846.5719,373.52,853.4873" style="stroke:#000000;stroke-width:1;"/><path d="M378.99,740.7373 L378.99,797.7373 L664.99,797.7373 L664.99,750.7373 L654.99,740.7373 L378.99,740.7373" fill="#FFFFFF" style="stroke:#000000;stroke-width:1;"/><path d="M654.99,740.7373 L654.99,750.7373 L664.99,750.7373 L654.99,740.7373" fill="#FFFFFF" style="stroke:#000000;stroke-width:1;"/><text fill="#000000" font-family="Verdana" font-size="13" font-weight="bold" lengthAdjust="spacing" textLength="265.9351" x="384.99" y="758.8071">Reference: Transport Layer Diagram</text><text fill="#000000" font-family="Verdana" font-size="13" lengthAdjust="spacing" textLength="174.6367" x="384.99" y="774.6064">Transmits via UDP packets</text><text fill="#000000" font-family="Verdana" font-size="13" lengthAdjust="spacing" textLength="217.0645" x="384.99" y="790.4058">Provides datagram encapsulation</text></g><!--link Stream to IToTransport--><g class="link" data-entity-1="Stream" data-entity-2="IToTransport" data-source-line="50" data-uid="lnk26" id="link_Stream_IToTransport"><path d="M713.58,679.8573 C713.55,709.7673 708.87,770.3673 673.99,802.7373 C630.35,843.2373 437.4176,857.871 392.1576,860.791" fill="none" id="Stream-to-IToTransport" style="stroke:#000000;stroke-width:1;"/><polygon fill="#000000" points="386.17,861.1773,395.4089,864.5896,391.1596,860.8554,394.8938,856.6062,386.17,861.1773" style="stroke:#000000;stroke-width:1;"/><path d="M711.99,740.7373 L711.99,797.7373 L997.99,797.7373 L997.99,750.7373 L987.99,740.7373 L711.99,740.7373" fill="#FFFFFF" style="stroke:#000000;stroke-width:1;"/><path d="M987.99,740.7373 L987.99,750.7373 L997.99,750.7373 L987.99,740.7373" fill="#FFFFFF" style="stroke:#000000;stroke-width:1;"/><text fill="#000000" font-family="Verdana" font-size="13" font-weight="bold" lengthAdjust="spacing" textLength="265.9351" x="717.99" y="758.8071">Reference: Transport Layer Diagram</text><text fill="#000000" font-family="Verdana" font-size="13" lengthAdjust="spacing" textLength="174.6367" x="717.99" y="774.6064">Transmits via UDP packets</text><text fill="#000000" font-family="Verdana" font-size="13" lengthAdjust="spacing" textLength="233.1748" x="717.99" y="790.4058">Provides stream data encapsulation</text></g><!--link Config to GMN30--><g class="link" data-entity-1="Config" data-entity-2="GMN30" data-source-line="56" data-uid="lnk32" id="link_Config_GMN30"><path d="M475.04,260.4173 C491.49,240.1273 520.8,209.0273 554.49,196.2373 C650.46,159.7873 917.86,167.7173 1016.49,196.2373 C1043.59,204.0773 1070.48,219.3473 1092.81,234.6673" fill="none" id="Config-GMN30" style="stroke:#000000;stroke-width:1;stroke-dasharray:7,7;"/></g><!--link Listener to GMN33--><g class="link" data-entity-1="Listener" data-entity-2="GMN33" data-source-line="58" data-uid="lnk35" id="link_Listener_GMN33"><path d="M603.86,260.4773 C617.9,240.2473 643.35,209.1873 674.49,196.2373 C756.35,162.1873 1387.58,170.6973 1472.49,196.2373 C1498.63,204.0973 1524.34,219.3773 1545.62,234.6973" fill="none" id="Listener-GMN33" style="stroke:#000000;stroke-width:1;stroke-dasharray:7,7;"/></g><!--link Stream to GMN39--><g class="link" data-entity-1="Stream" data-entity-2="GMN39" data-source-line="62" data-uid="lnk41" id="link_Stream_GMN39"><path d="M718.87,642.5573 C728.05,617.0173 748.44,572.2173 783.49,553.2373 C902.89,488.5873 1266.49,507.9473 1394.49,553.2373 C1430.32,565.9173 1463.57,592.7573 1487.93,616.5073" fill="none" id="Stream-GMN39" style="stroke:#000000;stroke-width:1;stroke-dasharray:7,7;"/></g><!--link Datagram to GMN42--><g class="link" data-entity-1="Datagram" data-entity-2="GMN42" data-source-line="64" data-uid="lnk44" id="link_Datagram_GMN42"><path d="M604.49,642.4673 C615.9,616.8273 640.28,571.9073 677.49,553.2373 C794.67,494.4273 850.23,505.8773 972.49,553.2373 C1005.58,566.0573 1035.1,592.8973 1056.4,616.6073" fill="none" id="Datagram-GMN42" style="stroke:#000000;stroke-width:1;stroke-dasharray:7,7;"/></g><!--link TLS to GMN45--><g class="link" data-entity-1="TLS" data-entity-2="GMN45" data-source-line="66" data-uid="lnk47" id="link_TLS_GMN45"><path d="M472.77,642.4073 C485.94,616.6973 513.49,571.6973 552.49,553.2373 C630.82,516.1573 665.95,523.8773 747.49,553.2373 C782.77,565.9373 815.27,592.7773 839.02,616.5273" fill="none" id="TLS-GMN45" style="stroke:#000000;stroke-width:1;stroke-dasharray:7,7;"/></g><!--link GMN48 to Conn--><g class="link" data-entity-1="GMN48" data-entity-2="Conn" data-source-line="69" data-uid="lnk50" id="link_GMN48_Conn"><path d="M1756.55,300.3373 C1742.23,309.0773 1724.38,318.4973 1706.99,323.7373 C1304.33,444.9473 1178.56,330.3673 763.99,400.7373 C723.82,407.5573 679.19,419.4073 646.19,429.0173" fill="none" id="GMN48-Conn" style="stroke:#000000;stroke-width:1;stroke-dasharray:7,7;"/></g><!--link GMN51 to TLS--><g class="link" data-entity-1="GMN51" data-entity-2="TLS" data-source-line="70" data-uid="lnk53" id="link_GMN51_TLS"><path d="M1013.72,466.2973 C1002.67,474.8073 988.86,484.0573 974.99,489.7373 C900.35,520.3273 864.64,477.3873 795.99,519.7373 C764.59,539.1073 778.63,567.7673 746.99,586.7373 C665.36,635.6573 624.54,584.5473 534.99,616.7373 C517.98,622.8473 500.66,633.3673 487.38,642.5273" fill="none" id="GMN51-TLS" style="stroke:#000000;stroke-width:1;stroke-dasharray:7,7;"/></g><!--link GMN54 to Config--><g class="link" data-entity-1="GMN54" data-entity-2="Config" data-source-line="73" data-uid="lnk56" id="link_GMN54_Config"><path d="M860.56,250.5873 C831.05,231.0073 788.82,206.7573 747.49,196.2373 C664.36,175.0773 634.68,165.7773 554.49,196.2373 C520.8,209.0273 491.49,240.1273 475.04,260.4173" fill="none" id="GMN54-Config" style="stroke:#000000;stroke-width:1;stroke-dasharray:7,7;"/></g><!--link GMN57 to Listener--><g class="link" data-entity-1="GMN57" data-entity-2="Listener" data-source-line="75" data-uid="lnk59" id="link_GMN57_Listener"><path d="M1342.91,250.6473 C1317.99,231.0973 1281.97,206.8573 1245.49,196.2373 C1123.65,160.7773 791.64,147.4973 674.49,196.2373 C643.35,209.1873 617.9,240.2473 603.86,260.4773" fill="none" id="GMN57-Listener" style="stroke:#000000;stroke-width:1;stroke-dasharray:7,7;"/></g><!--link GMN60 to Stream--><g class="link" data-entity-1="GMN60" data-entity-2="Stream" data-source-line="77" data-uid="lnk62" id="link_GMN60_Stream"><path d="M1278.94,632.5573 C1255.76,606.2173 1217.38,568.9673 1174.49,553.2373 C1011.33,493.4173 936.3,470.4973 783.49,553.2373 C748.44,572.2173 728.05,617.0173 718.87,642.5573" fill="none" id="GMN60-Stream" style="stroke:#000000;stroke-width:1;stroke-dasharray:7,7;"/></g><!--SRC=[lLPDRnit4Btlhs1rIMD4jGi7HUj3W4Iscw1ou4WoVD65sXr9XAdXWkGg5eB-zyvmoVsIQlJGHAVTuTjvZyEPH_tajx03KMgfC7DF2ajfvKxaPbSQ1FHpVz0WBEHUuaP31xAI-TF6cWgBYT76YgzRvU5K2l4j4-B30AtLPkiFeBNvogl65c3hbPKcQFPtbddbYVhEVQbKBgRo05PCKawNPIN1v0R4g8iO1RAMUZI3ZNBUIgyCZeGGqWaAzJ4JWskrgHeGOUfG7pQbH83CKVy8ba97-P0A5XbJFko3vjw2tALS0LI7-h1hwUN6ja22fL0Vk9ZEcSN3inz588Ko0j5-uyVZyRkuCtwx4ZdnUN17cBIjbp2ye_gjYscp7s5YaGEi9HZ2P9v3wMCgREdgsfoWws1IOHYpaqZDSOpXCYMkXA5UUoLkdZrOb5eegg5Tovo6mj2p4pzRM8C5pC49RuIXYR6YK87AlSvQ_EZMcftuk5ZSdr-AUskyoOqUyKbyufMFbqVOHrWjh4HN6kjFVF6uw7wnCA85nsvdvC8quIoBJ9sQPMWy28CqSlX4kpuxcwNzN0t5YkjwMsTdIvn13cfFUuwODSN1BP6mUrLGt89MSgNXZGZJ2uKeAB87UuWo7XV_LSR9EfmKqqEwaBchgOw8NQMzAZKyAzpqnJJ3ynta535tLr25gKoTweIMP3Mzitj9qU3WkrgYsuJUVBY-5tEJFu7lIFZoy6d2unSzARRzZbmZovgH-R_KXAMT8Zbx9OCUzcdmtPgaEWdA9ajNwM2yMHPd_4TAYVt2YePgNgMhnvMGgpKzI2GbOTNLcYnVOiAiWpNMmjhRHjoIIx7VNR6OCVSHEOWRQzY3vlDWg-Q5csV8g_15QSrQQHwoiLXiILdHEImE_gdDYYpAWVVKsNG9zcL4zsKblJjjAENzzFupauM-9eFRNhuEbEIDvAq5aIcfWufu95fn7JbmInTs46_Dl-jex9sLD2y34NEmD0rZH-SGNT_OK2S-p9N2WZBpUtkRHfYaWmyBKcl-4z9hwAE2O2f7IZAG4QR3qR42vSct2aFkksGWv6gDo_Ht7xNH1HBInkXGGImWQuYFFVxPq4ENc6nYYHzKeMojMkhp1-o-Bh6hPSZQZ3NpDYyzveV6cDuiiSAXXIznIkbf5cWgwEMp8RltzK0v5-QZpyYzmsITlo73IlFIhxzSXWjsKpTcg25Op-DLdq2ts_-20-cnQjzWRp2tXvBVpWj8ZpogZKdhu097a-fDsUk7sUr4_75nSS7AGWSCt2RYqwuO_llRjxy5MwctmQppq3O5b42dXhc2oAPX_V8yNdS-2TMvgvmNsj30zmPm1MjZeMlUbOEiJt9ws4upqC0sVyHYKOaWpXMTVala1Yp7VVm2GnpC9Keio5R3xMVhApFx1m00]--></g></svg>