<svg xmlns="http://www.w3.org/2000/svg" xmlns:xlink="http://www.w3.org/1999/xlink" contentStyleType="text/css" data-diagram-type="DESCRIPTION" height="688px" preserveAspectRatio="none" style="width:2467px;height:688px;background:#FFFFFF;" version="1.1" viewBox="0 0 2467 688" width="2467px" zoomAndPan="magnify"><title>HTTP/3 Protocol Components</title><defs/><g><g class="title" data-source-line="9"><text fill="#000000" font-family="Verdana" font-size="22" font-weight="bold" lengthAdjust="spacing" textLength="367.0605" x="1045.9436" y="37.1182">HTTP/3 Protocol Components</text></g><!--cluster HTTP/3 Protocol--><g class="cluster" data-entity="HTTP.3 Protocol" data-source-line="11" data-uid="ent0002" id="cluster_HTTP.3 Protocol"><path d="M137.4478,226.7373 L269.3628,226.7373 A3.75,3.75 0 0 1 271.8628,229.2373 L278.8628,249.752 L851.4478,249.752 A2.5,2.5 0 0 1 853.9478,252.252 L853.9478,479.2373 A2.5,2.5 0 0 1 851.4478,481.7373 L137.4478,481.7373 A2.5,2.5 0 0 1 134.9478,479.2373 L134.9478,229.2373 A2.5,2.5 0 0 1 137.4478,226.7373" fill="#FFFFFF" style="stroke:#000000;stroke-width:1;"/><line style="stroke:#000000;stroke-width:1;" x1="134.9478" x2="278.8628" y1="249.752" y2="249.752"/><text fill="#000000" font-family="Verdana" font-size="14" font-weight="bold" lengthAdjust="spacing" textLength="130.915" x="138.9478" y="242.8125">HTTP/3 Protocol</text></g><!--entity H3Parser--><g class="entity" data-entity="H3Parser" data-source-line="12" data-uid="ent0003" id="entity_H3Parser"><rect fill="#E0FFFF" height="37.0146" rx="2.5" ry="2.5" style="stroke:#000000;stroke-width:1;" width="170.1377" x="205.9478" y="262.7373"/><text fill="#000000" font-family="Verdana" font-size="14" lengthAdjust="spacing" textLength="150.1377" x="215.9478" y="286.8125">HTTP/3 Frame Parser</text></g><!--entity QPACK--><g class="entity" data-entity="QPACK" data-source-line="13" data-uid="ent0004" id="entity_QPACK"><rect fill="#E0FFFF" height="37.0146" rx="2.5" ry="2.5" style="stroke:#000000;stroke-width:1;" width="194.2822" x="150.9478" y="428.7373"/><text fill="#000000" font-family="Verdana" font-size="14" lengthAdjust="spacing" textLength="174.2822" x="160.9478" y="452.8125">QPACK Encoder/Decoder</text></g><!--entity H3Control--><g class="entity" data-entity="H3Control" data-source-line="14" data-uid="ent0005" id="entity_H3Control"><rect fill="#E0FFFF" height="37.0146" rx="2.5" ry="2.5" style="stroke:#000000;stroke-width:1;" width="183.707" x="425.9478" y="262.7373"/><text fill="#000000" font-family="Verdana" font-size="14" lengthAdjust="spacing" textLength="163.707" x="435.9478" y="286.8125">HTTP/3 Control Stream</text></g><!--entity H3Request--><g class="entity" data-entity="H3Request" data-source-line="15" data-uid="ent0006" id="entity_H3Request"><rect fill="#E0FFFF" height="37.0146" rx="2.5" ry="2.5" style="stroke:#000000;stroke-width:1;" width="189.5518" x="644.9478" y="262.7373"/><text fill="#000000" font-family="Verdana" font-size="14" lengthAdjust="spacing" textLength="169.5518" x="654.9478" y="286.8125">HTTP/3 Request Stream</text></g><!--entity H3Settings--><g class="entity" data-entity="H3Settings" data-source-line="16" data-uid="ent0007" id="entity_H3Settings"><rect fill="#E0FFFF" height="37.0146" rx="2.5" ry="2.5" style="stroke:#000000;stroke-width:1;" width="141.7754" x="379.9478" y="428.7373"/><text fill="#000000" font-family="Verdana" font-size="14" lengthAdjust="spacing" textLength="121.7754" x="389.9478" y="452.8125">SETTINGS Frame</text></g><!--entity H3Headers--><g class="entity" data-entity="H3Headers" data-source-line="17" data-uid="ent0008" id="entity_H3Headers"><rect fill="#E0FFFF" height="37.0146" rx="2.5" ry="2.5" style="stroke:#000000;stroke-width:1;" width="137.1953" x="557.4478" y="428.7373"/><text fill="#000000" font-family="Verdana" font-size="14" lengthAdjust="spacing" textLength="117.1953" x="567.4478" y="452.8125">HEADERS Frame</text></g><!--entity H3Data--><g class="entity" data-entity="H3Data" data-source-line="18" data-uid="ent0009" id="entity_H3Data"><rect fill="#E0FFFF" height="37.0146" rx="2.5" ry="2.5" style="stroke:#000000;stroke-width:1;" width="107.8623" x="729.9478" y="428.7373"/><text fill="#000000" font-family="Verdana" font-size="14" lengthAdjust="spacing" textLength="87.8623" x="739.9478" y="452.8125">DATA Frame</text></g><!--entity IFromApp--><g class="entity" data-entity="IFromApp" data-source-line="27" data-uid="ent0014" id="entity_IFromApp"><ellipse cx="91.9478" cy="79.7373" fill="#FFFFFF" rx="8" ry="8" style="stroke:#000000;stroke-width:1;"/><text fill="#000000" font-family="Verdana" font-size="14" lengthAdjust="spacing" textLength="161.8955" x="11" y="110.8125">From Application Layer</text></g><!--entity IFromWT--><g class="entity" data-entity="IFromWT" data-source-line="28" data-uid="ent0015" id="entity_IFromWT"><ellipse cx="739.9478" cy="79.7373" fill="#FFFFFF" rx="8" ry="8" style="stroke:#000000;stroke-width:1;"/><text fill="#000000" font-family="Verdana" font-size="14" lengthAdjust="spacing" textLength="201.3184" x="639.2886" y="110.8125">From WebTransport Protocol</text></g><!--entity IToMsQuic--><g class="entity" data-entity="IToMsQuic" data-source-line="29" data-uid="ent0016" id="entity_IToMsQuic"><ellipse cx="1092.9478" cy="648.7373" fill="#FFFFFF" rx="8" ry="8" style="stroke:#000000;stroke-width:1;"/><text fill="#000000" font-family="Verdana" font-size="14" lengthAdjust="spacing" textLength="115.876" x="1035.0098" y="679.8125">To MsQuic Layer</text></g><g class="entity" data-entity="GMN24" data-source-line="53" data-uid="ent0025" id="entity_GMN24"><path d="M869.9478,236.7373 L869.9478,325.7339 L1064.2896,325.7339 L1064.2896,246.7373 L1054.2896,236.7373 L869.9478,236.7373" fill="#FFFFFF" style="stroke:#000000;stroke-width:1;"/><path d="M1054.2896,236.7373 L1054.2896,246.7373 L1064.2896,246.7373 L1054.2896,236.7373" fill="#FFFFFF" style="stroke:#000000;stroke-width:1;"/><text fill="#000000" font-family="Verdana" font-size="13" font-weight="bold" lengthAdjust="spacing" textLength="163.9282" x="875.9478" y="254.8071">HTTP/3 Frame Parser:</text><text fill="#000000" font-family="Verdana" font-size="13" lengthAdjust="spacing" textLength="112.7026" x="875.9478" y="270.6064">- Varint decoding</text><text fill="#000000" font-family="Verdana" font-size="13" lengthAdjust="spacing" textLength="173.3418" x="875.9478" y="286.4058">- Frame type identification</text><text fill="#000000" font-family="Verdana" font-size="13" lengthAdjust="spacing" textLength="131.2441" x="875.9478" y="302.2051">- Payload extraction</text><text fill="#000000" font-family="Verdana" font-size="13" lengthAdjust="spacing" textLength="103.6191" x="875.9478" y="318.0044">- Error handling</text></g><g class="entity" data-entity="GMN27" data-source-line="55" data-uid="ent0028" id="entity_GMN27"><path d="M872.9478,402.7373 L872.9478,491.7339 L1088.7002,491.7339 L1088.7002,412.7373 L1078.7002,402.7373 L872.9478,402.7373" fill="#FFFFFF" style="stroke:#000000;stroke-width:1;"/><path d="M1078.7002,402.7373 L1078.7002,412.7373 L1088.7002,412.7373 L1078.7002,402.7373" fill="#FFFFFF" style="stroke:#000000;stroke-width:1;"/><text fill="#000000" font-family="Verdana" font-size="13" font-weight="bold" lengthAdjust="spacing" textLength="123.5381" x="878.9478" y="420.8071">QPACK Features:</text><text fill="#000000" font-family="Verdana" font-size="13" lengthAdjust="spacing" textLength="143.6855" x="878.9478" y="436.6064">- Header compression</text><text fill="#000000" font-family="Verdana" font-size="13" lengthAdjust="spacing" textLength="157.6504" x="878.9478" y="452.4058">- Static table references</text><text fill="#000000" font-family="Verdana" font-size="13" lengthAdjust="spacing" textLength="194.7524" x="878.9478" y="468.2051">- Dynamic table management</text><text fill="#000000" font-family="Verdana" font-size="13" lengthAdjust="spacing" textLength="183.8154" x="878.9478" y="484.0044">- Huffman encoding support</text></g><g class="entity" data-entity="GMN30" data-source-line="57" data-uid="ent0031" id="entity_GMN30"><path d="M1098.9478,236.7373 L1098.9478,325.7339 L1313.1006,325.7339 L1313.1006,246.7373 L1303.1006,236.7373 L1098.9478,236.7373" fill="#FFFFFF" style="stroke:#000000;stroke-width:1;"/><path d="M1303.1006,236.7373 L1303.1006,246.7373 L1313.1006,246.7373 L1303.1006,236.7373" fill="#FFFFFF" style="stroke:#000000;stroke-width:1;"/><text fill="#000000" font-family="Verdana" font-size="13" font-weight="bold" lengthAdjust="spacing" textLength="183.917" x="1104.9478" y="254.8071">Control Stream Features:</text><text fill="#000000" font-family="Verdana" font-size="13" lengthAdjust="spacing" textLength="94.8149" x="1104.9478" y="270.6064">Stream ID 2/3</text><text fill="#000000" font-family="Verdana" font-size="13" lengthAdjust="spacing" textLength="151.1567" x="1104.9478" y="286.4058">(client/server initiated)</text><text fill="#000000" font-family="Verdana" font-size="13" lengthAdjust="spacing" textLength="167.5845" x="1104.9478" y="302.2051">Carries SETTINGS frames</text><text fill="#000000" font-family="Verdana" font-size="13" lengthAdjust="spacing" textLength="193.1528" x="1104.9478" y="318.0044">Unidirectional communication</text></g><g class="entity" data-entity="GMN33" data-source-line="59" data-uid="ent0034" id="entity_GMN33"><path d="M1348.4478,236.7373 L1348.4478,325.7339 L1559.4395,325.7339 L1559.4395,246.7373 L1549.4395,236.7373 L1348.4478,236.7373" fill="#FFFFFF" style="stroke:#000000;stroke-width:1;"/><path d="M1549.4395,236.7373 L1549.4395,246.7373 L1559.4395,246.7373 L1549.4395,236.7373" fill="#FFFFFF" style="stroke:#000000;stroke-width:1;"/><text fill="#000000" font-family="Verdana" font-size="13" font-weight="bold" lengthAdjust="spacing" textLength="189.9917" x="1354.4478" y="254.8071">Request Stream Features:</text><text fill="#000000" font-family="Verdana" font-size="13" lengthAdjust="spacing" textLength="129.9619" x="1354.4478" y="270.6064">Stream ID 0, 4, 8...</text><text fill="#000000" font-family="Verdana" font-size="13" lengthAdjust="spacing" textLength="91.3872" x="1354.4478" y="286.4058">(bidirectional)</text><text fill="#000000" font-family="Verdana" font-size="13" lengthAdjust="spacing" textLength="182.749" x="1354.4478" y="302.2051">Carries HEADERS and DATA</text><text fill="#000000" font-family="Verdana" font-size="13" lengthAdjust="spacing" textLength="153.8164" x="1354.4478" y="318.0044">Request/response pairs</text></g><g class="entity" data-entity="GMN36" data-source-line="62" data-uid="ent0037" id="entity_GMN36"><path d="M376.9478,58.7373 L376.9478,100.3359 L467.3911,100.3359 L467.3911,68.7373 L457.3911,58.7373 L376.9478,58.7373" fill="#FFFFFF" style="stroke:#000000;stroke-width:1;"/><path d="M457.3911,58.7373 L457.3911,68.7373 L467.3911,68.7373 L457.3911,58.7373" fill="#FFFFFF" style="stroke:#000000;stroke-width:1;"/><text fill="#000000" font-family="Verdana" font-size="13" font-weight="bold" lengthAdjust="spacing" textLength="69.4434" x="382.9478" y="76.8071">RFC 9114</text><text fill="#000000" font-family="Verdana" font-size="13" lengthAdjust="spacing" textLength="47.7979" x="382.9478" y="92.6064">HTTP/3</text></g><g class="entity" data-entity="GMN39" data-source-line="65" data-uid="ent0040" id="entity_GMN39"><path d="M1124.4478,402.7373 L1124.4478,491.7339 L1325.042,491.7339 L1325.042,412.7373 L1315.042,402.7373 L1124.4478,402.7373" fill="#FFFFFF" style="stroke:#000000;stroke-width:1;"/><path d="M1315.042,402.7373 L1315.042,412.7373 L1325.042,412.7373 L1315.042,402.7373" fill="#FFFFFF" style="stroke:#000000;stroke-width:1;"/><text fill="#000000" font-family="Verdana" font-size="13" font-weight="bold" lengthAdjust="spacing" textLength="129.3843" x="1130.4478" y="420.8071">SETTINGS Frame:</text><text fill="#000000" font-family="Verdana" font-size="13" lengthAdjust="spacing" textLength="179.5942" x="1130.4478" y="436.6064">- ENABLE_WEBTRANSPORT</text><text fill="#000000" font-family="Verdana" font-size="13" lengthAdjust="spacing" textLength="165.8643" x="1130.4478" y="452.4058">- H3_DATAGRAM support</text><text fill="#000000" font-family="Verdana" font-size="13" lengthAdjust="spacing" textLength="145.6025" x="1130.4478" y="468.2051">- QPACK configuration</text><text fill="#000000" font-family="Verdana" font-size="13" lengthAdjust="spacing" textLength="98.0396" x="1130.4478" y="484.0044">- Stream limits</text></g><g class="entity" data-entity="GMN42" data-source-line="67" data-uid="ent0043" id="entity_GMN42"><path d="M1360.4478,402.7373 L1360.4478,491.7339 L1565.8853,491.7339 L1565.8853,412.7373 L1555.8853,402.7373 L1360.4478,402.7373" fill="#FFFFFF" style="stroke:#000000;stroke-width:1;"/><path d="M1555.8853,402.7373 L1555.8853,412.7373 L1565.8853,412.7373 L1555.8853,402.7373" fill="#FFFFFF" style="stroke:#000000;stroke-width:1;"/><text fill="#000000" font-family="Verdana" font-size="13" font-weight="bold" lengthAdjust="spacing" textLength="124.5981" x="1366.4478" y="420.8071">HEADERS Frame:</text><text fill="#000000" font-family="Verdana" font-size="13" lengthAdjust="spacing" textLength="171.1772" x="1366.4478" y="436.6064">- QPACK encoded headers</text><text fill="#000000" font-family="Verdana" font-size="13" lengthAdjust="spacing" textLength="184.4375" x="1366.4478" y="452.4058">- Request/response headers</text><text fill="#000000" font-family="Verdana" font-size="13" lengthAdjust="spacing" textLength="170.8345" x="1366.4478" y="468.2051">- WebTransport CONNECT</text><text fill="#000000" font-family="Verdana" font-size="13" lengthAdjust="spacing" textLength="94.2627" x="1366.4478" y="484.0044">- Status codes</text></g><g class="entity" data-entity="GMN45" data-source-line="69" data-uid="ent0046" id="entity_GMN45"><path d="M1600.4478,402.7373 L1600.4478,491.7339 L1785.7251,491.7339 L1785.7251,412.7373 L1775.7251,402.7373 L1600.4478,402.7373" fill="#FFFFFF" style="stroke:#000000;stroke-width:1;"/><path d="M1775.7251,402.7373 L1775.7251,412.7373 L1785.7251,412.7373 L1775.7251,402.7373" fill="#FFFFFF" style="stroke:#000000;stroke-width:1;"/><text fill="#000000" font-family="Verdana" font-size="13" font-weight="bold" lengthAdjust="spacing" textLength="95.5005" x="1606.4478" y="420.8071">DATA Frame:</text><text fill="#000000" font-family="Verdana" font-size="13" lengthAdjust="spacing" textLength="137.6172" x="1606.4478" y="436.6064">- Application payload</text><text fill="#000000" font-family="Verdana" font-size="13" lengthAdjust="spacing" textLength="164.2773" x="1606.4478" y="452.4058">- Request/response body</text><text fill="#000000" font-family="Verdana" font-size="13" lengthAdjust="spacing" textLength="139.9658" x="1606.4478" y="468.2051">- Binary data support</text><text fill="#000000" font-family="Verdana" font-size="13" lengthAdjust="spacing" textLength="145.1963" x="1606.4478" y="484.0044">- Stream end markers</text></g><!--link H3Parser to QPACK--><g class="link" data-entity-1="H3Parser" data-entity-2="QPACK" data-source-line="20" data-uid="lnk10" id="link_H3Parser_QPACK"><path d="M286.3478,299.7873 C278.1178,331.1873 262.4688,390.8433 254.1688,422.5133" fill="none" id="H3Parser-to-QPACK" style="stroke:#000000;stroke-width:1;"/><polygon fill="#000000" points="252.6478,428.3173,258.7987,420.6254,253.9153,423.4806,251.0601,418.5973,252.6478,428.3173" style="stroke:#000000;stroke-width:1;"/><text fill="#000000" font-family="Verdana" font-size="13" lengthAdjust="spacing" textLength="29.5166" x="271.9478" y="369.8071">uses</text></g><!--link H3Control to H3Settings--><g class="link" data-entity-1="H3Control" data-entity-2="H3Settings" data-source-line="21" data-uid="lnk11" id="link_H3Control_H3Settings"><path d="M498.3178,299.7773 C484.3978,313.4973 466.7078,333.8673 457.9478,355.7373 C448.3978,379.5873 447.8167,403.7676 448.9167,422.5376" fill="none" id="H3Control-to-H3Settings" style="stroke:#000000;stroke-width:1;"/><polygon fill="#000000" points="449.2678,428.5273,452.7344,419.3087,448.9752,423.5359,444.7481,419.7767,449.2678,428.5273" style="stroke:#000000;stroke-width:1;"/><text fill="#000000" font-family="Verdana" font-size="13" lengthAdjust="spacing" textLength="97.1064" x="458.9478" y="369.8071">sends/receives</text></g><!--link H3Request to H3Headers--><g class="link" data-entity-1="H3Request" data-entity-2="H3Headers" data-source-line="22" data-uid="lnk12" id="link_H3Request_H3Headers"><path d="M711.4778,299.8473 C692.3578,313.0473 667.9978,332.7373 652.9478,355.7373 C638.1278,378.3673 632.1416,403.502 629.0816,422.712" fill="none" id="H3Request-to-H3Headers" style="stroke:#000000;stroke-width:1;"/><polygon fill="#000000" points="628.1378,428.6373,633.5037,420.3786,628.9243,423.6996,625.6033,419.1201,628.1378,428.6373" style="stroke:#000000;stroke-width:1;"/><text fill="#000000" font-family="Verdana" font-size="13" lengthAdjust="spacing" textLength="97.1064" x="653.9478" y="369.8071">sends/receives</text></g><!--link H3Request to H3Data--><g class="link" data-entity-1="H3Request" data-entity-2="H3Data" data-source-line="23" data-uid="lnk13" id="link_H3Request_H3Data"><path d="M744.6578,299.7873 C753.0778,331.1873 769.0941,390.8519 777.5841,422.5219" fill="none" id="H3Request-to-H3Data" style="stroke:#000000;stroke-width:1;"/><polygon fill="#000000" points="779.1378,428.3173,780.6709,418.5885,777.8431,423.4878,772.9438,420.66,779.1378,428.3173" style="stroke:#000000;stroke-width:1;"/><text fill="#000000" font-family="Verdana" font-size="13" lengthAdjust="spacing" textLength="97.1064" x="763.9478" y="369.8071">sends/receives</text></g><!--link IFromApp to H3Parser--><g class="link" data-entity-1="IFromApp" data-entity-2="H3Parser" data-source-line="31" data-uid="lnk17" id="link_IFromApp_H3Parser"><path d="M88.4078,88.7473 C79.5178,110.1673 58.8178,169.6673 84.9478,206.7373 C112.2978,245.5273 156.1629,262.7973 199.9229,271.4973" fill="none" id="IFromApp-to-H3Parser" style="stroke:#000000;stroke-width:1;"/><polygon fill="#000000" points="205.8078,272.6673,197.7605,266.9891,200.9037,271.6923,196.2005,274.8356,205.8078,272.6673" style="stroke:#000000;stroke-width:1;"/><path d="M89.9478,144.7373 L89.9478,201.7373 L386.9478,201.7373 L386.9478,154.7373 L376.9478,144.7373 L89.9478,144.7373" fill="#FFFFFF" style="stroke:#000000;stroke-width:1;"/><path d="M376.9478,144.7373 L376.9478,154.7373 L386.9478,154.7373 L376.9478,144.7373" fill="#FFFFFF" style="stroke:#000000;stroke-width:1;"/><text fill="#000000" font-family="Verdana" font-size="13" font-weight="bold" lengthAdjust="spacing" textLength="276.5991" x="95.9478" y="162.8071">Reference: Application Layer Diagram</text><text fill="#000000" font-family="Verdana" font-size="13" lengthAdjust="spacing" textLength="220.8477" x="95.9478" y="178.6064">Receives from HTTP/3 Application</text><text fill="#000000" font-family="Verdana" font-size="13" lengthAdjust="spacing" textLength="217.4009" x="95.9478" y="194.4058">Provides HTTP/3 parsing services</text></g><!--link IFromWT to H3Request--><g class="link" data-entity-1="IFromWT" data-entity-2="H3Request" data-source-line="34" data-uid="lnk18" id="link_IFromWT_H3Request"><path d="M739.9478,88.8073 C739.9478,118.3273 739.9478,214.9273 739.9478,256.5173" fill="none" id="IFromWT-to-H3Request" style="stroke:#000000;stroke-width:1;"/><polygon fill="#000000" points="739.9478,262.5173,743.9478,253.5173,739.9478,257.5173,735.9478,253.5173,739.9478,262.5173" style="stroke:#000000;stroke-width:1;"/><path d="M744.9478,144.7373 L744.9478,201.7373 L1083.9478,201.7373 L1083.9478,154.7373 L1073.9478,144.7373 L744.9478,144.7373" fill="#FFFFFF" style="stroke:#000000;stroke-width:1;"/><path d="M1073.9478,144.7373 L1073.9478,154.7373 L1083.9478,154.7373 L1073.9478,144.7373" fill="#FFFFFF" style="stroke:#000000;stroke-width:1;"/><text fill="#000000" font-family="Verdana" font-size="13" font-weight="bold" lengthAdjust="spacing" textLength="318.5825" x="750.9478" y="162.8071">Reference: WebTransport Protocol Diagram</text><text fill="#000000" font-family="Verdana" font-size="13" lengthAdjust="spacing" textLength="282.6104" x="750.9478" y="178.6064">Receives WebTransport CONNECT requests</text><text fill="#000000" font-family="Verdana" font-size="13" lengthAdjust="spacing" textLength="200.2939" x="750.9478" y="194.4058">Handles session establishment</text></g><!--link H3Control to IToMsQuic--><g class="link" data-entity-1="H3Control" data-entity-2="IToMsQuic" data-source-line="37" data-uid="lnk19" id="link_H3Control_IToMsQuic"><path d="M554.2078,299.8873 C575.2278,309.2673 602.4978,320.0173 627.9478,325.7373 C755.5978,354.4173 1713.5078,307.2473 1802.9478,402.7373 C2017.7678,632.0973 1204.8875,646.6896 1108.1875,647.6196" fill="none" id="H3Control-to-IToMsQuic" style="stroke:#000000;stroke-width:1;"/><polygon fill="#000000" points="1102.1878,647.6773,1111.2258,651.5906,1107.1875,647.6292,1111.1489,643.5909,1102.1878,647.6773" style="stroke:#000000;stroke-width:1;"/><path d="M1842.9478,418.7373 L1842.9478,475.7373 L2113.9478,475.7373 L2113.9478,428.7373 L2103.9478,418.7373 L1842.9478,418.7373" fill="#FFFFFF" style="stroke:#000000;stroke-width:1;"/><path d="M2103.9478,418.7373 L2103.9478,428.7373 L2113.9478,428.7373 L2103.9478,418.7373" fill="#FFFFFF" style="stroke:#000000;stroke-width:1;"/><text fill="#000000" font-family="Verdana" font-size="13" font-weight="bold" lengthAdjust="spacing" textLength="246.9937" x="1848.9478" y="436.8071">Reference: MsQuic Layer Diagram</text><text fill="#000000" font-family="Verdana" font-size="13" lengthAdjust="spacing" textLength="196.0474" x="1848.9478" y="452.6064">Maps to unidirectional Stream</text><text fill="#000000" font-family="Verdana" font-size="13" lengthAdjust="spacing" textLength="250.542" x="1848.9478" y="468.4058">Stream ID 2/3 (client/server initiated)</text></g><!--link H3Request to IToMsQuic--><g class="link" data-entity-1="H3Request" data-entity-2="IToMsQuic" data-source-line="40" data-uid="lnk20" id="link_H3Request_IToMsQuic"><path d="M776.1578,299.7873 C797.8778,309.3873 826.3578,320.3973 852.9478,325.7373 C993.9378,354.0673 2052.6378,292.4673 2144.9478,402.7373 C2304.0278,592.7673 1995.2078,564.1273 1881.9478,588.7373 C1722.5478,623.3773 1185.8237,644.3056 1108.2137,647.1756" fill="none" id="H3Request-to-IToMsQuic" style="stroke:#000000;stroke-width:1;"/><polygon fill="#000000" points="1102.2178,647.3973,1111.3594,651.062,1107.2143,647.2125,1111.0638,643.0674,1102.2178,647.3973" style="stroke:#000000;stroke-width:1;"/><path d="M2193.9478,418.7373 L2193.9478,475.7373 L2460.9478,475.7373 L2460.9478,428.7373 L2450.9478,418.7373 L2193.9478,418.7373" fill="#FFFFFF" style="stroke:#000000;stroke-width:1;"/><path d="M2450.9478,418.7373 L2450.9478,428.7373 L2460.9478,428.7373 L2450.9478,418.7373" fill="#FFFFFF" style="stroke:#000000;stroke-width:1;"/><text fill="#000000" font-family="Verdana" font-size="13" font-weight="bold" lengthAdjust="spacing" textLength="246.9937" x="2199.9478" y="436.8071">Reference: MsQuic Layer Diagram</text><text fill="#000000" font-family="Verdana" font-size="13" lengthAdjust="spacing" textLength="187.6938" x="2199.9478" y="452.6064">Maps to bidirectional Stream</text><text fill="#000000" font-family="Verdana" font-size="13" lengthAdjust="spacing" textLength="225.9194" x="2199.9478" y="468.4058">Stream ID 0, 4, 8... (bidirectional)</text></g><!--link H3Headers to IToMsQuic--><g class="link" data-entity-1="H3Headers" data-entity-2="IToMsQuic" data-source-line="43" data-uid="lnk21" id="link_H3Headers_IToMsQuic"><path d="M660.8078,465.9073 C683.6578,478.8673 712.8878,498.2673 732.9478,521.7373 C754.3878,546.8273 738.7078,568.7273 764.9478,588.7373 C817.3878,628.7373 1030.6091,643.9178 1077.9291,646.8378" fill="none" id="H3Headers-to-IToMsQuic" style="stroke:#000000;stroke-width:1;"/><polygon fill="#000000" points="1083.9178,647.2073,1075.1812,642.6606,1078.9272,646.8994,1074.6885,650.6454,1083.9178,647.2073" style="stroke:#000000;stroke-width:1;"/><path d="M769.9478,526.7373 L769.9478,583.7373 L1040.9478,583.7373 L1040.9478,536.7373 L1030.9478,526.7373 L769.9478,526.7373" fill="#FFFFFF" style="stroke:#000000;stroke-width:1;"/><path d="M1030.9478,526.7373 L1030.9478,536.7373 L1040.9478,536.7373 L1030.9478,526.7373" fill="#FFFFFF" style="stroke:#000000;stroke-width:1;"/><text fill="#000000" font-family="Verdana" font-size="13" font-weight="bold" lengthAdjust="spacing" textLength="246.9937" x="775.9478" y="544.8071">Reference: MsQuic Layer Diagram</text><text fill="#000000" font-family="Verdana" font-size="13" lengthAdjust="spacing" textLength="250.0723" x="775.9478" y="560.6064">Transmitted as frame data via Stream</text><text fill="#000000" font-family="Verdana" font-size="13" lengthAdjust="spacing" textLength="221.9648" x="775.9478" y="576.4058">Contains QPACK encoded headers</text></g><!--link H3Data to IToMsQuic--><g class="link" data-entity-1="H3Data" data-entity-2="IToMsQuic" data-source-line="46" data-uid="lnk22" id="link_H3Data_IToMsQuic"><path d="M807.7278,465.8773 C821.2078,475.0173 838.7778,485.5273 855.9478,491.7373 C939.6478,521.9973 986.4778,463.6873 1053.9478,521.7373 C1090.2278,552.9473 1093.297,611.1774 1093.187,633.7074" fill="none" id="H3Data-to-IToMsQuic" style="stroke:#000000;stroke-width:1;"/><polygon fill="#000000" points="1093.1578,639.7073,1097.2016,630.7269,1093.1822,634.7074,1089.2017,630.6879,1093.1578,639.7073" style="stroke:#000000;stroke-width:1;"/><path d="M1091.9478,526.7373 L1091.9478,583.7373 L1362.9478,583.7373 L1362.9478,536.7373 L1352.9478,526.7373 L1091.9478,526.7373" fill="#FFFFFF" style="stroke:#000000;stroke-width:1;"/><path d="M1352.9478,526.7373 L1352.9478,536.7373 L1362.9478,536.7373 L1352.9478,526.7373" fill="#FFFFFF" style="stroke:#000000;stroke-width:1;"/><text fill="#000000" font-family="Verdana" font-size="13" font-weight="bold" lengthAdjust="spacing" textLength="246.9937" x="1097.9478" y="544.8071">Reference: MsQuic Layer Diagram</text><text fill="#000000" font-family="Verdana" font-size="13" lengthAdjust="spacing" textLength="250.0723" x="1097.9478" y="560.6064">Transmitted as frame data via Stream</text><text fill="#000000" font-family="Verdana" font-size="13" lengthAdjust="spacing" textLength="187.3257" x="1097.9478" y="576.4058">Contains application payload</text></g><!--link H3Settings to IToMsQuic--><g class="link" data-entity-1="H3Settings" data-entity-2="IToMsQuic" data-source-line="49" data-uid="lnk23" id="link_H3Settings_IToMsQuic"><path d="M442.9878,466.0073 C431.0778,495.5873 413.1478,555.0173 443.9478,588.7373 C489.1478,638.2373 1000.8982,646.5705 1077.4982,647.5505" fill="none" id="H3Settings-to-IToMsQuic" style="stroke:#000000;stroke-width:1;"/><polygon fill="#000000" points="1083.4978,647.6273,1074.5497,643.5125,1078.4982,647.5633,1074.4473,651.5118,1083.4978,647.6273" style="stroke:#000000;stroke-width:1;"/><path d="M448.9478,526.7373 L448.9478,583.7373 L719.9478,583.7373 L719.9478,536.7373 L709.9478,526.7373 L448.9478,526.7373" fill="#FFFFFF" style="stroke:#000000;stroke-width:1;"/><path d="M709.9478,526.7373 L709.9478,536.7373 L719.9478,536.7373 L709.9478,526.7373" fill="#FFFFFF" style="stroke:#000000;stroke-width:1;"/><text fill="#000000" font-family="Verdana" font-size="13" font-weight="bold" lengthAdjust="spacing" textLength="246.9937" x="454.9478" y="544.8071">Reference: MsQuic Layer Diagram</text><text fill="#000000" font-family="Verdana" font-size="13" lengthAdjust="spacing" textLength="250.0723" x="454.9478" y="560.6064">Transmitted as frame data via Stream</text><text fill="#000000" font-family="Verdana" font-size="13" lengthAdjust="spacing" textLength="187.7002" x="454.9478" y="576.4058">Contains connection settings</text></g><!--link H3Parser to GMN24--><g class="link" data-entity-1="H3Parser" data-entity-2="GMN24" data-source-line="53" data-uid="lnk26" id="link_H3Parser_GMN24"><path d="M305.0778,262.5073 C327.3078,234.7773 373.4278,183.9573 426.4478,164.2373 C597.2378,100.7073 666.2578,99.1173 836.4478,164.2373 C874.3878,178.7573 908.2478,209.9473 931.9578,236.4773" fill="none" id="H3Parser-GMN24" style="stroke:#000000;stroke-width:1;stroke-dasharray:7,7;"/></g><!--link QPACK to GMN27--><g class="link" data-entity-1="QPACK" data-entity-2="GMN27" data-source-line="55" data-uid="lnk29" id="link_QPACK_GMN27"><path d="M268.8778,428.6573 C293.3778,408.2673 336.1378,376.7673 379.4478,364.2373 C477.0078,336.0273 738.3278,338.0573 836.4478,364.2373 C865.6578,372.0273 895.0978,387.2873 919.7178,402.6273" fill="none" id="QPACK-GMN27" style="stroke:#000000;stroke-width:1;stroke-dasharray:7,7;"/></g><!--link H3Control to GMN30--><g class="link" data-entity-1="H3Control" data-entity-2="GMN30" data-source-line="57" data-uid="lnk32" id="link_H3Control_GMN30"><path d="M530.9778,262.5373 C551.5478,234.8373 594.4978,184.0773 645.4478,164.2373 C818.9878,96.6773 889.2278,101.1773 1064.4478,164.2373 C1104.6378,178.6973 1141.5278,210.0773 1167.5478,236.7073" fill="none" id="H3Control-GMN30" style="stroke:#000000;stroke-width:1;stroke-dasharray:7,7;"/></g><!--link H3Request to GMN33--><g class="link" data-entity-1="H3Request" data-entity-2="GMN33" data-source-line="59" data-uid="lnk35" id="link_H3Request_GMN33"><path d="M753.3878,262.5173 C774.5878,234.8173 818.7278,184.0273 870.4478,164.2373 C1054.3378,93.8773 1128.3078,97.2473 1313.4478,164.2373 C1353.4478,178.7073 1390.0678,210.0873 1415.8878,236.7073" fill="none" id="H3Request-GMN33" style="stroke:#000000;stroke-width:1;stroke-dasharray:7,7;"/></g><!--link GMN36 to H3Parser--><g class="link" data-entity-1="GMN36" data-entity-2="H3Parser" data-source-line="62" data-uid="lnk38" id="link_GMN36_H3Parser"><path d="M423.0878,100.8073 C423.6078,127.2273 421.0878,174.1273 399.9478,206.7373 C383.6778,231.8273 355.5178,250.4873 331.8978,262.7273" fill="none" id="GMN36-H3Parser" style="stroke:#000000;stroke-width:1;stroke-dasharray:7,7;"/></g><!--link GMN39 to H3Settings--><g class="link" data-entity-1="GMN39" data-entity-2="H3Settings" data-source-line="65" data-uid="lnk41" id="link_GMN39_H3Settings"><path d="M1167.8978,402.6573 C1144.8678,387.3273 1117.1978,372.0573 1089.4478,364.2373 C975.6578,332.1573 669.2478,325.8173 557.4478,364.2373 C520.4278,376.9573 486.3878,408.4073 467.1878,428.7273" fill="none" id="GMN39-H3Settings" style="stroke:#000000;stroke-width:1;stroke-dasharray:7,7;"/></g><!--link GMN42 to H3Headers--><g class="link" data-entity-1="GMN42" data-entity-2="H3Headers" data-source-line="67" data-uid="lnk44" id="link_GMN42_H3Headers"><path d="M1404.9678,402.6473 C1381.5878,387.3173 1353.5178,372.0573 1325.4478,364.2373 C1198.0678,328.7773 855.2978,320.6873 730.4478,364.2373 C694.1378,376.9073 660.9778,408.0473 642.1478,428.3673" fill="none" id="GMN42-H3Headers" style="stroke:#000000;stroke-width:1;stroke-dasharray:7,7;"/></g><!--link GMN45 to H3Data--><g class="link" data-entity-1="GMN45" data-entity-2="H3Data" data-source-line="69" data-uid="lnk47" id="link_GMN45_H3Data"><path d="M1639.6378,402.6873 C1618.0078,387.3673 1591.9078,372.0873 1565.4478,364.2373 C1418.0278,320.4773 1016.6078,308.0773 873.4478,364.2373 C840.6978,377.0873 812.7878,408.1673 797.2178,428.4373" fill="none" id="GMN45-H3Data" style="stroke:#000000;stroke-width:1;stroke-dasharray:7,7;"/></g><!--SRC=[lLRVRzis47xNNt7pozAWITQb3siU1ZYsqWHhNDTMbvS01IrHDX69r4WghJ7iVzyTVzYIvNO3DZGlLiYxutV7xxxZ3tR3QmvDnOHCp9EG3TEiXbpLZP9SsgNTLXmqposJwuftJ5OiVrfhrSfYeYgbuVD6M7ui1FoP05mVM5TYlR7vbadQKxhWsg-lAZHC_aeIAomUV9jbyujBc6jbLQugcCIW9aaQj6Hh3gC3ev4xS7zytBz1L1pcJ1kkHu1_pC3jfV-_x_1XFfxy1gdC5UAwc7BtEt8ERkje-8cILYF4fTMSrQCGFgmUzLZmFrfkx857MErxBDCikvkzNVea77hOfR3arWgvDWU7fEDfkXXuU9TRpZ2b0u_fE1iFpAF7b5cMe7si6AwVdVtgwn7ihg0rt3YRM0ndiqT8DeRBmbmWexXu3jQn4C4wW8D_Pqt0ula7raYZ7o7zOhcMh08XyQDaER9TuRU14yrBhhdCkG6hG64hQ2W4MsC9p8jaRp-wqQg6STDK8cTMA0dls9OOWPMveptS6fW_y5MccJIDqhR3pUZoa7KzCWNtvaChycxaJFcr98c7X9G3PwMo711C9UGJ9dzwkeZvN0t1mjGdTdhwA1UXG50IqC36ZiUZHBpFea2Bi8ajRV02iS3wMM2z0gI7B22AfFqMfAC5EGghPpbvFvkbammro1rX7kKjaqM5PaWsG_dXAbjLmcngf76IxDb7sFPL_1QsRl6xaEvPuxZHIb48Ka4yZyKUVvJ-5-wcy3CMwIIl12Aue29X62655SpouWLXYgpz_p2j_W7IJo_XzKluvVpy74vwjWvFRBB_ZiTTLIqiPagqBPtC5jILpuBjSD6Tu8m92WhSYMi1co14IMZaxmw7THgbOTjAiOB0x1JhkmFAbPJ-ff3WGTXHna8ZceRdeiHZc4Gi3hRng3HDL53bNg49tv7PTqMWpk1tfb60eA3fXeVGahUosuO3Dh-qT50GX3DqTiK1_iLgbiVLL6kSsXlgI0oI743nTqqu_DSDPxRLt0G8deDk16dVoxIwfBHoe9wcbqUKQDgQRYMhTtirapZ_gUbTiBOiSSKposbLsv2098FoH7aWNFsftGVOw-v7-TNsnijZMWjKfDsOTfUCa3_sTGCphL5AV567mA96U69r7mTV0xRlSSJNR_8zglWIm4i2cl6aj2uuJahKM6bm8ZAX7Srskbmv6WzOPbKpuDZYPW9lNhrwJT0ytoXIXqo3A1KlGygxFgD0_LTE84aw6r-_IpyzfDVPOZnRpjylCdVTbvyebxUByNsyQLhsFCCUAiMwrJloXefL0llG98SWeXQwXka-cmA4ev956uCwTlQE3R58xvRQlE1394u32SR-BHOmZ8SwTHJ1IXLRshWMakcjrvbEVK8Xy9s4xQEVI7h_1W00]--></g></svg>