<svg xmlns="http://www.w3.org/2000/svg" xmlns:xlink="http://www.w3.org/1999/xlink" contentStyleType="text/css" data-diagram-type="DESCRIPTION" height="1159px" preserveAspectRatio="none" style="width:2149px;height:1159px;background:#FFFFFF;" version="1.1" viewBox="0 0 2149 1159" width="2149px" zoomAndPan="magnify"><title>QUIC/HTTP3/WebTransport Component Dependencies Overview</title><defs/><g><g class="title" data-source-line="5"><text fill="#000000" font-family="Verdana" font-size="22" font-weight="bold" lengthAdjust="spacing" textLength="802.7959" x="668.9756" y="37.1182">QUIC/HTTP3/WebTransport Component Dependencies Overview</text></g><!--cluster Application Layer--><g class="cluster" data-entity="Application Layer" data-source-line="7" data-uid="ent0002" id="cluster_Application Layer"><rect fill="#ADD8E6" height="115" rx="2.5" ry="2.5" style="stroke:#000000;stroke-width:1;" width="498" x="411" y="109.0873"/><text fill="#000000" font-family="Verdana" font-size="14" font-weight="bold" lengthAdjust="spacing" textLength="136.7803" x="591.6099" y="125.1625">Application Layer</text></g><!--cluster WebTransport Protocol--><g class="cluster" data-entity="WebTransport Protocol" data-source-line="12" data-uid="ent0005" id="cluster_WebTransport Protocol"><rect fill="#90EE90" height="115" rx="2.5" ry="2.5" style="stroke:#000000;stroke-width:1;" width="758" x="651" y="305.0873"/><text fill="#000000" font-family="Verdana" font-size="14" font-weight="bold" lengthAdjust="spacing" textLength="181.9932" x="939.0034" y="321.1625">WebTransport Protocol</text></g><!--cluster HTTP/3 Protocol--><g class="cluster" data-entity="HTTP.3 Protocol" data-source-line="18" data-uid="ent0009" id="cluster_HTTP.3 Protocol"><rect fill="#E0FFFF" height="115" rx="2.5" ry="2.5" style="stroke:#000000;stroke-width:1;" width="990" x="48" y="501.0873"/><text fill="#000000" font-family="Verdana" font-size="14" font-weight="bold" lengthAdjust="spacing" textLength="130.915" x="477.5425" y="517.1625">HTTP/3 Protocol</text></g><!--cluster MsQuic Layer--><g class="cluster" data-entity="MsQuic Layer" data-source-line="25" data-uid="ent0014" id="cluster_MsQuic Layer"><rect fill="#FFFFE0" height="298" rx="2.5" ry="2.5" style="stroke:#000000;stroke-width:1;" width="788" x="842" y="697.0873"/><text fill="#000000" font-family="Verdana" font-size="14" font-weight="bold" lengthAdjust="spacing" textLength="104.8975" x="1183.5513" y="713.1625">MsQuic Layer</text></g><!--cluster Transport Layer--><g class="cluster" data-entity="Transport Layer" data-source-line="34" data-uid="ent0021" id="cluster_Transport Layer"><rect fill="#FFB6C1" height="273" rx="2.5" ry="2.5" style="stroke:#000000;stroke-width:1;" width="224" x="578" y="880.0873"/><text fill="#000000" font-family="Verdana" font-size="14" font-weight="bold" lengthAdjust="spacing" textLength="125.2959" x="627.3521" y="896.1625">Transport Layer</text></g><!--entity WebTransport Application--><g class="entity" data-entity="WebTransport Application" data-source-line="8" data-uid="ent0003" id="entity_WebTransport Application"><rect fill="#FFFFFF" height="47.0146" rx="2.5" ry="2.5" style="stroke:#000000;stroke-width:1;" width="220.8174" x="663.5" y="153.0873"/><rect fill="#FFFFFF" height="10" style="stroke:#000000;stroke-width:1;" width="15" x="864.3174" y="158.0873"/><rect fill="#FFFFFF" height="2" style="stroke:#000000;stroke-width:1;" width="4" x="862.3174" y="160.0873"/><rect fill="#FFFFFF" height="2" style="stroke:#000000;stroke-width:1;" width="4" x="862.3174" y="164.0873"/><text fill="#000000" font-family="Verdana" font-size="14" lengthAdjust="spacing" textLength="180.8174" x="678.5" y="187.1625">WebTransport Application</text></g><!--entity HTTP/3 Application--><g class="entity" data-entity="HTTP.3 Application" data-source-line="9" data-uid="ent0004" id="entity_HTTP.3 Application"><rect fill="#FFFFFF" height="47.0146" rx="2.5" ry="2.5" style="stroke:#000000;stroke-width:1;" width="173.5127" x="454" y="153.0873"/><rect fill="#FFFFFF" height="10" style="stroke:#000000;stroke-width:1;" width="15" x="607.5127" y="158.0873"/><rect fill="#FFFFFF" height="2" style="stroke:#000000;stroke-width:1;" width="4" x="605.5127" y="160.0873"/><rect fill="#FFFFFF" height="2" style="stroke:#000000;stroke-width:1;" width="4" x="605.5127" y="164.0873"/><text fill="#000000" font-family="Verdana" font-size="14" lengthAdjust="spacing" textLength="133.5127" x="469" y="187.1625">HTTP/3 Application</text></g><!--entity WebTransport Session--><g class="entity" data-entity="WebTransport Session" data-source-line="13" data-uid="ent0006" id="entity_WebTransport Session"><rect fill="#FFFFFF" height="47.0146" rx="2.5" ry="2.5" style="stroke:#000000;stroke-width:1;" width="197.3975" x="675.5" y="349.0873"/><rect fill="#FFFFFF" height="10" style="stroke:#000000;stroke-width:1;" width="15" x="852.8975" y="354.0873"/><rect fill="#FFFFFF" height="2" style="stroke:#000000;stroke-width:1;" width="4" x="850.8975" y="356.0873"/><rect fill="#FFFFFF" height="2" style="stroke:#000000;stroke-width:1;" width="4" x="850.8975" y="360.0873"/><text fill="#000000" font-family="Verdana" font-size="14" lengthAdjust="spacing" textLength="157.3975" x="690.5" y="383.1625">WebTransport Session</text></g><!--entity WebTransport Streams--><g class="entity" data-entity="WebTransport Streams" data-source-line="14" data-uid="ent0007" id="entity_WebTransport Streams"><rect fill="#FFFFFF" height="47.0146" rx="2.5" ry="2.5" style="stroke:#000000;stroke-width:1;" width="202.4219" x="1164" y="349.0873"/><rect fill="#FFFFFF" height="10" style="stroke:#000000;stroke-width:1;" width="15" x="1346.4219" y="354.0873"/><rect fill="#FFFFFF" height="2" style="stroke:#000000;stroke-width:1;" width="4" x="1344.4219" y="356.0873"/><rect fill="#FFFFFF" height="2" style="stroke:#000000;stroke-width:1;" width="4" x="1344.4219" y="360.0873"/><text fill="#000000" font-family="Verdana" font-size="14" lengthAdjust="spacing" textLength="162.4219" x="1179" y="383.1625">WebTransport Streams</text></g><!--entity WebTransport Datagrams--><g class="entity" data-entity="WebTransport Datagrams" data-source-line="15" data-uid="ent0008" id="entity_WebTransport Datagrams"><rect fill="#FFFFFF" height="47.0146" rx="2.5" ry="2.5" style="stroke:#000000;stroke-width:1;" width="220.8379" x="907.5" y="349.0873"/><rect fill="#FFFFFF" height="10" style="stroke:#000000;stroke-width:1;" width="15" x="1108.3379" y="354.0873"/><rect fill="#FFFFFF" height="2" style="stroke:#000000;stroke-width:1;" width="4" x="1106.3379" y="356.0873"/><rect fill="#FFFFFF" height="2" style="stroke:#000000;stroke-width:1;" width="4" x="1106.3379" y="360.0873"/><text fill="#000000" font-family="Verdana" font-size="14" lengthAdjust="spacing" textLength="180.8379" x="922.5" y="383.1625">WebTransport Datagrams</text></g><!--entity HTTP/3 Frame Parser--><g class="entity" data-entity="HTTP.3 Frame Parser" data-source-line="19" data-uid="ent0010" id="entity_HTTP.3 Frame Parser"><rect fill="#FFFFFF" height="47.0146" rx="2.5" ry="2.5" style="stroke:#000000;stroke-width:1;" width="190.1377" x="91" y="545.0873"/><rect fill="#FFFFFF" height="10" style="stroke:#000000;stroke-width:1;" width="15" x="261.1377" y="550.0873"/><rect fill="#FFFFFF" height="2" style="stroke:#000000;stroke-width:1;" width="4" x="259.1377" y="552.0873"/><rect fill="#FFFFFF" height="2" style="stroke:#000000;stroke-width:1;" width="4" x="259.1377" y="556.0873"/><text fill="#000000" font-family="Verdana" font-size="14" lengthAdjust="spacing" textLength="150.1377" x="106" y="579.1625">HTTP/3 Frame Parser</text></g><!--entity QPACK Encoder/Decoder--><g class="entity" data-entity="QPACK Encoder.Decoder" data-source-line="20" data-uid="ent0011" id="entity_QPACK Encoder.Decoder"><rect fill="#FFFFFF" height="47.0146" rx="2.5" ry="2.5" style="stroke:#000000;stroke-width:1;" width="214.2822" x="561" y="545.0873"/><rect fill="#FFFFFF" height="10" style="stroke:#000000;stroke-width:1;" width="15" x="755.2822" y="550.0873"/><rect fill="#FFFFFF" height="2" style="stroke:#000000;stroke-width:1;" width="4" x="753.2822" y="552.0873"/><rect fill="#FFFFFF" height="2" style="stroke:#000000;stroke-width:1;" width="4" x="753.2822" y="556.0873"/><text fill="#000000" font-family="Verdana" font-size="14" lengthAdjust="spacing" textLength="174.2822" x="576" y="579.1625">QPACK Encoder/Decoder</text></g><!--entity HTTP/3 Control Stream--><g class="entity" data-entity="HTTP.3 Control Stream" data-source-line="21" data-uid="ent0012" id="entity_HTTP.3 Control Stream"><rect fill="#FFFFFF" height="47.0146" rx="2.5" ry="2.5" style="stroke:#000000;stroke-width:1;" width="203.707" x="810" y="545.0873"/><rect fill="#FFFFFF" height="10" style="stroke:#000000;stroke-width:1;" width="15" x="993.707" y="550.0873"/><rect fill="#FFFFFF" height="2" style="stroke:#000000;stroke-width:1;" width="4" x="991.707" y="552.0873"/><rect fill="#FFFFFF" height="2" style="stroke:#000000;stroke-width:1;" width="4" x="991.707" y="556.0873"/><text fill="#000000" font-family="Verdana" font-size="14" lengthAdjust="spacing" textLength="163.707" x="825" y="579.1625">HTTP/3 Control Stream</text></g><!--entity HTTP/3 Request Stream--><g class="entity" data-entity="HTTP.3 Request Stream" data-source-line="22" data-uid="ent0013" id="entity_HTTP.3 Request Stream"><rect fill="#FFFFFF" height="47.0146" rx="2.5" ry="2.5" style="stroke:#000000;stroke-width:1;" width="209.5518" x="316" y="545.0873"/><rect fill="#FFFFFF" height="10" style="stroke:#000000;stroke-width:1;" width="15" x="505.5518" y="550.0873"/><rect fill="#FFFFFF" height="2" style="stroke:#000000;stroke-width:1;" width="4" x="503.5518" y="552.0873"/><rect fill="#FFFFFF" height="2" style="stroke:#000000;stroke-width:1;" width="4" x="503.5518" y="556.0873"/><text fill="#000000" font-family="Verdana" font-size="14" lengthAdjust="spacing" textLength="169.5518" x="331" y="579.1625">HTTP/3 Request Stream</text></g><!--entity Registration--><g class="entity" data-entity="Registration" data-source-line="26" data-uid="ent0015" id="entity_Registration"><rect fill="#FFFFFF" height="47.0146" rx="2.5" ry="2.5" style="stroke:#000000;stroke-width:1;" width="124.5469" x="1291.5" y="741.0873"/><rect fill="#FFFFFF" height="10" style="stroke:#000000;stroke-width:1;" width="15" x="1396.0469" y="746.0873"/><rect fill="#FFFFFF" height="2" style="stroke:#000000;stroke-width:1;" width="4" x="1394.0469" y="748.0873"/><rect fill="#FFFFFF" height="2" style="stroke:#000000;stroke-width:1;" width="4" x="1394.0469" y="752.0873"/><text fill="#000000" font-family="Verdana" font-size="14" lengthAdjust="spacing" textLength="84.5469" x="1306.5" y="775.1625">Registration</text></g><!--entity Configuration--><g class="entity" data-entity="Configuration" data-source-line="27" data-uid="ent0016" id="entity_Configuration"><rect fill="#FFFFFF" height="47.0146" rx="2.5" ry="2.5" style="stroke:#000000;stroke-width:1;" width="134.5752" x="1451.5" y="741.0873"/><rect fill="#FFFFFF" height="10" style="stroke:#000000;stroke-width:1;" width="15" x="1566.0752" y="746.0873"/><rect fill="#FFFFFF" height="2" style="stroke:#000000;stroke-width:1;" width="4" x="1564.0752" y="748.0873"/><rect fill="#FFFFFF" height="2" style="stroke:#000000;stroke-width:1;" width="4" x="1564.0752" y="752.0873"/><text fill="#000000" font-family="Verdana" font-size="14" lengthAdjust="spacing" textLength="94.5752" x="1466.5" y="775.1625">Configuration</text></g><!--entity Connection--><g class="entity" data-entity="Connection" data-source-line="28" data-uid="ent0017" id="entity_Connection"><rect fill="#FFFFFF" height="47.0146" rx="2.5" ry="2.5" style="stroke:#000000;stroke-width:1;" width="118.3398" x="1138" y="741.0873"/><rect fill="#FFFFFF" height="10" style="stroke:#000000;stroke-width:1;" width="15" x="1236.3398" y="746.0873"/><rect fill="#FFFFFF" height="2" style="stroke:#000000;stroke-width:1;" width="4" x="1234.3398" y="748.0873"/><rect fill="#FFFFFF" height="2" style="stroke:#000000;stroke-width:1;" width="4" x="1234.3398" y="752.0873"/><text fill="#000000" font-family="Verdana" font-size="14" lengthAdjust="spacing" textLength="78.3398" x="1153" y="775.1625">Connection</text></g><!--entity Stream--><g class="entity" data-entity="Stream" data-source-line="29" data-uid="ent0018" id="entity_Stream"><rect fill="#FFFFFF" height="47.0146" rx="2.5" ry="2.5" style="stroke:#000000;stroke-width:1;" width="91.4268" x="866.5" y="741.0873"/><rect fill="#FFFFFF" height="10" style="stroke:#000000;stroke-width:1;" width="15" x="937.9268" y="746.0873"/><rect fill="#FFFFFF" height="2" style="stroke:#000000;stroke-width:1;" width="4" x="935.9268" y="748.0873"/><rect fill="#FFFFFF" height="2" style="stroke:#000000;stroke-width:1;" width="4" x="935.9268" y="752.0873"/><text fill="#000000" font-family="Verdana" font-size="14" lengthAdjust="spacing" textLength="51.4268" x="881.5" y="775.1625">Stream</text></g><!--entity Datagram--><g class="entity" data-entity="Datagram" data-source-line="30" data-uid="ent0019" id="entity_Datagram"><rect fill="#FFFFFF" height="47.0146" rx="2.5" ry="2.5" style="stroke:#000000;stroke-width:1;" width="109.8428" x="993" y="741.0873"/><rect fill="#FFFFFF" height="10" style="stroke:#000000;stroke-width:1;" width="15" x="1082.8428" y="746.0873"/><rect fill="#FFFFFF" height="2" style="stroke:#000000;stroke-width:1;" width="4" x="1080.8428" y="748.0873"/><rect fill="#FFFFFF" height="2" style="stroke:#000000;stroke-width:1;" width="4" x="1080.8428" y="752.0873"/><text fill="#000000" font-family="Verdana" font-size="14" lengthAdjust="spacing" textLength="69.8428" x="1008" y="775.1625">Datagram</text></g><!--entity TLS Context--><g class="entity" data-entity="TLS Context" data-source-line="31" data-uid="ent0020" id="entity_TLS Context"><rect fill="#FFFFFF" height="47.0146" rx="2.5" ry="2.5" style="stroke:#000000;stroke-width:1;" width="125.7021" x="1291" y="924.0873"/><rect fill="#FFFFFF" height="10" style="stroke:#000000;stroke-width:1;" width="15" x="1396.7021" y="929.0873"/><rect fill="#FFFFFF" height="2" style="stroke:#000000;stroke-width:1;" width="4" x="1394.7021" y="931.0873"/><rect fill="#FFFFFF" height="2" style="stroke:#000000;stroke-width:1;" width="4" x="1394.7021" y="935.0873"/><text fill="#000000" font-family="Verdana" font-size="14" lengthAdjust="spacing" textLength="85.7021" x="1306" y="958.1625">TLS Context</text></g><!--entity UDP Socket--><g class="entity" data-entity="UDP Socket" data-source-line="35" data-uid="ent0022" id="entity_UDP Socket"><rect fill="#FFFFFF" height="47.0146" rx="2.5" ry="2.5" style="stroke:#000000;stroke-width:1;" width="121.9014" x="656" y="924.0873"/><rect fill="#FFFFFF" height="10" style="stroke:#000000;stroke-width:1;" width="15" x="757.9014" y="929.0873"/><rect fill="#FFFFFF" height="2" style="stroke:#000000;stroke-width:1;" width="4" x="755.9014" y="931.0873"/><rect fill="#FFFFFF" height="2" style="stroke:#000000;stroke-width:1;" width="4" x="755.9014" y="935.0873"/><text fill="#000000" font-family="Verdana" font-size="14" lengthAdjust="spacing" textLength="81.9014" x="671" y="958.1625">UDP Socket</text></g><!--entity Network Interface--><g class="entity" data-entity="Network Interface" data-source-line="36" data-uid="ent0023" id="entity_Network Interface"><rect fill="#FFFFFF" height="47.0146" rx="2.5" ry="2.5" style="stroke:#000000;stroke-width:1;" width="167.0117" x="610.5" y="1082.0873"/><rect fill="#FFFFFF" height="10" style="stroke:#000000;stroke-width:1;" width="15" x="757.5117" y="1087.0873"/><rect fill="#FFFFFF" height="2" style="stroke:#000000;stroke-width:1;" width="4" x="755.5117" y="1089.0873"/><rect fill="#FFFFFF" height="2" style="stroke:#000000;stroke-width:1;" width="4" x="755.5117" y="1093.0873"/><text fill="#000000" font-family="Verdana" font-size="14" lengthAdjust="spacing" textLength="127.0117" x="625.5" y="1116.1625">Network Interface</text></g><g class="entity" data-entity="GMN35" data-source-line="57" data-uid="ent0036" id="entity_GMN35"><path d="M933.5,148.0873 L933.5,172.5873 L884.77,176.5873 L933.5,180.5873 L933.5,205.4853 A0,0 0 0 0 933.5,205.4853 L1184.0376,205.4853 A0,0 0 0 0 1184.0376,205.4853 L1184.0376,158.0873 L1174.0376,148.0873 L933.5,148.0873 A0,0 0 0 0 933.5,148.0873" fill="#FFFFFF" style="stroke:#000000;stroke-width:1;"/><path d="M1174.0376,148.0873 L1174.0376,158.0873 L1184.0376,158.0873 L1174.0376,148.0873" fill="#FFFFFF" style="stroke:#000000;stroke-width:1;"/><text fill="#000000" font-family="Verdana" font-size="13" font-weight="bold" lengthAdjust="spacing" textLength="229.5376" x="939.5" y="166.1571">See: Application Layer Diagram</text><text fill="#000000" font-family="Verdana" font-size="13" lengthAdjust="spacing" textLength="212.729" x="939.5" y="181.9564">Detailed application components</text><text fill="#000000" font-family="Verdana" font-size="13" lengthAdjust="spacing" textLength="92.5806" x="939.5" y="197.7558">and interfaces</text></g><g class="entity" data-entity="GMN38" data-source-line="59" data-uid="ent0039" id="entity_GMN38"><path d="M1436.5,344.0873 L1436.5,401.4853 L1729.021,401.4853 L1729.021,354.0873 L1719.021,344.0873 L1436.5,344.0873" fill="#FFFFFF" style="stroke:#000000;stroke-width:1;"/><path d="M1719.021,344.0873 L1719.021,354.0873 L1729.021,354.0873 L1719.021,344.0873" fill="#FFFFFF" style="stroke:#000000;stroke-width:1;"/><text fill="#000000" font-family="Verdana" font-size="13" font-weight="bold" lengthAdjust="spacing" textLength="271.521" x="1442.5" y="362.1571">See: WebTransport Protocol Diagram</text><text fill="#000000" font-family="Verdana" font-size="13" lengthAdjust="spacing" textLength="169.2031" x="1442.5" y="377.9564">Session management and</text><text fill="#000000" font-family="Verdana" font-size="13" lengthAdjust="spacing" textLength="174.8716" x="1442.5" y="393.7558">stream/datagram handling</text></g><g class="entity" data-entity="GMN41" data-source-line="61" data-uid="ent0042" id="entity_GMN41"><path d="M1676.5,540.0873 L1676.5,597.4853 L1921.5913,597.4853 L1921.5913,550.0873 L1911.5913,540.0873 L1676.5,540.0873" fill="#FFFFFF" style="stroke:#000000;stroke-width:1;"/><path d="M1911.5913,540.0873 L1911.5913,550.0873 L1921.5913,550.0873 L1911.5913,540.0873" fill="#FFFFFF" style="stroke:#000000;stroke-width:1;"/><text fill="#000000" font-family="Verdana" font-size="13" font-weight="bold" lengthAdjust="spacing" textLength="224.0913" x="1682.5" y="558.1571">See: HTTP/3 Protocol Diagram</text><text fill="#000000" font-family="Verdana" font-size="13" lengthAdjust="spacing" textLength="152.9785" x="1682.5" y="573.9564">Frame parsing, QPACK,</text><text fill="#000000" font-family="Verdana" font-size="13" lengthAdjust="spacing" textLength="164.9819" x="1682.5" y="589.7558">and stream management</text></g><g class="entity" data-entity="GMN44" data-source-line="63" data-uid="ent0045" id="entity_GMN44"><path d="M1657.5,736.0873 L1657.5,793.4853 L1878.4321,793.4853 L1878.4321,746.0873 L1868.4321,736.0873 L1657.5,736.0873" fill="#FFFFFF" style="stroke:#000000;stroke-width:1;"/><path d="M1868.4321,736.0873 L1868.4321,746.0873 L1878.4321,746.0873 L1868.4321,736.0873" fill="#FFFFFF" style="stroke:#000000;stroke-width:1;"/><text fill="#000000" font-family="Verdana" font-size="13" font-weight="bold" lengthAdjust="spacing" textLength="199.9321" x="1663.5" y="754.1571">See: MsQuic Layer Diagram</text><text fill="#000000" font-family="Verdana" font-size="13" lengthAdjust="spacing" textLength="157.2568" x="1663.5" y="769.9564">MsQuic API components</text><text fill="#000000" font-family="Verdana" font-size="13" lengthAdjust="spacing" textLength="156.292" x="1663.5" y="785.7558">and object relationships</text></g><g class="entity" data-entity="GMN47" data-source-line="65" data-uid="ent0048" id="entity_GMN47"><path d="M1654,919.0873 L1654,976.4853 L1893.8735,976.4853 L1893.8735,929.0873 L1883.8735,919.0873 L1654,919.0873" fill="#FFFFFF" style="stroke:#000000;stroke-width:1;"/><path d="M1883.8735,919.0873 L1883.8735,929.0873 L1893.8735,929.0873 L1883.8735,919.0873" fill="#FFFFFF" style="stroke:#000000;stroke-width:1;"/><text fill="#000000" font-family="Verdana" font-size="13" font-weight="bold" lengthAdjust="spacing" textLength="218.8735" x="1660" y="937.1571">See: Transport Layer Diagram</text><text fill="#000000" font-family="Verdana" font-size="13" lengthAdjust="spacing" textLength="175.1826" x="1660" y="952.9564">UDP and network interface</text><text fill="#000000" font-family="Verdana" font-size="13" lengthAdjust="spacing" textLength="42.6816" x="1660" y="968.7558">details</text></g><g class="entity" data-entity="GMN50" data-source-line="68" data-uid="ent0051" id="entity_GMN50"><path d="M1260.5,155.5873 L1260.5,197.1859 L1459.0376,197.1859 L1459.0376,165.5873 L1449.0376,155.5873 L1260.5,155.5873" fill="#FFFFFF" style="stroke:#000000;stroke-width:1;"/><path d="M1449.0376,155.5873 L1449.0376,165.5873 L1459.0376,165.5873 L1449.0376,155.5873" fill="#FFFFFF" style="stroke:#000000;stroke-width:1;"/><text fill="#000000" font-family="Verdana" font-size="13" font-weight="bold" lengthAdjust="spacing" textLength="69.4434" x="1266.5" y="173.6571">RFC 9220</text><text fill="#000000" font-family="Verdana" font-size="13" lengthAdjust="spacing" textLength="177.5376" x="1266.5" y="189.4564">WebTransport over HTTP/3</text></g><g class="entity" data-entity="GMN53" data-source-line="70" data-uid="ent0054" id="entity_GMN53"><path d="M11,351.5873 L11,393.1859 L101.4434,393.1859 L101.4434,361.5873 L91.4434,351.5873 L11,351.5873" fill="#FFFFFF" style="stroke:#000000;stroke-width:1;"/><path d="M91.4434,351.5873 L91.4434,361.5873 L101.4434,361.5873 L91.4434,351.5873" fill="#FFFFFF" style="stroke:#000000;stroke-width:1;"/><text fill="#000000" font-family="Verdana" font-size="13" font-weight="bold" lengthAdjust="spacing" textLength="69.4434" x="17" y="369.6571">RFC 9114</text><text fill="#000000" font-family="Verdana" font-size="13" lengthAdjust="spacing" textLength="47.7979" x="17" y="385.4564">HTTP/3</text></g><g class="entity" data-entity="GMN56" data-source-line="72" data-uid="ent0057" id="entity_GMN56"><path d="M1518.5,547.5873 L1518.5,589.1859 L1641.3926,589.1859 L1641.3926,557.5873 L1631.3926,547.5873 L1518.5,547.5873" fill="#FFFFFF" style="stroke:#000000;stroke-width:1;"/><path d="M1631.3926,547.5873 L1631.3926,557.5873 L1641.3926,557.5873 L1631.3926,547.5873" fill="#FFFFFF" style="stroke:#000000;stroke-width:1;"/><text fill="#000000" font-family="Verdana" font-size="13" font-weight="bold" lengthAdjust="spacing" textLength="69.4434" x="1524.5" y="565.6571">RFC 9000</text><text fill="#000000" font-family="Verdana" font-size="13" lengthAdjust="spacing" textLength="101.8926" x="1524.5" y="581.4564">QUIC Transport</text></g><g class="entity" data-entity="GMN59" data-source-line="74" data-uid="ent0060" id="entity_GMN59"><path d="M497.5,743.5873 L497.5,785.1859 L674.5952,785.1859 L674.5952,753.5873 L664.5952,743.5873 L497.5,743.5873" fill="#FFFFFF" style="stroke:#000000;stroke-width:1;"/><path d="M664.5952,743.5873 L664.5952,753.5873 L674.5952,753.5873 L664.5952,743.5873" fill="#FFFFFF" style="stroke:#000000;stroke-width:1;"/><text fill="#000000" font-family="Verdana" font-size="13" font-weight="bold" lengthAdjust="spacing" textLength="60.2012" x="503.5" y="761.6571">RFC 768</text><text fill="#000000" font-family="Verdana" font-size="13" lengthAdjust="spacing" textLength="156.0952" x="503.5" y="777.4564">User Datagram Protocol</text></g><g class="entity" data-entity="GMN62" data-source-line="77" data-uid="ent0063" id="entity_GMN62"><path d="M1494.5,148.0873 L1494.5,205.4853 L1669.8179,205.4853 L1669.8179,158.0873 L1659.8179,148.0873 L1494.5,148.0873" fill="#FFFFFF" style="stroke:#000000;stroke-width:1;"/><path d="M1659.8179,148.0873 L1659.8179,158.0873 L1669.8179,158.0873 L1659.8179,148.0873" fill="#FFFFFF" style="stroke:#000000;stroke-width:1;"/><text fill="#000000" font-family="Verdana" font-size="13" font-weight="bold" lengthAdjust="spacing" textLength="154.3179" x="1500.5" y="166.1571">Application Interface</text><text fill="#000000" font-family="Verdana" font-size="13" lengthAdjust="spacing" textLength="144.5361" x="1500.5" y="181.9564">Developer-facing APIs</text><text fill="#000000" font-family="Verdana" font-size="13" lengthAdjust="spacing" textLength="128.394" x="1500.5" y="197.7558">Business logic layer</text></g><g class="entity" data-entity="GMN65" data-source-line="79" data-uid="ent0066" id="entity_GMN65"><path d="M1765,344.0873 L1765,401.4853 L1931.4946,401.4853 L1931.4946,354.0873 L1921.4946,344.0873 L1765,344.0873" fill="#FFFFFF" style="stroke:#000000;stroke-width:1;"/><path d="M1921.4946,344.0873 L1921.4946,354.0873 L1931.4946,354.0873 L1921.4946,344.0873" fill="#FFFFFF" style="stroke:#000000;stroke-width:1;"/><text fill="#000000" font-family="Verdana" font-size="13" font-weight="bold" lengthAdjust="spacing" textLength="100.8896" x="1771" y="362.1571">Session Layer</text><text fill="#000000" font-family="Verdana" font-size="13" lengthAdjust="spacing" textLength="145.4946" x="1771" y="377.9564">WebTransport-specific</text><text fill="#000000" font-family="Verdana" font-size="13" lengthAdjust="spacing" textLength="113.1724" x="1771" y="393.7558">protocol handling</text></g><g class="entity" data-entity="GMN68" data-source-line="81" data-uid="ent0069" id="entity_GMN68"><path d="M1957,540.0873 L1957,597.4853 L2142.7471,597.4853 L2142.7471,550.0873 L2132.7471,540.0873 L1957,540.0873" fill="#FFFFFF" style="stroke:#000000;stroke-width:1;"/><path d="M2132.7471,540.0873 L2132.7471,550.0873 L2142.7471,550.0873 L2132.7471,540.0873" fill="#FFFFFF" style="stroke:#000000;stroke-width:1;"/><text fill="#000000" font-family="Verdana" font-size="13" font-weight="bold" lengthAdjust="spacing" textLength="147.2656" x="1963" y="558.1571">Application Protocol</text><text fill="#000000" font-family="Verdana" font-size="13" lengthAdjust="spacing" textLength="164.7471" x="1963" y="573.9564">HTTP/3 frame processing</text><text fill="#000000" font-family="Verdana" font-size="13" lengthAdjust="spacing" textLength="133.2119" x="1963" y="589.7558">Header compression</text></g><g class="entity" data-entity="GMN71" data-source-line="83" data-uid="ent0072" id="entity_GMN71"><path d="M1913.5,736.0873 L1913.5,793.4853 L2128.1479,793.4853 L2128.1479,746.0873 L2118.1479,736.0873 L1913.5,736.0873" fill="#FFFFFF" style="stroke:#000000;stroke-width:1;"/><path d="M2118.1479,736.0873 L2118.1479,746.0873 L2128.1479,746.0873 L2118.1479,736.0873" fill="#FFFFFF" style="stroke:#000000;stroke-width:1;"/><text fill="#000000" font-family="Verdana" font-size="13" font-weight="bold" lengthAdjust="spacing" textLength="193.6479" x="1919.5" y="754.1571">Transport Implementation</text><text fill="#000000" font-family="Verdana" font-size="13" lengthAdjust="spacing" textLength="130.3872" x="1919.5" y="769.9564">QUIC protocol stack</text><text fill="#000000" font-family="Verdana" font-size="13" lengthAdjust="spacing" textLength="175.8999" x="1919.5" y="785.7558">Microsoft's implementation</text></g><g class="entity" data-entity="GMN74" data-source-line="85" data-uid="ent0075" id="entity_GMN74"><path d="M1929,919.0873 L1929,976.4853 L2112.6714,976.4853 L2112.6714,929.0873 L2102.6714,919.0873 L1929,919.0873" fill="#FFFFFF" style="stroke:#000000;stroke-width:1;"/><path d="M2102.6714,919.0873 L2102.6714,929.0873 L2112.6714,929.0873 L2102.6714,919.0873" fill="#FFFFFF" style="stroke:#000000;stroke-width:1;"/><text fill="#000000" font-family="Verdana" font-size="13" font-weight="bold" lengthAdjust="spacing" textLength="107.3706" x="1935" y="937.1571">Network Layer</text><text fill="#000000" font-family="Verdana" font-size="13" lengthAdjust="spacing" textLength="162.6714" x="1935" y="952.9564">UDP packet transmission</text><text fill="#000000" font-family="Verdana" font-size="13" lengthAdjust="spacing" textLength="156.895" x="1935" y="968.7558">Physical network access</text></g><!--link WebTransport Application to WebTransport Session--><g class="link" data-entity-1="WebTransport Application" data-entity-2="WebTransport Session" data-source-line="40" data-uid="lnk24" id="link_WebTransport Application_WebTransport Session"><path d="M774,200.2173 C774,237.5073 774,305.4173 774,342.7973" fill="none" id="WebTransport Application-to-WebTransport Session" style="stroke:#000000;stroke-width:1;"/><polygon fill="#000000" points="774,348.7973,778,339.7973,774,343.7973,770,339.7973,774,348.7973" style="stroke:#000000;stroke-width:1;"/><text fill="#000000" font-family="Verdana" font-size="13" font-weight="bold" lengthAdjust="spacing" textLength="33.3188" x="868.7358" y="262.1571">uses</text><text fill="#000000" font-family="Verdana" font-size="13" lengthAdjust="spacing" textLength="220.7905" x="775" y="277.9564">API calls for session management</text></g><!--link HTTP/3 Application to HTTP/3 Frame Parser--><g class="link" data-entity-1="HTTP.3 Application" data-entity-2="HTTP.3 Frame Parser" data-source-line="41" data-uid="lnk25" id="link_HTTP.3 Application_HTTP.3 Frame Parser"><path d="M513.34,200.4273 C487.49,222.2373 448.29,256.5173 417,289.0873 C330.82,378.7773 243.3917,491.5436 206.5517,540.2036" fill="none" id="HTTP/3 Application-to-HTTP/3 Frame Parser" style="stroke:#000000;stroke-width:1;"/><polygon fill="#000000" points="202.93,544.9873,211.5516,540.2262,205.9481,541.0009,205.1734,535.3974,202.93,544.9873" style="stroke:#000000;stroke-width:1;"/><text fill="#000000" font-family="Verdana" font-size="13" font-weight="bold" lengthAdjust="spacing" textLength="33.3188" x="521.5366" y="370.1571">uses</text><text fill="#000000" font-family="Verdana" font-size="13" lengthAdjust="spacing" textLength="240.3921" x="418" y="385.9564">HTTP/3 request/response processing</text></g><!--link WebTransport Session to HTTP/3 Request Stream--><g class="link" data-entity-1="WebTransport Session" data-entity-2="HTTP.3 Request Stream" data-source-line="43" data-uid="lnk26" id="link_WebTransport Session_HTTP.3 Request Stream"><path d="M722.24,396.1773 C674.92,417.4073 603.46,450.9573 544,485.0873 C511.67,503.6473 481.3931,524.1749 456.9731,541.5049" fill="none" id="WebTransport Session-to-HTTP/3 Request Stream" style="stroke:#000000;stroke-width:1;"/><polygon fill="#000000" points="452.08,544.9773,461.7346,543.0307,456.1576,542.0836,457.1047,536.5066,452.08,544.9773" style="stroke:#000000;stroke-width:1;"/><text fill="#000000" font-family="Verdana" font-size="13" font-weight="bold" lengthAdjust="spacing" textLength="129.7778" x="637.5605" y="458.1571">CONNECT request</text><text fill="#000000" font-family="Verdana" font-size="13" lengthAdjust="spacing" textLength="166.8989" x="619" y="473.9564">WebTransport handshake</text></g><!--link WebTransport Streams to Stream--><g class="link" data-entity-1="WebTransport Streams" data-entity-2="Stream" data-source-line="44" data-uid="lnk27" id="link_WebTransport Streams_Stream"><path d="M1267.89,396.3073 C1272.9,446.4073 1277.16,567.0973 1213,632.0873 C1152.01,693.8773 1107.23,656.5373 1022,673.0873 C1001.63,677.0473 993.78,670.3873 976,681.0873 C952.39,695.2873 937.2071,716.4966 926.3771,735.6166" fill="none" id="WebTransport Streams-to-Stream" style="stroke:#000000;stroke-width:1;"/><polygon fill="#000000" points="923.42,740.8373,931.3361,734.9777,925.8843,736.4867,924.3752,731.0349,923.42,740.8373" style="stroke:#000000;stroke-width:1;"/><text fill="#000000" font-family="Verdana" font-size="13" font-weight="bold" lengthAdjust="spacing" textLength="58.5317" x="1314.3604" y="566.1571">maps to</text><text fill="#000000" font-family="Verdana" font-size="13" lengthAdjust="spacing" textLength="149.2524" x="1269" y="581.9564">Reliable data transport</text></g><!--link WebTransport Datagrams to Datagram--><g class="link" data-entity-1="WebTransport Datagrams" data-entity-2="Datagram" data-source-line="45" data-uid="lnk28" id="link_WebTransport Datagrams_Datagram"><path d="M1020.72,396.1973 C1023.36,418.7073 1027.34,454.2473 1030,485.0873 C1038.17,579.9473 1044.09,687.2753 1046.55,734.8253" fill="none" id="WebTransport Datagrams-to-Datagram" style="stroke:#000000;stroke-width:1;"/><polygon fill="#000000" points="1046.86,740.8173,1050.3897,731.6227,1046.6017,735.824,1042.4003,732.036,1046.86,740.8173" style="stroke:#000000;stroke-width:1;"/><text fill="#000000" font-family="Verdana" font-size="13" font-weight="bold" lengthAdjust="spacing" textLength="58.5317" x="1093.4856" y="566.1571">maps to</text><text fill="#000000" font-family="Verdana" font-size="13" lengthAdjust="spacing" textLength="163.5029" x="1041" y="581.9564">Unreliable data transport</text></g><!--link HTTP/3 Control Stream to Stream--><g class="link" data-entity-1="HTTP.3 Control Stream" data-entity-2="Stream" data-source-line="47" data-uid="lnk29" id="link_HTTP.3 Control Stream_Stream"><path d="M912,592.2173 C912,629.5073 912,697.4173 912,734.7973" fill="none" id="HTTP/3 Control Stream-to-Stream" style="stroke:#000000;stroke-width:1;"/><polygon fill="#000000" points="912,740.7973,916,731.7973,912,735.7973,908,731.7973,912,740.7973" style="stroke:#000000;stroke-width:1;"/><text fill="#000000" font-family="Verdana" font-size="13" font-weight="bold" lengthAdjust="spacing" textLength="100.9214" x="913" y="654.1571">unidirectional</text><text fill="#000000" font-family="Verdana" font-size="13" lengthAdjust="spacing" textLength="94.8149" x="916.0532" y="669.9564">Stream ID 2/3</text></g><!--link HTTP/3 Request Stream to Stream--><g class="link" data-entity-1="HTTP.3 Request Stream" data-entity-2="Stream" data-source-line="48" data-uid="lnk30" id="link_HTTP.3 Request Stream_Stream"><path d="M461.55,592.1373 C485.19,604.7873 515.81,620.3373 544,632.0873 C607.96,658.7473 626.66,658.0273 692,681.0873 C752.59,702.4673 816.3003,726.6125 860.6603,743.6825" fill="none" id="HTTP/3 Request Stream-to-Stream" style="stroke:#000000;stroke-width:1;"/><polygon fill="#000000" points="866.26,745.8373,859.297,738.872,861.5936,744.0416,856.4239,746.3382,866.26,745.8373" style="stroke:#000000;stroke-width:1;"/><text fill="#000000" font-family="Verdana" font-size="13" font-weight="bold" lengthAdjust="spacing" textLength="91.4888" x="687.2366" y="654.1571">bidirectional</text><text fill="#000000" font-family="Verdana" font-size="13" lengthAdjust="spacing" textLength="129.9619" x="668" y="669.9564">Stream ID 0, 4, 8...</text></g><!--link Connection to UDP Socket--><g class="link" data-entity-1="Connection" data-entity-2="UDP Socket" data-source-line="50" data-uid="lnk31" id="link_Connection_UDP Socket"><path d="M1184.5,788.2173 C1171.03,810.0573 1147.38,841.8473 1117,856.0873 C1090.13,868.6873 878.42,855.5273 850,864.0873 C809.67,876.2373 774.1442,900.2184 748.6642,920.1684" fill="none" id="Connection-to-UDP Socket" style="stroke:#000000;stroke-width:1;"/><polygon fill="#000000" points="743.94,923.8673,753.4922,921.4684,747.8768,920.7849,748.5604,915.1695,743.94,923.8673" style="stroke:#000000;stroke-width:1;"/><text fill="#000000" font-family="Verdana" font-size="13" font-weight="bold" lengthAdjust="spacing" textLength="111.9854" x="1158" y="837.1571">sends/receives</text><text fill="#000000" font-family="Verdana" font-size="13" lengthAdjust="spacing" textLength="88.8799" x="1169.5527" y="852.9564">QUIC packets</text></g><!--link Stream to UDP Socket--><g class="link" data-entity-1="Stream" data-entity-2="UDP Socket" data-source-line="51" data-uid="lnk32" id="link_Stream_UDP Socket"><path d="M866.16,767.4973 C825.37,771.8073 767.29,784.8073 735,823.0873 C711.25,851.2473 710.5434,890.4941 713.1234,917.6941" fill="none" id="Stream-to-UDP Socket" style="stroke:#000000;stroke-width:1;"/><polygon fill="#000000" points="713.69,923.6673,716.8223,914.3298,713.2179,918.6896,708.858,915.0852,713.69,923.6673" style="stroke:#000000;stroke-width:1;"/><text fill="#000000" font-family="Verdana" font-size="13" font-weight="bold" lengthAdjust="spacing" textLength="115.21" x="760.3401" y="837.1571">encapsulated in</text><text fill="#000000" font-family="Verdana" font-size="13" lengthAdjust="spacing" textLength="163.8901" x="736" y="852.9564">QUIC connection packets</text></g><!--link Datagram to UDP Socket--><g class="link" data-entity-1="Datagram" data-entity-2="UDP Socket" data-source-line="52" data-uid="lnk33" id="link_Datagram_UDP Socket"><path d="M1013.81,788.1173 C975.06,813.4773 915.74,851.7473 904,856.0873 C881.24,864.4973 872.78,855.7373 850,864.0873 C811.09,878.3373 776.1574,901.3107 750.3774,920.4507" fill="none" id="Datagram-to-UDP Socket" style="stroke:#000000;stroke-width:1;"/><polygon fill="#000000" points="745.56,924.0273,755.1706,921.874,749.5745,921.0468,750.4017,915.4507,745.56,924.0273" style="stroke:#000000;stroke-width:1;"/><text fill="#000000" font-family="Verdana" font-size="13" font-weight="bold" lengthAdjust="spacing" textLength="111.9854" x="978.738" y="837.1571">sends/receives</text><text fill="#000000" font-family="Verdana" font-size="13" lengthAdjust="spacing" textLength="151.4614" x="959" y="852.9564">QUIC datagram frames</text></g><!--link UDP Socket to Network Interface--><g class="link" data-entity-1="UDP Socket" data-entity-2="Network Interface" data-source-line="54" data-uid="lnk34" id="link_UDP Socket_Network Interface"><path d="M713.66,971.2673 C709.29,1000.8473 702.5846,1046.3514 698.2246,1075.9414" fill="none" id="UDP Socket-to-Network Interface" style="stroke:#000000;stroke-width:1;"/><polygon fill="#000000" points="697.35,1081.8773,702.6192,1073.5565,698.0789,1076.9307,694.7047,1072.3903,697.35,1081.8773" style="stroke:#000000;stroke-width:1;"/><text fill="#000000" font-family="Verdana" font-size="13" font-weight="bold" lengthAdjust="spacing" textLength="95.894" x="713.8936" y="1033.1571">transmits via</text><text fill="#000000" font-family="Verdana" font-size="13" lengthAdjust="spacing" textLength="109.6812" x="707" y="1048.9564">Physical network</text></g><!--link WebTransport Session to GMN38--><g class="link" data-entity-1="WebTransport Session" data-entity-2="GMN38" data-source-line="59" data-uid="lnk40" id="link_WebTransport Session_GMN38"><path d="M793.74,348.9973 C817.55,322.5873 860.28,281.2973 907.5,264.5873 C959.04,246.3473 1346.76,250.2173 1399.5,264.5873 C1455.85,279.9373 1512.54,317.4773 1547.69,343.9773" fill="none" id="WebTransport Session-GMN38" style="stroke:#000000;stroke-width:1;stroke-dasharray:7,7;"/></g><!--link HTTP/3 Frame Parser to GMN41--><g class="link" data-entity-1="HTTP.3 Frame Parser" data-entity-2="GMN41" data-source-line="61" data-uid="lnk43" id="link_HTTP.3 Frame Parser_GMN41"><path d="M204.99,545.0173 C227.94,518.6173 269.26,477.3373 315.5,460.5873 C384.76,435.4973 1571.14,438.7773 1641.5,460.5873 C1691.54,476.0973 1739.8,513.5973 1769.43,540.0373" fill="none" id="HTTP/3 Frame Parser-GMN41" style="stroke:#000000;stroke-width:1;stroke-dasharray:7,7;"/></g><!--link Connection to GMN44--><g class="link" data-entity-1="Connection" data-entity-2="GMN44" data-source-line="63" data-uid="lnk46" id="link_Connection_GMN44"><path d="M1209.59,740.7373 C1224.94,714.4973 1253.61,673.7773 1291.5,656.5873 C1358.08,626.3773 1551.01,633.8673 1620.5,656.5873 C1668.16,672.1673 1713.18,709.6573 1740.66,736.0773" fill="none" id="Connection-GMN44" style="stroke:#000000;stroke-width:1;stroke-dasharray:7,7;"/></g><!--link UDP Socket to GMN47--><g class="link" data-entity-1="UDP Socket" data-entity-2="GMN47" data-source-line="65" data-uid="lnk49" id="link_UDP Socket_GMN47"><path d="M737.5,923.6373 C764.05,894.6473 813.38,847.3973 867.5,828.5873 C942.86,802.3973 1508.86,806.4173 1585.5,828.5873 C1646.1,846.1173 1705.95,889.5673 1741.44,918.8273" fill="none" id="UDP Socket-GMN47" style="stroke:#000000;stroke-width:1;stroke-dasharray:7,7;"/></g><!--link GMN50 to WebTransport Protocol--><g class="link" data-entity-1="GMN50" data-entity-2="WebTransport Protocol" data-source-line="68" data-uid="lnk52" id="link_GMN50_WebTransport Protocol"><path d="M1364.23,197.6173 C1369.39,222.0123 1378.3775,264.5373 1386.175,301.4361 C1386.4187,302.5891 1386.6612,303.7367 1386.9024,304.8781" fill="none" id="GMN50-WebTransport Protocol" style="stroke:#000000;stroke-width:1;stroke-dasharray:7,7;"/></g><!--link GMN53 to HTTP/3 Protocol--><g class="link" data-entity-1="GMN53" data-entity-2="HTTP.3 Protocol" data-source-line="70" data-uid="lnk55" id="link_GMN53_HTTP.3 Protocol"><path d="M56,393.6173 C56,418.0123 56,460.5373 56,497.4361 C56,498.5891 56,499.7367 56,500.8781" fill="none" id="GMN53-HTTP/3 Protocol" style="stroke:#000000;stroke-width:1;stroke-dasharray:7,7;"/></g><!--link GMN56 to MsQuic Layer--><g class="link" data-entity-1="GMN56" data-entity-2="MsQuic Layer" data-source-line="72" data-uid="lnk58" id="link_GMN56_MsQuic Layer"><path d="M1584.34,589.6173 C1589.62,614.0123 1598.825,656.5373 1606.8125,693.4361 C1607.0621,694.5891 1607.3105,695.7367 1607.5576,696.8781" fill="none" id="GMN56-MsQuic Layer" style="stroke:#000000;stroke-width:1;stroke-dasharray:7,7;"/></g><!--link GMN59 to Transport Layer--><g class="link" data-entity-1="GMN59" data-entity-2="Transport Layer" data-source-line="74" data-uid="lnk61" id="link_GMN59_Transport Layer"><path d="M586,785.6473 C586,797.2448 586,812.8811 586,829.8659 C586,838.3583 586,847.1879 586,856.0183 C586,860.4336 586,864.849 586,869.2226 C586,871.4095 586,873.5858 586,875.7465 C586,876.8268 586,877.9032 586,878.975 C586,879.243 586,879.5106 586,879.778" fill="none" id="GMN59-Transport Layer" style="stroke:#000000;stroke-width:1;stroke-dasharray:7,7;"/></g><!--link GMN62 to Application Layer--><g class="link" data-entity-1="GMN62" data-entity-2="Application Layer" data-source-line="77" data-uid="lnk64" id="link_GMN62_Application Layer"><path d="M1557.15,147.8473 C1534.48,124.0073 1498.63,91.8673 1459.5,78.0873 C1406.89,59.5573 507.81,58.7373 455.5,78.0873 C445.0675,81.9473 437.5344,89.5604 432.1113,98.9189 C430.7555,101.2585 429.5316,103.7072 428.4272,106.2336 C428.1511,106.8652 427.8825,107.5016 427.6211,108.1425 C427.5558,108.3027 427.4909,108.4631 427.4265,108.6239" fill="none" id="GMN62-Application Layer" style="stroke:#000000;stroke-width:1;stroke-dasharray:7,7;"/></g><!--link GMN65 to WebTransport Protocol--><g class="link" data-entity-1="GMN65" data-entity-2="WebTransport Protocol" data-source-line="79" data-uid="lnk67" id="link_GMN65_WebTransport Protocol"><path d="M1827.03,343.9573 C1805.81,317.6473 1770.38,280.4173 1729.5,264.5873 C1668.78,241.0673 1494.39,234.7973 1436.5,264.5873 C1425.795,270.0973 1418.1763,279.1136 1412.7806,289.6523 C1411.4317,292.287 1410.2218,295.0168 1409.1373,297.8108 C1408.595,299.2078 1408.0841,300.6209 1407.6029,302.0461 C1407.3623,302.7587 1407.1291,303.4743 1406.9031,304.1925 C1406.8467,304.3721 1406.7906,304.5518 1406.735,304.7317" fill="none" id="GMN65-WebTransport Protocol" style="stroke:#000000;stroke-width:1;stroke-dasharray:7,7;"/></g><!--link GMN68 to HTTP/3 Protocol--><g class="link" data-entity-1="GMN68" data-entity-2="HTTP.3 Protocol" data-source-line="81" data-uid="lnk70" id="link_GMN68_HTTP.3 Protocol"><path d="M2026.72,539.9073 C2003.32,513.5573 1964.62,476.3073 1921.5,460.5873 C1873.77,443.1873 137.67,437.3373 92.5,460.5873 C81.765,466.1123 74.0738,475.1361 68.5852,485.6776 C67.213,488.313 65.9785,491.0433 64.8686,493.8374 C64.3136,495.2345 63.7897,496.6476 63.2954,498.0727 C63.0482,498.7853 62.8084,499.5009 62.5758,500.2191 C62.5176,500.3986 62.4599,500.5783 62.4026,500.7582" fill="none" id="GMN68-HTTP/3 Protocol" style="stroke:#000000;stroke-width:1;stroke-dasharray:7,7;"/></g><!--link GMN71 to MsQuic Layer--><g class="link" data-entity-1="GMN71" data-entity-2="MsQuic Layer" data-source-line="83" data-uid="lnk73" id="link_GMN71_MsQuic Layer"><path d="M1994.53,735.8473 C1968.1,709.4573 1924.84,672.1673 1878.5,656.5873 C1831.95,640.9373 1701.17,634.1173 1657.5,656.5873 C1646.795,662.0973 1639.1763,671.1136 1633.7806,681.6523 C1632.4317,684.287 1631.2218,687.0168 1630.1373,689.8108 C1629.595,691.2078 1629.0841,692.6209 1628.6029,694.0461 C1628.3623,694.7587 1628.1291,695.4743 1627.9031,696.1925 C1627.8467,696.3721 1627.7906,696.5518 1627.735,696.7317" fill="none" id="GMN71-MsQuic Layer" style="stroke:#000000;stroke-width:1;stroke-dasharray:7,7;"/></g><!--link GMN74 to Transport Layer--><g class="link" data-entity-1="GMN74" data-entity-2="Transport Layer" data-source-line="85" data-uid="lnk76" id="link_GMN74_Transport Layer"><path d="M2001.13,919.0573 C1978.98,889.9873 1940.19,846.6973 1894.5,828.5873 C1828.24,802.3173 672.03,790.9473 611.5,828.5873 C600.555,835.3948 593.3781,845.7148 588.795,857.4868 C586.5034,863.3729 584.8603,869.6219 583.7188,875.9763 C583.5761,876.7707 583.4413,877.5666 583.314,878.3637 C583.2504,878.7623 583.1886,879.1611 583.1287,879.5602" fill="none" id="GMN74-Transport Layer" style="stroke:#000000;stroke-width:1;stroke-dasharray:7,7;"/></g><!--SRC=[bLRVZ-8s47xFNp6zFfoqMXPkzzHUxw7I5kvKrEiU2wpwKFfWaW5SZ9tQ3XHL_TyxjfFW96IbFY5Yp_VDZszc_8tTuG4X5upBnEovp9bc1yXPkcTRNDYpGD2OMYQt0gCBQxgmrQgGsLW9fU6qunQJn79B1iylq_7mv-LozZ3y3TTBpQJ9bROmLeTSIPGM9fYZp52c70ryFQ8-SZmbIKaBRnxpNF2KMQuaV65dr6_WMy6tExiM1S8_2S3l3UJe_X_kq94F7vgV_utm6yOphQnAbQWujXfHNY5Pe34LGVF0QcG7qpsOCCkssX_5xALtRTxqp4hQyi9dCaMOCMrGU_3dsUFu5_WaKvMX7axG_yO1ZvMqMedIe_XaZdyLQ6nz4llpgtakUDfCz1c5KAVWpXott5XzII_HRFYsQ7wH99FgRyHVvS3_MNvPU1_nRzjquPApXXSvb_lWmyja1WkLxj5we2Uq9wNtC2KilM4fUhYtCDRAc85m69358ZjnkwClbd616J0fbVNUcwHVIJ0O_DYZ0VW8DpU5GNDpivAFiocaJ0W36se54wx0WKaAxK1oJwxfCO1VgtG3kxoWG_c66iaFQQXZjKeTaTmcIO-BCK6h_9vY_FNfwTDuMM4xjWRGZidCxDWUa-jo3mGnue7b1gnoI7CKdArf66HKVx2LSTBN806i5aiRxaNg7i2aH_jTxmh9Cww3IfbmgE4KfXEu7puaVRdg0AtxSKQtyFuMFjpTtP5ZKLC4a4Z47iYGFWtLD4L-3ELsezDFNxIap8O7RMCIDkMd4CoIeBcihTEQzG9qoUl_yIChhM3Zv6aeejZG8tNxq0FwyXouDN3apE7DTcT3oXSWWu7hrJbkK5CK6BUZRo4kCtxaMK7tCnu4aj0DMaLkA83Ql3B-FVy2yIDqbWXC0fXpQ5AFWkXMMYqeiv8aVlAZZ8fYVus_CHKyzzK54_ClEbE2if2jfF4b7zQfTqqeV9Ut7EYT79w_jM9Yvc11QzmDZrlmE-Ksn1l8uydLPeqbNPF5-oDcAh_xyTZAh5h_IJ0qUaGe-uxdtHotPUh9MfiYvdFt7NYfiKlvLZ9CVkDaL-V4v9ZoJLdxKc1MvOwwxu7Wl9X_7iCFz_UZphnKz8uf4vyqqJeBlyPvz-xzPSgth9fhkJOPZKPrXoulOx1XsbcdbVNttttmcJ8kSvN6AhzSTXvrwfvogIqqWiCi4oDmuujoxMdcmEFFzJ08ZNP4eNBK0_f2YdDo817yL93yg0T0g2q5wJTsqg9wfGXL-tWFsfKOL9LToRmgTgkFQewhfOc3gKwYPRm97LHlO3f0HYynht8TF6lpT8jv2Mrwo8LlDyzuMGErK2tDSMeddjBhHctiMmEyOT8ckrh-QbJNANFj4ZO4bFFQUzuTri1I5sdo7m00]--></g></svg>