<svg xmlns="http://www.w3.org/2000/svg" xmlns:xlink="http://www.w3.org/1999/xlink" contentStyleType="text/css" data-diagram-type="DESCRIPTION" height="738px" preserveAspectRatio="none" style="width:1122px;height:738px;background:#FFFFFF;" version="1.1" viewBox="0 0 1122 738" width="1122px" zoomAndPan="magnify"><title>WebTransport Protocol Components</title><defs/><g><g class="title" data-source-line="9"><text fill="#000000" font-family="Verdana" font-size="22" font-weight="bold" lengthAdjust="spacing" textLength="447.3262" x="333.1902" y="37.1182">WebTransport Protocol Components</text></g><!--cluster WebTransport Protocol--><g class="cluster" data-entity="WebTransport Protocol" data-source-line="11" data-uid="ent0002" id="cluster_WebTransport Protocol"><path d="M13.5,226.7373 L196.4932,226.7373 A3.75,3.75 0 0 1 198.9932,229.2373 L205.9932,249.752 L459.5,249.752 A2.5,2.5 0 0 1 462,252.252 L462,529.2373 A2.5,2.5 0 0 1 459.5,531.7373 L13.5,531.7373 A2.5,2.5 0 0 1 11,529.2373 L11,229.2373 A2.5,2.5 0 0 1 13.5,226.7373" fill="#FFFFFF" style="stroke:#000000;stroke-width:1;"/><line style="stroke:#000000;stroke-width:1;" x1="11" x2="205.9932" y1="249.752" y2="249.752"/><text fill="#000000" font-family="Verdana" font-size="14" font-weight="bold" lengthAdjust="spacing" textLength="181.9932" x="15" y="242.8125">WebTransport Protocol</text></g><!--entity WTSession--><g class="entity" data-entity="WTSession" data-source-line="12" data-uid="ent0003" id="entity_WTSession"><rect fill="#90EE90" height="37.0146" rx="2.5" ry="2.5" style="stroke:#000000;stroke-width:1;" width="177.3975" x="265.5" y="262.7373"/><text fill="#000000" font-family="Verdana" font-size="14" lengthAdjust="spacing" textLength="157.3975" x="275.5" y="286.8125">WebTransport Session</text></g><!--entity WTStreams--><g class="entity" data-entity="WTStreams" data-source-line="13" data-uid="ent0004" id="entity_WTStreams"><rect fill="#90EE90" height="37.0146" rx="2.5" ry="2.5" style="stroke:#000000;stroke-width:1;" width="182.4219" x="27" y="478.7373"/><text fill="#000000" font-family="Verdana" font-size="14" lengthAdjust="spacing" textLength="162.4219" x="37" y="502.8125">WebTransport Streams</text></g><!--entity WTDatagrams--><g class="entity" data-entity="WTDatagrams" data-source-line="14" data-uid="ent0005" id="entity_WTDatagrams"><rect fill="#90EE90" height="37.0146" rx="2.5" ry="2.5" style="stroke:#000000;stroke-width:1;" width="200.8379" x="244.5" y="478.7373"/><text fill="#000000" font-family="Verdana" font-size="14" lengthAdjust="spacing" textLength="180.8379" x="254.5" y="502.8125">WebTransport Datagrams</text></g><!--entity IFromApp--><g class="entity" data-entity="IFromApp" data-source-line="21" data-uid="ent0008" id="entity_IFromApp"><ellipse cx="189" cy="79.7373" fill="#FFFFFF" rx="8" ry="8" style="stroke:#000000;stroke-width:1;"/><text fill="#000000" font-family="Verdana" font-size="14" lengthAdjust="spacing" textLength="161.8955" x="108.0522" y="110.8125">From Application Layer</text></g><!--entity IToH3--><g class="entity" data-entity="IToH3" data-source-line="22" data-uid="ent0009" id="entity_IToH3"><ellipse cx="556" cy="497.2373" fill="#FFFFFF" rx="8" ry="8" style="stroke:#000000;stroke-width:1;"/><text fill="#000000" font-family="Verdana" font-size="14" lengthAdjust="spacing" textLength="135.0029" x="488.4985" y="528.3125">To HTTP/3 Protocol</text></g><!--entity IToMsQuic--><g class="entity" data-entity="IToMsQuic" data-source-line="23" data-uid="ent0010" id="entity_IToMsQuic"><ellipse cx="231" cy="698.7373" fill="#FFFFFF" rx="8" ry="8" style="stroke:#000000;stroke-width:1;"/><text fill="#000000" font-family="Verdana" font-size="14" lengthAdjust="spacing" textLength="115.876" x="173.062" y="729.8125">To MsQuic Layer</text></g><g class="entity" data-entity="GMN15" data-source-line="38" data-uid="ent0016" id="entity_GMN15"><path d="M478,236.7373 L478,277.2373 L442.53,281.2373 L478,285.2373 L478,325.7339 A0,0 0 0 0 478,325.7339 L747.5996,325.7339 A0,0 0 0 0 747.5996,325.7339 L747.5996,246.7373 L737.5996,236.7373 L478,236.7373 A0,0 0 0 0 478,236.7373" fill="#FFFFFF" style="stroke:#000000;stroke-width:1;"/><path d="M737.5996,236.7373 L737.5996,246.7373 L747.5996,246.7373 L737.5996,236.7373" fill="#FFFFFF" style="stroke:#000000;stroke-width:1;"/><text fill="#000000" font-family="Verdana" font-size="13" font-weight="bold" lengthAdjust="spacing" textLength="237.5737" x="484" y="254.8071">WebTransport Session Features:</text><text fill="#000000" font-family="Verdana" font-size="13" lengthAdjust="spacing" textLength="248.5996" x="484" y="270.6064">- Session establishment via CONNECT</text><text fill="#000000" font-family="Verdana" font-size="13" lengthAdjust="spacing" textLength="188.1128" x="484" y="286.4058">- Session state management</text><text fill="#000000" font-family="Verdana" font-size="13" lengthAdjust="spacing" textLength="195.0635" x="484" y="302.2051">- Multiple concurrent sessions</text><text fill="#000000" font-family="Verdana" font-size="13" lengthAdjust="spacing" textLength="177.3789" x="484" y="318.0044">- Session-level flow control</text></g><g class="entity" data-entity="GMN18" data-source-line="40" data-uid="ent0019" id="entity_GMN18"><path d="M666.5,452.7373 L666.5,541.7339 L865.3105,541.7339 L865.3105,462.7373 L855.3105,452.7373 L666.5,452.7373" fill="#FFFFFF" style="stroke:#000000;stroke-width:1;"/><path d="M855.3105,452.7373 L855.3105,462.7373 L865.3105,462.7373 L855.3105,452.7373" fill="#FFFFFF" style="stroke:#000000;stroke-width:1;"/><text fill="#000000" font-family="Verdana" font-size="13" font-weight="bold" lengthAdjust="spacing" textLength="173.8496" x="672.5" y="470.8071">WebTransport Streams:</text><text fill="#000000" font-family="Verdana" font-size="13" lengthAdjust="spacing" textLength="147.8496" x="672.5" y="486.6064">- Bidirectional streams</text><text fill="#000000" font-family="Verdana" font-size="13" lengthAdjust="spacing" textLength="156.6792" x="672.5" y="502.4058">- Unidirectional streams</text><text fill="#000000" font-family="Verdana" font-size="13" lengthAdjust="spacing" textLength="142.9238" x="672.5" y="518.2051">- Stream multiplexing</text><text fill="#000000" font-family="Verdana" font-size="13" lengthAdjust="spacing" textLength="177.8105" x="672.5" y="534.0044">- Reliable, ordered delivery</text></g><g class="entity" data-entity="GMN21" data-source-line="42" data-uid="ent0022" id="entity_GMN21"><path d="M900.5,452.7373 L900.5,541.7339 L1115.7065,541.7339 L1115.7065,462.7373 L1105.7065,452.7373 L900.5,452.7373" fill="#FFFFFF" style="stroke:#000000;stroke-width:1;"/><path d="M1105.7065,452.7373 L1105.7065,462.7373 L1115.7065,462.7373 L1105.7065,452.7373" fill="#FFFFFF" style="stroke:#000000;stroke-width:1;"/><text fill="#000000" font-family="Verdana" font-size="13" font-weight="bold" lengthAdjust="spacing" textLength="193.229" x="906.5" y="470.8071">WebTransport Datagrams:</text><text fill="#000000" font-family="Verdana" font-size="13" lengthAdjust="spacing" textLength="132.0884" x="906.5" y="486.6064">- Unreliable delivery</text><text fill="#000000" font-family="Verdana" font-size="13" lengthAdjust="spacing" textLength="87.7437" x="906.5" y="502.4058">- Low latency</text><text fill="#000000" font-family="Verdana" font-size="13" lengthAdjust="spacing" textLength="149.3794" x="906.5" y="518.2051">- Out-of-order delivery</text><text fill="#000000" font-family="Verdana" font-size="13" lengthAdjust="spacing" textLength="194.2065" x="906.5" y="534.0044">- Gaming/real-time use cases</text></g><g class="entity" data-entity="GMN24" data-source-line="45" data-uid="ent0025" id="entity_GMN24"><path d="M419.5,58.7373 L419.5,100.3359 L618.0376,100.3359 L618.0376,68.7373 L608.0376,58.7373 L419.5,58.7373" fill="#FFFFFF" style="stroke:#000000;stroke-width:1;"/><path d="M608.0376,58.7373 L608.0376,68.7373 L618.0376,68.7373 L608.0376,58.7373" fill="#FFFFFF" style="stroke:#000000;stroke-width:1;"/><text fill="#000000" font-family="Verdana" font-size="13" font-weight="bold" lengthAdjust="spacing" textLength="69.4434" x="425.5" y="76.8071">RFC 9220</text><text fill="#000000" font-family="Verdana" font-size="13" lengthAdjust="spacing" textLength="177.5376" x="425.5" y="92.6064">WebTransport over HTTP/3</text></g><g class="entity" data-entity="GMN27" data-source-line="48" data-uid="ent0028" id="entity_GMN27"><path d="M783,244.7373 L783,317.9346 L1046.8677,317.9346 L1046.8677,254.7373 L1036.8677,244.7373 L783,244.7373" fill="#FFFFFF" style="stroke:#000000;stroke-width:1;"/><path d="M1036.8677,244.7373 L1036.8677,254.7373 L1046.8677,254.7373 L1036.8677,244.7373" fill="#FFFFFF" style="stroke:#000000;stroke-width:1;"/><text fill="#000000" font-family="Verdana" font-size="13" font-weight="bold" lengthAdjust="spacing" textLength="167.4258" x="789" y="262.8071">Session Dependencies:</text><text fill="#000000" font-family="Verdana" font-size="13" lengthAdjust="spacing" textLength="172.7578" x="789" y="278.6064">- Requires HTTP/3 200 OK</text><text fill="#000000" font-family="Verdana" font-size="13" lengthAdjust="spacing" textLength="182.7744" x="789" y="294.4058">- CONNECT request success</text><text fill="#000000" font-family="Verdana" font-size="13" lengthAdjust="spacing" textLength="242.8677" x="789" y="310.2051">- WebTransport capability negotiated</text></g><!--link WTSession to WTStreams--><g class="link" data-entity-1="WTSession" data-entity-2="WTStreams" data-source-line="16" data-uid="lnk6" id="link_WTSession_WTStreams"><path d="M334.69,299.7473 C290.43,339.8773 186.5343,434.0864 142.0243,474.4564" fill="none" id="WTSession-to-WTStreams" style="stroke:#000000;stroke-width:1;"/><polygon fill="#000000" points="137.58,478.4873,146.9337,475.4038,141.2836,475.1282,141.5592,469.4781,137.58,478.4873" style="stroke:#000000;stroke-width:1;"/><text fill="#000000" font-family="Verdana" font-size="13" lengthAdjust="spacing" textLength="59.103" x="272" y="394.8071">manages</text></g><!--link WTSession to WTDatagrams--><g class="link" data-entity-1="WTSession" data-entity-2="WTDatagrams" data-source-line="17" data-uid="lnk7" id="link_WTSession_WTDatagrams"><path d="M353.26,299.7473 C351.58,339.8773 347.691,432.1226 346.001,472.4926" fill="none" id="WTSession-to-WTDatagrams" style="stroke:#000000;stroke-width:1;"/><polygon fill="#000000" points="345.75,478.4873,350.1229,469.6625,345.9591,473.4917,342.1299,469.3279,345.75,478.4873" style="stroke:#000000;stroke-width:1;"/><text fill="#000000" font-family="Verdana" font-size="13" lengthAdjust="spacing" textLength="59.103" x="351" y="394.8071">manages</text></g><!--link IFromApp to WTSession--><g class="link" data-entity-1="IFromApp" data-entity-2="WTSession" data-source-line="25" data-uid="lnk11" id="link_IFromApp_WTSession"><path d="M185.88,88.9573 C178.31,110.4173 161.33,169.0173 186,206.7373 C204.21,234.5773 229.8898,249.9467 260.5998,260.7467" fill="none" id="IFromApp-to-WTSession" style="stroke:#000000;stroke-width:1;"/><polygon fill="#000000" points="266.26,262.7373,259.0968,255.978,261.5432,261.0785,256.4427,263.5249,266.26,262.7373" style="stroke:#000000;stroke-width:1;"/><path d="M191,144.7373 L191,201.7373 L488,201.7373 L488,154.7373 L478,144.7373 L191,144.7373" fill="#FFFFFF" style="stroke:#000000;stroke-width:1;"/><path d="M478,144.7373 L478,154.7373 L488,154.7373 L478,144.7373" fill="#FFFFFF" style="stroke:#000000;stroke-width:1;"/><text fill="#000000" font-family="Verdana" font-size="13" font-weight="bold" lengthAdjust="spacing" textLength="276.5991" x="197" y="162.8071">Reference: Application Layer Diagram</text><text fill="#000000" font-family="Verdana" font-size="13" lengthAdjust="spacing" textLength="264.7734" x="197" y="178.6064">Receives from WebTransport Application</text><text fill="#000000" font-family="Verdana" font-size="13" lengthAdjust="spacing" textLength="224.8784" x="197" y="194.4058">Provides session management API</text></g><!--link WTSession to IToH3--><g class="link" data-entity-1="WTSession" data-entity-2="IToH3" data-source-line="28" data-uid="lnk12" id="link_WTSession_IToH3"><path d="M370.53,299.7473 C411.8,343.4773 514.0711,451.8245 543.9611,483.4845" fill="none" id="WTSession-to-IToH3" style="stroke:#000000;stroke-width:1;"/><polygon fill="#000000" points="548.08,487.8473,544.8102,478.5571,544.6476,484.2116,538.993,484.049,548.08,487.8473" style="stroke:#000000;stroke-width:1;"/><path d="M489,360.7373 L489,417.7373 L781,417.7373 L781,370.7373 L771,360.7373 L489,360.7373" fill="#FFFFFF" style="stroke:#000000;stroke-width:1;"/><path d="M771,360.7373 L771,370.7373 L781,370.7373 L771,360.7373" fill="#FFFFFF" style="stroke:#000000;stroke-width:1;"/><text fill="#000000" font-family="Verdana" font-size="13" font-weight="bold" lengthAdjust="spacing" textLength="271.1528" x="495" y="378.8071">Reference: HTTP/3 Protocol Diagram</text><text fill="#000000" font-family="Verdana" font-size="13" lengthAdjust="spacing" textLength="239.4272" x="495" y="394.6064">Connects to HTTP/3 Request Stream</text><text fill="#000000" font-family="Verdana" font-size="13" lengthAdjust="spacing" textLength="168.9683" x="495" y="410.4058">Sends CONNECT requests</text></g><!--link WTStreams to IToMsQuic--><g class="link" data-entity-1="WTStreams" data-entity-2="IToMsQuic" data-source-line="31" data-uid="lnk13" id="link_WTStreams_IToMsQuic"><path d="M102.3,516.0973 C79.52,544.2873 42.84,599.8573 70,638.7373 C106.31,690.7173 187.6616,696.9075 215.9716,697.5675" fill="none" id="WTStreams-to-IToMsQuic" style="stroke:#000000;stroke-width:1;"/><polygon fill="#000000" points="221.97,697.7073,213.0657,693.4986,216.9714,697.5908,212.8792,701.4965,221.97,697.7073" style="stroke:#000000;stroke-width:1;"/><path d="M75,576.7373 L75,633.7373 L342,633.7373 L342,586.7373 L332,576.7373 L75,576.7373" fill="#FFFFFF" style="stroke:#000000;stroke-width:1;"/><path d="M332,576.7373 L332,586.7373 L342,586.7373 L332,576.7373" fill="#FFFFFF" style="stroke:#000000;stroke-width:1;"/><text fill="#000000" font-family="Verdana" font-size="13" font-weight="bold" lengthAdjust="spacing" textLength="246.9937" x="81" y="594.8071">Reference: MsQuic Layer Diagram</text><text fill="#000000" font-family="Verdana" font-size="13" lengthAdjust="spacing" textLength="219.5972" x="81" y="610.6064">Maps to QUIC Stream component</text><text fill="#000000" font-family="Verdana" font-size="13" lengthAdjust="spacing" textLength="205.4863" x="81" y="626.4058">Provides reliable data transport</text></g><!--link WTDatagrams to IToMsQuic--><g class="link" data-entity-1="WTDatagrams" data-entity-2="IToMsQuic" data-source-line="34" data-uid="lnk14" id="link_WTDatagrams_IToMsQuic"><path d="M351.64,515.8173 C361.11,544.0973 374.87,600.3973 351,638.7373 C325.72,679.3373 269.3458,691.8566 245.9758,695.5666" fill="none" id="WTDatagrams-to-IToMsQuic" style="stroke:#000000;stroke-width:1;"/><polygon fill="#000000" points="240.05,696.5073,249.5658,699.0467,244.9882,695.7234,248.3115,691.1457,240.05,696.5073" style="stroke:#000000;stroke-width:1;"/><path d="M369,576.7373 L369,633.7373 L636,633.7373 L636,586.7373 L626,576.7373 L369,576.7373" fill="#FFFFFF" style="stroke:#000000;stroke-width:1;"/><path d="M626,576.7373 L626,586.7373 L636,586.7373 L626,576.7373" fill="#FFFFFF" style="stroke:#000000;stroke-width:1;"/><text fill="#000000" font-family="Verdana" font-size="13" font-weight="bold" lengthAdjust="spacing" textLength="246.9937" x="375" y="594.8071">Reference: MsQuic Layer Diagram</text><text fill="#000000" font-family="Verdana" font-size="13" lengthAdjust="spacing" textLength="236.6978" x="375" y="610.6064">Maps to QUIC Datagram component</text><text fill="#000000" font-family="Verdana" font-size="13" lengthAdjust="spacing" textLength="221.9395" x="375" y="626.4058">Provides unreliable data transport</text></g><!--link WTStreams to GMN18--><g class="link" data-entity-1="WTStreams" data-entity-2="GMN18" data-source-line="40" data-uid="lnk20" id="link_WTStreams_GMN18"><path d="M132.29,478.6573 C153.48,452.7973 196,407.1273 244.5,389.2373 C405.87,329.7173 469.25,332.1573 631.5,389.2373 C667.52,401.9073 701.02,428.7473 725.58,452.4973" fill="none" id="WTStreams-GMN18" style="stroke:#000000;stroke-width:1;stroke-dasharray:7,7;"/></g><!--link WTDatagrams to GMN21--><g class="link" data-entity-1="WTDatagrams" data-entity-2="GMN21" data-source-line="42" data-uid="lnk23" id="link_WTDatagrams_GMN21"><path d="M360.75,478.6273 C384.03,452.7273 430.41,407.0073 481.5,389.2373 C642.7,333.1773 703.73,334.8573 865.5,389.2373 C903.16,401.8973 938.79,428.8973 965,452.7273" fill="none" id="WTDatagrams-GMN21" style="stroke:#000000;stroke-width:1;stroke-dasharray:7,7;"/></g><!--link GMN24 to WTSession--><g class="link" data-entity-1="GMN24" data-entity-2="WTSession" data-source-line="45" data-uid="lnk26" id="link_GMN24_WTSession"><path d="M521.34,100.8173 C523.35,128.1273 522.65,176.9573 497,206.7373 C485.99,219.5173 476.39,211.8373 461,218.7373 C432.85,231.3673 402.51,249.2473 381.36,262.4773" fill="none" id="GMN24-WTSession" style="stroke:#000000;stroke-width:1;stroke-dasharray:7,7;"/></g><!--link GMN27 to WTSession--><g class="link" data-entity-1="GMN27" data-entity-2="WTSession" data-source-line="48" data-uid="lnk29" id="link_GMN27_WTSession"><path d="M877.4,244.4673 C845.89,216.3973 798.19,179.9473 748.5,164.2373 C634.08,128.0573 590.07,120.0373 478.5,164.2373 C428.31,184.1173 386.56,234.8673 366.61,262.5473" fill="none" id="GMN27-WTSession" style="stroke:#000000;stroke-width:1;stroke-dasharray:7,7;"/></g><!--SRC=[hPLDRzim38Rl_XLSBjs26ItQqteOqARjMgoVYOjUUb5isX4gIvuafmk6_VTHifme7yrfjrXyIJuYAUQJdM6Dq0Z6PMBUk6oOPZNagcwKH6adTY4GDEQMoKfW99co_AtIgfN5I0cbuNt6BUuA0NyIWFCDjU3Lp5OQKJgZqWNgpZ0Lf4p-9edbbZA_u3JJJ9f6QGkFMbcLAm6ZFhP9aeRqh48Ox9GEVFOLoxfgWiPm9GS0m0oyPE5xduVLo6gpykY-ztXSCCigxNsyn_8x8QTbIaZJxwjm5FqKQYRfNcQ7QXaYKb753k3ojqKjcG0kwKV9Skgiejy6FciiKQFCqO1LeAZj6WhUXVcIhFI3AwrgE6iQmNDcNSvRja3juM-SZKonF5DmdMMFXoTHoPqqKzSd6xexyzJoF8wNgUuiIVhGVHr28wIo2CGWk7oZomw7u_uQfzkCSD7TPpXybMFCaS_figMxpbf38hzNIT1pNf3EX0ftzQnT7yyURv9alVRTjVPHRHGZPXefAUaX-GO4sHX_jMZwiNgL4vI5WT73_VtbAADdvwt6KuJ921IXRlj8udB767UiyGXFppUZa7Wrl555D0hEflG62neti7tz7Cng0FypJXzu9r0hFqGwM6-nQJ3d9MLZaf1ygqq7fztU0LL6RyfnxjeAS8NCjXhDgSDCbyVK4MBWPkQ7PCvPtwzOH1hAjXecPxjhXUKDqUTAvgtMpZsCdObyKu5p550AzUwKLYkHRCE7STY6xmo1-PmNt2rl2ajRmNGsPtYM7rd2HDG1zZUNbJiUXz9_1R-iiO22JkQe5zjmyNxQm5kQ0k1prDCGpntVqjq5LL3c_lEXjQagKvzvJVU3rSHtICGYjPp-o5f3vMLKLJSJoqSe_D1j3ODLpVOeZAz6yEtu-CZnhQ4hIXhUhGi-yHqkiA4dIvmSGr21vOu1wtzVHFfG0hS3g1Mctmd7HqVmyDDPDlO0c3Qd_Usxj4QMiuPDkU1s0H8hPJcH5Sa_]--></g></svg>