<svg xmlns="http://www.w3.org/2000/svg" xmlns:xlink="http://www.w3.org/1999/xlink" contentStyleType="text/css" data-diagram-type="DESCRIPTION" height="694px" preserveAspectRatio="none" style="width:797px;height:694px;background:#FFFFFF;" version="1.1" viewBox="0 0 797 694" width="797px" zoomAndPan="magnify"><title>Application Layer Components</title><defs/><g><g class="title" data-source-line="9"><text fill="#000000" font-family="Verdana" font-size="22" font-weight="bold" lengthAdjust="spacing" textLength="376.2773" x="206.2437" y="37.1182">Application Layer Components</text></g><!--cluster Application Layer--><g class="cluster" data-entity="Application Layer" data-source-line="11" data-uid="ent0002" id="cluster_Application Layer"><path d="M72.5,58.7373 L210.2803,58.7373 A3.75,3.75 0 0 1 212.7803,61.2373 L219.7803,81.752 L301.5,81.752 A2.5,2.5 0 0 1 304,84.252 L304,369.2373 A2.5,2.5 0 0 1 301.5,371.7373 L72.5,371.7373 A2.5,2.5 0 0 1 70,369.2373 L70,61.2373 A2.5,2.5 0 0 1 72.5,58.7373" fill="#FFFFFF" style="stroke:#000000;stroke-width:1;"/><line style="stroke:#000000;stroke-width:1;" x1="70" x2="219.7803" y1="81.752" y2="81.752"/><text fill="#000000" font-family="Verdana" font-size="14" font-weight="bold" lengthAdjust="spacing" textLength="136.7803" x="74" y="74.8125">Application Layer</text></g><!--entity WTApp--><g class="entity" data-entity="WTApp" data-source-line="12" data-uid="ent0003" id="entity_WTApp"><rect fill="#ADD8E6" height="37.0146" rx="2.5" ry="2.5" style="stroke:#000000;stroke-width:1;" width="200.8174" x="86.5" y="94.7373"/><text fill="#000000" font-family="Verdana" font-size="14" lengthAdjust="spacing" textLength="180.8174" x="96.5" y="118.8125">WebTransport Application</text></g><!--entity H3App--><g class="entity" data-entity="H3App" data-source-line="13" data-uid="ent0004" id="entity_H3App"><rect fill="#ADD8E6" height="37.0146" rx="2.5" ry="2.5" style="stroke:#000000;stroke-width:1;" width="153.5127" x="110" y="318.7373"/><text fill="#000000" font-family="Verdana" font-size="14" lengthAdjust="spacing" textLength="133.5127" x="120" y="342.8125">HTTP/3 Application</text></g><!--entity IWT--><g class="entity" data-entity="IWT" data-source-line="20" data-uid="ent0006" id="entity_IWT"><ellipse cx="419" cy="337.2373" fill="#FFFFFF" rx="8" ry="8" style="stroke:#000000;stroke-width:1;"/><text fill="#000000" font-family="Verdana" font-size="14" lengthAdjust="spacing" textLength="182.3076" x="327.8462" y="368.3125">To WebTransport Protocol</text></g><!--entity IH3--><g class="entity" data-entity="IH3" data-source-line="21" data-uid="ent0007" id="entity_IH3"><ellipse cx="141" cy="538.7373" fill="#FFFFFF" rx="8" ry="8" style="stroke:#000000;stroke-width:1;"/><text fill="#000000" font-family="Verdana" font-size="14" lengthAdjust="spacing" textLength="135.0029" x="73.4985" y="569.8125">To HTTP/3 Protocol</text></g><g class="entity" data-entity="GMN10" data-source-line="30" data-uid="ent0011" id="entity_GMN10"><path d="M322.5,60.7373 L322.5,109.2373 L287.72,113.2373 L322.5,117.2373 L322.5,165.5332 A0,0 0 0 0 322.5,165.5332 L607.1943,165.5332 A0,0 0 0 0 607.1943,165.5332 L607.1943,70.7373 L597.1943,60.7373 L322.5,60.7373 A0,0 0 0 0 322.5,60.7373" fill="#FFFFFF" style="stroke:#000000;stroke-width:1;"/><path d="M597.1943,60.7373 L597.1943,70.7373 L607.1943,70.7373 L597.1943,60.7373" fill="#FFFFFF" style="stroke:#000000;stroke-width:1;"/><text fill="#000000" font-family="Verdana" font-size="13" font-weight="bold" lengthAdjust="spacing" textLength="263.6943" x="328.5" y="78.8071">WebTransport Application Features:</text><text fill="#000000" font-family="Verdana" font-size="13" lengthAdjust="spacing" textLength="177.5439" x="328.5" y="94.6064">- Real-time communication</text><text fill="#000000" font-family="Verdana" font-size="13" lengthAdjust="spacing" textLength="142.7715" x="328.5" y="110.4058">- Gaming applications</text><text fill="#000000" font-family="Verdana" font-size="13" lengthAdjust="spacing" textLength="106.8184" x="328.5" y="126.2051">- Live streaming</text><text fill="#000000" font-family="Verdana" font-size="13" lengthAdjust="spacing" textLength="163.3823" x="328.5" y="142.0044">- Low-latency messaging</text><text fill="#000000" font-family="Verdana" font-size="13" lengthAdjust="spacing" textLength="191.1597" x="328.5" y="157.8037">- Bidirectional data exchange</text></g><g class="entity" data-entity="GMN13" data-source-line="32" data-uid="ent0014" id="entity_GMN13"><path d="M553.5,292.7373 L553.5,381.7339 L790.7646,381.7339 L790.7646,302.7373 L780.7646,292.7373 L553.5,292.7373" fill="#FFFFFF" style="stroke:#000000;stroke-width:1;"/><path d="M780.7646,292.7373 L780.7646,302.7373 L790.7646,302.7373 L780.7646,292.7373" fill="#FFFFFF" style="stroke:#000000;stroke-width:1;"/><text fill="#000000" font-family="Verdana" font-size="13" font-weight="bold" lengthAdjust="spacing" textLength="216.2646" x="559.5" y="310.8071">HTTP/3 Application Features:</text><text fill="#000000" font-family="Verdana" font-size="13" lengthAdjust="spacing" textLength="171.3423" x="559.5" y="326.6064">- Traditional web requests</text><text fill="#000000" font-family="Verdana" font-size="13" lengthAdjust="spacing" textLength="117.7427" x="559.5" y="342.4058">- REST API clients</text><text fill="#000000" font-family="Verdana" font-size="13" lengthAdjust="spacing" textLength="102.7559" x="559.5" y="358.2051">- Web browsers</text><text fill="#000000" font-family="Verdana" font-size="13" lengthAdjust="spacing" textLength="145.7168" x="559.5" y="374.0044">- HTTP-based services</text></g><g class="entity" data-entity="GMN16" data-source-line="35" data-uid="ent0017" id="entity_GMN16"><path d="M330.5,510.2373 L330.5,567.6353 L601.2549,567.6353 L601.2549,520.2373 L591.2549,510.2373 L330.5,510.2373" fill="#FFFFFF" style="stroke:#000000;stroke-width:1;"/><path d="M591.2549,510.2373 L591.2549,520.2373 L601.2549,520.2373 L591.2549,510.2373" fill="#FFFFFF" style="stroke:#000000;stroke-width:1;"/><text fill="#000000" font-family="Verdana" font-size="13" font-weight="bold" lengthAdjust="spacing" textLength="144.2188" x="336.5" y="528.3071">External Reference:</text><text fill="#000000" font-family="Verdana" font-size="13" lengthAdjust="spacing" textLength="249.7549" x="336.5" y="544.1064">See "WebTransport Protocol Diagram"</text><text fill="#000000" font-family="Verdana" font-size="13" lengthAdjust="spacing" textLength="245.9209" x="336.5" y="559.9058">for WebTransport Session component</text></g><g class="entity" data-entity="GMN19" data-source-line="36" data-uid="ent0020" id="entity_GMN19"><path d="M11,629.7373 L11,687.1353 A0,0 0 0 0 11,687.1353 L271.1797,687.1353 A0,0 0 0 0 271.1797,687.1353 L271.1797,639.7373 L261.1797,629.7373 L145,629.7373 L141,547.8173 L137,629.7373 L11,629.7373 A0,0 0 0 0 11,629.7373" fill="#FFFFFF" style="stroke:#000000;stroke-width:1;"/><path d="M261.1797,629.7373 L261.1797,639.7373 L271.1797,639.7373 L261.1797,629.7373" fill="#FFFFFF" style="stroke:#000000;stroke-width:1;"/><text fill="#000000" font-family="Verdana" font-size="13" font-weight="bold" lengthAdjust="spacing" textLength="144.2188" x="17" y="647.8071">External Reference:</text><text fill="#000000" font-family="Verdana" font-size="13" lengthAdjust="spacing" textLength="205.8291" x="17" y="663.6064">See "HTTP/3 Protocol Diagram"</text><text fill="#000000" font-family="Verdana" font-size="13" lengthAdjust="spacing" textLength="239.1797" x="17" y="679.4058">for HTTP/3 Frame Parser component</text></g><!--link WTApp to H3App--><g class="link" data-entity-1="WTApp" data-entity-2="H3App" data-source-line="17" data-uid="lnk5" id="link_WTApp_H3App"><path d="M187,132.0273 C187,173.6973 187,271.2173 187,312.6673" fill="none" id="WTApp-to-H3App" style="stroke:#000000;stroke-width:1;"/><polygon fill="#000000" points="187,318.6673,191,309.6673,187,313.6673,183,309.6673,187,318.6673" style="stroke:#000000;stroke-width:1;"/><text fill="#000000" font-family="Verdana" font-size="13" lengthAdjust="spacing" textLength="78.2793" x="188" y="234.8071">may coexist</text></g><!--link WTApp to IWT--><g class="link" data-entity-1="WTApp" data-entity-2="IWT" data-source-line="23" data-uid="lnk8" id="link_WTApp_IWT"><path d="M206.36,131.8973 C224.28,148.3173 251.61,173.4973 275,195.7373 C327.15,245.3073 384.351,301.8511 406.371,323.7011" fill="none" id="WTApp-to-IWT" style="stroke:#000000;stroke-width:1;"/><polygon fill="#000000" points="410.63,327.9273,407.0589,318.7487,407.0808,324.4055,401.424,324.4274,410.63,327.9273" style="stroke:#000000;stroke-width:1;"/><path d="M348,200.7373 L348,257.7373 L687,257.7373 L687,210.7373 L677,200.7373 L348,200.7373" fill="#FFFFFF" style="stroke:#000000;stroke-width:1;"/><path d="M677,200.7373 L677,210.7373 L687,210.7373 L677,200.7373" fill="#FFFFFF" style="stroke:#000000;stroke-width:1;"/><text fill="#000000" font-family="Verdana" font-size="13" font-weight="bold" lengthAdjust="spacing" textLength="318.5825" x="354" y="218.8071">Reference: WebTransport Protocol Diagram</text><text fill="#000000" font-family="Verdana" font-size="13" lengthAdjust="spacing" textLength="228.1411" x="354" y="234.6064">Connects to WebTransport Session</text><text fill="#000000" font-family="Verdana" font-size="13" lengthAdjust="spacing" textLength="193.2417" x="354" y="250.4058">Provides application-level API</text></g><!--link H3App to IH3--><g class="link" data-entity-1="H3App" data-entity-2="IH3" data-source-line="26" data-uid="lnk9" id="link_H3App_IH3"><path d="M170.74,355.9973 C159.1,369.9873 144.4,390.5973 138,411.7373 C125.06,454.4573 133.3785,503.2436 137.8085,523.6736" fill="none" id="H3App-to-IH3" style="stroke:#000000;stroke-width:1;"/><polygon fill="#000000" points="139.08,529.5373,141.0819,519.8941,138.0204,524.6509,133.2636,521.5894,139.08,529.5373" style="stroke:#000000;stroke-width:1;"/><path d="M143,416.7373 L143,473.7373 L435,473.7373 L435,426.7373 L425,416.7373 L143,416.7373" fill="#FFFFFF" style="stroke:#000000;stroke-width:1;"/><path d="M425,416.7373 L425,426.7373 L435,426.7373 L425,416.7373" fill="#FFFFFF" style="stroke:#000000;stroke-width:1;"/><text fill="#000000" font-family="Verdana" font-size="13" font-weight="bold" lengthAdjust="spacing" textLength="271.1528" x="149" y="434.8071">Reference: HTTP/3 Protocol Diagram</text><text fill="#000000" font-family="Verdana" font-size="13" lengthAdjust="spacing" textLength="221.3999" x="149" y="450.6064">Connects to HTTP/3 Frame Parser</text><text fill="#000000" font-family="Verdana" font-size="13" lengthAdjust="spacing" textLength="244.2959" x="149" y="466.4058">Provides HTTP/3 application interface</text></g><!--link H3App to GMN13--><g class="link" data-entity-1="H3App" data-entity-2="GMN13" data-source-line="32" data-uid="lnk15" id="link_H3App_GMN13"><path d="M202.17,318.6373 C224.61,292.7573 269.45,247.0473 319.5,229.2373 C402.82,199.5773 434.18,202.5473 518.5,229.2373 C558.26,241.8273 596.64,268.8273 625.07,292.6773" fill="none" id="H3App-GMN13" style="stroke:#000000;stroke-width:1;stroke-dasharray:7,7;"/></g><!--link IWT to GMN16--><g class="link" data-entity-1="IWT" data-entity-2="GMN16" data-source-line="35" data-uid="lnk18" id="link_IWT_GMN16"><path d="M422.19,346.2673 C427.41,359.6573 437.79,387.4473 444,411.7373 C452.53,445.0873 458.79,484.2373 462.41,509.9473" fill="none" id="IWT-GMN16" style="stroke:#000000;stroke-width:1;stroke-dasharray:7,7;"/></g><!--SRC=[XPHDZzem48Rl-HNJNDeYHJrmur1fb-uMf3qWYCI5ooGPWeLZfxRvKjN_th4J8E6ZvHJ6hsUU6R_s9xUXYg2MA5HajqBLQB22N5UrLgJSmfqaWQ7SeIebTIGPvjlIw9qgnbfg0uUDSFGe1VoE05vlr5AK6vV97VarRGeoJJoJB8p-H94JZWk_rBKKEJgX5NpWYGoCpsbj5DMinP8WlfF5eUWL8LvIbXfKjjR6TRF6W1QMAKVw-acQphuD-yhmO_bawENC-1ccof5HA7chKZmarbau2BSHwfuz2dKWIRutAM045PvuAns5TJxTsx5D9tpUDUPyCfg_BNmnj2P3AYSBJeFcOpDG22nvrFPhTDN7gOPUipEZdSwr39rEb-cDjcsqhveCemwitwIq8-16f51RvXuCvcUUqUDoyAE16mnMQjmC9v3tn0kobiUpKhnhBmhk3Qz3IoJjISBBR1f5pRm23BFz2-QcdsSOhUoTbmXcQ2oP3aMxse6vdeW_f-xHoc1BL0mL0hR1CzxWeDUDkGBbCm_2Ew7R6R8ZJvd0d50cJZ0O6xBQgLRcbtvY9LJP1RC-_27s1DOP2iiXeW-9HCSpEK75KyQoNNWLXJ2DKzbd1Je4EkORljtSMP_yRDB1uFust39pOuLeanueunVZruwi2tJpjqNgZn5oAVp5zJ6U1MH67tZkuR-la6HegG0ExGNxt0_wSepDb2-Ne27Dj7EwygXiqG1wkK1NHtY-1T7D4t3hZtYbrlpyF7BdzLcugpeP_hVg4p-szHxOi5FkBm00]--></g></svg>