<svg xmlns="http://www.w3.org/2000/svg" xmlns:xlink="http://www.w3.org/1999/xlink" contentStyleType="text/css" data-diagram-type="SEQUENCE" height="627px" preserveAspectRatio="none" style="width:757px;height:627px;background:#FFFFFF;" version="1.1" viewBox="0 0 757 627" width="757px" zoomAndPan="magnify"><defs/><g><rect fill="none" height="128.4063" style="stroke:#000000;stroke-width:1.5;" width="459.1777" x="281.0864" y="221.0156"/><g><title>Application</title><rect fill="#000000" fill-opacity="0.00000" height="462.5703" width="8" x="38.2446" y="82.6094"/><line style="stroke:#181818;stroke-width:0.5;stroke-dasharray:5,5;" x1="42" x2="42" y1="82.6094" y2="545.1797"/></g><g><title>Connection</title><rect fill="#000000" fill-opacity="0.00000" height="462.5703" width="8" x="329.5" y="82.6094"/><line style="stroke:#181818;stroke-width:0.5;stroke-dasharray:5,5;" x1="333.0864" x2="333.0864" y1="82.6094" y2="545.1797"/></g><g><title>RemotePeer</title><rect fill="#000000" fill-opacity="0.00000" height="462.5703" width="8" x="517.5234" y="82.6094"/><line style="stroke:#181818;stroke-width:0.5;stroke-dasharray:5,5;" x1="521.2271" x2="521.2271" y1="82.6094" y2="545.1797"/></g><g class="participant participant-head" data-participant="Application"><text fill="#000000" font-family="sans-serif" font-size="14" lengthAdjust="spacing" textLength="68.4893" x="5" y="79.5332">Application</text><ellipse cx="42.2446" cy="13.5" fill="#E2E2F0" rx="8" ry="8" style="stroke:#181818;stroke-width:0.5;"/><path d="M42.2446,21.5 L42.2446,48.5 M29.2446,29.5 L55.2446,29.5 M42.2446,48.5 L29.2446,63.5 M42.2446,48.5 L55.2446,63.5" fill="none" style="stroke:#181818;stroke-width:0.5;"/></g><g class="participant participant-tail" data-participant="Application"><text fill="#000000" font-family="sans-serif" font-size="14" lengthAdjust="spacing" textLength="68.4893" x="5" y="558.7129">Application</text><ellipse cx="42.2446" cy="570.2891" fill="#E2E2F0" rx="8" ry="8" style="stroke:#181818;stroke-width:0.5;"/><path d="M42.2446,578.2891 L42.2446,605.2891 M29.2446,586.2891 L55.2446,586.2891 M42.2446,605.2891 L29.2446,620.2891 M42.2446,605.2891 L55.2446,620.2891" fill="none" style="stroke:#181818;stroke-width:0.5;"/></g><g class="participant participant-head" data-participant="C"><rect fill="#E2E2F0" height="31.6094" rx="2.5" ry="2.5" style="stroke:#181818;stroke-width:0.5;" width="84.8271" x="291.0864" y="50"/><text fill="#000000" font-family="sans-serif" font-size="14" lengthAdjust="spacing" textLength="70.8271" x="298.0864" y="71.5332">Connection</text></g><g class="participant participant-tail" data-participant="C"><rect fill="#E2E2F0" height="31.6094" rx="2.5" ry="2.5" style="stroke:#181818;stroke-width:0.5;" width="84.8271" x="291.0864" y="544.1797"/><text fill="#000000" font-family="sans-serif" font-size="14" lengthAdjust="spacing" textLength="70.8271" x="298.0864" y="565.7129">Connection</text></g><g class="participant participant-head" data-participant="S"><rect fill="#E2E2F0" height="31.6094" rx="2.5" ry="2.5" style="stroke:#181818;stroke-width:0.5;" width="92.5928" x="475.2271" y="50"/><text fill="#000000" font-family="sans-serif" font-size="14" lengthAdjust="spacing" textLength="78.5928" x="482.2271" y="71.5332">RemotePeer</text></g><g class="participant participant-tail" data-participant="S"><rect fill="#E2E2F0" height="31.6094" rx="2.5" ry="2.5" style="stroke:#181818;stroke-width:0.5;" width="92.5928" x="475.2271" y="544.1797"/><text fill="#000000" font-family="sans-serif" font-size="14" lengthAdjust="spacing" textLength="78.5928" x="482.2271" y="565.7129">RemotePeer</text></g><rect fill="#EEEEEE" height="3" style="stroke:#EEEEEE;stroke-width:1;" width="750.2642" x="0" y="113.7852"/><line style="stroke:#000000;stroke-width:1;" x1="0" x2="750.2642" y1="113.7852" y2="113.7852"/><line style="stroke:#000000;stroke-width:1;" x1="0" x2="750.2642" y1="116.7852" y2="116.7852"/><rect fill="#EEEEEE" height="24.3516" style="stroke:#000000;stroke-width:2;" width="209.7363" x="270.2639" y="102.6094"/><text fill="#000000" font-family="sans-serif" font-size="13" font-weight="bold" lengthAdjust="spacing" textLength="192.1245" x="276.2639" y="120.1045">Start with unsupported version</text><g class="message" data-participant-1="Application" data-participant-2="C"><polygon fill="#181818" points="321.5,171.6641,331.5,175.6641,321.5,179.6641,325.5,175.6641" style="stroke:#181818;stroke-width:1;"/><line style="stroke:#181818;stroke-width:1;" x1="42.2446" x2="327.5" y1="175.6641" y2="175.6641"/><text fill="#000000" font-family="sans-serif" font-size="13" lengthAdjust="spacing" textLength="112.7153" x="49.2446" y="154.4561">ConnectionStart(...)</text><text fill="#000000" font-family="sans-serif" font-size="13" lengthAdjust="spacing" textLength="122.1035" x="49.2446" y="170.8076">(offers [v99, v98, v1])</text></g><g class="message" data-participant-1="C" data-participant-2="S"><polygon fill="#181818" points="509.5234,202.0156,519.5234,206.0156,509.5234,210.0156,513.5234,206.0156" style="stroke:#181818;stroke-width:1;"/><line style="stroke:#181818;stroke-width:1;" x1="333.5" x2="515.5234" y1="206.0156" y2="206.0156"/><text fill="#000000" font-family="sans-serif" font-size="13" lengthAdjust="spacing" textLength="59.9663" x="340.5" y="201.1592">Initial(v99)</text></g><path d="M281.0864,221.0156 L341.2573,221.0156 L341.2573,229.3672 L331.2573,239.3672 L281.0864,239.3672 L281.0864,221.0156" fill="#EEEEEE" style="stroke:#000000;stroke-width:1.5;"/><rect fill="none" height="128.4063" style="stroke:#000000;stroke-width:1.5;" width="459.1777" x="281.0864" y="221.0156"/><text fill="#000000" font-family="sans-serif" font-size="13" font-weight="bold" lengthAdjust="spacing" textLength="15.1709" x="296.0864" y="235.5107">alt</text><text fill="#000000" font-family="sans-serif" font-size="11" font-weight="bold" lengthAdjust="spacing" textLength="149.1499" x="356.2573" y="234.4346">[Server doesn&#8217;t support v99]</text><g class="message" data-participant-1="S" data-participant-2="C"><polygon fill="#181818" points="344.5,260.7188,334.5,264.7188,344.5,268.7188,340.5,264.7188" style="stroke:#181818;stroke-width:1;"/><line style="stroke:#181818;stroke-width:1;" x1="338.5" x2="520.5234" y1="264.7188" y2="264.7188"/><text fill="#000000" font-family="sans-serif" font-size="13" lengthAdjust="spacing" textLength="164.0234" x="350.5" y="259.8623">Version Negotiation([v1, v2])</text></g><path d="M526,244.3672 L526,270.3672 L724,270.3672 L724,254.3672 L714,244.3672 L526,244.3672" fill="#FEFFDD" style="stroke:#181818;stroke-width:0.5;"/><path d="M714,244.3672 L714,254.3672 L724,254.3672 L714,244.3672" fill="#FEFFDD" style="stroke:#181818;stroke-width:0.5;"/><text fill="#000000" font-family="sans-serif" font-size="13" lengthAdjust="spacing" textLength="177.7407" x="532" y="262.8623">Server lists supported versions</text><g class="message" data-participant-1="C" data-participant-2="C"><line style="stroke:#181818;stroke-width:1;" x1="333.5" x2="375.5" y1="298.0703" y2="298.0703"/><line style="stroke:#181818;stroke-width:1;" x1="375.5" x2="375.5" y1="298.0703" y2="311.0703"/><line style="stroke:#181818;stroke-width:1;" x1="334.5" x2="375.5" y1="311.0703" y2="311.0703"/><polygon fill="#181818" points="344.5,307.0703,334.5,311.0703,344.5,315.0703,340.5,311.0703" style="stroke:#181818;stroke-width:1;"/><text fill="#000000" font-family="sans-serif" font-size="13" lengthAdjust="spacing" textLength="94.6245" x="340.5" y="293.2139">(library picks v1)</text></g><g class="message" data-participant-1="C" data-participant-2="S"><polygon fill="#181818" points="509.5234,337.4219,519.5234,341.4219,509.5234,345.4219,513.5234,341.4219" style="stroke:#181818;stroke-width:1;"/><line style="stroke:#181818;stroke-width:1;" x1="333.5" x2="515.5234" y1="341.4219" y2="341.4219"/><text fill="#000000" font-family="sans-serif" font-size="13" lengthAdjust="spacing" textLength="52.7363" x="340.5" y="336.5654">Initial(v1)</text></g><rect fill="#EEEEEE" height="3" style="stroke:#EEEEEE;stroke-width:1;" width="750.2642" x="0" y="377.5977"/><line style="stroke:#000000;stroke-width:1;" x1="0" x2="750.2642" y1="377.5977" y2="377.5977"/><line style="stroke:#000000;stroke-width:1;" x1="0" x2="750.2642" y1="380.5977" y2="380.5977"/><rect fill="#EEEEEE" height="24.3516" style="stroke:#000000;stroke-width:2;" width="225.6563" x="262.304" y="366.4219"/><text fill="#000000" font-family="sans-serif" font-size="13" font-weight="bold" lengthAdjust="spacing" textLength="208.0444" x="268.304" y="383.917">Handshake on negotiated version</text><g class="message" data-participant-1="C" data-participant-2="S"><polygon fill="#181818" points="509.5234,419.125,519.5234,423.125,509.5234,427.125,513.5234,423.125" style="stroke:#181818;stroke-width:1;"/><line style="stroke:#181818;stroke-width:1;" x1="333.5" x2="515.5234" y1="423.125" y2="423.125"/><text fill="#000000" font-family="sans-serif" font-size="13" lengthAdjust="spacing" textLength="88.1563" x="340.5" y="418.2686">Handshake(v1)</text></g><g class="message" data-participant-1="S" data-participant-2="C"><polygon fill="#181818" points="344.5,449.4766,334.5,453.4766,344.5,457.4766,340.5,453.4766" style="stroke:#181818;stroke-width:1;"/><line style="stroke:#181818;stroke-width:1;" x1="338.5" x2="520.5234" y1="453.4766" y2="453.4766"/><text fill="#000000" font-family="sans-serif" font-size="13" lengthAdjust="spacing" textLength="127.918" x="350.5" y="448.6201">Handshake Response</text></g><g class="message" data-participant-1="C" data-participant-2="C"><line style="stroke:#181818;stroke-width:1;" x1="333.5" x2="375.5" y1="483.8281" y2="483.8281"/><line style="stroke:#181818;stroke-width:1;" x1="375.5" x2="375.5" y1="483.8281" y2="496.8281"/><line style="stroke:#181818;stroke-width:1;" x1="334.5" x2="375.5" y1="496.8281" y2="496.8281"/><polygon fill="#181818" points="344.5,492.8281,334.5,496.8281,344.5,500.8281,340.5,496.8281" style="stroke:#181818;stroke-width:1;"/><text fill="#000000" font-family="sans-serif" font-size="13" lengthAdjust="spacing" textLength="141.5781" x="340.5" y="478.9717">OnEvent(CONNECTED)</text></g><g class="message" data-participant-1="C" data-participant-2="Application"><polygon fill="#181818" points="53.2446,523.1797,43.2446,527.1797,53.2446,531.1797,49.2446,527.1797" style="stroke:#181818;stroke-width:1;"/><line style="stroke:#181818;stroke-width:1;stroke-dasharray:2,2;" x1="47.2446" x2="332.5" y1="527.1797" y2="527.1797"/><text fill="#000000" font-family="sans-serif" font-size="13" lengthAdjust="spacing" textLength="267.2554" x="59.2446" y="522.3232">QUIC_CONNECTION_EVENT_CONNECTED</text></g><!--SRC=[PL6zJiCm4Dxz53Sc4bGg4waK96GYqIM5fdGfg3B9jRKQRCk-1h7n6hmUJy8bIjDMUF3Wx_VEgYJhuTwvMfUAj3N2AK-wr4uP0ccDmR9z1XL0Nc1p_B24JuY-nGeXqXGAOW9yQjh1mOI3SzOJLj2W3wr7cegp9BY-0mcJiv1E7er6e_ZLH7QpOHcicYIvWYQvvMly5WlPoWgMJOqchUg8yLYecg10pq5GMGpcz_k7e2_0uaG0d-AOkEpxvBYrxD56Hwjcp0atdD1I3Oy6NcztD3dwrZfGW7z3XOulZzPHhT-zyb_WTBaFN3a-uHUj6K1JTLjxLAOAExL7u4wcxtIvja4_S3k7OQAJnHo3urOeXaepapLeA9ApFC_a8dlebiZW-LzCuFbbAjSzPphBrzaoonVhGVG7]--></g></svg>