<svg xmlns="http://www.w3.org/2000/svg" xmlns:xlink="http://www.w3.org/1999/xlink" contentStyleType="text/css" data-diagram-type="SEQUENCE" height="655px" preserveAspectRatio="none" style="width:705px;height:655px;background:#FFFFFF;" version="1.1" viewBox="0 0 705 655" width="705px" zoomAndPan="magnify"><defs/><g><rect fill="none" height="128.4063" style="stroke:#000000;stroke-width:1.5;" width="407.2261" x="281.0864" y="249.0156"/><g><title>Application</title><rect fill="#000000" fill-opacity="0.00000" height="490.5703" width="8" x="38.2446" y="82.6094"/><line style="stroke:#181818;stroke-width:0.5;stroke-dasharray:5,5;" x1="42" x2="42" y1="82.6094" y2="573.1797"/></g><g><title>Connection</title><rect fill="#000000" fill-opacity="0.00000" height="490.5703" width="8" x="329.5" y="82.6094"/><line style="stroke:#181818;stroke-width:0.5;stroke-dasharray:5,5;" x1="333.0864" x2="333.0864" y1="82.6094" y2="573.1797"/></g><g><title>RemotePeer</title><rect fill="#000000" fill-opacity="0.00000" height="490.5703" width="8" x="485.0781" y="82.6094"/><line style="stroke:#181818;stroke-width:0.5;stroke-dasharray:5,5;" x1="488.7817" x2="488.7817" y1="82.6094" y2="573.1797"/></g><g class="participant participant-head" data-participant="Application"><text fill="#000000" font-family="sans-serif" font-size="14" lengthAdjust="spacing" textLength="68.4893" x="5" y="79.5332">Application</text><ellipse cx="42.2446" cy="13.5" fill="#E2E2F0" rx="8" ry="8" style="stroke:#181818;stroke-width:0.5;"/><path d="M42.2446,21.5 L42.2446,48.5 M29.2446,29.5 L55.2446,29.5 M42.2446,48.5 L29.2446,63.5 M42.2446,48.5 L55.2446,63.5" fill="none" style="stroke:#181818;stroke-width:0.5;"/></g><g class="participant participant-tail" data-participant="Application"><text fill="#000000" font-family="sans-serif" font-size="14" lengthAdjust="spacing" textLength="68.4893" x="5" y="586.7129">Application</text><ellipse cx="42.2446" cy="598.2891" fill="#E2E2F0" rx="8" ry="8" style="stroke:#181818;stroke-width:0.5;"/><path d="M42.2446,606.2891 L42.2446,633.2891 M29.2446,614.2891 L55.2446,614.2891 M42.2446,633.2891 L29.2446,648.2891 M42.2446,633.2891 L55.2446,648.2891" fill="none" style="stroke:#181818;stroke-width:0.5;"/></g><g class="participant participant-head" data-participant="C"><rect fill="#E2E2F0" height="31.6094" rx="2.5" ry="2.5" style="stroke:#181818;stroke-width:0.5;" width="84.8271" x="291.0864" y="50"/><text fill="#000000" font-family="sans-serif" font-size="14" lengthAdjust="spacing" textLength="70.8271" x="298.0864" y="71.5332">Connection</text></g><g class="participant participant-tail" data-participant="C"><rect fill="#E2E2F0" height="31.6094" rx="2.5" ry="2.5" style="stroke:#181818;stroke-width:0.5;" width="84.8271" x="291.0864" y="572.1797"/><text fill="#000000" font-family="sans-serif" font-size="14" lengthAdjust="spacing" textLength="70.8271" x="298.0864" y="593.7129">Connection</text></g><g class="participant participant-head" data-participant="S"><rect fill="#E2E2F0" height="31.6094" rx="2.5" ry="2.5" style="stroke:#181818;stroke-width:0.5;" width="92.5928" x="442.7817" y="50"/><text fill="#000000" font-family="sans-serif" font-size="14" lengthAdjust="spacing" textLength="78.5928" x="449.7817" y="71.5332">RemotePeer</text></g><g class="participant participant-tail" data-participant="S"><rect fill="#E2E2F0" height="31.6094" rx="2.5" ry="2.5" style="stroke:#181818;stroke-width:0.5;" width="92.5928" x="442.7817" y="572.1797"/><text fill="#000000" font-family="sans-serif" font-size="14" lengthAdjust="spacing" textLength="78.5928" x="449.7817" y="593.7129">RemotePeer</text></g><rect fill="#EEEEEE" height="3" style="stroke:#EEEEEE;stroke-width:1;" width="698.3125" x="0" y="113.7852"/><line style="stroke:#000000;stroke-width:1;" x1="0" x2="698.3125" y1="113.7852" y2="113.7852"/><line style="stroke:#000000;stroke-width:1;" x1="0" x2="698.3125" y1="116.7852" y2="116.7852"/><rect fill="#EEEEEE" height="24.3516" style="stroke:#000000;stroke-width:2;" width="160.6372" x="268.8376" y="102.6094"/><text fill="#000000" font-family="sans-serif" font-size="13" font-weight="bold" lengthAdjust="spacing" textLength="143.0254" x="274.8376" y="120.1045">Client sends first Initial</text><g class="message" data-participant-1="Application" data-participant-2="C"><polygon fill="#181818" points="321.5,155.3125,331.5,159.3125,321.5,163.3125,325.5,159.3125" style="stroke:#181818;stroke-width:1;"/><line style="stroke:#181818;stroke-width:1;" x1="42.2446" x2="327.5" y1="159.3125" y2="159.3125"/><text fill="#000000" font-family="sans-serif" font-size="13" lengthAdjust="spacing" textLength="112.7153" x="49.2446" y="154.4561">ConnectionStart(...)</text></g><g class="message" data-participant-1="C" data-participant-2="S"><polygon fill="#181818" points="477.0781,185.6641,487.0781,189.6641,477.0781,193.6641,481.0781,189.6641" style="stroke:#181818;stroke-width:1;"/><line style="stroke:#181818;stroke-width:1;" x1="333.5" x2="483.0781" y1="189.6641" y2="189.6641"/><text fill="#000000" font-family="sans-serif" font-size="13" lengthAdjust="spacing" textLength="107.3198" x="340.5" y="184.8076">Initial(token=none)</text></g><rect fill="#EEEEEE" height="3" style="stroke:#EEEEEE;stroke-width:1;" width="698.3125" x="0" y="218.8398"/><line style="stroke:#000000;stroke-width:1;" x1="0" x2="698.3125" y1="218.8398" y2="218.8398"/><line style="stroke:#000000;stroke-width:1;" x1="0" x2="698.3125" y1="221.8398" y2="221.8398"/><rect fill="#EEEEEE" height="24.3516" style="stroke:#000000;stroke-width:2;" width="139.0234" x="279.6445" y="207.6641"/><text fill="#000000" font-family="sans-serif" font-size="13" font-weight="bold" lengthAdjust="spacing" textLength="121.4116" x="285.6445" y="225.1592">Server issues Retry</text><path d="M281.0864,249.0156 L341.2573,249.0156 L341.2573,257.3672 L331.2573,267.3672 L281.0864,267.3672 L281.0864,249.0156" fill="#EEEEEE" style="stroke:#000000;stroke-width:1.5;"/><rect fill="none" height="128.4063" style="stroke:#000000;stroke-width:1.5;" width="407.2261" x="281.0864" y="249.0156"/><text fill="#000000" font-family="sans-serif" font-size="13" font-weight="bold" lengthAdjust="spacing" textLength="15.1709" x="296.0864" y="263.5107">alt</text><text fill="#000000" font-family="sans-serif" font-size="11" font-weight="bold" lengthAdjust="spacing" textLength="120.4414" x="356.2573" y="262.4346">[Server demands retry]</text><g class="message" data-participant-1="S" data-participant-2="C"><polygon fill="#181818" points="344.5,288.7188,334.5,292.7188,344.5,296.7188,340.5,292.7188" style="stroke:#181818;stroke-width:1;"/><line style="stroke:#181818;stroke-width:1;" x1="338.5" x2="488.0781" y1="292.7188" y2="292.7188"/><text fill="#000000" font-family="sans-serif" font-size="13" lengthAdjust="spacing" textLength="94.2817" x="350.5" y="287.8623">Retry(token=T1)</text></g><path d="M494,272.3672 L494,298.3672 L673,298.3672 L673,282.3672 L663,272.3672 L494,272.3672" fill="#FEFFDD" style="stroke:#181818;stroke-width:0.5;"/><path d="M663,272.3672 L663,282.3672 L673,282.3672 L663,272.3672" fill="#FEFFDD" style="stroke:#181818;stroke-width:0.5;"/><text fill="#000000" font-family="sans-serif" font-size="13" lengthAdjust="spacing" textLength="158.2344" x="500" y="290.8623">Stateless Retry includes T1</text><g class="message" data-participant-1="C" data-participant-2="C"><line style="stroke:#181818;stroke-width:1;" x1="333.5" x2="375.5" y1="326.0703" y2="326.0703"/><line style="stroke:#181818;stroke-width:1;" x1="375.5" x2="375.5" y1="326.0703" y2="339.0703"/><line style="stroke:#181818;stroke-width:1;" x1="334.5" x2="375.5" y1="339.0703" y2="339.0703"/><polygon fill="#181818" points="344.5,335.0703,334.5,339.0703,344.5,343.0703,340.5,339.0703" style="stroke:#181818;stroke-width:1;"/><text fill="#000000" font-family="sans-serif" font-size="13" lengthAdjust="spacing" textLength="116.3271" x="340.5" y="321.2139">(library appends T1)</text></g><g class="message" data-participant-1="C" data-participant-2="S"><polygon fill="#181818" points="477.0781,365.4219,487.0781,369.4219,477.0781,373.4219,481.0781,369.4219" style="stroke:#181818;stroke-width:1;"/><line style="stroke:#181818;stroke-width:1;" x1="333.5" x2="483.0781" y1="369.4219" y2="369.4219"/><text fill="#000000" font-family="sans-serif" font-size="13" lengthAdjust="spacing" textLength="93.5708" x="340.5" y="364.5654">Initial(token=T1)</text></g><rect fill="#EEEEEE" height="3" style="stroke:#EEEEEE;stroke-width:1;" width="698.3125" x="0" y="405.5977"/><line style="stroke:#000000;stroke-width:1;" x1="0" x2="698.3125" y1="405.5977" y2="405.5977"/><line style="stroke:#000000;stroke-width:1;" x1="0" x2="698.3125" y1="408.5977" y2="408.5977"/><rect fill="#EEEEEE" height="24.3516" style="stroke:#000000;stroke-width:2;" width="148.3862" x="274.9631" y="394.4219"/><text fill="#000000" font-family="sans-serif" font-size="13" font-weight="bold" lengthAdjust="spacing" textLength="130.7744" x="280.9631" y="411.917">Handshake proceeds</text><g class="message" data-participant-1="C" data-participant-2="S"><polygon fill="#181818" points="477.0781,447.125,487.0781,451.125,477.0781,455.125,481.0781,451.125" style="stroke:#181818;stroke-width:1;"/><line style="stroke:#181818;stroke-width:1;" x1="333.5" x2="483.0781" y1="451.125" y2="451.125"/><text fill="#000000" font-family="sans-serif" font-size="13" lengthAdjust="spacing" textLength="65.7681" x="340.5" y="446.2686">Handshake</text></g><g class="message" data-participant-1="S" data-participant-2="C"><polygon fill="#181818" points="344.5,477.4766,334.5,481.4766,344.5,485.4766,340.5,481.4766" style="stroke:#181818;stroke-width:1;"/><line style="stroke:#181818;stroke-width:1;" x1="338.5" x2="488.0781" y1="481.4766" y2="481.4766"/><text fill="#000000" font-family="sans-serif" font-size="13" lengthAdjust="spacing" textLength="127.918" x="350.5" y="476.6201">Handshake Response</text></g><g class="message" data-participant-1="C" data-participant-2="C"><line style="stroke:#181818;stroke-width:1;" x1="333.5" x2="375.5" y1="511.8281" y2="511.8281"/><line style="stroke:#181818;stroke-width:1;" x1="375.5" x2="375.5" y1="511.8281" y2="524.8281"/><line style="stroke:#181818;stroke-width:1;" x1="334.5" x2="375.5" y1="524.8281" y2="524.8281"/><polygon fill="#181818" points="344.5,520.8281,334.5,524.8281,344.5,528.8281,340.5,524.8281" style="stroke:#181818;stroke-width:1;"/><text fill="#000000" font-family="sans-serif" font-size="13" lengthAdjust="spacing" textLength="141.5781" x="340.5" y="506.9717">OnEvent(CONNECTED)</text></g><g class="message" data-participant-1="C" data-participant-2="Application"><polygon fill="#181818" points="53.2446,551.1797,43.2446,555.1797,53.2446,559.1797,49.2446,555.1797" style="stroke:#181818;stroke-width:1;"/><line style="stroke:#181818;stroke-width:1;stroke-dasharray:2,2;" x1="47.2446" x2="332.5" y1="555.1797" y2="555.1797"/><text fill="#000000" font-family="sans-serif" font-size="13" lengthAdjust="spacing" textLength="267.2554" x="59.2446" y="550.3232">QUIC_CONNECTION_EVENT_CONNECTED</text></g><!--SRC=[TP0nJyCm48Lt_ueRqu5ANIC52Pb8T4cX2QoLIQ_Kgdksx6ib_ZrdgmbbmAE_T- -zEpEoZ_0KWhEZOUj91HFPZZOOOj2U2CVy3IQ1_iEsUFQChuWnirwffW7jB0fAIFi41niJmveiM-EWQTHT2ZmyWeRwBg1dyQwMo-L2wKnxeRVPYlq9gI5Fk2WnFSQhnDgKBfYa2CVlx6ySJsYFPvCxnCmKoEkdo2A_MGwhHO4acq2qNqUkGOemEaoJiQNHNVQICwoALaz6bREVqOZ2X50Mdjp-wP-nwCe6BxdTqPmGGlGZeapB0lFWZDLS-tTYYobuIgZc9XjghtBtIc-whjL3-rnkAF3-uZMylQ_rxgPPRxfT-z5smsuU-W40]--></g></svg>