<svg xmlns="http://www.w3.org/2000/svg" xmlns:xlink="http://www.w3.org/1999/xlink" contentStyleType="text/css" data-diagram-type="SEQUENCE" height="1688px" preserveAspectRatio="none" style="width:849px;height:1688px;background:#FFFFFF;" version="1.1" viewBox="0 0 849 1688" width="849px" zoomAndPan="magnify"><defs/><g><rect fill="none" height="124.2422" style="stroke:#000000;stroke-width:1.5;" width="777.6201" x="10" y="1234.1563"/><g><title>Application</title><rect fill="#000000" fill-opacity="0.00000" height="1102.7109" width="8" x="53.2446" y="82.6094"/><line style="stroke:#181818;stroke-width:0.5;stroke-dasharray:5,5;" x1="57" x2="57" y1="82.6094" y2="1185.3203"/></g><line style="stroke:#181818;stroke-width:0.5;stroke-dasharray:1,4;" x1="57" x2="57" y1="1185.3203" y2="1227.1563"/><g><title>Application</title><rect fill="#000000" fill-opacity="0.00000" height="379.7031" width="8" x="53.2446" y="1227.1563"/><line style="stroke:#181818;stroke-width:0.5;stroke-dasharray:5,5;" x1="57" x2="57" y1="1227.1563" y2="1606.8594"/></g><g><title>MsQuic Library</title><rect fill="#000000" fill-opacity="0.00000" height="1102.7109" width="8" x="246.3081" y="82.6094"/><line style="stroke:#181818;stroke-width:0.5;stroke-dasharray:5,5;" x1="250.2427" x2="250.2427" y1="82.6094" y2="1185.3203"/></g><line style="stroke:#181818;stroke-width:0.5;stroke-dasharray:1,4;" x1="250.2427" x2="250.2427" y1="1185.3203" y2="1227.1563"/><g><title>MsQuic Library</title><rect fill="#000000" fill-opacity="0.00000" height="379.7031" width="8" x="246.3081" y="1227.1563"/><line style="stroke:#181818;stroke-width:0.5;stroke-dasharray:5,5;" x1="250.2427" x2="250.2427" y1="1227.1563" y2="1606.8594"/></g><g><title>Registration</title><rect fill="#000000" fill-opacity="0.00000" height="1102.7109" width="8" x="354.7251" y="82.6094"/><line style="stroke:#181818;stroke-width:0.5;stroke-dasharray:5,5;" x1="358.3735" x2="358.3735" y1="82.6094" y2="1185.3203"/></g><line style="stroke:#181818;stroke-width:0.5;stroke-dasharray:1,4;" x1="358.3735" x2="358.3735" y1="1185.3203" y2="1227.1563"/><g><title>Registration</title><rect fill="#000000" fill-opacity="0.00000" height="379.7031" width="8" x="354.7251" y="1227.1563"/><line style="stroke:#181818;stroke-width:0.5;stroke-dasharray:5,5;" x1="358.3735" x2="358.3735" y1="1227.1563" y2="1606.8594"/></g><g><title>Configuration</title><rect fill="#000000" fill-opacity="0.00000" height="1102.7109" width="8" x="457.7144" y="82.6094"/><line style="stroke:#181818;stroke-width:0.5;stroke-dasharray:5,5;" x1="461.0767" x2="461.0767" y1="82.6094" y2="1185.3203"/></g><line style="stroke:#181818;stroke-width:0.5;stroke-dasharray:1,4;" x1="461.0767" x2="461.0767" y1="1185.3203" y2="1227.1563"/><g><title>Configuration</title><rect fill="#000000" fill-opacity="0.00000" height="379.7031" width="8" x="457.7144" y="1227.1563"/><line style="stroke:#181818;stroke-width:0.5;stroke-dasharray:5,5;" x1="461.0767" x2="461.0767" y1="1227.1563" y2="1606.8594"/></g><g><title>Connection</title><rect fill="#000000" fill-opacity="0.00000" height="1102.7109" width="8" x="558.7656" y="82.6094"/><line style="stroke:#181818;stroke-width:0.5;stroke-dasharray:5,5;" x1="562.3521" x2="562.3521" y1="82.6094" y2="1185.3203"/></g><line style="stroke:#181818;stroke-width:0.5;stroke-dasharray:1,4;" x1="562.3521" x2="562.3521" y1="1185.3203" y2="1227.1563"/><g><title>Connection</title><rect fill="#000000" fill-opacity="0.00000" height="379.7031" width="8" x="558.7656" y="1227.1563"/><line style="stroke:#181818;stroke-width:0.5;stroke-dasharray:5,5;" x1="562.3521" x2="562.3521" y1="1227.1563" y2="1606.8594"/></g><g><title>RemotePeer</title><rect fill="#000000" fill-opacity="0.00000" height="1102.7109" width="8" x="787.2974" y="82.6094"/><line style="stroke:#181818;stroke-width:0.5;stroke-dasharray:5,5;" x1="791.001" x2="791.001" y1="82.6094" y2="1185.3203"/></g><line style="stroke:#181818;stroke-width:0.5;stroke-dasharray:1,4;" x1="791.001" x2="791.001" y1="1185.3203" y2="1227.1563"/><g><title>RemotePeer</title><rect fill="#000000" fill-opacity="0.00000" height="379.7031" width="8" x="787.2974" y="1227.1563"/><line style="stroke:#181818;stroke-width:0.5;stroke-dasharray:5,5;" x1="791.001" x2="791.001" y1="1227.1563" y2="1606.8594"/></g><g class="participant participant-head" data-participant="Application"><text fill="#000000" font-family="sans-serif" font-size="14" lengthAdjust="spacing" textLength="68.4893" x="20" y="79.5332">Application</text><ellipse cx="57.2446" cy="13.5" fill="#E2E2F0" rx="8" ry="8" style="stroke:#181818;stroke-width:0.5;"/><path d="M57.2446,21.5 L57.2446,48.5 M44.2446,29.5 L70.2446,29.5 M57.2446,48.5 L44.2446,63.5 M57.2446,48.5 L70.2446,63.5" fill="none" style="stroke:#181818;stroke-width:0.5;"/></g><g class="participant participant-tail" data-participant="Application"><text fill="#000000" font-family="sans-serif" font-size="14" lengthAdjust="spacing" textLength="68.4893" x="20" y="1620.3926">Application</text><ellipse cx="57.2446" cy="1631.9688" fill="#E2E2F0" rx="8" ry="8" style="stroke:#181818;stroke-width:0.5;"/><path d="M57.2446,1639.9688 L57.2446,1666.9688 M44.2446,1647.9688 L70.2446,1647.9688 M57.2446,1666.9688 L44.2446,1681.9688 M57.2446,1666.9688 L70.2446,1681.9688" fill="none" style="stroke:#181818;stroke-width:0.5;"/></g><g class="participant participant-head" data-participant="MSQ"><rect fill="#E2E2F0" height="31.6094" rx="2.5" ry="2.5" style="stroke:#181818;stroke-width:0.5;" width="108.1309" x="196.2427" y="50"/><text fill="#000000" font-family="sans-serif" font-size="14" lengthAdjust="spacing" textLength="94.1309" x="203.2427" y="71.5332">MsQuic Library</text></g><g class="participant participant-tail" data-participant="MSQ"><rect fill="#E2E2F0" height="31.6094" rx="2.5" ry="2.5" style="stroke:#181818;stroke-width:0.5;" width="108.1309" x="196.2427" y="1605.8594"/><text fill="#000000" font-family="sans-serif" font-size="14" lengthAdjust="spacing" textLength="94.1309" x="203.2427" y="1627.3926">MsQuic Library</text></g><g class="participant participant-head" data-participant="Registration"><rect fill="#E2E2F0" height="31.6094" rx="2.5" ry="2.5" style="stroke:#181818;stroke-width:0.5;" width="88.7031" x="314.3735" y="50"/><text fill="#000000" font-family="sans-serif" font-size="14" lengthAdjust="spacing" textLength="74.7031" x="321.3735" y="71.5332">Registration</text></g><g class="participant participant-tail" data-participant="Registration"><rect fill="#E2E2F0" height="31.6094" rx="2.5" ry="2.5" style="stroke:#181818;stroke-width:0.5;" width="88.7031" x="314.3735" y="1605.8594"/><text fill="#000000" font-family="sans-serif" font-size="14" lengthAdjust="spacing" textLength="74.7031" x="321.3735" y="1627.3926">Registration</text></g><g class="participant participant-head" data-participant="Configuration"><rect fill="#E2E2F0" height="31.6094" rx="2.5" ry="2.5" style="stroke:#181818;stroke-width:0.5;" width="97.2754" x="413.0767" y="50"/><text fill="#000000" font-family="sans-serif" font-size="14" lengthAdjust="spacing" textLength="83.2754" x="420.0767" y="71.5332">Configuration</text></g><g class="participant participant-tail" data-participant="Configuration"><rect fill="#E2E2F0" height="31.6094" rx="2.5" ry="2.5" style="stroke:#181818;stroke-width:0.5;" width="97.2754" x="413.0767" y="1605.8594"/><text fill="#000000" font-family="sans-serif" font-size="14" lengthAdjust="spacing" textLength="83.2754" x="420.0767" y="1627.3926">Configuration</text></g><g class="participant participant-head" data-participant="Connection"><rect fill="#E2E2F0" height="31.6094" rx="2.5" ry="2.5" style="stroke:#181818;stroke-width:0.5;" width="84.8271" x="520.3521" y="50"/><text fill="#000000" font-family="sans-serif" font-size="14" lengthAdjust="spacing" textLength="70.8271" x="527.3521" y="71.5332">Connection</text></g><g class="participant participant-tail" data-participant="Connection"><rect fill="#E2E2F0" height="31.6094" rx="2.5" ry="2.5" style="stroke:#181818;stroke-width:0.5;" width="84.8271" x="520.3521" y="1605.8594"/><text fill="#000000" font-family="sans-serif" font-size="14" lengthAdjust="spacing" textLength="70.8271" x="527.3521" y="1627.3926">Connection</text></g><g class="participant participant-head" data-participant="RemotePeer"><rect fill="#E2E2F0" height="31.6094" rx="2.5" ry="2.5" style="stroke:#181818;stroke-width:0.5;" width="92.5928" x="745.001" y="50"/><text fill="#000000" font-family="sans-serif" font-size="14" lengthAdjust="spacing" textLength="78.5928" x="752.001" y="71.5332">RemotePeer</text></g><g class="participant participant-tail" data-participant="RemotePeer"><rect fill="#E2E2F0" height="31.6094" rx="2.5" ry="2.5" style="stroke:#181818;stroke-width:0.5;" width="92.5928" x="745.001" y="1605.8594"/><text fill="#000000" font-family="sans-serif" font-size="14" lengthAdjust="spacing" textLength="78.5928" x="752.001" y="1627.3926">RemotePeer</text></g><rect fill="#EEEEEE" height="3" style="stroke:#EEEEEE;stroke-width:1;" width="842.5938" x="0" y="113.7852"/><line style="stroke:#000000;stroke-width:1;" x1="0" x2="842.5938" y1="113.7852" y2="113.7852"/><line style="stroke:#000000;stroke-width:1;" x1="0" x2="842.5938" y1="116.7852" y2="116.7852"/><rect fill="#EEEEEE" height="24.3516" style="stroke:#000000;stroke-width:2;" width="131.0381" x="355.7778" y="102.6094"/><text fill="#000000" font-family="sans-serif" font-size="13" font-weight="bold" lengthAdjust="spacing" textLength="113.4263" x="361.7778" y="120.1045">1. Initialize Library</text><g class="message" data-participant-1="Application" data-participant-2="MSQ"><polygon fill="#181818" points="238.3081,171.6641,248.3081,175.6641,238.3081,179.6641,242.3081,175.6641" style="stroke:#181818;stroke-width:1;"/><line style="stroke:#181818;stroke-width:1;" x1="57.2446" x2="244.3081" y1="175.6641" y2="175.6641"/><text fill="#000000" font-family="sans-serif" font-size="13" lengthAdjust="spacing" textLength="169.0635" x="64.2446" y="154.4561">MsQuicOpen2(ClientVersion)</text><text fill="#000000" font-family="sans-serif" font-size="13" lengthAdjust="spacing" textLength="104.5776" x="64.2446" y="170.8076">&#226;&#8224;&#8217; QUIC_TABLE*</text></g><path d="M255,188.6641 L255,214.6641 L419,214.6641 L419,198.6641 L409,188.6641 L255,188.6641" fill="#FEFFDD" style="stroke:#181818;stroke-width:0.5;"/><path d="M409,188.6641 L409,198.6641 L419,198.6641 L409,188.6641" fill="#FEFFDD" style="stroke:#181818;stroke-width:0.5;"/><text fill="#000000" font-family="sans-serif" font-size="13" lengthAdjust="spacing" textLength="143.749" x="261" y="207.1592">Error if version mismatch</text><rect fill="#EEEEEE" height="3" style="stroke:#EEEEEE;stroke-width:1;" width="842.5938" x="0" y="241.1914"/><line style="stroke:#000000;stroke-width:1;" x1="0" x2="842.5938" y1="241.1914" y2="241.1914"/><line style="stroke:#000000;stroke-width:1;" x1="0" x2="842.5938" y1="244.1914" y2="244.1914"/><rect fill="#EEEEEE" height="24.3516" style="stroke:#000000;stroke-width:2;" width="151.9854" x="345.3042" y="230.0156"/><text fill="#000000" font-family="sans-serif" font-size="13" font-weight="bold" lengthAdjust="spacing" textLength="134.3735" x="351.3042" y="247.5107">2. Create Registration</text><g class="message" data-participant-1="Application" data-participant-2="Registration"><polygon fill="#181818" points="346.7251,331.7734,356.7251,335.7734,346.7251,339.7734,350.7251,335.7734" style="stroke:#181818;stroke-width:1;"/><line style="stroke:#181818;stroke-width:1;" x1="57.2446" x2="352.7251" y1="335.7734" y2="335.7734"/><text fill="#000000" font-family="sans-serif" font-size="13" lengthAdjust="spacing" textLength="105.498" x="64.2446" y="281.8623">RegistrationOpen(</text><text fill="#000000" font-family="sans-serif" font-size="13" lengthAdjust="spacing" textLength="171.9897" x="67.8564" y="298.2139">RegConfig{AppName,Profile},</text><text fill="#000000" font-family="sans-serif" font-size="13" lengthAdjust="spacing" textLength="49.1309" x="67.8564" y="314.5654">Context)</text><text fill="#000000" font-family="sans-serif" font-size="13" lengthAdjust="spacing" textLength="133.4722" x="64.2446" y="330.917">&#226;&#8224;&#8217; HQUIC Registration</text></g><path d="M363,348.7734 L363,374.7734 L501,374.7734 L501,358.7734 L491,348.7734 L363,348.7734" fill="#FEFFDD" style="stroke:#181818;stroke-width:0.5;"/><path d="M491,348.7734 L491,358.7734 L501,358.7734 L491,348.7734" fill="#FEFFDD" style="stroke:#181818;stroke-width:0.5;"/><text fill="#000000" font-family="sans-serif" font-size="13" lengthAdjust="spacing" textLength="117.7681" x="369" y="367.2686">Error if invalid config</text><rect fill="#EEEEEE" height="3" style="stroke:#EEEEEE;stroke-width:1;" width="842.5938" x="0" y="401.3008"/><line style="stroke:#000000;stroke-width:1;" x1="0" x2="842.5938" y1="401.3008" y2="401.3008"/><line style="stroke:#000000;stroke-width:1;" x1="0" x2="842.5938" y1="404.3008" y2="404.3008"/><rect fill="#EEEEEE" height="24.3516" style="stroke:#000000;stroke-width:2;" width="161.3481" x="340.6228" y="390.125"/><text fill="#000000" font-family="sans-serif" font-size="13" font-weight="bold" lengthAdjust="spacing" textLength="143.7363" x="346.6228" y="407.6201">3. Create Configuration</text><g class="message" data-participant-1="Application" data-participant-2="Configuration"><polygon fill="#181818" points="449.7144,524.5859,459.7144,528.5859,449.7144,532.5859,453.7144,528.5859" style="stroke:#181818;stroke-width:1;"/><line style="stroke:#181818;stroke-width:1;" x1="57.2446" x2="455.7144" y1="528.5859" y2="528.5859"/><text fill="#000000" font-family="sans-serif" font-size="13" lengthAdjust="spacing" textLength="113.458" x="64.2446" y="441.9717">ConfigurationOpen(</text><text fill="#000000" font-family="sans-serif" font-size="13" lengthAdjust="spacing" textLength="72.979" x="67.8564" y="458.3232">Registration,</text><text fill="#000000" font-family="sans-serif" font-size="13" lengthAdjust="spacing" textLength="70.8145" x="67.8564" y="474.6748">AlpnBuffers,</text><text fill="#000000" font-family="sans-serif" font-size="13" lengthAdjust="spacing" textLength="50.5845" x="67.8564" y="491.0264">Settings,</text><text fill="#000000" font-family="sans-serif" font-size="13" lengthAdjust="spacing" textLength="49.1309" x="67.8564" y="507.3779">Context)</text><text fill="#000000" font-family="sans-serif" font-size="13" lengthAdjust="spacing" textLength="141.4321" x="64.2446" y="523.7295">&#226;&#8224;&#8217; HQUIC Configuration</text></g><path d="M466,541.5859 L466,567.5859 L654,567.5859 L654,551.5859 L644,541.5859 L466,541.5859" fill="#FEFFDD" style="stroke:#181818;stroke-width:0.5;"/><path d="M644,541.5859 L644,551.5859 L654,551.5859 L644,541.5859" fill="#FEFFDD" style="stroke:#181818;stroke-width:0.5;"/><text fill="#000000" font-family="sans-serif" font-size="13" lengthAdjust="spacing" textLength="167.6099" x="472" y="560.0811">Must set TLS credentials first</text><rect fill="#EEEEEE" height="3" style="stroke:#EEEEEE;stroke-width:1;" width="842.5938" x="0" y="594.1133"/><line style="stroke:#000000;stroke-width:1;" x1="0" x2="842.5938" y1="594.1133" y2="594.1133"/><line style="stroke:#000000;stroke-width:1;" x1="0" x2="842.5938" y1="597.1133" y2="597.1133"/><rect fill="#EEEEEE" height="24.3516" style="stroke:#000000;stroke-width:2;" width="157.7427" x="342.4255" y="582.9375"/><text fill="#000000" font-family="sans-serif" font-size="13" font-weight="bold" lengthAdjust="spacing" textLength="140.1309" x="348.4255" y="600.4326">4. Allocate Connection</text><g class="message" data-participant-1="Application" data-participant-2="Connection"><polygon fill="#181818" points="550.7656,701.0469,560.7656,705.0469,550.7656,709.0469,554.7656,705.0469" style="stroke:#181818;stroke-width:1;"/><line style="stroke:#181818;stroke-width:1;" x1="57.2446" x2="556.7656" y1="705.0469" y2="705.0469"/><text fill="#000000" font-family="sans-serif" font-size="13" lengthAdjust="spacing" textLength="101.8989" x="64.2446" y="634.7842">ConnectionOpen(</text><text fill="#000000" font-family="sans-serif" font-size="13" lengthAdjust="spacing" textLength="72.979" x="67.8564" y="651.1357">Registration,</text><text fill="#000000" font-family="sans-serif" font-size="13" lengthAdjust="spacing" textLength="49.1372" x="67.8564" y="667.4873">Handler,</text><text fill="#000000" font-family="sans-serif" font-size="13" lengthAdjust="spacing" textLength="49.1309" x="67.8564" y="683.8389">Context)</text><text fill="#000000" font-family="sans-serif" font-size="13" lengthAdjust="spacing" textLength="129.873" x="64.2446" y="700.1904">&#226;&#8224;&#8217; HQUIC Connection</text></g><path d="M567,718.0469 L567,744.0469 L713,744.0469 L713,728.0469 L703,718.0469 L567,718.0469" fill="#FEFFDD" style="stroke:#181818;stroke-width:0.5;"/><path d="M703,718.0469 L703,728.0469 L713,728.0469 L703,718.0469" fill="#FEFFDD" style="stroke:#181818;stroke-width:0.5;"/><text fill="#000000" font-family="sans-serif" font-size="13" lengthAdjust="spacing" textLength="125.6963" x="573" y="736.542">Error if out of memory</text><rect fill="#EEEEEE" height="3" style="stroke:#EEEEEE;stroke-width:1;" width="842.5938" x="0" y="770.5742"/><line style="stroke:#000000;stroke-width:1;" x1="0" x2="842.5938" y1="770.5742" y2="770.5742"/><line style="stroke:#000000;stroke-width:1;" x1="0" x2="842.5938" y1="773.5742" y2="773.5742"/><rect fill="#EEEEEE" height="24.3516" style="stroke:#000000;stroke-width:2;" width="141.8799" x="350.3569" y="759.3984"/><text fill="#000000" font-family="sans-serif" font-size="13" font-weight="bold" lengthAdjust="spacing" textLength="124.2681" x="356.3569" y="776.8936">5. Start / Handshake</text><g class="message" data-participant-1="Application" data-participant-2="Connection"><polygon fill="#181818" points="550.7656,861.1563,560.7656,865.1563,550.7656,869.1563,554.7656,865.1563" style="stroke:#181818;stroke-width:1;"/><line style="stroke:#181818;stroke-width:1;" x1="57.2446" x2="556.7656" y1="865.1563" y2="865.1563"/><text fill="#000000" font-family="sans-serif" font-size="13" lengthAdjust="spacing" textLength="97.5508" x="64.2446" y="811.2451">ConnectionStart(</text><text fill="#000000" font-family="sans-serif" font-size="13" lengthAdjust="spacing" textLength="69.3799" x="67.8564" y="827.5967">Connection,</text><text fill="#000000" font-family="sans-serif" font-size="13" lengthAdjust="spacing" textLength="81.6309" x="67.8564" y="843.9482">AF_UNSPEC,</text><text fill="#000000" font-family="sans-serif" font-size="13" lengthAdjust="spacing" textLength="104.749" x="67.8564" y="860.2998">ServerName,Port)</text></g><path d="M487,878.1563 L487,920.1563 L637,920.1563 L637,888.1563 L627,878.1563 L487,878.1563" fill="#FEFFDD" style="stroke:#181818;stroke-width:0.5;"/><path d="M627,878.1563 L627,888.1563 L637,888.1563 L627,878.1563" fill="#FEFFDD" style="stroke:#181818;stroke-width:0.5;"/><text fill="#000000" font-family="sans-serif" font-size="13" lengthAdjust="spacing" textLength="102.6099" x="493" y="896.6514">Client: send Initial</text><text fill="#000000" font-family="sans-serif" font-size="13" lengthAdjust="spacing" textLength="129.3271" x="493" y="913.0029">Server: wait for packet</text><g class="message" data-participant-1="Connection" data-participant-2="RemotePeer"><polygon fill="#181818" points="779.2974,944.2109,789.2974,948.2109,779.2974,952.2109,783.2974,948.2109" style="stroke:#181818;stroke-width:1;"/><line style="stroke:#181818;stroke-width:1;" x1="562.7656" x2="785.2974" y1="948.2109" y2="948.2109"/><text fill="#000000" font-family="sans-serif" font-size="13" lengthAdjust="spacing" textLength="143.0635" x="569.7656" y="943.3545">QUIC Initial / Handshake</text></g><g class="message" data-participant-1="RemotePeer" data-participant-2="Connection"><polygon fill="#181818" points="573.7656,974.5625,563.7656,978.5625,573.7656,982.5625,569.7656,978.5625" style="stroke:#181818;stroke-width:1;"/><line style="stroke:#181818;stroke-width:1;" x1="567.7656" x2="790.2974" y1="978.5625" y2="978.5625"/><text fill="#000000" font-family="sans-serif" font-size="13" lengthAdjust="spacing" textLength="127.918" x="579.7656" y="973.7061">Handshake Response</text></g><path d="M567,991.5625 L567,1017.5625 L742,1017.5625 L742,1001.5625 L732,991.5625 L567,991.5625" fill="#FEFFDD" style="stroke:#181818;stroke-width:0.5;"/><path d="M732,991.5625 L732,1001.5625 L742,1001.5625 L732,991.5625" fill="#FEFFDD" style="stroke:#181818;stroke-width:0.5;"/><text fill="#000000" font-family="sans-serif" font-size="13" lengthAdjust="spacing" textLength="154.4575" x="573" y="1010.0576">Error &#226;&#8224;&#8217; ShutdownInitiated</text><rect fill="#EEEEEE" height="3" style="stroke:#EEEEEE;stroke-width:1;" width="842.5938" x="0" y="1044.0898"/><line style="stroke:#000000;stroke-width:1;" x1="0" x2="842.5938" y1="1044.0898" y2="1044.0898"/><line style="stroke:#000000;stroke-width:1;" x1="0" x2="842.5938" y1="1047.0898" y2="1047.0898"/><rect fill="#EEEEEE" height="24.3516" style="stroke:#000000;stroke-width:2;" width="138.249" x="352.1724" y="1032.9141"/><text fill="#000000" font-family="sans-serif" font-size="13" font-weight="bold" lengthAdjust="spacing" textLength="120.6372" x="358.1724" y="1050.4092">6. Connected Event</text><g class="message" data-participant-1="Connection" data-participant-2="Connection"><line style="stroke:#181818;stroke-width:1;" x1="562.7656" x2="604.7656" y1="1089.6172" y2="1089.6172"/><line style="stroke:#181818;stroke-width:1;" x1="604.7656" x2="604.7656" y1="1089.6172" y2="1102.6172"/><line style="stroke:#181818;stroke-width:1;" x1="563.7656" x2="604.7656" y1="1102.6172" y2="1102.6172"/><polygon fill="#181818" points="573.7656,1098.6172,563.7656,1102.6172,573.7656,1106.6172,569.7656,1102.6172" style="stroke:#181818;stroke-width:1;"/><text fill="#000000" font-family="sans-serif" font-size="13" lengthAdjust="spacing" textLength="141.5781" x="569.7656" y="1084.7607">OnEvent(CONNECTED)</text></g><g class="message" data-participant-1="Connection" data-participant-2="Application"><polygon fill="#181818" points="68.2446,1128.9688,58.2446,1132.9688,68.2446,1136.9688,64.2446,1132.9688" style="stroke:#181818;stroke-width:1;"/><line style="stroke:#181818;stroke-width:1;stroke-dasharray:2,2;" x1="62.2446" x2="561.7656" y1="1132.9688" y2="1132.9688"/><text fill="#000000" font-family="sans-serif" font-size="13" lengthAdjust="spacing" textLength="267.2554" x="74.2446" y="1128.1123">QUIC_CONNECTION_EVENT_CONNECTED</text></g><rect fill="#EEEEEE" height="3" style="stroke:#EEEEEE;stroke-width:1;" width="842.5938" x="0" y="1162.1445"/><line style="stroke:#000000;stroke-width:1;" x1="0" x2="842.5938" y1="1162.1445" y2="1162.1445"/><line style="stroke:#000000;stroke-width:1;" x1="0" x2="842.5938" y1="1165.1445" y2="1165.1445"/><rect fill="#EEEEEE" height="24.3516" style="stroke:#000000;stroke-width:2;" width="174.3926" x="334.1006" y="1150.9688"/><text fill="#000000" font-family="sans-serif" font-size="13" font-weight="bold" lengthAdjust="spacing" textLength="156.7808" x="340.1006" y="1168.4639">Data Exchange (Streams)</text><text fill="#000000" font-family="sans-serif" font-size="11" lengthAdjust="spacing" textLength="43.3984" x="402.5718" y="1210.7393">(omitted)</text><path d="M10,1234.1563 L70.1709,1234.1563 L70.1709,1242.5078 L60.1709,1252.5078 L10,1252.5078 L10,1234.1563" fill="#EEEEEE" style="stroke:#000000;stroke-width:1.5;"/><rect fill="none" height="124.2422" style="stroke:#000000;stroke-width:1.5;" width="777.6201" x="10" y="1234.1563"/><text fill="#000000" font-family="sans-serif" font-size="13" font-weight="bold" lengthAdjust="spacing" textLength="15.1709" x="25" y="1248.6514">alt</text><text fill="#000000" font-family="sans-serif" font-size="11" font-weight="bold" lengthAdjust="spacing" textLength="84.9653" x="85.1709" y="1247.5752">[Graceful Close]</text><g class="message" data-participant-1="Application" data-participant-2="Connection"><polygon fill="#181818" points="550.7656,1270.8594,560.7656,1274.8594,550.7656,1278.8594,554.7656,1274.8594" style="stroke:#181818;stroke-width:1;"/><line style="stroke:#181818;stroke-width:1;" x1="57.2446" x2="556.7656" y1="1274.8594" y2="1274.8594"/><text fill="#000000" font-family="sans-serif" font-size="13" lengthAdjust="spacing" textLength="268.0869" x="64.2446" y="1270.0029">ConnectionShutdown(Connection, SUCCESS)</text></g><line style="stroke:#000000;stroke-width:1;stroke-dasharray:2,2;" x1="10" x2="787.6201" y1="1283.8594" y2="1283.8594"/><text fill="#000000" font-family="sans-serif" font-size="11" font-weight="bold" lengthAdjust="spacing" textLength="66.6069" x="15" y="1295.2783">[Abort/Error]</text><g class="message" data-participant-1="Connection" data-participant-2="Connection"><line style="stroke:#181818;stroke-width:1;" x1="562.7656" x2="604.7656" y1="1337.3984" y2="1337.3984"/><line style="stroke:#181818;stroke-width:1;" x1="604.7656" x2="604.7656" y1="1337.3984" y2="1350.3984"/><line style="stroke:#181818;stroke-width:1;" x1="563.7656" x2="604.7656" y1="1350.3984" y2="1350.3984"/><polygon fill="#181818" points="573.7656,1346.3984,563.7656,1350.3984,573.7656,1354.3984,569.7656,1350.3984" style="stroke:#181818;stroke-width:1;"/><text fill="#000000" font-family="sans-serif" font-size="13" lengthAdjust="spacing" textLength="205.8545" x="569.7656" y="1316.1904">OnEvent(SHUTDOWN_INITIATED)</text><text fill="#000000" font-family="sans-serif" font-size="13" lengthAdjust="spacing" textLength="67.9072" x="569.7656" y="1332.542">(error code)</text></g><g class="message" data-participant-1="Connection" data-participant-2="RemotePeer"><polygon fill="#181818" points="779.2974,1383.75,789.2974,1387.75,779.2974,1391.75,783.2974,1387.75" style="stroke:#181818;stroke-width:1;"/><line style="stroke:#181818;stroke-width:1;" x1="562.7656" x2="785.2974" y1="1387.75" y2="1387.75"/><text fill="#000000" font-family="sans-serif" font-size="13" lengthAdjust="spacing" textLength="66.4663" x="569.7656" y="1382.8936">CloseNotify</text></g><g class="message" data-participant-1="Connection" data-participant-2="Connection"><line style="stroke:#181818;stroke-width:1;" x1="562.7656" x2="604.7656" y1="1418.1016" y2="1418.1016"/><line style="stroke:#181818;stroke-width:1;" x1="604.7656" x2="604.7656" y1="1418.1016" y2="1431.1016"/><line style="stroke:#181818;stroke-width:1;" x1="563.7656" x2="604.7656" y1="1431.1016" y2="1431.1016"/><polygon fill="#181818" points="573.7656,1427.1016,563.7656,1431.1016,573.7656,1435.1016,569.7656,1431.1016" style="stroke:#181818;stroke-width:1;"/><text fill="#000000" font-family="sans-serif" font-size="13" lengthAdjust="spacing" textLength="214.5317" x="569.7656" y="1413.2451">OnEvent(SHUTDOWN_COMPLETE)</text></g><g class="message" data-participant-1="Connection" data-participant-2="Application"><polygon fill="#181818" points="68.2446,1457.4531,58.2446,1461.4531,68.2446,1465.4531,64.2446,1461.4531" style="stroke:#181818;stroke-width:1;"/><line style="stroke:#181818;stroke-width:1;stroke-dasharray:2,2;" x1="62.2446" x2="561.7656" y1="1461.4531" y2="1461.4531"/><text fill="#000000" font-family="sans-serif" font-size="13" lengthAdjust="spacing" textLength="340.209" x="74.2446" y="1456.5967">QUIC_CONNECTION_EVENT_SHUTDOWN_COMPLETE</text></g><rect fill="#EEEEEE" height="3" style="stroke:#EEEEEE;stroke-width:1;" width="842.5938" x="0" y="1490.6289"/><line style="stroke:#000000;stroke-width:1;" x1="0" x2="842.5938" y1="1490.6289" y2="1490.6289"/><line style="stroke:#000000;stroke-width:1;" x1="0" x2="842.5938" y1="1493.6289" y2="1493.6289"/><rect fill="#EEEEEE" height="24.3516" style="stroke:#000000;stroke-width:2;" width="114.4199" x="364.0869" y="1479.4531"/><text fill="#000000" font-family="sans-serif" font-size="13" font-weight="bold" lengthAdjust="spacing" textLength="96.8081" x="370.0869" y="1496.9482">8. Close Handle</text><g class="message" data-participant-1="Application" data-participant-2="Connection"><polygon fill="#181818" points="550.7656,1532.1563,560.7656,1536.1563,550.7656,1540.1563,554.7656,1536.1563" style="stroke:#181818;stroke-width:1;"/><line style="stroke:#181818;stroke-width:1;" x1="57.2446" x2="556.7656" y1="1536.1563" y2="1536.1563"/><text fill="#000000" font-family="sans-serif" font-size="13" lengthAdjust="spacing" textLength="173.4307" x="64.2446" y="1531.2998">ConnectionClose(Connection)</text></g><path d="M567,1549.1563 L567,1591.1563 L702,1591.1563 L702,1559.1563 L692,1549.1563 L567,1549.1563" fill="#FEFFDD" style="stroke:#181818;stroke-width:0.5;"/><path d="M692,1549.1563 L692,1559.1563 L702,1559.1563 L692,1549.1563" fill="#FEFFDD" style="stroke:#181818;stroke-width:0.5;"/><text fill="#000000" font-family="sans-serif" font-size="13" lengthAdjust="spacing" textLength="93.9199" x="573" y="1567.6514">Frees resources</text><text fill="#000000" font-family="sans-serif" font-size="13" lengthAdjust="spacing" textLength="114.8799" x="573" y="1584.0029">No further callbacks</text><!--SRC=[dLFRRjf047ttLupo15NggEb55HALYECqI6183EaB4jhOOrZ5xABTTIwjAkKt-bRrL_ed-PAErrni82NjlktEpiovpB38I0Mj-Jpb4JDS2cVEbE4HdpDXuA2hBp8UGOTVAwOU3e1fw8ONbJ-NEE7QgEraJug4JxBT4O7HrlCbpgJ1Fg9od6OJthZG5jnmblAlk8G0pQPJGWklF-M0O7aQK23kpL4SrxoKep1Ng3HzhO_4xrzFZp-V7d_0nR3jZGUjaux_oX7K4nIVJ0t8f5ACglbAaJmyWTkY2CoudZ4JJIt2OnSyXOpoooBiW5WEDogt76Xj9FAtGgzlb1gm6HxsbKnuYjyFAKeXW_UcJE4yvr0Llyga0gd4X8jRKZI6oBQpFDwkU5Gysq6a4czKhoKggyOv-5Ow5oTPaf22-JL4OxYOwB_ogivEbTW6Xcwc3MWqCEY442cCoNAQ6Gq9LzfOVkzS0f7AQC5mCNkxwIs3kVlhwtFSpfc8KrJxk2odVOl8kblP8fdP-8psGJrO1kzT20sj2XpPbdhARl1VyDlaMe5oyMIjEHiFWx3lUuKnYgQyc3sfJBr0A-bj0sc1jbYk1aalukMYZaHHf05tZ1j8YCwSHJT8DfHAs8LOhdfHp0grA5Bcw9G-RlAZjBKMbwZdKcXyaSGhWy9fPc9v9uhE1cChzWTtcOSn-BV4CfUwIc2pS4_OZpMl5mI-D_1FwvK4oYXRjM0yNlnkzuAnV-K7W_4gtG8vPOQ1VnzDcPWWr493IphJzHoDwxfGapDk26CTwEOuB3NmMR48aombToI9aMDxTaGgyx4GebQQ3mY7dkU7OTt1L2EqhcaeZgo0jkvpUgor2C-7WzFUbs3S3jg3TYiNPIHgQ2s8P8nKMCJx9iCI2QJXoSCBBLYrzNhTViSV-FzdnLOPQyb7jq2qsFnzErXPGfjOKhY-PrZF5A86XLfcAa8z4e6495DcIjf4B4slQRNq7m00]--></g></svg>