<svg xmlns="http://www.w3.org/2000/svg" xmlns:xlink="http://www.w3.org/1999/xlink" contentStyleType="text/css" data-diagram-type="SEQUENCE" height="609px" preserveAspectRatio="none" style="width:768px;height:609px;background:#FFFFFF;" version="1.1" viewBox="0 0 768 609" width="768px" zoomAndPan="magnify"><defs/><g><g><title>Application</title><rect fill="#000000" fill-opacity="0.00000" height="445.2188" width="8" x="38.2446" y="82.6094"/><line style="stroke:#181818;stroke-width:0.5;stroke-dasharray:5,5;" x1="42" x2="42" y1="82.6094" y2="527.8281"/></g><g><title>Connection</title><rect fill="#000000" fill-opacity="0.00000" height="445.2188" width="8" x="424.8799" y="82.6094"/><line style="stroke:#181818;stroke-width:0.5;stroke-dasharray:5,5;" x1="428.4663" x2="428.4663" y1="82.6094" y2="527.8281"/></g><g><title>RemotePeer</title><rect fill="#000000" fill-opacity="0.00000" height="445.2188" width="8" x="675.8379" y="82.6094"/><line style="stroke:#181818;stroke-width:0.5;stroke-dasharray:5,5;" x1="679.5415" x2="679.5415" y1="82.6094" y2="527.8281"/></g><g class="participant participant-head" data-participant="Application"><text fill="#000000" font-family="sans-serif" font-size="14" lengthAdjust="spacing" textLength="68.4893" x="5" y="79.5332">Application</text><ellipse cx="42.2446" cy="13.5" fill="#E2E2F0" rx="8" ry="8" style="stroke:#181818;stroke-width:0.5;"/><path d="M42.2446,21.5 L42.2446,48.5 M29.2446,29.5 L55.2446,29.5 M42.2446,48.5 L29.2446,63.5 M42.2446,48.5 L55.2446,63.5" fill="none" style="stroke:#181818;stroke-width:0.5;"/></g><g class="participant participant-tail" data-participant="Application"><text fill="#000000" font-family="sans-serif" font-size="14" lengthAdjust="spacing" textLength="68.4893" x="5" y="541.3613">Application</text><ellipse cx="42.2446" cy="552.9375" fill="#E2E2F0" rx="8" ry="8" style="stroke:#181818;stroke-width:0.5;"/><path d="M42.2446,560.9375 L42.2446,587.9375 M29.2446,568.9375 L55.2446,568.9375 M42.2446,587.9375 L29.2446,602.9375 M42.2446,587.9375 L55.2446,602.9375" fill="none" style="stroke:#181818;stroke-width:0.5;"/></g><g class="participant participant-head" data-participant="C"><rect fill="#E2E2F0" height="31.6094" rx="2.5" ry="2.5" style="stroke:#181818;stroke-width:0.5;" width="84.8271" x="386.4663" y="50"/><text fill="#000000" font-family="sans-serif" font-size="14" lengthAdjust="spacing" textLength="70.8271" x="393.4663" y="71.5332">Connection</text></g><g class="participant participant-tail" data-participant="C"><rect fill="#E2E2F0" height="31.6094" rx="2.5" ry="2.5" style="stroke:#181818;stroke-width:0.5;" width="84.8271" x="386.4663" y="526.8281"/><text fill="#000000" font-family="sans-serif" font-size="14" lengthAdjust="spacing" textLength="70.8271" x="393.4663" y="548.3613">Connection</text></g><g class="participant participant-head" data-participant="S"><rect fill="#E2E2F0" height="31.6094" rx="2.5" ry="2.5" style="stroke:#181818;stroke-width:0.5;" width="92.5928" x="633.5415" y="50"/><text fill="#000000" font-family="sans-serif" font-size="14" lengthAdjust="spacing" textLength="78.5928" x="640.5415" y="71.5332">RemotePeer</text></g><g class="participant participant-tail" data-participant="S"><rect fill="#E2E2F0" height="31.6094" rx="2.5" ry="2.5" style="stroke:#181818;stroke-width:0.5;" width="92.5928" x="633.5415" y="526.8281"/><text fill="#000000" font-family="sans-serif" font-size="14" lengthAdjust="spacing" textLength="78.5928" x="640.5415" y="548.3613">RemotePeer</text></g><rect fill="#EEEEEE" height="3" style="stroke:#EEEEEE;stroke-width:1;" width="761.6753" x="0" y="113.7852"/><line style="stroke:#000000;stroke-width:1;" x1="0" x2="761.6753" y1="113.7852" y2="113.7852"/><line style="stroke:#000000;stroke-width:1;" x1="0" x2="761.6753" y1="116.7852" y2="116.7852"/><rect fill="#EEEEEE" height="24.3516" style="stroke:#000000;stroke-width:2;" width="165.6836" x="297.9958" y="102.6094"/><text fill="#000000" font-family="sans-serif" font-size="13" font-weight="bold" lengthAdjust="spacing" textLength="148.0718" x="303.9958" y="120.1045">Established Connection</text><g class="message" data-participant-1="Application" data-participant-2="C"><polygon fill="#181818" points="416.8799,155.3125,426.8799,159.3125,416.8799,163.3125,420.8799,159.3125" style="stroke:#181818;stroke-width:1;"/><line style="stroke:#181818;stroke-width:1;" x1="42.2446" x2="422.8799" y1="159.3125" y2="159.3125"/><text fill="#000000" font-family="sans-serif" font-size="13" lengthAdjust="spacing" textLength="120.6182" x="49.2446" y="154.4561">(after CONNECTED)</text></g><g class="message" data-participant-1="C" data-participant-2="S"><polygon fill="#181818" points="667.8379,185.6641,677.8379,189.6641,667.8379,193.6641,671.8379,189.6641" style="stroke:#181818;stroke-width:1;"/><line style="stroke:#181818;stroke-width:1;" x1="428.8799" x2="673.8379" y1="189.6641" y2="189.6641"/><text fill="#000000" font-family="sans-serif" font-size="13" lengthAdjust="spacing" textLength="92.5107" x="435.8799" y="184.8076">Application data</text></g><rect fill="#EEEEEE" height="3" style="stroke:#EEEEEE;stroke-width:1;" width="761.6753" x="0" y="218.8398"/><line style="stroke:#000000;stroke-width:1;" x1="0" x2="761.6753" y1="218.8398" y2="218.8398"/><line style="stroke:#000000;stroke-width:1;" x1="0" x2="761.6753" y1="221.8398" y2="221.8398"/><rect fill="#EEEEEE" height="24.3516" style="stroke:#000000;stroke-width:2;" width="156.3081" x="302.6836" y="207.6641"/><text fill="#000000" font-family="sans-serif" font-size="13" font-weight="bold" lengthAdjust="spacing" textLength="138.6963" x="308.6836" y="225.1592">Network path changes</text><path d="M602,247.0156 L602,273.0156 L756,273.0156 L756,257.0156 L746,247.0156 L602,247.0156" fill="#FEFFDD" style="stroke:#181818;stroke-width:0.5;"/><path d="M746,247.0156 L746,257.0156 L756,257.0156 L746,247.0156" fill="#FEFFDD" style="stroke:#181818;stroke-width:0.5;"/><text fill="#000000" font-family="sans-serif" font-size="13" lengthAdjust="spacing" textLength="133.6753" x="608" y="265.5107">NAT rebinding / new IP</text><g class="message" data-participant-1="S" data-participant-2="C"><polygon fill="#181818" points="439.8799,296.7188,429.8799,300.7188,439.8799,304.7188,435.8799,300.7188" style="stroke:#181818;stroke-width:1;"/><line style="stroke:#181818;stroke-width:1;" x1="433.8799" x2="678.8379" y1="300.7188" y2="300.7188"/><text fill="#000000" font-family="sans-serif" font-size="13" lengthAdjust="spacing" textLength="88.8989" x="445.8799" y="295.8623">Path Challenge</text></g><g class="message" data-participant-1="C" data-participant-2="S"><polygon fill="#181818" points="667.8379,327.0703,677.8379,331.0703,667.8379,335.0703,671.8379,331.0703" style="stroke:#181818;stroke-width:1;"/><line style="stroke:#181818;stroke-width:1;" x1="428.8799" x2="673.8379" y1="331.0703" y2="331.0703"/><text fill="#000000" font-family="sans-serif" font-size="13" lengthAdjust="spacing" textLength="88.8926" x="435.8799" y="326.2139">Path Response</text></g><g class="message" data-participant-1="C" data-participant-2="C"><line style="stroke:#181818;stroke-width:1;" x1="428.8799" x2="470.8799" y1="361.4219" y2="361.4219"/><line style="stroke:#181818;stroke-width:1;" x1="470.8799" x2="470.8799" y1="361.4219" y2="374.4219"/><line style="stroke:#181818;stroke-width:1;" x1="429.8799" x2="470.8799" y1="374.4219" y2="374.4219"/><polygon fill="#181818" points="439.8799,370.4219,429.8799,374.4219,439.8799,378.4219,435.8799,374.4219" style="stroke:#181818;stroke-width:1;"/><text fill="#000000" font-family="sans-serif" font-size="13" lengthAdjust="spacing" textLength="236.958" x="435.8799" y="356.5654">OnEvent(PEER_ADDRESS_CHANGED)</text></g><g class="message" data-participant-1="C" data-participant-2="Application"><polygon fill="#181818" points="53.2446,400.7734,43.2446,404.7734,53.2446,408.7734,49.2446,404.7734" style="stroke:#181818;stroke-width:1;"/><line style="stroke:#181818;stroke-width:1;stroke-dasharray:2,2;" x1="47.2446" x2="427.8799" y1="404.7734" y2="404.7734"/><text fill="#000000" font-family="sans-serif" font-size="13" lengthAdjust="spacing" textLength="362.6353" x="59.2446" y="399.917">QUIC_CONNECTION_EVENT_PEER_ADDRESS_CHANGED</text></g><rect fill="#EEEEEE" height="3" style="stroke:#EEEEEE;stroke-width:1;" width="761.6753" x="0" y="433.9492"/><line style="stroke:#000000;stroke-width:1;" x1="0" x2="761.6753" y1="433.9492" y2="433.9492"/><line style="stroke:#000000;stroke-width:1;" x1="0" x2="761.6753" y1="436.9492" y2="436.9492"/><rect fill="#EEEEEE" height="24.3516" style="stroke:#000000;stroke-width:2;" width="226.3228" x="267.6763" y="422.7734"/><text fill="#000000" font-family="sans-serif" font-size="13" font-weight="bold" lengthAdjust="spacing" textLength="208.7109" x="273.6763" y="440.2686">Continued Data Flow on new path</text><g class="message" data-participant-1="Application" data-participant-2="C"><polygon fill="#181818" points="416.8799,475.4766,426.8799,479.4766,416.8799,483.4766,420.8799,479.4766" style="stroke:#181818;stroke-width:1;"/><line style="stroke:#181818;stroke-width:1;" x1="42.2446" x2="422.8799" y1="479.4766" y2="479.4766"/><text fill="#000000" font-family="sans-serif" font-size="13" lengthAdjust="spacing" textLength="61.4326" x="49.2446" y="474.6201">Send Data</text></g><g class="message" data-participant-1="C" data-participant-2="S"><polygon fill="#181818" points="667.8379,505.8281,677.8379,509.8281,667.8379,513.8281,671.8379,509.8281" style="stroke:#181818;stroke-width:1;"/><line style="stroke:#181818;stroke-width:1;" x1="428.8799" x2="673.8379" y1="509.8281" y2="509.8281"/><text fill="#000000" font-family="sans-serif" font-size="13" lengthAdjust="spacing" textLength="116.3525" x="435.8799" y="504.9717">Data on new 5-tuple</text></g><!--SRC=[RP0nRuCm48LtViMDwH1rwXA9IiYuQHP3STeLEN0DLkdPWalu-xKfLQYKzTvzxzuxqx0R8FE-jurXwoZnPc3RM6-8GJWYRE8Op0ZYdrRXjsCi4OUewIH9Kv0ZcrDlnmxRDPkcoUe2R9z1m0usvfC3B0gbf3ZA_24HKT91Mc-tXirihf0dDto1Dzn1qnawunYjASG0TmrMUWSgEyA09qkjfJCy0k44XpBHVqVB28lEz3q6_dPndbSuUaVZCexh1Sah4czAAQiwo_DAQbsBrqpjbxnXRnrs1s_l1r4ldGw5gkM7LCVw7Z-N2bzYIvVmhppqX9VUJH1yOkovv_tNQQHVu5PWnXVoQSiNt-CF]--></g></svg>