<svg xmlns="http://www.w3.org/2000/svg" xmlns:xlink="http://www.w3.org/1999/xlink" contentStyleType="text/css" data-diagram-type="SEQUENCE" height="725px" preserveAspectRatio="none" style="width:818px;height:725px;background:#FFFFFF;" version="1.1" viewBox="0 0 818 725" width="818px" zoomAndPan="magnify"><defs/><g><g><title>Application</title><rect fill="#000000" fill-opacity="0.00000" height="560.9766" width="8" x="38.2446" y="82.6094"/><line style="stroke:#181818;stroke-width:0.5;stroke-dasharray:5,5;" x1="42" x2="42" y1="82.6094" y2="643.5859"/></g><g><title>Connection</title><rect fill="#000000" fill-opacity="0.00000" height="560.9766" width="8" x="444.8687" y="82.6094"/><line style="stroke:#181818;stroke-width:0.5;stroke-dasharray:5,5;" x1="448.4551" x2="448.4551" y1="82.6094" y2="643.5859"/></g><g><title>RemotePeer</title><rect fill="#000000" fill-opacity="0.00000" height="560.9766" width="8" x="756.4912" y="82.6094"/><line style="stroke:#181818;stroke-width:0.5;stroke-dasharray:5,5;" x1="760.1948" x2="760.1948" y1="82.6094" y2="643.5859"/></g><g class="participant participant-head" data-participant="Application"><text fill="#000000" font-family="sans-serif" font-size="14" lengthAdjust="spacing" textLength="68.4893" x="5" y="79.5332">Application</text><ellipse cx="42.2446" cy="13.5" fill="#E2E2F0" rx="8" ry="8" style="stroke:#181818;stroke-width:0.5;"/><path d="M42.2446,21.5 L42.2446,48.5 M29.2446,29.5 L55.2446,29.5 M42.2446,48.5 L29.2446,63.5 M42.2446,48.5 L55.2446,63.5" fill="none" style="stroke:#181818;stroke-width:0.5;"/></g><g class="participant participant-tail" data-participant="Application"><text fill="#000000" font-family="sans-serif" font-size="14" lengthAdjust="spacing" textLength="68.4893" x="5" y="657.1191">Application</text><ellipse cx="42.2446" cy="668.6953" fill="#E2E2F0" rx="8" ry="8" style="stroke:#181818;stroke-width:0.5;"/><path d="M42.2446,676.6953 L42.2446,703.6953 M29.2446,684.6953 L55.2446,684.6953 M42.2446,703.6953 L29.2446,718.6953 M42.2446,703.6953 L55.2446,718.6953" fill="none" style="stroke:#181818;stroke-width:0.5;"/></g><g class="participant participant-head" data-participant="C"><rect fill="#E2E2F0" height="31.6094" rx="2.5" ry="2.5" style="stroke:#181818;stroke-width:0.5;" width="84.8271" x="406.4551" y="50"/><text fill="#000000" font-family="sans-serif" font-size="14" lengthAdjust="spacing" textLength="70.8271" x="413.4551" y="71.5332">Connection</text></g><g class="participant participant-tail" data-participant="C"><rect fill="#E2E2F0" height="31.6094" rx="2.5" ry="2.5" style="stroke:#181818;stroke-width:0.5;" width="84.8271" x="406.4551" y="642.5859"/><text fill="#000000" font-family="sans-serif" font-size="14" lengthAdjust="spacing" textLength="70.8271" x="413.4551" y="664.1191">Connection</text></g><g class="participant participant-head" data-participant="S"><rect fill="#E2E2F0" height="31.6094" rx="2.5" ry="2.5" style="stroke:#181818;stroke-width:0.5;" width="92.5928" x="714.1948" y="50"/><text fill="#000000" font-family="sans-serif" font-size="14" lengthAdjust="spacing" textLength="78.5928" x="721.1948" y="71.5332">RemotePeer</text></g><g class="participant participant-tail" data-participant="S"><rect fill="#E2E2F0" height="31.6094" rx="2.5" ry="2.5" style="stroke:#181818;stroke-width:0.5;" width="92.5928" x="714.1948" y="642.5859"/><text fill="#000000" font-family="sans-serif" font-size="14" lengthAdjust="spacing" textLength="78.5928" x="721.1948" y="664.1191">RemotePeer</text></g><rect fill="#EEEEEE" height="3" style="stroke:#EEEEEE;stroke-width:1;" width="811.7876" x="0" y="113.7852"/><line style="stroke:#000000;stroke-width:1;" x1="0" x2="811.7876" y1="113.7852" y2="113.7852"/><line style="stroke:#000000;stroke-width:1;" x1="0" x2="811.7876" y1="116.7852" y2="116.7852"/><rect fill="#EEEEEE" height="24.3516" style="stroke:#000000;stroke-width:2;" width="146.209" x="332.7893" y="102.6094"/><text fill="#000000" font-family="sans-serif" font-size="13" font-weight="bold" lengthAdjust="spacing" textLength="128.5972" x="338.7893" y="120.1045">Enable &amp; Handshake</text><g class="message" data-participant-1="Application" data-participant-2="C"><polygon fill="#181818" points="436.8687,155.3125,446.8687,159.3125,436.8687,163.3125,440.8687,159.3125" style="stroke:#181818;stroke-width:1;"/><line style="stroke:#181818;stroke-width:1;" x1="42.2446" x2="442.8687" y1="159.3125" y2="159.3125"/><text fill="#000000" font-family="sans-serif" font-size="13" lengthAdjust="spacing" textLength="382.624" x="49.2446" y="154.4561">ConfigurationOpen(...,Settings{DatagramReceiveEnabled=TRUE})</text></g><g class="message" data-participant-1="C" data-participant-2="S"><polygon fill="#181818" points="748.4912,185.6641,758.4912,189.6641,748.4912,193.6641,752.4912,189.6641" style="stroke:#181818;stroke-width:1;"/><line style="stroke:#181818;stroke-width:1;" x1="448.8687" x2="754.4912" y1="189.6641" y2="189.6641"/><text fill="#000000" font-family="sans-serif" font-size="13" lengthAdjust="spacing" textLength="228.6362" x="455.8687" y="184.8076">Initial+TLS (ADVERTISE_DATAGRAM)</text></g><g class="message" data-participant-1="S" data-participant-2="C"><polygon fill="#181818" points="459.8687,216.0156,449.8687,220.0156,459.8687,224.0156,455.8687,220.0156" style="stroke:#181818;stroke-width:1;"/><line style="stroke:#181818;stroke-width:1;" x1="453.8687" x2="759.4912" y1="220.0156" y2="220.0156"/><text fill="#000000" font-family="sans-serif" font-size="13" lengthAdjust="spacing" textLength="127.918" x="465.8687" y="215.1592">Handshake Response</text></g><g class="message" data-participant-1="C" data-participant-2="C"><line style="stroke:#181818;stroke-width:1;" x1="448.8687" x2="490.8687" y1="266.7188" y2="266.7188"/><line style="stroke:#181818;stroke-width:1;" x1="490.8687" x2="490.8687" y1="266.7188" y2="279.7188"/><line style="stroke:#181818;stroke-width:1;" x1="449.8687" x2="490.8687" y1="279.7188" y2="279.7188"/><polygon fill="#181818" points="459.8687,275.7188,449.8687,279.7188,459.8687,283.7188,455.8687,279.7188" style="stroke:#181818;stroke-width:1;"/><text fill="#000000" font-family="sans-serif" font-size="13" lengthAdjust="spacing" textLength="254.2744" x="455.8687" y="245.5107">OnEvent(DATAGRAM_STATE_CHANGED)</text><text fill="#000000" font-family="sans-serif" font-size="13" lengthAdjust="spacing" textLength="189.3188" x="455.8687" y="261.8623">(Enabled=TRUE,MaxSize=1200)</text></g><rect fill="#EEEEEE" height="3" style="stroke:#EEEEEE;stroke-width:1;" width="811.7876" x="0" y="308.8945"/><line style="stroke:#000000;stroke-width:1;" x1="0" x2="811.7876" y1="308.8945" y2="308.8945"/><line style="stroke:#000000;stroke-width:1;" x1="0" x2="811.7876" y1="311.8945" y2="311.8945"/><rect fill="#EEEEEE" height="24.3516" style="stroke:#000000;stroke-width:2;" width="112.9727" x="349.4075" y="297.7188"/><text fill="#000000" font-family="sans-serif" font-size="13" font-weight="bold" lengthAdjust="spacing" textLength="95.3608" x="355.4075" y="315.2139">Send Datagram</text><g class="message" data-participant-1="Application" data-participant-2="C"><polygon fill="#181818" points="436.8687,366.7734,446.8687,370.7734,436.8687,374.7734,440.8687,370.7734" style="stroke:#181818;stroke-width:1;"/><line style="stroke:#181818;stroke-width:1;" x1="42.2446" x2="442.8687" y1="370.7734" y2="370.7734"/><text fill="#000000" font-family="sans-serif" font-size="13" lengthAdjust="spacing" textLength="135.8271" x="49.2446" y="349.5654">MsQuicDatagramSend(</text><text fill="#000000" font-family="sans-serif" font-size="13" lengthAdjust="spacing" textLength="175.5635" x="52.8564" y="365.917">Buffers,Count,Flags,ClientCtx)</text></g><g class="message" data-participant-1="C" data-participant-2="C"><line style="stroke:#181818;stroke-width:1;" x1="448.8687" x2="490.8687" y1="417.4766" y2="417.4766"/><line style="stroke:#181818;stroke-width:1;" x1="490.8687" x2="490.8687" y1="417.4766" y2="430.4766"/><line style="stroke:#181818;stroke-width:1;" x1="449.8687" x2="490.8687" y1="430.4766" y2="430.4766"/><polygon fill="#181818" points="459.8687,426.4766,449.8687,430.4766,459.8687,434.4766,455.8687,430.4766" style="stroke:#181818;stroke-width:1;"/><text fill="#000000" font-family="sans-serif" font-size="13" lengthAdjust="spacing" textLength="297.6226" x="455.8687" y="396.2686">OnEvent(DATAGRAM_SEND_STATE_CHANGED)</text><text fill="#000000" font-family="sans-serif" font-size="13" lengthAdjust="spacing" textLength="208.4063" x="455.8687" y="412.6201">(State=QUEUED/SENT/DROPPED)</text></g><g class="message" data-participant-1="C" data-participant-2="S"><polygon fill="#181818" points="748.4912,456.8281,758.4912,460.8281,748.4912,464.8281,752.4912,460.8281" style="stroke:#181818;stroke-width:1;"/><line style="stroke:#181818;stroke-width:1;" x1="448.8687" x2="754.4912" y1="460.8281" y2="460.8281"/><text fill="#000000" font-family="sans-serif" font-size="13" lengthAdjust="spacing" textLength="129.3081" x="455.8687" y="455.9717">UDP Datagram Frame</text></g><rect fill="#EEEEEE" height="3" style="stroke:#EEEEEE;stroke-width:1;" width="811.7876" x="0" y="490.0039"/><line style="stroke:#000000;stroke-width:1;" x1="0" x2="811.7876" y1="490.0039" y2="490.0039"/><line style="stroke:#000000;stroke-width:1;" x1="0" x2="811.7876" y1="493.0039" y2="493.0039"/><rect fill="#EEEEEE" height="24.3516" style="stroke:#000000;stroke-width:2;" width="130.3398" x="340.7239" y="478.8281"/><text fill="#000000" font-family="sans-serif" font-size="13" font-weight="bold" lengthAdjust="spacing" textLength="112.728" x="346.7239" y="496.3232">Receive Datagram</text><g class="message" data-participant-1="S" data-participant-2="C"><polygon fill="#181818" points="459.8687,531.5313,449.8687,535.5313,459.8687,539.5313,455.8687,535.5313" style="stroke:#181818;stroke-width:1;"/><line style="stroke:#181818;stroke-width:1;" x1="453.8687" x2="759.4912" y1="535.5313" y2="535.5313"/><text fill="#000000" font-family="sans-serif" font-size="13" lengthAdjust="spacing" textLength="129.3081" x="465.8687" y="530.6748">UDP Datagram Frame</text></g><g class="message" data-participant-1="C" data-participant-2="C"><line style="stroke:#181818;stroke-width:1;" x1="448.8687" x2="490.8687" y1="582.2344" y2="582.2344"/><line style="stroke:#181818;stroke-width:1;" x1="490.8687" x2="490.8687" y1="582.2344" y2="595.2344"/><line style="stroke:#181818;stroke-width:1;" x1="449.8687" x2="490.8687" y1="595.2344" y2="595.2344"/><polygon fill="#181818" points="459.8687,591.2344,449.8687,595.2344,459.8687,599.2344,455.8687,595.2344" style="stroke:#181818;stroke-width:1;"/><text fill="#000000" font-family="sans-serif" font-size="13" lengthAdjust="spacing" textLength="206.6035" x="455.8687" y="561.0264">OnEvent(DATAGRAM_RECEIVED)</text><text fill="#000000" font-family="sans-serif" font-size="13" lengthAdjust="spacing" textLength="86.7153" x="455.8687" y="577.3779">(Buffer,Length)</text></g><g class="message" data-participant-1="C" data-participant-2="Application"><polygon fill="#181818" points="53.2446,621.5859,43.2446,625.5859,53.2446,629.5859,49.2446,625.5859" style="stroke:#181818;stroke-width:1;"/><line style="stroke:#181818;stroke-width:1;stroke-dasharray:2,2;" x1="47.2446" x2="447.8687" y1="625.5859" y2="625.5859"/><text fill="#000000" font-family="sans-serif" font-size="13" lengthAdjust="spacing" textLength="332.2808" x="59.2446" y="620.7295">QUIC_CONNECTION_EVENT_DATAGRAM_RECEIVED</text></g><!--SRC=[VP11Ru9048Nl_8ezDP1IjJqseGbTLYLHK1OycP0jZhWf3WGMOzhqlnUqL8srbyrctioRxur8L5uIkoWocGWbSzGAKIgPo4AW8ZH7XAGj4r4HUg45iCqLp03ALkEQPbc4eNZBWDoHiS1LjH7lG2nBEtCd3o-4akVMU2tJkZmK_G9Gx_Lw9WUb9ARLfoEKI4kn3I01kOEZxSeAWuXz6HfjNNZZug9KKcJtuOGJtNOMB0XTpcB73krHO4yDZNVxJZm1L4ME5HnTMir7jWDKUZSMyz0EMKp7jZTYZh54_No_EHLxBZ_0UdmQ38n3QWwu8XtoZS3JQbxBf6jg9_GbajTwlOQoCcbUepA7cKYRVoOR6ghsnd-8p7EkERaI2gnvn2Bcz9kMiEy4_cpMYAURHSxin3fi7ZXa-BdqHOpVw_qnSnijO9IvYoFGCPyv0KpLvW3HJ9rVvvdC8vV6rFSyHaFNzsAsQBZZAxTl]--></g></svg>