<svg xmlns="http://www.w3.org/2000/svg" xmlns:xlink="http://www.w3.org/1999/xlink" contentStyleType="text/css" data-diagram-type="ACTIVITY" height="2203px" preserveAspectRatio="none" style="width:1048px;height:2203px;background:#FFFFFF;" version="1.1" viewBox="0 0 1048 2203" width="1048px" zoomAndPan="magnify"><title>Listener Callback Processing</title><defs/><g><g class="title" data-source-line="8"><text fill="#000000" font-family="Verdana" font-size="22" font-weight="bold" lengthAdjust="spacing" textLength="353.3105" x="346.0371" y="37.1182">Listener Callback Processing</text></g><ellipse cx="387.2971" cy="62.7373" fill="#FFFFFF" rx="10" ry="10" style="stroke:#000000;stroke-width:1;"/><rect fill="#FFFFFF" height="265.8071" style="stroke:#000000;stroke-width:1;" width="583.0659" x="269.1936" y="82.7373"/><path d="M434.4651,82.7373 L434.4651,92.752 L424.4651,102.752 L269.1936,102.752" fill="none" style="stroke:#000000;stroke-width:1;"/><text fill="#000000" font-family="Verdana" font-size="14" font-weight="bold" lengthAdjust="spacing" textLength="155.2715" x="272.1936" y="97.8125">Callback Invocation</text><path d="M515.4006,112.752 L515.4006,137.4509 L495.4006,141.4509 L515.4006,145.4509 L515.4006,170.1499 A0,0 0 0 0 515.4006,170.1499 L776.2976,170.1499 A0,0 0 0 0 776.2976,170.1499 L776.2976,122.752 L766.2976,112.752 L515.4006,112.752 A0,0 0 0 0 515.4006,112.752" fill="#FFFFFF" style="stroke:#000000;stroke-width:1;"/><path d="M766.2976,112.752 L766.2976,122.752 L776.2976,122.752 L766.2976,112.752" fill="#FFFFFF" style="stroke:#000000;stroke-width:1;"/><text fill="#000000" font-family="Verdana" font-size="13" font-weight="bold" lengthAdjust="spacing" textLength="239.897" x="521.4006" y="130.8218">Reference: MsQuic Core Diagram</text><text fill="#000000" font-family="Verdana" font-size="13" lengthAdjust="spacing" textLength="172.9102" x="521.4006" y="146.6211">Listener events queued by</text><text fill="#000000" font-family="Verdana" font-size="13" lengthAdjust="spacing" textLength="153.1182" x="521.4006" y="162.4204">MsQuic core processing</text><rect fill="#90EE90" height="34.584" rx="12.5" ry="12.5" style="stroke:#000000;stroke-width:1;" width="216.207" x="279.1936" y="124.1589"/><text fill="#000000" font-family="Verdana" font-size="12" lengthAdjust="spacing" textLength="196.207" x="289.1936" y="146.2234">Receive event from MsQuic Core</text><path d="M505.3049,180.1499 L505.3049,220.6482 L485.3049,224.6482 L505.3049,228.6482 L505.3049,269.1465 A0,0 0 0 0 505.3049,269.1465 L842.2595,269.1465 A0,0 0 0 0 842.2595,269.1465 L842.2595,190.1499 L832.2595,180.1499 L505.3049,180.1499 A0,0 0 0 0 505.3049,180.1499" fill="#FFFFFF" style="stroke:#000000;stroke-width:1;"/><path d="M832.2595,180.1499 L832.2595,190.1499 L842.2595,190.1499 L832.2595,180.1499" fill="#FFFFFF" style="stroke:#000000;stroke-width:1;"/><text fill="#000000" font-family="Verdana" font-size="13" font-weight="bold" lengthAdjust="spacing" textLength="141.7876" x="511.3049" y="198.2197">Callback Signature:</text><text fill="#000000" font-family="Verdana" font-size="13" lengthAdjust="spacing" textLength="315.9546" x="511.3049" y="214.019">QUIC_STATUS QUIC_API LISTENER_CALLBACK(</text><text fill="#000000" font-family="Verdana" font-size="13" lengthAdjust="spacing" textLength="105.3267" x="520.4456" y="229.8184">HQUIC Listener,</text><text fill="#000000" font-family="Verdana" font-size="13" lengthAdjust="spacing" textLength="95.6909" x="520.4456" y="245.6177">void* Context,</text><text fill="#000000" font-family="Verdana" font-size="13" lengthAdjust="spacing" textLength="214.4429" x="520.4456" y="261.417">QUIC_LISTENER_EVENT* Event)</text><rect fill="#90EE90" height="34.584" rx="12.5" ry="12.5" style="stroke:#000000;stroke-width:1;" width="196.0156" x="289.2893" y="207.3562"/><text fill="#000000" font-family="Verdana" font-size="12" lengthAdjust="spacing" textLength="176.0156" x="299.2893" y="229.4207">Invoke LISTENER_CALLBACK</text><path d="M484.7063,279.1465 L484.7063,303.8455 L464.7063,307.8455 L484.7063,311.8455 L484.7063,336.5444 A0,0 0 0 0 484.7063,336.5444 L663.0774,336.5444 A0,0 0 0 0 663.0774,336.5444 L663.0774,289.1465 L653.0774,279.1465 L484.7063,279.1465 A0,0 0 0 0 484.7063,279.1465" fill="#FFFFFF" style="stroke:#000000;stroke-width:1;"/><path d="M653.0774,279.1465 L653.0774,289.1465 L663.0774,289.1465 L653.0774,279.1465" fill="#FFFFFF" style="stroke:#000000;stroke-width:1;"/><text fill="#000000" font-family="Verdana" font-size="13" font-weight="bold" lengthAdjust="spacing" textLength="157.3711" x="490.7063" y="297.2163">Listener Event Types:</text><text fill="#000000" font-family="Verdana" font-size="13" lengthAdjust="spacing" textLength="139.0327" x="490.7063" y="313.0156">- NEW_CONNECTION</text><text fill="#000000" font-family="Verdana" font-size="13" lengthAdjust="spacing" textLength="123.5" x="490.7063" y="328.8149">- STOP_COMPLETE</text><rect fill="#90EE90" height="34.584" rx="12.5" ry="12.5" style="stroke:#000000;stroke-width:1;" width="154.8184" x="309.8879" y="290.5535"/><text fill="#000000" font-family="Verdana" font-size="12" lengthAdjust="spacing" textLength="134.8184" x="319.8879" y="312.6179">Determine Event Type</text><rect fill="#FFFFFF" height="99.4126" style="stroke:#000000;stroke-width:1;" width="441.563" x="273.55" y="358.5444"/><path d="M436.634,358.5444 L436.634,368.5591 L426.634,378.5591 L273.55,378.5591" fill="none" style="stroke:#000000;stroke-width:1;"/><text fill="#000000" font-family="Verdana" font-size="14" font-weight="bold" lengthAdjust="spacing" textLength="153.084" x="276.55" y="373.6196">Event Type Routing</text><path d="M511.0442,388.5591 L511.0442,413.2581 L491.0442,417.2581 L511.0442,421.2581 L511.0442,445.957 A0,0 0 0 0 511.0442,445.957 L705.113,445.957 A0,0 0 0 0 705.113,445.957 L705.113,398.5591 L695.113,388.5591 L511.0442,388.5591 A0,0 0 0 0 511.0442,388.5591" fill="#FFFFFF" style="stroke:#000000;stroke-width:1;"/><path d="M695.113,388.5591 L695.113,398.5591 L705.113,398.5591 L695.113,388.5591" fill="#FFFFFF" style="stroke:#000000;stroke-width:1;"/><text fill="#000000" font-family="Verdana" font-size="13" font-weight="bold" lengthAdjust="spacing" textLength="173.0688" x="517.0442" y="406.6289">Event Processing Logic:</text><text fill="#000000" font-family="Verdana" font-size="13" lengthAdjust="spacing" textLength="163.1792" x="517.0442" y="422.4282">Each event type requires</text><text fill="#000000" font-family="Verdana" font-size="13" lengthAdjust="spacing" textLength="142.7271" x="517.0442" y="438.2275">specific handling logic</text><rect fill="#90EE90" height="34.584" rx="12.5" ry="12.5" style="stroke:#000000;stroke-width:1;" width="207.4941" x="283.55" y="399.9661"/><text fill="#000000" font-family="Verdana" font-size="12" lengthAdjust="spacing" textLength="187.4941" x="293.55" y="422.0305">Route to appropriate processor</text><rect fill="#FFFFFF" height="648.3955" style="stroke:#000000;stroke-width:1;" width="1036.3848" x="6" y="467.957"/><path d="M259.8516,467.957 L259.8516,477.9717 L249.8516,487.9717 L6,487.9717" fill="none" style="stroke:#000000;stroke-width:1;"/><text fill="#000000" font-family="Verdana" font-size="14" font-weight="bold" lengthAdjust="spacing" textLength="243.8516" x="9" y="483.0322">NEW_CONNECTION Processing</text><path d="M488.5266,497.9717 L488.5266,562.1689 L468.5266,566.1689 L488.5266,570.1689 L488.5266,634.3662 A0,0 0 0 0 488.5266,634.3662 L751.5374,634.3662 A0,0 0 0 0 751.5374,634.3662 L751.5374,507.9717 L741.5374,497.9717 L488.5266,497.9717 A0,0 0 0 0 488.5266,497.9717" fill="#FFFFFF" style="stroke:#000000;stroke-width:1;"/><path d="M741.5374,497.9717 L741.5374,507.9717 L751.5374,507.9717 L741.5374,497.9717" fill="#FFFFFF" style="stroke:#000000;stroke-width:1;"/><text fill="#000000" font-family="Verdana" font-size="13" font-weight="bold" lengthAdjust="spacing" textLength="242.0107" x="494.5266" y="516.0415">QUIC_NEW_CONNECTION_INFO:</text><text fill="#000000" font-family="Verdana" font-size="13" lengthAdjust="spacing" textLength="87.9087" x="494.5266" y="531.8408">- QuicVersion</text><text fill="#000000" font-family="Verdana" font-size="13" lengthAdjust="spacing" textLength="95.6719" x="494.5266" y="547.6401">- LocalAddress</text><text fill="#000000" font-family="Verdana" font-size="13" lengthAdjust="spacing" textLength="112.582" x="494.5266" y="563.4395">- RemoteAddress</text><text fill="#000000" font-family="Verdana" font-size="13" lengthAdjust="spacing" textLength="209.1616" x="494.5266" y="579.2388">- CryptoBuffer (TLS handshake)</text><text fill="#000000" font-family="Verdana" font-size="13" lengthAdjust="spacing" textLength="99.2583" x="494.5266" y="595.0381">- ClientAlpnList</text><text fill="#000000" font-family="Verdana" font-size="13" lengthAdjust="spacing" textLength="110.1763" x="494.5266" y="610.8374">- NegotiatedAlpn</text><text fill="#000000" font-family="Verdana" font-size="13" lengthAdjust="spacing" textLength="132.0186" x="494.5266" y="626.6367">- ServerName (SNI)</text><rect fill="#90EE90" height="34.584" rx="12.5" ry="12.5" style="stroke:#000000;stroke-width:1;" width="162.459" x="306.0676" y="548.877"/><text fill="#000000" font-family="Verdana" font-size="12" lengthAdjust="spacing" textLength="142.459" x="316.0676" y="570.9414">Extract Connection Info</text><path d="M503.7141,644.3662 L503.7141,692.7642 L483.7141,696.7642 L503.7141,700.7642 L503.7141,749.1621 A0,0 0 0 0 503.7141,749.1621 L721.2566,749.1621 A0,0 0 0 0 721.2566,749.1621 L721.2566,654.3662 L711.2566,644.3662 L503.7141,644.3662 A0,0 0 0 0 503.7141,644.3662" fill="#FFFFFF" style="stroke:#000000;stroke-width:1;"/><path d="M711.2566,644.3662 L711.2566,654.3662 L721.2566,654.3662 L711.2566,644.3662" fill="#FFFFFF" style="stroke:#000000;stroke-width:1;"/><text fill="#000000" font-family="Verdana" font-size="13" font-weight="bold" lengthAdjust="spacing" textLength="134.8813" x="509.7141" y="662.436">Validation Checks:</text><text fill="#000000" font-family="Verdana" font-size="13" lengthAdjust="spacing" textLength="132.2534" x="509.7141" y="678.2354">- ALPN compatibility</text><text fill="#000000" font-family="Verdana" font-size="13" lengthAdjust="spacing" textLength="128.0068" x="509.7141" y="694.0347">- Source IP filtering</text><text fill="#000000" font-family="Verdana" font-size="13" lengthAdjust="spacing" textLength="93.1201" x="509.7141" y="709.834">- Rate limiting</text><text fill="#000000" font-family="Verdana" font-size="13" lengthAdjust="spacing" textLength="144.6504" x="509.7141" y="725.6333">- Resource availability</text><text fill="#000000" font-family="Verdana" font-size="13" lengthAdjust="spacing" textLength="196.5425" x="509.7141" y="741.4326">- Authentication requirements</text><rect fill="#90EE90" height="34.584" rx="12.5" ry="12.5" style="stroke:#000000;stroke-width:1;" width="192.834" x="290.8801" y="679.4722"/><text fill="#000000" font-family="Verdana" font-size="12" lengthAdjust="spacing" textLength="172.834" x="300.8801" y="701.5366">Validate Connection Request</text><polygon fill="#90EE90" points="333.2263,769.1621,441.3679,769.1621,453.3679,781.1621,441.3679,793.1621,333.2263,793.1621,321.2263,781.1621,333.2263,769.1621" style="stroke:#000000;stroke-width:1;"/><text fill="#000000" font-family="Verdana" font-size="11" lengthAdjust="spacing" textLength="108.1416" x="333.2263" y="785.5369">Accept Connection?</text><text fill="#000000" font-family="Verdana" font-size="11" lengthAdjust="spacing" textLength="18.7935" x="302.4329" y="778.8525">yes</text><text fill="#000000" font-family="Verdana" font-size="11" lengthAdjust="spacing" textLength="13.6372" x="453.3679" y="778.8525">no</text><path d="M229.7295,803.1621 L229.7295,835.7607 L209.7295,839.7607 L229.7295,843.7607 L229.7295,876.3594 A0,0 0 0 0 229.7295,876.3594 L495.0444,876.3594 A0,0 0 0 0 495.0444,876.3594 L495.0444,813.1621 L485.0444,803.1621 L229.7295,803.1621 A0,0 0 0 0 229.7295,803.1621" fill="#FFFFFF" style="stroke:#000000;stroke-width:1;"/><path d="M485.0444,803.1621 L485.0444,813.1621 L495.0444,813.1621 L485.0444,803.1621" fill="#FFFFFF" style="stroke:#000000;stroke-width:1;"/><text fill="#000000" font-family="Verdana" font-size="13" font-weight="bold" lengthAdjust="spacing" textLength="161.7319" x="235.7295" y="821.2319">SetCallbackHandler():</text><text fill="#000000" font-family="Verdana" font-size="13" lengthAdjust="spacing" textLength="241.6426" x="235.7295" y="837.0313">- Assign connection callback function</text><text fill="#000000" font-family="Verdana" font-size="13" lengthAdjust="spacing" textLength="160.4688" x="235.7295" y="852.8306">- Set application context</text><text fill="#000000" font-family="Verdana" font-size="13" lengthAdjust="spacing" textLength="244.3149" x="235.7295" y="868.6299">- Enable connection event processing</text><rect fill="#90EE90" height="34.584" rx="12.5" ry="12.5" style="stroke:#000000;stroke-width:1;" width="165.875" x="43.8545" y="822.4688"/><text fill="#000000" font-family="Verdana" font-size="12" lengthAdjust="spacing" textLength="145.875" x="53.8545" y="844.5332">Set Connection Callback</text><path d="M245.1572,902.1587 L245.1572,942.657 L225.1572,946.657 L245.1572,950.657 L245.1572,991.1553 A0,0 0 0 0 245.1572,991.1553 L498.1577,991.1553 A0,0 0 0 0 498.1577,991.1553 L498.1577,912.1587 L488.1577,902.1587 L245.1572,902.1587 A0,0 0 0 0 245.1572,902.1587" fill="#FFFFFF" style="stroke:#000000;stroke-width:1;"/><path d="M488.1577,902.1587 L488.1577,912.1587 L498.1577,912.1587 L488.1577,902.1587" fill="#FFFFFF" style="stroke:#000000;stroke-width:1;"/><text fill="#000000" font-family="Verdana" font-size="13" font-weight="bold" lengthAdjust="spacing" textLength="224.415" x="251.1572" y="920.2285">ConnectionSetConfiguration():</text><text fill="#000000" font-family="Verdana" font-size="13" lengthAdjust="spacing" textLength="177.144" x="251.1572" y="936.0278">- Apply server TLS settings</text><text fill="#000000" font-family="Verdana" font-size="13" lengthAdjust="spacing" textLength="122.2495" x="251.1572" y="951.8271">- Set stream limits</text><text fill="#000000" font-family="Verdana" font-size="13" lengthAdjust="spacing" textLength="154.248" x="251.1572" y="967.6265">- Configure flow control</text><text fill="#000000" font-family="Verdana" font-size="13" lengthAdjust="spacing" textLength="232.0005" x="251.1572" y="983.4258">- Enable features (datagrams, etc.)</text><rect fill="#90EE90" height="34.584" rx="12.5" ry="12.5" style="stroke:#000000;stroke-width:1;" width="196.7305" x="28.4268" y="929.365"/><text fill="#000000" font-family="Verdana" font-size="12" lengthAdjust="spacing" textLength="176.7305" x="38.4268" y="951.4294">Set Connection Configuration</text><path d="M255.584,1001.1553 L255.584,1033.7539 L235.584,1037.7539 L255.584,1041.7539 L255.584,1074.3525 A0,0 0 0 0 255.584,1074.3525 L558.8452,1074.3525 A0,0 0 0 0 558.8452,1074.3525 L558.8452,1011.1553 L548.8452,1001.1553 L255.584,1001.1553 A0,0 0 0 0 255.584,1001.1553" fill="#FFFFFF" style="stroke:#000000;stroke-width:1;"/><path d="M548.8452,1001.1553 L548.8452,1011.1553 L558.8452,1011.1553 L548.8452,1001.1553" fill="#FFFFFF" style="stroke:#000000;stroke-width:1;"/><text fill="#000000" font-family="Verdana" font-size="13" font-weight="bold" lengthAdjust="spacing" textLength="158.1201" x="261.584" y="1019.2251">Connection Accepted:</text><text fill="#000000" font-family="Verdana" font-size="13" lengthAdjust="spacing" textLength="272.8984" x="261.584" y="1035.0244">- Connection will proceed with handshake</text><text fill="#000000" font-family="Verdana" font-size="13" lengthAdjust="spacing" textLength="282.2612" x="261.584" y="1050.8237">- Application will receive connection events</text><text fill="#000000" font-family="Verdana" font-size="13" lengthAdjust="spacing" textLength="237.5229" x="261.584" y="1066.623">- Resources allocated for connection</text><rect fill="#90EE90" height="34.584" rx="12.5" ry="12.5" style="stroke:#000000;stroke-width:1;" width="217.584" x="18" y="1020.4619"/><text fill="#000000" font-family="Verdana" font-size="12" lengthAdjust="spacing" textLength="197.584" x="28" y="1042.5264">Return QUIC_STATUS_SUCCESS</text><path d="M736.7593,803.1621 L736.7593,843.6604 L716.7593,847.6604 L736.7593,851.6604 L736.7593,892.1587 A0,0 0 0 0 736.7593,892.1587 L1030.3848,892.1587 A0,0 0 0 0 1030.3848,892.1587 L1030.3848,813.1621 L1020.3848,803.1621 L736.7593,803.1621 A0,0 0 0 0 736.7593,803.1621" fill="#FFFFFF" style="stroke:#000000;stroke-width:1;"/><path d="M1020.3848,803.1621 L1020.3848,813.1621 L1030.3848,813.1621 L1020.3848,803.1621" fill="#FFFFFF" style="stroke:#000000;stroke-width:1;"/><text fill="#000000" font-family="Verdana" font-size="13" font-weight="bold" lengthAdjust="spacing" textLength="155.3271" x="742.7593" y="821.2319">Connection Rejected:</text><text fill="#000000" font-family="Verdana" font-size="13" lengthAdjust="spacing" textLength="210.9834" x="742.7593" y="837.0313">- QUIC_STATUS_UNREACHABLE</text><text fill="#000000" font-family="Verdana" font-size="13" lengthAdjust="spacing" textLength="272.6255" x="742.7593" y="852.8306">- QUIC_STATUS_CONNECTION_REFUSED</text><text fill="#000000" font-family="Verdana" font-size="13" lengthAdjust="spacing" textLength="205.7402" x="742.7593" y="868.6299">- Connection will be terminated</text><text fill="#000000" font-family="Verdana" font-size="13" lengthAdjust="spacing" textLength="251.3672" x="742.7593" y="884.4292">- No further events for this connection</text><rect fill="#90EE90" height="34.584" rx="12.5" ry="12.5" style="stroke:#000000;stroke-width:1;" width="137.9141" x="578.8452" y="830.3684"/><text fill="#000000" font-family="Verdana" font-size="12" lengthAdjust="spacing" textLength="117.9141" x="588.8452" y="852.4329">Return Error Status</text><polygon fill="#90EE90" points="387.2971,1080.3525,399.2971,1092.3525,387.2971,1104.3525,375.2971,1092.3525,387.2971,1080.3525" style="stroke:#000000;stroke-width:1;"/><rect fill="#FFFFFF" height="380.603" style="stroke:#000000;stroke-width:1;" width="504.0454" x="268.5051" y="1126.3525"/><path d="M503.5715,1126.3525 L503.5715,1136.3672 L493.5715,1146.3672 L268.5051,1146.3672" fill="none" style="stroke:#000000;stroke-width:1;"/><text fill="#000000" font-family="Verdana" font-size="14" font-weight="bold" lengthAdjust="spacing" textLength="225.0664" x="271.5051" y="1141.4277">STOP_COMPLETE Processing</text><path d="M486.6985,1156.3672 L486.6985,1188.9658 L466.6985,1192.9658 L486.6985,1196.9658 L486.6985,1229.5645 A0,0 0 0 0 486.6985,1229.5645 L762.5505,1229.5645 A0,0 0 0 0 762.5505,1229.5645 L762.5505,1166.3672 L752.5505,1156.3672 L486.6985,1156.3672 A0,0 0 0 0 486.6985,1156.3672" fill="#FFFFFF" style="stroke:#000000;stroke-width:1;"/><path d="M752.5505,1156.3672 L752.5505,1166.3672 L762.5505,1166.3672 L752.5505,1156.3672" fill="#FFFFFF" style="stroke:#000000;stroke-width:1;"/><text fill="#000000" font-family="Verdana" font-size="13" font-weight="bold" lengthAdjust="spacing" textLength="168.8857" x="492.6985" y="1174.437">STOP_COMPLETE Data:</text><text fill="#000000" font-family="Verdana" font-size="13" lengthAdjust="spacing" textLength="169.1396" x="492.6985" y="1190.2363">- AppCloseInProgress flag</text><text fill="#000000" font-family="Verdana" font-size="13" lengthAdjust="spacing" textLength="254.8521" x="492.6985" y="1206.0356">- Indicates listener shutdown complete</text><text fill="#000000" font-family="Verdana" font-size="13" lengthAdjust="spacing" textLength="247.4888" x="492.6985" y="1221.835">- No more NEW_CONNECTION events</text><rect fill="#90EE90" height="34.584" rx="12.5" ry="12.5" style="stroke:#000000;stroke-width:1;" width="158.8027" x="307.8958" y="1175.6738"/><text fill="#000000" font-family="Verdana" font-size="12" lengthAdjust="spacing" textLength="138.8027" x="317.8958" y="1197.7383">Process Stop Complete</text><path d="M500.5413,1239.5645 L500.5413,1280.0627 L480.5413,1284.0627 L500.5413,1288.0627 L500.5413,1328.561 A0,0 0 0 0 500.5413,1328.561 L710.5808,1328.561 A0,0 0 0 0 710.5808,1328.561 L710.5808,1249.5645 L700.5808,1239.5645 L500.5413,1239.5645 A0,0 0 0 0 500.5413,1239.5645" fill="#FFFFFF" style="stroke:#000000;stroke-width:1;"/><path d="M700.5808,1239.5645 L700.5808,1249.5645 L710.5808,1249.5645 L700.5808,1239.5645" fill="#FFFFFF" style="stroke:#000000;stroke-width:1;"/><text fill="#000000" font-family="Verdana" font-size="13" font-weight="bold" lengthAdjust="spacing" textLength="122.459" x="506.5413" y="1257.6343">Cleanup Actions:</text><text fill="#000000" font-family="Verdana" font-size="13" lengthAdjust="spacing" textLength="144.9868" x="506.5413" y="1273.4336">- Free listener context</text><text fill="#000000" font-family="Verdana" font-size="13" lengthAdjust="spacing" textLength="139.623" x="506.5413" y="1289.2329">- Update server state</text><text fill="#000000" font-family="Verdana" font-size="13" lengthAdjust="spacing" textLength="189.0396" x="506.5413" y="1305.0322">- Stop accepting connections</text><text fill="#000000" font-family="Verdana" font-size="13" lengthAdjust="spacing" textLength="151.4805" x="506.5413" y="1320.8315">- Clean up port binding</text><rect fill="#90EE90" height="34.584" rx="12.5" ry="12.5" style="stroke:#000000;stroke-width:1;" width="186.4883" x="294.053" y="1266.7708"/><text fill="#000000" font-family="Verdana" font-size="12" lengthAdjust="spacing" textLength="166.4883" x="304.053" y="1288.8352">Cleanup Listener Resources</text><path d="M470.2571,1338.561 L470.2571,1371.1597 L450.2571,1375.1597 L470.2571,1379.1597 L470.2571,1411.7583 A0,0 0 0 0 470.2571,1411.7583 L686.7458,1411.7583 A0,0 0 0 0 686.7458,1411.7583 L686.7458,1348.561 L676.7458,1338.561 L470.2571,1338.561 A0,0 0 0 0 470.2571,1338.561" fill="#FFFFFF" style="stroke:#000000;stroke-width:1;"/><path d="M676.7458,1338.561 L676.7458,1348.561 L686.7458,1348.561 L676.7458,1338.561" fill="#FFFFFF" style="stroke:#000000;stroke-width:1;"/><text fill="#000000" font-family="Verdana" font-size="13" font-weight="bold" lengthAdjust="spacing" textLength="176.833" x="476.2571" y="1356.6309">Application Notification:</text><text fill="#000000" font-family="Verdana" font-size="13" lengthAdjust="spacing" textLength="185.5674" x="476.2571" y="1372.4302">- Server shutdown complete</text><text fill="#000000" font-family="Verdana" font-size="13" lengthAdjust="spacing" textLength="195.4888" x="476.2571" y="1388.2295">- Safe to close listener handle</text><text fill="#000000" font-family="Verdana" font-size="13" lengthAdjust="spacing" textLength="189.2808" x="476.2571" y="1404.0288">- Update connection tracking</text><rect fill="#90EE90" height="34.584" rx="12.5" ry="12.5" style="stroke:#000000;stroke-width:1;" width="125.9199" x="324.3372" y="1357.8677"/><text fill="#000000" font-family="Verdana" font-size="12" lengthAdjust="spacing" textLength="105.9199" x="334.3372" y="1379.9321">Notify Application</text><path d="M516.0891,1421.7583 L516.0891,1454.3569 L496.0891,1458.3569 L516.0891,1462.3569 L516.0891,1494.9556 A0,0 0 0 0 516.0891,1494.9556 L754.0457,1494.9556 A0,0 0 0 0 754.0457,1494.9556 L754.0457,1431.7583 L744.0457,1421.7583 L516.0891,1421.7583 A0,0 0 0 0 516.0891,1421.7583" fill="#FFFFFF" style="stroke:#000000;stroke-width:1;"/><path d="M744.0457,1421.7583 L744.0457,1431.7583 L754.0457,1431.7583 L744.0457,1421.7583" fill="#FFFFFF" style="stroke:#000000;stroke-width:1;"/><text fill="#000000" font-family="Verdana" font-size="13" font-weight="bold" lengthAdjust="spacing" textLength="129.0098" x="522.0891" y="1439.8281">Listener Stopped:</text><text fill="#000000" font-family="Verdana" font-size="13" lengthAdjust="spacing" textLength="216.1694" x="522.0891" y="1455.6274">- No more events on this listener</text><text fill="#000000" font-family="Verdana" font-size="13" lengthAdjust="spacing" textLength="186.7417" x="522.0891" y="1471.4268">- Safe to call ListenerClose()</text><text fill="#000000" font-family="Verdana" font-size="13" lengthAdjust="spacing" textLength="216.9565" x="522.0891" y="1487.2261">- Server can shutdown gracefully</text><rect fill="#90EE90" height="34.584" rx="12.5" ry="12.5" style="stroke:#000000;stroke-width:1;" width="217.584" x="278.5051" y="1441.0649"/><text fill="#000000" font-family="Verdana" font-size="12" lengthAdjust="spacing" textLength="197.584" x="288.5051" y="1463.1294">Return QUIC_STATUS_SUCCESS</text><rect fill="#FFFFFF" height="182.6099" style="stroke:#000000;stroke-width:1;" width="466.2905" x="268.5051" y="1516.9556"/><path d="M491.9163,1516.9556 L491.9163,1526.9702 L481.9163,1536.9702 L268.5051,1536.9702" fill="none" style="stroke:#000000;stroke-width:1;"/><text fill="#000000" font-family="Verdana" font-size="14" font-weight="bold" lengthAdjust="spacing" textLength="213.4111" x="271.5051" y="1532.0308">Unknown Event Processing</text><path d="M477.2004,1546.9702 L477.2004,1579.5688 L457.2004,1583.5688 L477.2004,1587.5688 L477.2004,1620.1675 A0,0 0 0 0 477.2004,1620.1675 L710.7517,1620.1675 A0,0 0 0 0 710.7517,1620.1675 L710.7517,1556.9702 L700.7517,1546.9702 L477.2004,1546.9702 A0,0 0 0 0 477.2004,1546.9702" fill="#FFFFFF" style="stroke:#000000;stroke-width:1;"/><path d="M700.7517,1546.9702 L700.7517,1556.9702 L710.7517,1556.9702 L700.7517,1546.9702" fill="#FFFFFF" style="stroke:#000000;stroke-width:1;"/><text fill="#000000" font-family="Verdana" font-size="13" font-weight="bold" lengthAdjust="spacing" textLength="112.0234" x="483.2004" y="1565.04">Error Handling:</text><text fill="#000000" font-family="Verdana" font-size="13" lengthAdjust="spacing" textLength="188.0747" x="483.2004" y="1580.8394">- Log unexpected event type</text><text fill="#000000" font-family="Verdana" font-size="13" lengthAdjust="spacing" textLength="186.7163" x="483.2004" y="1596.6387">- Return success to continue</text><text fill="#000000" font-family="Verdana" font-size="13" lengthAdjust="spacing" textLength="212.5513" x="483.2004" y="1612.438">- May indicate version mismatch</text><rect fill="#90EE90" height="34.584" rx="12.5" ry="12.5" style="stroke:#000000;stroke-width:1;" width="139.8066" x="317.3938" y="1566.2769"/><text fill="#000000" font-family="Verdana" font-size="12" lengthAdjust="spacing" textLength="119.8066" x="327.3938" y="1588.3413">Log Unknown Event</text><path d="M516.0891,1630.1675 L516.0891,1654.8665 L496.0891,1658.8665 L516.0891,1662.8665 L516.0891,1687.5654 A0,0 0 0 0 516.0891,1687.5654 L724.7957,1687.5654 A0,0 0 0 0 724.7957,1687.5654 L724.7957,1640.1675 L714.7957,1630.1675 L516.0891,1630.1675 A0,0 0 0 0 516.0891,1630.1675" fill="#FFFFFF" style="stroke:#000000;stroke-width:1;"/><path d="M714.7957,1630.1675 L714.7957,1640.1675 L724.7957,1640.1675 L714.7957,1630.1675" fill="#FFFFFF" style="stroke:#000000;stroke-width:1;"/><text fill="#000000" font-family="Verdana" font-size="13" font-weight="bold" lengthAdjust="spacing" textLength="147.2593" x="522.0891" y="1648.2373">Continue Operation:</text><text fill="#000000" font-family="Verdana" font-size="13" lengthAdjust="spacing" textLength="187.7065" x="522.0891" y="1664.0366">Unknown events are ignored</text><text fill="#000000" font-family="Verdana" font-size="13" lengthAdjust="spacing" textLength="162.646" x="522.0891" y="1679.8359">to maintain compatibility</text><rect fill="#90EE90" height="34.584" rx="12.5" ry="12.5" style="stroke:#000000;stroke-width:1;" width="217.584" x="278.5051" y="1641.5745"/><text fill="#000000" font-family="Verdana" font-size="12" lengthAdjust="spacing" textLength="197.584" x="288.5051" y="1663.6389">Return QUIC_STATUS_SUCCESS</text><rect fill="#FFFFFF" height="285.2085" style="stroke:#000000;stroke-width:1;" width="630.0957" x="72.3914" y="1709.5654"/><path d="M197.3992,1709.5654 L197.3992,1719.5801 L187.3992,1729.5801 L72.3914,1729.5801" fill="none" style="stroke:#000000;stroke-width:1;"/><text fill="#000000" font-family="Verdana" font-size="14" font-weight="bold" lengthAdjust="spacing" textLength="115.0078" x="75.3914" y="1724.6406">Error Handling</text><polygon fill="#90EE90" points="345.4939,1746.5801,429.1003,1746.5801,441.1003,1758.5801,429.1003,1770.5801,345.4939,1770.5801,333.4939,1758.5801,345.4939,1746.5801" style="stroke:#000000;stroke-width:1;"/><text fill="#000000" font-family="Verdana" font-size="11" lengthAdjust="spacing" textLength="83.6064" x="345.4939" y="1762.9548">Callback Error?</text><text fill="#000000" font-family="Verdana" font-size="11" lengthAdjust="spacing" textLength="18.7935" x="314.7004" y="1756.2705">yes</text><text fill="#000000" font-family="Verdana" font-size="11" lengthAdjust="spacing" textLength="13.6372" x="441.1003" y="1756.2705">no</text><path d="M263.0085,1780.5801 L263.0085,1821.0784 L243.0085,1825.0784 L263.0085,1829.0784 L263.0085,1869.5767 A0,0 0 0 0 263.0085,1869.5767 L492.802,1869.5767 A0,0 0 0 0 492.802,1869.5767 L492.802,1790.5801 L482.802,1780.5801 L263.0085,1780.5801 A0,0 0 0 0 263.0085,1780.5801" fill="#FFFFFF" style="stroke:#000000;stroke-width:1;"/><path d="M482.802,1780.5801 L482.802,1790.5801 L492.802,1790.5801 L482.802,1780.5801" fill="#FFFFFF" style="stroke:#000000;stroke-width:1;"/><text fill="#000000" font-family="Verdana" font-size="13" font-weight="bold" lengthAdjust="spacing" textLength="114.2451" x="269.0085" y="1798.6499">Error Recovery:</text><text fill="#000000" font-family="Verdana" font-size="13" lengthAdjust="spacing" textLength="117.7998" x="269.0085" y="1814.4492">- Log error details</text><text fill="#000000" font-family="Verdana" font-size="13" lengthAdjust="spacing" textLength="151.0234" x="269.0085" y="1830.2485">- Clean up partial state</text><text fill="#000000" font-family="Verdana" font-size="13" lengthAdjust="spacing" textLength="208.7935" x="269.0085" y="1846.0479">- Reject connection if applicable</text><text fill="#000000" font-family="Verdana" font-size="13" lengthAdjust="spacing" textLength="187.8843" x="269.0085" y="1861.8472">- Continue listener operation</text><rect fill="#90EE90" height="34.584" rx="12.5" ry="12.5" style="stroke:#000000;stroke-width:1;" width="150.6172" x="92.3914" y="1807.7864"/><text fill="#000000" font-family="Verdana" font-size="12" lengthAdjust="spacing" textLength="130.6172" x="102.3914" y="1829.8508">Handle Callback Error</text><path d="M256.657,1879.5767 L256.657,1912.1753 L236.657,1916.1753 L256.657,1920.1753 L256.657,1952.7739 A0,0 0 0 0 256.657,1952.7739 L511.3015,1952.7739 A0,0 0 0 0 511.3015,1952.7739 L511.3015,1889.5767 L501.3015,1879.5767 L256.657,1879.5767 A0,0 0 0 0 256.657,1879.5767" fill="#FFFFFF" style="stroke:#000000;stroke-width:1;"/><path d="M501.3015,1879.5767 L501.3015,1889.5767 L511.3015,1889.5767 L501.3015,1879.5767" fill="#FFFFFF" style="stroke:#000000;stroke-width:1;"/><text fill="#000000" font-family="Verdana" font-size="13" font-weight="bold" lengthAdjust="spacing" textLength="90.6318" x="262.657" y="1897.6465">Error Codes:</text><text fill="#000000" font-family="Verdana" font-size="13" lengthAdjust="spacing" textLength="233.6445" x="262.657" y="1913.4458">- QUIC_STATUS_INTERNAL_ERROR</text><text fill="#000000" font-family="Verdana" font-size="13" lengthAdjust="spacing" textLength="232.8892" x="262.657" y="1929.2451">- QUIC_STATUS_OUT_OF_MEMORY</text><text fill="#000000" font-family="Verdana" font-size="13" lengthAdjust="spacing" textLength="179.4736" x="262.657" y="1945.0444">- Application-specific errors</text><rect fill="#90EE90" height="34.584" rx="12.5" ry="12.5" style="stroke:#000000;stroke-width:1;" width="137.9141" x="98.7429" y="1898.8833"/><text fill="#000000" font-family="Verdana" font-size="12" lengthAdjust="spacing" textLength="117.9141" x="108.7429" y="1920.9478">Return Error Status</text><rect fill="#90EE90" height="34.584" rx="12.5" ry="12.5" style="stroke:#000000;stroke-width:1;" width="151.1855" x="531.3015" y="1780.5801"/><text fill="#000000" font-family="Verdana" font-size="12" lengthAdjust="spacing" textLength="131.1855" x="541.3015" y="1802.6445">Successful Processing</text><polygon fill="#90EE90" points="387.2971,1958.7739,399.2971,1970.7739,387.2971,1982.7739,375.2971,1970.7739,387.2971,1958.7739" style="stroke:#000000;stroke-width:1;"/><path d="M499.5745,2004.7739 L499.5745,2029.4729 L479.5745,2033.4729 L499.5745,2037.4729 L499.5745,2062.1719 A0,0 0 0 0 499.5745,2062.1719 L797.1736,2062.1719 A0,0 0 0 0 797.1736,2062.1719 L797.1736,2014.7739 L787.1736,2004.7739 L499.5745,2004.7739 A0,0 0 0 0 499.5745,2004.7739" fill="#FFFFFF" style="stroke:#000000;stroke-width:1;"/><path d="M787.1736,2004.7739 L787.1736,2014.7739 L797.1736,2014.7739 L787.1736,2004.7739" fill="#FFFFFF" style="stroke:#000000;stroke-width:1;"/><text fill="#000000" font-family="Verdana" font-size="13" font-weight="bold" lengthAdjust="spacing" textLength="276.5991" x="505.5745" y="2022.8438">Reference: Application Layer Diagram</text><text fill="#000000" font-family="Verdana" font-size="13" lengthAdjust="spacing" textLength="209.0029" x="505.5745" y="2038.6431">Callback return value processed</text><text fill="#000000" font-family="Verdana" font-size="13" lengthAdjust="spacing" textLength="127.8228" x="505.5745" y="2054.4424">by application layer</text><rect fill="#90EE90" height="34.584" rx="12.5" ry="12.5" style="stroke:#000000;stroke-width:1;" width="184.5547" x="295.0198" y="2016.1809"/><text fill="#000000" font-family="Verdana" font-size="12" lengthAdjust="spacing" textLength="164.5547" x="305.0198" y="2038.2454">Return to Application Layer</text><path d="M107.1204,2082.1719 L107.1204,2186.9678 L366.2971,2186.9678 L366.2971,2092.1719 L356.2971,2082.1719 L107.1204,2082.1719" fill="#FFFFFF" style="stroke:#000000;stroke-width:1;"/><path d="M356.2971,2082.1719 L356.2971,2092.1719 L366.2971,2092.1719 L356.2971,2082.1719" fill="#FFFFFF" style="stroke:#000000;stroke-width:1;"/><text fill="#000000" font-family="Verdana" font-size="13" font-weight="bold" lengthAdjust="spacing" textLength="198.3516" x="113.1204" y="2100.2417">Listener Callback Features:</text><text fill="#000000" font-family="Verdana" font-size="13" lengthAdjust="spacing" textLength="238.1768" x="113.1204" y="2116.041">- Server-side connection acceptance</text><text fill="#000000" font-family="Verdana" font-size="13" lengthAdjust="spacing" textLength="234.4253" x="113.1204" y="2131.8403">- Connection filtering and validation</text><text fill="#000000" font-family="Verdana" font-size="13" lengthAdjust="spacing" textLength="160.8496" x="113.1204" y="2147.6396">- Resource management</text><text fill="#000000" font-family="Verdana" font-size="13" lengthAdjust="spacing" textLength="173.3926" x="113.1204" y="2163.439">- Configuration application</text><text fill="#000000" font-family="Verdana" font-size="13" lengthAdjust="spacing" textLength="193.0005" x="113.1204" y="2179.2383">- Security policy enforcement</text><path d="M408.2971,2082.1719 L408.2971,2186.9678 L700.907,2186.9678 L700.907,2092.1719 L690.907,2082.1719 L408.2971,2082.1719" fill="#FFFFFF" style="stroke:#000000;stroke-width:1;"/><path d="M690.907,2082.1719 L690.907,2092.1719 L700.907,2092.1719 L690.907,2082.1719" fill="#FFFFFF" style="stroke:#000000;stroke-width:1;"/><text fill="#000000" font-family="Verdana" font-size="13" font-weight="bold" lengthAdjust="spacing" textLength="145.355" x="414.2971" y="2100.2417">Performance Notes:</text><text fill="#000000" font-family="Verdana" font-size="13" lengthAdjust="spacing" textLength="225.6465" x="414.2971" y="2116.041">- Called on MsQuic worker threads</text><text fill="#000000" font-family="Verdana" font-size="13" lengthAdjust="spacing" textLength="150.5474" x="414.2971" y="2131.8403">- Should return quickly</text><text fill="#000000" font-family="Verdana" font-size="13" lengthAdjust="spacing" textLength="252.6812" x="414.2971" y="2147.6396">- Heavy processing should be deferred</text><text fill="#000000" font-family="Verdana" font-size="13" lengthAdjust="spacing" textLength="256.6929" x="414.2971" y="2163.439">- Connection acceptance is critical path</text><text fill="#000000" font-family="Verdana" font-size="13" lengthAdjust="spacing" textLength="271.6099" x="414.2971" y="2179.2383">- Error handling affects server availability</text><ellipse cx="387.2971" cy="2134.5698" fill="none" rx="11" ry="11" style="stroke:#000000;stroke-width:1;"/><ellipse cx="387.2971" cy="2134.5698" fill="#FFFFFF" rx="6" ry="6" style="stroke:#000000;stroke-width:1;"/><line style="stroke:#000000;stroke-width:1;" x1="387.2971" x2="387.2971" y1="158.7429" y2="207.3562"/><polygon fill="#000000" points="383.2971,197.3562,387.2971,207.3562,391.2971,197.3562,387.2971,201.3562" style="stroke:#000000;stroke-width:1;"/><line style="stroke:#000000;stroke-width:1;" x1="387.2971" x2="387.2971" y1="241.9402" y2="290.5535"/><polygon fill="#000000" points="383.2971,280.5535,387.2971,290.5535,391.2971,280.5535,387.2971,284.5535" style="stroke:#000000;stroke-width:1;"/><line style="stroke:#000000;stroke-width:1;" x1="387.2971" x2="387.2971" y1="72.7373" y2="124.1589"/><polygon fill="#000000" points="383.2971,114.1589,387.2971,124.1589,391.2971,114.1589,387.2971,118.1589" style="stroke:#000000;stroke-width:1;"/><line style="stroke:#000000;stroke-width:1;" x1="387.2971" x2="387.2971" y1="325.1375" y2="399.9661"/><polygon fill="#000000" points="383.2971,389.9661,387.2971,399.9661,391.2971,389.9661,387.2971,393.9661" style="stroke:#000000;stroke-width:1;"/><line style="stroke:#000000;stroke-width:1;" x1="387.2971" x2="387.2971" y1="583.4609" y2="679.4722"/><polygon fill="#000000" points="383.2971,669.4722,387.2971,679.4722,391.2971,669.4722,387.2971,673.4722" style="stroke:#000000;stroke-width:1;"/><line style="stroke:#000000;stroke-width:1;" x1="126.792" x2="126.792" y1="857.0527" y2="929.365"/><polygon fill="#000000" points="122.792,919.365,126.792,929.365,130.792,919.365,126.792,923.365" style="stroke:#000000;stroke-width:1;"/><line style="stroke:#000000;stroke-width:1;" x1="126.792" x2="126.792" y1="963.949" y2="1020.4619"/><polygon fill="#000000" points="122.792,1010.4619,126.792,1020.4619,130.792,1010.4619,126.792,1014.4619" style="stroke:#000000;stroke-width:1;"/><line style="stroke:#000000;stroke-width:1;" x1="321.2263" x2="126.792" y1="781.1621" y2="781.1621"/><line style="stroke:#000000;stroke-width:1;" x1="126.792" x2="126.792" y1="781.1621" y2="822.4688"/><polygon fill="#000000" points="122.792,812.4688,126.792,822.4688,130.792,812.4688,126.792,816.4688" style="stroke:#000000;stroke-width:1;"/><line style="stroke:#000000;stroke-width:1;" x1="453.3679" x2="647.8022" y1="781.1621" y2="781.1621"/><line style="stroke:#000000;stroke-width:1;" x1="647.8022" x2="647.8022" y1="781.1621" y2="830.3684"/><polygon fill="#000000" points="643.8022,820.3684,647.8022,830.3684,651.8022,820.3684,647.8022,824.3684" style="stroke:#000000;stroke-width:1;"/><line style="stroke:#000000;stroke-width:1;" x1="126.792" x2="126.792" y1="1055.0459" y2="1092.3525"/><line style="stroke:#000000;stroke-width:1;" x1="126.792" x2="375.2971" y1="1092.3525" y2="1092.3525"/><polygon fill="#000000" points="365.2971,1088.3525,375.2971,1092.3525,365.2971,1096.3525,369.2971,1092.3525" style="stroke:#000000;stroke-width:1;"/><line style="stroke:#000000;stroke-width:1;" x1="647.8022" x2="647.8022" y1="864.9524" y2="1092.3525"/><line style="stroke:#000000;stroke-width:1;" x1="647.8022" x2="399.2971" y1="1092.3525" y2="1092.3525"/><polygon fill="#000000" points="409.2971,1088.3525,399.2971,1092.3525,409.2971,1096.3525,405.2971,1092.3525" style="stroke:#000000;stroke-width:1;"/><line style="stroke:#000000;stroke-width:1;" x1="387.2971" x2="387.2971" y1="714.0562" y2="769.1621"/><polygon fill="#000000" points="383.2971,759.1621,387.2971,769.1621,391.2971,759.1621,387.2971,763.1621" style="stroke:#000000;stroke-width:1;"/><line style="stroke:#000000;stroke-width:1;" x1="387.2971" x2="387.2971" y1="434.55" y2="548.877"/><polygon fill="#000000" points="383.2971,538.877,387.2971,548.877,391.2971,538.877,387.2971,542.877" style="stroke:#000000;stroke-width:1;"/><line style="stroke:#000000;stroke-width:1;" x1="387.2971" x2="387.2971" y1="1210.2578" y2="1266.7708"/><polygon fill="#000000" points="383.2971,1256.7708,387.2971,1266.7708,391.2971,1256.7708,387.2971,1260.7708" style="stroke:#000000;stroke-width:1;"/><line style="stroke:#000000;stroke-width:1;" x1="387.2971" x2="387.2971" y1="1301.3547" y2="1357.8677"/><polygon fill="#000000" points="383.2971,1347.8677,387.2971,1357.8677,391.2971,1347.8677,387.2971,1351.8677" style="stroke:#000000;stroke-width:1;"/><line style="stroke:#000000;stroke-width:1;" x1="387.2971" x2="387.2971" y1="1392.4517" y2="1441.0649"/><polygon fill="#000000" points="383.2971,1431.0649,387.2971,1441.0649,391.2971,1431.0649,387.2971,1435.0649" style="stroke:#000000;stroke-width:1;"/><line style="stroke:#000000;stroke-width:1;" x1="387.2971" x2="387.2971" y1="1104.3525" y2="1175.6738"/><polygon fill="#000000" points="383.2971,1165.6738,387.2971,1175.6738,391.2971,1165.6738,387.2971,1169.6738" style="stroke:#000000;stroke-width:1;"/><line style="stroke:#000000;stroke-width:1;" x1="387.2971" x2="387.2971" y1="1600.8608" y2="1641.5745"/><polygon fill="#000000" points="383.2971,1631.5745,387.2971,1641.5745,391.2971,1631.5745,387.2971,1635.5745" style="stroke:#000000;stroke-width:1;"/><line style="stroke:#000000;stroke-width:1;" x1="387.2971" x2="387.2971" y1="1475.6489" y2="1566.2769"/><polygon fill="#000000" points="383.2971,1556.2769,387.2971,1566.2769,391.2971,1556.2769,387.2971,1560.2769" style="stroke:#000000;stroke-width:1;"/><line style="stroke:#000000;stroke-width:1;" x1="167.7" x2="167.7" y1="1842.3704" y2="1898.8833"/><polygon fill="#000000" points="163.7,1888.8833,167.7,1898.8833,171.7,1888.8833,167.7,1892.8833" style="stroke:#000000;stroke-width:1;"/><line style="stroke:#000000;stroke-width:1;" x1="333.4939" x2="167.7" y1="1758.5801" y2="1758.5801"/><line style="stroke:#000000;stroke-width:1;" x1="167.7" x2="167.7" y1="1758.5801" y2="1807.7864"/><polygon fill="#000000" points="163.7,1797.7864,167.7,1807.7864,171.7,1797.7864,167.7,1801.7864" style="stroke:#000000;stroke-width:1;"/><line style="stroke:#000000;stroke-width:1;" x1="441.1003" x2="606.8943" y1="1758.5801" y2="1758.5801"/><line style="stroke:#000000;stroke-width:1;" x1="606.8943" x2="606.8943" y1="1758.5801" y2="1780.5801"/><polygon fill="#000000" points="602.8943,1770.5801,606.8943,1780.5801,610.8943,1770.5801,606.8943,1774.5801" style="stroke:#000000;stroke-width:1;"/><line style="stroke:#000000;stroke-width:1;" x1="167.7" x2="167.7" y1="1933.4673" y2="1970.7739"/><line style="stroke:#000000;stroke-width:1;" x1="167.7" x2="375.2971" y1="1970.7739" y2="1970.7739"/><polygon fill="#000000" points="365.2971,1966.7739,375.2971,1970.7739,365.2971,1974.7739,369.2971,1970.7739" style="stroke:#000000;stroke-width:1;"/><line style="stroke:#000000;stroke-width:1;" x1="606.8943" x2="606.8943" y1="1815.1641" y2="1970.7739"/><line style="stroke:#000000;stroke-width:1;" x1="606.8943" x2="399.2971" y1="1970.7739" y2="1970.7739"/><polygon fill="#000000" points="409.2971,1966.7739,399.2971,1970.7739,409.2971,1974.7739,405.2971,1970.7739" style="stroke:#000000;stroke-width:1;"/><line style="stroke:#000000;stroke-width:1;" x1="387.2971" x2="387.2971" y1="1676.1584" y2="1746.5801"/><polygon fill="#000000" points="383.2971,1736.5801,387.2971,1746.5801,391.2971,1736.5801,387.2971,1740.5801" style="stroke:#000000;stroke-width:1;"/><line style="stroke:#000000;stroke-width:1;" x1="387.2971" x2="387.2971" y1="1982.7739" y2="2016.1809"/><polygon fill="#000000" points="383.2971,2006.1809,387.2971,2016.1809,391.2971,2006.1809,387.2971,2010.1809" style="stroke:#000000;stroke-width:1;"/><line style="stroke:#000000;stroke-width:1;" x1="387.2971" x2="387.2971" y1="2050.7649" y2="2123.5698"/><polygon fill="#000000" points="383.2971,2113.5698,387.2971,2123.5698,391.2971,2113.5698,387.2971,2117.5698" style="stroke:#000000;stroke-width:1;"/><!--SRC=[fLZDRkCs4BxxATWzESQc3v0z58wY84OTEsixM_GKqDB8PasJMf9orYZwxfqXzKF5IhP03m4iSiYPRtw-6UONjuSZi59oeKRs85J93JyodZbn4kxC_XunTikpmyxeIkM9bjemANPxjpC0YZQroS64ZQr4ILoR6gDVuwL_HYCdd0Gs5zQ10iCIBkKMjzYJqHbOAzHkDBAE6pSQeGaeBRHYdoQJLd2cJZhZj3oPVF9stQmW0t421YTGZXL67zcZ_Lg9Z2NQm1SKKTe1CsGlVamcAoZ0WChW9XPaTuBl4FLaWaAjXVvIoxvNK47EjcVSgyzaTARix6OCLEvLZSWgClI0K6VhJRf8Lo_9T3w_dIQ_3zZJWbkBdUAkCd3ZZVZwF4jUrflfvdaTVa-VPfSNZb6IiGSIQCt-xDTEMkGJnAOS_71XoL_JNf5-InUR2Ki9uzLR07VWm1o5Wh3FDkToo9cjfpef6yo_PelqZvTakLYaoMQsNFYbzMRvX6kFJ_DqayOg_taJyUuwjjALGmzt0STlO4upNgB_IoEuQoEXpO2DuQuknzXSxqGMh4nvjgzJnv4o0zyhOS3YbYqX4mM6UizLBkcSf7CVMTr77AbiZKz_E8DrHM5HaFbpCrNe0QjzhFeNlimMzyl6kvI5ty1OlC9_px4mv3JFqNZh5rPmn1lZbSISIwTlgm8BW8qtyxM7PlVy05T1G0hqn5IMYk8QWWWxxSZ5EIs7888vWLbmf8pnUZ7hfGvZXF8RboAdi4GmL-XPi6u0QIrDGiaUiaERGDFvqm8BxLZYvbP8fAAWNrSc0pPxOeMGcAMX_10mQPJYA5ox0ZR8yXCNaaTtJ2laFEL489Ccx4UgzWiuec3ZQPP16OVjjoj6Dx3n6UoLBwwRDVJYsjJr5x_RmqoeKRgHUA040pE-2i2zVPWsEuNWs-koXYQAIlcLMfAqOYN81aeM2hxUJHNV8kL6zuHaxp5N3x27F816gqBiAkELl0Ef4oTmyO4UD3JspAnF8aP9QC5Hn6m4o3e3s85yC9lrva9WXTIl7gVHie-p04-WbeqneJoVsyyCNFRhrNimLu07L4osB-ld94dNwv-2P24f8E-mHPklGihWPkmShyBjksAB7D54pKkRkfMzZLRZWIQTBSDSe3w8DnVONplvGPGWBLQgqbSzn2dsPyFM3XrcVmvr1N_XhnXgxB7dnIgT9W_Jstawi1iHs2gzVrwdT-zuQukqxfiE8Qjb5XeJtc2fjSsO4Bkzi1_0nf-Yk63dNlCP8kTw2PsYIpJkM4fiWWE4rR_e3ZEjPQooJAIsC5Duruw85vEL1pAQeL4KCujfNJTDkwzShb-L9pbIDgeX7scwUDDDsbHuGxQ91AwgiXjQsZGP6ZPguQdtMykqzpZ8TMPr57BDdajFv7Mvud1M6-bzn7q1K6liOb6t6jB3K56fZMDRWTZxGrAmVO6zfJZ7bJ1WSrmd_a3zqHY_hcqRTEQQ5tvOo2Wi7KJVqo5661KTjUZ3eBqViyLxin7vgcngfujldS-aaDAviQrlDbPw6rcVMkEh67I6Ncw18zzbK5HIdZyQKfxLGP7qsx6eBGCSZrXFQ6YcykpnK4z63J8wMIduKNgkYEQgkXjxvzagyrL6w33HXAh2zYC_Cr7N23k5oOOTXJrob-t_PoYIMX5Rbc2Yv6bWrg7W61LiknWSeXyqy8Wl8eT_5rF8-uDhpp6DJsc4QETyBp8mFuGnWFNbtg7ce0RVFXezTUvOcI80VYy7D5ospREjHpAMoxQIGs28tECAG7lhcM8heMFhuCEsY7JZp9yqr__GQe98elFc-V2sYSmMctIrcCvVqjLgkHeGM3vlNfRtBu_futBrvsM7lMx7UUyUUz4o-aro7P8KYocga2znQsd0OPR413NdPy2WHG1xByuBqUZTsGRUX9jFN5RjomOpSdlk3NgIZe-wHvj5bXa5nH8AqdlvqBwlvoFoSSCXrrRaFVeBhCxHtb6lHxVJDiD49UlggNqK3Tf7hlZEpz6Zw_xC6DlkTMULeNykb1fNp-XNxEjPEDbXwhdn2GpA7CamwWCD2WA7P8CQwgVvgpO7e1a1PyZSagwzhcJUk1Kd_Uo057dD7e2Vpj4eZ4pg1N4EoIbaH0Cz3tIUOJH_eFq82ASyxlOe67AuVIroV6PbI2frw-mzGLg4_m80]--></g></svg>