<svg xmlns="http://www.w3.org/2000/svg" xmlns:xlink="http://www.w3.org/1999/xlink" contentStyleType="text/css" data-diagram-type="STATE" height="1171px" preserveAspectRatio="none" style="width:1818px;height:1171px;background:#FFFFFF;" version="1.1" viewBox="0 0 1818 1171" width="1818px" zoomAndPan="magnify"><title>HTTP/3 Layer State Transitions</title><defs/><g><g class="title" data-source-line="8"><text fill="#000000" font-family="Verdana" font-size="22" font-weight="bold" lengthAdjust="spacing" textLength="389.7051" x="709.8621" y="37.1182">HTTP/3 Layer State Transitions</text></g><!--cluster HTTP3--><g class="cluster" data-entity="HTTP3" data-source-line="10" data-uid="ent0002" id="cluster_HTTP3"><path d="M337,112.9473 L973,112.9473 A12.5,12.5 0 0 1 985.5,125.4473 L985.5,134.962 L324.5,134.962 L324.5,125.4473 A12.5,12.5 0 0 1 337,112.9473" fill="#E0FFFF"/><path d="M324.5,134.962 L985.5,134.962 L985.5,1142.4473 A12.5,12.5 0 0 1 973,1154.9473 L337,1154.9473 A12.5,12.5 0 0 1 324.5,1142.4473 L324.5,134.962" fill="#FFFFFF"/><rect fill="none" height="1042" rx="12.5" ry="12.5" style="stroke:#000000;stroke-width:1;" width="661" x="324.5" y="112.9473"/><line style="stroke:#000000;stroke-width:1;" x1="324.5" x2="985.5" y1="134.962" y2="134.962"/><text fill="#000000" font-family="Verdana" font-size="14" lengthAdjust="spacing" textLength="144.7646" x="582.6177" y="131.0225">HTTP/3 Layer States</text></g><g id="HTTP3.H3_INIT"><rect fill="#E0FFFF" height="51.5986" rx="12.5" ry="12.5" style="stroke:#000000;stroke-width:1;" width="149.0879" x="713" y="314.9473"/><line style="stroke:#000000;stroke-width:1;" x1="713" x2="862.0879" y1="341.962" y2="341.962"/><text fill="#000000" font-family="Verdana" font-size="14" lengthAdjust="spacing" textLength="59.2061" x="757.9409" y="334.0225">H3_INIT</text><text fill="#000000" font-family="Verdana" font-size="12" lengthAdjust="spacing" textLength="129.0879" x="718" y="359.0264">HTTP/3 not initialized</text></g><g id="HTTP3.H3_SETTINGS_PENDING"><rect fill="#E0FFFF" height="51.5986" rx="12.5" ry="12.5" style="stroke:#000000;stroke-width:1;" width="195.4648" x="625" y="480.9473"/><line style="stroke:#000000;stroke-width:1;" x1="625" x2="820.4648" y1="507.962" y2="507.962"/><text fill="#000000" font-family="Verdana" font-size="14" lengthAdjust="spacing" textLength="175.4648" x="635" y="500.0225">H3_SETTINGS_PENDING</text><text fill="#000000" font-family="Verdana" font-size="12" lengthAdjust="spacing" textLength="132.6328" x="630" y="525.0264">Waiting for SETTINGS</text></g><g id="HTTP3.H3_READY"><rect fill="#E0FFFF" height="51.5986" rx="12.5" ry="12.5" style="stroke:#000000;stroke-width:1;" width="134.0586" x="802.5" y="737.9473"/><line style="stroke:#000000;stroke-width:1;" x1="802.5" x2="936.5586" y1="764.962" y2="764.962"/><text fill="#000000" font-family="Verdana" font-size="14" lengthAdjust="spacing" textLength="75.8789" x="831.5898" y="757.0225">H3_READY</text><text fill="#000000" font-family="Verdana" font-size="12" lengthAdjust="spacing" textLength="114.0586" x="807.5" y="782.0264">Ready for requests</text></g><g id="HTTP3.H3_ERROR"><rect fill="#E0FFFF" height="51.5986" rx="12.5" ry="12.5" style="stroke:#000000;stroke-width:1;" width="98.1348" x="794.5" y="919.9473"/><line style="stroke:#000000;stroke-width:1;" x1="794.5" x2="892.6348" y1="946.962" y2="946.962"/><text fill="#000000" font-family="Verdana" font-size="14" lengthAdjust="spacing" textLength="77.3965" x="804.8691" y="939.0225">H3_ERROR</text><text fill="#000000" font-family="Verdana" font-size="12" lengthAdjust="spacing" textLength="78.1348" x="799.5" y="964.0264">HTTP/3 error</text></g><ellipse cx="787.5" cy="166.9473" fill="#FFFFFF" rx="10" ry="10" style="stroke:#000000;stroke-width:1;"/><ellipse cx="841.5" cy="1119.9473" fill="none" rx="11" ry="11" style="stroke:#000000;stroke-width:1;"/><ellipse cx="841.5" cy="1119.9473" fill="#FFFFFF" rx="6" ry="6" style="stroke:#000000;stroke-width:1;"/><g class="entity" data-entity="GMN2" data-source-line="25" data-uid="ent0003" id="entity_GMN2"><path d="M1010,304.4473 L1010,336.9473 L862.21,340.9473 L1010,344.9473 L1010,377.6446 A0,0 0 0 0 1010,377.6446 L1244.77,377.6446 A0,0 0 0 0 1244.77,377.6446 L1244.77,314.4473 L1234.77,304.4473 L1010,304.4473 A0,0 0 0 0 1010,304.4473" fill="#FFFFFF" style="stroke:#000000;stroke-width:1;"/><path d="M1234.77,304.4473 L1234.77,314.4473 L1244.77,314.4473 L1234.77,304.4473" fill="#FFFFFF" style="stroke:#000000;stroke-width:1;"/><text fill="#000000" font-family="Verdana" font-size="13" font-weight="bold" lengthAdjust="spacing" textLength="205.3784" x="1016" y="322.5171">Initialization Requirements:</text><text fill="#000000" font-family="Verdana" font-size="13" lengthAdjust="spacing" textLength="197.8755" x="1016" y="338.3164">- QUIC connection established</text><text fill="#000000" font-family="Verdana" font-size="13" lengthAdjust="spacing" textLength="168.7334" x="1016" y="354.1158">- ALPN negotiated to "h3"</text><text fill="#000000" font-family="Verdana" font-size="13" lengthAdjust="spacing" textLength="213.77" x="1016" y="369.9151">- Ready for control stream setup</text></g><g class="entity" data-entity="GMN5" data-source-line="27" data-uid="ent0006" id="entity_GMN5"><path d="M1292.5,462.4473 L1292.5,551.4439 L1556.3677,551.4439 L1556.3677,472.4473 L1546.3677,462.4473 L1292.5,462.4473" fill="#FFFFFF" style="stroke:#000000;stroke-width:1;"/><path d="M1546.3677,462.4473 L1546.3677,472.4473 L1556.3677,472.4473 L1546.3677,462.4473" fill="#FFFFFF" style="stroke:#000000;stroke-width:1;"/><text fill="#000000" font-family="Verdana" font-size="13" font-weight="bold" lengthAdjust="spacing" textLength="201.1128" x="1298.5" y="480.5171">Settings Exchange Process:</text><text fill="#000000" font-family="Verdana" font-size="13" lengthAdjust="spacing" textLength="227.0557" x="1298.5" y="496.3164">- Control streams (ID 2/3) created</text><text fill="#000000" font-family="Verdana" font-size="13" lengthAdjust="spacing" textLength="202.4077" x="1298.5" y="512.1158">- SETTINGS frames exchanged</text><text fill="#000000" font-family="Verdana" font-size="13" lengthAdjust="spacing" textLength="242.8677" x="1298.5" y="527.9151">- WebTransport capability negotiated</text><text fill="#000000" font-family="Verdana" font-size="13" lengthAdjust="spacing" textLength="208.2412" x="1298.5" y="543.7144">- QPACK parameters configured</text></g><g class="entity" data-entity="GMN8" data-source-line="29" data-uid="ent0009" id="entity_GMN8"><path d="M1267,711.4473 L1267,816.2432 L1610.061,816.2432 L1610.061,721.4473 L1600.061,711.4473 L1267,711.4473" fill="#FFFFFF" style="stroke:#000000;stroke-width:1;"/><path d="M1600.061,711.4473 L1600.061,721.4473 L1610.061,721.4473 L1600.061,711.4473" fill="#FFFFFF" style="stroke:#000000;stroke-width:1;"/><text fill="#000000" font-family="Verdana" font-size="13" font-weight="bold" lengthAdjust="spacing" textLength="182.5459" x="1273" y="729.5171">Ready State Capabilities:</text><text fill="#000000" font-family="Verdana" font-size="13" lengthAdjust="spacing" textLength="19.5635" x="1273" y="745.3164">&#226;&#8224;&#8217;</text><text fill="#000000" font-family="Verdana" font-size="13" font-weight="bold" lengthAdjust="spacing" textLength="297.9272" x="1297.1338" y="745.3164">Reference: WebTransport Session States</text><text fill="#000000" font-family="Verdana" font-size="13" lengthAdjust="spacing" textLength="197.8755" x="1273" y="761.1158">- CONNECT requests accepted</text><text fill="#000000" font-family="Verdana" font-size="13" lengthAdjust="spacing" textLength="199.5957" x="1273" y="776.9151">- REQUEST streams processed</text><text fill="#000000" font-family="Verdana" font-size="13" lengthAdjust="spacing" textLength="147.6592" x="1273" y="792.7144">- Frame parsing active</text><text fill="#000000" font-family="Verdana" font-size="13" lengthAdjust="spacing" textLength="260.9585" x="1273" y="808.5137">- QPACK encoding/decoding operational</text></g><g class="entity" data-entity="GMN11" data-source-line="31" data-uid="ent0012" id="entity_GMN11"><path d="M1010,893.4473 L1010,941.9473 L892.91,945.9473 L1010,949.9473 L1010,998.2432 A0,0 0 0 0 1010,998.2432 L1182.9248,998.2432 A0,0 0 0 0 1182.9248,998.2432 L1182.9248,903.4473 L1172.9248,893.4473 L1010,893.4473 A0,0 0 0 0 1010,893.4473" fill="#FFFFFF" style="stroke:#000000;stroke-width:1;"/><path d="M1172.9248,893.4473 L1172.9248,903.4473 L1182.9248,903.4473 L1172.9248,893.4473" fill="#FFFFFF" style="stroke:#000000;stroke-width:1;"/><text fill="#000000" font-family="Verdana" font-size="13" font-weight="bold" lengthAdjust="spacing" textLength="124.2554" x="1016" y="911.5171">Error Conditions:</text><text fill="#000000" font-family="Verdana" font-size="13" lengthAdjust="spacing" textLength="128.959" x="1016" y="927.3164">- Malformed frames</text><text fill="#000000" font-family="Verdana" font-size="13" lengthAdjust="spacing" textLength="148.3384" x="1016" y="943.1158">- Invalid stream usage</text><text fill="#000000" font-family="Verdana" font-size="13" lengthAdjust="spacing" textLength="99.1377" x="1016" y="958.9151">- QPACK errors</text><text fill="#000000" font-family="Verdana" font-size="13" lengthAdjust="spacing" textLength="130.6919" x="1016" y="974.7144">- Settings violations</text><text fill="#000000" font-family="Verdana" font-size="13" lengthAdjust="spacing" textLength="151.9248" x="1016" y="990.5137">- Unsupported features</text></g><g class="entity" data-entity="GMN14" data-source-line="34" data-uid="ent0015" id="entity_GMN14"><path d="M11,296.4473 L11,385.4439 A0,0 0 0 0 11,385.4439 L300.3853,385.4439 A0,0 0 0 0 300.3853,385.4439 L300.3853,385.4439 L636.04,480.9373 L300.3853,377.4439 L300.3853,306.4473 L290.3853,296.4473 L11,296.4473 A0,0 0 0 0 11,296.4473" fill="#FFFFFF" style="stroke:#000000;stroke-width:1;"/><path d="M290.3853,296.4473 L290.3853,306.4473 L300.3853,306.4473 L290.3853,296.4473" fill="#FFFFFF" style="stroke:#000000;stroke-width:1;"/><text fill="#000000" font-family="Verdana" font-size="13" font-weight="bold" lengthAdjust="spacing" textLength="268.3853" x="17" y="314.5171">Critical SETTINGS for WebTransport:</text><text fill="#000000" font-family="Verdana" font-size="13" lengthAdjust="spacing" textLength="207.6382" x="17" y="330.3164">- ENABLE_WEBTRANSPORT = 1</text><text fill="#000000" font-family="Verdana" font-size="13" lengthAdjust="spacing" textLength="215.1348" x="17" y="346.1158">- SETTINGS_H3_DATAGRAM = 1</text><text fill="#000000" font-family="Verdana" font-size="13" lengthAdjust="spacing" textLength="193.54" x="17" y="361.9151">- MAX_FIELD_SECTION_SIZE</text><text fill="#000000" font-family="Verdana" font-size="13" lengthAdjust="spacing" textLength="215.5728" x="17" y="377.7144">- QPACK_MAX_TABLE_CAPACITY</text></g><g class="entity" data-entity="GMN17" data-source-line="37" data-uid="ent0018" id="entity_GMN17"><path d="M1591.5,470.4473 L1591.5,543.6446 L1811.4292,543.6446 L1811.4292,480.4473 L1801.4292,470.4473 L1591.5,470.4473" fill="#FFFFFF" style="stroke:#000000;stroke-width:1;"/><path d="M1801.4292,470.4473 L1801.4292,480.4473 L1811.4292,480.4473 L1801.4292,470.4473" fill="#FFFFFF" style="stroke:#000000;stroke-width:1;"/><text fill="#000000" font-family="Verdana" font-size="13" font-weight="bold" lengthAdjust="spacing" textLength="172.7388" x="1597.5" y="488.5171">Dependency Reference:</text><text fill="#000000" font-family="Verdana" font-size="13" lengthAdjust="spacing" textLength="19.5635" x="1597.5" y="504.3164">&#226;&#8224;&#8217;</text><text fill="#000000" font-family="Verdana" font-size="13" font-weight="bold" lengthAdjust="spacing" textLength="174.7954" x="1621.6338" y="504.3164">QUIC Connection States</text><text fill="#000000" font-family="Verdana" font-size="13" lengthAdjust="spacing" textLength="180.7559" x="1597.5" y="520.1158">Requires CONNECTED state</text><text fill="#000000" font-family="Verdana" font-size="13" lengthAdjust="spacing" textLength="176.9727" x="1597.5" y="535.9151">before HTTP/3 initialization</text></g><g class="entity" data-entity="GMN20" data-source-line="39" data-uid="ent0021" id="entity_GMN20"><path d="M1218.5,917.4473 L1218.5,974.8453 L1626.9292,974.8453 L1626.9292,927.4473 L1616.9292,917.4473 L1218.5,917.4473" fill="#FFFFFF" style="stroke:#000000;stroke-width:1;"/><path d="M1616.9292,917.4473 L1616.9292,927.4473 L1626.9292,927.4473 L1616.9292,917.4473" fill="#FFFFFF" style="stroke:#000000;stroke-width:1;"/><text fill="#000000" font-family="Verdana" font-size="13" font-weight="bold" lengthAdjust="spacing" textLength="147.6528" x="1224.5" y="935.5171">Enables References:</text><text fill="#000000" font-family="Verdana" font-size="13" lengthAdjust="spacing" textLength="19.5635" x="1224.5" y="951.3164">&#226;&#8224;&#8217;</text><text fill="#000000" font-family="Verdana" font-size="13" font-weight="bold" lengthAdjust="spacing" textLength="145.7993" x="1248.6338" y="951.3164">QUIC Stream States</text><text fill="#000000" font-family="Verdana" font-size="13" lengthAdjust="spacing" textLength="173.4307" x="1394.4331" y="951.3164">: Request/Control streams</text><text fill="#000000" font-family="Verdana" font-size="13" lengthAdjust="spacing" textLength="19.5635" x="1224.5" y="967.1158">&#226;&#8224;&#8217;</text><text fill="#000000" font-family="Verdana" font-size="13" font-weight="bold" lengthAdjust="spacing" textLength="214.6904" x="1248.6338" y="967.1158">WebTransport Session States</text><text fill="#000000" font-family="Verdana" font-size="13" lengthAdjust="spacing" textLength="148.605" x="1463.3242" y="967.1158">: CONNECT processing</text></g><g class="entity" data-entity="GMN23" data-source-line="42" data-uid="ent0024" id="entity_GMN23"><path d="M1010,114.4473 L1010,219.2432 L1231.0464,219.2432 L1231.0464,124.4473 L1221.0464,114.4473 L1010,114.4473" fill="#FFFFFF" style="stroke:#000000;stroke-width:1;"/><path d="M1221.0464,114.4473 L1221.0464,124.4473 L1231.0464,124.4473 L1221.0464,114.4473" fill="#FFFFFF" style="stroke:#000000;stroke-width:1;"/><text fill="#000000" font-family="Verdana" font-size="13" font-weight="bold" lengthAdjust="spacing" textLength="195" x="1016" y="132.5171">HTTP/3 Protocol Features:</text><text fill="#000000" font-family="Verdana" font-size="13" lengthAdjust="spacing" textLength="151.3535" x="1016" y="148.3164">- RFC 9114 compliance</text><text fill="#000000" font-family="Verdana" font-size="13" lengthAdjust="spacing" textLength="191.7563" x="1016" y="164.1158">- QPACK header compression</text><text fill="#000000" font-family="Verdana" font-size="13" lengthAdjust="spacing" textLength="142.9238" x="1016" y="179.9151">- Stream multiplexing</text><text fill="#000000" font-family="Verdana" font-size="13" lengthAdjust="spacing" textLength="200.0464" x="1016" y="195.7144">- Frame-based communication</text><text fill="#000000" font-family="Verdana" font-size="13" lengthAdjust="spacing" textLength="168.9429" x="1016" y="211.5137">- Error code management</text></g><g class="entity" data-entity="GMN26" data-source-line="45" data-uid="ent0027" id="entity_GMN26"><path d="M1010,462.4473 L1010,502.9473 L820.03,506.9473 L1010,510.9473 L1010,551.4439 A0,0 0 0 0 1010,551.4439 L1257.1606,551.4439 A0,0 0 0 0 1257.1606,551.4439 L1257.1606,472.4473 L1247.1606,462.4473 L1010,462.4473 A0,0 0 0 0 1010,462.4473" fill="#FFFFFF" style="stroke:#000000;stroke-width:1;"/><path d="M1247.1606,462.4473 L1247.1606,472.4473 L1257.1606,472.4473 L1247.1606,462.4473" fill="#FFFFFF" style="stroke:#000000;stroke-width:1;"/><text fill="#000000" font-family="Verdana" font-size="13" font-weight="bold" lengthAdjust="spacing" textLength="143.7173" x="1016" y="480.5171">Settings Validation:</text><text fill="#000000" font-family="Verdana" font-size="13" lengthAdjust="spacing" textLength="189.4521" x="1016" y="496.3164">- Mandatory settings present</text><text fill="#000000" font-family="Verdana" font-size="13" lengthAdjust="spacing" textLength="223.793" x="1016" y="512.1158">- Compatible QPACK configuration</text><text fill="#000000" font-family="Verdana" font-size="13" lengthAdjust="spacing" textLength="226.1606" x="1016" y="527.9151">- WebTransport support confirmed</text><text fill="#000000" font-family="Verdana" font-size="13" lengthAdjust="spacing" textLength="185.5166" x="1016" y="543.7144">- Datagram support enabled</text></g><g class="entity" data-entity="GMN29" data-source-line="54" data-uid="ent0030" id="entity_GMN29"><path d="M1009.5,1075.4473 L1009.5,1164.4439 L1205.5938,1164.4439 L1205.5938,1085.4473 L1195.5938,1075.4473 L1009.5,1075.4473" fill="#FFFFFF" style="stroke:#000000;stroke-width:1;"/><path d="M1195.5938,1075.4473 L1195.5938,1085.4473 L1205.5938,1085.4473 L1195.5938,1075.4473" fill="#FFFFFF" style="stroke:#000000;stroke-width:1;"/><text fill="#000000" font-family="Verdana" font-size="13" font-weight="bold" lengthAdjust="spacing" textLength="175.0938" x="1015.5" y="1093.5171">Error Recovery Options:</text><text fill="#000000" font-family="Verdana" font-size="13" lengthAdjust="spacing" textLength="156.9395" x="1015.5" y="1109.3164">- Connection-level reset</text><text fill="#000000" font-family="Verdana" font-size="13" lengthAdjust="spacing" textLength="147.3735" x="1015.5" y="1125.1158">- Graceful degradation</text><text fill="#000000" font-family="Verdana" font-size="13" lengthAdjust="spacing" textLength="139.7183" x="1015.5" y="1140.9151">- Protocol downgrade</text><text fill="#000000" font-family="Verdana" font-size="13" lengthAdjust="spacing" textLength="163.2554" x="1015.5" y="1156.7144">- Connection termination</text></g><g class="entity" data-entity="GMN32" data-source-line="57" data-uid="ent0033" id="entity_GMN32"><path d="M1009.5,711.4473 L1009.5,759.9473 L936.66,763.9473 L1009.5,767.9473 L1009.5,816.2432 A0,0 0 0 0 1009.5,816.2432 L1231.3525,816.2432 A0,0 0 0 0 1231.3525,816.2432 L1231.3525,721.4473 L1221.3525,711.4473 L1009.5,711.4473 A0,0 0 0 0 1009.5,711.4473" fill="#FFFFFF" style="stroke:#000000;stroke-width:1;"/><path d="M1221.3525,711.4473 L1221.3525,721.4473 L1231.3525,721.4473 L1221.3525,711.4473" fill="#FFFFFF" style="stroke:#000000;stroke-width:1;"/><text fill="#000000" font-family="Verdana" font-size="13" font-weight="bold" lengthAdjust="spacing" textLength="156.6094" x="1015.5" y="729.5171">Stream Management:</text><text fill="#000000" font-family="Verdana" font-size="13" lengthAdjust="spacing" textLength="192.6196" x="1015.5" y="745.3164">- Control streams operational</text><text fill="#000000" font-family="Verdana" font-size="13" lengthAdjust="spacing" textLength="200.8525" x="1015.5" y="761.1158">- Request streams multiplexed</text><text fill="#000000" font-family="Verdana" font-size="13" lengthAdjust="spacing" textLength="169.0317" x="1015.5" y="776.9151">- Frame processing active</text><text fill="#000000" font-family="Verdana" font-size="13" lengthAdjust="spacing" textLength="150.7949" x="1015.5" y="792.7144">- Flow control enforced</text><text fill="#000000" font-family="Verdana" font-size="13" lengthAdjust="spacing" textLength="171.2661" x="1015.5" y="808.5137">- GOAWAY handling ready</text></g><!--link *start*HTTP3 to H3_INIT--><g class="link" data-entity-1=".start.HTTP3" data-entity-2="H3_INIT" data-source-line="16" data-uid="lnk3" id="link_.start.HTTP3_H3_INIT"><path d="M787.5,177.1973 C787.5,202.8773 787.5,269.7173 787.5,308.6573" fill="none" id="*start*HTTP3-to-H3_INIT" style="stroke:#000000;stroke-width:1;"/><polygon fill="#000000" points="787.5,314.6573,791.5,305.6573,787.5,309.6573,783.5,305.6573,787.5,314.6573" style="stroke:#000000;stroke-width:1;"/><text fill="#000000" font-family="Verdana" font-size="13" lengthAdjust="spacing" textLength="150.8394" x="788.5" y="263.5171">Connection established</text></g><!--link H3_INIT to H3_SETTINGS_PENDING--><g class="link" data-entity-1="H3_INIT" data-entity-2="H3_SETTINGS_PENDING" data-source-line="17" data-uid="lnk4" id="link_H3_INIT_H3_SETTINGS_PENDING"><path d="M777.49,367.2173 C765.24,398.1173 746.8418,444.5498 734.6318,475.3398" fill="none" id="H3_INIT-to-H3_SETTINGS_PENDING" style="stroke:#000000;stroke-width:1;"/><polygon fill="#000000" points="732.42,480.9173,739.456,474.0256,734.2632,476.2694,732.0194,471.0766,732.42,480.9173" style="stroke:#000000;stroke-width:1;"/><text fill="#000000" font-family="Verdana" font-size="13" lengthAdjust="spacing" textLength="150.9409" x="757.5" y="429.5171">Control stream created</text></g><!--link H3_SETTINGS_PENDING to H3_READY--><g class="link" data-entity-1="H3_SETTINGS_PENDING" data-entity-2="H3_READY" data-source-line="18" data-uid="lnk5" id="link_H3_SETTINGS_PENDING_H3_READY"><path d="M624.62,523.2073 C590.62,533.7173 555.93,551.4673 535.5,581.4473 C510.47,618.1773 508.05,646.4973 535.5,681.4473 C543.84,692.0673 701.4834,727.1493 796.5734,747.5393" fill="none" id="H3_SETTINGS_PENDING-to-H3_READY" style="stroke:#000000;stroke-width:1;"/><polygon fill="#000000" points="802.44,748.7973,794.4787,742.9992,797.5511,747.749,792.8014,750.8214,802.44,748.7973" style="stroke:#000000;stroke-width:1;"/><text fill="#000000" font-family="Verdana" font-size="13" lengthAdjust="spacing" textLength="142.2764" x="536.5" y="637.0171">SETTINGS exchanged</text></g><!--link H3_READY to H3_SETTINGS_PENDING--><g class="link" data-entity-1="H3_READY" data-entity-2="H3_SETTINGS_PENDING" data-source-line="49" data-uid="lnk11" id="link_H3_READY_H3_SETTINGS_PENDING"><path d="M854.93,737.6673 C826.8,688.8673 768.3067,587.4053 740.1267,538.5253" fill="none" id="H3_READY-to-H3_SETTINGS_PENDING" style="stroke:#000000;stroke-width:1;"/><polygon fill="#000000" points="737.13,533.3273,738.1598,543.1222,739.6273,537.659,745.0905,539.1265,737.13,533.3273" style="stroke:#000000;stroke-width:1;"/><text fill="#000000" font-family="Verdana" font-size="13" lengthAdjust="spacing" textLength="53.5425" x="914.4478" y="595.5171">Settings</text><text fill="#000000" font-family="Verdana" font-size="13" lengthAdjust="spacing" textLength="86.5566" x="897.9407" y="611.3164">renegotiation</text><path d="M826.5,620.0459 L826.5,677.0459 L1055.5,677.0459 L1055.5,630.0459 L1045.5,620.0459 L826.5,620.0459" fill="#FFFFFF" style="stroke:#000000;stroke-width:1;"/><path d="M1045.5,620.0459 L1045.5,630.0459 L1055.5,630.0459 L1045.5,620.0459" fill="#FFFFFF" style="stroke:#000000;stroke-width:1;"/><text fill="#000000" font-family="Verdana" font-size="13" font-weight="bold" lengthAdjust="spacing" textLength="107.542" x="832.5" y="638.1158">Renegotiation:</text><text fill="#000000" font-family="Verdana" font-size="13" lengthAdjust="spacing" textLength="100.0645" x="832.5" y="653.9151">Rare edge case</text><text fill="#000000" font-family="Verdana" font-size="13" lengthAdjust="spacing" textLength="208.438" x="832.5" y="669.7144">Typically for parameter updates</text></g><!--link H3_SETTINGS_PENDING to H3_ERROR--><g class="link" data-entity-1="H3_SETTINGS_PENDING" data-entity-2="H3_ERROR" data-source-line="19" data-uid="lnk6" id="link_H3_SETTINGS_PENDING_H3_ERROR"><path d="M624.92,516.2173 C581.56,525.3273 534.34,543.9073 507.5,581.4473 C494.58,599.5273 498.14,661.2973 507.5,681.4473 C565.45,806.1573 710.3841,885.9907 788.8141,921.8807" fill="none" id="H3_SETTINGS_PENDING-to-H3_ERROR" style="stroke:#000000;stroke-width:1;"/><polygon fill="#000000" points="794.27,924.3773,787.7506,916.9951,789.7234,922.2968,784.4217,924.2696,794.27,924.3773" style="stroke:#000000;stroke-width:1;"/><text fill="#000000" font-family="Verdana" font-size="13" lengthAdjust="spacing" textLength="116.2954" x="615.5" y="761.5171">Invalid SETTINGS</text><text fill="#000000" font-family="Verdana" font-size="13" lengthAdjust="spacing" textLength="53.2061" x="647.0447" y="777.3164">Timeout</text></g><!--link H3_READY to H3_ERROR--><g class="link" data-entity-1="H3_READY" data-entity-2="H3_ERROR" data-source-line="20" data-uid="lnk7" id="link_H3_READY_H3_ERROR"><path d="M865.88,789.9773 C860.93,824.2673 852.948,879.569 847.988,913.899" fill="none" id="H3_READY-to-H3_ERROR" style="stroke:#000000;stroke-width:1;"/><polygon fill="#000000" points="847.13,919.8373,852.3759,911.5018,847.845,914.8887,844.4581,910.3578,847.13,919.8373" style="stroke:#000000;stroke-width:1;"/><text fill="#000000" font-family="Verdana" font-size="13" lengthAdjust="spacing" textLength="112.4233" x="857.5" y="860.5171">Protocol violation</text></g><!--link H3_ERROR to *end*HTTP3--><g class="link" data-entity-1="H3_ERROR" data-entity-2=".end.HTTP3" data-source-line="21" data-uid="lnk9" id="link_H3_ERROR_.end.HTTP3"><path d="M843.21,971.9573 C842.76,1010.3473 842,1076.1277 841.69,1102.7077" fill="none" id="H3_ERROR-to-*end*HTTP3" style="stroke:#000000;stroke-width:1;"/><polygon fill="#000000" points="841.62,1108.7073,845.7247,1099.7546,841.6783,1103.7076,837.7252,1099.6613,841.62,1108.7073" style="stroke:#000000;stroke-width:1;"/><text fill="#000000" font-family="Verdana" font-size="13" lengthAdjust="spacing" textLength="118.1616" x="843.5" y="1042.5171">Connection closed</text></g><!--link H3_INIT to H3_ERROR--><g class="link" data-entity-1="H3_INIT" data-entity-2="H3_ERROR" data-source-line="48" data-uid="lnk10" id="link_H3_INIT_H3_ERROR"><path d="M712.92,364.8173 C581.06,409.8273 326.41,519.7873 390.5,681.4473 C456.81,848.6973 685.1054,913.5672 788.2354,934.9872" fill="none" id="H3_INIT-to-H3_ERROR" style="stroke:#000000;stroke-width:1;"/><polygon fill="#000000" points="794.11,936.2073,786.1115,930.4607,789.2145,935.1905,784.4846,938.2935,794.11,936.2073" style="stroke:#000000;stroke-width:1;"/><text fill="#000000" font-family="Verdana" font-size="13" lengthAdjust="spacing" textLength="97.5317" x="391.8745" y="629.0171">Control stream</text><text fill="#000000" font-family="Verdana" font-size="13" lengthAdjust="spacing" textLength="98.2808" x="391.5" y="644.8164">creation failure</text></g><!--link H3_SETTINGS_PENDING to GMN5--><g class="link" data-entity-1="H3_SETTINGS_PENDING" data-entity-2="GMN5" data-source-line="27" data-uid="lnk7" id="link_H3_SETTINGS_PENDING_GMN5"><path d="M787.7,480.8373 C888.99,443.8473 1089.9,384.8173 1257,423.9473 C1290.02,431.6773 1323.99,446.9273 1352.64,462.2673" fill="none" id="H3_SETTINGS_PENDING-GMN5" style="stroke:#000000;stroke-width:1;stroke-dasharray:7,7;"/></g><!--link H3_READY to GMN8--><g class="link" data-entity-1="H3_READY" data-entity-2="GMN8" data-source-line="29" data-uid="lnk10" id="link_H3_READY_GMN8"><path d="M887.23,737.9473 C910.88,705.8373 956.09,652.8573 1010,631.4473 C1101.7,595.0273 1137.32,603.6873 1232,631.4473 C1285.55,647.1473 1338.36,681.4773 1377.18,711.2573" fill="none" id="H3_READY-GMN8" style="stroke:#000000;stroke-width:1;stroke-dasharray:7,7;"/></g><!--link H3_INIT to GMN17--><g class="link" data-entity-1="H3_INIT" data-entity-2="GMN17" data-source-line="37" data-uid="lnk19" id="link_H3_INIT_GMN17"><path d="M862.2,359.2573 C900.94,367.8573 949.11,377.9873 992.5,385.4473 C1249.65,429.6673 1320.5,402.7673 1574.5,462.4473 C1584.14,464.7173 1594.08,467.4273 1603.96,470.3773" fill="none" id="H3_INIT-GMN17" style="stroke:#000000;stroke-width:1;stroke-dasharray:7,7;"/></g><!--link H3_READY to GMN20--><g class="link" data-entity-1="H3_READY" data-entity-2="GMN20" data-source-line="39" data-uid="lnk22" id="link_H3_READY_GMN20"><path d="M925.96,790.0673 C946.69,798.8973 970.48,808.5773 992.5,816.4473 C1102.55,855.8073 1231.26,893.1573 1318.99,917.3373" fill="none" id="H3_READY-GMN20" style="stroke:#000000;stroke-width:1;stroke-dasharray:7,7;"/></g><!--link GMN23 to HTTP3--><g class="link" data-entity-1="GMN23" data-entity-2="HTTP3" data-source-line="42" data-uid="lnk25" id="link_GMN23_HTTP3"><path d="M1039.48,114.2673 C1014.93,101.0473 987.23,88.7173 960,81.9473 C895.08,65.8173 420.73,58.7373 358,81.9473 C348.39,85.4973 345.3,87.8973 340.5,96.9473 C338.78,100.1886 337.3533,103.6314 336.1747,107.184 C335.5854,108.9603 335.0582,110.7641 334.5874,112.5839 C334.558,112.6976 334.5287,112.8114 334.4998,112.9253" fill="none" id="GMN23-HTTP3" style="stroke:#000000;stroke-width:1;stroke-dasharray:7,7;"/></g><!--link H3_ERROR to GMN29--><g class="link" data-entity-1="H3_ERROR" data-entity-2="GMN29" data-source-line="54" data-uid="lnk31" id="link_H3_ERROR_GMN29"><path d="M882.78,971.9673 C907.91,988.0173 941.19,1009.3673 970.5,1028.4473 C993.79,1043.6173 1019.21,1060.3573 1041.76,1075.2673" fill="none" id="H3_ERROR-GMN29" style="stroke:#000000;stroke-width:1;stroke-dasharray:7,7;"/></g><!--SRC=[bLRDRkCs4BxhATXSjZLW16bwQO0jeDXArcXYUsMbQTeK1YsDRM8fKajIoRf5WNsDteg-IjzadwH3Kg9anzsYby3Xp93pyttVw0kpXH98nIaJaNx7H4KLBOasr03vBIBaakRlDahMeXX9BXNXRBCr-OuAQvEg0ENFLnmTyInMIZxtZtwF8iCC1_8co-Qdv-I6xa2HXNiWKrHePfWKEehycoSltVG9eTg5dxkKlEERy-LaEid8HNkna8OmWRTHpdw5ek-uIB9iChrUBEV9T8m_CEYUegVOa3Kcsfhx8MaIZn_GBmLQx9oNWlSrQAFxNacQpj8k1S3YLOGEFmz-8SFXTxqaHr88o6sf12-XAyxqrYNPkZJkHrB5KACanrSLu6no_6lQq1VkpJLj-gsTm8TyIyNcl-BQWYRY2TjOXFX7aR4IP6rykB_-86Qkf94v9lh49AUsLE_ixTRPjcMl5JcN6bD2ZBngUwWhoDcQvKsJgS2vKWyH_0L4MG0IkUxrTZ2Oj7DtdZYqzpLJ26nXzCLWy2Y6vEtTP4JoeqEmvlXcFYK2DXAlmUOI8yd9zlp4cZe4vFk3q63gAdgPrP4H3WOBC1PlcYJD86oxSj1jVlj3rkJBoPXyVNh-LJjkwnE6kKQEWkvcQetti79qggGo9ASLNJ7EpAvNb6l3F1vzJnp9mO3IjgOrszGAf_2oaXP5Wu5lWcVjgBsSWS_-xxy-VVppqyS_dDyQ58WSBlOJMc2bjksUq4t9i-aq6MM1M8JcELHDecdozYvPPA4VbU-MDrxPz6qLsbAOuaIVeAiEdvS56auBy3-8h40vP53ULCbXtHRPmdSmI2nzxIGAhqdDQ6ufn-cNY0hVTtlMygE1Ggtfff-1lSZvXR47JhZZEw7hoZR6NehpnVvhou7WxbuY1HZAU0Dy8wlF0MoaCEcSyXvAi9Z-49foacbyUPCixvFBB8sdY_aipSXhSjO7s18V6STPV9t6jwtjDlvnUJL9RiRu_2YRpARBnUId9DIyjFRCtJoAyM2IFTY2HafgFUHEp0keG1Gu7SIDBsabZP7b8Pd7hT-ET70wm9cZSqz8EbmrtDSjl9AnLv97iGBiIDX3R4yoeYC9TUXF16e5NXdIqKVpMNWmjBbSE1r2P9yUa7ilyhCqkGWaQV2FuB1j3LARoxBYZ69A1xXsszBctfGR8guQk3LeIAz6vDkpiszwDtKutYBhGJcJyfavbFWooveRLd7uW3a5KWvN53bg8yfQ81nD4-EfXNG4KbA1PB7Qx11lAnq6qJSeFnlKfV-hgZzODhhN0ca5_Y_Lpigqzx4ruAjURSiAlN6eJQMj38Q4zyRIaDLxMIMm7cDgwCPzB3LMS2WfR5LnuIK4wMYwRnp7I2XG-tFiaeuELdyhHFjeUHHk0rXKh54CS7JHuG8-qfgsCOy2yTfiW0xcU1TdubsZx3sxQrvAaIKXJTpykyeA2_TBCEmEKbU5HQcjDqMbVG9iTWbs9J5T7cFueTA6g5dLrzkEraCEJy29dPiRsxMYEQnhZbA2dI_2i0Au2_aih0Nsxo6ORib4qu9N0S41YQW67UETNBnO4vqQDD6t8VfVLdXlw_Zl22S6mHpuixVJ0irxQ-sAo-VmyG42fv3xcEjPV1y_4EnumMs8ibiw-WS0]--></g></svg>