<svg xmlns="http://www.w3.org/2000/svg" xmlns:xlink="http://www.w3.org/1999/xlink" contentStyleType="text/css" data-diagram-type="ACTIVITY" height="1396px" preserveAspectRatio="none" style="width:1897px;height:1396px;background:#FFFFFF;" version="1.1" viewBox="0 0 1897 1396" width="1897px" zoomAndPan="magnify"><title>Application Layer Event Flow</title><defs/><g><g class="title" data-source-line="8"><text fill="#000000" font-family="Verdana" font-size="22" font-weight="bold" lengthAdjust="spacing" textLength="358.0908" x="768.3003" y="37.1182">Application Layer Event Flow</text></g><ellipse cx="964.438" cy="62.7373" fill="#FFFFFF" rx="10" ry="10" style="stroke:#000000;stroke-width:1;"/><rect fill="#FFFFFF" height="408.019" style="stroke:#000000;stroke-width:1;" width="1867.6548" x="24.0366" y="82.7373"/><path d="M170.8169,82.7373 L170.8169,92.752 L160.8169,102.752 L24.0366,102.752" fill="none" style="stroke:#000000;stroke-width:1;"/><text fill="#000000" font-family="Verdana" font-size="14" font-weight="bold" lengthAdjust="spacing" textLength="136.7803" x="27.0366" y="97.8125">Application Layer</text><path d="M1078.6841,112.752 L1078.6841,169.0496 L1058.6841,173.0496 L1078.6841,177.0496 L1078.6841,233.3472 A0,0 0 0 0 1078.6841,233.3472 L1281.9126,233.3472 A0,0 0 0 0 1281.9126,233.3472 L1281.9126,122.752 L1271.9126,112.752 L1078.6841,112.752 A0,0 0 0 0 1078.6841,112.752" fill="#FFFFFF" style="stroke:#000000;stroke-width:1;"/><path d="M1271.9126,112.752 L1271.9126,122.752 L1281.9126,122.752 L1271.9126,112.752" fill="#FFFFFF" style="stroke:#000000;stroke-width:1;"/><text fill="#000000" font-family="Verdana" font-size="13" font-weight="bold" lengthAdjust="spacing" textLength="145.4185" x="1084.6841" y="130.8218">API Calls Examples:</text><text fill="#000000" font-family="Verdana" font-size="13" lengthAdjust="spacing" textLength="135.0908" x="1084.6841" y="146.6211">- RegistrationOpen()</text><text fill="#000000" font-family="Verdana" font-size="13" lengthAdjust="spacing" textLength="144.4028" x="1084.6841" y="162.4204">- ConfigurationOpen()</text><text fill="#000000" font-family="Verdana" font-size="13" lengthAdjust="spacing" textLength="129.3271" x="1084.6841" y="178.2197">- ConnectionOpen()</text><text fill="#000000" font-family="Verdana" font-size="13" lengthAdjust="spacing" textLength="104.3364" x="1084.6841" y="194.019">- StreamOpen()</text><text fill="#000000" font-family="Verdana" font-size="13" lengthAdjust="spacing" textLength="102.9907" x="1084.6841" y="209.8184">- StreamSend()</text><text fill="#000000" font-family="Verdana" font-size="13" lengthAdjust="spacing" textLength="182.2285" x="1084.6841" y="225.6177">- StreamReceiveComplete()</text><rect fill="#ADD8E6" height="34.584" rx="12.5" ry="12.5" style="stroke:#000000;stroke-width:1;" width="188.4922" x="870.1919" y="155.7576"/><text fill="#000000" font-family="Verdana" font-size="12" lengthAdjust="spacing" textLength="168.4922" x="880.1919" y="177.822">Application calls MsQuic API</text><rect fill="#FFFFFF" height="168.0112" style="stroke:#000000;stroke-width:1;" width="1847.6548" x="34.0366" y="243.3472"/><path d="M147.5737,243.3472 L147.5737,253.3618 L137.5737,263.3618 L34.0366,263.3618" fill="none" style="stroke:#000000;stroke-width:1;"/><text fill="#000000" font-family="Verdana" font-size="14" lengthAdjust="spacing" textLength="103.5371" x="37.0366" y="258.4224">API Categories</text><line style="stroke:#000000;stroke-width:1.5;" x1="125.5522" x2="1612.7686" y1="280.3618" y2="280.3618"/><path d="M213.0679,298.2615 L213.0679,330.8601 L193.0679,334.8601 L213.0679,338.8601 L213.0679,371.4587 A0,0 0 0 0 213.0679,371.4587 L383.2441,371.4587 A0,0 0 0 0 383.2441,371.4587 L383.2441,308.2615 L373.2441,298.2615 L213.0679,298.2615 A0,0 0 0 0 213.0679,298.2615" fill="#FFFFFF" style="stroke:#000000;stroke-width:1;"/><path d="M373.2441,298.2615 L373.2441,308.2615 L383.2441,308.2615 L373.2441,298.2615" fill="#FFFFFF" style="stroke:#000000;stroke-width:1;"/><text fill="#000000" font-family="Verdana" font-size="13" font-weight="bold" lengthAdjust="spacing" textLength="133.7705" x="219.0679" y="316.3313">Registration APIs:</text><text fill="#000000" font-family="Verdana" font-size="13" lengthAdjust="spacing" textLength="149.1763" x="219.0679" y="332.1306">- Process-level context</text><text fill="#000000" font-family="Verdana" font-size="13" lengthAdjust="spacing" textLength="126.2676" x="219.0679" y="347.9299">- Execution profiles</text><text fill="#000000" font-family="Verdana" font-size="13" lengthAdjust="spacing" textLength="107.4849" x="219.0679" y="363.7292">- Global settings</text><rect fill="#ADD8E6" height="34.584" rx="12.5" ry="12.5" style="stroke:#000000;stroke-width:1;" width="135.0313" x="58.0366" y="317.5681"/><text fill="#000000" font-family="Verdana" font-size="12" lengthAdjust="spacing" textLength="115.0313" x="68.0366" y="339.6326">RegistrationOpen()</text><path d="M616.3901,290.3618 L616.3901,330.8601 L596.3901,334.8601 L616.3901,338.8601 L616.3901,379.3584 A0,0 0 0 0 616.3901,379.3584 L781.0693,379.3584 A0,0 0 0 0 781.0693,379.3584 L781.0693,300.3618 L771.0693,290.3618 L616.3901,290.3618 A0,0 0 0 0 616.3901,290.3618" fill="#FFFFFF" style="stroke:#000000;stroke-width:1;"/><path d="M771.0693,290.3618 L771.0693,300.3618 L781.0693,300.3618 L771.0693,290.3618" fill="#FFFFFF" style="stroke:#000000;stroke-width:1;"/><text fill="#000000" font-family="Verdana" font-size="13" font-weight="bold" lengthAdjust="spacing" textLength="143.6792" x="622.3901" y="308.4316">Configuration APIs:</text><text fill="#000000" font-family="Verdana" font-size="13" lengthAdjust="spacing" textLength="108.2847" x="622.3901" y="324.231">- ALPN protocols</text><text fill="#000000" font-family="Verdana" font-size="13" lengthAdjust="spacing" textLength="110.1509" x="622.3901" y="340.0303">- TLS credentials</text><text fill="#000000" font-family="Verdana" font-size="13" lengthAdjust="spacing" textLength="114.2261" x="622.3901" y="355.8296">- Stream settings</text><text fill="#000000" font-family="Verdana" font-size="13" lengthAdjust="spacing" textLength="89.6289" x="622.3901" y="371.6289">- Flow control</text><rect fill="#ADD8E6" height="49.168" rx="12.5" ry="12.5" style="stroke:#000000;stroke-width:1;" width="201.998" x="394.3921" y="310.2761"/><text fill="#000000" font-family="Verdana" font-size="12" lengthAdjust="spacing" textLength="123.627" x="404.3921" y="332.3406">ConfigurationOpen()</text><text fill="#000000" font-family="Verdana" font-size="12" lengthAdjust="spacing" textLength="181.998" x="404.3921" y="346.9246">ConfigurationLoadCredential()</text><path d="M958.7803,298.2615 L958.7803,330.8601 L938.7803,334.8601 L958.7803,338.8601 L958.7803,371.4587 A0,0 0 0 0 958.7803,371.4587 L1185.8696,371.4587 A0,0 0 0 0 1185.8696,371.4587 L1185.8696,308.2615 L1175.8696,298.2615 L958.7803,298.2615 A0,0 0 0 0 958.7803,298.2615" fill="#FFFFFF" style="stroke:#000000;stroke-width:1;"/><path d="M1175.8696,298.2615 L1175.8696,308.2615 L1185.8696,308.2615 L1175.8696,298.2615" fill="#FFFFFF" style="stroke:#000000;stroke-width:1;"/><text fill="#000000" font-family="Verdana" font-size="13" font-weight="bold" lengthAdjust="spacing" textLength="125.7915" x="964.7803" y="316.3313">Connection APIs:</text><text fill="#000000" font-family="Verdana" font-size="13" lengthAdjust="spacing" textLength="184.0249" x="964.7803" y="332.1306">- Client connection initiation</text><text fill="#000000" font-family="Verdana" font-size="13" lengthAdjust="spacing" textLength="206.0894" x="964.7803" y="347.9299">- Server connection acceptance</text><text fill="#000000" font-family="Verdana" font-size="13" lengthAdjust="spacing" textLength="173.3037" x="964.7803" y="363.7292">- Connection configuration</text><rect fill="#ADD8E6" height="49.168" rx="12.5" ry="12.5" style="stroke:#000000;stroke-width:1;" width="129.7109" x="809.0693" y="310.2761"/><text fill="#000000" font-family="Verdana" font-size="12" lengthAdjust="spacing" textLength="109.7109" x="819.0693" y="332.3406">ConnectionOpen()</text><text fill="#000000" font-family="Verdana" font-size="12" lengthAdjust="spacing" textLength="108.0352" x="819.0693" y="346.9246">ConnectionStart()</text><path d="M1340.5122,298.2615 L1340.5122,330.8601 L1320.5122,334.8601 L1340.5122,338.8601 L1340.5122,371.4587 A0,0 0 0 0 1340.5122,371.4587 L1547.5049,371.4587 A0,0 0 0 0 1547.5049,371.4587 L1547.5049,308.2615 L1537.5049,298.2615 L1340.5122,298.2615 A0,0 0 0 0 1340.5122,298.2615" fill="#FFFFFF" style="stroke:#000000;stroke-width:1;"/><path d="M1537.5049,298.2615 L1537.5049,308.2615 L1547.5049,308.2615 L1537.5049,298.2615" fill="#FFFFFF" style="stroke:#000000;stroke-width:1;"/><text fill="#000000" font-family="Verdana" font-size="13" font-weight="bold" lengthAdjust="spacing" textLength="96.7954" x="1346.5122" y="316.3313">Stream APIs:</text><text fill="#000000" font-family="Verdana" font-size="13" lengthAdjust="spacing" textLength="185.9927" x="1346.5122" y="332.1306">- Bidirectional/Unidirectional</text><text fill="#000000" font-family="Verdana" font-size="13" lengthAdjust="spacing" textLength="128.7178" x="1346.5122" y="347.9299">- Data transmission</text><text fill="#000000" font-family="Verdana" font-size="13" lengthAdjust="spacing" textLength="180.2671" x="1346.5122" y="363.7292">- Flow control management</text><rect fill="#ADD8E6" height="63.752" rx="12.5" ry="12.5" style="stroke:#000000;stroke-width:1;" width="106.6426" x="1213.8696" y="302.9841"/><text fill="#000000" font-family="Verdana" font-size="12" lengthAdjust="spacing" textLength="86.6426" x="1223.8696" y="325.0486">StreamOpen()</text><text fill="#000000" font-family="Verdana" font-size="12" lengthAdjust="spacing" textLength="84.9668" x="1223.8696" y="339.6326">StreamStart()</text><text fill="#000000" font-family="Verdana" font-size="12" lengthAdjust="spacing" textLength="85.4004" x="1223.8696" y="354.2166">StreamSend()</text><path d="M1688.0322,298.2615 L1688.0322,330.8601 L1668.0322,334.8601 L1688.0322,338.8601 L1688.0322,371.4587 A0,0 0 0 0 1688.0322,371.4587 L1869.6914,371.4587 A0,0 0 0 0 1869.6914,371.4587 L1869.6914,308.2615 L1859.6914,298.2615 L1688.0322,298.2615 A0,0 0 0 0 1688.0322,298.2615" fill="#FFFFFF" style="stroke:#000000;stroke-width:1;"/><path d="M1859.6914,298.2615 L1859.6914,308.2615 L1869.6914,308.2615 L1859.6914,298.2615" fill="#FFFFFF" style="stroke:#000000;stroke-width:1;"/><text fill="#000000" font-family="Verdana" font-size="13" font-weight="bold" lengthAdjust="spacing" textLength="103.4541" x="1694.0322" y="316.3313">Listener APIs:</text><text fill="#000000" font-family="Verdana" font-size="13" lengthAdjust="spacing" textLength="145.1899" x="1694.0322" y="332.1306">- Server-side listening</text><text fill="#000000" font-family="Verdana" font-size="13" lengthAdjust="spacing" textLength="160.6592" x="1694.0322" y="347.9299">- Connection acceptance</text><text fill="#000000" font-family="Verdana" font-size="13" lengthAdjust="spacing" textLength="89.3306" x="1694.0322" y="363.7292">- Port binding</text><rect fill="#ADD8E6" height="49.168" rx="12.5" ry="12.5" style="stroke:#000000;stroke-width:1;" width="110.5273" x="1557.5049" y="310.2761"/><text fill="#000000" font-family="Verdana" font-size="12" lengthAdjust="spacing" textLength="90.5273" x="1567.5049" y="332.3406">ListenerOpen()</text><text fill="#000000" font-family="Verdana" font-size="12" lengthAdjust="spacing" textLength="88.8516" x="1567.5049" y="346.9246">ListenerStart()</text><line style="stroke:#000000;stroke-width:1.5;" x1="125.5522" x2="1612.7686" y1="399.3584" y2="399.3584"/><path d="M1088.9087,421.3584 L1088.9087,446.0574 L1068.9087,450.0574 L1088.9087,454.0574 L1088.9087,478.7563 A0,0 0 0 0 1088.9087,478.7563 L1307.5176,478.7563 A0,0 0 0 0 1307.5176,478.7563 L1307.5176,431.3584 L1297.5176,421.3584 L1088.9087,421.3584 A0,0 0 0 0 1088.9087,421.3584" fill="#FFFFFF" style="stroke:#000000;stroke-width:1;"/><path d="M1297.5176,421.3584 L1297.5176,431.3584 L1307.5176,431.3584 L1297.5176,421.3584" fill="#FFFFFF" style="stroke:#000000;stroke-width:1;"/><text fill="#000000" font-family="Verdana" font-size="13" font-weight="bold" lengthAdjust="spacing" textLength="173.5449" x="1094.9087" y="439.4282">Reference: MsQuic Core</text><text fill="#000000" font-family="Verdana" font-size="13" lengthAdjust="spacing" textLength="171.3042" x="1094.9087" y="455.2275">API calls are processed by</text><text fill="#000000" font-family="Verdana" font-size="13" lengthAdjust="spacing" textLength="197.6089" x="1094.9087" y="471.0269">MsQuic internal state machine</text><rect fill="#ADD8E6" height="34.584" rx="12.5" ry="12.5" style="stroke:#000000;stroke-width:1;" width="208.9414" x="859.9673" y="432.7654"/><text fill="#000000" font-family="Verdana" font-size="12" lengthAdjust="spacing" textLength="188.9414" x="869.9673" y="454.8298">Process API call in MsQuic Core</text><rect fill="#FFFFFF" height="447.4204" style="stroke:#000000;stroke-width:1;" width="1425.6245" x="6" y="500.7563"/><path d="M172.1328,500.7563 L172.1328,510.771 L162.1328,520.771 L6,520.771" fill="none" style="stroke:#000000;stroke-width:1;"/><text fill="#000000" font-family="Verdana" font-size="14" font-weight="bold" lengthAdjust="spacing" textLength="156.1328" x="9" y="515.8315">Callback Processing</text><polygon fill="#ADD8E6" points="913.2595,537.771,1015.6165,537.771,1027.6165,549.771,1015.6165,561.771,913.2595,561.771,901.2595,549.771,913.2595,537.771" style="stroke:#000000;stroke-width:1;"/><text fill="#000000" font-family="Verdana" font-size="11" lengthAdjust="spacing" textLength="102.3569" x="913.2595" y="554.1458">Callback received?</text><text fill="#000000" font-family="Verdana" font-size="11" lengthAdjust="spacing" textLength="18.7935" x="882.4661" y="547.4614">yes</text><text fill="#000000" font-family="Verdana" font-size="11" lengthAdjust="spacing" textLength="13.6372" x="1027.6165" y="547.4614">no</text><rect fill="#FFFFFF" height="152.2119" style="stroke:#000000;stroke-width:1;" width="1194.4897" x="18" y="571.771"/><path d="M147.335,571.771 L147.335,581.7856 L137.335,591.7856 L18,591.7856" fill="none" style="stroke:#000000;stroke-width:1;"/><text fill="#000000" font-family="Verdana" font-size="14" lengthAdjust="spacing" textLength="119.335" x="21" y="586.8462">Event Processing</text><line style="stroke:#000000;stroke-width:1.5;" x1="123.1797" x2="900.7124" y1="608.7856" y2="608.7856"/><path d="M224.3594,626.6853 L224.3594,651.3843 L204.3594,655.3843 L224.3594,659.3843 L224.3594,684.0833 A0,0 0 0 0 224.3594,684.0833 L384.3921,684.0833 A0,0 0 0 0 384.3921,684.0833 L384.3921,636.6853 L374.3921,626.6853 L224.3594,626.6853 A0,0 0 0 0 224.3594,626.6853" fill="#FFFFFF" style="stroke:#000000;stroke-width:1;"/><path d="M374.3921,626.6853 L374.3921,636.6853 L384.3921,636.6853 L374.3921,626.6853" fill="#FFFFFF" style="stroke:#000000;stroke-width:1;"/><text fill="#000000" font-family="Verdana" font-size="13" font-weight="bold" lengthAdjust="spacing" textLength="117.8823" x="230.3594" y="644.7551">Listener Events:</text><text fill="#000000" font-family="Verdana" font-size="13" lengthAdjust="spacing" textLength="139.0327" x="230.3594" y="660.5544">- NEW_CONNECTION</text><text fill="#000000" font-family="Verdana" font-size="13" lengthAdjust="spacing" textLength="123.5" x="230.3594" y="676.3538">- STOP_COMPLETE</text><rect fill="#ADD8E6" height="34.584" rx="12.5" ry="12.5" style="stroke:#000000;stroke-width:1;" width="162.3594" x="42" y="638.0923"/><text fill="#000000" font-family="Verdana" font-size="12" lengthAdjust="spacing" textLength="142.3594" x="52" y="660.1567">Process Listener Events</text><path d="M597.083,618.7856 L597.083,651.3843 L577.083,655.3843 L597.083,659.3843 L597.083,691.9829 A0,0 0 0 0 597.083,691.9829 L793.4751,691.9829 A0,0 0 0 0 793.4751,691.9829 L793.4751,628.7856 L783.4751,618.7856 L597.083,618.7856 A0,0 0 0 0 597.083,618.7856" fill="#FFFFFF" style="stroke:#000000;stroke-width:1;"/><path d="M783.4751,618.7856 L783.4751,628.7856 L793.4751,628.7856 L783.4751,618.7856" fill="#FFFFFF" style="stroke:#000000;stroke-width:1;"/><text fill="#000000" font-family="Verdana" font-size="13" font-weight="bold" lengthAdjust="spacing" textLength="140.2197" x="603.083" y="636.8555">Connection Events:</text><text fill="#000000" font-family="Verdana" font-size="13" lengthAdjust="spacing" textLength="92.7773" x="603.083" y="652.6548">- CONNECTED</text><text fill="#000000" font-family="Verdana" font-size="13" lengthAdjust="spacing" textLength="175.3921" x="603.083" y="668.4541">- PEER_STREAM_STARTED</text><text fill="#000000" font-family="Verdana" font-size="13" lengthAdjust="spacing" textLength="167.54" x="603.083" y="684.2534">- SHUTDOWN_COMPLETE</text><rect fill="#ADD8E6" height="34.584" rx="12.5" ry="12.5" style="stroke:#000000;stroke-width:1;" width="181.543" x="395.54" y="638.0923"/><text fill="#000000" font-family="Verdana" font-size="12" lengthAdjust="spacing" textLength="161.543" x="405.54" y="660.1567">Process Connection Events</text><path d="M999.9497,618.7856 L999.9497,651.3843 L979.9497,655.3843 L999.9497,659.3843 L999.9497,691.9829 A0,0 0 0 0 999.9497,691.9829 L1188.4897,691.9829 A0,0 0 0 0 1188.4897,691.9829 L1188.4897,628.7856 L1178.4897,618.7856 L999.9497,618.7856 A0,0 0 0 0 999.9497,618.7856" fill="#FFFFFF" style="stroke:#000000;stroke-width:1;"/><path d="M1178.4897,618.7856 L1178.4897,628.7856 L1188.4897,628.7856 L1178.4897,618.7856" fill="#FFFFFF" style="stroke:#000000;stroke-width:1;"/><text fill="#000000" font-family="Verdana" font-size="13" font-weight="bold" lengthAdjust="spacing" textLength="111.2236" x="1005.9497" y="636.8555">Stream Events:</text><text fill="#000000" font-family="Verdana" font-size="13" lengthAdjust="spacing" textLength="67.6089" x="1005.9497" y="652.6548">- RECEIVE</text><text fill="#000000" font-family="Verdana" font-size="13" lengthAdjust="spacing" textLength="125.3789" x="1005.9497" y="668.4541">- SEND_COMPLETE</text><text fill="#000000" font-family="Verdana" font-size="13" lengthAdjust="spacing" textLength="167.54" x="1005.9497" y="684.2534">- SHUTDOWN_COMPLETE</text><rect fill="#ADD8E6" height="34.584" rx="12.5" ry="12.5" style="stroke:#000000;stroke-width:1;" width="158.4746" x="821.4751" y="638.0923"/><text fill="#000000" font-family="Verdana" font-size="12" lengthAdjust="spacing" textLength="138.4746" x="831.4751" y="660.1567">Process Stream Events</text><line style="stroke:#000000;stroke-width:1.5;" x1="123.1797" x2="900.7124" y1="711.9829" y2="711.9829"/><path d="M711.5054,733.9829 L711.5054,774.4812 L691.5054,778.4812 L711.5054,782.4812 L711.5054,822.9795 A0,0 0 0 0 711.5054,822.9795 L926.75,822.9795 A0,0 0 0 0 926.75,822.9795 L926.75,743.9829 L916.75,733.9829 L711.5054,733.9829 A0,0 0 0 0 711.5054,733.9829" fill="#FFFFFF" style="stroke:#000000;stroke-width:1;"/><path d="M916.75,733.9829 L916.75,743.9829 L926.75,743.9829 L916.75,733.9829" fill="#FFFFFF" style="stroke:#000000;stroke-width:1;"/><text fill="#000000" font-family="Verdana" font-size="13" font-weight="bold" lengthAdjust="spacing" textLength="194.2446" x="717.5054" y="752.0527">Application State Updates:</text><text fill="#000000" font-family="Verdana" font-size="13" lengthAdjust="spacing" textLength="140.626" x="717.5054" y="767.8521">- Connection tracking</text><text fill="#000000" font-family="Verdana" font-size="13" lengthAdjust="spacing" textLength="148.8652" x="717.5054" y="783.6514">- Stream management</text><text fill="#000000" font-family="Verdana" font-size="13" lengthAdjust="spacing" textLength="104.4507" x="717.5054" y="799.4507">- Data buffering</text><text fill="#000000" font-family="Verdana" font-size="13" lengthAdjust="spacing" textLength="103.6191" x="717.5054" y="815.25">- Error handling</text><rect fill="#ADD8E6" height="34.584" rx="12.5" ry="12.5" style="stroke:#000000;stroke-width:1;" width="169.373" x="522.1323" y="761.1892"/><text fill="#000000" font-family="Verdana" font-size="12" lengthAdjust="spacing" textLength="149.373" x="532.1323" y="783.2537">Update Application State</text><path d="M710.2485,832.9795 L710.2485,865.5781 L690.2485,869.5781 L710.2485,873.5781 L710.2485,906.1768 A0,0 0 0 0 710.2485,906.1768 L907.2944,906.1768 A0,0 0 0 0 907.2944,906.1768 L907.2944,842.9795 L897.2944,832.9795 L710.2485,832.9795 A0,0 0 0 0 710.2485,832.9795" fill="#FFFFFF" style="stroke:#000000;stroke-width:1;"/><path d="M897.2944,832.9795 L897.2944,842.9795 L907.2944,842.9795 L897.2944,832.9795" fill="#FFFFFF" style="stroke:#000000;stroke-width:1;"/><text fill="#000000" font-family="Verdana" font-size="13" font-weight="bold" lengthAdjust="spacing" textLength="108.0435" x="716.2485" y="851.0493">Return Values:</text><text fill="#000000" font-family="Verdana" font-size="13" lengthAdjust="spacing" textLength="176.0459" x="716.2485" y="866.8486">- QUIC_STATUS_SUCCESS</text><text fill="#000000" font-family="Verdana" font-size="13" lengthAdjust="spacing" textLength="174.5732" x="716.2485" y="882.6479">- QUIC_STATUS_PENDING</text><text fill="#000000" font-family="Verdana" font-size="13" lengthAdjust="spacing" textLength="160.0308" x="716.2485" y="898.4473">- Error codes for failures</text><rect fill="#ADD8E6" height="34.584" rx="12.5" ry="12.5" style="stroke:#000000;stroke-width:1;" width="166.8594" x="523.3892" y="852.2861"/><text fill="#000000" font-family="Verdana" font-size="12" lengthAdjust="spacing" textLength="146.8594" x="533.3892" y="874.3506">Return Status to MsQuic</text><rect fill="#ADD8E6" height="34.584" rx="12.5" ry="12.5" style="stroke:#000000;stroke-width:1;" width="179.1348" x="1232.4897" y="571.771"/><text fill="#000000" font-family="Verdana" font-size="12" lengthAdjust="spacing" textLength="159.1348" x="1242.4897" y="593.8354">Continue Application Logic</text><polygon fill="#ADD8E6" points="964.438,912.1768,976.438,924.1768,964.438,936.1768,952.438,924.1768,964.438,912.1768" style="stroke:#000000;stroke-width:1;"/><rect fill="#FFFFFF" height="316.8071" style="stroke:#000000;stroke-width:1;" width="593.0864" x="658.0349" y="958.1768"/><path d="M783.0427,958.1768 L783.0427,968.1914 L773.0427,978.1914 L658.0349,978.1914" fill="none" style="stroke:#000000;stroke-width:1;"/><text fill="#000000" font-family="Verdana" font-size="14" font-weight="bold" lengthAdjust="spacing" textLength="115.0078" x="661.0349" y="973.252">Error Handling</text><polygon fill="#ADD8E6" points="908.8848,995.1914,1019.9912,995.1914,1031.9912,1007.1914,1019.9912,1019.1914,908.8848,1019.1914,896.8848,1007.1914,908.8848,995.1914" style="stroke:#000000;stroke-width:1;"/><text fill="#000000" font-family="Verdana" font-size="11" lengthAdjust="spacing" textLength="111.1064" x="908.8848" y="1011.5662">Error in application?</text><text fill="#000000" font-family="Verdana" font-size="11" lengthAdjust="spacing" textLength="18.7935" x="878.0913" y="1004.8818">yes</text><text fill="#000000" font-family="Verdana" font-size="11" lengthAdjust="spacing" textLength="13.6372" x="1031.9912" y="1004.8818">no</text><path d="M864.5427,1029.1914 L864.5427,1069.6897 L844.5427,1073.6897 L864.5427,1077.6897 L864.5427,1118.188 A0,0 0 0 0 864.5427,1118.188 L1084.053,1118.188 A0,0 0 0 0 1084.053,1118.188 L1084.053,1039.1914 L1074.053,1029.1914 L864.5427,1029.1914 A0,0 0 0 0 864.5427,1029.1914" fill="#FFFFFF" style="stroke:#000000;stroke-width:1;"/><path d="M1074.053,1029.1914 L1074.053,1039.1914 L1084.053,1039.1914 L1074.053,1029.1914" fill="#FFFFFF" style="stroke:#000000;stroke-width:1;"/><text fill="#000000" font-family="Verdana" font-size="13" font-weight="bold" lengthAdjust="spacing" textLength="198.5103" x="870.5427" y="1047.2612">Application Error Handling:</text><text fill="#000000" font-family="Verdana" font-size="13" lengthAdjust="spacing" textLength="130.8125" x="870.5427" y="1063.0605">- Cleanup resources</text><text fill="#000000" font-family="Verdana" font-size="13" lengthAdjust="spacing" textLength="134.5576" x="870.5427" y="1078.8599">- Notify user/system</text><text fill="#000000" font-family="Verdana" font-size="13" lengthAdjust="spacing" textLength="147.3735" x="870.5427" y="1094.6592">- Graceful degradation</text><text fill="#000000" font-family="Verdana" font-size="13" lengthAdjust="spacing" textLength="80.0884" x="870.5427" y="1110.4585">- Retry logic</text><rect fill="#ADD8E6" height="34.584" rx="12.5" ry="12.5" style="stroke:#000000;stroke-width:1;" width="166.5078" x="678.0349" y="1056.3977"/><text fill="#000000" font-family="Verdana" font-size="12" lengthAdjust="spacing" textLength="146.5078" x="688.0349" y="1078.4622">Handle Application Error</text><path d="M848.4412,1128.188 L848.4412,1176.5859 L828.4412,1180.5859 L848.4412,1184.5859 L848.4412,1232.9839 A0,0 0 0 0 848.4412,1232.9839 L1005.281,1232.9839 A0,0 0 0 0 1005.281,1232.9839 L1005.281,1138.188 L995.281,1128.188 L848.4412,1128.188 A0,0 0 0 0 848.4412,1128.188" fill="#FFFFFF" style="stroke:#000000;stroke-width:1;"/><path d="M995.281,1128.188 L995.281,1138.188 L1005.281,1138.188 L995.281,1128.188" fill="#FFFFFF" style="stroke:#000000;stroke-width:1;"/><text fill="#000000" font-family="Verdana" font-size="13" font-weight="bold" lengthAdjust="spacing" textLength="122.459" x="854.4412" y="1146.2578">Cleanup Actions:</text><text fill="#000000" font-family="Verdana" font-size="13" lengthAdjust="spacing" textLength="102.5083" x="854.4412" y="1162.0571">- Close streams</text><text fill="#000000" font-family="Verdana" font-size="13" lengthAdjust="spacing" textLength="127.3086" x="854.4412" y="1177.8564">- Close connections</text><text fill="#000000" font-family="Verdana" font-size="13" lengthAdjust="spacing" textLength="105.1616" x="854.4412" y="1193.6558">- Close listeners</text><text fill="#000000" font-family="Verdana" font-size="13" lengthAdjust="spacing" textLength="135.8398" x="854.4412" y="1209.4551">- Free configurations</text><text fill="#000000" font-family="Verdana" font-size="13" lengthAdjust="spacing" textLength="125.1123" x="854.4412" y="1225.2544">- Close registration</text><rect fill="#ADD8E6" height="34.584" rx="12.5" ry="12.5" style="stroke:#000000;stroke-width:1;" width="134.3047" x="694.1365" y="1163.2939"/><text fill="#000000" font-family="Verdana" font-size="12" lengthAdjust="spacing" textLength="114.3047" x="704.1365" y="1185.3584">Cleanup Resources</text><rect fill="#ADD8E6" height="34.584" rx="12.5" ry="12.5" style="stroke:#000000;stroke-width:1;" width="127.0684" x="1104.053" y="1029.1914"/><text fill="#000000" font-family="Verdana" font-size="12" lengthAdjust="spacing" textLength="107.0684" x="1114.053" y="1051.2559">Normal Operation</text><polygon fill="#ADD8E6" points="964.438,1238.9839,976.438,1250.9839,964.438,1262.9839,952.438,1250.9839,964.438,1238.9839" style="stroke:#000000;stroke-width:1;"/><path d="M666.7075,1284.9839 L666.7075,1389.7798 A0,0 0 0 0 666.7075,1389.7798 L933.438,1389.7798 A0,0 0 0 0 933.438,1389.7798 L933.438,1341.3818 L953.438,1337.3818 L933.438,1333.3818 L933.438,1294.9839 L923.438,1284.9839 L666.7075,1284.9839 A0,0 0 0 0 666.7075,1284.9839" fill="#FFFFFF" style="stroke:#000000;stroke-width:1;"/><path d="M923.438,1284.9839 L923.438,1294.9839 L933.438,1294.9839 L923.438,1284.9839" fill="#FFFFFF" style="stroke:#000000;stroke-width:1;"/><text fill="#000000" font-family="Verdana" font-size="13" font-weight="bold" lengthAdjust="spacing" textLength="245.7305" x="672.7075" y="1303.0537">Application Layer Characteristics:</text><text fill="#000000" font-family="Verdana" font-size="13" lengthAdjust="spacing" textLength="206.4766" x="672.7075" y="1318.853">- User/developer provided code</text><text fill="#000000" font-family="Verdana" font-size="13" lengthAdjust="spacing" textLength="208.4824" x="672.7075" y="1334.6523">- Business logic implementation</text><text fill="#000000" font-family="Verdana" font-size="13" lengthAdjust="spacing" textLength="160.8496" x="672.7075" y="1350.4517">- Resource management</text><text fill="#000000" font-family="Verdana" font-size="13" lengthAdjust="spacing" textLength="103.6191" x="672.7075" y="1366.251">- Error handling</text><text fill="#000000" font-family="Verdana" font-size="13" lengthAdjust="spacing" textLength="102.5654" x="672.7075" y="1382.0503">- State tracking</text><ellipse cx="964.438" cy="1337.3818" fill="none" rx="11" ry="11" style="stroke:#000000;stroke-width:1;"/><ellipse cx="964.438" cy="1337.3818" fill="#FFFFFF" rx="6" ry="6" style="stroke:#000000;stroke-width:1;"/><line style="stroke:#000000;stroke-width:1;" x1="125.5522" x2="125.5522" y1="281.8618" y2="317.5681"/><polygon fill="#000000" points="121.5522,307.5681,125.5522,317.5681,129.5522,307.5681,125.5522,311.5681" style="stroke:#000000;stroke-width:1;"/><line style="stroke:#000000;stroke-width:1;" x1="495.3911" x2="495.3911" y1="281.8618" y2="310.2761"/><polygon fill="#000000" points="491.3911,300.2761,495.3911,310.2761,499.3911,300.2761,495.3911,304.2761" style="stroke:#000000;stroke-width:1;"/><line style="stroke:#000000;stroke-width:1;" x1="873.9248" x2="873.9248" y1="281.8618" y2="310.2761"/><polygon fill="#000000" points="869.9248,300.2761,873.9248,310.2761,877.9248,300.2761,873.9248,304.2761" style="stroke:#000000;stroke-width:1;"/><line style="stroke:#000000;stroke-width:1;" x1="1267.1909" x2="1267.1909" y1="281.8618" y2="302.9841"/><polygon fill="#000000" points="1263.1909,292.9841,1267.1909,302.9841,1271.1909,292.9841,1267.1909,296.9841" style="stroke:#000000;stroke-width:1;"/><line style="stroke:#000000;stroke-width:1;" x1="1612.7686" x2="1612.7686" y1="281.8618" y2="310.2761"/><polygon fill="#000000" points="1608.7686,300.2761,1612.7686,310.2761,1616.7686,300.2761,1612.7686,304.2761" style="stroke:#000000;stroke-width:1;"/><line style="stroke:#000000;stroke-width:1;" x1="125.5522" x2="125.5522" y1="352.1521" y2="399.3584"/><polygon fill="#000000" points="121.5522,389.3584,125.5522,399.3584,129.5522,389.3584,125.5522,393.3584" style="stroke:#000000;stroke-width:1;"/><line style="stroke:#000000;stroke-width:1;" x1="495.3911" x2="495.3911" y1="359.4441" y2="399.3584"/><polygon fill="#000000" points="491.3911,389.3584,495.3911,399.3584,499.3911,389.3584,495.3911,393.3584" style="stroke:#000000;stroke-width:1;"/><line style="stroke:#000000;stroke-width:1;" x1="873.9248" x2="873.9248" y1="359.4441" y2="399.3584"/><polygon fill="#000000" points="869.9248,389.3584,873.9248,399.3584,877.9248,389.3584,873.9248,393.3584" style="stroke:#000000;stroke-width:1;"/><line style="stroke:#000000;stroke-width:1;" x1="1267.1909" x2="1267.1909" y1="366.7361" y2="399.3584"/><polygon fill="#000000" points="1263.1909,389.3584,1267.1909,399.3584,1271.1909,389.3584,1267.1909,393.3584" style="stroke:#000000;stroke-width:1;"/><line style="stroke:#000000;stroke-width:1;" x1="1612.7686" x2="1612.7686" y1="359.4441" y2="399.3584"/><polygon fill="#000000" points="1608.7686,389.3584,1612.7686,399.3584,1616.7686,389.3584,1612.7686,393.3584" style="stroke:#000000;stroke-width:1;"/><line style="stroke:#000000;stroke-width:1;" x1="964.438" x2="964.438" y1="190.3416" y2="280.3618"/><polygon fill="#000000" points="960.438,270.3618,964.438,280.3618,968.438,270.3618,964.438,274.3618" style="stroke:#000000;stroke-width:1;"/><line style="stroke:#000000;stroke-width:1;" x1="964.438" x2="964.438" y1="400.8584" y2="432.7654"/><polygon fill="#000000" points="960.438,422.7654,964.438,432.7654,968.438,422.7654,964.438,426.7654" style="stroke:#000000;stroke-width:1;"/><line style="stroke:#000000;stroke-width:1;" x1="964.438" x2="964.438" y1="72.7373" y2="155.7576"/><polygon fill="#000000" points="960.438,145.7576,964.438,155.7576,968.438,145.7576,964.438,149.7576" style="stroke:#000000;stroke-width:1;"/><line style="stroke:#000000;stroke-width:1;" x1="123.1797" x2="123.1797" y1="610.2856" y2="638.0923"/><polygon fill="#000000" points="119.1797,628.0923,123.1797,638.0923,127.1797,628.0923,123.1797,632.0923" style="stroke:#000000;stroke-width:1;"/><line style="stroke:#000000;stroke-width:1;" x1="486.3115" x2="486.3115" y1="610.2856" y2="638.0923"/><polygon fill="#000000" points="482.3115,628.0923,486.3115,638.0923,490.3115,628.0923,486.3115,632.0923" style="stroke:#000000;stroke-width:1;"/><line style="stroke:#000000;stroke-width:1;" x1="900.7124" x2="900.7124" y1="610.2856" y2="638.0923"/><polygon fill="#000000" points="896.7124,628.0923,900.7124,638.0923,904.7124,628.0923,900.7124,632.0923" style="stroke:#000000;stroke-width:1;"/><line style="stroke:#000000;stroke-width:1;" x1="123.1797" x2="123.1797" y1="672.6763" y2="711.9829"/><polygon fill="#000000" points="119.1797,701.9829,123.1797,711.9829,127.1797,701.9829,123.1797,705.9829" style="stroke:#000000;stroke-width:1;"/><line style="stroke:#000000;stroke-width:1;" x1="486.3115" x2="486.3115" y1="672.6763" y2="711.9829"/><polygon fill="#000000" points="482.3115,701.9829,486.3115,711.9829,490.3115,701.9829,486.3115,705.9829" style="stroke:#000000;stroke-width:1;"/><line style="stroke:#000000;stroke-width:1;" x1="900.7124" x2="900.7124" y1="672.6763" y2="711.9829"/><polygon fill="#000000" points="896.7124,701.9829,900.7124,711.9829,904.7124,701.9829,900.7124,705.9829" style="stroke:#000000;stroke-width:1;"/><line style="stroke:#000000;stroke-width:1;" x1="606.8188" x2="606.8188" y1="713.4829" y2="761.1892"/><polygon fill="#000000" points="602.8188,751.1892,606.8188,761.1892,610.8188,751.1892,606.8188,755.1892" style="stroke:#000000;stroke-width:1;"/><line style="stroke:#000000;stroke-width:1;" x1="606.8188" x2="606.8188" y1="795.7732" y2="852.2861"/><polygon fill="#000000" points="602.8188,842.2861,606.8188,852.2861,610.8188,842.2861,606.8188,846.2861" style="stroke:#000000;stroke-width:1;"/><line style="stroke:#000000;stroke-width:1;" x1="901.2595" x2="606.8188" y1="549.771" y2="549.771"/><line style="stroke:#000000;stroke-width:1;" x1="606.8188" x2="606.8188" y1="549.771" y2="608.7856"/><polygon fill="#000000" points="602.8188,598.7856,606.8188,608.7856,610.8188,598.7856,606.8188,602.7856" style="stroke:#000000;stroke-width:1;"/><line style="stroke:#000000;stroke-width:1;" x1="1027.6165" x2="1322.0571" y1="549.771" y2="549.771"/><line style="stroke:#000000;stroke-width:1;" x1="1322.0571" x2="1322.0571" y1="549.771" y2="571.771"/><polygon fill="#000000" points="1318.0571,561.771,1322.0571,571.771,1326.0571,561.771,1322.0571,565.771" style="stroke:#000000;stroke-width:1;"/><line style="stroke:#000000;stroke-width:1;" x1="606.8188" x2="606.8188" y1="886.8701" y2="924.1768"/><line style="stroke:#000000;stroke-width:1;" x1="606.8188" x2="952.438" y1="924.1768" y2="924.1768"/><polygon fill="#000000" points="942.438,920.1768,952.438,924.1768,942.438,928.1768,946.438,924.1768" style="stroke:#000000;stroke-width:1;"/><line style="stroke:#000000;stroke-width:1;" x1="1322.0571" x2="1322.0571" y1="606.355" y2="924.1768"/><line style="stroke:#000000;stroke-width:1;" x1="1322.0571" x2="976.438" y1="924.1768" y2="924.1768"/><polygon fill="#000000" points="986.438,920.1768,976.438,924.1768,986.438,928.1768,982.438,924.1768" style="stroke:#000000;stroke-width:1;"/><line style="stroke:#000000;stroke-width:1;" x1="964.438" x2="964.438" y1="467.3494" y2="537.771"/><polygon fill="#000000" points="960.438,527.771,964.438,537.771,968.438,527.771,964.438,531.771" style="stroke:#000000;stroke-width:1;"/><line style="stroke:#000000;stroke-width:1;" x1="761.2888" x2="761.2888" y1="1090.9817" y2="1163.2939"/><polygon fill="#000000" points="757.2888,1153.2939,761.2888,1163.2939,765.2888,1153.2939,761.2888,1157.2939" style="stroke:#000000;stroke-width:1;"/><line style="stroke:#000000;stroke-width:1;" x1="896.8848" x2="761.2888" y1="1007.1914" y2="1007.1914"/><line style="stroke:#000000;stroke-width:1;" x1="761.2888" x2="761.2888" y1="1007.1914" y2="1056.3977"/><polygon fill="#000000" points="757.2888,1046.3977,761.2888,1056.3977,765.2888,1046.3977,761.2888,1050.3977" style="stroke:#000000;stroke-width:1;"/><line style="stroke:#000000;stroke-width:1;" x1="1031.9912" x2="1167.5872" y1="1007.1914" y2="1007.1914"/><line style="stroke:#000000;stroke-width:1;" x1="1167.5872" x2="1167.5872" y1="1007.1914" y2="1029.1914"/><polygon fill="#000000" points="1163.5872,1019.1914,1167.5872,1029.1914,1171.5872,1019.1914,1167.5872,1023.1914" style="stroke:#000000;stroke-width:1;"/><line style="stroke:#000000;stroke-width:1;" x1="761.2888" x2="761.2888" y1="1197.8779" y2="1250.9839"/><line style="stroke:#000000;stroke-width:1;" x1="761.2888" x2="952.438" y1="1250.9839" y2="1250.9839"/><polygon fill="#000000" points="942.438,1246.9839,952.438,1250.9839,942.438,1254.9839,946.438,1250.9839" style="stroke:#000000;stroke-width:1;"/><line style="stroke:#000000;stroke-width:1;" x1="1167.5872" x2="1167.5872" y1="1063.7754" y2="1250.9839"/><line style="stroke:#000000;stroke-width:1;" x1="1167.5872" x2="976.438" y1="1250.9839" y2="1250.9839"/><polygon fill="#000000" points="986.438,1246.9839,976.438,1250.9839,986.438,1254.9839,982.438,1250.9839" style="stroke:#000000;stroke-width:1;"/><line style="stroke:#000000;stroke-width:1;" x1="964.438" x2="964.438" y1="936.1768" y2="995.1914"/><polygon fill="#000000" points="960.438,985.1914,964.438,995.1914,968.438,985.1914,964.438,989.1914" style="stroke:#000000;stroke-width:1;"/><line style="stroke:#000000;stroke-width:1;" x1="964.438" x2="964.438" y1="1262.9839" y2="1326.3818"/><polygon fill="#000000" points="960.438,1316.3818,964.438,1326.3818,968.438,1316.3818,964.438,1320.3818" style="stroke:#000000;stroke-width:1;"/><!--SRC=[fLTDRo8v4Btth_3EAOE4vauEAwRJaq4YXA5XvXWPTpMnOcnakvcWLVxxbjrVDaqchBOF2LILtU_LnxFvopx37iX1K2uJyyBbWMgw9vHPVkJsHFv92FbAsSjEgqeMgH9A4y5tptOhAd0-fGlGjNqhC11jKwtLxz3qbYIMMm5aUZW8pgZbIf8vFO4csH6a9T-4-fqanb9jamGHOBGB-JGQ3LQCHfyyg4deOLG8GnxCZuepCbtERZ50AWj4EwZu1JTQpaZgmx9NkZy8C9FH23rZie8TDrRxdHuF86y-UtEgPCbtrIMx17PcpAq6kXyOSf15P5W10tw4L3a45hmFOppO13y7t6l05dPASp0rQK8CahR-4wPWYFosSKNatJCQXS4kHmr_zup9KYi6nem5744GfgI5LzjvirTWbLztqAhacBlETI_KbWfYm5ekTwszezH19dJdEgm1VZctxeaySqMBL4E1BSAf-2ExQDs0tdI-N3ZiLZ4bUl3hUKvOjtzlhsjrJchiszGdHojnFTFpRcbeDkRSDVr7r9hO0QzKS3S-h8_W4jl79w5d0_g8anO4KSRWOAbaqE_KUrcOoYjfdlM_Uve9gEd5DZyLVs3SvF-SxLTUS5s3fEBBHePVkw0xQYd1DfTcpuq9yn1MZ-off3jKFcclP3Z7uG49EkBO6ZykOXiv85LNPsnu0IYiBWXRxb9PBXHjgRGbMowBVab4mtrf1UFDoSkacNE7meiczaihcwdIS44tLr221dph90pq1DfD3A4Qt7YvhQ4WsnCwcs2EIgAbKmYBMePfPyzSGgXwRsUAxqHwYwT6gqd8hTLyNfARpgrhAIt-_apm39FavWIchakmNNsyz3krCXeBQP2Ohav-fRdj8WOrZQfQH_TrTTLPPB-UqiV58alNiyT5uCZNZqlqF2pdsJhhx57bBhLWW39eYwjm3k9Zf0tAx2wmBRDizPIlLzdq0VzDLx4t_xvPtpt-Mlm_6isSNqKXYetXhx8qc_tCGdZPucu8xJ_03YV7pOxxw_zCDeV2DN9u-yXTQzVmpw37znSVH-eDEWhHZADkiPTscBjpw4oh6etRLYLEPX-SuQrBasSg2z4Q8r99SsMmbQwXL8POrSpfE-YRw9yKBti1uX-RMUgQOht9d_9DccPvVi6pn2BC5lSHFAOACAJ4JoNbejBDJIAy0e4mG6wagcVP7Q1u25TdTqUrgp7ZGbuE9AH-r_Sc5Q5wr1uKFThlDXIGYLyQlzAllAB8yRk3AWkWiZgWR1bLQTOGHvLGbfSdKXdGNym9vMJVEEwn5w2i12bWfsdHdyRknchrYGYNXFVgtBvkrRxk7UXjtDGtODYLGc4TZEz04zdwYqHi5uqOjjPl6Y2-JCJnEhYGVjG52wNtU8ZWuLl7HxKtLXsIn5CJKDhamgy6aZxZxng6Pn6-aZFFSqmsBkc5k_8gtDYTO4SyXWlVfUZ-Mk6HuNJAPvfmTsTtKrWZ7dUv3GTqC8VZPkoxqMvP_Wi0]--></g></svg>