<svg xmlns="http://www.w3.org/2000/svg" xmlns:xlink="http://www.w3.org/1999/xlink" contentStyleType="text/css" data-diagram-type="STATE" height="1366px" preserveAspectRatio="none" style="width:1427px;height:1366px;background:#FFFFFF;" version="1.1" viewBox="0 0 1427 1366" width="1427px" zoomAndPan="magnify"><title>QUIC Connection State Transitions</title><defs/><g><g class="title" data-source-line="8"><text fill="#000000" font-family="Verdana" font-size="22" font-weight="bold" lengthAdjust="spacing" textLength="428.5166" x="495.0222" y="37.1182">QUIC Connection State Transitions</text></g><!--cluster QUICConn--><g class="cluster" data-entity="QUICConn" data-source-line="10" data-uid="ent0002" id="cluster_QUICConn"><path d="M24.5,103.5573 L500.5,103.5573 A12.5,12.5 0 0 1 513,116.0573 L513,125.572 L12,125.572 L12,116.0573 A12.5,12.5 0 0 1 24.5,103.5573" fill="#ADD8E6"/><path d="M12,125.572 L513,125.572 L513,1340.5573 A12.5,12.5 0 0 1 500.5,1353.0573 L24.5,1353.0573 A12.5,12.5 0 0 1 12,1340.5573 L12,125.572" fill="#FFFFFF"/><rect fill="none" height="1249.5" rx="12.5" ry="12.5" style="stroke:#000000;stroke-width:1;" width="501" x="12" y="103.5573"/><line style="stroke:#000000;stroke-width:1;" x1="12" x2="513" y1="125.572" y2="125.572"/><text fill="#000000" font-family="Verdana" font-size="14" lengthAdjust="spacing" textLength="169.7637" x="177.6182" y="121.6325">QUIC Connection States</text></g><g id="QUICConn.IDLE"><rect fill="#ADD8E6" height="51.5986" rx="12.5" ry="12.5" style="stroke:#000000;stroke-width:1;" width="86.416" x="328" y="297.5573"/><line style="stroke:#000000;stroke-width:1;" x1="328" x2="414.416" y1="324.572" y2="324.572"/><text fill="#000000" font-family="Verdana" font-size="14" lengthAdjust="spacing" textLength="33.3252" x="354.5454" y="316.6325">IDLE</text><text fill="#000000" font-family="Verdana" font-size="12" lengthAdjust="spacing" textLength="66.416" x="333" y="341.6364">Entry state</text></g><g id="QUICConn.CONNECTING"><rect fill="#ADD8E6" height="51.5986" rx="12.5" ry="12.5" style="stroke:#000000;stroke-width:1;" width="158.0527" x="103" y="471.5573"/><line style="stroke:#000000;stroke-width:1;" x1="103" x2="261.0527" y1="498.572" y2="498.572"/><text fill="#000000" font-family="Verdana" font-size="14" lengthAdjust="spacing" textLength="96.2158" x="133.9185" y="490.6325">CONNECTING</text><text fill="#000000" font-family="Verdana" font-size="12" lengthAdjust="spacing" textLength="138.0527" x="108" y="515.6364">Handshake in progress</text></g><g id="QUICConn.CONNECTED"><rect fill="#ADD8E6" height="51.5986" rx="12.5" ry="12.5" style="stroke:#000000;stroke-width:1;" width="200.5156" x="81.5" y="637.5573"/><line style="stroke:#000000;stroke-width:1;" x1="81.5" x2="282.0156" y1="664.572" y2="664.572"/><text fill="#000000" font-family="Verdana" font-size="14" lengthAdjust="spacing" textLength="88.6348" x="137.4404" y="656.6325">CONNECTED</text><text fill="#000000" font-family="Verdana" font-size="12" lengthAdjust="spacing" textLength="180.5156" x="86.5" y="681.6364">Ready for streams/datagrams</text></g><g id="QUICConn.DRAINING"><rect fill="#ADD8E6" height="51.5986" rx="12.5" ry="12.5" style="stroke:#000000;stroke-width:1;" width="133.2734" x="147.5" y="811.5573"/><line style="stroke:#000000;stroke-width:1;" x1="147.5" x2="280.7734" y1="838.572" y2="838.572"/><text fill="#000000" font-family="Verdana" font-size="14" lengthAdjust="spacing" textLength="73.6777" x="177.2979" y="830.6325">DRAINING</text><text fill="#000000" font-family="Verdana" font-size="12" lengthAdjust="spacing" textLength="113.2734" x="152.5" y="855.6364">Shutdown initiated</text></g><g id="QUICConn.CLOSED"><rect fill="#ADD8E6" height="51.5986" rx="12.5" ry="12.5" style="stroke:#000000;stroke-width:1;" width="157.4844" x="272.5" y="1159.5573"/><line style="stroke:#000000;stroke-width:1;" x1="272.5" x2="429.9844" y1="1186.572" y2="1186.572"/><text fill="#000000" font-family="Verdana" font-size="14" lengthAdjust="spacing" textLength="57.7979" x="322.3433" y="1178.6325">CLOSED</text><text fill="#000000" font-family="Verdana" font-size="12" lengthAdjust="spacing" textLength="137.4844" x="277.5" y="1203.6364">Connection terminated</text></g><g id="QUICConn.ERROR"><rect fill="#ADD8E6" height="51.5986" rx="12.5" ry="12.5" style="stroke:#000000;stroke-width:1;" width="106.7012" x="297.5" y="993.5573"/><line style="stroke:#000000;stroke-width:1;" x1="297.5" x2="404.2012" y1="1020.572" y2="1020.572"/><text fill="#000000" font-family="Verdana" font-size="14" lengthAdjust="spacing" textLength="49.0752" x="326.313" y="1012.6325">ERROR</text><text fill="#000000" font-family="Verdana" font-size="12" lengthAdjust="spacing" textLength="86.7012" x="302.5" y="1037.6364">Error occurred</text></g><ellipse cx="369" cy="157.5573" fill="#FFFFFF" rx="10" ry="10" style="stroke:#000000;stroke-width:1;"/><ellipse cx="351" cy="1318.0573" fill="none" rx="11" ry="11" style="stroke:#000000;stroke-width:1;"/><ellipse cx="351" cy="1318.0573" fill="#FFFFFF" rx="6" ry="6" style="stroke:#000000;stroke-width:1;"/><g class="entity" data-entity="GMN2" data-source-line="31" data-uid="ent0003" id="entity_GMN2"><path d="M537,461.0573 L537,493.5573 L261.28,497.5573 L537,501.5573 L537,534.2546 A0,0 0 0 0 537,534.2546 L771.021,534.2546 A0,0 0 0 0 771.021,534.2546 L771.021,471.0573 L761.021,461.0573 L537,461.0573 A0,0 0 0 0 537,461.0573" fill="#FFFFFF" style="stroke:#000000;stroke-width:1;"/><path d="M761.021,461.0573 L761.021,471.0573 L771.021,471.0573 L761.021,461.0573" fill="#FFFFFF" style="stroke:#000000;stroke-width:1;"/><text fill="#000000" font-family="Verdana" font-size="13" font-weight="bold" lengthAdjust="spacing" textLength="65.9839" x="543" y="479.1271">Triggers:</text><text fill="#000000" font-family="Verdana" font-size="13" lengthAdjust="spacing" textLength="109.7827" x="543" y="494.9264">- TLS handshake</text><text fill="#000000" font-family="Verdana" font-size="13" lengthAdjust="spacing" textLength="213.021" x="543" y="510.7258">- Transport parameter exchange</text><text fill="#000000" font-family="Verdana" font-size="13" lengthAdjust="spacing" textLength="136.9443" x="543" y="526.5251">- Version negotiation</text></g><g class="entity" data-entity="GMN5" data-source-line="33" data-uid="ent0006" id="entity_GMN5"><path d="M537,627.0573 L537,700.2546 L708.5029,700.2546 L708.5029,637.0573 L698.5029,627.0573 L537,627.0573" fill="#FFFFFF" style="stroke:#000000;stroke-width:1;"/><path d="M698.5029,627.0573 L698.5029,637.0573 L708.5029,637.0573 L698.5029,627.0573" fill="#FFFFFF" style="stroke:#000000;stroke-width:1;"/><text fill="#000000" font-family="Verdana" font-size="13" font-weight="bold" lengthAdjust="spacing" textLength="65.9839" x="543" y="645.1271">Triggers:</text><text fill="#000000" font-family="Verdana" font-size="13" lengthAdjust="spacing" textLength="110.5" x="543" y="660.9264">- Create streams</text><text fill="#000000" font-family="Verdana" font-size="13" lengthAdjust="spacing" textLength="117.7109" x="543" y="676.7258">- Send datagrams</text><text fill="#000000" font-family="Verdana" font-size="13" lengthAdjust="spacing" textLength="150.5029" x="543" y="692.5251">- Process peer streams</text></g><g class="entity" data-entity="GMN8" data-source-line="35" data-uid="ent0009" id="entity_GMN8"><path d="M537,793.0573 L537,882.0539 L803.1401,882.0539 L803.1401,803.0573 L793.1401,793.0573 L537,793.0573" fill="#FFFFFF" style="stroke:#000000;stroke-width:1;"/><path d="M793.1401,793.0573 L793.1401,803.0573 L803.1401,803.0573 L793.1401,793.0573" fill="#FFFFFF" style="stroke:#000000;stroke-width:1;"/><text fill="#000000" font-family="Verdana" font-size="13" font-weight="bold" lengthAdjust="spacing" textLength="178.7119" x="543" y="811.1271">Draining State Features:</text><text fill="#000000" font-family="Verdana" font-size="13" lengthAdjust="spacing" textLength="209.9741" x="543" y="826.9264">- Graceful shutdown in progress</text><text fill="#000000" font-family="Verdana" font-size="13" lengthAdjust="spacing" textLength="178.9849" x="543" y="842.7258">- No new streams accepted</text><text fill="#000000" font-family="Verdana" font-size="13" lengthAdjust="spacing" textLength="178.1216" x="543" y="858.5251">- Existing streams finishing</text><text fill="#000000" font-family="Verdana" font-size="13" lengthAdjust="spacing" textLength="245.1401" x="543" y="874.3244">- CONNECTION_CLOSE sent/received</text></g><g class="entity" data-entity="GMN11" data-source-line="37" data-uid="ent0012" id="entity_GMN11"><path d="M537.5,975.0573 L537.5,1015.5573 L404.73,1019.5573 L537.5,1023.5573 L537.5,1064.0539 A0,0 0 0 0 537.5,1064.0539 L762.4692,1064.0539 A0,0 0 0 0 762.4692,1064.0539 L762.4692,985.0573 L752.4692,975.0573 L537.5,975.0573 A0,0 0 0 0 537.5,975.0573" fill="#FFFFFF" style="stroke:#000000;stroke-width:1;"/><path d="M752.4692,975.0573 L752.4692,985.0573 L762.4692,985.0573 L752.4692,975.0573" fill="#FFFFFF" style="stroke:#000000;stroke-width:1;"/><text fill="#000000" font-family="Verdana" font-size="13" font-weight="bold" lengthAdjust="spacing" textLength="124.2554" x="543.5" y="993.1271">Error Conditions:</text><text fill="#000000" font-family="Verdana" font-size="13" lengthAdjust="spacing" textLength="129.6699" x="543.5" y="1008.9264">- Protocol violations</text><text fill="#000000" font-family="Verdana" font-size="13" lengthAdjust="spacing" textLength="162.1572" x="543.5" y="1024.7258">- TLS handshake failures</text><text fill="#000000" font-family="Verdana" font-size="13" lengthAdjust="spacing" textLength="203.9692" x="543.5" y="1040.5251">- Transport parameter conflicts</text><text fill="#000000" font-family="Verdana" font-size="13" lengthAdjust="spacing" textLength="189.3188" x="543.5" y="1056.3244">- Version negotiation failures</text></g><g class="entity" data-entity="GMN14" data-source-line="39" data-uid="ent0015" id="entity_GMN14"><path d="M537.5,1141.0573 L537.5,1181.5573 L429.69,1185.5573 L537.5,1189.5573 L537.5,1230.0539 A0,0 0 0 0 537.5,1230.0539 L714.2778,1230.0539 A0,0 0 0 0 714.2778,1230.0539 L714.2778,1151.0573 L704.2778,1141.0573 L537.5,1141.0573 A0,0 0 0 0 537.5,1141.0573" fill="#FFFFFF" style="stroke:#000000;stroke-width:1;"/><path d="M704.2778,1141.0573 L704.2778,1151.0573 L714.2778,1151.0573 L704.2778,1141.0573" fill="#FFFFFF" style="stroke:#000000;stroke-width:1;"/><text fill="#000000" font-family="Verdana" font-size="13" font-weight="bold" lengthAdjust="spacing" textLength="122.459" x="543.5" y="1159.1271">Cleanup Actions:</text><text fill="#000000" font-family="Verdana" font-size="13" lengthAdjust="spacing" textLength="128.8955" x="543.5" y="1174.9264">- All streams closed</text><text fill="#000000" font-family="Verdana" font-size="13" lengthAdjust="spacing" textLength="155.7778" x="543.5" y="1190.7258">- Resources deallocated</text><text fill="#000000" font-family="Verdana" font-size="13" lengthAdjust="spacing" textLength="100.7373" x="543.5" y="1206.5251">- Handles freed</text><text fill="#000000" font-family="Verdana" font-size="13" lengthAdjust="spacing" textLength="122.5479" x="543.5" y="1222.3244">- Memory released</text></g><g class="entity" data-entity="GMN17" data-source-line="42" data-uid="ent0018" id="entity_GMN17"><path d="M537.5,121.0573 L537.5,194.2546 L762.3232,194.2546 L762.3232,131.0573 L752.3232,121.0573 L537.5,121.0573" fill="#FFFFFF" style="stroke:#000000;stroke-width:1;"/><path d="M752.3232,121.0573 L752.3232,131.0573 L762.3232,131.0573 L752.3232,121.0573" fill="#FFFFFF" style="stroke:#000000;stroke-width:1;"/><text fill="#000000" font-family="Verdana" font-size="13" font-weight="bold" lengthAdjust="spacing" textLength="198.6372" x="543.5" y="139.1271">Initial State Dependencies:</text><text fill="#000000" font-family="Verdana" font-size="13" lengthAdjust="spacing" textLength="200.1416" x="543.5" y="154.9264">- Registration must be created</text><text fill="#000000" font-family="Verdana" font-size="13" lengthAdjust="spacing" textLength="203.8232" x="543.5" y="170.7258">- Configuration must be loaded</text><text fill="#000000" font-family="Verdana" font-size="13" lengthAdjust="spacing" textLength="203.7344" x="543.5" y="186.5251">- Credentials must be available</text></g><g class="entity" data-entity="GMN20" data-source-line="44" data-uid="ent0021" id="entity_GMN20"><path d="M1077.5,801.0573 L1077.5,874.2546 L1420.561,874.2546 L1420.561,811.0573 L1410.561,801.0573 L1077.5,801.0573" fill="#FFFFFF" style="stroke:#000000;stroke-width:1;"/><path d="M1410.561,801.0573 L1410.561,811.0573 L1420.561,811.0573 L1410.561,801.0573" fill="#FFFFFF" style="stroke:#000000;stroke-width:1;"/><text fill="#000000" font-family="Verdana" font-size="13" font-weight="bold" lengthAdjust="spacing" textLength="185.999" x="1083.5" y="819.1271">Connected State Enables:</text><text fill="#000000" font-family="Verdana" font-size="13" lengthAdjust="spacing" textLength="19.5635" x="1083.5" y="834.9264">&#226;&#8224;&#8217;</text><text fill="#000000" font-family="Verdana" font-size="13" font-weight="bold" lengthAdjust="spacing" textLength="229.0361" x="1107.6338" y="834.9264">Reference: QUIC Stream States</text><text fill="#000000" font-family="Verdana" font-size="13" lengthAdjust="spacing" textLength="19.5635" x="1083.5" y="850.7258">&#226;&#8224;&#8217;</text><text fill="#000000" font-family="Verdana" font-size="13" font-weight="bold" lengthAdjust="spacing" textLength="235.0981" x="1107.6338" y="850.7258">Reference: HTTP/3 Layer States</text><text fill="#000000" font-family="Verdana" font-size="13" lengthAdjust="spacing" textLength="19.5635" x="1083.5" y="866.5251">&#226;&#8224;&#8217;</text><text fill="#000000" font-family="Verdana" font-size="13" font-weight="bold" lengthAdjust="spacing" textLength="297.9272" x="1107.6338" y="866.5251">Reference: WebTransport Session States</text></g><g class="entity" data-entity="GMN23" data-source-line="47" data-uid="ent0024" id="entity_GMN23"><path d="M798,113.0573 L798,202.0539 L1016.2979,202.0539 L1016.2979,123.0573 L1006.2979,113.0573 L798,113.0573" fill="#FFFFFF" style="stroke:#000000;stroke-width:1;"/><path d="M1006.2979,113.0573 L1006.2979,123.0573 L1016.2979,123.0573 L1006.2979,113.0573" fill="#FFFFFF" style="stroke:#000000;stroke-width:1;"/><text fill="#000000" font-family="Verdana" font-size="13" font-weight="bold" lengthAdjust="spacing" textLength="197.2979" x="804" y="131.1271">QUIC Protocol Compliance:</text><text fill="#000000" font-family="Verdana" font-size="13" lengthAdjust="spacing" textLength="170.3901" x="804" y="146.9264">- RFC 9000 state machine</text><text fill="#000000" font-family="Verdana" font-size="13" lengthAdjust="spacing" textLength="193.9146" x="804" y="162.7258">- Connection ID management</text><text fill="#000000" font-family="Verdana" font-size="13" lengthAdjust="spacing" textLength="176.4331" x="804" y="178.5251">- Flow control enforcement</text><text fill="#000000" font-family="Verdana" font-size="13" lengthAdjust="spacing" textLength="175.957" x="804" y="194.3244">- Congestion control active</text></g><g class="entity" data-entity="GMN26" data-source-line="54" data-uid="ent0027" id="entity_GMN26"><path d="M537,279.0573 L537,319.5573 L414.03,323.5573 L537,327.5573 L537,368.0539 A0,0 0 0 0 537,368.0539 L748.8232,368.0539 A0,0 0 0 0 748.8232,368.0539 L748.8232,289.0573 L738.8232,279.0573 L537,279.0573 A0,0 0 0 0 537,279.0573" fill="#FFFFFF" style="stroke:#000000;stroke-width:1;"/><path d="M738.8232,279.0573 L738.8232,289.0573 L748.8232,289.0573 L738.8232,279.0573" fill="#FFFFFF" style="stroke:#000000;stroke-width:1;"/><text fill="#000000" font-family="Verdana" font-size="13" font-weight="bold" lengthAdjust="spacing" textLength="190.8232" x="543" y="297.1271">Idle State Characteristics:</text><text fill="#000000" font-family="Verdana" font-size="13" lengthAdjust="spacing" textLength="181.3018" x="543" y="312.9264">- Connection object created</text><text fill="#000000" font-family="Verdana" font-size="13" lengthAdjust="spacing" textLength="137.4395" x="543" y="328.7258">- No network activity</text><text fill="#000000" font-family="Verdana" font-size="13" lengthAdjust="spacing" textLength="154.9272" x="543" y="344.5251">- Configuration pending</text><text fill="#000000" font-family="Verdana" font-size="13" lengthAdjust="spacing" textLength="156.603" x="543" y="360.3244">- Ready for start/accept</text></g><g class="entity" data-entity="GMN29" data-source-line="56" data-uid="ent0030" id="entity_GMN29"><path d="M838,793.0573 L838,882.0539 L1041.7808,882.0539 L1041.7808,803.0573 L1031.7808,793.0573 L838,793.0573" fill="#FFFFFF" style="stroke:#000000;stroke-width:1;"/><path d="M1031.7808,793.0573 L1031.7808,803.0573 L1041.7808,803.0573 L1031.7808,793.0573" fill="#FFFFFF" style="stroke:#000000;stroke-width:1;"/><text fill="#000000" font-family="Verdana" font-size="13" font-weight="bold" lengthAdjust="spacing" textLength="131.9106" x="844" y="811.1271">Draining Timeout:</text><text fill="#000000" font-family="Verdana" font-size="13" lengthAdjust="spacing" textLength="151.9565" x="844" y="826.9264">- Configurable duration</text><text fill="#000000" font-family="Verdana" font-size="13" lengthAdjust="spacing" textLength="113.5913" x="844" y="842.7258">- Default: 3x RTT</text><text fill="#000000" font-family="Verdana" font-size="13" lengthAdjust="spacing" textLength="166.0229" x="844" y="858.5251">- Ensures packet delivery</text><text fill="#000000" font-family="Verdana" font-size="13" lengthAdjust="spacing" textLength="182.7808" x="844" y="874.3244">- Prevents connection reuse</text></g><!--link *start*QUICConn to IDLE--><g class="link" data-entity-1=".start.QUICConn" data-entity-2="IDLE" data-source-line="18" data-uid="lnk3" id="link_.start.QUICConn_IDLE"><path d="M369.11,167.8473 C369.41,192.5073 370.1673,254.2977 370.6173,291.4277" fill="none" id="*start*QUICConn-to-IDLE" style="stroke:#000000;stroke-width:1;"/><polygon fill="#000000" points="370.69,297.4273,374.5806,288.3795,370.6294,292.4277,366.5812,288.4764,370.69,297.4273" style="stroke:#000000;stroke-width:1;"/><text fill="#000000" font-family="Verdana" font-size="13" lengthAdjust="spacing" textLength="118.8535" x="371" y="246.1271">ConnectionOpen()</text></g><!--link IDLE to CONNECTING--><g class="link" data-entity-1="IDLE" data-entity-2="CONNECTING" data-source-line="19" data-uid="lnk4" id="link_IDLE_CONNECTING"><path d="M327.86,328.8873 C253.64,337.3073 106.79,358.6473 76,398.0573 C54.27,425.8673 83.0205,450.014 118.1705,468.674" fill="none" id="IDLE-to-CONNECTING" style="stroke:#000000;stroke-width:1;"/><polygon fill="#000000" points="123.47,471.4873,117.3963,463.7343,119.0537,469.1428,113.6451,470.8003,123.47,471.4873" style="stroke:#000000;stroke-width:1;"/><text fill="#000000" font-family="Verdana" font-size="13" lengthAdjust="spacing" textLength="117.0381" x="77" y="412.1271">ConnectionStart()</text><text fill="#000000" font-family="Verdana" font-size="13" lengthAdjust="spacing" textLength="49.1118" x="110.9631" y="427.9264">[Client]</text></g><!--link IDLE to CONNECTING--><g class="link" data-entity-1="IDLE" data-entity-2="CONNECTING" data-source-line="20" data-uid="lnk5" id="link_IDLE_CONNECTING"><path d="M327.94,340.1673 C298.91,352.3973 261.26,371.7473 235,398.0573 C214.15,418.9473 201.5823,444.1801 193.0223,465.7601" fill="none" id="IDLE-to-CONNECTING-1" style="stroke:#000000;stroke-width:1;"/><polygon fill="#000000" points="190.81,471.3373,197.8466,464.4463,192.6536,466.6896,190.4103,461.4966,190.81,471.3373" style="stroke:#000000;stroke-width:1;"/><text fill="#000000" font-family="Verdana" font-size="13" lengthAdjust="spacing" textLength="128.5591" x="236" y="412.1271">NEW_CONNECTION</text><text fill="#000000" font-family="Verdana" font-size="13" lengthAdjust="spacing" textLength="54.9707" x="272.7942" y="427.9264">[Server]</text></g><!--link CONNECTING to CONNECTED--><g class="link" data-entity-1="CONNECTING" data-entity-2="CONNECTED" data-source-line="21" data-uid="lnk6" id="link_CONNECTING_CONNECTED"><path d="M181.53,523.7473 C181.32,535.9273 181.1,550.7473 181,564.0573 C180.89,578.7273 180.89,582.3873 181,597.0573 C181.1,610.3673 181.2166,619.1882 181.4266,631.3682" fill="none" id="CONNECTING-to-CONNECTED" style="stroke:#000000;stroke-width:1;"/><polygon fill="#000000" points="181.53,637.3673,185.3743,628.2997,181.4438,632.368,177.3754,628.4376,181.53,637.3673" style="stroke:#000000;stroke-width:1;"/><text fill="#000000" font-family="Verdana" font-size="13" lengthAdjust="spacing" textLength="180.064" x="182" y="578.1271">CONNECTION_CONNECTED</text><text fill="#000000" font-family="Verdana" font-size="13" lengthAdjust="spacing" textLength="175.2715" x="184.3962" y="593.9264">(TLS handshake complete)</text></g><!--link CONNECTING to ERROR--><g class="link" data-entity-1="CONNECTING" data-entity-2="ERROR" data-source-line="22" data-uid="lnk7" id="link_CONNECTING_ERROR"><path d="M147.67,523.7073 C119.18,546.8973 80.71,584.1573 64,627.0573 C42.02,683.4773 54.69,705.0373 72,763.0573 C100.2,857.5773 114.02,894.9773 199,945.0573 C234.96,966.2473 250.68,956.3473 288,975.0573 C298.34,980.2373 303.9861,983.5131 313.4661,990.0731" fill="none" id="CONNECTING-to-ERROR" style="stroke:#000000;stroke-width:1;"/><polygon fill="#000000" points="318.4,993.4873,313.2753,985.0768,314.2884,990.6422,308.723,991.6553,318.4,993.4873" style="stroke:#000000;stroke-width:1;"/><text fill="#000000" font-family="Verdana" font-size="13" lengthAdjust="spacing" textLength="117.749" x="73" y="744.1271">Handshake failure</text><text fill="#000000" font-family="Verdana" font-size="13" lengthAdjust="spacing" textLength="53.2061" x="105.2715" y="759.9264">Timeout</text></g><!--link CONNECTED to DRAINING--><g class="link" data-entity-1="CONNECTED" data-entity-2="DRAINING" data-source-line="23" data-uid="lnk8" id="link_CONNECTED_DRAINING"><path d="M189.21,689.5973 C192.53,701.7373 196.31,716.5773 199,730.0573 C204.52,757.7073 208.0415,783.8281 210.5815,805.4981" fill="none" id="CONNECTED-to-DRAINING" style="stroke:#000000;stroke-width:1;"/><polygon fill="#000000" points="211.28,811.4573,214.2051,802.0528,210.6979,806.4913,206.2595,802.9842,211.28,811.4573" style="stroke:#000000;stroke-width:1;"/><text fill="#000000" font-family="Verdana" font-size="13" lengthAdjust="spacing" textLength="149.8682" x="206" y="744.1271">ConnectionShutdown()</text><text fill="#000000" font-family="Verdana" font-size="13" lengthAdjust="spacing" textLength="96.6494" x="232.6094" y="759.9264">Peer shutdown</text></g><!--link CONNECTED to ERROR--><g class="link" data-entity-1="CONNECTED" data-entity-2="ERROR" data-source-line="24" data-uid="lnk9" id="link_CONNECTED_ERROR"><path d="M265.02,689.6373 C309.98,704.0573 357.66,721.0473 364,730.0573 C393.48,771.9973 368.6703,925.1291 357.0503,987.4191" fill="none" id="CONNECTED-to-ERROR" style="stroke:#000000;stroke-width:1;"/><polygon fill="#000000" points="355.95,993.3173,361.5326,985.2035,356.8669,988.4021,353.6683,983.7364,355.95,993.3173" style="stroke:#000000;stroke-width:1;"/><text fill="#000000" font-family="Verdana" font-size="13" lengthAdjust="spacing" textLength="89.3687" x="383.2527" y="835.1271">Protocol error</text><text fill="#000000" font-family="Verdana" font-size="13" lengthAdjust="spacing" textLength="99.874" x="378" y="850.9264">Transport error</text></g><!--link DRAINING to CLOSED--><g class="link" data-entity-1="DRAINING" data-entity-2="CLOSED" data-source-line="25" data-uid="lnk10" id="link_DRAINING_CLOSED"><path d="M188.76,863.7573 C148.89,906.7373 79.9,996.1173 121,1064.0573 C153.67,1118.0573 213.6778,1147.1913 266.5378,1164.1813" fill="none" id="DRAINING-to-CLOSED" style="stroke:#000000;stroke-width:1;"/><polygon fill="#000000" points="272.25,1166.0173,264.9057,1159.4552,267.4898,1164.4873,262.4577,1167.0715,272.25,1166.0173" style="stroke:#000000;stroke-width:1;"/><text fill="#000000" font-family="Verdana" font-size="13" lengthAdjust="spacing" textLength="157.0664" x="122" y="1025.1271">SHUTDOWN_COMPLETE</text></g><!--link ERROR to CLOSED--><g class="link" data-entity-1="ERROR" data-entity-2="CLOSED" data-source-line="26" data-uid="lnk11" id="link_ERROR_CLOSED"><path d="M351,1045.8273 C351,1076.7273 351,1122.7373 351,1153.5273" fill="none" id="ERROR-to-CLOSED" style="stroke:#000000;stroke-width:1;"/><polygon fill="#000000" points="351,1159.5273,355,1150.5273,351,1154.5273,347,1150.5273,351,1159.5273" style="stroke:#000000;stroke-width:1;"/><text fill="#000000" font-family="Verdana" font-size="13" lengthAdjust="spacing" textLength="116.9048" x="352" y="1108.1271">Cleanup complete</text></g><!--link CLOSED to *end*QUICConn--><g class="link" data-entity-1="CLOSED" data-entity-2=".end.QUICConn" data-source-line="27" data-uid="lnk13" id="link_CLOSED_.end.QUICConn"><path d="M351,1211.7173 C351,1240.6073 351,1280.6073 351,1300.8873" fill="none" id="CLOSED-to-*end*QUICConn" style="stroke:#000000;stroke-width:1;"/><polygon fill="#000000" points="351,1306.8873,355,1297.8873,351,1301.8873,347,1297.8873,351,1306.8873" style="stroke:#000000;stroke-width:1;"/><text fill="#000000" font-family="Verdana" font-size="13" lengthAdjust="spacing" textLength="119.6025" x="352" y="1274.1271">ConnectionClose()</text></g><!--link IDLE to ERROR--><g class="link" data-entity-1="IDLE" data-entity-2="ERROR" data-source-line="50" data-uid="lnk14" id="link_IDLE_ERROR"><path d="M370.77,349.8273 C370.18,428.9173 369.64,668.3873 384,700.0573 C408.93,755.0373 459.03,737.6473 483,793.0573 C498.71,829.3573 497.83,845.3873 483,882.0573 C463.9,929.2773 424.5615,965.5927 392.5715,989.8427" fill="none" id="IDLE-to-ERROR" style="stroke:#000000;stroke-width:1;"/><polygon fill="#000000" points="387.79,993.4673,397.3786,991.2181,391.7746,990.4468,392.5458,984.8428,387.79,993.4673" style="stroke:#000000;stroke-width:1;"/><text fill="#000000" font-family="Verdana" font-size="13" lengthAdjust="spacing" textLength="134.5195" x="385" y="661.1271">Invalid configuration</text><text fill="#000000" font-family="Verdana" font-size="13" lengthAdjust="spacing" textLength="118.8789" x="392.8203" y="676.9264">Credential failures</text></g><!--link DRAINING to ERROR--><g class="link" data-entity-1="DRAINING" data-entity-2="ERROR" data-source-line="51" data-uid="lnk15" id="link_DRAINING_ERROR"><path d="M208.05,863.7873 C204.1,886.7173 202.05,920.5973 217,945.0573 C226.48,960.5673 258.74,978.0178 291.75,993.2178" fill="none" id="DRAINING-to-ERROR" style="stroke:#000000;stroke-width:1;"/><polygon fill="#000000" points="297.2,995.7273,290.6981,988.3297,292.6584,993.636,287.352,995.5963,297.2,995.7273" style="stroke:#000000;stroke-width:1;"/><text fill="#000000" font-family="Verdana" font-size="13" lengthAdjust="spacing" textLength="123.5635" x="218" y="926.1271">Forced termination</text><text fill="#000000" font-family="Verdana" font-size="13" lengthAdjust="spacing" textLength="119.4185" x="220.0725" y="941.9264">Timeout exceeded</text></g><!--link CONNECTED to GMN5--><g class="link" data-entity-1="CONNECTED" data-entity-2="GMN5" data-source-line="33" data-uid="lnk7" id="link_CONNECTED_GMN5"><path d="M215.91,637.3873 C244.05,617.4273 286.04,591.5473 327.5,580.5573 C396.24,562.3273 419.06,561.2573 487.5,580.5573 C520.03,589.7273 552.45,609.1273 577.42,626.8673" fill="none" id="CONNECTED-GMN5" style="stroke:#000000;stroke-width:1;stroke-dasharray:7,7;"/></g><!--link GMN8 to DRAINING--><g class="link" data-entity-1="GMN8" data-entity-2="DRAINING" data-source-line="35" data-uid="lnk10" id="link_GMN8_DRAINING"><path d="M599.67,792.9173 C566.92,774.6973 526.61,755.7673 487.5,746.5573 C417.42,730.0573 393.32,722.3973 325.5,746.5573 C289.49,759.3873 256.69,789.3873 236.14,811.4473" fill="none" id="GMN8-DRAINING" style="stroke:#000000;stroke-width:1;stroke-dasharray:7,7;"/></g><!--link GMN17 to IDLE--><g class="link" data-entity-1="GMN17" data-entity-2="IDLE" data-source-line="42" data-uid="lnk19" id="link_GMN17_IDLE"><path d="M590.55,194.1873 C562.52,210.9273 528.59,231.0973 498,249.0573 C470.21,265.3673 438.87,283.5073 414.28,297.6873" fill="none" id="GMN17-IDLE" style="stroke:#000000;stroke-width:1;stroke-dasharray:7,7;"/></g><!--link CONNECTED to GMN20--><g class="link" data-entity-1="CONNECTED" data-entity-2="GMN20" data-source-line="44" data-uid="lnk22" id="link_CONNECTED_GMN20"><path d="M265.58,689.6373 C280.29,693.5073 295.53,697.1673 310,700.0573 C639.39,765.7873 729.23,734.6473 1060,793.0573 C1073.43,795.4273 1087.34,798.1373 1101.24,801.0173" fill="none" id="CONNECTED-GMN20" style="stroke:#000000;stroke-width:1;stroke-dasharray:7,7;"/></g><!--link QUICConn to GMN23--><g class="link" data-entity-1="QUICConn" data-entity-2="GMN23" data-source-line="47" data-uid="lnk25" id="link_QUICConn_GMN23"><path d="M21.9998,103.5353 C22.0287,103.4214 22.058,103.3076 22.0874,103.1939 C22.5582,101.3741 23.0854,99.5703 23.6747,97.794 C24.8533,94.2414 26.28,90.7986 28,87.5573 C32.8,78.5073 35.89,76.1073 45.5,72.5573 C82.86,58.7373 724.07,62.0873 762.5,72.5573 C792.55,80.7373 822.72,96.9273 847.67,113.0073" fill="none" id="QUICConn-GMN23" style="stroke:#000000;stroke-width:1;stroke-dasharray:7,7;"/></g><!--link DRAINING to GMN29--><g class="link" data-entity-1="DRAINING" data-entity-2="GMN29" data-source-line="56" data-uid="lnk31" id="link_DRAINING_GMN29"><path d="M236.14,811.4473 C256.69,789.3873 289.49,759.3873 325.5,746.5573 C425.56,710.9073 701.84,715.7773 803.5,746.5573 C834.3,755.8873 864.51,774.7073 888.64,792.8273" fill="none" id="DRAINING-GMN29" style="stroke:#000000;stroke-width:1;stroke-dasharray:7,7;"/></g><!--SRC=[XLRDRXit4BxhATXSOYyWs41EzQ60kv9Z0OxaIafzY8E0uiwkM5FaWkJACO82UOtUYhvAtoHFqXbobxkIRVGcSMOuFz_t3VSdluKTi5fngKVkGUgQMxvZpdCFxDk8iL-vUAYiQNIH6sKiKxBQ-ergW6p65c3Z-KQX8vvTMciUXqT_ZaPUUWNiju-pdEL6Qn1U6irM8SVQSkqa7RZHAAPzywAdUyEu2vUG9TGMtMUJcocxO5FjxLCyIgPyCPzFy_Li_XuThhakt9O_09EQrTPK5fmxTfrEq7C9l7XY9RRWl0M-SsS5zxp2mVJ-a-NbR1ulNcqRNvX7ZVTY8sWi-bjl5gjmvQ0R3tOdzO7RTBbSBAa779vbHeZ6MZIZ_LFscOt7ltHDzjSiQj0df-WHBEHoq6plYCEp_kJqNd_AbGJjFxyQCv_UVUaE5dCCM87TWwM0WTyWB7QM8hwautjzihvPiMsQk32xMe67q-TtTRtty9HSgiR2lLxB7PZ6zp6Oa486in_qsQ90hTu287RjmRFmBkEjDTu8enZGs34TKR4sriS3Z4k9GjCTbglhZ-l9uexw_N1xCrrFqJFUUU2MA-2wgLFlL4UqaHi1Eom_LyO10efoUHi9FtOr25bAmRZM1az88qXSS0HBmKfhTinOMI6Pr0WzW5aI9pFb8QvPjaP31TPTPDcz7hC3RC91wZp87ukr3BuAzAc2_NUC9Ufgg0mn77-FNiuOEd-MC4SLeNEh9ZfPWIvOKXMT81e21SdgW5tqR9CeA4EE0UvPDh6uigIksZroXHcGD5t6zvOBA1kLM30KFJdC3NRps2LYN0YeKP9acdwLpjFDdR74H6wB9w6N0Ty9JkPGL6SM1CWzQVQWuevgMHQbZNWNSTcrTIOExgLH4U9d27M2SAz19OmkbHJUlO9Lkk2ekaJLBEl8UYc6rLqgbOOWYA1XFajmfh485Yk0AsK4RmT74bPuN5g81nzWPt0fMy3R7GtdBLB1E3UEQwy0N685Q24n26FHiGIB_x7IKAWtDTNPBhyicuK5grh89uFmjk0bL8YTZLtl6kVP1fTFO5ye2ETVogevSb265wqTrox2YJbSil8zJezl5BJJsnZlINd7d6-rZCgCvKqr1SNA_ltdn_U_Vtp_2zsMNOyNyKLSXVcsRzphljVhzUtPEtR3dn3m_tE-WqtFanKoldz5iunGIBGBoqboZ6BKd3jITNfkgS5GRehCKsGt-wkS_Nn-Vjw-QJikK3BGJhrx_6OJD6XUuKU7zcIxKkQH2EmjBMADZwv8Deohm8MupeFZDNkW5gAWI2IAj5fpltMZzB1rmflfFLUo2199mD_h7kTU6mVBlek_edgAz6Q7uFPPeWs9F8-qlYoYhhbgsn_ix4FHzMH6hRHKoRUePQIEfSKZqjRinsOsV-2l8PF3_lAFnZx4cKZ_z9pWf8zsRGs_QV23u2mklECj_lA6RHlkouefaDsiI2CTenvBtYX_mTvzPSlrEgnIxMYsY8vu08-2LuYUVOgR3_O8WIDekZOjD0v6_m40]--></g></svg>