<svg xmlns="http://www.w3.org/2000/svg" xmlns:xlink="http://www.w3.org/1999/xlink" contentStyleType="text/css" data-diagram-type="ACTIVITY" height="1645px" preserveAspectRatio="none" style="width:2037px;height:1645px;background:#FFFFFF;" version="1.1" viewBox="0 0 2037 1645" width="2037px" zoomAndPan="magnify"><title>Listener Callback Processing</title><defs/><g><g class="title" data-source-line="8"><text fill="#000000" font-family="Verdana" font-size="22" font-weight="bold" lengthAdjust="spacing" textLength="353.3105" x="840.7051" y="37.1182">Listener Callback Processing</text></g><ellipse cx="1019.3604" cy="62.7373" fill="#FFFFFF" rx="10" ry="10" style="stroke:#000000;stroke-width:1;"/><rect fill="#FFFFFF" height="265.8071" style="stroke:#000000;stroke-width:1;" width="583.0659" x="901.2568" y="82.7373"/><path d="M1066.5283,82.7373 L1066.5283,92.752 L1056.5283,102.752 L901.2568,102.752" fill="none" style="stroke:#000000;stroke-width:1;"/><text fill="#000000" font-family="Verdana" font-size="14" font-weight="bold" lengthAdjust="spacing" textLength="155.2715" x="904.2568" y="97.8125">Callback Invocation</text><path d="M1147.4639,112.752 L1147.4639,137.4509 L1127.4639,141.4509 L1147.4639,145.4509 L1147.4639,170.1499 A0,0 0 0 0 1147.4639,170.1499 L1408.3608,170.1499 A0,0 0 0 0 1408.3608,170.1499 L1408.3608,122.752 L1398.3608,112.752 L1147.4639,112.752 A0,0 0 0 0 1147.4639,112.752" fill="#FFFFFF" style="stroke:#000000;stroke-width:1;"/><path d="M1398.3608,112.752 L1398.3608,122.752 L1408.3608,122.752 L1398.3608,112.752" fill="#FFFFFF" style="stroke:#000000;stroke-width:1;"/><text fill="#000000" font-family="Verdana" font-size="13" font-weight="bold" lengthAdjust="spacing" textLength="239.897" x="1153.4639" y="130.8218">Reference: MsQuic Core Diagram</text><text fill="#000000" font-family="Verdana" font-size="13" lengthAdjust="spacing" textLength="172.9102" x="1153.4639" y="146.6211">Listener events queued by</text><text fill="#000000" font-family="Verdana" font-size="13" lengthAdjust="spacing" textLength="153.1182" x="1153.4639" y="162.4204">MsQuic core processing</text><rect fill="#90EE90" height="34.584" rx="12.5" ry="12.5" style="stroke:#000000;stroke-width:1;" width="216.207" x="911.2568" y="124.1589"/><text fill="#000000" font-family="Verdana" font-size="12" lengthAdjust="spacing" textLength="196.207" x="921.2568" y="146.2234">Receive event from MsQuic Core</text><path d="M1137.3682,180.1499 L1137.3682,220.6482 L1117.3682,224.6482 L1137.3682,228.6482 L1137.3682,269.1465 A0,0 0 0 0 1137.3682,269.1465 L1474.3228,269.1465 A0,0 0 0 0 1474.3228,269.1465 L1474.3228,190.1499 L1464.3228,180.1499 L1137.3682,180.1499 A0,0 0 0 0 1137.3682,180.1499" fill="#FFFFFF" style="stroke:#000000;stroke-width:1;"/><path d="M1464.3228,180.1499 L1464.3228,190.1499 L1474.3228,190.1499 L1464.3228,180.1499" fill="#FFFFFF" style="stroke:#000000;stroke-width:1;"/><text fill="#000000" font-family="Verdana" font-size="13" font-weight="bold" lengthAdjust="spacing" textLength="141.7876" x="1143.3682" y="198.2197">Callback Signature:</text><text fill="#000000" font-family="Verdana" font-size="13" lengthAdjust="spacing" textLength="315.9546" x="1143.3682" y="214.019">QUIC_STATUS QUIC_API LISTENER_CALLBACK(</text><text fill="#000000" font-family="Verdana" font-size="13" lengthAdjust="spacing" textLength="105.3267" x="1152.5088" y="229.8184">HQUIC Listener,</text><text fill="#000000" font-family="Verdana" font-size="13" lengthAdjust="spacing" textLength="95.6909" x="1152.5088" y="245.6177">void* Context,</text><text fill="#000000" font-family="Verdana" font-size="13" lengthAdjust="spacing" textLength="214.4429" x="1152.5088" y="261.417">QUIC_LISTENER_EVENT* Event)</text><rect fill="#90EE90" height="34.584" rx="12.5" ry="12.5" style="stroke:#000000;stroke-width:1;" width="196.0156" x="921.3525" y="207.3562"/><text fill="#000000" font-family="Verdana" font-size="12" lengthAdjust="spacing" textLength="176.0156" x="931.3525" y="229.4207">Invoke LISTENER_CALLBACK</text><path d="M1116.7695,279.1465 L1116.7695,303.8455 L1096.7695,307.8455 L1116.7695,311.8455 L1116.7695,336.5444 A0,0 0 0 0 1116.7695,336.5444 L1295.1406,336.5444 A0,0 0 0 0 1295.1406,336.5444 L1295.1406,289.1465 L1285.1406,279.1465 L1116.7695,279.1465 A0,0 0 0 0 1116.7695,279.1465" fill="#FFFFFF" style="stroke:#000000;stroke-width:1;"/><path d="M1285.1406,279.1465 L1285.1406,289.1465 L1295.1406,289.1465 L1285.1406,279.1465" fill="#FFFFFF" style="stroke:#000000;stroke-width:1;"/><text fill="#000000" font-family="Verdana" font-size="13" font-weight="bold" lengthAdjust="spacing" textLength="157.3711" x="1122.7695" y="297.2163">Listener Event Types:</text><text fill="#000000" font-family="Verdana" font-size="13" lengthAdjust="spacing" textLength="139.0327" x="1122.7695" y="313.0156">- NEW_CONNECTION</text><text fill="#000000" font-family="Verdana" font-size="13" lengthAdjust="spacing" textLength="123.5" x="1122.7695" y="328.8149">- STOP_COMPLETE</text><rect fill="#90EE90" height="34.584" rx="12.5" ry="12.5" style="stroke:#000000;stroke-width:1;" width="154.8184" x="941.9512" y="290.5535"/><text fill="#000000" font-family="Verdana" font-size="12" lengthAdjust="spacing" textLength="134.8184" x="951.9512" y="312.6179">Determine Event Type</text><polygon fill="#90EE90" points="353.3599,368.5444,421.2344,368.5444,433.2344,380.5444,421.2344,392.5444,353.3599,392.5444,341.3599,380.5444,353.3599,368.5444" style="stroke:#000000;stroke-width:1;"/><text fill="#000000" font-family="Verdana" font-size="11" lengthAdjust="spacing" textLength="108.7808" x="391.2971" y="403.6035">NEW_CONNECTION</text><text fill="#000000" font-family="Verdana" font-size="11" lengthAdjust="spacing" textLength="67.8745" x="353.3599" y="384.9192">Event Type?</text><rect fill="#FFFFFF" height="695.3955" style="stroke:#000000;stroke-width:1;" width="1044.3848" x="6" y="425.9131"/><path d="M259.8516,425.9131 L259.8516,435.9277 L249.8516,445.9277 L6,445.9277" fill="none" style="stroke:#000000;stroke-width:1;"/><text fill="#000000" font-family="Verdana" font-size="14" font-weight="bold" lengthAdjust="spacing" textLength="243.8516" x="9" y="440.9883">NEW_CONNECTION Processing</text><path d="M488.5266,462.9277 L488.5266,527.125 L468.5266,531.125 L488.5266,535.125 L488.5266,599.3223 A0,0 0 0 0 488.5266,599.3223 L751.5374,599.3223 A0,0 0 0 0 751.5374,599.3223 L751.5374,472.9277 L741.5374,462.9277 L488.5266,462.9277 A0,0 0 0 0 488.5266,462.9277" fill="#FFFFFF" style="stroke:#000000;stroke-width:1;"/><path d="M741.5374,462.9277 L741.5374,472.9277 L751.5374,472.9277 L741.5374,462.9277" fill="#FFFFFF" style="stroke:#000000;stroke-width:1;"/><text fill="#000000" font-family="Verdana" font-size="13" font-weight="bold" lengthAdjust="spacing" textLength="242.0107" x="494.5266" y="480.9976">QUIC_NEW_CONNECTION_INFO:</text><text fill="#000000" font-family="Verdana" font-size="13" lengthAdjust="spacing" textLength="87.9087" x="494.5266" y="496.7969">- QuicVersion</text><text fill="#000000" font-family="Verdana" font-size="13" lengthAdjust="spacing" textLength="95.6719" x="494.5266" y="512.5962">- LocalAddress</text><text fill="#000000" font-family="Verdana" font-size="13" lengthAdjust="spacing" textLength="112.582" x="494.5266" y="528.3955">- RemoteAddress</text><text fill="#000000" font-family="Verdana" font-size="13" lengthAdjust="spacing" textLength="209.1616" x="494.5266" y="544.1948">- CryptoBuffer (TLS handshake)</text><text fill="#000000" font-family="Verdana" font-size="13" lengthAdjust="spacing" textLength="99.2583" x="494.5266" y="559.9941">- ClientAlpnList</text><text fill="#000000" font-family="Verdana" font-size="13" lengthAdjust="spacing" textLength="110.1763" x="494.5266" y="575.7935">- NegotiatedAlpn</text><text fill="#000000" font-family="Verdana" font-size="13" lengthAdjust="spacing" textLength="132.0186" x="494.5266" y="591.5928">- ServerName (SNI)</text><rect fill="#90EE90" height="34.584" rx="12.5" ry="12.5" style="stroke:#000000;stroke-width:1;" width="162.459" x="306.0676" y="513.833"/><text fill="#000000" font-family="Verdana" font-size="12" lengthAdjust="spacing" textLength="142.459" x="316.0676" y="535.8975">Extract Connection Info</text><path d="M503.7141,634.3223 L503.7141,682.7202 L483.7141,686.7202 L503.7141,690.7202 L503.7141,739.1182 A0,0 0 0 0 503.7141,739.1182 L721.2566,739.1182 A0,0 0 0 0 721.2566,739.1182 L721.2566,644.3223 L711.2566,634.3223 L503.7141,634.3223 A0,0 0 0 0 503.7141,634.3223" fill="#FFFFFF" style="stroke:#000000;stroke-width:1;"/><path d="M711.2566,634.3223 L711.2566,644.3223 L721.2566,644.3223 L711.2566,634.3223" fill="#FFFFFF" style="stroke:#000000;stroke-width:1;"/><text fill="#000000" font-family="Verdana" font-size="13" font-weight="bold" lengthAdjust="spacing" textLength="134.8813" x="509.7141" y="652.3921">Validation Checks:</text><text fill="#000000" font-family="Verdana" font-size="13" lengthAdjust="spacing" textLength="132.2534" x="509.7141" y="668.1914">- ALPN compatibility</text><text fill="#000000" font-family="Verdana" font-size="13" lengthAdjust="spacing" textLength="128.0068" x="509.7141" y="683.9907">- Source IP filtering</text><text fill="#000000" font-family="Verdana" font-size="13" lengthAdjust="spacing" textLength="93.1201" x="509.7141" y="699.79">- Rate limiting</text><text fill="#000000" font-family="Verdana" font-size="13" lengthAdjust="spacing" textLength="144.6504" x="509.7141" y="715.5894">- Resource availability</text><text fill="#000000" font-family="Verdana" font-size="13" lengthAdjust="spacing" textLength="196.5425" x="509.7141" y="731.3887">- Authentication requirements</text><rect fill="#90EE90" height="34.584" rx="12.5" ry="12.5" style="stroke:#000000;stroke-width:1;" width="192.834" x="290.8801" y="669.4282"/><text fill="#000000" font-family="Verdana" font-size="12" lengthAdjust="spacing" textLength="172.834" x="300.8801" y="691.4927">Validate Connection Request</text><polygon fill="#90EE90" points="333.2263,774.1182,441.3679,774.1182,453.3679,786.1182,441.3679,798.1182,333.2263,798.1182,321.2263,786.1182,333.2263,774.1182" style="stroke:#000000;stroke-width:1;"/><text fill="#000000" font-family="Verdana" font-size="11" lengthAdjust="spacing" textLength="108.1416" x="333.2263" y="790.4929">Accept Connection?</text><text fill="#000000" font-family="Verdana" font-size="11" lengthAdjust="spacing" textLength="18.7935" x="302.4329" y="783.8086">yes</text><text fill="#000000" font-family="Verdana" font-size="11" lengthAdjust="spacing" textLength="13.6372" x="453.3679" y="783.8086">no</text><path d="M229.7295,808.1182 L229.7295,840.7168 L209.7295,844.7168 L229.7295,848.7168 L229.7295,881.3154 A0,0 0 0 0 229.7295,881.3154 L495.0444,881.3154 A0,0 0 0 0 495.0444,881.3154 L495.0444,818.1182 L485.0444,808.1182 L229.7295,808.1182 A0,0 0 0 0 229.7295,808.1182" fill="#FFFFFF" style="stroke:#000000;stroke-width:1;"/><path d="M485.0444,808.1182 L485.0444,818.1182 L495.0444,818.1182 L485.0444,808.1182" fill="#FFFFFF" style="stroke:#000000;stroke-width:1;"/><text fill="#000000" font-family="Verdana" font-size="13" font-weight="bold" lengthAdjust="spacing" textLength="161.7319" x="235.7295" y="826.188">SetCallbackHandler():</text><text fill="#000000" font-family="Verdana" font-size="13" lengthAdjust="spacing" textLength="241.6426" x="235.7295" y="841.9873">- Assign connection callback function</text><text fill="#000000" font-family="Verdana" font-size="13" lengthAdjust="spacing" textLength="160.4688" x="235.7295" y="857.7866">- Set application context</text><text fill="#000000" font-family="Verdana" font-size="13" lengthAdjust="spacing" textLength="244.3149" x="235.7295" y="873.5859">- Enable connection event processing</text><rect fill="#90EE90" height="34.584" rx="12.5" ry="12.5" style="stroke:#000000;stroke-width:1;" width="165.875" x="43.8545" y="827.4248"/><text fill="#000000" font-family="Verdana" font-size="12" lengthAdjust="spacing" textLength="145.875" x="53.8545" y="849.4893">Set Connection Callback</text><path d="M245.1572,907.1147 L245.1572,947.613 L225.1572,951.613 L245.1572,955.613 L245.1572,996.1113 A0,0 0 0 0 245.1572,996.1113 L498.1577,996.1113 A0,0 0 0 0 498.1577,996.1113 L498.1577,917.1147 L488.1577,907.1147 L245.1572,907.1147 A0,0 0 0 0 245.1572,907.1147" fill="#FFFFFF" style="stroke:#000000;stroke-width:1;"/><path d="M488.1577,907.1147 L488.1577,917.1147 L498.1577,917.1147 L488.1577,907.1147" fill="#FFFFFF" style="stroke:#000000;stroke-width:1;"/><text fill="#000000" font-family="Verdana" font-size="13" font-weight="bold" lengthAdjust="spacing" textLength="224.415" x="251.1572" y="925.1846">ConnectionSetConfiguration():</text><text fill="#000000" font-family="Verdana" font-size="13" lengthAdjust="spacing" textLength="177.144" x="251.1572" y="940.9839">- Apply server TLS settings</text><text fill="#000000" font-family="Verdana" font-size="13" lengthAdjust="spacing" textLength="122.2495" x="251.1572" y="956.7832">- Set stream limits</text><text fill="#000000" font-family="Verdana" font-size="13" lengthAdjust="spacing" textLength="154.248" x="251.1572" y="972.5825">- Configure flow control</text><text fill="#000000" font-family="Verdana" font-size="13" lengthAdjust="spacing" textLength="232.0005" x="251.1572" y="988.3818">- Enable features (datagrams, etc.)</text><rect fill="#90EE90" height="34.584" rx="12.5" ry="12.5" style="stroke:#000000;stroke-width:1;" width="196.7305" x="28.4268" y="934.321"/><text fill="#000000" font-family="Verdana" font-size="12" lengthAdjust="spacing" textLength="176.7305" x="38.4268" y="956.3855">Set Connection Configuration</text><path d="M255.584,1006.1113 L255.584,1038.71 L235.584,1042.71 L255.584,1046.71 L255.584,1079.3086 A0,0 0 0 0 255.584,1079.3086 L558.8452,1079.3086 A0,0 0 0 0 558.8452,1079.3086 L558.8452,1016.1113 L548.8452,1006.1113 L255.584,1006.1113 A0,0 0 0 0 255.584,1006.1113" fill="#FFFFFF" style="stroke:#000000;stroke-width:1;"/><path d="M548.8452,1006.1113 L548.8452,1016.1113 L558.8452,1016.1113 L548.8452,1006.1113" fill="#FFFFFF" style="stroke:#000000;stroke-width:1;"/><text fill="#000000" font-family="Verdana" font-size="13" font-weight="bold" lengthAdjust="spacing" textLength="158.1201" x="261.584" y="1024.1812">Connection Accepted:</text><text fill="#000000" font-family="Verdana" font-size="13" lengthAdjust="spacing" textLength="272.8984" x="261.584" y="1039.9805">- Connection will proceed with handshake</text><text fill="#000000" font-family="Verdana" font-size="13" lengthAdjust="spacing" textLength="282.2612" x="261.584" y="1055.7798">- Application will receive connection events</text><text fill="#000000" font-family="Verdana" font-size="13" lengthAdjust="spacing" textLength="237.5229" x="261.584" y="1071.5791">- Resources allocated for connection</text><rect fill="#90EE90" height="34.584" rx="12.5" ry="12.5" style="stroke:#000000;stroke-width:1;" width="217.584" x="18" y="1025.418"/><text fill="#000000" font-family="Verdana" font-size="12" lengthAdjust="spacing" textLength="197.584" x="28" y="1047.4824">Return QUIC_STATUS_SUCCESS</text><path d="M736.7593,808.1182 L736.7593,848.6165 L716.7593,852.6165 L736.7593,856.6165 L736.7593,897.1147 A0,0 0 0 0 736.7593,897.1147 L1030.3848,897.1147 A0,0 0 0 0 1030.3848,897.1147 L1030.3848,818.1182 L1020.3848,808.1182 L736.7593,808.1182 A0,0 0 0 0 736.7593,808.1182" fill="#FFFFFF" style="stroke:#000000;stroke-width:1;"/><path d="M1020.3848,808.1182 L1020.3848,818.1182 L1030.3848,818.1182 L1020.3848,808.1182" fill="#FFFFFF" style="stroke:#000000;stroke-width:1;"/><text fill="#000000" font-family="Verdana" font-size="13" font-weight="bold" lengthAdjust="spacing" textLength="155.3271" x="742.7593" y="826.188">Connection Rejected:</text><text fill="#000000" font-family="Verdana" font-size="13" lengthAdjust="spacing" textLength="210.9834" x="742.7593" y="841.9873">- QUIC_STATUS_UNREACHABLE</text><text fill="#000000" font-family="Verdana" font-size="13" lengthAdjust="spacing" textLength="272.6255" x="742.7593" y="857.7866">- QUIC_STATUS_CONNECTION_REFUSED</text><text fill="#000000" font-family="Verdana" font-size="13" lengthAdjust="spacing" textLength="205.7402" x="742.7593" y="873.5859">- Connection will be terminated</text><text fill="#000000" font-family="Verdana" font-size="13" lengthAdjust="spacing" textLength="251.3672" x="742.7593" y="889.3853">- No further events for this connection</text><rect fill="#90EE90" height="34.584" rx="12.5" ry="12.5" style="stroke:#000000;stroke-width:1;" width="137.9141" x="578.8452" y="835.3245"/><text fill="#000000" font-family="Verdana" font-size="12" lengthAdjust="spacing" textLength="117.9141" x="588.8452" y="857.3889">Return Error Status</text><polygon fill="#90EE90" points="387.2971,1085.3086,399.2971,1097.3086,387.2971,1109.3086,375.2971,1097.3086,387.2971,1085.3086" style="stroke:#000000;stroke-width:1;"/><polygon fill="#90EE90" points="1141.3579,368.5444,1236.9956,368.5444,1248.9956,380.5444,1236.9956,392.5444,1141.3579,392.5444,1129.3579,380.5444,1141.3579,368.5444" style="stroke:#000000;stroke-width:1;"/><text fill="#000000" font-family="Verdana" font-size="11" lengthAdjust="spacing" textLength="95.6377" x="1141.3579" y="384.9192">STOP_COMPLETE</text><text fill="#000000" font-family="Verdana" font-size="11" lengthAdjust="spacing" textLength="86.3027" x="1248.9956" y="378.2349">Unknown Event</text><rect fill="#FFFFFF" height="470.603" style="stroke:#000000;stroke-width:1;" width="504.0454" x="1070.3848" y="412.5444"/><path d="M1305.4512,412.5444 L1305.4512,422.5591 L1295.4512,432.5591 L1070.3848,432.5591" fill="none" style="stroke:#000000;stroke-width:1;"/><text fill="#000000" font-family="Verdana" font-size="14" font-weight="bold" lengthAdjust="spacing" textLength="225.0664" x="1073.3848" y="427.6196">STOP_COMPLETE Processing</text><path d="M1288.5781,449.5591 L1288.5781,482.1577 L1268.5781,486.1577 L1288.5781,490.1577 L1288.5781,522.7563 A0,0 0 0 0 1288.5781,522.7563 L1564.4302,522.7563 A0,0 0 0 0 1564.4302,522.7563 L1564.4302,459.5591 L1554.4302,449.5591 L1288.5781,449.5591 A0,0 0 0 0 1288.5781,449.5591" fill="#FFFFFF" style="stroke:#000000;stroke-width:1;"/><path d="M1554.4302,449.5591 L1554.4302,459.5591 L1564.4302,459.5591 L1554.4302,449.5591" fill="#FFFFFF" style="stroke:#000000;stroke-width:1;"/><text fill="#000000" font-family="Verdana" font-size="13" font-weight="bold" lengthAdjust="spacing" textLength="168.8857" x="1294.5781" y="467.6289">STOP_COMPLETE Data:</text><text fill="#000000" font-family="Verdana" font-size="13" lengthAdjust="spacing" textLength="169.1396" x="1294.5781" y="483.4282">- AppCloseInProgress flag</text><text fill="#000000" font-family="Verdana" font-size="13" lengthAdjust="spacing" textLength="254.8521" x="1294.5781" y="499.2275">- Indicates listener shutdown complete</text><text fill="#000000" font-family="Verdana" font-size="13" lengthAdjust="spacing" textLength="247.4888" x="1294.5781" y="515.0269">- No more NEW_CONNECTION events</text><rect fill="#90EE90" height="34.584" rx="12.5" ry="12.5" style="stroke:#000000;stroke-width:1;" width="158.8027" x="1109.7754" y="468.8657"/><text fill="#000000" font-family="Verdana" font-size="12" lengthAdjust="spacing" textLength="138.8027" x="1119.7754" y="490.9302">Process Stop Complete</text><path d="M1302.4209,557.7563 L1302.4209,598.2546 L1282.4209,602.2546 L1302.4209,606.2546 L1302.4209,646.7529 A0,0 0 0 0 1302.4209,646.7529 L1512.4604,646.7529 A0,0 0 0 0 1512.4604,646.7529 L1512.4604,567.7563 L1502.4604,557.7563 L1302.4209,557.7563 A0,0 0 0 0 1302.4209,557.7563" fill="#FFFFFF" style="stroke:#000000;stroke-width:1;"/><path d="M1502.4604,557.7563 L1502.4604,567.7563 L1512.4604,567.7563 L1502.4604,557.7563" fill="#FFFFFF" style="stroke:#000000;stroke-width:1;"/><text fill="#000000" font-family="Verdana" font-size="13" font-weight="bold" lengthAdjust="spacing" textLength="122.459" x="1308.4209" y="575.8262">Cleanup Actions:</text><text fill="#000000" font-family="Verdana" font-size="13" lengthAdjust="spacing" textLength="144.9868" x="1308.4209" y="591.6255">- Free listener context</text><text fill="#000000" font-family="Verdana" font-size="13" lengthAdjust="spacing" textLength="139.623" x="1308.4209" y="607.4248">- Update server state</text><text fill="#000000" font-family="Verdana" font-size="13" lengthAdjust="spacing" textLength="189.0396" x="1308.4209" y="623.2241">- Stop accepting connections</text><text fill="#000000" font-family="Verdana" font-size="13" lengthAdjust="spacing" textLength="151.4805" x="1308.4209" y="639.0234">- Clean up port binding</text><rect fill="#90EE90" height="34.584" rx="12.5" ry="12.5" style="stroke:#000000;stroke-width:1;" width="186.4883" x="1095.9326" y="584.9626"/><text fill="#000000" font-family="Verdana" font-size="12" lengthAdjust="spacing" textLength="166.4883" x="1105.9326" y="607.0271">Cleanup Listener Resources</text><path d="M1272.1367,681.7529 L1272.1367,714.3516 L1252.1367,718.3516 L1272.1367,722.3516 L1272.1367,754.9502 A0,0 0 0 0 1272.1367,754.9502 L1488.6255,754.9502 A0,0 0 0 0 1488.6255,754.9502 L1488.6255,691.7529 L1478.6255,681.7529 L1272.1367,681.7529 A0,0 0 0 0 1272.1367,681.7529" fill="#FFFFFF" style="stroke:#000000;stroke-width:1;"/><path d="M1478.6255,681.7529 L1478.6255,691.7529 L1488.6255,691.7529 L1478.6255,681.7529" fill="#FFFFFF" style="stroke:#000000;stroke-width:1;"/><text fill="#000000" font-family="Verdana" font-size="13" font-weight="bold" lengthAdjust="spacing" textLength="176.833" x="1278.1367" y="699.8228">Application Notification:</text><text fill="#000000" font-family="Verdana" font-size="13" lengthAdjust="spacing" textLength="185.5674" x="1278.1367" y="715.6221">- Server shutdown complete</text><text fill="#000000" font-family="Verdana" font-size="13" lengthAdjust="spacing" textLength="195.4888" x="1278.1367" y="731.4214">- Safe to close listener handle</text><text fill="#000000" font-family="Verdana" font-size="13" lengthAdjust="spacing" textLength="189.2808" x="1278.1367" y="747.2207">- Update connection tracking</text><rect fill="#90EE90" height="34.584" rx="12.5" ry="12.5" style="stroke:#000000;stroke-width:1;" width="125.9199" x="1126.2168" y="701.0596"/><text fill="#000000" font-family="Verdana" font-size="12" lengthAdjust="spacing" textLength="105.9199" x="1136.2168" y="723.124">Notify Application</text><path d="M1317.9688,789.9502 L1317.9688,822.5488 L1297.9688,826.5488 L1317.9688,830.5488 L1317.9688,863.1475 A0,0 0 0 0 1317.9688,863.1475 L1555.9253,863.1475 A0,0 0 0 0 1555.9253,863.1475 L1555.9253,799.9502 L1545.9253,789.9502 L1317.9688,789.9502 A0,0 0 0 0 1317.9688,789.9502" fill="#FFFFFF" style="stroke:#000000;stroke-width:1;"/><path d="M1545.9253,789.9502 L1545.9253,799.9502 L1555.9253,799.9502 L1545.9253,789.9502" fill="#FFFFFF" style="stroke:#000000;stroke-width:1;"/><text fill="#000000" font-family="Verdana" font-size="13" font-weight="bold" lengthAdjust="spacing" textLength="129.0098" x="1323.9688" y="808.02">Listener Stopped:</text><text fill="#000000" font-family="Verdana" font-size="13" lengthAdjust="spacing" textLength="216.1694" x="1323.9688" y="823.8193">- No more events on this listener</text><text fill="#000000" font-family="Verdana" font-size="13" lengthAdjust="spacing" textLength="186.7417" x="1323.9688" y="839.6187">- Safe to call ListenerClose()</text><text fill="#000000" font-family="Verdana" font-size="13" lengthAdjust="spacing" textLength="216.9565" x="1323.9688" y="855.418">- Server can shutdown gracefully</text><rect fill="#90EE90" height="34.584" rx="12.5" ry="12.5" style="stroke:#000000;stroke-width:1;" width="217.584" x="1080.3848" y="809.2568"/><text fill="#000000" font-family="Verdana" font-size="12" lengthAdjust="spacing" textLength="197.584" x="1090.3848" y="831.3213">Return QUIC_STATUS_SUCCESS</text><path d="M1783.1255,708.2292 L1783.1255,740.8279 L1763.1255,744.8279 L1783.1255,748.8279 L1783.1255,781.4265 A0,0 0 0 0 1783.1255,781.4265 L2016.6768,781.4265 A0,0 0 0 0 2016.6768,781.4265 L2016.6768,718.2292 L2006.6768,708.2292 L1783.1255,708.2292 A0,0 0 0 0 1783.1255,708.2292" fill="#FFFFFF" style="stroke:#000000;stroke-width:1;"/><path d="M2006.6768,708.2292 L2006.6768,718.2292 L2016.6768,718.2292 L2006.6768,708.2292" fill="#FFFFFF" style="stroke:#000000;stroke-width:1;"/><text fill="#000000" font-family="Verdana" font-size="13" font-weight="bold" lengthAdjust="spacing" textLength="112.0234" x="1789.1255" y="726.2991">Error Handling:</text><text fill="#000000" font-family="Verdana" font-size="13" lengthAdjust="spacing" textLength="188.0747" x="1789.1255" y="742.0984">- Log unexpected event type</text><text fill="#000000" font-family="Verdana" font-size="13" lengthAdjust="spacing" textLength="186.7163" x="1789.1255" y="757.8977">- Return success to continue</text><text fill="#000000" font-family="Verdana" font-size="13" lengthAdjust="spacing" textLength="212.5513" x="1789.1255" y="773.697">- May indicate version mismatch</text><rect fill="#90EE90" height="34.584" rx="12.5" ry="12.5" style="stroke:#000000;stroke-width:1;" width="139.8066" x="1623.3188" y="727.5359"/><text fill="#000000" font-family="Verdana" font-size="12" lengthAdjust="spacing" textLength="119.8066" x="1633.3188" y="749.6003">Log Unknown Event</text><path d="M1822.0142,816.4265 L1822.0142,841.1255 L1802.0142,845.1255 L1822.0142,849.1255 L1822.0142,873.8245 A0,0 0 0 0 1822.0142,873.8245 L2030.7207,873.8245 A0,0 0 0 0 2030.7207,873.8245 L2030.7207,826.4265 L2020.7207,816.4265 L1822.0142,816.4265 A0,0 0 0 0 1822.0142,816.4265" fill="#FFFFFF" style="stroke:#000000;stroke-width:1;"/><path d="M2020.7207,816.4265 L2020.7207,826.4265 L2030.7207,826.4265 L2020.7207,816.4265" fill="#FFFFFF" style="stroke:#000000;stroke-width:1;"/><text fill="#000000" font-family="Verdana" font-size="13" font-weight="bold" lengthAdjust="spacing" textLength="147.2593" x="1828.0142" y="834.4963">Continue Operation:</text><text fill="#000000" font-family="Verdana" font-size="13" lengthAdjust="spacing" textLength="187.7065" x="1828.0142" y="850.2957">Unknown events are ignored</text><text fill="#000000" font-family="Verdana" font-size="13" lengthAdjust="spacing" textLength="162.646" x="1828.0142" y="866.095">to maintain compatibility</text><rect fill="#90EE90" height="34.584" rx="12.5" ry="12.5" style="stroke:#000000;stroke-width:1;" width="217.584" x="1584.4302" y="827.8335"/><text fill="#000000" font-family="Verdana" font-size="12" lengthAdjust="spacing" textLength="197.584" x="1594.4302" y="849.8979">Return QUIC_STATUS_SUCCESS</text><rect fill="#FFFFFF" height="285.2085" style="stroke:#000000;stroke-width:1;" width="630.0957" x="704.4546" y="1151.3086"/><path d="M829.4624,1151.3086 L829.4624,1161.3232 L819.4624,1171.3232 L704.4546,1171.3232" fill="none" style="stroke:#000000;stroke-width:1;"/><text fill="#000000" font-family="Verdana" font-size="14" font-weight="bold" lengthAdjust="spacing" textLength="115.0078" x="707.4546" y="1166.3838">Error Handling</text><polygon fill="#90EE90" points="977.5571,1188.3232,1061.1636,1188.3232,1073.1636,1200.3232,1061.1636,1212.3232,977.5571,1212.3232,965.5571,1200.3232,977.5571,1188.3232" style="stroke:#000000;stroke-width:1;"/><text fill="#000000" font-family="Verdana" font-size="11" lengthAdjust="spacing" textLength="83.6064" x="977.5571" y="1204.698">Callback Error?</text><text fill="#000000" font-family="Verdana" font-size="11" lengthAdjust="spacing" textLength="18.7935" x="946.7637" y="1198.0137">yes</text><text fill="#000000" font-family="Verdana" font-size="11" lengthAdjust="spacing" textLength="13.6372" x="1073.1636" y="1198.0137">no</text><path d="M895.0718,1222.3232 L895.0718,1262.8215 L875.0718,1266.8215 L895.0718,1270.8215 L895.0718,1311.3198 A0,0 0 0 0 895.0718,1311.3198 L1124.8652,1311.3198 A0,0 0 0 0 1124.8652,1311.3198 L1124.8652,1232.3232 L1114.8652,1222.3232 L895.0718,1222.3232 A0,0 0 0 0 895.0718,1222.3232" fill="#FFFFFF" style="stroke:#000000;stroke-width:1;"/><path d="M1114.8652,1222.3232 L1114.8652,1232.3232 L1124.8652,1232.3232 L1114.8652,1222.3232" fill="#FFFFFF" style="stroke:#000000;stroke-width:1;"/><text fill="#000000" font-family="Verdana" font-size="13" font-weight="bold" lengthAdjust="spacing" textLength="114.2451" x="901.0718" y="1240.3931">Error Recovery:</text><text fill="#000000" font-family="Verdana" font-size="13" lengthAdjust="spacing" textLength="117.7998" x="901.0718" y="1256.1924">- Log error details</text><text fill="#000000" font-family="Verdana" font-size="13" lengthAdjust="spacing" textLength="151.0234" x="901.0718" y="1271.9917">- Clean up partial state</text><text fill="#000000" font-family="Verdana" font-size="13" lengthAdjust="spacing" textLength="208.7935" x="901.0718" y="1287.791">- Reject connection if applicable</text><text fill="#000000" font-family="Verdana" font-size="13" lengthAdjust="spacing" textLength="187.8843" x="901.0718" y="1303.5903">- Continue listener operation</text><rect fill="#90EE90" height="34.584" rx="12.5" ry="12.5" style="stroke:#000000;stroke-width:1;" width="150.6172" x="724.4546" y="1249.5295"/><text fill="#000000" font-family="Verdana" font-size="12" lengthAdjust="spacing" textLength="130.6172" x="734.4546" y="1271.594">Handle Callback Error</text><path d="M888.7202,1321.3198 L888.7202,1353.9185 L868.7202,1357.9185 L888.7202,1361.9185 L888.7202,1394.5171 A0,0 0 0 0 888.7202,1394.5171 L1143.3647,1394.5171 A0,0 0 0 0 1143.3647,1394.5171 L1143.3647,1331.3198 L1133.3647,1321.3198 L888.7202,1321.3198 A0,0 0 0 0 888.7202,1321.3198" fill="#FFFFFF" style="stroke:#000000;stroke-width:1;"/><path d="M1133.3647,1321.3198 L1133.3647,1331.3198 L1143.3647,1331.3198 L1133.3647,1321.3198" fill="#FFFFFF" style="stroke:#000000;stroke-width:1;"/><text fill="#000000" font-family="Verdana" font-size="13" font-weight="bold" lengthAdjust="spacing" textLength="90.6318" x="894.7202" y="1339.3896">Error Codes:</text><text fill="#000000" font-family="Verdana" font-size="13" lengthAdjust="spacing" textLength="233.6445" x="894.7202" y="1355.189">- QUIC_STATUS_INTERNAL_ERROR</text><text fill="#000000" font-family="Verdana" font-size="13" lengthAdjust="spacing" textLength="232.8892" x="894.7202" y="1370.9883">- QUIC_STATUS_OUT_OF_MEMORY</text><text fill="#000000" font-family="Verdana" font-size="13" lengthAdjust="spacing" textLength="179.4736" x="894.7202" y="1386.7876">- Application-specific errors</text><rect fill="#90EE90" height="34.584" rx="12.5" ry="12.5" style="stroke:#000000;stroke-width:1;" width="137.9141" x="730.8062" y="1340.6265"/><text fill="#000000" font-family="Verdana" font-size="12" lengthAdjust="spacing" textLength="117.9141" x="740.8062" y="1362.6909">Return Error Status</text><rect fill="#90EE90" height="34.584" rx="12.5" ry="12.5" style="stroke:#000000;stroke-width:1;" width="151.1855" x="1163.3647" y="1222.3232"/><text fill="#000000" font-family="Verdana" font-size="12" lengthAdjust="spacing" textLength="131.1855" x="1173.3647" y="1244.3877">Successful Processing</text><polygon fill="#90EE90" points="1019.3604,1400.5171,1031.3604,1412.5171,1019.3604,1424.5171,1007.3604,1412.5171,1019.3604,1400.5171" style="stroke:#000000;stroke-width:1;"/><path d="M1131.6377,1446.5171 L1131.6377,1471.2161 L1111.6377,1475.2161 L1131.6377,1479.2161 L1131.6377,1503.915 A0,0 0 0 0 1131.6377,1503.915 L1429.2368,1503.915 A0,0 0 0 0 1429.2368,1503.915 L1429.2368,1456.5171 L1419.2368,1446.5171 L1131.6377,1446.5171 A0,0 0 0 0 1131.6377,1446.5171" fill="#FFFFFF" style="stroke:#000000;stroke-width:1;"/><path d="M1419.2368,1446.5171 L1419.2368,1456.5171 L1429.2368,1456.5171 L1419.2368,1446.5171" fill="#FFFFFF" style="stroke:#000000;stroke-width:1;"/><text fill="#000000" font-family="Verdana" font-size="13" font-weight="bold" lengthAdjust="spacing" textLength="276.5991" x="1137.6377" y="1464.5869">Reference: Application Layer Diagram</text><text fill="#000000" font-family="Verdana" font-size="13" lengthAdjust="spacing" textLength="209.0029" x="1137.6377" y="1480.3862">Callback return value processed</text><text fill="#000000" font-family="Verdana" font-size="13" lengthAdjust="spacing" textLength="127.8228" x="1137.6377" y="1496.1855">by application layer</text><rect fill="#90EE90" height="34.584" rx="12.5" ry="12.5" style="stroke:#000000;stroke-width:1;" width="184.5547" x="927.083" y="1457.9241"/><text fill="#000000" font-family="Verdana" font-size="12" lengthAdjust="spacing" textLength="164.5547" x="937.083" y="1479.9885">Return to Application Layer</text><path d="M739.1836,1523.915 L739.1836,1628.7109 L998.3604,1628.7109 L998.3604,1533.915 L988.3604,1523.915 L739.1836,1523.915" fill="#FFFFFF" style="stroke:#000000;stroke-width:1;"/><path d="M988.3604,1523.915 L988.3604,1533.915 L998.3604,1533.915 L988.3604,1523.915" fill="#FFFFFF" style="stroke:#000000;stroke-width:1;"/><text fill="#000000" font-family="Verdana" font-size="13" font-weight="bold" lengthAdjust="spacing" textLength="198.3516" x="745.1836" y="1541.9849">Listener Callback Features:</text><text fill="#000000" font-family="Verdana" font-size="13" lengthAdjust="spacing" textLength="238.1768" x="745.1836" y="1557.7842">- Server-side connection acceptance</text><text fill="#000000" font-family="Verdana" font-size="13" lengthAdjust="spacing" textLength="234.4253" x="745.1836" y="1573.5835">- Connection filtering and validation</text><text fill="#000000" font-family="Verdana" font-size="13" lengthAdjust="spacing" textLength="160.8496" x="745.1836" y="1589.3828">- Resource management</text><text fill="#000000" font-family="Verdana" font-size="13" lengthAdjust="spacing" textLength="173.3926" x="745.1836" y="1605.1821">- Configuration application</text><text fill="#000000" font-family="Verdana" font-size="13" lengthAdjust="spacing" textLength="193.0005" x="745.1836" y="1620.9814">- Security policy enforcement</text><path d="M1040.3604,1523.915 L1040.3604,1628.7109 L1332.9702,1628.7109 L1332.9702,1533.915 L1322.9702,1523.915 L1040.3604,1523.915" fill="#FFFFFF" style="stroke:#000000;stroke-width:1;"/><path d="M1322.9702,1523.915 L1322.9702,1533.915 L1332.9702,1533.915 L1322.9702,1523.915" fill="#FFFFFF" style="stroke:#000000;stroke-width:1;"/><text fill="#000000" font-family="Verdana" font-size="13" font-weight="bold" lengthAdjust="spacing" textLength="145.355" x="1046.3604" y="1541.9849">Performance Notes:</text><text fill="#000000" font-family="Verdana" font-size="13" lengthAdjust="spacing" textLength="225.6465" x="1046.3604" y="1557.7842">- Called on MsQuic worker threads</text><text fill="#000000" font-family="Verdana" font-size="13" lengthAdjust="spacing" textLength="150.5474" x="1046.3604" y="1573.5835">- Should return quickly</text><text fill="#000000" font-family="Verdana" font-size="13" lengthAdjust="spacing" textLength="252.6812" x="1046.3604" y="1589.3828">- Heavy processing should be deferred</text><text fill="#000000" font-family="Verdana" font-size="13" lengthAdjust="spacing" textLength="256.6929" x="1046.3604" y="1605.1821">- Connection acceptance is critical path</text><text fill="#000000" font-family="Verdana" font-size="13" lengthAdjust="spacing" textLength="271.6099" x="1046.3604" y="1620.9814">- Error handling affects server availability</text><ellipse cx="1019.3604" cy="1576.313" fill="none" rx="11" ry="11" style="stroke:#000000;stroke-width:1;"/><ellipse cx="1019.3604" cy="1576.313" fill="#FFFFFF" rx="6" ry="6" style="stroke:#000000;stroke-width:1;"/><line style="stroke:#000000;stroke-width:1;" x1="1019.3604" x2="1019.3604" y1="158.7429" y2="207.3562"/><polygon fill="#000000" points="1015.3604,197.3562,1019.3604,207.3562,1023.3604,197.3562,1019.3604,201.3562" style="stroke:#000000;stroke-width:1;"/><line style="stroke:#000000;stroke-width:1;" x1="1019.3604" x2="1019.3604" y1="241.9402" y2="290.5535"/><polygon fill="#000000" points="1015.3604,280.5535,1019.3604,290.5535,1023.3604,280.5535,1019.3604,284.5535" style="stroke:#000000;stroke-width:1;"/><line style="stroke:#000000;stroke-width:1;" x1="1019.3604" x2="1019.3604" y1="72.7373" y2="124.1589"/><polygon fill="#000000" points="1015.3604,114.1589,1019.3604,124.1589,1023.3604,114.1589,1019.3604,118.1589" style="stroke:#000000;stroke-width:1;"/><line style="stroke:#000000;stroke-width:1;" x1="387.2971" x2="387.2971" y1="548.417" y2="669.4282"/><polygon fill="#000000" points="383.2971,659.4282,387.2971,669.4282,391.2971,659.4282,387.2971,663.4282" style="stroke:#000000;stroke-width:1;"/><line style="stroke:#000000;stroke-width:1;" x1="126.792" x2="126.792" y1="862.0088" y2="934.321"/><polygon fill="#000000" points="122.792,924.321,126.792,934.321,130.792,924.321,126.792,928.321" style="stroke:#000000;stroke-width:1;"/><line style="stroke:#000000;stroke-width:1;" x1="126.792" x2="126.792" y1="968.905" y2="1025.418"/><polygon fill="#000000" points="122.792,1015.418,126.792,1025.418,130.792,1015.418,126.792,1019.418" style="stroke:#000000;stroke-width:1;"/><line style="stroke:#000000;stroke-width:1;" x1="321.2263" x2="126.792" y1="786.1182" y2="786.1182"/><line style="stroke:#000000;stroke-width:1;" x1="126.792" x2="126.792" y1="786.1182" y2="827.4248"/><polygon fill="#000000" points="122.792,817.4248,126.792,827.4248,130.792,817.4248,126.792,821.4248" style="stroke:#000000;stroke-width:1;"/><line style="stroke:#000000;stroke-width:1;" x1="453.3679" x2="647.8022" y1="786.1182" y2="786.1182"/><line style="stroke:#000000;stroke-width:1;" x1="647.8022" x2="647.8022" y1="786.1182" y2="835.3245"/><polygon fill="#000000" points="643.8022,825.3245,647.8022,835.3245,651.8022,825.3245,647.8022,829.3245" style="stroke:#000000;stroke-width:1;"/><line style="stroke:#000000;stroke-width:1;" x1="126.792" x2="126.792" y1="1060.002" y2="1097.3086"/><line style="stroke:#000000;stroke-width:1;" x1="126.792" x2="375.2971" y1="1097.3086" y2="1097.3086"/><polygon fill="#000000" points="365.2971,1093.3086,375.2971,1097.3086,365.2971,1101.3086,369.2971,1097.3086" style="stroke:#000000;stroke-width:1;"/><line style="stroke:#000000;stroke-width:1;" x1="647.8022" x2="647.8022" y1="869.9084" y2="1097.3086"/><line style="stroke:#000000;stroke-width:1;" x1="647.8022" x2="399.2971" y1="1097.3086" y2="1097.3086"/><polygon fill="#000000" points="409.2971,1093.3086,399.2971,1097.3086,409.2971,1101.3086,405.2971,1097.3086" style="stroke:#000000;stroke-width:1;"/><line style="stroke:#000000;stroke-width:1;" x1="387.2971" x2="387.2971" y1="704.0122" y2="774.1182"/><polygon fill="#000000" points="383.2971,764.1182,387.2971,774.1182,391.2971,764.1182,387.2971,768.1182" style="stroke:#000000;stroke-width:1;"/><line style="stroke:#000000;stroke-width:1;" x1="1189.1768" x2="1189.1768" y1="503.4497" y2="584.9626"/><polygon fill="#000000" points="1185.1768,574.9626,1189.1768,584.9626,1193.1768,574.9626,1189.1768,578.9626" style="stroke:#000000;stroke-width:1;"/><line style="stroke:#000000;stroke-width:1;" x1="1189.1768" x2="1189.1768" y1="619.5466" y2="701.0596"/><polygon fill="#000000" points="1185.1768,691.0596,1189.1768,701.0596,1193.1768,691.0596,1189.1768,695.0596" style="stroke:#000000;stroke-width:1;"/><line style="stroke:#000000;stroke-width:1;" x1="1189.1768" x2="1189.1768" y1="735.6436" y2="809.2568"/><polygon fill="#000000" points="1185.1768,799.2568,1189.1768,809.2568,1193.1768,799.2568,1189.1768,803.2568" style="stroke:#000000;stroke-width:1;"/><line style="stroke:#000000;stroke-width:1;" x1="1693.2222" x2="1693.2222" y1="762.1199" y2="827.8335"/><polygon fill="#000000" points="1689.2222,817.8335,1693.2222,827.8335,1697.2222,817.8335,1693.2222,821.8335" style="stroke:#000000;stroke-width:1;"/><line style="stroke:#000000;stroke-width:1;" x1="387.2971" x2="387.2971" y1="392.5444" y2="513.833"/><polygon fill="#000000" points="383.2971,503.833,387.2971,513.833,391.2971,503.833,387.2971,507.833" style="stroke:#000000;stroke-width:1;"/><line style="stroke:#000000;stroke-width:1;" x1="387.2971" x2="387.2971" y1="1109.3086" y2="1141.3086"/><polygon fill="#000000" points="383.2971,1131.3086,387.2971,1141.3086,391.2971,1131.3086,387.2971,1135.3086" style="stroke:#000000;stroke-width:1;"/><line style="stroke:#000000;stroke-width:1;" x1="1189.1768" x2="1189.1768" y1="392.5444" y2="468.8657"/><polygon fill="#000000" points="1185.1768,458.8657,1189.1768,468.8657,1193.1768,458.8657,1189.1768,462.8657" style="stroke:#000000;stroke-width:1;"/><line style="stroke:#000000;stroke-width:1;" x1="1189.1768" x2="1189.1768" y1="843.8408" y2="1141.3086"/><polygon fill="#000000" points="1185.1768,1131.3086,1189.1768,1141.3086,1193.1768,1131.3086,1189.1768,1135.3086" style="stroke:#000000;stroke-width:1;"/><line style="stroke:#000000;stroke-width:1;" x1="433.2344" x2="1129.3579" y1="380.5444" y2="380.5444"/><polygon fill="#000000" points="1119.3579,376.5444,1129.3579,380.5444,1119.3579,384.5444,1123.3579,380.5444" style="stroke:#000000;stroke-width:1;"/><line style="stroke:#000000;stroke-width:1;" x1="1019.3604" x2="1019.3604" y1="325.1375" y2="353.5444"/><line style="stroke:#000000;stroke-width:1;" x1="1019.3604" x2="387.2971" y1="353.5444" y2="353.5444"/><line style="stroke:#000000;stroke-width:1;" x1="387.2971" x2="387.2971" y1="353.5444" y2="368.5444"/><polygon fill="#000000" points="383.2971,358.5444,387.2971,368.5444,391.2971,358.5444,387.2971,362.5444" style="stroke:#000000;stroke-width:1;"/><line style="stroke:#000000;stroke-width:1;" x1="1248.9956" x2="1693.2222" y1="380.5444" y2="380.5444"/><line style="stroke:#000000;stroke-width:1;" x1="1693.2222" x2="1693.2222" y1="380.5444" y2="727.5359"/><polygon fill="#000000" points="1689.2222,717.5359,1693.2222,727.5359,1697.2222,717.5359,1693.2222,721.5359" style="stroke:#000000;stroke-width:1;"/><line style="stroke:#000000;stroke-width:1;" x1="1693.2222" x2="1693.2222" y1="862.4175" y2="1141.3086"/><polygon fill="#000000" points="1689.2222,1131.3086,1693.2222,1141.3086,1697.2222,1131.3086,1693.2222,1135.3086" style="stroke:#000000;stroke-width:1;"/><line style="stroke:#000000;stroke-width:1;" x1="387.2971" x2="1693.2222" y1="1141.3086" y2="1141.3086"/><line style="stroke:#000000;stroke-width:1;" x1="799.7632" x2="799.7632" y1="1284.1135" y2="1340.6265"/><polygon fill="#000000" points="795.7632,1330.6265,799.7632,1340.6265,803.7632,1330.6265,799.7632,1334.6265" style="stroke:#000000;stroke-width:1;"/><line style="stroke:#000000;stroke-width:1;" x1="965.5571" x2="799.7632" y1="1200.3232" y2="1200.3232"/><line style="stroke:#000000;stroke-width:1;" x1="799.7632" x2="799.7632" y1="1200.3232" y2="1249.5295"/><polygon fill="#000000" points="795.7632,1239.5295,799.7632,1249.5295,803.7632,1239.5295,799.7632,1243.5295" style="stroke:#000000;stroke-width:1;"/><line style="stroke:#000000;stroke-width:1;" x1="1073.1636" x2="1238.9575" y1="1200.3232" y2="1200.3232"/><line style="stroke:#000000;stroke-width:1;" x1="1238.9575" x2="1238.9575" y1="1200.3232" y2="1222.3232"/><polygon fill="#000000" points="1234.9575,1212.3232,1238.9575,1222.3232,1242.9575,1212.3232,1238.9575,1216.3232" style="stroke:#000000;stroke-width:1;"/><line style="stroke:#000000;stroke-width:1;" x1="799.7632" x2="799.7632" y1="1375.2104" y2="1412.5171"/><line style="stroke:#000000;stroke-width:1;" x1="799.7632" x2="1007.3604" y1="1412.5171" y2="1412.5171"/><polygon fill="#000000" points="997.3604,1408.5171,1007.3604,1412.5171,997.3604,1416.5171,1001.3604,1412.5171" style="stroke:#000000;stroke-width:1;"/><line style="stroke:#000000;stroke-width:1;" x1="1238.9575" x2="1238.9575" y1="1256.9072" y2="1412.5171"/><line style="stroke:#000000;stroke-width:1;" x1="1238.9575" x2="1031.3604" y1="1412.5171" y2="1412.5171"/><polygon fill="#000000" points="1041.3604,1408.5171,1031.3604,1412.5171,1041.3604,1416.5171,1037.3604,1412.5171" style="stroke:#000000;stroke-width:1;"/><line style="stroke:#000000;stroke-width:1;" x1="1019.3604" x2="1019.3604" y1="1141.3086" y2="1188.3232"/><polygon fill="#000000" points="1015.3604,1178.3232,1019.3604,1188.3232,1023.3604,1178.3232,1019.3604,1182.3232" style="stroke:#000000;stroke-width:1;"/><line style="stroke:#000000;stroke-width:1;" x1="1019.3604" x2="1019.3604" y1="1424.5171" y2="1457.9241"/><polygon fill="#000000" points="1015.3604,1447.9241,1019.3604,1457.9241,1023.3604,1447.9241,1019.3604,1451.9241" style="stroke:#000000;stroke-width:1;"/><line style="stroke:#000000;stroke-width:1;" x1="1019.3604" x2="1019.3604" y1="1492.5081" y2="1565.313"/><polygon fill="#000000" points="1015.3604,1555.313,1019.3604,1565.313,1023.3604,1555.313,1019.3604,1559.313" style="stroke:#000000;stroke-width:1;"/><!--SRC=[ZLZRRkCs47tNLx3xv1YRVa3oK3YAWXXrvAnbRz6dW9P6DckQL4dAMQFOV- -Gr8s-90li0XOv9ESSpfmPvZUpXJsGYbCc8hrZegAAxWdD3JimSoJ_HOGyq7otKR8MHIovL8IppTPi582mar8LeFp4cgCbZasKak_3ePzHP9ZXG6PC6n2WI4mvN-CKULKo1wsPs4IHDbIPA48Nq9f9GRwCnvtXL1naJktmUFp5-NMtW1pO0GWSG1XIAhadB_fRpN8IImNtQ2Aa0QAil_Wn7Y-W10KYXxkX8NbaT8EensCqwZnqcshoRmqr56HznBbcJMxNLBtVX80et56HzSewkaEeqsoPfCdYBPxCPW-J-CyB_dJWChOHrDGAxfmJtrRJ-2rRJfQhpF-Ul4xFDnoX9I7Frg1p-wiREqXMZ16RCF33-26tJRT5yZr9bsEIM8mtfm0UmO3QCm5-dYoFrIKoEwPwA-tTloLfyjTRF4_J95vEvwaRofRpLnnxUPqbosHu90O7Aycet-MF6u9HASWetCNwYV-2w0Wj1i7KnWZ2INuOXV5iwH2GkvLJKSfxDnjWigWSJ-6sRzFqQUwHMI0s1hw3qhXHCpB3mEIJeb1uTZEqW3tk78x5wbWP-L2N68Haj9nbP4j5eRTq1pUj2MV8meHNmhBR3AQmaOPH0uMTQ0OpK0TGASNa7MNfr6_GSMe_FFhlbBC2rmxXBm2ZMfih33Ghh66yXNodU-YJsMkAuR-lS7hDE0f4wusiLGva-afAnZ5wV5eu8kpPdEtnolenqDwU7YZZDDXfKjkxDyodEb7eAbCeKPYBLo3Qu9daELJ3A-vYw0ZQSuDSP114GPjzzyty2HEM2rpHMZtZNN5GevkM3kSj1jj682NTfdcRqcKjt4XdQq-dLSLRQBbFpsu-4NID4ZdOo-jQe3Hd53GaN40dHSasjNA7VG2nNsB13XUTG4NNZqIxi2CsU3KOUwSw0AYD0gmVxiBxcNPR82MNxmwvalmKUGbE0ZKPOVWvHTPV2PZyzvkFWIy0bucXQBvbgpXEikoNO1CVF50CqGwctndd_XAm3hmpi-tJDY2dlLTdhvhIT7gRFITj4cY24MCh6-vUOiNiLto06hZ6l1VoveI312kl8fb18lMlWL_0F_Wh13zaSfKkaadyF7cO9HVd1pAvI9vMMV9ubSCr45zOBDREAfMOAWgJjIkvbWMpPVeJAl23bVZhfwqBbX0h146LkLGn0eFB1QCPH1fbXI3s5SU2U4Kim-qUCMu7QbbLCPSQfW9ttDX2WE5FMn6SellsrZKcIrD8zROsXNmNJcBjeL57qTxs72VLRX1G5uG_va15NVKDJHTmLw2q2oQEyO7gFs6hrpivbArRigfSSMba0Hkupcd77dMfXVGExh8hX_OyWWTMKXcoPiX78t4NqAHO0SlZCC-ke1XceblKVFHmiiRNAsHdjCGubIItLzV3tZhv3r4Fajks6BiF_FzCeyvmTDTcUQpw_EoZeSaMUxXDbjRJKnYeBbqCk70StOH4v7WB7HcekZcKDUV7KoHTcf7HIko4DUxQnxkPt91Wz4A_wBN9bL4agkqKxSfQm8_AgL1JyWnsWP4NIKURhdENaHOFXXyJjPz-eKV2cZmY1z-JaJtJUshoRHIu7trw2QUzUNCGcLUW1Y7KmcpeftWJs0BWXLX9GmVt-98o-F-iJ-gSyS8LFdD2SbeniehMlH6SoNbVS-SR4nBQNOagVmo-coIoTUnZoju2kBa2q7b-dgFMMSg33FUbOvW5w6_JuQoxNEbux599jeH-aYpdnUmAdbWMCD2huVrEqsMoI2UpjsInc2yk6CnNoxVvqzjByZ9V_1sTLVDRZO5fHSJJSwQsOI6-otoWOW8DIijzr1OhVEgqu31IXb8reqV0Ini035whPwQ3DsjtyShlVA2yxjwd69NhOz1sShiywXzy6lKbyWTpAEsvvu_qfwOpinotkd6hMH58eDTwYlv6GUtlNWG40zLwrxmkei53O4y5tRWkFxeDEzUXx-xil5Rs3nELnD4ZyehTGkvNzfW26bz1eStUEcOhGel2WaF1mHEQP_sxL3kmdGTsi8MsPsrbpOkMLdo7v3kKnLlo3FHm7BJbg9xE4FkRmbwPbOA0WPuPOhiQz1y1OKz9pHODVGnlczGd59-7EGfBKrA39rABy7y0]--></g></svg>