<svg xmlns="http://www.w3.org/2000/svg" xmlns:xlink="http://www.w3.org/1999/xlink" contentStyleType="text/css" data-diagram-type="STATE" height="1477px" preserveAspectRatio="none" style="width:2420px;height:1477px;background:#FFFFFF;" version="1.1" viewBox="0 0 2420 1477" width="2420px" zoomAndPan="magnify"><title>QUIC/HTTP3/WebTransport State Transitions Overview</title><defs/><g><g class="title" data-source-line="8"><text fill="#000000" font-family="Verdana" font-size="22" font-weight="bold" lengthAdjust="spacing" textLength="692.9248" x="859.3572" y="37.1182">QUIC/HTTP3/WebTransport State Transitions Overview</text></g><!--cluster ConnLayer--><g class="cluster" data-entity="ConnLayer" data-source-line="10" data-uid="ent0002" id="cluster_ConnLayer"><path d="M1000,428.7373 L1634,428.7373 A12.5,12.5 0 0 1 1646.5,441.2373 L1646.5,450.752 L987.5,450.752 L987.5,441.2373 A12.5,12.5 0 0 1 1000,428.7373" fill="#ADD8E6"/><path d="M987.5,450.752 L1646.5,450.752 L1646.5,534.2373 A12.5,12.5 0 0 1 1634,546.7373 L1000,546.7373 A12.5,12.5 0 0 1 987.5,534.2373 L987.5,450.752" fill="#FFFFFF"/><rect fill="none" height="118" rx="12.5" ry="12.5" style="stroke:#000000;stroke-width:1;" width="659" x="987.5" y="428.7373"/><line style="stroke:#000000;stroke-width:1;" x1="987.5" x2="1646.5" y1="450.752" y2="450.752"/><text fill="#000000" font-family="Verdana" font-size="14" lengthAdjust="spacing" textLength="163.9189" x="1235.0405" y="446.8125">QUIC Connection Layer</text></g><!--cluster StreamLayer--><g class="cluster" data-entity="StreamLayer" data-source-line="18" data-uid="ent0008" id="cluster_StreamLayer"><path d="M143,1332.7373 L1085,1332.7373 A12.5,12.5 0 0 1 1097.5,1345.2373 L1097.5,1354.752 L130.5,1354.752 L130.5,1345.2373 A12.5,12.5 0 0 1 143,1332.7373" fill="#90EE90"/><path d="M130.5,1354.752 L1097.5,1354.752 L1097.5,1438.2373 A12.5,12.5 0 0 1 1085,1450.7373 L143,1450.7373 A12.5,12.5 0 0 1 130.5,1438.2373 L130.5,1354.752" fill="#FFFFFF"/><rect fill="none" height="118" rx="12.5" ry="12.5" style="stroke:#000000;stroke-width:1;" width="967" x="130.5" y="1332.7373"/><line style="stroke:#000000;stroke-width:1;" x1="130.5" x2="1097.5" y1="1354.752" y2="1354.752"/><text fill="#000000" font-family="Verdana" font-size="14" lengthAdjust="spacing" textLength="137.0059" x="545.4971" y="1350.8125">QUIC Stream Layer</text></g><!--cluster H3Layer--><g class="cluster" data-entity="H3Layer" data-source-line="26" data-uid="ent0014" id="cluster_H3Layer"><path d="M998,724.7373 L1614,724.7373 A12.5,12.5 0 0 1 1626.5,737.2373 L1626.5,746.752 L985.5,746.752 L985.5,737.2373 A12.5,12.5 0 0 1 998,724.7373" fill="#E0FFFF"/><path d="M985.5,746.752 L1626.5,746.752 L1626.5,830.2373 A12.5,12.5 0 0 1 1614,842.7373 L998,842.7373 A12.5,12.5 0 0 1 985.5,830.2373 L985.5,746.752" fill="#FFFFFF"/><rect fill="none" height="118" rx="12.5" ry="12.5" style="stroke:#000000;stroke-width:1;" width="641" x="985.5" y="724.7373"/><line style="stroke:#000000;stroke-width:1;" x1="985.5" x2="1626.5" y1="746.752" y2="746.752"/><text fill="#000000" font-family="Verdana" font-size="14" lengthAdjust="spacing" textLength="156.6797" x="1227.6602" y="742.8125">HTTP/3 Protocol Layer</text></g><!--cluster WTLayer--><g class="cluster" data-entity="WTLayer" data-source-line="33" data-uid="ent0019" id="cluster_WTLayer"><path d="M1173,1020.7373 L2019,1020.7373 A12.5,12.5 0 0 1 2031.5,1033.2373 L2031.5,1042.752 L1160.5,1042.752 L1160.5,1033.2373 A12.5,12.5 0 0 1 1173,1020.7373" fill="#FFFFE0"/><path d="M1160.5,1042.752 L2031.5,1042.752 L2031.5,1126.2373 A12.5,12.5 0 0 1 2019,1138.7373 L1173,1138.7373 A12.5,12.5 0 0 1 1160.5,1126.2373 L1160.5,1042.752" fill="#FFFFFF"/><rect fill="none" height="118" rx="12.5" ry="12.5" style="stroke:#000000;stroke-width:1;" width="871" x="1160.5" y="1020.7373"/><line style="stroke:#000000;stroke-width:1;" x1="1160.5" x2="2031.5" y1="1042.752" y2="1042.752"/><text fill="#000000" font-family="Verdana" font-size="14" lengthAdjust="spacing" textLength="201.1201" x="1495.4399" y="1038.8125">WebTransport Session Layer</text></g><g id="ConnLayer.IDLE"><rect fill="#FFFFFF" height="50" rx="12.5" ry="12.5" style="stroke:#000000;stroke-width:1;" width="53.3252" x="1569" y="472.7373"/><line style="stroke:#000000;stroke-width:1;" x1="1569" x2="1622.3252" y1="499.752" y2="499.752"/><text fill="#000000" font-family="Verdana" font-size="14" lengthAdjust="spacing" textLength="33.3252" x="1579" y="491.8125">IDLE</text></g><g id="ConnLayer.CONNECTING"><rect fill="#FFFFFF" height="50" rx="12.5" ry="12.5" style="stroke:#000000;stroke-width:1;" width="116.2158" x="1417.5" y="472.7373"/><line style="stroke:#000000;stroke-width:1;" x1="1417.5" x2="1533.7158" y1="499.752" y2="499.752"/><text fill="#000000" font-family="Verdana" font-size="14" lengthAdjust="spacing" textLength="96.2158" x="1427.5" y="491.8125">CONNECTING</text></g><g id="ConnLayer.CONNECTED"><rect fill="#FFFFFF" height="50" rx="12.5" ry="12.5" style="stroke:#000000;stroke-width:1;" width="108.6348" x="1144" y="472.7373"/><line style="stroke:#000000;stroke-width:1;" x1="1144" x2="1252.6348" y1="499.752" y2="499.752"/><text fill="#000000" font-family="Verdana" font-size="14" lengthAdjust="spacing" textLength="88.6348" x="1154" y="491.8125">CONNECTED</text></g><g id="ConnLayer.DRAINING"><rect fill="#FFFFFF" height="50" rx="12.5" ry="12.5" style="stroke:#000000;stroke-width:1;" width="93.6777" x="1288.5" y="472.7373"/><line style="stroke:#000000;stroke-width:1;" x1="1288.5" x2="1382.1777" y1="499.752" y2="499.752"/><text fill="#000000" font-family="Verdana" font-size="14" lengthAdjust="spacing" textLength="73.6777" x="1298.5" y="491.8125">DRAINING</text></g><g id="ConnLayer.CLOSED"><rect fill="#FFFFFF" height="50" rx="12.5" ry="12.5" style="stroke:#000000;stroke-width:1;" width="77.7979" x="1030.5" y="472.7373"/><line style="stroke:#000000;stroke-width:1;" x1="1030.5" x2="1108.2979" y1="499.752" y2="499.752"/><text fill="#000000" font-family="Verdana" font-size="14" lengthAdjust="spacing" textLength="57.7979" x="1040.5" y="491.8125">CLOSED</text></g><g id="StreamLayer.STREAM_IDLE"><rect fill="#FFFFFF" height="50" rx="12.5" ry="12.5" style="stroke:#000000;stroke-width:1;" width="120.3789" x="953.5" y="1376.7373"/><line style="stroke:#000000;stroke-width:1;" x1="953.5" x2="1073.8789" y1="1403.752" y2="1403.752"/><text fill="#000000" font-family="Verdana" font-size="14" lengthAdjust="spacing" textLength="100.3789" x="963.5" y="1395.8125">STREAM_IDLE</text></g><g id="StreamLayer.STREAM_OPEN"><rect fill="#FFFFFF" height="50" rx="12.5" ry="12.5" style="stroke:#000000;stroke-width:1;" width="125.8408" x="792.5" y="1376.7373"/><line style="stroke:#000000;stroke-width:1;" x1="792.5" x2="918.3408" y1="1403.752" y2="1403.752"/><text fill="#000000" font-family="Verdana" font-size="14" lengthAdjust="spacing" textLength="105.8408" x="802.5" y="1395.8125">STREAM_OPEN</text></g><g id="StreamLayer.HALF_CLOSED_LOCAL"><rect fill="#FFFFFF" height="50" rx="12.5" ry="12.5" style="stroke:#000000;stroke-width:1;" width="177.4795" x="580" y="1376.7373"/><line style="stroke:#000000;stroke-width:1;" x1="580" x2="757.4795" y1="1403.752" y2="1403.752"/><text fill="#000000" font-family="Verdana" font-size="14" lengthAdjust="spacing" textLength="157.4795" x="590" y="1395.8125">HALF_CLOSED_LOCAL</text></g><g id="StreamLayer.HALF_CLOSED_REMOTE"><rect fill="#FFFFFF" height="50" rx="12.5" ry="12.5" style="stroke:#000000;stroke-width:1;" width="190.4131" x="354.5" y="1376.7373"/><line style="stroke:#000000;stroke-width:1;" x1="354.5" x2="544.9131" y1="1403.752" y2="1403.752"/><text fill="#000000" font-family="Verdana" font-size="14" lengthAdjust="spacing" textLength="170.4131" x="364.5" y="1395.8125">HALF_CLOSED_REMOTE</text></g><g id="StreamLayer.STREAM_CLOSED"><rect fill="#FFFFFF" height="50" rx="12.5" ry="12.5" style="stroke:#000000;stroke-width:1;" width="144.8516" x="174" y="1376.7373"/><line style="stroke:#000000;stroke-width:1;" x1="174" x2="318.8516" y1="1403.752" y2="1403.752"/><text fill="#000000" font-family="Verdana" font-size="14" lengthAdjust="spacing" textLength="124.8516" x="184" y="1395.8125">STREAM_CLOSED</text></g><g id="H3Layer.H3_INIT"><rect fill="#FFFFFF" height="50" rx="12.5" ry="12.5" style="stroke:#000000;stroke-width:1;" width="79.2061" x="1029" y="768.7373"/><line style="stroke:#000000;stroke-width:1;" x1="1029" x2="1108.2061" y1="795.752" y2="795.752"/><text fill="#000000" font-family="Verdana" font-size="14" lengthAdjust="spacing" textLength="59.2061" x="1039" y="787.8125">H3_INIT</text></g><g id="H3Layer.H3_SETTINGS_PENDING"><rect fill="#FFFFFF" height="50" rx="12.5" ry="12.5" style="stroke:#000000;stroke-width:1;" width="195.4648" x="1275" y="768.7373"/><line style="stroke:#000000;stroke-width:1;" x1="1275" x2="1470.4648" y1="795.752" y2="795.752"/><text fill="#000000" font-family="Verdana" font-size="14" lengthAdjust="spacing" textLength="175.4648" x="1285" y="787.8125">H3_SETTINGS_PENDING</text></g><g id="H3Layer.H3_READY"><rect fill="#FFFFFF" height="50" rx="12.5" ry="12.5" style="stroke:#000000;stroke-width:1;" width="95.8789" x="1143.5" y="768.7373"/><line style="stroke:#000000;stroke-width:1;" x1="1143.5" x2="1239.3789" y1="795.752" y2="795.752"/><text fill="#000000" font-family="Verdana" font-size="14" lengthAdjust="spacing" textLength="75.8789" x="1153.5" y="787.8125">H3_READY</text></g><g id="H3Layer.H3_ERROR"><rect fill="#FFFFFF" height="50" rx="12.5" ry="12.5" style="stroke:#000000;stroke-width:1;" width="97.3965" x="1505" y="768.7373"/><line style="stroke:#000000;stroke-width:1;" x1="1505" x2="1602.3965" y1="795.752" y2="795.752"/><text fill="#000000" font-family="Verdana" font-size="14" lengthAdjust="spacing" textLength="77.3965" x="1515" y="787.8125">H3_ERROR</text></g><g id="WTLayer.WT_INITIALIZING"><rect fill="#FFFFFF" height="50" rx="12.5" ry="12.5" style="stroke:#000000;stroke-width:1;" width="148.2148" x="1329.5" y="1064.7373"/><line style="stroke:#000000;stroke-width:1;" x1="1329.5" x2="1477.7148" y1="1091.752" y2="1091.752"/><text fill="#000000" font-family="Verdana" font-size="14" lengthAdjust="spacing" textLength="128.2148" x="1339.5" y="1083.8125">WT_INITIALIZING</text></g><g id="WTLayer.WT_CONNECTING"><rect fill="#FFFFFF" height="50" rx="12.5" ry="12.5" style="stroke:#000000;stroke-width:1;" width="147.5859" x="1687.5" y="1064.7373"/><line style="stroke:#000000;stroke-width:1;" x1="1687.5" x2="1835.0859" y1="1091.752" y2="1091.752"/><text fill="#000000" font-family="Verdana" font-size="14" lengthAdjust="spacing" textLength="127.5859" x="1697.5" y="1083.8125">WT_CONNECTING</text></g><g id="WTLayer.WT_CONNECTED"><rect fill="#FFFFFF" height="50" rx="12.5" ry="12.5" style="stroke:#000000;stroke-width:1;" width="140.0049" x="1512.5" y="1064.7373"/><line style="stroke:#000000;stroke-width:1;" x1="1512.5" x2="1652.5049" y1="1091.752" y2="1091.752"/><text fill="#000000" font-family="Verdana" font-size="14" lengthAdjust="spacing" textLength="120.0049" x="1522.5" y="1083.8125">WT_CONNECTED</text></g><g id="WTLayer.WT_CLOSING"><rect fill="#FFFFFF" height="50" rx="12.5" ry="12.5" style="stroke:#000000;stroke-width:1;" width="116.749" x="1871" y="1064.7373"/><line style="stroke:#000000;stroke-width:1;" x1="1871" x2="1987.749" y1="1091.752" y2="1091.752"/><text fill="#000000" font-family="Verdana" font-size="14" lengthAdjust="spacing" textLength="96.749" x="1881" y="1083.8125">WT_CLOSING</text></g><g id="WTLayer.WT_CLOSED"><rect fill="#FFFFFF" height="50" rx="12.5" ry="12.5" style="stroke:#000000;stroke-width:1;" width="109.168" x="1185" y="1064.7373"/><line style="stroke:#000000;stroke-width:1;" x1="1185" x2="1294.168" y1="1091.752" y2="1091.752"/><text fill="#000000" font-family="Verdana" font-size="14" lengthAdjust="spacing" textLength="89.168" x="1195" y="1083.8125">WT_CLOSED</text></g><g class="entity" data-entity="RelationshipNote" data-source-line="82" data-uid="ent0025" id="entity_RelationshipNote"><path d="M1129,58.7373 L1129,368.9243 L1464.4375,368.9243 L1464.4375,68.7373 L1454.4375,58.7373 L1129,58.7373" fill="#FFFFFF" style="stroke:#000000;stroke-width:1;"/><path d="M1454.4375,58.7373 L1454.4375,68.7373 L1464.4375,68.7373 L1454.4375,58.7373" fill="#FFFFFF" style="stroke:#000000;stroke-width:1;"/><text fill="#000000" font-family="Verdana" font-size="13" font-weight="bold" lengthAdjust="spacing" textLength="206.2354" x="1135" y="76.8071">State Machine Relationships</text><text fill="#000000" font-family="Verdana" font-size="13" lengthAdjust="spacing" textLength="4.5703" x="1135" y="92.6064">&#160;</text><text fill="#000000" font-family="Verdana" font-size="13" font-weight="bold" lengthAdjust="spacing" textLength="199.2021" x="1135" y="108.4058">Hierarchical Dependencies:</text><text fill="#000000" font-family="Verdana" font-size="13" lengthAdjust="spacing" textLength="215.1792" x="1135" y="124.2051">1. QUIC Connection (foundation)</text><text fill="#000000" font-family="Verdana" font-size="13" lengthAdjust="spacing" textLength="187.4717" x="1135" y="140.0044">2. QUIC Streams (transport)</text><text fill="#000000" font-family="Verdana" font-size="13" lengthAdjust="spacing" textLength="175.1191" x="1135" y="155.8037">3. HTTP/3 Layer (protocol)</text><text fill="#000000" font-family="Verdana" font-size="13" lengthAdjust="spacing" textLength="257.3975" x="1135" y="171.603">4. WebTransport Sessions (application)</text><text fill="#000000" font-family="Verdana" font-size="13" lengthAdjust="spacing" textLength="4.5703" x="1135" y="187.4023">&#160;</text><text fill="#000000" font-family="Verdana" font-size="13" font-weight="bold" lengthAdjust="spacing" textLength="186.6274" x="1135" y="203.2017">Cross-Layer Interactions:</text><text fill="#000000" font-family="Verdana" font-size="13" lengthAdjust="spacing" textLength="282.3501" x="1135" y="219.001">- Connection state enables stream creation</text><text fill="#000000" font-family="Verdana" font-size="13" lengthAdjust="spacing" textLength="250.561" x="1135" y="234.8003">- HTTP/3 ready enables WebTransport</text><text fill="#000000" font-family="Verdana" font-size="13" lengthAdjust="spacing" textLength="278.1479" x="1135" y="250.5996">- Session states manage stream allocation</text><text fill="#000000" font-family="Verdana" font-size="13" lengthAdjust="spacing" textLength="235.4854" x="1135" y="266.3989">- Error propagation flows downward</text><text fill="#000000" font-family="Verdana" font-size="13" lengthAdjust="spacing" textLength="4.5703" x="1135" y="282.1982">&#160;</text><text fill="#000000" font-family="Verdana" font-size="13" font-weight="bold" lengthAdjust="spacing" textLength="194.6699" x="1135" y="297.9976">Reference Documentation:</text><text fill="#000000" font-family="Verdana" font-size="13" lengthAdjust="spacing" textLength="257.4165" x="1135" y="313.7969">- Each layer has detailed state diagram</text><text fill="#000000" font-family="Verdana" font-size="13" lengthAdjust="spacing" textLength="269.877" x="1135" y="329.5962">- Cross-references maintain relationships</text><text fill="#000000" font-family="Verdana" font-size="13" lengthAdjust="spacing" textLength="313.8916" x="1135" y="345.3955">- State transitions preserve original annotations</text><text fill="#000000" font-family="Verdana" font-size="13" lengthAdjust="spacing" textLength="314.4375" x="1135" y="361.1948">- Error paths documented with recovery options</text></g><g class="entity" data-entity="GMN2" data-source-line="63" data-uid="ent0003" id="entity_GMN2"><path d="M1671,429.7373 L1671,566.1318 L1985.7441,566.1318 L1985.7441,439.7373 L1975.7441,429.7373 L1671,429.7373" fill="#FFFFFF" style="stroke:#000000;stroke-width:1;"/><path d="M1975.7441,429.7373 L1975.7441,439.7373 L1985.7441,439.7373 L1975.7441,429.7373" fill="#FFFFFF" style="stroke:#000000;stroke-width:1;"/><text fill="#000000" font-family="Verdana" font-size="13" font-weight="bold" lengthAdjust="spacing" textLength="174.7954" x="1677" y="447.8071">QUIC Connection States</text><text fill="#000000" font-family="Verdana" font-size="13" lengthAdjust="spacing" textLength="19.5635" x="1677" y="463.6064">&#226;&#8224;&#8217;</text><text fill="#000000" font-family="Verdana" font-size="13" font-weight="bold" lengthAdjust="spacing" textLength="269.6104" x="1701.1338" y="463.6064">See: QUIC Connection State Diagram</text><text fill="#000000" font-family="Verdana" font-size="13" lengthAdjust="spacing" textLength="4.5703" x="1677" y="479.4058">&#160;</text><text fill="#000000" font-family="Verdana" font-size="13" font-weight="bold" lengthAdjust="spacing" textLength="100.5532" x="1677" y="495.2051">Key Features:</text><text fill="#000000" font-family="Verdana" font-size="13" lengthAdjust="spacing" textLength="151.3535" x="1677" y="511.0044">- RFC 9000 compliance</text><text fill="#000000" font-family="Verdana" font-size="13" lengthAdjust="spacing" textLength="135.9287" x="1677" y="526.8037">- TLS 1.3 integration</text><text fill="#000000" font-family="Verdana" font-size="13" lengthAdjust="spacing" textLength="230.4263" x="1677" y="542.603">- Connection lifecycle management</text><text fill="#000000" font-family="Verdana" font-size="13" lengthAdjust="spacing" textLength="193.5273" x="1677" y="558.4023">- Error handling and recovery</text></g><g class="entity" data-entity="GMN5" data-source-line="65" data-uid="ent0006" id="entity_GMN5"><path d="M1833.5,1333.7373 L1833.5,1470.1318 L2119.248,1470.1318 L2119.248,1343.7373 L2109.248,1333.7373 L1833.5,1333.7373" fill="#FFFFFF" style="stroke:#000000;stroke-width:1;"/><path d="M2109.248,1333.7373 L2109.248,1343.7373 L2119.248,1343.7373 L2109.248,1333.7373" fill="#FFFFFF" style="stroke:#000000;stroke-width:1;"/><text fill="#000000" font-family="Verdana" font-size="13" font-weight="bold" lengthAdjust="spacing" textLength="145.7993" x="1839.5" y="1351.8071">QUIC Stream States</text><text fill="#000000" font-family="Verdana" font-size="13" lengthAdjust="spacing" textLength="19.5635" x="1839.5" y="1367.6064">&#226;&#8224;&#8217;</text><text fill="#000000" font-family="Verdana" font-size="13" font-weight="bold" lengthAdjust="spacing" textLength="240.6143" x="1863.6338" y="1367.6064">See: QUIC Stream State Diagram</text><text fill="#000000" font-family="Verdana" font-size="13" lengthAdjust="spacing" textLength="4.5703" x="1839.5" y="1383.4058">&#160;</text><text fill="#000000" font-family="Verdana" font-size="13" font-weight="bold" lengthAdjust="spacing" textLength="100.5532" x="1839.5" y="1399.2051">Key Features:</text><text fill="#000000" font-family="Verdana" font-size="13" lengthAdjust="spacing" textLength="185.9927" x="1839.5" y="1415.0044">- Bidirectional/Unidirectional</text><text fill="#000000" font-family="Verdana" font-size="13" lengthAdjust="spacing" textLength="176.4331" x="1839.5" y="1430.8037">- Flow control enforcement</text><text fill="#000000" font-family="Verdana" font-size="13" lengthAdjust="spacing" textLength="142.9238" x="1839.5" y="1446.603">- Stream multiplexing</text><text fill="#000000" font-family="Verdana" font-size="13" lengthAdjust="spacing" textLength="180.4702" x="1839.5" y="1462.4023">- Half-closed state handling</text></g><g class="entity" data-entity="GMN8" data-source-line="67" data-uid="ent0009" id="entity_GMN8"><path d="M2001.5,725.7373 L2001.5,862.1318 L2293.3101,862.1318 L2293.3101,735.7373 L2283.3101,725.7373 L2001.5,725.7373" fill="#FFFFFF" style="stroke:#000000;stroke-width:1;"/><path d="M2283.3101,725.7373 L2283.3101,735.7373 L2293.3101,735.7373 L2283.3101,725.7373" fill="#FFFFFF" style="stroke:#000000;stroke-width:1;"/><text fill="#000000" font-family="Verdana" font-size="13" font-weight="bold" lengthAdjust="spacing" textLength="151.8613" x="2007.5" y="743.8071">HTTP/3 Layer States</text><text fill="#000000" font-family="Verdana" font-size="13" lengthAdjust="spacing" textLength="19.5635" x="2007.5" y="759.6064">&#226;&#8224;&#8217;</text><text fill="#000000" font-family="Verdana" font-size="13" font-weight="bold" lengthAdjust="spacing" textLength="246.6763" x="2031.6338" y="759.6064">See: HTTP/3 Layer State Diagram</text><text fill="#000000" font-family="Verdana" font-size="13" lengthAdjust="spacing" textLength="4.5703" x="2007.5" y="775.4058">&#160;</text><text fill="#000000" font-family="Verdana" font-size="13" font-weight="bold" lengthAdjust="spacing" textLength="100.5532" x="2007.5" y="791.2051">Key Features:</text><text fill="#000000" font-family="Verdana" font-size="13" lengthAdjust="spacing" textLength="151.3535" x="2007.5" y="807.0044">- RFC 9114 compliance</text><text fill="#000000" font-family="Verdana" font-size="13" lengthAdjust="spacing" textLength="187.5352" x="2007.5" y="822.8037">- SETTINGS frame exchange</text><text fill="#000000" font-family="Verdana" font-size="13" lengthAdjust="spacing" textLength="145.6025" x="2007.5" y="838.603">- QPACK configuration</text><text fill="#000000" font-family="Verdana" font-size="13" lengthAdjust="spacing" textLength="183.6948" x="2007.5" y="854.4023">- WebTransport enablement</text></g><g class="entity" data-entity="GMN11" data-source-line="69" data-uid="ent0012" id="entity_GMN11"><path d="M2059,1021.7373 L2059,1158.1318 L2413.6392,1158.1318 L2413.6392,1031.7373 L2403.6392,1021.7373 L2059,1021.7373" fill="#FFFFFF" style="stroke:#000000;stroke-width:1;"/><path d="M2403.6392,1021.7373 L2403.6392,1031.7373 L2413.6392,1031.7373 L2403.6392,1021.7373" fill="#FFFFFF" style="stroke:#000000;stroke-width:1;"/><text fill="#000000" font-family="Verdana" font-size="13" font-weight="bold" lengthAdjust="spacing" textLength="214.6904" x="2065" y="1039.8071">WebTransport Session States</text><text fill="#000000" font-family="Verdana" font-size="13" lengthAdjust="spacing" textLength="19.5635" x="2065" y="1055.6064">&#226;&#8224;&#8217;</text><text fill="#000000" font-family="Verdana" font-size="13" font-weight="bold" lengthAdjust="spacing" textLength="309.5054" x="2089.1338" y="1055.6064">See: WebTransport Session State Diagram</text><text fill="#000000" font-family="Verdana" font-size="13" lengthAdjust="spacing" textLength="4.5703" x="2065" y="1071.4058">&#160;</text><text fill="#000000" font-family="Verdana" font-size="13" font-weight="bold" lengthAdjust="spacing" textLength="100.5532" x="2065" y="1087.2051">Key Features:</text><text fill="#000000" font-family="Verdana" font-size="13" lengthAdjust="spacing" textLength="151.3535" x="2065" y="1103.0044">- RFC 9220 compliance</text><text fill="#000000" font-family="Verdana" font-size="13" lengthAdjust="spacing" textLength="194.1431" x="2065" y="1118.8037">- CONNECT-based handshake</text><text fill="#000000" font-family="Verdana" font-size="13" lengthAdjust="spacing" textLength="150.9727" x="2065" y="1134.603">- Session management</text><text fill="#000000" font-family="Verdana" font-size="13" lengthAdjust="spacing" textLength="211.7642" x="2065" y="1150.4023">- Stream/datagram multiplexing</text></g><g class="entity" data-entity="GMN14" data-source-line="72" data-uid="ent0015" id="entity_GMN14"><path d="M897,185.2373 L897,242.6353 L1093.7158,242.6353 L1093.7158,195.2373 L1083.7158,185.2373 L897,185.2373" fill="#FFFFFF" style="stroke:#000000;stroke-width:1;"/><path d="M1083.7158,185.2373 L1083.7158,195.2373 L1093.7158,195.2373 L1083.7158,185.2373" fill="#FFFFFF" style="stroke:#000000;stroke-width:1;"/><text fill="#000000" font-family="Verdana" font-size="13" font-weight="bold" lengthAdjust="spacing" textLength="127.1943" x="903" y="203.3071">Foundation Layer</text><text fill="#000000" font-family="Verdana" font-size="13" lengthAdjust="spacing" textLength="175.7158" x="903" y="219.1064">Provides basic connectivity</text><text fill="#000000" font-family="Verdana" font-size="13" lengthAdjust="spacing" textLength="155.9429" x="903" y="234.9058">Enables all upper layers</text></g><g class="entity" data-entity="GMN17" data-source-line="74" data-uid="ent0018" id="entity_GMN17"><path d="M11,1061.2373 L11,1118.6353 L265.6001,1118.6353 L265.6001,1071.2373 L255.6001,1061.2373 L11,1061.2373" fill="#FFFFFF" style="stroke:#000000;stroke-width:1;"/><path d="M255.6001,1061.2373 L255.6001,1071.2373 L265.6001,1071.2373 L255.6001,1061.2373" fill="#FFFFFF" style="stroke:#000000;stroke-width:1;"/><text fill="#000000" font-family="Verdana" font-size="13" font-weight="bold" lengthAdjust="spacing" textLength="159.9863" x="17" y="1079.3071">Transport Abstraction</text><text fill="#000000" font-family="Verdana" font-size="13" lengthAdjust="spacing" textLength="233.6001" x="17" y="1095.1064">Provides reliable/unreliable delivery</text><text fill="#000000" font-family="Verdana" font-size="13" lengthAdjust="spacing" textLength="229.8613" x="17" y="1110.9058">Used by HTTP/3 and WebTransport</text></g><g class="entity" data-entity="GMN20" data-source-line="76" data-uid="ent0021" id="entity_GMN20"><path d="M610.5,1061.2373 L610.5,1118.6353 L844.9082,1118.6353 L844.9082,1071.2373 L834.9082,1061.2373 L610.5,1061.2373" fill="#FFFFFF" style="stroke:#000000;stroke-width:1;"/><path d="M834.9082,1061.2373 L834.9082,1071.2373 L844.9082,1071.2373 L834.9082,1061.2373" fill="#FFFFFF" style="stroke:#000000;stroke-width:1;"/><text fill="#000000" font-family="Verdana" font-size="13" font-weight="bold" lengthAdjust="spacing" textLength="147.2656" x="616.5" y="1079.3071">Application Protocol</text><text fill="#000000" font-family="Verdana" font-size="13" lengthAdjust="spacing" textLength="213.4082" x="616.5" y="1095.1064">Enables WebTransport capability</text><text fill="#000000" font-family="Verdana" font-size="13" lengthAdjust="spacing" textLength="163.3569" x="616.5" y="1110.9058">Provides HTTP semantics</text></g><g class="entity" data-entity="GMN23" data-source-line="78" data-uid="ent0024" id="entity_GMN23"><path d="M1610.5,1373.2373 L1610.5,1430.6353 L1798.418,1430.6353 L1798.418,1383.2373 L1788.418,1373.2373 L1610.5,1373.2373" fill="#FFFFFF" style="stroke:#000000;stroke-width:1;"/><path d="M1788.418,1373.2373 L1788.418,1383.2373 L1798.418,1383.2373 L1788.418,1373.2373" fill="#FFFFFF" style="stroke:#000000;stroke-width:1;"/><text fill="#000000" font-family="Verdana" font-size="13" font-weight="bold" lengthAdjust="spacing" textLength="121.145" x="1616.5" y="1391.3071">Session Protocol</text><text fill="#000000" font-family="Verdana" font-size="13" lengthAdjust="spacing" textLength="166.918" x="1616.5" y="1407.1064">Application-level sessions</text><text fill="#000000" font-family="Verdana" font-size="13" lengthAdjust="spacing" textLength="124.8521" x="1616.5" y="1422.9058">Direct QUIC access</text></g><!--link CONNECTED to H3_INIT--><g class="link" data-entity-1="CONNECTED" data-entity-2="H3_INIT" data-source-line="42" data-uid="lnk2" id="link_CONNECTED_H3_INIT"><path d="M1187.71,523.0473 C1179.01,542.6673 1166.46,570.9773 1155.5,595.7373 C1127.97,657.9673 1098.0327,725.7982 1081.6227,762.9782" fill="none" id="CONNECTED-to-H3_INIT" style="stroke:#00008B;stroke-width:1;"/><polygon fill="#00008B" points="1079.2,768.4673,1086.4935,761.8488,1081.2189,763.893,1079.1747,758.6185,1079.2,768.4673" style="stroke:#00008B;stroke-width:1;"/><text fill="#000000" font-family="Verdana" font-size="13" font-weight="bold" lengthAdjust="spacing" textLength="117.4888" x="1229.8047" y="609.8071">Enables HTTP/3</text><text fill="#000000" font-family="Verdana" font-size="13" lengthAdjust="spacing" textLength="136.7856" x="1220.1563" y="625.6064">Connection ready for</text><text fill="#000000" font-family="Verdana" font-size="13" lengthAdjust="spacing" textLength="135.7891" x="1220.6545" y="641.4058">protocol initialization</text><path d="M1160.5,650.1353 L1160.5,691.1353 L1416.5,691.1353 L1416.5,660.1353 L1406.5,650.1353 L1160.5,650.1353" fill="#FFFFFF" style="stroke:#000000;stroke-width:1;"/><path d="M1406.5,650.1353 L1406.5,660.1353 L1416.5,660.1353 L1406.5,650.1353" fill="#FFFFFF" style="stroke:#000000;stroke-width:1;"/><text fill="#000000" font-family="Verdana" font-size="13" font-weight="bold" lengthAdjust="spacing" textLength="235.0981" x="1166.5" y="668.2051">Reference: HTTP/3 Layer States</text><text fill="#000000" font-family="Verdana" font-size="13" lengthAdjust="spacing" textLength="172.9736" x="1166.5" y="684.0044">Detailed H3 state machine</text></g><!--link H3_READY to WT_INITIALIZING--><g class="link" data-entity-1="H3_READY" data-entity-2="WT_INITIALIZING" data-source-line="45" data-uid="lnk3" id="link_H3_READY_WT_INITIALIZING"><path d="M1181.87,818.9373 C1167.27,860.0973 1145.48,943.9373 1188.5,991.7373 C1206.89,1012.1673 1286.43,993.4673 1311.5,1004.7373 C1341.29,1018.1373 1364.0444,1040.3839 1380.9044,1060.1339" fill="none" id="H3_READY-to-WT_INITIALIZING" style="stroke:#00008B;stroke-width:1;"/><polygon fill="#00008B" points="1384.8,1064.6973,1381.9988,1055.2552,1381.5537,1060.8945,1375.9144,1060.4493,1384.8,1064.6973" style="stroke:#00008B;stroke-width:1;"/><text fill="#000000" font-family="Verdana" font-size="13" font-weight="bold" lengthAdjust="spacing" textLength="164.9185" x="1270.5044" y="905.8071">Enables WebTransport</text><text fill="#000000" font-family="Verdana" font-size="13" lengthAdjust="spacing" textLength="178.7817" x="1263.5728" y="921.6064">HTTP/3 settings exchanged</text><text fill="#000000" font-family="Verdana" font-size="13" lengthAdjust="spacing" textLength="228.0332" x="1238.947" y="937.4058">WebTransport capability confirmed</text><path d="M1193.5,946.1353 L1193.5,987.1353 L1511.5,987.1353 L1511.5,956.1353 L1501.5,946.1353 L1193.5,946.1353" fill="#FFFFFF" style="stroke:#000000;stroke-width:1;"/><path d="M1501.5,946.1353 L1501.5,956.1353 L1511.5,956.1353 L1501.5,946.1353" fill="#FFFFFF" style="stroke:#000000;stroke-width:1;"/><text fill="#000000" font-family="Verdana" font-size="13" font-weight="bold" lengthAdjust="spacing" textLength="297.9272" x="1199.5" y="964.2051">Reference: WebTransport Session States</text><text fill="#000000" font-family="Verdana" font-size="13" lengthAdjust="spacing" textLength="222.0601" x="1199.5" y="980.0044">Detailed WT session management</text></g><!--link CONNECTED to STREAM_IDLE--><g class="link" data-entity-1="CONNECTED" data-entity-2="STREAM_IDLE" data-source-line="48" data-uid="lnk4" id="link_CONNECTED_STREAM_IDLE"><path d="M1175.4,522.8673 C1161.85,536.3373 1143.99,552.9273 1126.5,565.7373 C889.2,739.5673 698.67,637.6173 550.5,891.7373 C490.21,995.1273 516.05,1065.6473 592.5,1157.7373 C700.08,1287.3373 800.49,1217.3873 936.5,1316.7373 C959.66,1333.6573 977.5721,1353.648 991.9721,1371.888" fill="none" id="CONNECTED-to-STREAM_IDLE" style="stroke:#00008B;stroke-width:1;"/><polygon fill="#00008B" points="995.69,1376.5973,993.2527,1367.0548,992.5918,1372.6729,986.9737,1372.0119,995.69,1376.5973" style="stroke:#00008B;stroke-width:1;"/><text fill="#000000" font-family="Verdana" font-size="13" font-weight="bold" lengthAdjust="spacing" textLength="121.5513" x="619.7424" y="905.8071">Enables Streams</text><text fill="#000000" font-family="Verdana" font-size="13" lengthAdjust="spacing" textLength="136.7856" x="612.1252" y="921.6064">Connection ready for</text><text fill="#000000" font-family="Verdana" font-size="13" lengthAdjust="spacing" textLength="102.8892" x="629.0735" y="937.4058">stream creation</text><path d="M555.5,946.1353 L555.5,987.1353 L805.5,987.1353 L805.5,956.1353 L795.5,946.1353 L555.5,946.1353" fill="#FFFFFF" style="stroke:#000000;stroke-width:1;"/><path d="M795.5,946.1353 L795.5,956.1353 L805.5,956.1353 L795.5,946.1353" fill="#FFFFFF" style="stroke:#000000;stroke-width:1;"/><text fill="#000000" font-family="Verdana" font-size="13" font-weight="bold" lengthAdjust="spacing" textLength="229.0361" x="561.5" y="964.2051">Reference: QUIC Stream States</text><text fill="#000000" font-family="Verdana" font-size="13" lengthAdjust="spacing" textLength="160.4497" x="561.5" y="980.0044">Detailed stream lifecycle</text></g><!--link H3_READY to STREAM_IDLE--><g class="link" data-entity-1="H3_READY" data-entity-2="STREAM_IDLE" data-source-line="51" data-uid="lnk5" id="link_H3_READY_STREAM_IDLE"><path d="M1168.95,818.9973 C1156.49,832.0373 1140.54,848.1873 1125.5,861.7373 C1049.86,929.9073 990.64,912.9773 946.5,1004.7373 C884.08,1134.4873 963.1464,1307.2779 997.1364,1371.2979" fill="none" id="H3_READY-to-STREAM_IDLE" style="stroke:#00008B;stroke-width:1;"/><polygon fill="#00008B" points="999.95,1376.5973,999.2625,1366.7725,997.6053,1372.1811,992.1967,1370.5239,999.95,1376.5973" style="stroke:#00008B;stroke-width:1;"/><text fill="#000000" font-family="Verdana" font-size="13" font-weight="bold" lengthAdjust="spacing" textLength="121.1895" x="996.9629" y="1037.8071">HTTP/3 Streams</text><text fill="#000000" font-family="Verdana" font-size="13" lengthAdjust="spacing" textLength="129.854" x="992.6306" y="1053.6064">Control and request</text><text fill="#000000" font-family="Verdana" font-size="13" lengthAdjust="spacing" textLength="109.6621" x="1002.7266" y="1069.4058">streams creation</text><path d="M951.5,1078.1353 L951.5,1151.1353 L1163.5,1151.1353 L1163.5,1088.1353 L1153.5,1078.1353 L951.5,1078.1353" fill="#FFFFFF" style="stroke:#000000;stroke-width:1;"/><path d="M1153.5,1078.1353 L1153.5,1088.1353 L1163.5,1088.1353 L1153.5,1078.1353" fill="#FFFFFF" style="stroke:#000000;stroke-width:1;"/><text fill="#000000" font-family="Verdana" font-size="13" font-weight="bold" lengthAdjust="spacing" textLength="120.0215" x="957.5" y="1096.2051">Cross-Reference</text><text fill="#000000" font-family="Verdana" font-size="13" lengthAdjust="spacing" textLength="177.7344" x="957.5" y="1112.0044">HTTP/3 uses QUIC streams</text><text fill="#000000" font-family="Verdana" font-size="13" lengthAdjust="spacing" textLength="155.1685" x="957.5" y="1127.8037">for control (ID 2/3) and</text><text fill="#000000" font-family="Verdana" font-size="13" lengthAdjust="spacing" textLength="191.1152" x="957.5" y="1143.603">request streams (ID 0,4,8...)</text></g><!--link WT_CONNECTED to STREAM_IDLE--><g class="link" data-entity-1="WT_CONNECTED" data-entity-2="STREAM_IDLE" data-source-line="54" data-uid="lnk6" id="link_WT_CONNECTED_STREAM_IDLE"><path d="M1554.1,1114.8073 C1537.56,1128.2573 1515.99,1144.8473 1495.5,1157.7373 C1348.36,1250.3173 1166.8731,1333.9036 1075.0431,1374.2536" fill="none" id="WT_CONNECTED-to-STREAM_IDLE" style="stroke:#00008B;stroke-width:1;"/><polygon fill="#00008B" points="1069.55,1376.6673,1079.3988,1376.7089,1074.1276,1374.6559,1076.1806,1369.3847,1069.55,1376.6673" style="stroke:#00008B;stroke-width:1;"/><text fill="#000000" font-family="Verdana" font-size="13" font-weight="bold" lengthAdjust="spacing" textLength="168.6191" x="1486.5205" y="1201.8071">WebTransport Streams</text><text fill="#000000" font-family="Verdana" font-size="13" lengthAdjust="spacing" textLength="125.1313" x="1508.2644" y="1217.6064">WebTransport data</text><text fill="#000000" font-family="Verdana" font-size="13" lengthAdjust="spacing" textLength="109.6621" x="1515.999" y="1233.4058">streams creation</text><path d="M1449.5,1242.1353 L1449.5,1299.1353 L1691.5,1299.1353 L1691.5,1252.1353 L1681.5,1242.1353 L1449.5,1242.1353" fill="#FFFFFF" style="stroke:#000000;stroke-width:1;"/><path d="M1681.5,1242.1353 L1681.5,1252.1353 L1691.5,1252.1353 L1681.5,1242.1353" fill="#FFFFFF" style="stroke:#000000;stroke-width:1;"/><text fill="#000000" font-family="Verdana" font-size="13" font-weight="bold" lengthAdjust="spacing" textLength="120.0215" x="1455.5" y="1260.2051">Cross-Reference</text><text fill="#000000" font-family="Verdana" font-size="13" lengthAdjust="spacing" textLength="221.6602" x="1455.5" y="1276.0044">WebTransport uses QUIC streams</text><text fill="#000000" font-family="Verdana" font-size="13" lengthAdjust="spacing" textLength="168.4414" x="1455.5" y="1291.8037">for session data transport</text></g><!--link DRAINING to H3_ERROR--><g class="link" data-entity-1="DRAINING" data-entity-2="H3_ERROR" data-source-line="58" data-uid="lnk7" id="link_DRAINING_H3_ERROR"><path d="M1360.04,522.8173 C1378.87,541.8373 1405.02,569.4673 1425.5,595.7373 C1471.51,654.7673 1514.3032,725.2067 1536.5632,763.3067" fill="none" id="DRAINING-to-H3_ERROR" style="stroke:#00008B;stroke-width:1;"/><polygon fill="#00008B" points="1539.59,768.4873,1538.5036,758.6986,1537.0677,764.1701,1531.5961,762.7343,1539.59,768.4873" style="stroke:#00008B;stroke-width:1;"/><text fill="#000000" font-family="Verdana" font-size="13" font-weight="bold" lengthAdjust="spacing" textLength="159.8213" x="1502.8918" y="643.3071">Connection Shutdown</text><text fill="#000000" font-family="Verdana" font-size="13" lengthAdjust="spacing" textLength="174.605" x="1495.5" y="659.1064">Forces HTTP/3 termination</text></g><!--link DRAINING to WT_CLOSING--><g class="link" data-entity-1="DRAINING" data-entity-2="WT_CLOSING" data-source-line="59" data-uid="lnk8" id="link_DRAINING_WT_CLOSING"><path d="M1352.16,523.0573 C1363.84,538.0373 1380.84,556.1373 1400.5,565.7373 C1512.18,620.2373 1578.46,522.0073 1678.5,595.7373 C1782.18,672.1473 1734.72,747.1373 1793.5,861.7373 C1832.6,937.9773 1883.6368,1018.5788 1910.2468,1059.4588" fill="none" id="DRAINING-to-WT_CLOSING" style="stroke:#00008B;stroke-width:1;"/><polygon fill="#00008B" points="1913.52,1064.4873,1911.9625,1054.7624,1910.7923,1060.2969,1905.2578,1059.1267,1913.52,1064.4873" style="stroke:#00008B;stroke-width:1;"/><text fill="#000000" font-family="Verdana" font-size="13" font-weight="bold" lengthAdjust="spacing" textLength="149.0176" x="1814.7839" y="791.3071">Session Termination</text><text fill="#000000" font-family="Verdana" font-size="13" lengthAdjust="spacing" textLength="189.5854" x="1794.5" y="807.1064">Forces WebTransport closure</text></g><!--link H3_ERROR to WT_CLOSING--><g class="link" data-entity-1="H3_ERROR" data-entity-2="WT_CLOSING" data-source-line="60" data-uid="lnk9" id="link_H3_ERROR_WT_CLOSING"><path d="M1544.64,818.9573 C1531.18,860.5473 1511.56,945.4973 1556.5,991.7373 C1579.52,1015.4273 1823.61,990.6773 1853.5,1004.7373 C1880.55,1017.4573 1898.969,1039.677 1912.159,1059.697" fill="none" id="H3_ERROR-to-WT_CLOSING" style="stroke:#00008B;stroke-width:1;"/><polygon fill="#00008B" points="1915.46,1064.7073,1913.8487,1054.9911,1912.7092,1060.532,1907.1683,1059.3925,1915.46,1064.7073" style="stroke:#00008B;stroke-width:1;"/><text fill="#000000" font-family="Verdana" font-size="13" font-weight="bold" lengthAdjust="spacing" textLength="115.6035" x="1595.532" y="939.3071">Protocol Failure</text><text fill="#000000" font-family="Verdana" font-size="13" lengthAdjust="spacing" textLength="191.6675" x="1557.5" y="955.1064">HTTP/3 errors affect sessions</text></g><!--link ConnLayer to GMN2--><g class="link" data-entity-1="ConnLayer" data-entity-2="GMN2" data-source-line="63" data-uid="lnk4" id="link_ConnLayer_GMN2"><path d="M1002.3366,428.4302 C1002.4565,428.0758 1002.5783,427.7221 1002.7019,427.3692 C1003.1963,425.9576 1003.7205,424.5591 1004.2759,423.1775 C1005.3868,420.4144 1006.6231,417.719 1007.998,415.1228 C1013.4975,404.7379 1021.215,395.9398 1032,390.7373 C1090.95,362.3073 1557.4,375.3073 1621,390.7373 C1654.87,398.9573 1689.41,413.7273 1720.33,429.7273" fill="none" id="ConnLayer-GMN2" style="stroke:#00008B;stroke-width:1;stroke-dasharray:7,7;"/></g><!--link StreamLayer to GMN5--><g class="link" data-entity-1="StreamLayer" data-entity-2="GMN5" data-source-line="65" data-uid="lnk7" id="link_StreamLayer_GMN5"><path d="M135.1525,1332.0673 C137.57,1297.9798 147.165,1259.5723 175,1237.2373 C315.74,1124.3073 1631.01,1171.3673 1799,1237.2373 C1848.68,1256.7173 1892.75,1297.3573 1924.55,1333.3573" fill="none" id="StreamLayer-GMN5" style="stroke:#00008B;stroke-width:1;stroke-dasharray:7,7;"/></g><!--link GMN8 to H3Layer--><g class="link" data-entity-1="GMN8" data-entity-2="H3Layer" data-source-line="67" data-uid="lnk10" id="link_GMN8_H3Layer"><path d="M2087.22,725.6873 C2052.85,692.1073 2006.77,655.0573 1957,637.2373 C1860.03,602.5173 1111.03,573.6473 1030,637.2373 C1016.6125,647.7448 1007.5325,662.1304 1001.4673,677.9495 C998.4348,685.859 996.1559,694.1269 994.4692,702.4476 C993.6258,706.6079 992.9305,710.7814 992.363,714.93 C992.0792,717.0042 991.8274,719.0722 991.605,721.1292 C991.4939,722.1577 991.39,723.1834 991.2933,724.2058" fill="none" id="GMN8-H3Layer" style="stroke:#00008B;stroke-width:1;stroke-dasharray:7,7;"/></g><!--link GMN11 to WTLayer--><g class="link" data-entity-1="GMN11" data-entity-2="WTLayer" data-source-line="69" data-uid="lnk13" id="link_GMN11_WTLayer"><path d="M2058.79,1089.7373 C2052.98,1089.7373 2047.1675,1089.7373 2041.355,1089.7373 C2038.4488,1089.7373 2035.5425,1089.7373 2032.6366,1089.7373 C2032.2733,1089.7373 2031.9101,1089.7373 2031.5469,1089.7373" fill="none" id="GMN11-WTLayer" style="stroke:#00008B;stroke-width:1;stroke-dasharray:7,7;"/></g><!--link GMN14 to ConnLayer--><g class="link" data-entity-1="GMN14" data-entity-2="ConnLayer" data-source-line="72" data-uid="lnk16" id="link_GMN14_ConnLayer"><path d="M995.5,242.2873 C995.5,277.2123 995.5,339.3973 995.5,393.5486 C995.5,400.3175 995.5,406.9608 995.5,413.4098 C995.5,416.6342 995.5,419.8101 995.5,422.9287 C995.5,424.488 995.5,426.033 995.5,427.5626 C995.5,427.945 995.5,428.3264 995.5,428.7069" fill="none" id="GMN14-ConnLayer" style="stroke:#00008B;stroke-width:1;stroke-dasharray:7,7;"/></g><!--link GMN17 to StreamLayer--><g class="link" data-entity-1="GMN17" data-entity-2="StreamLayer" data-source-line="74" data-uid="lnk19" id="link_GMN17_StreamLayer"><path d="M138.5,1118.2473 C138.5,1155.5873 138.5,1224.6048 138.5,1285.0711 C138.5,1300.1876 138.5,1314.7697 138.5,1328.1888 C138.5,1329.0275 138.5,1329.8617 138.5,1330.6911 C138.5,1331.1058 138.5,1331.5194 138.5,1331.9317" fill="none" id="GMN17-StreamLayer" style="stroke:#00008B;stroke-width:1;stroke-dasharray:7,7;"/></g><!--link H3Layer to GMN20--><g class="link" data-entity-1="H3Layer" data-entity-2="GMN20" data-source-line="76" data-uid="lnk22" id="link_H3Layer_GMN20"><path d="M985.2625,801.3065 C985.1715,801.38 985.0799,801.4542 984.9876,801.5289 C984.803,801.6783 984.6158,801.83 984.426,801.9838 C983.6668,802.5993 982.8663,803.2503 982.0269,803.9353 C975.3119,809.4151 966.11,817.0717 955.6825,826.1536 C934.8275,844.3173 909.07,868.1823 888.5,891.7373 C852.82,932.5973 852.7,949.6273 818.5,991.7373 C798.7,1016.1173 774.26,1041.9673 755.69,1060.8473" fill="none" id="H3Layer-GMN20" style="stroke:#00008B;stroke-width:1;stroke-dasharray:7,7;"/></g><!--link WTLayer to GMN23--><g class="link" data-entity-1="WTLayer" data-entity-2="GMN23" data-source-line="78" data-uid="lnk25" id="link_WTLayer_GMN23"><path d="M2013.8049,1138.7686 C2013.7634,1138.8816 2013.7218,1138.9946 2013.68,1139.1075 C2013.5963,1139.3334 2013.512,1139.5591 2013.4269,1139.7846 C2013.0867,1140.6866 2012.7353,1141.5855 2012.3721,1142.4798 C2011.6459,1144.2684 2010.8731,1146.0384 2010.0508,1147.7773 C2008.4063,1151.2551 2006.5638,1154.6086 2004.5,1157.7373 C1986.23,1185.4273 1816.76,1315.6473 1740.91,1373.2373" fill="none" id="WTLayer-GMN23" style="stroke:#00008B;stroke-width:1;stroke-dasharray:7,7;"/></g><!--SRC=[ZLVDRXit4BxlKx3feR4HoJ_AeSsXW2B9jH3PSYG5HWi11hLBIOGfSajILjGYG5wZjwAlqZV9atI6NEvoLqhgGupixEpCDt_VZBwpQxPX91UKoyGySfbJJJV4M6eP-JCXv2rD7rTQRMNMKq9fibjpor2kTCQqboq4A86igxNQUL56zUD2R5doAKaijuAHzn-6lRFhsUokStRF5ZDDfScLjcJgNBbdRhcIXeoVc7xYR9Sa7iOB_9Jqb9GiHGqoedkcNn1gdD0zaUy5NwqjkdIm_PV3_cXGFlJ6jxU3tcnu-miXJU6WNqhwa-xm5fGgbT5u2ky_rU5ChMQGg0gA5yHWLfen6Q6PpYQ3xir33LGX6zyDRalPTNTqzU2zFep6lUxew9l9u6OyEp1q01OpVjOXTrfPbIeH0Rxkn63JFOsnNdSU80kp-7awc67ofW-0jHyd2Dw1x_wliM0mcOmd4OnwoPanzJhUps8iUoQ4saLexcSEpR0x6luMUmPvLTKZqgYiA8JSDFNATFr0UbePqn8EXrV8MCvancJAcI4xRjSWiPGBbX4gfG8TxDUaT4PQhPz3viWRSdewa7GXu5jVXDFJkOow6DebsvEbqdEPX-fm2JD01V_3cKx01oEWAhXyT0OdRCaq069l2fi-Xtw833he1uJNdIAA3KtNNB8a2NLoC1ifhS6DYuKs2rU6MSlboX3sCLrJkMBPNDRgcjASBhZWTazI9PTSRrZspHYETiMHMEvduDo_tL19Lq1PqYQDn4VZLOl63wRvUlQD7-KK_lvlrkFPFmAqC2NuagNxL3IJteHO9BQEq6fe12epWFZxbXaR09fl8FIzM-ACYhQ5n7dKXPMvXA2nFixFos6VN9vrJj3XN1OUWwfxU_xgzQiVs-tsIPB4WtKqdWQnbr7Lv1crz30cuEJdH5Mpz9NOGgkW8sA3Dexu5LHfgs7TQPNJbVURKxisIM3zCCAElpo8gcUcwwtDr4uYa2kbqtAoYMLwmwKlJirKHJlEMEZnMQKV6QiFar06iPAaX7F4OCdhHMXHvHbiOsq8NK8lsf0KWsdmdC4beAO-ifZEN1aqyZ1HosZ3ehlc9gv6uDz_ldp- -yldlroGOL2QcgJFwGhk2_nW3f6_Otjo1VK7uEOD2bjaSjKZFvsVdqE7RdB1ATGTnRFHb5oqEmuqM42JA8uSb3CNKGIg330D1FWgWxvQ5OELAhWnzaaZrdY5bz4U3FlHI6EjPqJvbcTSU-1Kd7sGyIE-lyBz5sQKOLUdPK25gyrMM9uBzX6YGl4r5SiMDesZ8OGHOYx256pfeWnxFoAWvX9fXdYezjnANboyRbGod15a2P-pSfVWg_TttTuxlpfMswh8jR5WZjKz_zV22YV48GyTx9LcU5zNVswObvVDXYs8ihMWM10iXLdJHv-1WrLMbVKCIGizrkgBGziFnmXiBUoEWv6rAZySs2kyt6brDIDcu8mddW7V03QUOhxT33t1tfxBi3Mf46IRvs36NKGcgJbfJagLlku2kDYpIisNPf0Ri7osbU6_S4q9ZdCubnymIOjzQ3GSqhWeXVE5ibPjcZtSpI7jgOynq26wFdRDH2TAX0sz0a52FInFpO6pkBD2xM974O2MO4zCb6GBbu6RQyyHD0MITmGyZGypJ8sluvhdXcGgtM9FH9iU3kH9f7CBiWIWE2CtXP5O0Pey0OLh3lokuNLAHTK-t7LkSj4-eEYNox9PJfBBTaniS0gKY_G4LbAdNUU4b-62FKbUju_E4rYWLPvE49zVxzx0i5f63bwDsZsTiQAUpNEj5Q3uauuTANjI3PspPOhP2xQWsLKQhFc54Py8E6zOc9tSKPqXzF8c8VsuN1xv04hYfmRctbI_6OeV5PvHC48Nlmwc41IiD_XNxmW4xxwqqM_a70W8VYN3lGJR2ou9KUE3CWYyRSgE0WZkHqnOVqJbNXqQWs2Z_GS0]--></g></svg>