<svg xmlns="http://www.w3.org/2000/svg" xmlns:xlink="http://www.w3.org/1999/xlink" contentStyleType="text/css" data-diagram-type="STATE" height="1602px" preserveAspectRatio="none" style="width:1719px;height:1602px;background:#FFFFFF;" version="1.1" viewBox="0 0 1719 1602" width="1719px" zoomAndPan="magnify"><title>WebTransport Session State Transitions</title><defs/><g><g class="title" data-source-line="8"><text fill="#000000" font-family="Verdana" font-size="22" font-weight="bold" lengthAdjust="spacing" textLength="496.0313" x="607.0129" y="37.1182">WebTransport Session State Transitions</text></g><!--cluster WebTransport--><g class="cluster" data-entity="WebTransport" data-source-line="10" data-uid="ent0002" id="cluster_WebTransport"><path d="M321.5,104.8473 L695.5,104.8473 A12.5,12.5 0 0 1 708,117.3473 L708,126.862 L309,126.862 L309,117.3473 A12.5,12.5 0 0 1 321.5,104.8473" fill="#FFFFE0"/><path d="M309,126.862 L708,126.862 L708,1576.8473 A12.5,12.5 0 0 1 695.5,1589.3473 L321.5,1589.3473 A12.5,12.5 0 0 1 309,1576.8473 L309,126.862" fill="#FFFFFF"/><rect fill="none" height="1484.5" rx="12.5" ry="12.5" style="stroke:#000000;stroke-width:1;" width="399" x="309" y="104.8473"/><line style="stroke:#000000;stroke-width:1;" x1="309" x2="708" y1="126.862" y2="126.862"/><text fill="#000000" font-family="Verdana" font-size="14" lengthAdjust="spacing" textLength="206.9648" x="405.0176" y="122.9225">WebTransport Session States</text></g><g id="WebTransport.WT_INITIALIZING"><rect fill="#FFFFE0" height="51.5986" rx="12.5" ry="12.5" style="stroke:#000000;stroke-width:1;" width="148.2148" x="497" y="314.8473"/><line style="stroke:#000000;stroke-width:1;" x1="497" x2="645.2148" y1="341.862" y2="341.862"/><text fill="#000000" font-family="Verdana" font-size="14" lengthAdjust="spacing" textLength="128.2148" x="507" y="333.9225">WT_INITIALIZING</text><text fill="#000000" font-family="Verdana" font-size="12" lengthAdjust="spacing" textLength="95.3262" x="502" y="358.9264">Session created</text></g><g id="WebTransport.WT_CONNECTING"><rect fill="#FFFFE0" height="51.5986" rx="12.5" ry="12.5" style="stroke:#000000;stroke-width:1;" width="147.5859" x="490" y="512.8473"/><line style="stroke:#000000;stroke-width:1;" x1="490" x2="637.5859" y1="539.862" y2="539.862"/><text fill="#000000" font-family="Verdana" font-size="14" lengthAdjust="spacing" textLength="127.5859" x="500" y="531.9225">WT_CONNECTING</text><text fill="#000000" font-family="Verdana" font-size="12" lengthAdjust="spacing" textLength="89.0801" x="495" y="556.9264">CONNECT sent</text></g><g id="WebTransport.WT_CONNECTED"><rect fill="#FFFFE0" height="51.5986" rx="12.5" ry="12.5" style="stroke:#000000;stroke-width:1;" width="140.0049" x="528" y="750.8473"/><line style="stroke:#000000;stroke-width:1;" x1="528" x2="668.0049" y1="777.862" y2="777.862"/><text fill="#000000" font-family="Verdana" font-size="14" lengthAdjust="spacing" textLength="120.0049" x="538" y="769.9225">WT_CONNECTED</text><text fill="#000000" font-family="Verdana" font-size="12" lengthAdjust="spacing" textLength="118.1133" x="533" y="794.9264">Session established</text></g><g id="WebTransport.WT_CLOSING"><rect fill="#FFFFE0" height="51.5986" rx="12.5" ry="12.5" style="stroke:#000000;stroke-width:1;" width="133.2734" x="550.5" y="956.8473"/><line style="stroke:#000000;stroke-width:1;" x1="550.5" x2="683.7734" y1="983.862" y2="983.862"/><text fill="#000000" font-family="Verdana" font-size="14" lengthAdjust="spacing" textLength="96.749" x="568.7622" y="975.9225">WT_CLOSING</text><text fill="#000000" font-family="Verdana" font-size="12" lengthAdjust="spacing" textLength="113.2734" x="555.5" y="1000.9264">Shutdown initiated</text></g><g id="WebTransport.WT_CLOSED"><rect fill="#FFFFE0" height="51.5986" rx="12.5" ry="12.5" style="stroke:#000000;stroke-width:1;" width="136.3613" x="496" y="1395.8473"/><line style="stroke:#000000;stroke-width:1;" x1="496" x2="632.3613" y1="1422.862" y2="1422.862"/><text fill="#000000" font-family="Verdana" font-size="14" lengthAdjust="spacing" textLength="89.168" x="519.5967" y="1414.9225">WT_CLOSED</text><text fill="#000000" font-family="Verdana" font-size="12" lengthAdjust="spacing" textLength="116.3613" x="501" y="1439.9264">Session terminated</text></g><g id="WebTransport.WT_FAILED"><rect fill="#FFFFE0" height="51.5986" rx="12.5" ry="12.5" style="stroke:#000000;stroke-width:1;" width="124.0039" x="372" y="1221.8473"/><line style="stroke:#000000;stroke-width:1;" x1="372" x2="496.0039" y1="1248.862" y2="1248.862"/><text fill="#000000" font-family="Verdana" font-size="14" lengthAdjust="spacing" textLength="82.3115" x="392.8462" y="1240.9225">WT_FAILED</text><text fill="#000000" font-family="Verdana" font-size="12" lengthAdjust="spacing" textLength="104.0039" x="377" y="1265.9264">Connection failed</text></g><ellipse cx="571" cy="158.8473" fill="#FFFFFF" rx="10" ry="10" style="stroke:#000000;stroke-width:1;"/><ellipse cx="563" cy="1554.3473" fill="none" rx="11" ry="11" style="stroke:#000000;stroke-width:1;"/><ellipse cx="563" cy="1554.3473" fill="#FFFFFF" rx="6" ry="6" style="stroke:#000000;stroke-width:1;"/><g class="entity" data-entity="GMN2" data-source-line="30" data-uid="ent0003" id="entity_GMN2"><path d="M732,296.3473 L732,336.8473 L645.09,340.8473 L732,344.8473 L732,385.3439 A0,0 0 0 0 732,385.3439 L950.3677,385.3439 A0,0 0 0 0 950.3677,385.3439 L950.3677,306.3473 L940.3677,296.3473 L732,296.3473 A0,0 0 0 0 732,296.3473" fill="#FFFFFF" style="stroke:#000000;stroke-width:1;"/><path d="M940.3677,296.3473 L940.3677,306.3473 L950.3677,306.3473 L940.3677,296.3473" fill="#FFFFFF" style="stroke:#000000;stroke-width:1;"/><text fill="#000000" font-family="Verdana" font-size="13" font-weight="bold" lengthAdjust="spacing" textLength="159.3262" x="738" y="314.4171">Session Initialization:</text><text fill="#000000" font-family="Verdana" font-size="13" lengthAdjust="spacing" textLength="158.4185" x="738" y="330.2164">- Session object created</text><text fill="#000000" font-family="Verdana" font-size="13" lengthAdjust="spacing" textLength="197.3677" x="738" y="346.0158">- Authority and path validated</text><text fill="#000000" font-family="Verdana" font-size="13" lengthAdjust="spacing" textLength="191.6294" x="738" y="361.8151">- CONNECT request prepared</text><text fill="#000000" font-family="Verdana" font-size="13" lengthAdjust="spacing" textLength="143.3428" x="738" y="377.6144">- Session ID allocated</text></g><g class="entity" data-entity="GMN5" data-source-line="32" data-uid="ent0006" id="entity_GMN5"><path d="M732,494.3473 L732,534.8473 L638.21,538.8473 L732,542.8473 L732,583.3439 A0,0 0 0 0 732,583.3439 L1024.4575,583.3439 A0,0 0 0 0 1024.4575,583.3439 L1024.4575,504.3473 L1014.4575,494.3473 L732,494.3473 A0,0 0 0 0 732,494.3473" fill="#FFFFFF" style="stroke:#000000;stroke-width:1;"/><path d="M1014.4575,494.3473 L1014.4575,504.3473 L1024.4575,504.3473 L1014.4575,494.3473" fill="#FFFFFF" style="stroke:#000000;stroke-width:1;"/><text fill="#000000" font-family="Verdana" font-size="13" font-weight="bold" lengthAdjust="spacing" textLength="135.916" x="738" y="512.4171">CONNECT Process:</text><text fill="#000000" font-family="Verdana" font-size="13" lengthAdjust="spacing" textLength="271.4575" x="738" y="528.2164">- HEADERS frame with CONNECT method</text><text fill="#000000" font-family="Verdana" font-size="13" lengthAdjust="spacing" textLength="215.9917" x="738" y="544.0158">- :protocol: webtransport header</text><text fill="#000000" font-family="Verdana" font-size="13" lengthAdjust="spacing" textLength="212.3354" x="738" y="559.8151">- :authority: and :path: headers</text><text fill="#000000" font-family="Verdana" font-size="13" lengthAdjust="spacing" textLength="198.9673" x="738" y="575.6144">- Server validation in progress</text></g><g class="entity" data-entity="GMN8" data-source-line="34" data-uid="ent0009" id="entity_GMN8"><path d="M732,716.3473 L732,772.8473 L668.13,776.8473 L732,780.8473 L732,836.9425 A0,0 0 0 0 732,836.9425 L1006.1699,836.9425 A0,0 0 0 0 1006.1699,836.9425 L1006.1699,726.3473 L996.1699,716.3473 L732,716.3473 A0,0 0 0 0 732,716.3473" fill="#FFFFFF" style="stroke:#000000;stroke-width:1;"/><path d="M996.1699,716.3473 L996.1699,726.3473 L1006.1699,726.3473 L996.1699,716.3473" fill="#FFFFFF" style="stroke:#000000;stroke-width:1;"/><text fill="#000000" font-family="Verdana" font-size="13" font-weight="bold" lengthAdjust="spacing" textLength="214.2905" x="738" y="734.4171">Connected State Capabilities:</text><text fill="#000000" font-family="Verdana" font-size="13" lengthAdjust="spacing" textLength="19.5635" x="738" y="750.2164">&#226;&#8224;&#8217;</text><text fill="#000000" font-family="Verdana" font-size="13" font-weight="bold" lengthAdjust="spacing" textLength="229.0361" x="762.1338" y="750.2164">Reference: QUIC Stream States</text><text fill="#000000" font-family="Verdana" font-size="13" lengthAdjust="spacing" textLength="194.6509" x="738" y="766.0158">- Create bidirectional streams</text><text fill="#000000" font-family="Verdana" font-size="13" lengthAdjust="spacing" textLength="203.0044" x="738" y="781.8151">- Create unidirectional streams</text><text fill="#000000" font-family="Verdana" font-size="13" lengthAdjust="spacing" textLength="170.4282" x="738" y="797.6144">- Send/receive datagrams</text><text fill="#000000" font-family="Verdana" font-size="13" lengthAdjust="spacing" textLength="186.2021" x="738" y="813.4137">- Stream multiplexing active</text><text fill="#000000" font-family="Verdana" font-size="13" lengthAdjust="spacing" textLength="167.4702" x="738" y="829.213">- Flow control operational</text></g><g class="entity" data-entity="GMN11" data-source-line="36" data-uid="ent0012" id="entity_GMN11"><path d="M1418,938.3473 L1418,1027.3439 L1712.0571,1027.3439 L1712.0571,948.3473 L1702.0571,938.3473 L1418,938.3473" fill="#FFFFFF" style="stroke:#000000;stroke-width:1;"/><path d="M1702.0571,938.3473 L1702.0571,948.3473 L1712.0571,948.3473 L1702.0571,938.3473" fill="#FFFFFF" style="stroke:#000000;stroke-width:1;"/><text fill="#000000" font-family="Verdana" font-size="13" font-weight="bold" lengthAdjust="spacing" textLength="144.5298" x="1424" y="956.4171">Graceful Shutdown:</text><text fill="#000000" font-family="Verdana" font-size="13" lengthAdjust="spacing" textLength="273.0571" x="1424" y="972.2164">- CLOSE_WEBTRANSPORT_SESSION sent</text><text fill="#000000" font-family="Verdana" font-size="13" lengthAdjust="spacing" textLength="195.0317" x="1424" y="988.0158">- Existing streams completing</text><text fill="#000000" font-family="Verdana" font-size="13" lengthAdjust="spacing" textLength="223.2661" x="1424" y="1003.8151">- Datagram transmission stopping</text><text fill="#000000" font-family="Verdana" font-size="13" lengthAdjust="spacing" textLength="193.6543" x="1424" y="1019.6144">- Resource cleanup beginning</text></g><g class="entity" data-entity="GMN14" data-source-line="38" data-uid="ent0015" id="entity_GMN14"><path d="M997.5,1195.3473 L997.5,1300.1432 L1204.6895,1300.1432 L1204.6895,1205.3473 L1194.6895,1195.3473 L997.5,1195.3473" fill="#FFFFFF" style="stroke:#000000;stroke-width:1;"/><path d="M1194.6895,1195.3473 L1194.6895,1205.3473 L1204.6895,1205.3473 L1194.6895,1195.3473" fill="#FFFFFF" style="stroke:#000000;stroke-width:1;"/><text fill="#000000" font-family="Verdana" font-size="13" font-weight="bold" lengthAdjust="spacing" textLength="137.4458" x="1003.5" y="1213.4171">Failure Conditions:</text><text fill="#000000" font-family="Verdana" font-size="13" lengthAdjust="spacing" textLength="186.1895" x="1003.5" y="1229.2164">- CONNECT request rejected</text><text fill="#000000" font-family="Verdana" font-size="13" lengthAdjust="spacing" textLength="157.3584" x="1003.5" y="1245.0158">- Authentication failures</text><text fill="#000000" font-family="Verdana" font-size="13" lengthAdjust="spacing" textLength="145.4375" x="1003.5" y="1260.8151">- Authorization denied</text><text fill="#000000" font-family="Verdana" font-size="13" lengthAdjust="spacing" textLength="145.6406" x="1003.5" y="1276.6144">- Protocol mismatches</text><text fill="#000000" font-family="Verdana" font-size="13" lengthAdjust="spacing" textLength="132.3232" x="1003.5" y="1292.4137">- Server unavailable</text></g><g class="entity" data-entity="GMN17" data-source-line="40" data-uid="ent0018" id="entity_GMN17"><path d="M732.5,1377.3473 L732.5,1417.8473 L632.01,1421.8473 L732.5,1425.8473 L732.5,1466.3439 A0,0 0 0 0 732.5,1466.3439 L909.2778,1466.3439 A0,0 0 0 0 909.2778,1466.3439 L909.2778,1387.3473 L899.2778,1377.3473 L732.5,1377.3473 A0,0 0 0 0 732.5,1377.3473" fill="#FFFFFF" style="stroke:#000000;stroke-width:1;"/><path d="M899.2778,1377.3473 L899.2778,1387.3473 L909.2778,1387.3473 L899.2778,1377.3473" fill="#FFFFFF" style="stroke:#000000;stroke-width:1;"/><text fill="#000000" font-family="Verdana" font-size="13" font-weight="bold" lengthAdjust="spacing" textLength="124.376" x="738.5" y="1395.4171">Session Cleanup:</text><text fill="#000000" font-family="Verdana" font-size="13" lengthAdjust="spacing" textLength="128.8955" x="738.5" y="1411.2164">- All streams closed</text><text fill="#000000" font-family="Verdana" font-size="13" lengthAdjust="spacing" textLength="155.7778" x="738.5" y="1427.0158">- Resources deallocated</text><text fill="#000000" font-family="Verdana" font-size="13" lengthAdjust="spacing" textLength="139.9912" x="738.5" y="1442.8151">- Session ID released</text><text fill="#000000" font-family="Verdana" font-size="13" lengthAdjust="spacing" textLength="101.2261" x="738.5" y="1458.6144">- Memory freed</text></g><g class="entity" data-entity="GMN20" data-source-line="43" data-uid="ent0021" id="entity_GMN20"><path d="M732,122.3473 L732,195.5446 A0,0 0 0 0 732,195.5446 L854.27,195.5446 L620.85,314.7873 L862.27,195.5446 L1126.2422,195.5446 A0,0 0 0 0 1126.2422,195.5446 L1126.2422,132.3473 L1116.2422,122.3473 L732,122.3473 A0,0 0 0 0 732,122.3473" fill="#FFFFFF" style="stroke:#000000;stroke-width:1;"/><path d="M1116.2422,122.3473 L1116.2422,132.3473 L1126.2422,132.3473 L1116.2422,122.3473" fill="#FFFFFF" style="stroke:#000000;stroke-width:1;"/><text fill="#000000" font-family="Verdana" font-size="13" font-weight="bold" lengthAdjust="spacing" textLength="180.1719" x="738" y="140.4171">Prerequisites Reference:</text><text fill="#000000" font-family="Verdana" font-size="13" lengthAdjust="spacing" textLength="19.5635" x="738" y="156.2164">&#226;&#8224;&#8217;</text><text fill="#000000" font-family="Verdana" font-size="13" font-weight="bold" lengthAdjust="spacing" textLength="151.8613" x="762.1338" y="156.2164">HTTP/3 Layer States</text><text fill="#000000" font-family="Verdana" font-size="13" lengthAdjust="spacing" textLength="136.9951" x="913.9951" y="156.2164">: Must be H3_READY</text><text fill="#000000" font-family="Verdana" font-size="13" lengthAdjust="spacing" textLength="19.5635" x="738" y="172.0158">&#226;&#8224;&#8217;</text><text fill="#000000" font-family="Verdana" font-size="13" font-weight="bold" lengthAdjust="spacing" textLength="174.7954" x="762.1338" y="172.0158">QUIC Connection States</text><text fill="#000000" font-family="Verdana" font-size="13" lengthAdjust="spacing" textLength="148.8398" x="936.9292" y="172.0158">: Must be CONNECTED</text><text fill="#000000" font-family="Verdana" font-size="13" lengthAdjust="spacing" textLength="19.5635" x="738" y="187.8151">&#226;&#8224;&#8217;</text><text fill="#000000" font-family="Verdana" font-size="13" font-weight="bold" lengthAdjust="spacing" textLength="145.7993" x="762.1338" y="187.8151">QUIC Stream States</text><text fill="#000000" font-family="Verdana" font-size="13" lengthAdjust="spacing" textLength="203.3091" x="907.9331" y="187.8151">: Bidirectional stream available</text></g><g class="entity" data-entity="GMN23" data-source-line="46" data-uid="ent0024" id="entity_GMN23"><path d="M732,930.3473 L732,1035.1432 L1018.2368,1035.1432 L1018.2368,940.3473 L1008.2368,930.3473 L732,930.3473" fill="#FFFFFF" style="stroke:#000000;stroke-width:1;"/><path d="M1008.2368,930.3473 L1008.2368,940.3473 L1018.2368,940.3473 L1008.2368,930.3473" fill="#FFFFFF" style="stroke:#000000;stroke-width:1;"/><text fill="#000000" font-family="Verdana" font-size="13" font-weight="bold" lengthAdjust="spacing" textLength="159.8403" x="738" y="948.4171">Session Management:</text><text fill="#000000" font-family="Verdana" font-size="13" lengthAdjust="spacing" textLength="265.2368" x="738" y="964.2164">- Multiple concurrent sessions supported</text><text fill="#000000" font-family="Verdana" font-size="13" lengthAdjust="spacing" textLength="177.3789" x="738" y="980.0158">- Session-level flow control</text><text fill="#000000" font-family="Verdana" font-size="13" lengthAdjust="spacing" textLength="192.4038" x="738" y="995.8151">- Stream association tracking</text><text fill="#000000" font-family="Verdana" font-size="13" lengthAdjust="spacing" textLength="126.5786" x="738" y="1011.6144">- Datagram routing</text><text fill="#000000" font-family="Verdana" font-size="13" lengthAdjust="spacing" textLength="125.9565" x="738" y="1027.4137">- Error propagation</text></g><g class="entity" data-entity="GMN26" data-source-line="49" data-uid="ent0027" id="entity_GMN26"><path d="M1161,106.3473 L1161,211.1432 L1428.5112,211.1432 L1428.5112,116.3473 L1418.5112,106.3473 L1161,106.3473" fill="#FFFFFF" style="stroke:#000000;stroke-width:1;"/><path d="M1418.5112,106.3473 L1418.5112,116.3473 L1428.5112,116.3473 L1418.5112,106.3473" fill="#FFFFFF" style="stroke:#000000;stroke-width:1;"/><text fill="#000000" font-family="Verdana" font-size="13" font-weight="bold" lengthAdjust="spacing" textLength="177.2075" x="1167" y="124.4171">WebTransport Features:</text><text fill="#000000" font-family="Verdana" font-size="13" lengthAdjust="spacing" textLength="151.3535" x="1167" y="140.2164">- RFC 9220 compliance</text><text fill="#000000" font-family="Verdana" font-size="13" lengthAdjust="spacing" textLength="246.5112" x="1167" y="156.0158">- HTTP/3 CONNECT-based handshake</text><text fill="#000000" font-family="Verdana" font-size="13" lengthAdjust="spacing" textLength="239.1353" x="1167" y="171.8151">- Stream and datagram multiplexing</text><text fill="#000000" font-family="Verdana" font-size="13" lengthAdjust="spacing" textLength="119.3169" x="1167" y="187.6144">- Session isolation</text><text fill="#000000" font-family="Verdana" font-size="13" lengthAdjust="spacing" textLength="147.3735" x="1167" y="203.4137">- Graceful degradation</text></g><g class="entity" data-entity="GMN29" data-source-line="52" data-uid="ent0030" id="entity_GMN29"><path d="M1059.5,486.3473 L1059.5,591.1432 L1304.3691,591.1432 L1304.3691,496.3473 L1294.3691,486.3473 L1059.5,486.3473" fill="#FFFFFF" style="stroke:#000000;stroke-width:1;"/><path d="M1294.3691,486.3473 L1294.3691,496.3473 L1304.3691,496.3473 L1294.3691,486.3473" fill="#FFFFFF" style="stroke:#000000;stroke-width:1;"/><text fill="#000000" font-family="Verdana" font-size="13" font-weight="bold" lengthAdjust="spacing" textLength="153.1182" x="1065.5" y="504.4171">CONNECT Validation:</text><text fill="#000000" font-family="Verdana" font-size="13" lengthAdjust="spacing" textLength="184.9009" x="1065.5" y="520.2164">- Method must be CONNECT</text><text fill="#000000" font-family="Verdana" font-size="13" lengthAdjust="spacing" textLength="223.8691" x="1065.5" y="536.0158">- Protocol must be "webtransport"</text><text fill="#000000" font-family="Verdana" font-size="13" lengthAdjust="spacing" textLength="170.0918" x="1065.5" y="551.8151">- Scheme must be "https"</text><text fill="#000000" font-family="Verdana" font-size="13" lengthAdjust="spacing" textLength="163.814" x="1065.5" y="567.6144">- Authority must be valid</text><text fill="#000000" font-family="Verdana" font-size="13" lengthAdjust="spacing" textLength="187.4971" x="1065.5" y="583.4137">- Path authorization checked</text></g><g class="entity" data-entity="GMN32" data-source-line="61" data-uid="ent0033" id="entity_GMN32"><path d="M1053,930.3473 L1053,1035.1432 L1382.5659,1035.1432 L1382.5659,940.3473 L1372.5659,930.3473 L1053,930.3473" fill="#FFFFFF" style="stroke:#000000;stroke-width:1;"/><path d="M1372.5659,930.3473 L1372.5659,940.3473 L1382.5659,940.3473 L1372.5659,930.3473" fill="#FFFFFF" style="stroke:#000000;stroke-width:1;"/><text fill="#000000" font-family="Verdana" font-size="13" font-weight="bold" lengthAdjust="spacing" textLength="171.4502" x="1059" y="948.4171">Connected Capabilities:</text><text fill="#000000" font-family="Verdana" font-size="13" lengthAdjust="spacing" textLength="277.0181" x="1059" y="964.2164">- WebTransport streams: Reliable delivery</text><text fill="#000000" font-family="Verdana" font-size="13" lengthAdjust="spacing" textLength="308.5659" x="1059" y="980.0158">- WebTransport datagrams: Unreliable delivery</text><text fill="#000000" font-family="Verdana" font-size="13" lengthAdjust="spacing" textLength="177.3789" x="1059" y="995.8151">- Session-level flow control</text><text fill="#000000" font-family="Verdana" font-size="13" lengthAdjust="spacing" textLength="200.4717" x="1059" y="1011.6144">- Stream priority management</text><text fill="#000000" font-family="Verdana" font-size="13" lengthAdjust="spacing" textLength="161.0337" x="1059" y="1027.4137">- Error code propagation</text></g><g class="entity" data-entity="GMN35" data-source-line="64" data-uid="ent0036" id="entity_GMN35"><path d="M11,288.3473 L11,393.1432 A0,0 0 0 0 11,393.1432 L253.57,393.1432 L510.92,512.8373 L261.57,393.1432 L285.0747,393.1432 A0,0 0 0 0 285.0747,393.1432 L285.0747,298.3473 L275.0747,288.3473 L11,288.3473 A0,0 0 0 0 11,288.3473" fill="#FFFFFF" style="stroke:#000000;stroke-width:1;"/><path d="M275.0747,288.3473 L275.0747,298.3473 L285.0747,298.3473 L275.0747,288.3473" fill="#FFFFFF" style="stroke:#000000;stroke-width:1;"/><text fill="#000000" font-family="Verdana" font-size="13" font-weight="bold" lengthAdjust="spacing" textLength="174.605" x="17" y="306.4171">Server-Side Processing:</text><text fill="#000000" font-family="Verdana" font-size="13" lengthAdjust="spacing" textLength="187.8525" x="17" y="322.2164">- CONNECT request received</text><text fill="#000000" font-family="Verdana" font-size="13" lengthAdjust="spacing" textLength="138.6772" x="17" y="338.0158">- Authority validation</text><text fill="#000000" font-family="Verdana" font-size="13" lengthAdjust="spacing" textLength="129.873" x="17" y="353.8151">- Path authorization</text><text fill="#000000" font-family="Verdana" font-size="13" lengthAdjust="spacing" textLength="186.4307" x="17" y="369.6144">- Resource availability check</text><text fill="#000000" font-family="Verdana" font-size="13" lengthAdjust="spacing" textLength="253.0747" x="17" y="385.4137">- Response preparation (200/4xx/5xx)</text></g><g class="entity" data-entity="GMN38" data-source-line="66" data-uid="ent0039" id="entity_GMN38"><path d="M732,1195.3473 L732,1300.1432 A0,0 0 0 0 732,1300.1432 L961.584,1300.1432 A0,0 0 0 0 961.584,1300.1432 L961.584,1205.3473 L951.584,1195.3473 L805.81,1195.3473 L639.05,1009.0673 L797.81,1195.3473 L732,1195.3473 A0,0 0 0 0 732,1195.3473" fill="#FFFFFF" style="stroke:#000000;stroke-width:1;"/><path d="M951.584,1195.3473 L951.584,1205.3473 L961.584,1205.3473 L951.584,1195.3473" fill="#FFFFFF" style="stroke:#000000;stroke-width:1;"/><text fill="#000000" font-family="Verdana" font-size="13" font-weight="bold" lengthAdjust="spacing" textLength="177.1123" x="738" y="1213.4171">Shutdown Coordination:</text><text fill="#000000" font-family="Verdana" font-size="13" lengthAdjust="spacing" textLength="208.584" x="738" y="1229.2164">- Application-initiated shutdown</text><text fill="#000000" font-family="Verdana" font-size="13" lengthAdjust="spacing" textLength="187.2114" x="738" y="1245.0158">- Connection-level shutdown</text><text fill="#000000" font-family="Verdana" font-size="13" lengthAdjust="spacing" textLength="185.9229" x="738" y="1260.8151">- Stream completion waiting</text><text fill="#000000" font-family="Verdana" font-size="13" lengthAdjust="spacing" textLength="162.7349" x="738" y="1276.6144">- Final acknowledgments</text><text fill="#000000" font-family="Verdana" font-size="13" lengthAdjust="spacing" textLength="125.2266" x="738" y="1292.4137">- Resource cleanup</text></g><!--link *start*WebTransport to WT_INITIALIZING--><g class="link" data-entity-1=".start.WebTransport" data-entity-2="WT_INITIALIZING" data-source-line="18" data-uid="lnk3" id="link_.start.WebTransport_WT_INITIALIZING"><path d="M571,169.0173 C571,195.7473 571,268.1973 571,308.8173" fill="none" id="*start*WebTransport-to-WT_INITIALIZING" style="stroke:#000000;stroke-width:1;"/><polygon fill="#000000" points="571,314.8173,575,305.8173,571,309.8173,567,305.8173,571,314.8173" style="stroke:#000000;stroke-width:1;"/><text fill="#000000" font-family="Verdana" font-size="13" lengthAdjust="spacing" textLength="103.27" x="572" y="255.4171">Session created</text></g><!--link WT_INITIALIZING to WT_CONNECTING--><g class="link" data-entity-1="WT_INITIALIZING" data-entity-2="WT_CONNECTING" data-source-line="19" data-uid="lnk4" id="link_WT_INITIALIZING_WT_CONNECTING"><path d="M496.7,362.7673 C466.8,375.2373 435.35,394.4473 418,423.3473 C394.29,462.8373 437.0839,491.624 484.3739,511.384" fill="none" id="WT_INITIALIZING-to-WT_CONNECTING" style="stroke:#000000;stroke-width:1;"/><polygon fill="#000000" points="489.91,513.6973,483.148,506.5367,485.2966,511.7696,480.0636,513.9182,489.91,513.6973" style="stroke:#000000;stroke-width:1;"/><text fill="#000000" font-family="Verdana" font-size="13" lengthAdjust="spacing" textLength="101.5942" x="419" y="437.4171">Send CONNECT</text><text fill="#000000" font-family="Verdana" font-size="13" lengthAdjust="spacing" textLength="49.1118" x="445.2412" y="453.2164">[Client]</text></g><!--link WT_INITIALIZING to WT_CONNECTING--><g class="link" data-entity-1="WT_INITIALIZING" data-entity-2="WT_CONNECTING" data-source-line="20" data-uid="lnk5" id="link_WT_INITIALIZING_WT_CONNECTING"><path d="M570.1,367.0673 C568.76,404.7073 566.4539,469.1511 565.1139,506.7211" fill="none" id="WT_INITIALIZING-to-WT_CONNECTING-1" style="stroke:#000000;stroke-width:1;"/><polygon fill="#000000" points="564.9,512.7173,569.2183,503.8656,565.0782,507.7205,561.2233,503.5804,564.9,512.7173" style="stroke:#000000;stroke-width:1;"/><text fill="#000000" font-family="Verdana" font-size="13" lengthAdjust="spacing" textLength="118.9424" x="568" y="437.4171">Receive CONNECT</text><text fill="#000000" font-family="Verdana" font-size="13" lengthAdjust="spacing" textLength="54.9707" x="599.9858" y="453.2164">[Server]</text></g><!--link WT_CONNECTING to WT_CONNECTED--><g class="link" data-entity-1="WT_CONNECTING" data-entity-2="WT_CONNECTED" data-source-line="21" data-uid="lnk6" id="link_WT_CONNECTING_WT_CONNECTED"><path d="M567.64,565.1073 C574.18,610.5273 587.0039,699.5387 593.5339,744.8387" fill="none" id="WT_CONNECTING-to-WT_CONNECTED" style="stroke:#000000;stroke-width:1;"/><polygon fill="#000000" points="594.39,750.7773,597.065,741.2987,593.6766,745.8285,589.1468,742.4401,594.39,750.7773" style="stroke:#000000;stroke-width:1;"/><text fill="#000000" font-family="Verdana" font-size="13" lengthAdjust="spacing" textLength="100.9722" x="586" y="635.4171">HTTP/3 200 OK</text><text fill="#000000" font-family="Verdana" font-size="13" lengthAdjust="spacing" textLength="49.1118" x="611.9302" y="651.2164">[Client]</text><text fill="#000000" font-family="Verdana" font-size="13" lengthAdjust="spacing" textLength="86.1313" x="593.4204" y="667.0158">Send 200 OK</text><text fill="#000000" font-family="Verdana" font-size="13" lengthAdjust="spacing" textLength="54.9707" x="609.0007" y="682.8151">[Server]</text></g><!--link WT_CONNECTING to WT_FAILED--><g class="link" data-entity-1="WT_CONNECTING" data-entity-2="WT_FAILED" data-source-line="22" data-uid="lnk7" id="link_WT_CONNECTING_WT_FAILED"><path d="M542.23,565.1773 C498.95,617.3973 403.32,742.6173 369,867.3473 C350.71,933.8073 264.81,763.8973 387,1165.3473 C393.18,1185.6573 401.8766,1201.3685 412.2066,1216.8285" fill="none" id="WT_CONNECTING-to-WT_FAILED" style="stroke:#000000;stroke-width:1;"/><polygon fill="#000000" points="415.54,1221.8173,413.8658,1212.1118,412.7622,1217.66,407.214,1216.5563,415.54,1221.8173" style="stroke:#000000;stroke-width:1;"/><text fill="#000000" font-family="Verdana" font-size="13" lengthAdjust="spacing" textLength="105.5742" x="372.2852" y="881.4171">HTTP/3 4xx/5xx</text><text fill="#000000" font-family="Verdana" font-size="13" lengthAdjust="spacing" textLength="110.1445" x="370" y="897.2164">Validation failure</text></g><!--link WT_CONNECTED to WT_CLOSING--><g class="link" data-entity-1="WT_CONNECTED" data-entity-2="WT_CLOSING" data-source-line="23" data-uid="lnk8" id="link_WT_CONNECTED_WT_CLOSING"><path d="M600.33,802.8573 C603.98,842.0173 610.4333,911.3732 614.0933,950.6532" fill="none" id="WT_CONNECTED-to-WT_CLOSING" style="stroke:#000000;stroke-width:1;"/><polygon fill="#000000" points="614.65,956.6273,617.7978,947.295,614.1861,951.6489,609.8323,948.0372,614.65,956.6273" style="stroke:#000000;stroke-width:1;"/><text fill="#000000" font-family="Verdana" font-size="13" lengthAdjust="spacing" textLength="117.6348" x="612.2883" y="881.4171">Session shutdown</text><text fill="#000000" font-family="Verdana" font-size="13" lengthAdjust="spacing" textLength="122.2114" x="610" y="897.2164">Connection closing</text></g><!--link WT_CLOSING to WT_CLOSED--><g class="link" data-entity-1="WT_CLOSING" data-entity-2="WT_CLOSED" data-source-line="24" data-uid="lnk9" id="link_WT_CLOSING_WT_CLOSED"><path d="M630.01,1009.0473 C647.01,1045.7573 671.56,1115.0573 644,1165.3473 C632.09,1187.0773 610.46,1174.5373 597,1195.3473 C575.84,1228.0773 568.0038,1337.975 565.3838,1389.655" fill="none" id="WT_CLOSING-to-WT_CLOSED" style="stroke:#000000;stroke-width:1;"/><polygon fill="#000000" points="565.08,1395.6473,569.5306,1386.8614,565.3332,1390.6537,561.5408,1386.4563,565.08,1395.6473" style="stroke:#000000;stroke-width:1;"/><text fill="#000000" font-family="Verdana" font-size="13" lengthAdjust="spacing" textLength="116.9048" x="598" y="1253.4171">Cleanup complete</text></g><!--link WT_FAILED to WT_CLOSED--><g class="link" data-entity-1="WT_FAILED" data-entity-2="WT_CLOSED" data-source-line="25" data-uid="lnk10" id="link_WT_FAILED_WT_CLOSED"><path d="M437.85,1274.2373 C442.02,1295.3573 450.31,1325.4073 466,1347.3473 C479.85,1366.7273 495.3444,1379.894 514.0144,1392.314" fill="none" id="WT_FAILED-to-WT_CLOSED" style="stroke:#000000;stroke-width:1;"/><polygon fill="#000000" points="519.01,1395.6373,513.7321,1387.322,514.847,1392.8679,509.3011,1393.9828,519.01,1395.6373" style="stroke:#000000;stroke-width:1;"/><text fill="#000000" font-family="Verdana" font-size="13" lengthAdjust="spacing" textLength="89.0957" x="467" y="1344.4171">Error handled</text></g><!--link WT_CLOSED to *end*WebTransport--><g class="link" data-entity-1="WT_CLOSED" data-entity-2=".end.WebTransport" data-source-line="26" data-uid="lnk12" id="link_WT_CLOSED_.end.WebTransport"><path d="M563.81,1448.0073 C563.59,1476.8973 563.2744,1516.8975 563.1244,1537.1775" fill="none" id="WT_CLOSED-to-*end*WebTransport" style="stroke:#000000;stroke-width:1;"/><polygon fill="#000000" points="563.08,1543.1773,567.1465,1534.2071,563.117,1538.1774,559.1467,1534.148,563.08,1543.1773" style="stroke:#000000;stroke-width:1;"/><text fill="#000000" font-family="Verdana" font-size="13" lengthAdjust="spacing" textLength="119.1455" x="564" y="1510.4171">Session destroyed</text></g><!--link WT_CONNECTED to WT_FAILED--><g class="link" data-entity-1="WT_CONNECTED" data-entity-2="WT_FAILED" data-source-line="55" data-uid="lnk13" id="link_WT_CONNECTED_WT_FAILED"><path d="M579.8,803.3273 C559.81,829.9973 525.64,871.8773 489,900.3473 C466.08,918.1573 448.04,906.8573 431,930.3473 C366.15,1019.7573 403.057,1158.1972 422.727,1215.9972" fill="none" id="WT_CONNECTED-to-WT_FAILED" style="stroke:#000000;stroke-width:1;"/><polygon fill="#000000" points="424.66,1221.6773,425.5472,1211.8685,423.0492,1216.9439,417.9738,1214.4458,424.66,1221.6773" style="stroke:#000000;stroke-width:1;"/><text fill="#000000" font-family="Verdana" font-size="13" lengthAdjust="spacing" textLength="86.709" x="438.7095" y="980.4171">Session error</text><text fill="#000000" font-family="Verdana" font-size="13" lengthAdjust="spacing" textLength="100.1279" x="432" y="996.2164">Stream failures</text></g><!--link WT_CLOSING to WT_FAILED--><g class="link" data-entity-1="WT_CLOSING" data-entity-2="WT_FAILED" data-source-line="56" data-uid="lnk14" id="link_WT_CLOSING_WT_FAILED"><path d="M574.17,1009.0873 C558.36,1017.9273 540.11,1027.5773 523,1035.3473 C487.66,1051.3873 463.84,1033.9773 441,1065.3473 C407.22,1111.7473 416.5387,1178.0708 425.5587,1215.9108" fill="none" id="WT_CLOSING-to-WT_FAILED" style="stroke:#000000;stroke-width:1;"/><polygon fill="#000000" points="426.95,1221.7473,428.7541,1212.0651,425.7906,1216.8836,420.9721,1213.9201,426.95,1221.7473" style="stroke:#000000;stroke-width:1;"/><text fill="#000000" font-family="Verdana" font-size="13" lengthAdjust="spacing" textLength="123.5635" x="478.9421" y="1079.4171">Forced termination</text><text fill="#000000" font-family="Verdana" font-size="13" lengthAdjust="spacing" textLength="53.2061" x="514.1208" y="1095.2164">Timeout</text><path d="M446,1103.9459 L446,1160.9459 L635,1160.9459 L635,1113.9459 L625,1103.9459 L446,1103.9459" fill="#FFFFFF" style="stroke:#000000;stroke-width:1;"/><path d="M625,1103.9459 L625,1113.9459 L635,1113.9459 L625,1103.9459" fill="#FFFFFF" style="stroke:#000000;stroke-width:1;"/><text fill="#000000" font-family="Verdana" font-size="13" font-weight="bold" lengthAdjust="spacing" textLength="128.5527" x="452" y="1122.0158">Error Transitions:</text><text fill="#000000" font-family="Verdana" font-size="13" lengthAdjust="spacing" textLength="147.7607" x="452" y="1137.8151">Unexpected errors can</text><text fill="#000000" font-family="Verdana" font-size="13" lengthAdjust="spacing" textLength="168.4478" x="452" y="1153.6144">transition to FAILED state</text></g><!--link GMN11 to WT_CLOSING--><g class="link" data-entity-1="GMN11" data-entity-2="WT_CLOSING" data-source-line="36" data-uid="lnk13" id="link_GMN11_WT_CLOSING"><path d="M1501.92,938.2473 C1468.43,917.2873 1425.58,894.5773 1383.5,883.8473 C1243.32,848.0973 868.18,833.6573 732.5,883.8473 C693.36,898.3273 658.54,932.6473 637.61,956.7973" fill="none" id="GMN11-WT_CLOSING" style="stroke:#000000;stroke-width:1;stroke-dasharray:7,7;"/></g><!--link GMN14 to WT_FAILED--><g class="link" data-entity-1="GMN14" data-entity-2="WT_FAILED" data-source-line="38" data-uid="lnk16" id="link_GMN14_WT_FAILED"><path d="M1062.84,1195.1973 C1038.01,1165.6373 1002.8,1131.5173 962.5,1115.3473 C788.44,1045.4973 709.64,1034.2973 540.5,1115.3473 C494.59,1137.3473 462.19,1189.8573 445.95,1221.7773" fill="none" id="GMN14-WT_FAILED" style="stroke:#000000;stroke-width:1;stroke-dasharray:7,7;"/></g><!--link WT_CONNECTED to GMN23--><g class="link" data-entity-1="WT_CONNECTED" data-entity-2="GMN23" data-source-line="46" data-uid="lnk25" id="link_WT_CONNECTED_GMN23"><path d="M641.64,802.8673 C670.54,819.9973 708.89,843.7773 741,867.3473 C767.4,886.7173 795.14,909.8973 818.48,930.3273" fill="none" id="WT_CONNECTED-GMN23" style="stroke:#000000;stroke-width:1;stroke-dasharray:7,7;"/></g><!--link WebTransport to GMN26--><g class="link" data-entity-1="WebTransport" data-entity-2="GMN26" data-source-line="49" data-uid="lnk28" id="link_WebTransport_GMN26"><path d="M318.9998,104.8253 C319.0287,104.7114 319.058,104.5976 319.0874,104.4839 C319.5582,102.6641 320.0854,100.8603 320.6747,99.084 C321.8533,95.5314 323.28,92.0886 325,88.8473 C329.8,79.7973 332.89,77.3973 342.5,73.8473 C383.35,58.7373 1084.13,63.7673 1126.5,73.8473 C1154.87,80.5973 1183.88,92.9273 1209.65,106.1373" fill="none" id="WebTransport-GMN26" style="stroke:#000000;stroke-width:1;stroke-dasharray:7,7;"/></g><!--link GMN29 to WT_CONNECTING--><g class="link" data-entity-1="GMN29" data-entity-2="WT_CONNECTING" data-source-line="52" data-uid="lnk31" id="link_GMN29_WT_CONNECTING"><path d="M1116.65,486.2173 C1089.74,467.7573 1057.24,449.2873 1024.5,439.8473 C899.8,403.9073 857.73,405.7773 732.5,439.8473 C680.77,453.9173 628.71,488.3273 596.43,512.6173" fill="none" id="GMN29-WT_CONNECTING" style="stroke:#000000;stroke-width:1;stroke-dasharray:7,7;"/></g><!--link WT_CONNECTED to GMN32--><g class="link" data-entity-1="WT_CONNECTED" data-entity-2="GMN32" data-source-line="61" data-uid="lnk34" id="link_WT_CONNECTED_GMN32"><path d="M642.36,802.9273 C663.85,814.4273 690.3,827.6173 715,837.3473 C723.27,840.6073 909.41,893.8773 1052.86,934.8073" fill="none" id="WT_CONNECTED-GMN32" style="stroke:#000000;stroke-width:1;stroke-dasharray:7,7;"/></g><!--SRC=[ZLVDRXit4BxhALXVqWeG72JjeJeKK6Gf4Ug_Iag3DWuCQdSaiQR8BScrf1O5yXgz5NsLlacUfCDVSLSoafkzd1aEPxxlcz5NPWqR81MdJ7Jq0nCLLNH3jA46o9yTGbxHuc6bP2tAeUHI4SvMQxC7pkNMdafLWl8d2uwc-6sWbDpcd_xgT0mp7CWxMCmL5RgIof0PQCsa83DtbVlE37xGdOw__UnfStr6g6w6ixbwltVp-ydrP3uPN4v-dLo_9ltaMoX0WpAt7DvSNu-6SsyN_Y4QX3bXDBh8OW6UBZZJwrQyovjPk7HTcr9k1M42ttLqBzeruXbG6oRQPkF1vDAP3QKGKDZwa2Lb7AtGx7tt0-drVlYY5xTjWb_Z_JCGPIp2dNW_v0mByU4BdQTG07k4p7y6wX5KyCziczxkUM_cyzlpb-J5y-VaviV3rNV2fPG-VoPYgbO8z-rkT_xTRdSdVgQSbJHLhrRG284-CQT3-q85TMZZdSXQK72fcLY58C4d2-5Rne6AkYA5t5GSJBWovDWs7Y5f55bJKVBOhd1cBMsZ3ocLY3qbzsY7p7hMf87sDZrTGS6Mh21K26ce9nR-1KHP0XEvF86QRZTUCN6OvUmFvzdlTkz4Bzql5xzX7IAsxCcWDckfcDdZTIMfg5cJHrzoVnw9fU3t6fCdbGBK6N-MhhmW55MbS7WzJhM1jMutHhnLii008SCtey75Q3eZIzGm85k6UKJ33M2Axi9-fQIHXUHzieM5IQLR0qKjSnOqlgVl7jItB-e70-sJja2CZxJfCu6laYk5oJoTlMir9k-H16KGlo6jw89nB3dub_ptxwUF_tpw-3VQJc492aG1VVBJsyaGFR3ico23_jL3rmYoO2LJ7g2KeuHOEvsTr-8f0qkoSnNuY- -XAnLF_6sRcXk68DuXw0d528zWJySu113U0j78YQn0KHyx5833Chq_yQhRVQre0SkQ9uKCpNDultytUZMV3gvdjpVJ-VriD9jDRgwT85kJqOvfOtC8oKTkuITxV15I9wwf6nOOR6HL1OifQ5ch0f31dfmBM34XB9UFSavgqksElMXO5Ixza8evju2ju3VNs4WAp9iL3U7H6Lyykv3FWdcNsu1CWhblg2dMaAEj5lGHW-3OWTCL3jb6HWK12gaEE3-K3VNBtnWBeZ6BHByMBHLWe61_1HkfzaWmi2nzXjYIMlSutMD-9LG89CGgmjZdXvL_Icbk5TYYCHpwUFa1vItu1oM_T1T4qFV9LOt5NW1vy_9-Yfp_fU7ZU9AfzR5RekEnNujVVVBg16j8reXdgLGRAkWAjobXi1G63K8L5j8OkJcf1D7rAhc6Rbq5nbbw5RLIDcZGTarqNLd5QZIgn-4HE5bcbCm8JBMM1VDmGt8K3st6u8ONMUH74OfPHLVEmxun8lCmM9OeAXRFRR7Bfv5zOkF3E3Y5Lqx7G_BzYnVFFOyPHG0u6VTD3wNgBIput6pKQ_e0-RDGdADUDKGgHp3Jahjts8z9V4f0fpAzhqtaWx8VC-tq93hi6B65Rk9WMWtCDMaUpixoGNJcaY_SNfuCriPK-gmvQ-EXozN5jOENDhG5mnGFdghPYk5a76k7k9QeBFlEgLqewLzQUMq0NCbyxQEUTOvNeEGvbYWjPTfjNG_cR0C8jg1W61QpUN2Lz0bclmHS8TyAs5L-Mhe4KBqeXZ7935M6X1lTtfnJiiWcgntHHPgytlHp_3nCwgCPtMijNbvQxHwCG4PbG8HnPejxP9ecR9-y5UgK-HTnkb8iu229nu6-XIoXpU51wOUNap6x4J2nb6gJeVoWrosG-mdKcp6C6bOknD2JGz1j4gtDyC2eqr1jZEUWhxRUUu_XS5mXB23iZnxXN-ElW_EmwN_JETNHRFT8Fyg64d-v1ap60LcX1FbXtKk_sRBzlvVDbD2P_31q9MuacDcMigYfOsQhZhehv1ON_9LjbZwra7J-1m00]--></g></svg>