<svg xmlns="http://www.w3.org/2000/svg" xmlns:xlink="http://www.w3.org/1999/xlink" contentStyleType="text/css" data-diagram-type="STATE" height="1201px" preserveAspectRatio="none" style="width:1587px;height:1201px;background:#FFFFFF;" version="1.1" viewBox="0 0 1587 1201" width="1587px" zoomAndPan="magnify"><title>QUIC Stream State Transitions</title><defs/><g><g class="title" data-source-line="8"><text fill="#000000" font-family="Verdana" font-size="22" font-weight="bold" lengthAdjust="spacing" textLength="379.4463" x="599.4028" y="37.1182">QUIC Stream State Transitions</text></g><!--cluster QUICStream--><g class="cluster" data-entity="QUICStream" data-source-line="10" data-uid="ent0002" id="cluster_QUICStream"><path d="M24.5,109.1073 L661.5,109.1073 A12.5,12.5 0 0 1 674,121.6073 L674,131.122 L12,131.122 L12,121.6073 A12.5,12.5 0 0 1 24.5,109.1073" fill="#90EE90"/><path d="M12,131.122 L674,131.122 L674,1175.1073 A12.5,12.5 0 0 1 661.5,1187.6073 L24.5,1187.6073 A12.5,12.5 0 0 1 12,1175.1073 L12,131.122" fill="#FFFFFF"/><rect fill="none" height="1078.5" rx="12.5" ry="12.5" style="stroke:#000000;stroke-width:1;" width="662" x="12" y="109.1073"/><line style="stroke:#000000;stroke-width:1;" x1="12" x2="674" y1="131.122" y2="131.122"/><text fill="#000000" font-family="Verdana" font-size="14" lengthAdjust="spacing" textLength="142.8506" x="271.5747" y="127.1825">QUIC Stream States</text></g><g id="QUICStream.STREAM_IDLE"><rect fill="#90EE90" height="51.5986" rx="12.5" ry="12.5" style="stroke:#000000;stroke-width:1;" width="120.3789" x="424" y="295.1073"/><line style="stroke:#000000;stroke-width:1;" x1="424" x2="544.3789" y1="322.122" y2="322.122"/><text fill="#000000" font-family="Verdana" font-size="14" lengthAdjust="spacing" textLength="100.3789" x="434" y="314.1825">STREAM_IDLE</text><text fill="#000000" font-family="Verdana" font-size="12" lengthAdjust="spacing" textLength="93.3809" x="429" y="339.1864">Stream created</text></g><g id="QUICStream.STREAM_OPEN"><rect fill="#90EE90" height="51.5986" rx="12.5" ry="12.5" style="stroke:#000000;stroke-width:1;" width="134.4043" x="493" y="474.6073"/><line style="stroke:#000000;stroke-width:1;" x1="493" x2="627.4043" y1="501.622" y2="501.622"/><text fill="#000000" font-family="Verdana" font-size="14" lengthAdjust="spacing" textLength="105.8408" x="507.2817" y="493.6825">STREAM_OPEN</text><text fill="#000000" font-family="Verdana" font-size="12" lengthAdjust="spacing" textLength="114.4043" x="498" y="518.6864">Active bidirectional</text></g><g id="QUICStream.HALF_CLOSED_LOCAL"><rect fill="#90EE90" height="51.5986" rx="12.5" ry="12.5" style="stroke:#000000;stroke-width:1;" width="177.4795" x="86.5" y="662.1073"/><line style="stroke:#000000;stroke-width:1;" x1="86.5" x2="263.9795" y1="689.122" y2="689.122"/><text fill="#000000" font-family="Verdana" font-size="14" lengthAdjust="spacing" textLength="157.4795" x="96.5" y="681.1825">HALF_CLOSED_LOCAL</text><text fill="#000000" font-family="Verdana" font-size="12" lengthAdjust="spacing" textLength="105.3281" x="91.5" y="706.1864">Local send closed</text></g><g id="QUICStream.HALF_CLOSED_REMOTE"><rect fill="#90EE90" height="51.5986" rx="12.5" ry="12.5" style="stroke:#000000;stroke-width:1;" width="190.4131" x="299" y="662.1073"/><line style="stroke:#000000;stroke-width:1;" x1="299" x2="489.4131" y1="689.122" y2="689.122"/><text fill="#000000" font-family="Verdana" font-size="14" lengthAdjust="spacing" textLength="170.4131" x="309" y="681.1825">HALF_CLOSED_REMOTE</text><text fill="#000000" font-family="Verdana" font-size="12" lengthAdjust="spacing" textLength="120.9375" x="304" y="706.1864">Remote send closed</text></g><g id="QUICStream.STREAM_CLOSED"><rect fill="#90EE90" height="51.5986" rx="12.5" ry="12.5" style="stroke:#000000;stroke-width:1;" width="144.8516" x="362.5" y="994.1073"/><line style="stroke:#000000;stroke-width:1;" x1="362.5" x2="507.3516" y1="1021.122" y2="1021.122"/><text fill="#000000" font-family="Verdana" font-size="14" lengthAdjust="spacing" textLength="124.8516" x="372.5" y="1013.1825">STREAM_CLOSED</text><text fill="#000000" font-family="Verdana" font-size="12" lengthAdjust="spacing" textLength="114.416" x="367.5" y="1038.1864">Stream terminated</text></g><g id="QUICStream.STREAM_ERROR"><rect fill="#90EE90" height="51.5986" rx="12.5" ry="12.5" style="stroke:#000000;stroke-width:1;" width="136.1289" x="514" y="828.1073"/><line style="stroke:#000000;stroke-width:1;" x1="514" x2="650.1289" y1="855.122" y2="855.122"/><text fill="#000000" font-family="Verdana" font-size="14" lengthAdjust="spacing" textLength="116.1289" x="524" y="847.1825">STREAM_ERROR</text><text fill="#000000" font-family="Verdana" font-size="12" lengthAdjust="spacing" textLength="78.0938" x="519" y="872.1864">Stream error</text></g><ellipse cx="484" cy="163.1073" fill="#FFFFFF" rx="10" ry="10" style="stroke:#000000;stroke-width:1;"/><ellipse cx="435" cy="1152.6073" fill="none" rx="11" ry="11" style="stroke:#000000;stroke-width:1;"/><ellipse cx="435" cy="1152.6073" fill="#FFFFFF" rx="6" ry="6" style="stroke:#000000;stroke-width:1;"/><g class="entity" data-entity="GMN2" data-source-line="32" data-uid="ent0003" id="entity_GMN2"><path d="M698.5,456.1073 L698.5,496.6073 L627.12,500.6073 L698.5,504.6073 L698.5,545.1039 A0,0 0 0 0 698.5,545.1039 L895.0444,545.1039 A0,0 0 0 0 895.0444,545.1039 L895.0444,466.1073 L885.0444,456.1073 L698.5,456.1073 A0,0 0 0 0 698.5,456.1073" fill="#FFFFFF" style="stroke:#000000;stroke-width:1;"/><path d="M885.0444,456.1073 L885.0444,466.1073 L895.0444,466.1073 L885.0444,456.1073" fill="#FFFFFF" style="stroke:#000000;stroke-width:1;"/><text fill="#000000" font-family="Verdana" font-size="13" font-weight="bold" lengthAdjust="spacing" textLength="175.5444" x="704.5" y="474.1771">Open State Capabilities:</text><text fill="#000000" font-family="Verdana" font-size="13" lengthAdjust="spacing" textLength="155.5112" x="704.5" y="489.9764">- Bidirectional data flow</text><text fill="#000000" font-family="Verdana" font-size="13" lengthAdjust="spacing" textLength="166.7974" x="704.5" y="505.7758">- Send and receive active</text><text fill="#000000" font-family="Verdana" font-size="13" lengthAdjust="spacing" textLength="150.7949" x="704.5" y="521.5751">- Flow control enforced</text><text fill="#000000" font-family="Verdana" font-size="13" lengthAdjust="spacing" textLength="169.0317" x="704.5" y="537.3744">- Frame processing active</text></g><g class="entity" data-entity="GMN5" data-source-line="34" data-uid="ent0006" id="entity_GMN5"><path d="M698.5,643.6073 L698.5,732.6039 L905.188,732.6039 L905.188,653.6073 L895.188,643.6073 L698.5,643.6073" fill="#FFFFFF" style="stroke:#000000;stroke-width:1;"/><path d="M895.188,643.6073 L895.188,653.6073 L905.188,653.6073 L895.188,643.6073" fill="#FFFFFF" style="stroke:#000000;stroke-width:1;"/><text fill="#000000" font-family="Verdana" font-size="13" font-weight="bold" lengthAdjust="spacing" textLength="131.6123" x="704.5" y="661.6771">Half-Closed Local:</text><text fill="#000000" font-family="Verdana" font-size="13" lengthAdjust="spacing" textLength="185.688" x="704.5" y="677.4764">- Local send direction closed</text><text fill="#000000" font-family="Verdana" font-size="13" lengthAdjust="spacing" textLength="184.0249" x="704.5" y="693.2758">- Remote can still send data</text><text fill="#000000" font-family="Verdana" font-size="13" lengthAdjust="spacing" textLength="108.4624" x="704.5" y="709.0751">- FIN frame sent</text><text fill="#000000" font-family="Verdana" font-size="13" lengthAdjust="spacing" textLength="151.1885" x="704.5" y="724.8744">- Awaiting peer closure</text></g><g class="entity" data-entity="GMN8" data-source-line="36" data-uid="ent0009" id="entity_GMN8"><path d="M941,643.6073 L941,732.6039 L1164.5981,732.6039 L1164.5981,653.6073 L1154.5981,643.6073 L941,643.6073" fill="#FFFFFF" style="stroke:#000000;stroke-width:1;"/><path d="M1154.5981,643.6073 L1154.5981,653.6073 L1164.5981,653.6073 L1154.5981,643.6073" fill="#FFFFFF" style="stroke:#000000;stroke-width:1;"/><text fill="#000000" font-family="Verdana" font-size="13" font-weight="bold" lengthAdjust="spacing" textLength="149.665" x="947" y="661.6771">Half-Closed Remote:</text><text fill="#000000" font-family="Verdana" font-size="13" lengthAdjust="spacing" textLength="202.5981" x="947" y="677.4764">- Remote send direction closed</text><text fill="#000000" font-family="Verdana" font-size="13" lengthAdjust="spacing" textLength="167.1147" x="947" y="693.2758">- Local can still send data</text><text fill="#000000" font-family="Verdana" font-size="13" lengthAdjust="spacing" textLength="135.5098" x="947" y="709.0751">- FIN frame received</text><text fill="#000000" font-family="Verdana" font-size="13" lengthAdjust="spacing" textLength="169.3301" x="947" y="724.8744">- Can complete local send</text></g><g class="entity" data-entity="GMN11" data-source-line="38" data-uid="ent0012" id="entity_GMN11"><path d="M698,809.6073 L698,850.1073 L650.13,854.1073 L698,858.1073 L698,898.6039 A0,0 0 0 0 698,898.6039 L894.3159,898.6039 A0,0 0 0 0 894.3159,898.6039 L894.3159,819.6073 L884.3159,809.6073 L698,809.6073 A0,0 0 0 0 698,809.6073" fill="#FFFFFF" style="stroke:#000000;stroke-width:1;"/><path d="M884.3159,809.6073 L884.3159,819.6073 L894.3159,819.6073 L884.3159,809.6073" fill="#FFFFFF" style="stroke:#000000;stroke-width:1;"/><text fill="#000000" font-family="Verdana" font-size="13" font-weight="bold" lengthAdjust="spacing" textLength="124.2554" x="704" y="827.6771">Error Conditions:</text><text fill="#000000" font-family="Verdana" font-size="13" lengthAdjust="spacing" textLength="174.5986" x="704" y="843.4764">- RESET_STREAM received</text><text fill="#000000" font-family="Verdana" font-size="13" lengthAdjust="spacing" textLength="175.3159" x="704" y="859.2758">- STOP_SENDING received</text><text fill="#000000" font-family="Verdana" font-size="13" lengthAdjust="spacing" textLength="129.6699" x="704" y="875.0751">- Protocol violations</text><text fill="#000000" font-family="Verdana" font-size="13" lengthAdjust="spacing" textLength="156.3047" x="704" y="890.8744">- Flow control violations</text></g><g class="entity" data-entity="GMN14" data-source-line="40" data-uid="ent0015" id="entity_GMN14"><path d="M698.5,975.6073 L698.5,1016.1073 L507.7,1020.1073 L698.5,1024.1073 L698.5,1064.6039 A0,0 0 0 0 698.5,1064.6039 L923.2026,1064.6039 A0,0 0 0 0 923.2026,1064.6039 L923.2026,985.6073 L913.2026,975.6073 L698.5,975.6073 A0,0 0 0 0 698.5,975.6073" fill="#FFFFFF" style="stroke:#000000;stroke-width:1;"/><path d="M913.2026,975.6073 L913.2026,985.6073 L923.2026,985.6073 L913.2026,975.6073" fill="#FFFFFF" style="stroke:#000000;stroke-width:1;"/><text fill="#000000" font-family="Verdana" font-size="13" font-weight="bold" lengthAdjust="spacing" textLength="96.2813" x="704.5" y="993.6771">Closed State:</text><text fill="#000000" font-family="Verdana" font-size="13" lengthAdjust="spacing" textLength="153.9243" x="704.5" y="1009.4764">- Both directions closed</text><text fill="#000000" font-family="Verdana" font-size="13" lengthAdjust="spacing" textLength="148.9858" x="704.5" y="1025.2758">- No data transmission</text><text fill="#000000" font-family="Verdana" font-size="13" lengthAdjust="spacing" textLength="163.0522" x="704.5" y="1041.0751">- Resources can be freed</text><text fill="#000000" font-family="Verdana" font-size="13" lengthAdjust="spacing" textLength="203.7026" x="704.5" y="1056.8744">- Stream ID available for reuse</text></g><g class="entity" data-entity="GMN17" data-source-line="43" data-uid="ent0018" id="entity_GMN17"><path d="M698,134.6073 L698,192.0053 A0,0 0 0 0 698,192.0053 L801.17,192.0053 L544.15,296.0473 L809.17,192.0053 L1050.0493,192.0053 A0,0 0 0 0 1050.0493,192.0053 L1050.0493,144.6073 L1040.0493,134.6073 L698,134.6073 A0,0 0 0 0 698,134.6073" fill="#FFFFFF" style="stroke:#000000;stroke-width:1;"/><path d="M1040.0493,134.6073 L1040.0493,144.6073 L1050.0493,144.6073 L1040.0493,134.6073" fill="#FFFFFF" style="stroke:#000000;stroke-width:1;"/><text fill="#000000" font-family="Verdana" font-size="13" font-weight="bold" lengthAdjust="spacing" textLength="171.3042" x="704" y="152.6771">Stream Creation Types:</text><text fill="#000000" font-family="Verdana" font-size="13" lengthAdjust="spacing" textLength="305.6904" x="704" y="168.4764">- Bidirectional (client: 0,4,8... server: 1,5,9...)</text><text fill="#000000" font-family="Verdana" font-size="13" lengthAdjust="spacing" textLength="331.0493" x="704" y="184.2758">- Unidirectional (client: 2,6,10... server: 3,7,11...)</text></g><g class="entity" data-entity="GMN20" data-source-line="46" data-uid="ent0021" id="entity_GMN20"><path d="M1200,651.6073 L1200,724.8046 L1580.252,724.8046 L1580.252,661.6073 L1570.252,651.6073 L1200,651.6073" fill="#FFFFFF" style="stroke:#000000;stroke-width:1;"/><path d="M1570.252,651.6073 L1570.252,661.6073 L1580.252,661.6073 L1570.252,651.6073" fill="#FFFFFF" style="stroke:#000000;stroke-width:1;"/><text fill="#000000" font-family="Verdana" font-size="13" font-weight="bold" lengthAdjust="spacing" textLength="192.7593" x="1206" y="669.6771">Stream Usage References:</text><text fill="#000000" font-family="Verdana" font-size="13" lengthAdjust="spacing" textLength="19.5635" x="1206" y="685.4764">&#226;&#8224;&#8217;</text><text fill="#000000" font-family="Verdana" font-size="13" font-weight="bold" lengthAdjust="spacing" textLength="101.3086" x="1230.1338" y="685.4764">HTTP/3 Layer</text><text fill="#000000" font-family="Verdana" font-size="13" lengthAdjust="spacing" textLength="233.8096" x="1331.4424" y="685.4764">: Control streams, Request streams</text><text fill="#000000" font-family="Verdana" font-size="13" lengthAdjust="spacing" textLength="19.5635" x="1206" y="701.2758">&#226;&#8224;&#8217;</text><text fill="#000000" font-family="Verdana" font-size="13" font-weight="bold" lengthAdjust="spacing" textLength="103.7715" x="1230.1338" y="701.2758">WebTransport</text><text fill="#000000" font-family="Verdana" font-size="13" lengthAdjust="spacing" textLength="214.354" x="1333.9053" y="701.2758">: Session streams, Data streams</text><text fill="#000000" font-family="Verdana" font-size="13" lengthAdjust="spacing" textLength="19.5635" x="1206" y="717.0751">&#226;&#8224;&#8217;</text><text fill="#000000" font-family="Verdana" font-size="13" font-weight="bold" lengthAdjust="spacing" textLength="81.688" x="1230.1338" y="717.0751">Connection</text><text fill="#000000" font-family="Verdana" font-size="13" lengthAdjust="spacing" textLength="142.9238" x="1311.8218" y="717.0751">: Stream multiplexing</text></g><g class="entity" data-entity="GMN23" data-source-line="49" data-uid="ent0024" id="entity_GMN23"><path d="M1085.5,118.6073 L1085.5,207.6039 L1306.7622,207.6039 L1306.7622,128.6073 L1296.7622,118.6073 L1085.5,118.6073" fill="#FFFFFF" style="stroke:#000000;stroke-width:1;"/><path d="M1296.7622,118.6073 L1296.7622,128.6073 L1306.7622,128.6073 L1296.7622,118.6073" fill="#FFFFFF" style="stroke:#000000;stroke-width:1;"/><text fill="#000000" font-family="Verdana" font-size="13" font-weight="bold" lengthAdjust="spacing" textLength="165.7817" x="1091.5" y="136.6771">Flow Control Features:</text><text fill="#000000" font-family="Verdana" font-size="13" lengthAdjust="spacing" textLength="175.2715" x="1091.5" y="152.4764">- Stream-level flow control</text><text fill="#000000" font-family="Verdana" font-size="13" lengthAdjust="spacing" textLength="200.2622" x="1091.5" y="168.2758">- Connection-level flow control</text><text fill="#000000" font-family="Verdana" font-size="13" lengthAdjust="spacing" textLength="195.2095" x="1091.5" y="184.0751">- MAX_STREAM_DATA frames</text><text fill="#000000" font-family="Verdana" font-size="13" lengthAdjust="spacing" textLength="190.29" x="1091.5" y="199.8744">- Stream credit management</text></g><g class="entity" data-entity="GMN26" data-source-line="52" data-uid="ent0027" id="entity_GMN26"><path d="M698.5,284.6073 L698.5,317.1073 L544.05,321.1073 L698.5,325.1073 L698.5,357.8046 A0,0 0 0 0 698.5,357.8046 L1001.666,357.8046 A0,0 0 0 0 1001.666,357.8046 L1001.666,294.6073 L991.666,284.6073 L698.5,284.6073 A0,0 0 0 0 698.5,284.6073" fill="#FFFFFF" style="stroke:#000000;stroke-width:1;"/><path d="M991.666,284.6073 L991.666,294.6073 L1001.666,294.6073 L991.666,284.6073" fill="#FFFFFF" style="stroke:#000000;stroke-width:1;"/><text fill="#000000" font-family="Verdana" font-size="13" font-weight="bold" lengthAdjust="spacing" textLength="178.7119" x="704.5" y="302.6771">Idle State Prerequisites:</text><text fill="#000000" font-family="Verdana" font-size="13" lengthAdjust="spacing" textLength="19.5635" x="704.5" y="318.4764">&#226;&#8224;&#8217;</text><text fill="#000000" font-family="Verdana" font-size="13" font-weight="bold" lengthAdjust="spacing" textLength="258.0322" x="728.6338" y="318.4764">Reference: QUIC Connection States</text><text fill="#000000" font-family="Verdana" font-size="13" lengthAdjust="spacing" textLength="217.3691" x="704.5" y="334.2758">Connection must be CONNECTED</text><text fill="#000000" font-family="Verdana" font-size="13" lengthAdjust="spacing" textLength="149.0557" x="704.5" y="350.0751">before stream creation</text></g><g class="entity" data-entity="GMN29" data-source-line="61" data-uid="ent0030" id="entity_GMN29"><path d="M959,975.6073 L959,1064.6039 L1141.0337,1064.6039 L1141.0337,985.6073 L1131.0337,975.6073 L959,975.6073" fill="#FFFFFF" style="stroke:#000000;stroke-width:1;"/><path d="M1131.0337,975.6073 L1131.0337,985.6073 L1141.0337,985.6073 L1131.0337,975.6073" fill="#FFFFFF" style="stroke:#000000;stroke-width:1;"/><text fill="#000000" font-family="Verdana" font-size="13" font-weight="bold" lengthAdjust="spacing" textLength="114.2451" x="965" y="993.6771">Error Recovery:</text><text fill="#000000" font-family="Verdana" font-size="13" lengthAdjust="spacing" textLength="158.9834" x="965" y="1009.4764">- Application notification</text><text fill="#000000" font-family="Verdana" font-size="13" lengthAdjust="spacing" textLength="125.2266" x="965" y="1025.2758">- Resource cleanup</text><text fill="#000000" font-family="Verdana" font-size="13" lengthAdjust="spacing" textLength="161.0337" x="965" y="1041.0751">- Error code propagation</text><text fill="#000000" font-family="Verdana" font-size="13" lengthAdjust="spacing" textLength="156.1206" x="965" y="1056.8744">- Stream reset handling</text></g><!--link *start*QUICStream to STREAM_IDLE--><g class="link" data-entity-1=".start.QUICStream" data-entity-2="STREAM_IDLE" data-source-line="18" data-uid="lnk3" id="link_.start.QUICStream_STREAM_IDLE"><path d="M484,173.3973 C484,196.9473 484,253.5973 484,288.9473" fill="none" id="*start*QUICStream-to-STREAM_IDLE" style="stroke:#000000;stroke-width:1;"/><polygon fill="#000000" points="484,294.9473,488,285.9473,484,289.9473,480,285.9473,484,294.9473" style="stroke:#000000;stroke-width:1;"/><text fill="#000000" font-family="Verdana" font-size="13" lengthAdjust="spacing" textLength="93.8628" x="485" y="251.6771">StreamOpen()</text></g><!--link STREAM_IDLE to STREAM_OPEN--><g class="link" data-entity-1="STREAM_IDLE" data-entity-2="STREAM_OPEN" data-source-line="19" data-uid="lnk4" id="link_STREAM_IDLE_STREAM_OPEN"><path d="M494.73,347.1573 C509.17,380.8973 532.3698,435.061 546.8398,468.881" fill="none" id="STREAM_IDLE-to-STREAM_OPEN" style="stroke:#000000;stroke-width:1;"/><polygon fill="#000000" points="549.2,474.3973,549.3373,464.5494,547.2332,469.8004,541.9822,467.6963,549.2,474.3973" style="stroke:#000000;stroke-width:1;"/><text fill="#000000" font-family="Verdana" font-size="13" lengthAdjust="spacing" textLength="92.0474" x="561.4355" y="401.6771">StreamStart()</text><text fill="#000000" font-family="Verdana" font-size="13" lengthAdjust="spacing" textLength="164.9185" x="525" y="417.4764">PEER_STREAM_STARTED</text></g><!--link STREAM_OPEN to HALF_CLOSED_LOCAL--><g class="link" data-entity-1="STREAM_OPEN" data-entity-2="HALF_CLOSED_LOCAL" data-source-line="20" data-uid="lnk5" id="link_STREAM_OPEN_HALF_CLOSED_LOCAL"><path d="M512.32,526.7273 C493.65,535.5673 471.77,544.7573 451,550.6073 C400.33,564.8873 257.42,548.1173 216,580.6073 C191.06,600.1673 182.1961,630.9477 178.3661,655.7377" fill="none" id="STREAM_OPEN-to-HALF_CLOSED_LOCAL" style="stroke:#000000;stroke-width:1;"/><polygon fill="#000000" points="177.45,661.6673,182.7773,653.3836,178.2134,656.7259,174.8711,652.1621,177.45,661.6673" style="stroke:#000000;stroke-width:1;"/><text fill="#000000" font-family="Verdana" font-size="13" lengthAdjust="spacing" textLength="161.7256" x="217" y="594.6771">StreamShutdown(SEND)</text><text fill="#000000" font-family="Verdana" font-size="13" lengthAdjust="spacing" textLength="60.1948" x="267.7654" y="610.4764">Send FIN</text></g><!--link STREAM_OPEN to HALF_CLOSED_REMOTE--><g class="link" data-entity-1="STREAM_OPEN" data-entity-2="HALF_CLOSED_REMOTE" data-source-line="21" data-uid="lnk6" id="link_STREAM_OPEN_HALF_CLOSED_REMOTE"><path d="M505.7,526.6473 C460.26,547.8473 402.3,575.5773 399,580.6073 C383.16,604.7473 383.8278,633.0918 387.4978,656.1718" fill="none" id="STREAM_OPEN-to-HALF_CLOSED_REMOTE" style="stroke:#000000;stroke-width:1;"/><polygon fill="#000000" points="388.44,662.0973,390.977,652.5808,387.6548,657.1593,383.0763,653.8371,388.44,662.0973" style="stroke:#000000;stroke-width:1;"/><text fill="#000000" font-family="Verdana" font-size="13" lengthAdjust="spacing" textLength="165.7056" x="400" y="594.6771">PEER_SEND_SHUTDOWN</text><text fill="#000000" font-family="Verdana" font-size="13" lengthAdjust="spacing" textLength="77.543" x="444.0813" y="610.4764">Receive FIN</text></g><!--link HALF_CLOSED_LOCAL to STREAM_CLOSED--><g class="link" data-entity-1="HALF_CLOSED_LOCAL" data-entity-2="STREAM_CLOSED" data-source-line="22" data-uid="lnk7" id="link_HALF_CLOSED_LOCAL_STREAM_CLOSED"><path d="M162.47,714.1173 C143.44,756.0473 113.21,841.5273 151,898.6073 C197.64,969.0573 288.7351,997.3731 356.3151,1009.5531" fill="none" id="HALF_CLOSED_LOCAL-to-STREAM_CLOSED" style="stroke:#000000;stroke-width:1;"/><polygon fill="#000000" points="362.22,1010.6173,354.0722,1005.0844,357.2993,1009.7304,352.6532,1012.9575,362.22,1010.6173" style="stroke:#000000;stroke-width:1;"/><text fill="#000000" font-family="Verdana" font-size="13" lengthAdjust="spacing" textLength="165.7056" x="152" y="859.6771">PEER_SEND_SHUTDOWN</text></g><!--link HALF_CLOSED_REMOTE to STREAM_CLOSED--><g class="link" data-entity-1="HALF_CLOSED_REMOTE" data-entity-2="STREAM_CLOSED" data-source-line="23" data-uid="lnk8" id="link_HALF_CLOSED_REMOTE_STREAM_CLOSED"><path d="M376.58,714.2973 C351.39,754.0073 310.27,833.3673 334,898.6073 C347.99,937.0873 375.826,967.8051 400.156,989.9851" fill="none" id="HALF_CLOSED_REMOTE-to-STREAM_CLOSED" style="stroke:#000000;stroke-width:1;"/><polygon fill="#000000" points="404.59,994.0273,400.6338,985.008,400.895,990.6588,395.2442,990.92,404.59,994.0273" style="stroke:#000000;stroke-width:1;"/><text fill="#000000" font-family="Verdana" font-size="13" lengthAdjust="spacing" textLength="161.7256" x="335" y="859.6771">StreamShutdown(SEND)</text></g><!--link STREAM_OPEN to STREAM_ERROR--><g class="link" data-entity-1="STREAM_OPEN" data-entity-2="STREAM_ERROR" data-source-line="24" data-uid="lnk9" id="link_STREAM_OPEN_STREAM_ERROR"><path d="M563.73,526.8073 C565.88,542.2973 568.46,562.5573 570,580.6073 C577.74,671.4373 580.5004,773.7485 581.4604,821.8885" fill="none" id="STREAM_OPEN-to-STREAM_ERROR" style="stroke:#000000;stroke-width:1;"/><polygon fill="#000000" points="581.58,827.8873,585.3998,818.8093,581.4803,822.8883,577.4014,818.9688,581.58,827.8873" style="stroke:#000000;stroke-width:1;"/><text fill="#000000" font-family="Verdana" font-size="13" lengthAdjust="spacing" textLength="85.2554" x="581.0566" y="685.6771">Stream reset</text><text fill="#000000" font-family="Verdana" font-size="13" lengthAdjust="spacing" textLength="89.3687" x="579" y="701.4764">Protocol error</text></g><!--link HALF_CLOSED_LOCAL to STREAM_ERROR--><g class="link" data-entity-1="HALF_CLOSED_LOCAL" data-entity-2="STREAM_ERROR" data-source-line="25" data-uid="lnk10" id="link_HALF_CLOSED_LOCAL_STREAM_ERROR"><path d="M216.56,714.1873 C251.59,734.3873 303.62,762.1873 352,779.6073 C409.83,800.4273 428.74,790.0373 487,809.6073 C502.13,814.6873 512.64,818.9078 527.06,825.5478" fill="none" id="HALF_CLOSED_LOCAL-to-STREAM_ERROR" style="stroke:#000000;stroke-width:1;"/><polygon fill="#000000" points="532.51,828.0573,526.0081,820.6597,527.9684,825.966,522.662,827.9263,532.51,828.0573" style="stroke:#000000;stroke-width:1;"/><text fill="#000000" font-family="Verdana" font-size="13" lengthAdjust="spacing" textLength="85.2554" x="353" y="776.6771">Stream reset</text></g><!--link HALF_CLOSED_REMOTE to STREAM_ERROR--><g class="link" data-entity-1="HALF_CLOSED_REMOTE" data-entity-2="STREAM_ERROR" data-source-line="26" data-uid="lnk11" id="link_HALF_CLOSED_REMOTE_STREAM_ERROR"><path d="M409.43,714.1473 C422.19,733.5273 441.63,760.2373 463,779.6073 C483.78,798.4473 504.8075,812.2934 527.3675,825.0534" fill="none" id="HALF_CLOSED_REMOTE-to-STREAM_ERROR" style="stroke:#000000;stroke-width:1;"/><polygon fill="#000000" points="532.59,828.0073,526.7255,820.0948,528.2379,825.5457,522.787,827.0582,532.59,828.0073" style="stroke:#000000;stroke-width:1;"/><text fill="#000000" font-family="Verdana" font-size="13" lengthAdjust="spacing" textLength="85.2554" x="464" y="776.6771">Stream reset</text></g><!--link STREAM_ERROR to STREAM_CLOSED--><g class="link" data-entity-1="STREAM_ERROR" data-entity-2="STREAM_CLOSED" data-source-line="27" data-uid="lnk12" id="link_STREAM_ERROR_STREAM_CLOSED"><path d="M559.35,880.3773 C531.65,911.2773 489.0457,958.8203 461.4357,989.6103" fill="none" id="STREAM_ERROR-to-STREAM_CLOSED" style="stroke:#000000;stroke-width:1;"/><polygon fill="#000000" points="457.43,994.0773,466.4166,990.0472,460.7681,990.3548,460.4605,984.7063,457.43,994.0773" style="stroke:#000000;stroke-width:1;"/><text fill="#000000" font-family="Verdana" font-size="13" lengthAdjust="spacing" textLength="89.0957" x="513" y="942.6771">Error handled</text></g><!--link STREAM_CLOSED to *end*QUICStream--><g class="link" data-entity-1="STREAM_CLOSED" data-entity-2=".end.QUICStream" data-source-line="28" data-uid="lnk14" id="link_STREAM_CLOSED_.end.QUICStream"><path d="M435,1046.2673 C435,1075.1573 435,1115.1573 435,1135.4373" fill="none" id="STREAM_CLOSED-to-*end*QUICStream" style="stroke:#000000;stroke-width:1;"/><polygon fill="#000000" points="435,1141.4373,439,1132.4373,435,1136.4373,431,1132.4373,435,1141.4373" style="stroke:#000000;stroke-width:1;"/><text fill="#000000" font-family="Verdana" font-size="13" lengthAdjust="spacing" textLength="94.6118" x="436" y="1108.6771">StreamClose()</text></g><!--link STREAM_IDLE to HALF_CLOSED_LOCAL--><g class="link" data-entity-1="STREAM_IDLE" data-entity-2="HALF_CLOSED_LOCAL" data-source-line="55" data-uid="lnk15" id="link_STREAM_IDLE_HALF_CLOSED_LOCAL"><path d="M423.64,322.0173 C335.22,325.5573 172.87,346.7673 98,450.6073 C49.76,517.5073 112.6048,611.5557 149.5348,657.3757" fill="none" id="STREAM_IDLE-to-HALF_CLOSED_LOCAL" style="stroke:#000000;stroke-width:1;"/><polygon fill="#000000" points="153.3,662.0473,150.7666,652.5299,150.1624,658.1543,144.5379,657.5501,153.3,662.0473" style="stroke:#000000;stroke-width:1;"/><text fill="#000000" font-family="Verdana" font-size="13" lengthAdjust="spacing" textLength="89.2227" x="99" y="498.1771">Unidirectional</text><text fill="#000000" font-family="Verdana" font-size="13" lengthAdjust="spacing" textLength="75.9307" x="105.646" y="513.9764">(send-only)</text></g><!--link STREAM_IDLE to HALF_CLOSED_REMOTE--><g class="link" data-entity-1="STREAM_IDLE" data-entity-2="HALF_CLOSED_REMOTE" data-source-line="56" data-uid="lnk16" id="link_STREAM_IDLE_HALF_CLOSED_REMOTE"><path d="M427.29,347.1173 C351.01,384.6973 220.76,463.9973 185,580.6073 C180.7,594.6273 176.31,601.7873 185,613.6073 C211.48,649.6273 238.79,628.9073 281,643.6073 C297.28,649.2773 309.1191,653.6255 325.3091,659.8455" fill="none" id="STREAM_IDLE-to-HALF_CLOSED_REMOTE" style="stroke:#000000;stroke-width:1;"/><polygon fill="#000000" points="330.91,661.9973,323.9432,655.0357,326.2426,660.2041,321.0742,662.5035,330.91,661.9973" style="stroke:#000000;stroke-width:1;"/><text fill="#000000" font-family="Verdana" font-size="13" lengthAdjust="spacing" textLength="89.2227" x="329.0359" y="464.6771">Unidirectional</text><text fill="#000000" font-family="Verdana" font-size="13" lengthAdjust="spacing" textLength="91.9014" x="327.6965" y="480.4764">(receive-only)</text><path d="M277,489.2059 L277,546.2059 L470,546.2059 L470,499.2059 L460,489.2059 L277,489.2059" fill="#FFFFFF" style="stroke:#000000;stroke-width:1;"/><path d="M460,489.2059 L460,499.2059 L470,499.2059 L460,489.2059" fill="#FFFFFF" style="stroke:#000000;stroke-width:1;"/><text fill="#000000" font-family="Verdana" font-size="13" font-weight="bold" lengthAdjust="spacing" textLength="172.2944" x="283" y="507.2758">Unidirectional Streams:</text><text fill="#000000" font-family="Verdana" font-size="13" lengthAdjust="spacing" textLength="105.9741" x="283" y="523.0751">Skip OPEN state</text><text fill="#000000" font-family="Verdana" font-size="13" lengthAdjust="spacing" textLength="131.8472" x="283" y="538.8744">Direct to half-closed</text></g><!--link HALF_CLOSED_LOCAL to GMN5--><g class="link" data-entity-1="HALF_CLOSED_LOCAL" data-entity-2="GMN5" data-source-line="34" data-uid="lnk7" id="link_HALF_CLOSED_LOCAL_GMN5"><path d="M200.33,661.9373 C223.7,639.8473 260.56,609.8173 299.5,597.1073 C446.95,548.9673 498.91,556.0973 648.5,597.1073 C682.41,606.4073 716.43,625.3473 743.79,643.5473" fill="none" id="HALF_CLOSED_LOCAL-GMN5" style="stroke:#000000;stroke-width:1;stroke-dasharray:7,7;"/></g><!--link HALF_CLOSED_REMOTE to GMN8--><g class="link" data-entity-1="HALF_CLOSED_REMOTE" data-entity-2="GMN8" data-source-line="36" data-uid="lnk10" id="link_HALF_CLOSED_REMOTE_GMN8"><path d="M422.98,661.8873 C449.55,639.7573 491.09,609.7173 533.5,597.1073 C691.98,549.9873 746.44,551.9873 905.5,597.1073 C938.35,606.4273 971.07,625.3673 997.31,643.5673" fill="none" id="HALF_CLOSED_REMOTE-GMN8" style="stroke:#000000;stroke-width:1;stroke-dasharray:7,7;"/></g><!--link STREAM_OPEN to GMN20--><g class="link" data-entity-1="STREAM_OPEN" data-entity-2="GMN20" data-source-line="46" data-uid="lnk22" id="link_STREAM_OPEN_GMN20"><path d="M615.19,526.6873 C635.56,535.2173 659.03,544.1973 681,550.6073 C898.82,614.1773 960.4,599.6073 1183,643.6073 C1195.88,646.1573 1209.2,648.8373 1222.58,651.5673" fill="none" id="STREAM_OPEN-GMN20" style="stroke:#000000;stroke-width:1;stroke-dasharray:7,7;"/></g><!--link QUICStream to GMN23--><g class="link" data-entity-1="QUICStream" data-entity-2="GMN23" data-source-line="49" data-uid="lnk25" id="link_QUICStream_GMN23"><path d="M21.9998,109.0853 C22.0287,108.9714 22.058,108.8576 22.0874,108.7439 C22.5582,106.9241 23.0854,105.1203 23.6747,103.344 C24.8533,99.7914 26.28,96.3486 28,93.1073 C32.8,84.0573 35.89,81.6573 45.5,78.1073 C97.87,58.7373 996.61,63.5173 1050.5,78.1073 C1080.72,86.2873 1111.09,102.4773 1136.21,118.5573" fill="none" id="QUICStream-GMN23" style="stroke:#000000;stroke-width:1;stroke-dasharray:7,7;"/></g><!--link STREAM_ERROR to GMN29--><g class="link" data-entity-1="STREAM_ERROR" data-entity-2="GMN29" data-source-line="61" data-uid="lnk31" id="link_STREAM_ERROR_GMN29"><path d="M635.71,880.1773 C650.25,886.5573 666.1,893.1573 681,898.6073 C794.17,940.0373 827.14,936.1173 941,975.6073 C946.87,977.6473 952.89,979.8073 958.94,982.0473" fill="none" id="STREAM_ERROR-GMN29" style="stroke:#000000;stroke-width:1;stroke-dasharray:7,7;"/></g><!--SRC=[XLRDRkCs4BxxATYzD17iTDFjhmy5jBBI673ir5Am1UeYe2NQ8KAJMf9E6XG5zZLwM-ohz4tsIJf3Kh9iAvkB0PCpmszclcyqNzaxjc6a4fJBdhddigAQReYnr3BoTu-GjxIuNskrbMMYXD94yFMTNMl695ugNJBjBvO2BE4irbezje_-wVKijuAHtsx62SciPl10vXx8DPM6MwwawVNycw-EhCmhGerp3gS8onjd-JoDhsx7eqbAXhLJ0R-MbOT6i-jq2aPnOVa38qjUSiqAV9gAnlGodbpS9fDPbevk9xCade33H1LK4CDaIGgXJ2jmstgUNiro135d6mLtNVO1YFVOuRLCRxZiWfpEvxFvpf11PNKFZFw8_YI3mI-TwSyg9azEmQXzsJ8EPV36K5zjJquNyZfDvxV18ilZUPwETY6S2uReAay8TBUrfNgK9raw7K6y3DE_64zV2D9KpRyFlhVPvKq-chsRBkIS5GnRvSCSlzrAgYdfSPm3r_1YbszN9XtuktkZcM4MwgYLLOKIeLSlmEwAyIBUPvpsRhlIIn4HkQEo58vf-_VeWRIguoP8NU0HYFVhS3Gm5IluYXU4Igc0foXRKY40_S1Aij9gGvJcQuwIagW2ZSE2gDK1-Q88MHfcG48hkkG2fW0pmoXQo05vsnOdAQcbP2NK8ruvOa4EaBTd1tLwngiBC265abPZ_ULAwOALxW8c6emuhGfc39VhuDCxmDZ5xYYwf68rSDKe_IW865jZeG4R18_NOGmKL8AakQWj8HM7Q3o5SY4gEBPu4ZzIg01WgnZJBivMVn5X8vrzYFxTWB4zYxf0-XnUn1XAxLmIC2xKfX8C0ekc1W6fOAjskskgHf4dNw9awQTz3J3DqZpCdRrdidnsxNGydlwwTz48x84huIburFlTLJUiHX9H5Ahcc5YJJzcxNRLCgrnJvRbeyQkruS0b9NsPZTe2sOmhvP91sLX8msjqF2BqWN91b_0L15v2Hbl3TieYzgbYRLLvs5PLBTHXoaTHy4dmCuVzpC6vMpadXU30ho5vtV-k_zFPsHbnKjL3Sjx_llyp79oYqutizlgs_qF__7NRxKt_n_xvEVeX-4GhOmQ2FZ7CQCKqar04ZtsfhCLnS2pz0F_6q3M3qjLkBe7_Fdt-yF7pXt-Hr7b-_SqRCi7eKJH4xhZc6kTk-k3wVikChG_sdD-nfLijAgKjEcVCDMldFC8-Tdd2Cz9Nmlbvh9kji1me_nS851FVOzjHsngvjbOMJDnvrMbSGFD0uNNVmeGLx849D-lgy4vp3QPd3AxYt-kFzoZEOozRqo8Wh4GWFBAX4eg-WUQsk2VuYXLF1J0JqPjEnJJS6yF78ypjQmsTUx_biByTTw_fwz1lVRiKmaw7zgt3pHOw2Sf9PjDfci3siP1B1afXeKb-gGDB11wNVehWx75Gx6wDTFBQxXCwzBbtk15r3VnzBIpa2KwtWPBYwVIB_iquFWeGfbU8uSiB6Gikxrr93zJdk-8BcjtpYZZXk3mNSkGCOJ30TnncVjWleIH-liAb0fq-FIF1mt4y3-Q1Wt5L2LxucG81y4ll_hH774n3HkMsmZCVf52b-xPMTDrOjrSJlt6WSFu7]--></g></svg>