<svg xmlns="http://www.w3.org/2000/svg" xmlns:xlink="http://www.w3.org/1999/xlink" contentStyleType="text/css" data-diagram-type="ACTIVITY" height="1990px" preserveAspectRatio="none" style="width:989px;height:1990px;background:#FFFFFF;" version="1.1" viewBox="0 0 989 1990" width="989px" zoomAndPan="magnify"><title>MsQuic Core Event Processing</title><defs/><g><g class="title" data-source-line="8"><text fill="#000000" font-family="Verdana" font-size="22" font-weight="bold" lengthAdjust="spacing" textLength="371.8945" x="307.3018" y="37.1182">MsQuic Core Event Processing</text></g><ellipse cx="405.4958" cy="62.7373" fill="#FFFFFF" rx="10" ry="10" style="stroke:#000000;stroke-width:1;"/><rect fill="#FFFFFF" height="303.8984" style="stroke:#000000;stroke-width:1;" width="593.3159" x="267.6375" y="82.7373"/><path d="M396.7195,82.7373 L396.7195,92.752 L386.7195,102.752 L267.6375,102.752" fill="none" style="stroke:#000000;stroke-width:1;"/><text fill="#000000" font-family="Verdana" font-size="14" font-weight="bold" lengthAdjust="spacing" textLength="119.082" x="270.6375" y="97.8125">API Processing</text><path d="M553.3542,119.2446 L553.3542,136.0439 L533.3542,140.0439 L553.3542,144.0439 L553.3542,160.8433 A0,0 0 0 0 553.3542,160.8433 L850.9534,160.8433 A0,0 0 0 0 850.9534,160.8433 L850.9534,129.2446 L840.9534,119.2446 L553.3542,119.2446 A0,0 0 0 0 553.3542,119.2446" fill="#FFFFFF" style="stroke:#000000;stroke-width:1;"/><path d="M840.9534,119.2446 L840.9534,129.2446 L850.9534,129.2446 L840.9534,119.2446" fill="#FFFFFF" style="stroke:#000000;stroke-width:1;"/><text fill="#000000" font-family="Verdana" font-size="13" font-weight="bold" lengthAdjust="spacing" textLength="276.5991" x="559.3542" y="137.3145">Reference: Application Layer Diagram</text><text fill="#000000" font-family="Verdana" font-size="13" lengthAdjust="spacing" textLength="227.2271" x="559.3542" y="153.1138">Receives API calls from application</text><rect fill="#FFFFE0" height="34.584" rx="12.5" ry="12.5" style="stroke:#000000;stroke-width:1;" width="255.7168" x="277.6375" y="122.752"/><text fill="#000000" font-family="Verdana" font-size="12" lengthAdjust="spacing" textLength="235.7168" x="287.6375" y="144.8164">Receive API call from Application Layer</text><path d="M482.7546,170.8433 L482.7546,211.3416 L462.7546,215.3416 L482.7546,219.3416 L482.7546,259.8398 A0,0 0 0 0 482.7546,259.8398 L665.9563,259.8398 A0,0 0 0 0 665.9563,259.8398 L665.9563,180.8433 L655.9563,170.8433 L482.7546,170.8433 A0,0 0 0 0 482.7546,170.8433" fill="#FFFFFF" style="stroke:#000000;stroke-width:1;"/><path d="M655.9563,170.8433 L655.9563,180.8433 L665.9563,180.8433 L655.9563,170.8433" fill="#FFFFFF" style="stroke:#000000;stroke-width:1;"/><text fill="#000000" font-family="Verdana" font-size="13" font-weight="bold" lengthAdjust="spacing" textLength="115.8066" x="488.7546" y="188.9131">API Processing:</text><text fill="#000000" font-family="Verdana" font-size="13" lengthAdjust="spacing" textLength="142.4858" x="488.7546" y="204.7124">- Validate parameters</text><text fill="#000000" font-family="Verdana" font-size="13" lengthAdjust="spacing" textLength="138.6772" x="488.7546" y="220.5117">- Update object state</text><text fill="#000000" font-family="Verdana" font-size="13" lengthAdjust="spacing" textLength="162.2017" x="488.7546" y="236.311">- Trigger internal actions</text><text fill="#000000" font-family="Verdana" font-size="13" lengthAdjust="spacing" textLength="128.7051" x="488.7546" y="252.1104">- Manage resources</text><rect fill="#FFFFE0" height="34.584" rx="12.5" ry="12.5" style="stroke:#000000;stroke-width:1;" width="114.5176" x="348.2371" y="198.0496"/><text fill="#000000" font-family="Verdana" font-size="12" lengthAdjust="spacing" textLength="94.5176" x="358.2371" y="220.114">Process API call</text><path d="M499.1462,269.8398 L499.1462,318.2378 L479.1462,322.2378 L499.1462,326.2378 L499.1462,374.6357 A0,0 0 0 0 499.1462,374.6357 L706.8372,374.6357 A0,0 0 0 0 706.8372,374.6357 L706.8372,279.8398 L696.8372,269.8398 L499.1462,269.8398 A0,0 0 0 0 499.1462,269.8398" fill="#FFFFFF" style="stroke:#000000;stroke-width:1;"/><path d="M696.8372,269.8398 L696.8372,279.8398 L706.8372,279.8398 L696.8372,269.8398" fill="#FFFFFF" style="stroke:#000000;stroke-width:1;"/><text fill="#000000" font-family="Verdana" font-size="13" font-weight="bold" lengthAdjust="spacing" textLength="171.9644" x="505.1462" y="287.9097">Internal State Updates:</text><text fill="#000000" font-family="Verdana" font-size="13" lengthAdjust="spacing" textLength="186.6909" x="505.1462" y="303.709">- Connection state machines</text><text fill="#000000" font-family="Verdana" font-size="13" lengthAdjust="spacing" textLength="161.7002" x="505.1462" y="319.5083">- Stream state machines</text><text fill="#000000" font-family="Verdana" font-size="13" lengthAdjust="spacing" textLength="150.0332" x="505.1462" y="335.3076">- Flow control windows</text><text fill="#000000" font-family="Verdana" font-size="13" lengthAdjust="spacing" textLength="132.6787" x="505.1462" y="351.1069">- Congestion control</text><text fill="#000000" font-family="Verdana" font-size="13" lengthAdjust="spacing" textLength="138.6265" x="505.1462" y="366.9063">- Timer management</text><rect fill="#FFFFE0" height="34.584" rx="12.5" ry="12.5" style="stroke:#000000;stroke-width:1;" width="147.3008" x="331.8455" y="304.9458"/><text fill="#000000" font-family="Verdana" font-size="12" lengthAdjust="spacing" textLength="127.3008" x="341.8455" y="327.0103">Update internal state</text><rect fill="#FFFFFF" height="384.2051" style="stroke:#000000;stroke-width:1;" width="977.498" x="6" y="396.6357"/><path d="M147.9678,396.6357 L147.9678,406.6504 L137.9678,416.6504 L6,416.6504" fill="none" style="stroke:#000000;stroke-width:1;"/><text fill="#000000" font-family="Verdana" font-size="14" font-weight="bold" lengthAdjust="spacing" textLength="131.9678" x="9" y="411.7109">Event Evaluation</text><polygon fill="#FFFFE0" points="325.2678,433.6504,485.7239,433.6504,497.7239,445.6504,485.7239,457.6504,325.2678,457.6504,313.2678,445.6504,325.2678,433.6504" style="stroke:#000000;stroke-width:1;"/><text fill="#000000" font-family="Verdana" font-size="11" lengthAdjust="spacing" textLength="160.4561" x="325.2678" y="450.0251">Event needs to be delivered?</text><text fill="#000000" font-family="Verdana" font-size="11" lengthAdjust="spacing" textLength="18.7935" x="294.4744" y="443.3408">yes</text><text fill="#000000" font-family="Verdana" font-size="11" lengthAdjust="spacing" textLength="13.6372" x="497.7239" y="443.3408">no</text><path d="M228.9824,467.6504 L228.9824,516.0483 L208.9824,520.0483 L228.9824,524.0483 L228.9824,572.4463 A0,0 0 0 0 228.9824,572.4463 L429.0815,572.4463 A0,0 0 0 0 429.0815,572.4463 L429.0815,477.6504 L419.0815,467.6504 L228.9824,467.6504 A0,0 0 0 0 228.9824,467.6504" fill="#FFFFFF" style="stroke:#000000;stroke-width:1;"/><path d="M419.0815,467.6504 L419.0815,477.6504 L429.0815,477.6504 L419.0815,467.6504" fill="#FFFFFF" style="stroke:#000000;stroke-width:1;"/><text fill="#000000" font-family="Verdana" font-size="13" font-weight="bold" lengthAdjust="spacing" textLength="148.04" x="234.9824" y="485.7202">Event Classification:</text><text fill="#000000" font-family="Verdana" font-size="13" lengthAdjust="spacing" textLength="179.0991" x="234.9824" y="501.5195">- Network events (packets)</text><text fill="#000000" font-family="Verdana" font-size="13" lengthAdjust="spacing" textLength="169.3301" x="234.9824" y="517.3188">- Timer events (timeouts)</text><text fill="#000000" font-family="Verdana" font-size="13" lengthAdjust="spacing" textLength="146.0215" x="234.9824" y="533.1182">- API-triggered events</text><text fill="#000000" font-family="Verdana" font-size="13" lengthAdjust="spacing" textLength="144.479" x="234.9824" y="548.9175">- State change events</text><text fill="#000000" font-family="Verdana" font-size="13" lengthAdjust="spacing" textLength="113.9341" x="234.9824" y="564.7168">- Error conditions</text><rect fill="#FFFFE0" height="34.584" rx="12.5" ry="12.5" style="stroke:#000000;stroke-width:1;" width="154.8184" x="54.1641" y="502.7563"/><text fill="#000000" font-family="Verdana" font-size="12" lengthAdjust="spacing" textLength="134.8184" x="64.1641" y="524.8208">Determine Event Type</text><path d="M226.1582,582.4463 L226.1582,622.9446 L206.1582,626.9446 L226.1582,630.9446 L226.1582,671.4429 A0,0 0 0 0 226.1582,671.4429 L437.9878,671.4429 A0,0 0 0 0 437.9878,671.4429 L437.9878,592.4463 L427.9878,582.4463 L226.1582,582.4463 A0,0 0 0 0 226.1582,582.4463" fill="#FFFFFF" style="stroke:#000000;stroke-width:1;"/><path d="M427.9878,582.4463 L427.9878,592.4463 L437.9878,592.4463 L427.9878,582.4463" fill="#FFFFFF" style="stroke:#000000;stroke-width:1;"/><text fill="#000000" font-family="Verdana" font-size="13" font-weight="bold" lengthAdjust="spacing" textLength="111.8203" x="232.1582" y="600.5161">Event Queuing:</text><text fill="#000000" font-family="Verdana" font-size="13" lengthAdjust="spacing" textLength="134.4053" x="232.1582" y="616.3154">- Event prioritization</text><text fill="#000000" font-family="Verdana" font-size="13" lengthAdjust="spacing" textLength="158.5454" x="232.1582" y="632.1147">- Callback context setup</text><text fill="#000000" font-family="Verdana" font-size="13" lengthAdjust="spacing" textLength="158.3105" x="232.1582" y="647.9141">- Parameter preparation</text><text fill="#000000" font-family="Verdana" font-size="13" lengthAdjust="spacing" textLength="190.8296" x="232.1582" y="663.7134">- Thread safety management</text><rect fill="#FFFFE0" height="34.584" rx="12.5" ry="12.5" style="stroke:#000000;stroke-width:1;" width="149.1699" x="56.9883" y="609.6526"/><text fill="#000000" font-family="Verdana" font-size="12" lengthAdjust="spacing" textLength="129.1699" x="66.9883" y="631.717">Queue callback event</text><path d="M265.1465,681.4429 L265.1465,706.1418 L245.1465,710.1418 L265.1465,714.1418 L265.1465,738.8408 A0,0 0 0 0 265.1465,738.8408 L588.4282,738.8408 A0,0 0 0 0 588.4282,738.8408 L588.4282,691.4429 L578.4282,681.4429 L265.1465,681.4429 A0,0 0 0 0 265.1465,681.4429" fill="#FFFFFF" style="stroke:#000000;stroke-width:1;"/><path d="M578.4282,681.4429 L578.4282,691.4429 L588.4282,691.4429 L578.4282,681.4429" fill="#FFFFFF" style="stroke:#000000;stroke-width:1;"/><text fill="#000000" font-family="Verdana" font-size="13" font-weight="bold" lengthAdjust="spacing" textLength="302.2817" x="271.1465" y="699.5127">Reference: Callback Processing Diagrams</text><text fill="#000000" font-family="Verdana" font-size="13" lengthAdjust="spacing" textLength="188.4683" x="271.1465" y="715.312">Events routed to appropriate</text><text fill="#000000" font-family="Verdana" font-size="13" lengthAdjust="spacing" textLength="112.6519" x="271.1465" y="731.1113">callback handlers</text><rect fill="#FFFFE0" height="34.584" rx="12.5" ry="12.5" style="stroke:#000000;stroke-width:1;" width="227.1465" x="18" y="692.8499"/><text fill="#000000" font-family="Verdana" font-size="12" lengthAdjust="spacing" textLength="207.1465" x="28" y="714.9143">Send event to Callback Processing</text><path d="M770.4087,467.6504 L770.4087,500.249 L750.4087,504.249 L770.4087,508.249 L770.4087,540.8477 A0,0 0 0 0 770.4087,540.8477 L971.498,540.8477 A0,0 0 0 0 971.498,540.8477 L971.498,477.6504 L961.498,467.6504 L770.4087,467.6504 A0,0 0 0 0 770.4087,467.6504" fill="#FFFFFF" style="stroke:#000000;stroke-width:1;"/><path d="M961.498,467.6504 L961.498,477.6504 L971.498,477.6504 L961.498,467.6504" fill="#FFFFFF" style="stroke:#000000;stroke-width:1;"/><text fill="#000000" font-family="Verdana" font-size="13" font-weight="bold" lengthAdjust="spacing" textLength="148.8525" x="776.4087" y="485.7202">Internal Processing:</text><text fill="#000000" font-family="Verdana" font-size="13" lengthAdjust="spacing" textLength="133.5483" x="776.4087" y="501.5195">- State updates only</text><text fill="#000000" font-family="Verdana" font-size="13" lengthAdjust="spacing" textLength="180.0894" x="776.4087" y="517.3188">- No application notification</text><text fill="#000000" font-family="Verdana" font-size="13" lengthAdjust="spacing" textLength="160.9893" x="776.4087" y="533.1182">- Background operations</text><rect fill="#FFFFE0" height="34.584" rx="12.5" ry="12.5" style="stroke:#000000;stroke-width:1;" width="141.9805" x="608.4282" y="486.957"/><text fill="#000000" font-family="Verdana" font-size="12" lengthAdjust="spacing" textLength="121.9805" x="618.4282" y="509.0215">Continue processing</text><polygon fill="#FFFFE0" points="405.4958,744.8408,417.4958,756.8408,405.4958,768.8408,393.4958,756.8408,405.4958,744.8408" style="stroke:#000000;stroke-width:1;"/><rect fill="#FFFFFF" height="443.8003" style="stroke:#000000;stroke-width:1;" width="500.5371" x="288.5349" y="790.8408"/><path d="M505.1443,790.8408 L505.1443,800.8555 L495.1443,810.8555 L288.5349,810.8555" fill="none" style="stroke:#000000;stroke-width:1;"/><text fill="#000000" font-family="Verdana" font-size="14" font-weight="bold" lengthAdjust="spacing" textLength="206.6094" x="291.5349" y="805.916">Network Event Processing</text><path d="M525.5515,820.8555 L525.5515,861.3538 L505.5515,865.3538 L525.5515,869.3538 L525.5515,909.8521 A0,0 0 0 0 525.5515,909.8521 L718.1921,909.8521 A0,0 0 0 0 718.1921,909.8521 L718.1921,830.8555 L708.1921,820.8555 L525.5515,820.8555 A0,0 0 0 0 525.5515,820.8555" fill="#FFFFFF" style="stroke:#000000;stroke-width:1;"/><path d="M708.1921,820.8555 L708.1921,830.8555 L718.1921,830.8555 L708.1921,820.8555" fill="#FFFFFF" style="stroke:#000000;stroke-width:1;"/><text fill="#000000" font-family="Verdana" font-size="13" font-weight="bold" lengthAdjust="spacing" textLength="120.9355" x="531.5515" y="838.9253">Network Events:</text><text fill="#000000" font-family="Verdana" font-size="13" lengthAdjust="spacing" textLength="150.9409" x="531.5515" y="854.7246">- UDP packet reception</text><text fill="#000000" font-family="Verdana" font-size="13" lengthAdjust="spacing" textLength="145.2725" x="531.5515" y="870.5239">- QUIC packet parsing</text><text fill="#000000" font-family="Verdana" font-size="13" lengthAdjust="spacing" textLength="125.7534" x="531.5515" y="886.3232">- Frame processing</text><text fill="#000000" font-family="Verdana" font-size="13" lengthAdjust="spacing" textLength="171.6406" x="531.5515" y="902.1226">- Connection identification</text><rect fill="#FFFFE0" height="34.584" rx="12.5" ry="12.5" style="stroke:#000000;stroke-width:1;" width="200.1113" x="305.4402" y="848.0618"/><text fill="#000000" font-family="Verdana" font-size="12" lengthAdjust="spacing" textLength="180.1113" x="315.4402" y="870.1262">Packet received from network</text><path d="M491.9832,919.8521 L491.9832,960.3503 L471.9832,964.3503 L491.9832,968.3503 L491.9832,1008.8486 A0,0 0 0 0 491.9832,1008.8486 L689.4163,1008.8486 A0,0 0 0 0 689.4163,1008.8486 L689.4163,929.8521 L679.4163,919.8521 L491.9832,919.8521 A0,0 0 0 0 491.9832,919.8521" fill="#FFFFFF" style="stroke:#000000;stroke-width:1;"/><path d="M679.4163,919.8521 L679.4163,929.8521 L689.4163,929.8521 L679.4163,919.8521" fill="#FFFFFF" style="stroke:#000000;stroke-width:1;"/><text fill="#000000" font-family="Verdana" font-size="13" font-weight="bold" lengthAdjust="spacing" textLength="138.2266" x="497.9832" y="937.9219">Packet Processing:</text><text fill="#000000" font-family="Verdana" font-size="13" lengthAdjust="spacing" textLength="151.2139" x="497.9832" y="953.7212">- Connection ID lookup</text><text fill="#000000" font-family="Verdana" font-size="13" lengthAdjust="spacing" textLength="176.4331" x="497.9832" y="969.5205">- Packet number validation</text><text fill="#000000" font-family="Verdana" font-size="13" lengthAdjust="spacing" textLength="81.1548" x="497.9832" y="985.3198">- Decryption</text><text fill="#000000" font-family="Verdana" font-size="13" lengthAdjust="spacing" textLength="121.7544" x="497.9832" y="1001.1191">- Frame extraction</text><rect fill="#FFFFE0" height="34.584" rx="12.5" ry="12.5" style="stroke:#000000;stroke-width:1;" width="132.9746" x="339.0085" y="947.0583"/><text fill="#000000" font-family="Verdana" font-size="12" lengthAdjust="spacing" textLength="112.9746" x="349.0085" y="969.1228">Parse QUIC packet</text><path d="M499.1257,1018.8486 L499.1257,1067.2466 L479.1257,1071.2466 L499.1257,1075.2466 L499.1257,1123.6445 A0,0 0 0 0 499.1257,1123.6445 L779.072,1123.6445 A0,0 0 0 0 779.072,1123.6445 L779.072,1028.8486 L769.072,1018.8486 L499.1257,1018.8486 A0,0 0 0 0 499.1257,1018.8486" fill="#FFFFFF" style="stroke:#000000;stroke-width:1;"/><path d="M769.072,1018.8486 L769.072,1028.8486 L779.072,1028.8486 L769.072,1018.8486" fill="#FFFFFF" style="stroke:#000000;stroke-width:1;"/><text fill="#000000" font-family="Verdana" font-size="13" font-weight="bold" lengthAdjust="spacing" textLength="135.0781" x="505.1257" y="1036.9185">Frame Processing:</text><text fill="#000000" font-family="Verdana" font-size="13" lengthAdjust="spacing" textLength="223.9961" x="505.1257" y="1052.7178">- STREAM frames &#226;&#8224;&#8217; Stream data</text><text fill="#000000" font-family="Verdana" font-size="13" lengthAdjust="spacing" textLength="233.9365" x="505.1257" y="1068.5171">- ACK frames &#226;&#8224;&#8217; Acknowledgments</text><text fill="#000000" font-family="Verdana" font-size="13" lengthAdjust="spacing" textLength="258.9463" x="505.1257" y="1084.3164">- CONNECTION_CLOSE &#226;&#8224;&#8217; Termination</text><text fill="#000000" font-family="Verdana" font-size="13" lengthAdjust="spacing" textLength="213.1797" x="505.1257" y="1100.1157">- CRYPTO frames &#226;&#8224;&#8217; Handshake</text><text fill="#000000" font-family="Verdana" font-size="13" lengthAdjust="spacing" textLength="235.2251" x="505.1257" y="1115.915">- DATAGRAM frames &#226;&#8224;&#8217; Datagrams</text><rect fill="#FFFFE0" height="34.584" rx="12.5" ry="12.5" style="stroke:#000000;stroke-width:1;" width="147.2598" x="331.866" y="1053.9546"/><text fill="#000000" font-family="Verdana" font-size="12" lengthAdjust="spacing" textLength="127.2598" x="341.866" y="1076.019">Process QUIC frames</text><path d="M532.4568,1133.6445 L532.4568,1174.1428 L512.4568,1178.1428 L532.4568,1182.1428 L532.4568,1222.6411 A0,0 0 0 0 532.4568,1222.6411 L732.0354,1222.6411 A0,0 0 0 0 732.0354,1222.6411 L732.0354,1143.6445 L722.0354,1133.6445 L532.4568,1133.6445 A0,0 0 0 0 532.4568,1133.6445" fill="#FFFFFF" style="stroke:#000000;stroke-width:1;"/><path d="M722.0354,1133.6445 L722.0354,1143.6445 L732.0354,1143.6445 L722.0354,1133.6445" fill="#FFFFFF" style="stroke:#000000;stroke-width:1;"/><text fill="#000000" font-family="Verdana" font-size="13" font-weight="bold" lengthAdjust="spacing" textLength="107.7578" x="538.4568" y="1151.7144">State Updates:</text><text fill="#000000" font-family="Verdana" font-size="13" lengthAdjust="spacing" textLength="146.0723" x="538.4568" y="1167.5137">- Flow control updates</text><text fill="#000000" font-family="Verdana" font-size="13" lengthAdjust="spacing" textLength="132.6787" x="538.4568" y="1183.313">- Congestion control</text><text fill="#000000" font-family="Verdana" font-size="13" lengthAdjust="spacing" textLength="153.5879" x="538.4568" y="1199.1123">- Stream state changes</text><text fill="#000000" font-family="Verdana" font-size="13" lengthAdjust="spacing" textLength="178.5786" x="538.4568" y="1214.9116">- Connection state changes</text><rect fill="#FFFFE0" height="34.584" rx="12.5" ry="12.5" style="stroke:#000000;stroke-width:1;" width="213.9219" x="298.5349" y="1160.8508"/><text fill="#000000" font-family="Verdana" font-size="12" lengthAdjust="spacing" textLength="193.9219" x="308.5349" y="1182.9153">Update connection/stream state</text><rect fill="#FFFFFF" height="245.8071" style="stroke:#000000;stroke-width:1;" width="340.4663" x="337.3904" y="1244.6411"/><path d="M532.1931,1244.6411 L532.1931,1254.6558 L522.1931,1264.6558 L337.3904,1264.6558" fill="none" style="stroke:#000000;stroke-width:1;"/><text fill="#000000" font-family="Verdana" font-size="14" font-weight="bold" lengthAdjust="spacing" textLength="184.8027" x="340.3904" y="1259.7163">Timer Event Processing</text><path d="M477.3025,1274.6558 L477.3025,1323.0537 L457.3025,1327.0537 L477.3025,1331.0537 L477.3025,1379.4517 A0,0 0 0 0 477.3025,1379.4517 L663.3669,1379.4517 A0,0 0 0 0 663.3669,1379.4517 L663.3669,1284.6558 L653.3669,1274.6558 L477.3025,1274.6558 A0,0 0 0 0 477.3025,1274.6558" fill="#FFFFFF" style="stroke:#000000;stroke-width:1;"/><path d="M653.3669,1274.6558 L653.3669,1284.6558 L663.3669,1284.6558 L653.3669,1274.6558" fill="#FFFFFF" style="stroke:#000000;stroke-width:1;"/><text fill="#000000" font-family="Verdana" font-size="13" font-weight="bold" lengthAdjust="spacing" textLength="100.6865" x="483.3025" y="1292.7256">Timer Events:</text><text fill="#000000" font-family="Verdana" font-size="13" lengthAdjust="spacing" textLength="90.2446" x="483.3025" y="1308.5249">- Idle timeout</text><text fill="#000000" font-family="Verdana" font-size="13" lengthAdjust="spacing" textLength="165.0645" x="483.3025" y="1324.3242">- Retransmission timeout</text><text fill="#000000" font-family="Verdana" font-size="13" lengthAdjust="spacing" textLength="134.2402" x="483.3025" y="1340.1235">- Keep-alive timeout</text><text fill="#000000" font-family="Verdana" font-size="13" lengthAdjust="spacing" textLength="137.5093" x="483.3025" y="1355.9229">- Handshake timeout</text><text fill="#000000" font-family="Verdana" font-size="13" lengthAdjust="spacing" textLength="158.8945" x="483.3025" y="1371.7222">- Loss detection timeout</text><rect fill="#FFFFE0" height="34.584" rx="12.5" ry="12.5" style="stroke:#000000;stroke-width:1;" width="103.6133" x="353.6892" y="1309.7617"/><text fill="#000000" font-family="Verdana" font-size="12" lengthAdjust="spacing" textLength="83.6133" x="363.6892" y="1331.8262">Timer expired</text><path d="M483.6013,1389.4517 L483.6013,1429.95 L463.6013,1433.95 L483.6013,1437.95 L483.6013,1478.4482 A0,0 0 0 0 483.6013,1478.4482 L667.8567,1478.4482 A0,0 0 0 0 667.8567,1478.4482 L667.8567,1399.4517 L657.8567,1389.4517 L483.6013,1389.4517 A0,0 0 0 0 483.6013,1389.4517" fill="#FFFFFF" style="stroke:#000000;stroke-width:1;"/><path d="M657.8567,1389.4517 L657.8567,1399.4517 L667.8567,1399.4517 L657.8567,1389.4517" fill="#FFFFFF" style="stroke:#000000;stroke-width:1;"/><text fill="#000000" font-family="Verdana" font-size="13" font-weight="bold" lengthAdjust="spacing" textLength="148.8906" x="489.6013" y="1407.5215">Timeout Processing:</text><text fill="#000000" font-family="Verdana" font-size="13" lengthAdjust="spacing" textLength="154.2354" x="489.6013" y="1423.3208">- Packet retransmission</text><text fill="#000000" font-family="Verdana" font-size="13" lengthAdjust="spacing" textLength="163.2554" x="489.6013" y="1439.1201">- Connection termination</text><text fill="#000000" font-family="Verdana" font-size="13" lengthAdjust="spacing" textLength="100.1724" x="489.6013" y="1454.9194">- State cleanup</text><text fill="#000000" font-family="Verdana" font-size="13" lengthAdjust="spacing" textLength="117.7744" x="489.6013" y="1470.7188">- Error generation</text><rect fill="#FFFFE0" height="34.584" rx="12.5" ry="12.5" style="stroke:#000000;stroke-width:1;" width="116.2109" x="347.3904" y="1416.658"/><text fill="#000000" font-family="Verdana" font-size="12" lengthAdjust="spacing" textLength="96.2109" x="357.3904" y="1438.7224">Process timeout</text><rect fill="#FFFFFF" height="316.8071" style="stroke:#000000;stroke-width:1;" width="611.0474" x="109.8496" y="1500.4482"/><path d="M234.8574,1500.4482 L234.8574,1510.4629 L224.8574,1520.4629 L109.8496,1520.4629" fill="none" style="stroke:#000000;stroke-width:1;"/><text fill="#000000" font-family="Verdana" font-size="14" font-weight="bold" lengthAdjust="spacing" textLength="115.0078" x="112.8496" y="1515.5234">Error Handling</text><polygon fill="#FFFFE0" points="362.7581,1537.4629,448.2336,1537.4629,460.2336,1549.4629,448.2336,1561.4629,362.7581,1561.4629,350.7581,1549.4629,362.7581,1537.4629" style="stroke:#000000;stroke-width:1;"/><text fill="#000000" font-family="Verdana" font-size="11" lengthAdjust="spacing" textLength="85.4756" x="362.7581" y="1553.8376">Error occurred?</text><text fill="#000000" font-family="Verdana" font-size="11" lengthAdjust="spacing" textLength="18.7935" x="331.9646" y="1547.1533">yes</text><text fill="#000000" font-family="Verdana" font-size="11" lengthAdjust="spacing" textLength="13.6372" x="460.2336" y="1547.1533">no</text><path d="M297.2031,1571.4629 L297.2031,1619.8608 L277.2031,1623.8608 L297.2031,1627.8608 L297.2031,1676.2588 A0,0 0 0 0 297.2031,1676.2588 L464.2627,1676.2588 A0,0 0 0 0 464.2627,1676.2588 L464.2627,1581.4629 L454.2627,1571.4629 L297.2031,1571.4629 A0,0 0 0 0 297.2031,1571.4629" fill="#FFFFFF" style="stroke:#000000;stroke-width:1;"/><path d="M454.2627,1571.4629 L454.2627,1581.4629 L464.2627,1581.4629 L454.2627,1571.4629" fill="#FFFFFF" style="stroke:#000000;stroke-width:1;"/><text fill="#000000" font-family="Verdana" font-size="13" font-weight="bold" lengthAdjust="spacing" textLength="89.6226" x="303.2031" y="1589.5327">Error Types:</text><text fill="#000000" font-family="Verdana" font-size="13" lengthAdjust="spacing" textLength="129.6699" x="303.2031" y="1605.332">- Protocol violations</text><text fill="#000000" font-family="Verdana" font-size="13" lengthAdjust="spacing" textLength="108.4561" x="303.2031" y="1621.1313">- Network errors</text><text fill="#000000" font-family="Verdana" font-size="13" lengthAdjust="spacing" textLength="146.0596" x="303.2031" y="1636.9307">- Resource exhaustion</text><text fill="#000000" font-family="Verdana" font-size="13" lengthAdjust="spacing" textLength="141.9146" x="303.2031" y="1652.73">- Configuration errors</text><text fill="#000000" font-family="Verdana" font-size="13" lengthAdjust="spacing" textLength="78.2285" x="303.2031" y="1668.5293">- TLS errors</text><rect fill="#FFFFE0" height="34.584" rx="12.5" ry="12.5" style="stroke:#000000;stroke-width:1;" width="147.3535" x="129.8496" y="1606.5688"/><text fill="#000000" font-family="Verdana" font-size="12" lengthAdjust="spacing" textLength="127.3535" x="139.8496" y="1628.6333">Generate error event</text><path d="M289.085,1686.2588 L289.085,1726.7571 L269.085,1730.7571 L289.085,1734.7571 L289.085,1775.2554 A0,0 0 0 0 289.085,1775.2554 L494.0337,1775.2554 A0,0 0 0 0 494.0337,1775.2554 L494.0337,1696.2588 L484.0337,1686.2588 L289.085,1686.2588 A0,0 0 0 0 289.085,1686.2588" fill="#FFFFFF" style="stroke:#000000;stroke-width:1;"/><path d="M484.0337,1686.2588 L484.0337,1696.2588 L494.0337,1696.2588 L484.0337,1686.2588" fill="#FFFFFF" style="stroke:#000000;stroke-width:1;"/><text fill="#000000" font-family="Verdana" font-size="13" font-weight="bold" lengthAdjust="spacing" textLength="183.9487" x="295.085" y="1704.3286">Error State Management:</text><text fill="#000000" font-family="Verdana" font-size="13" lengthAdjust="spacing" textLength="157.8599" x="295.085" y="1720.1279">- Error code assignment</text><text fill="#000000" font-family="Verdana" font-size="13" lengthAdjust="spacing" textLength="161.1606" x="295.085" y="1735.9272">- State machine updates</text><text fill="#000000" font-family="Verdana" font-size="13" lengthAdjust="spacing" textLength="125.2266" x="295.085" y="1751.7266">- Resource cleanup</text><text fill="#000000" font-family="Verdana" font-size="13" lengthAdjust="spacing" textLength="133.6055" x="295.085" y="1767.5259">- Recovery attempts</text><rect fill="#FFFFE0" height="34.584" rx="12.5" ry="12.5" style="stroke:#000000;stroke-width:1;" width="131.1172" x="137.9678" y="1713.4651"/><text fill="#000000" font-family="Verdana" font-size="12" lengthAdjust="spacing" textLength="111.1172" x="147.9678" y="1735.5295">Update error state</text><rect fill="#FFFFE0" height="34.584" rx="12.5" ry="12.5" style="stroke:#000000;stroke-width:1;" width="186.8633" x="514.0337" y="1571.4629"/><text fill="#000000" font-family="Verdana" font-size="12" lengthAdjust="spacing" textLength="166.8633" x="524.0337" y="1593.5273">Normal operation continues</text><polygon fill="#FFFFE0" points="405.4958,1781.2554,417.4958,1793.2554,405.4958,1805.2554,393.4958,1793.2554,405.4958,1781.2554" style="stroke:#000000;stroke-width:1;"/><path d="M144.3938,1837.2554 L144.3938,1973.6499 L384.4958,1973.6499 L384.4958,1847.2554 L374.4958,1837.2554 L144.3938,1837.2554" fill="#FFFFFF" style="stroke:#000000;stroke-width:1;"/><path d="M374.4958,1837.2554 L374.4958,1847.2554 L384.4958,1847.2554 L374.4958,1837.2554" fill="#FFFFFF" style="stroke:#000000;stroke-width:1;"/><text fill="#000000" font-family="Verdana" font-size="13" font-weight="bold" lengthAdjust="spacing" textLength="163.7441" x="150.3938" y="1855.3252">MsQuic Core Features:</text><text fill="#000000" font-family="Verdana" font-size="13" lengthAdjust="spacing" textLength="219.1021" x="150.3938" y="1871.1245">- RFC 9000 QUIC implementation</text><text fill="#000000" font-family="Verdana" font-size="13" lengthAdjust="spacing" textLength="180.2734" x="150.3938" y="1886.9238">- Multi-threaded processing</text><text fill="#000000" font-family="Verdana" font-size="13" lengthAdjust="spacing" textLength="177.0361" x="150.3938" y="1902.7231">- Event-driven architecture</text><text fill="#000000" font-family="Verdana" font-size="13" lengthAdjust="spacing" textLength="195.3555" x="150.3938" y="1918.5225">- State machine management</text><text fill="#000000" font-family="Verdana" font-size="13" lengthAdjust="spacing" textLength="151.4043" x="150.3938" y="1934.3218">- Network I/O handling</text><text fill="#000000" font-family="Verdana" font-size="13" lengthAdjust="spacing" textLength="110.1001" x="150.3938" y="1950.1211">- TLS integration</text><text fill="#000000" font-family="Verdana" font-size="13" lengthAdjust="spacing" textLength="165.8452" x="150.3938" y="1965.9204">- Flow/congestion control</text><path d="M426.4958,1853.0547 L426.4958,1957.8506 L659.7043,1957.8506 L659.7043,1863.0547 L649.7043,1853.0547 L426.4958,1853.0547" fill="#FFFFFF" style="stroke:#000000;stroke-width:1;"/><path d="M649.7043,1853.0547 L649.7043,1863.0547 L659.7043,1863.0547 L649.7043,1853.0547" fill="#FFFFFF" style="stroke:#000000;stroke-width:1;"/><text fill="#000000" font-family="Verdana" font-size="13" font-weight="bold" lengthAdjust="spacing" textLength="166.918" x="432.4958" y="1871.1245">Performance Features:</text><text fill="#000000" font-family="Verdana" font-size="13" lengthAdjust="spacing" textLength="154.248" x="432.4958" y="1886.9238">- Zero-copy networking</text><text fill="#000000" font-family="Verdana" font-size="13" lengthAdjust="spacing" textLength="212.2085" x="432.4958" y="1902.7231">- Efficient memory management</text><text fill="#000000" font-family="Verdana" font-size="13" lengthAdjust="spacing" textLength="198.2563" x="432.4958" y="1918.5225">- Optimized packet processing</text><text fill="#000000" font-family="Verdana" font-size="13" lengthAdjust="spacing" textLength="136.3984" x="432.4958" y="1934.3218">- Batched operations</text><text fill="#000000" font-family="Verdana" font-size="13" lengthAdjust="spacing" textLength="175.4111" x="432.4958" y="1950.1211">- Lock-free data structures</text><ellipse cx="405.4958" cy="1905.4526" fill="none" rx="11" ry="11" style="stroke:#000000;stroke-width:1;"/><ellipse cx="405.4958" cy="1905.4526" fill="#FFFFFF" rx="6" ry="6" style="stroke:#000000;stroke-width:1;"/><line style="stroke:#000000;stroke-width:1;" x1="405.4958" x2="405.4958" y1="157.3359" y2="198.0496"/><polygon fill="#000000" points="401.4958,188.0496,405.4958,198.0496,409.4958,188.0496,405.4958,192.0496" style="stroke:#000000;stroke-width:1;"/><line style="stroke:#000000;stroke-width:1;" x1="405.4958" x2="405.4958" y1="232.6335" y2="304.9458"/><polygon fill="#000000" points="401.4958,294.9458,405.4958,304.9458,409.4958,294.9458,405.4958,298.9458" style="stroke:#000000;stroke-width:1;"/><line style="stroke:#000000;stroke-width:1;" x1="405.4958" x2="405.4958" y1="72.7373" y2="122.752"/><polygon fill="#000000" points="401.4958,112.752,405.4958,122.752,409.4958,112.752,405.4958,116.752" style="stroke:#000000;stroke-width:1;"/><line style="stroke:#000000;stroke-width:1;" x1="131.5732" x2="131.5732" y1="537.3403" y2="609.6526"/><polygon fill="#000000" points="127.5732,599.6526,131.5732,609.6526,135.5732,599.6526,131.5732,603.6526" style="stroke:#000000;stroke-width:1;"/><line style="stroke:#000000;stroke-width:1;" x1="131.5732" x2="131.5732" y1="644.2366" y2="692.8499"/><polygon fill="#000000" points="127.5732,682.8499,131.5732,692.8499,135.5732,682.8499,131.5732,686.8499" style="stroke:#000000;stroke-width:1;"/><line style="stroke:#000000;stroke-width:1;" x1="313.2678" x2="131.5732" y1="445.6504" y2="445.6504"/><line style="stroke:#000000;stroke-width:1;" x1="131.5732" x2="131.5732" y1="445.6504" y2="502.7563"/><polygon fill="#000000" points="127.5732,492.7563,131.5732,502.7563,135.5732,492.7563,131.5732,496.7563" style="stroke:#000000;stroke-width:1;"/><line style="stroke:#000000;stroke-width:1;" x1="497.7239" x2="679.4185" y1="445.6504" y2="445.6504"/><line style="stroke:#000000;stroke-width:1;" x1="679.4185" x2="679.4185" y1="445.6504" y2="486.957"/><polygon fill="#000000" points="675.4185,476.957,679.4185,486.957,683.4185,476.957,679.4185,480.957" style="stroke:#000000;stroke-width:1;"/><line style="stroke:#000000;stroke-width:1;" x1="131.5732" x2="131.5732" y1="727.4338" y2="756.8408"/><line style="stroke:#000000;stroke-width:1;" x1="131.5732" x2="393.4958" y1="756.8408" y2="756.8408"/><polygon fill="#000000" points="383.4958,752.8408,393.4958,756.8408,383.4958,760.8408,387.4958,756.8408" style="stroke:#000000;stroke-width:1;"/><line style="stroke:#000000;stroke-width:1;" x1="679.4185" x2="679.4185" y1="521.541" y2="756.8408"/><line style="stroke:#000000;stroke-width:1;" x1="679.4185" x2="417.4958" y1="756.8408" y2="756.8408"/><polygon fill="#000000" points="427.4958,752.8408,417.4958,756.8408,427.4958,760.8408,423.4958,756.8408" style="stroke:#000000;stroke-width:1;"/><line style="stroke:#000000;stroke-width:1;" x1="405.4958" x2="405.4958" y1="339.5298" y2="433.6504"/><polygon fill="#000000" points="401.4958,423.6504,405.4958,433.6504,409.4958,423.6504,405.4958,427.6504" style="stroke:#000000;stroke-width:1;"/><line style="stroke:#000000;stroke-width:1;" x1="405.4958" x2="405.4958" y1="882.6458" y2="947.0583"/><polygon fill="#000000" points="401.4958,937.0583,405.4958,947.0583,409.4958,937.0583,405.4958,941.0583" style="stroke:#000000;stroke-width:1;"/><line style="stroke:#000000;stroke-width:1;" x1="405.4958" x2="405.4958" y1="981.6423" y2="1053.9546"/><polygon fill="#000000" points="401.4958,1043.9546,405.4958,1053.9546,409.4958,1043.9546,405.4958,1047.9546" style="stroke:#000000;stroke-width:1;"/><line style="stroke:#000000;stroke-width:1;" x1="405.4958" x2="405.4958" y1="1088.5386" y2="1160.8508"/><polygon fill="#000000" points="401.4958,1150.8508,405.4958,1160.8508,409.4958,1150.8508,405.4958,1154.8508" style="stroke:#000000;stroke-width:1;"/><line style="stroke:#000000;stroke-width:1;" x1="405.4958" x2="405.4958" y1="768.8408" y2="848.0618"/><polygon fill="#000000" points="401.4958,838.0618,405.4958,848.0618,409.4958,838.0618,405.4958,842.0618" style="stroke:#000000;stroke-width:1;"/><line style="stroke:#000000;stroke-width:1;" x1="405.4958" x2="405.4958" y1="1344.3457" y2="1416.658"/><polygon fill="#000000" points="401.4958,1406.658,405.4958,1416.658,409.4958,1406.658,405.4958,1410.658" style="stroke:#000000;stroke-width:1;"/><line style="stroke:#000000;stroke-width:1;" x1="405.4958" x2="405.4958" y1="1195.4348" y2="1309.7617"/><polygon fill="#000000" points="401.4958,1299.7617,405.4958,1309.7617,409.4958,1299.7617,405.4958,1303.7617" style="stroke:#000000;stroke-width:1;"/><line style="stroke:#000000;stroke-width:1;" x1="203.5264" x2="203.5264" y1="1641.1528" y2="1713.4651"/><polygon fill="#000000" points="199.5264,1703.4651,203.5264,1713.4651,207.5264,1703.4651,203.5264,1707.4651" style="stroke:#000000;stroke-width:1;"/><line style="stroke:#000000;stroke-width:1;" x1="350.7581" x2="203.5264" y1="1549.4629" y2="1549.4629"/><line style="stroke:#000000;stroke-width:1;" x1="203.5264" x2="203.5264" y1="1549.4629" y2="1606.5688"/><polygon fill="#000000" points="199.5264,1596.5688,203.5264,1606.5688,207.5264,1596.5688,203.5264,1600.5688" style="stroke:#000000;stroke-width:1;"/><line style="stroke:#000000;stroke-width:1;" x1="460.2336" x2="607.4653" y1="1549.4629" y2="1549.4629"/><line style="stroke:#000000;stroke-width:1;" x1="607.4653" x2="607.4653" y1="1549.4629" y2="1571.4629"/><polygon fill="#000000" points="603.4653,1561.4629,607.4653,1571.4629,611.4653,1561.4629,607.4653,1565.4629" style="stroke:#000000;stroke-width:1;"/><line style="stroke:#000000;stroke-width:1;" x1="203.5264" x2="203.5264" y1="1748.0491" y2="1793.2554"/><line style="stroke:#000000;stroke-width:1;" x1="203.5264" x2="393.4958" y1="1793.2554" y2="1793.2554"/><polygon fill="#000000" points="383.4958,1789.2554,393.4958,1793.2554,383.4958,1797.2554,387.4958,1793.2554" style="stroke:#000000;stroke-width:1;"/><line style="stroke:#000000;stroke-width:1;" x1="607.4653" x2="607.4653" y1="1606.0469" y2="1793.2554"/><line style="stroke:#000000;stroke-width:1;" x1="607.4653" x2="417.4958" y1="1793.2554" y2="1793.2554"/><polygon fill="#000000" points="427.4958,1789.2554,417.4958,1793.2554,427.4958,1797.2554,423.4958,1793.2554" style="stroke:#000000;stroke-width:1;"/><line style="stroke:#000000;stroke-width:1;" x1="405.4958" x2="405.4958" y1="1451.2419" y2="1537.4629"/><polygon fill="#000000" points="401.4958,1527.4629,405.4958,1537.4629,409.4958,1527.4629,405.4958,1531.4629" style="stroke:#000000;stroke-width:1;"/><line style="stroke:#000000;stroke-width:1;" x1="405.4958" x2="405.4958" y1="1805.2554" y2="1894.4526"/><polygon fill="#000000" points="401.4958,1884.4526,405.4958,1894.4526,409.4958,1884.4526,405.4958,1888.4526" style="stroke:#000000;stroke-width:1;"/><!--SRC=[XLVDRkCs4BxhATWzPGqOoRNfeV3QpjRO9FRQJe7sKZ3Io6PDaG99EUjTBB2lqLlHL-cRx9Dq-2E9ikJq5el3uVnyytsJ7ymU2Y0bfqma-i14IHKj24qDEp9p8byIGjxHzB1JiXBPL7Af26UxlJa1v_B5dagLWV8dpnnDyTj4AVaIV_gQ98OP3kH1VwnOIgPI0PaVGHYoKZ85hPdO9OasL9aamHZGcab1ten6azKYiXcDthYORjUG0Zi2iSSfvPpaIXPaKfQSfTJTlQSdK3-XhP06YB91uu_HQ0qvA10ftFRDoOpH7HPWD4BJy8Hktj3-4ThUGYiGcNi1_xHnXL2REmC1T3EwTM-DoQ-KiuoYeUi0653QVNygtLVv_2UaXc25t5DZiaM7EuoO2JGLbBkUIU4lFL11T_WcQ5afVAWVPt3Rt7QE1u9Tr0ORQn2YqNNGKoa4k7Uz0rBGTCy4-2WsHW62QU3a3h53KYcCafoyC9795rqxt85s3iEnJvOLc6hXiYeGDN4-Nyy0us4rFr9UkHxLa64vkV9d0Y3Jn4Zo32G3ZZrMaFtybk0i279r0lqMpR56Czk50eCEKDsUIbUYioBPCdc3AQVOqpo0mnV9Xly8vaMg0m5hfSbLYJC19ZnJPrSV6lmbg_OKuJ8sljcG1Qjmv7kIxYaMhNionmbKjeGPgr7HWO030QRuiO8A752VCIRluzKKxOK6jUubzxbKJ2fywdCz5gwPjLlRIlY4w0LJbU5mLSCSxuB5V7HnkqVWP4JJ7923EcqVp69ZlxdORLURPziXkv1IH0K3bseoq27NkMyGCg71Hk13I0HAOkOq1DEK4HkISJ_0_NY1Qo1NGWQG8U8D4zY4yl-YRKRnd3nQA5H-F8aK_5HZJyQ4PRqs00qMBRyJMO9lH2zq_9FblLchWNrEvGrDhnpIaOWSbMQUG8M_DS0s7NyDoppDLgHi7PKXzZ7v-BIOrYSObnCHHoyMMb51pxcAPUW-BiCvYQClYBqFX1eownDvzCvYHhYK1uTvYtXtGrJ5CwB-wFc-JcK6gJgrcVaCS6QKf_NBGkEYpAsv7eZI- -a7kTckvvE7S8_y-y_tRtz___PNpTWO5tLca-c7diqaFGZvmY7R5O5mCEVbu-Dykbqi7_-OtYytyzPwwnYqpNEw_csrNVQS_e8Je_VquBLjDjbEtgy7ufjXO6uaBmfQsbJ_MaVoCr2QGK7h25EOfjU4gIDndeZri3AsXnULo-l0nLaACl6fP2W40mb5rvjy5iX392YA-x06X9JG1KFV-6fyz06W75ChXvtFJMiwN-ybOYz3_lOvjaSNO1eCBeID9mCWRSWZ3lcykkOCO44JEL0HvivhuGu4gDwyzvO7PsjJvb7ftUhWJcIQLcfuMtZl7y2fTPQlIgcpiEk4RXaSypSoHTWTcUGH2KVhWxrMVro7tGu1iQULZcLNYfpjAfzizzBsVXD_693IC4O-XsPqBkRWg_tGA7Iq5uGD90DYbwATQ0Iyxb7O2ACnw-JLjj1_JYNkQIT2ZO6YD7s1wihgerG5IcKZQ6vghSuwbcpKJ1jP9ebBZaDkaj4e_W_b3gYfb6yIXd0t9J_UtDnuocL5oLtA7bEuSrVSiB5ngmigNQG-OKaQPmfdIn2gC6yxEEWwEIz6jEoqZLzSB_rEuRtPBjh5VQVgjorjNQTzYchgaqJzG-q2bTlwuEPpbkFleEGubUMf5kaGVuvYoIml5L18TUg6kKJTAjXdctJGuZZtTzIaU-Zi5fO-qiCuLm1EQn1egdBrq4t8_m40]--></g></svg>