<svg xmlns="http://www.w3.org/2000/svg" xmlns:xlink="http://www.w3.org/1999/xlink" contentStyleType="text/css" data-diagram-type="SEQUENCE" height="991px" preserveAspectRatio="none" style="width:1105px;height:991px;background:#FFFFFF;" version="1.1" viewBox="0 0 1105 991" width="1105px" zoomAndPan="magnify"><defs/><g><g><title>User .Sr. Principal SDE.</title><rect fill="#000000" fill-opacity="0.00000" height="826.7891" width="8" x="79.4585" y="82.6094"/><line style="stroke:#181818;stroke-width:0.5;stroke-dasharray:5,5;" x1="83" x2="83" y1="82.6094" y2="909.3984"/></g><g><title>GoDaddy</title><rect fill="#000000" fill-opacity="0.00000" height="826.7891" width="8" x="383.0474" y="82.6094"/><line style="stroke:#181818;stroke-width:0.5;stroke-dasharray:5,5;" x1="386.2646" x2="386.2646" y1="82.6094" y2="909.3984"/></g><g><title>Namecheap</title><rect fill="#000000" fill-opacity="0.00000" height="826.7891" width="8" x="537.1045" y="82.6094"/><line style="stroke:#181818;stroke-width:0.5;stroke-dasharray:5,5;" x1="540.3633" x2="540.3633" y1="82.6094" y2="909.3984"/></g><g><title>Chrome Browser</title><rect fill="#000000" fill-opacity="0.00000" height="826.7891" width="8" x="679.3594" y="82.6094"/><line style="stroke:#181818;stroke-width:0.5;stroke-dasharray:5,5;" x1="682.8457" x2="682.8457" y1="82.6094" y2="909.3984"/></g><g><title>Test QUIC.WebTransport Server</title><rect fill="#000000" fill-opacity="0.00000" height="826.7891" width="8" x="980.479" y="82.6094"/><line style="stroke:#181818;stroke-width:0.5;stroke-dasharray:5,5;" x1="983.5654" x2="983.5654" y1="82.6094" y2="909.3984"/></g><g class="participant participant-head" data-participant="User"><text fill="#000000" font-family="sans-serif" font-size="14" lengthAdjust="spacing" textLength="150.917" x="5" y="79.5332">User (Sr. Principal SDE)</text><ellipse cx="83.4585" cy="13.5" fill="#E2E2F0" rx="8" ry="8" style="stroke:#181818;stroke-width:0.5;"/><path d="M83.4585,21.5 L83.4585,48.5 M70.4585,29.5 L96.4585,29.5 M83.4585,48.5 L70.4585,63.5 M83.4585,48.5 L96.4585,63.5" fill="none" style="stroke:#181818;stroke-width:0.5;"/></g><g class="participant participant-tail" data-participant="User"><text fill="#000000" font-family="sans-serif" font-size="14" lengthAdjust="spacing" textLength="150.917" x="5" y="922.9316">User (Sr. Principal SDE)</text><ellipse cx="83.4585" cy="934.5078" fill="#E2E2F0" rx="8" ry="8" style="stroke:#181818;stroke-width:0.5;"/><path d="M83.4585,942.5078 L83.4585,969.5078 M70.4585,950.5078 L96.4585,950.5078 M83.4585,969.5078 L70.4585,984.5078 M83.4585,969.5078 L96.4585,984.5078" fill="none" style="stroke:#181818;stroke-width:0.5;"/></g><g class="participant participant-head" data-participant="GoDaddy"><rect fill="#E2E2F0" height="49.2188" rx="2.5" ry="2.5" style="stroke:#181818;stroke-width:0.5;" width="113.5654" x="330.2646" y="32.3906"/><text fill="#000000" font-family="sans-serif" font-size="14" lengthAdjust="spacing" textLength="59.1445" x="357.4751" y="53.9238">GoDaddy</text><text fill="#000000" font-family="sans-serif" font-size="14" lengthAdjust="spacing" textLength="99.5654" x="337.2646" y="71.5332">(DNS Registrar)</text></g><g class="participant participant-tail" data-participant="GoDaddy"><rect fill="#E2E2F0" height="49.2188" rx="2.5" ry="2.5" style="stroke:#181818;stroke-width:0.5;" width="113.5654" x="330.2646" y="908.3984"/><text fill="#000000" font-family="sans-serif" font-size="14" lengthAdjust="spacing" textLength="59.1445" x="357.4751" y="929.9316">GoDaddy</text><text fill="#000000" font-family="sans-serif" font-size="14" lengthAdjust="spacing" textLength="99.5654" x="337.2646" y="947.541">(DNS Registrar)</text></g><g class="participant participant-head" data-participant="Namecheap"><rect fill="#E2E2F0" height="49.2188" rx="2.5" ry="2.5" style="stroke:#181818;stroke-width:0.5;" width="145.4824" x="468.3633" y="32.3906"/><text fill="#000000" font-family="sans-serif" font-size="14" lengthAdjust="spacing" textLength="75.4893" x="503.3599" y="53.9238">Namecheap</text><text fill="#000000" font-family="sans-serif" font-size="14" lengthAdjust="spacing" textLength="131.4824" x="475.3633" y="71.5332">(Certificate Authority)</text></g><g class="participant participant-tail" data-participant="Namecheap"><rect fill="#E2E2F0" height="49.2188" rx="2.5" ry="2.5" style="stroke:#181818;stroke-width:0.5;" width="145.4824" x="468.3633" y="908.3984"/><text fill="#000000" font-family="sans-serif" font-size="14" lengthAdjust="spacing" textLength="75.4893" x="503.3599" y="929.9316">Namecheap</text><text fill="#000000" font-family="sans-serif" font-size="14" lengthAdjust="spacing" textLength="131.4824" x="475.3633" y="947.541">(Certificate Authority)</text></g><g class="participant participant-head" data-participant="Chrome"><rect fill="#E2E2F0" height="31.6094" rx="2.5" ry="2.5" style="stroke:#181818;stroke-width:0.5;" width="119.0273" x="623.8457" y="50"/><text fill="#000000" font-family="sans-serif" font-size="14" lengthAdjust="spacing" textLength="105.0273" x="630.8457" y="71.5332">Chrome Browser</text></g><g class="participant participant-tail" data-participant="Chrome"><rect fill="#E2E2F0" height="31.6094" rx="2.5" ry="2.5" style="stroke:#181818;stroke-width:0.5;" width="119.0273" x="623.8457" y="908.3984"/><text fill="#000000" font-family="sans-serif" font-size="14" lengthAdjust="spacing" textLength="105.0273" x="630.8457" y="929.9316">Chrome Browser</text></g><g class="participant participant-head" data-participant="Server"><rect fill="#E2E2F0" height="49.2188" rx="2.5" ry="2.5" style="stroke:#181818;stroke-width:0.5;" width="217.8271" x="875.5654" y="32.3906"/><text fill="#000000" font-family="sans-serif" font-size="14" lengthAdjust="spacing" textLength="203.8271" x="882.5654" y="53.9238">Test QUIC/WebTransport Server</text><text fill="#000000" font-family="sans-serif" font-size="14" lengthAdjust="spacing" textLength="98.4033" x="935.2773" y="71.5332">(MsQuic + TLS)</text></g><g class="participant participant-tail" data-participant="Server"><rect fill="#E2E2F0" height="49.2188" rx="2.5" ry="2.5" style="stroke:#181818;stroke-width:0.5;" width="217.8271" x="875.5654" y="908.3984"/><text fill="#000000" font-family="sans-serif" font-size="14" lengthAdjust="spacing" textLength="203.8271" x="882.5654" y="929.9316">Test QUIC/WebTransport Server</text><text fill="#000000" font-family="sans-serif" font-size="14" lengthAdjust="spacing" textLength="98.4033" x="935.2773" y="947.541">(MsQuic + TLS)</text></g><rect fill="#EEEEEE" height="3" style="stroke:#EEEEEE;stroke-width:1;" width="1098.3926" x="0" y="113.7852"/><line style="stroke:#000000;stroke-width:1;" x1="0" x2="1098.3926" y1="113.7852" y2="113.7852"/><line style="stroke:#000000;stroke-width:1;" x1="0" x2="1098.3926" y1="116.7852" y2="116.7852"/><rect fill="#EEEEEE" height="24.3516" style="stroke:#000000;stroke-width:2;" width="242.2427" x="428.075" y="102.6094"/><text fill="#000000" font-family="sans-serif" font-size="13" font-weight="bold" lengthAdjust="spacing" textLength="224.6309" x="434.075" y="120.1045">Domain Registration and DNS Setup</text><g class="message" data-participant-1="User" data-participant-2="GoDaddy"><polygon fill="#181818" points="375.0474,155.3125,385.0474,159.3125,375.0474,163.3125,379.0474,159.3125" style="stroke:#181818;stroke-width:1;"/><line style="stroke:#181818;stroke-width:1;" x1="83.4585" x2="381.0474" y1="159.3125" y2="159.3125"/><text fill="#000000" font-family="sans-serif" font-size="13" lengthAdjust="spacing" textLength="200.1353" x="90.4585" y="154.4561">Register Domain (e.g. bmobile.biz)</text></g><g class="message" data-participant-1="User" data-participant-2="GoDaddy"><polygon fill="#181818" points="375.0474,185.6641,385.0474,189.6641,375.0474,193.6641,379.0474,189.6641" style="stroke:#181818;stroke-width:1;"/><line style="stroke:#181818;stroke-width:1;" x1="83.4585" x2="381.0474" y1="189.6641" y2="189.6641"/><text fill="#000000" font-family="sans-serif" font-size="13" lengthAdjust="spacing" textLength="200.9033" x="90.4585" y="184.8076">Login to GoDaddy DNS dashboard</text></g><g class="message" data-participant-1="User" data-participant-2="GoDaddy"><polygon fill="#181818" points="375.0474,216.0156,385.0474,220.0156,375.0474,224.0156,379.0474,220.0156" style="stroke:#181818;stroke-width:1;"/><line style="stroke:#181818;stroke-width:1;" x1="83.4585" x2="381.0474" y1="220.0156" y2="220.0156"/><text fill="#000000" font-family="sans-serif" font-size="13" lengthAdjust="spacing" textLength="260.1333" x="90.4585" y="215.1592">Create Subdomain (e.g. testquic.bmobile.biz)</text></g><rect fill="#EEEEEE" height="3" style="stroke:#EEEEEE;stroke-width:1;" width="1098.3926" x="0" y="249.1914"/><line style="stroke:#000000;stroke-width:1;" x1="0" x2="1098.3926" y1="249.1914" y2="249.1914"/><line style="stroke:#000000;stroke-width:1;" x1="0" x2="1098.3926" y1="252.1914" y2="252.1914"/><rect fill="#EEEEEE" height="24.3516" style="stroke:#000000;stroke-width:2;" width="209.7808" x="444.3059" y="238.0156"/><text fill="#000000" font-family="sans-serif" font-size="13" font-weight="bold" lengthAdjust="spacing" textLength="192.1689" x="450.3059" y="255.5107">Certificate Purchase and Setup</text><g class="message" data-participant-1="User" data-participant-2="Namecheap"><polygon fill="#181818" points="529.1045,290.7188,539.1045,294.7188,529.1045,298.7188,533.1045,294.7188" style="stroke:#181818;stroke-width:1;"/><line style="stroke:#181818;stroke-width:1;" x1="83.4585" x2="535.1045" y1="294.7188" y2="294.7188"/><text fill="#000000" font-family="sans-serif" font-size="13" lengthAdjust="spacing" textLength="163.2744" x="90.4585" y="289.8623">Purchase DV SSL Cert (5yr)</text></g><g class="message" data-participant-1="User" data-participant-2="Namecheap"><polygon fill="#181818" points="529.1045,321.0703,539.1045,325.0703,529.1045,329.0703,533.1045,325.0703" style="stroke:#181818;stroke-width:1;"/><line style="stroke:#181818;stroke-width:1;" x1="83.4585" x2="535.1045" y1="325.0703" y2="325.0703"/><text fill="#000000" font-family="sans-serif" font-size="13" lengthAdjust="spacing" textLength="149.5571" x="90.4585" y="320.2139">Start Certificate Activation</text></g><g class="message" data-participant-1="Namecheap" data-participant-2="User"><polygon fill="#181818" points="94.4585,351.4219,84.4585,355.4219,94.4585,359.4219,90.4585,355.4219" style="stroke:#181818;stroke-width:1;"/><line style="stroke:#181818;stroke-width:1;" x1="88.4585" x2="540.1045" y1="355.4219" y2="355.4219"/><text fill="#000000" font-family="sans-serif" font-size="13" lengthAdjust="spacing" textLength="198.3643" x="100.4585" y="350.5654">Request CSR + Validation Method</text></g><g class="message" data-participant-1="User" data-participant-2="Server"><polygon fill="#181818" points="972.479,381.7734,982.479,385.7734,972.479,389.7734,976.479,385.7734" style="stroke:#181818;stroke-width:1;"/><line style="stroke:#181818;stroke-width:1;" x1="83.4585" x2="978.479" y1="385.7734" y2="385.7734"/><text fill="#000000" font-family="sans-serif" font-size="13" lengthAdjust="spacing" textLength="332.7441" x="90.4585" y="380.917">Generate CSR using OpenSSL (CN=testquic.bmobile.biz)</text></g><g class="message" data-participant-1="User" data-participant-2="Namecheap"><polygon fill="#181818" points="529.1045,412.125,539.1045,416.125,529.1045,420.125,533.1045,416.125" style="stroke:#181818;stroke-width:1;"/><line style="stroke:#181818;stroke-width:1;" x1="83.4585" x2="535.1045" y1="416.125" y2="416.125"/><text fill="#000000" font-family="sans-serif" font-size="13" lengthAdjust="spacing" textLength="72.2554" x="90.4585" y="411.2686">Upload CSR</text></g><g class="message" data-participant-1="User" data-participant-2="GoDaddy"><polygon fill="#181818" points="375.0474,442.4766,385.0474,446.4766,375.0474,450.4766,379.0474,446.4766" style="stroke:#181818;stroke-width:1;"/><line style="stroke:#181818;stroke-width:1;" x1="83.4585" x2="381.0474" y1="446.4766" y2="446.4766"/><text fill="#000000" font-family="sans-serif" font-size="13" lengthAdjust="spacing" textLength="279.5889" x="90.4585" y="441.6201">Create DNS TXT Record (for DNS-01 validation)</text></g><g class="message" data-participant-1="Namecheap" data-participant-2="GoDaddy"><polygon fill="#181818" points="398.0474,472.8281,388.0474,476.8281,398.0474,480.8281,394.0474,476.8281" style="stroke:#181818;stroke-width:1;"/><line style="stroke:#181818;stroke-width:1;" x1="392.0474" x2="540.1045" y1="476.8281" y2="476.8281"/><text fill="#000000" font-family="sans-serif" font-size="13" lengthAdjust="spacing" textLength="130.0571" x="404.0474" y="471.9717">Poll for DNS validation</text></g><g class="message" data-participant-1="GoDaddy" data-participant-2="Namecheap"><polygon fill="#181818" points="529.1045,503.1797,539.1045,507.1797,529.1045,511.1797,533.1045,507.1797" style="stroke:#181818;stroke-width:1;"/><line style="stroke:#181818;stroke-width:1;" x1="387.0474" x2="535.1045" y1="507.1797" y2="507.1797"/><text fill="#000000" font-family="sans-serif" font-size="13" lengthAdjust="spacing" textLength="114.1309" x="394.0474" y="502.3232">Confirm TXT record</text></g><g class="message" data-participant-1="Namecheap" data-participant-2="User"><polygon fill="#181818" points="94.4585,533.5313,84.4585,537.5313,94.4585,541.5313,90.4585,537.5313" style="stroke:#181818;stroke-width:1;"/><line style="stroke:#181818;stroke-width:1;" x1="88.4585" x2="540.1045" y1="537.5313" y2="537.5313"/><text fill="#000000" font-family="sans-serif" font-size="13" lengthAdjust="spacing" textLength="243.1406" x="100.4585" y="532.6748">Issue Signed Certificate (.crt + CA bundle)</text></g><rect fill="#EEEEEE" height="3" style="stroke:#EEEEEE;stroke-width:1;" width="1098.3926" x="0" y="566.707"/><line style="stroke:#000000;stroke-width:1;" x1="0" x2="1098.3926" y1="566.707" y2="566.707"/><line style="stroke:#000000;stroke-width:1;" x1="0" x2="1098.3926" y1="569.707" y2="569.707"/><rect fill="#EEEEEE" height="24.3516" style="stroke:#000000;stroke-width:2;" width="245.8608" x="426.2659" y="555.5313"/><text fill="#000000" font-family="sans-serif" font-size="13" font-weight="bold" lengthAdjust="spacing" textLength="228.249" x="432.2659" y="573.0264">Server Installation and Configuration</text><g class="message" data-participant-1="User" data-participant-2="Server"><polygon fill="#181818" points="972.479,608.2344,982.479,612.2344,972.479,616.2344,976.479,612.2344" style="stroke:#181818;stroke-width:1;"/><line style="stroke:#181818;stroke-width:1;" x1="83.4585" x2="978.479" y1="612.2344" y2="612.2344"/><text fill="#000000" font-family="sans-serif" font-size="13" lengthAdjust="spacing" textLength="243.8135" x="90.4585" y="607.3779">Install Private Key (.key) + Certificate (.crt)</text></g><g class="message" data-participant-1="User" data-participant-2="Server"><polygon fill="#181818" points="972.479,638.5859,982.479,642.5859,972.479,646.5859,976.479,642.5859" style="stroke:#181818;stroke-width:1;"/><line style="stroke:#181818;stroke-width:1;" x1="83.4585" x2="978.479" y1="642.5859" y2="642.5859"/><text fill="#000000" font-family="sans-serif" font-size="13" lengthAdjust="spacing" textLength="240.6143" x="90.4585" y="637.7295">Configure MsQuic to load certificate chain</text></g><g class="message" data-participant-1="User" data-participant-2="Server"><polygon fill="#181818" points="972.479,668.9375,982.479,672.9375,972.479,676.9375,976.479,672.9375" style="stroke:#181818;stroke-width:1;"/><line style="stroke:#181818;stroke-width:1;" x1="83.4585" x2="978.479" y1="672.9375" y2="672.9375"/><text fill="#000000" font-family="sans-serif" font-size="13" lengthAdjust="spacing" textLength="237.7388" x="90.4585" y="668.0811">Bind to testquic.bmobile.biz:443 with TLS</text></g><rect fill="#EEEEEE" height="3" style="stroke:#EEEEEE;stroke-width:1;" width="1098.3926" x="0" y="702.1133"/><line style="stroke:#000000;stroke-width:1;" x1="0" x2="1098.3926" y1="702.1133" y2="702.1133"/><line style="stroke:#000000;stroke-width:1;" x1="0" x2="1098.3926" y1="705.1133" y2="705.1133"/><rect fill="#EEEEEE" height="24.3516" style="stroke:#000000;stroke-width:2;" width="151.2363" x="473.5781" y="690.9375"/><text fill="#000000" font-family="sans-serif" font-size="13" font-weight="bold" lengthAdjust="spacing" textLength="133.6245" x="479.5781" y="708.4326">Client-Side Validation</text><g class="message" data-participant-1="User" data-participant-2="Chrome"><polygon fill="#181818" points="671.3594,743.6406,681.3594,747.6406,671.3594,751.6406,675.3594,747.6406" style="stroke:#181818;stroke-width:1;"/><line style="stroke:#181818;stroke-width:1;" x1="83.4585" x2="677.3594" y1="747.6406" y2="747.6406"/><text fill="#000000" font-family="sans-serif" font-size="13" lengthAdjust="spacing" textLength="222.5615" x="90.4585" y="742.7842">Navigate to https://testquic.bmobile.biz</text></g><g class="message" data-participant-1="Chrome" data-participant-2="Server"><polygon fill="#181818" points="972.479,773.9922,982.479,777.9922,972.479,781.9922,976.479,777.9922" style="stroke:#181818;stroke-width:1;"/><line style="stroke:#181818;stroke-width:1;" x1="683.3594" x2="978.479" y1="777.9922" y2="777.9922"/><text fill="#000000" font-family="sans-serif" font-size="13" lengthAdjust="spacing" textLength="241.3062" x="690.3594" y="773.1357">QUIC + HTTP/3 + WebTransport Request</text></g><g class="message" data-participant-1="Server" data-participant-2="Chrome"><polygon fill="#181818" points="694.3594,804.3438,684.3594,808.3438,694.3594,812.3438,690.3594,808.3438" style="stroke:#181818;stroke-width:1;"/><line style="stroke:#181818;stroke-width:1;" x1="688.3594" x2="983.479" y1="808.3438" y2="808.3438"/><text fill="#000000" font-family="sans-serif" font-size="13" lengthAdjust="spacing" textLength="277.1196" x="700.3594" y="803.4873">Respond with 200 OK + WebTransport Upgrade</text></g><g class="message" data-participant-1="Chrome" data-participant-2="Server"><polygon fill="#181818" points="972.479,834.6953,982.479,838.6953,972.479,842.6953,976.479,838.6953" style="stroke:#181818;stroke-width:1;"/><line style="stroke:#181818;stroke-width:1;" x1="683.3594" x2="978.479" y1="838.6953" y2="838.6953"/><text fill="#000000" font-family="sans-serif" font-size="13" lengthAdjust="spacing" textLength="240.6143" x="690.3594" y="833.8389">Open Bidirectional/Unidirectional Streams</text></g><path d="M688,851.6953 L688,893.6953 L905,893.6953 L905,861.6953 L895,851.6953 L688,851.6953" fill="#FEFFDD" style="stroke:#181818;stroke-width:0.5;"/><path d="M895,851.6953 L895,861.6953 L905,861.6953 L895,851.6953" fill="#FEFFDD" style="stroke:#181818;stroke-width:0.5;"/><text fill="#000000" font-family="sans-serif" font-size="13" lengthAdjust="spacing" textLength="156.7935" x="694" y="870.1904">If cert trusted, no warnings.</text><text fill="#000000" font-family="sans-serif" font-size="13" lengthAdjust="spacing" textLength="196.5171" x="694" y="886.542">If misconfigured, cert error shown.</text><!--SRC=[TLHDSvim4BtpAtPomfCQfqrwyOmxa-1EwicN4t3QGoy2hK5JB159sEF- -gu0sv3Gcys-fxVlxKeijKh3sSgW1Z_I0IoraAaeMG7H_Fle39W1L_HAfgrm1MdXx5RD6UVxtzAVFqRmWfamLZFTmDjYd_78DfZco4hYX4Y5jKYPHRYkRAwqiFk6UuJrsM6krGRXHgiTzL8ZcqzzM8p6mlDg4Kv-OX9h9asfj8K8zHOr2J-OvqgaS0xnVTJeDINFcyrWhZPCoACPAvG49ZauXn7QgeJPpAjp6dyxU8HfYwUlBT_780iWsQX451WaukzeW7IlCe9QTVpaH3WpUQAOvWE4KADBAweItfMnPFYDB0KzFUUcc_6oqcdE3DPsFbWvHauoH-Jy5QBelZu5_AzxFHg4HvRIxqbTfrPiw-oy4v1ODTk5zLQv6ONH2qtXbHM2Dq4_8At1oNWp5YBSeaJj3dQCoWYPmLE9qlNcXu-pOVz3hQxAGZ7kZlb_kcu8yQ-OkaoLvk2lwMRGj_75PzWUMntrZPqEMQgYW9RImNi7nBk6GYNNGczgGLqB3YQsCAQYkOjC8kybxGSfPNyEuJKabUG5DdDlarj8OrbHdBQubikgTgyxupz6tLBS0x1r0dUu9v4_k1yvbVVAeuy772GGsdj6-rs7ddR8j5v2VkJU2EgHy4C3dLvTNS9EsDnTssQv2u7IZYF1iRj47LVjWp6boBSYSy9qU6vjQQQJoP28rpAwJRcNXBp_YEFbv99-z1wLTfMz5jtLV462a9-wvoyN5_1qzvwzAZFDE0wfklscFBYWhN2sM35PoUvVkdQqhnlZIKM-jCXo2sfzU10NwpfliBgYPub_0gbWnxIagsC2Lzq8anucHUKQZ5hJuffSxMJW8RNkZlu7]--></g></svg>