<svg xmlns="http://www.w3.org/2000/svg" xmlns:xlink="http://www.w3.org/1999/xlink" contentStyleType="text/css" data-diagram-type="SEQUENCE" height="771px" preserveAspectRatio="none" style="width:673px;height:771px;background:#FFFFFF;" version="1.1" viewBox="0 0 673 771" width="673px" zoomAndPan="magnify"><defs/><g><g><title>Application</title><rect fill="#000000" fill-opacity="0.00000" height="606.3281" width="8" x="38.2446" y="82.6094"/><line style="stroke:#181818;stroke-width:0.5;stroke-dasharray:5,5;" x1="42" x2="42" y1="82.6094" y2="688.9375"/></g><g><title>MsQuic Library</title><rect fill="#000000" fill-opacity="0.00000" height="606.3281" width="8" x="153.9937" y="82.6094"/><line style="stroke:#181818;stroke-width:0.5;stroke-dasharray:5,5;" x1="157.9282" x2="157.9282" y1="82.6094" y2="688.9375"/></g><g><title>Registration</title><rect fill="#000000" fill-opacity="0.00000" height="606.3281" width="8" x="262.4106" y="82.6094"/><line style="stroke:#181818;stroke-width:0.5;stroke-dasharray:5,5;" x1="266.0591" x2="266.0591" y1="82.6094" y2="688.9375"/></g><g><title>Configuration</title><rect fill="#000000" fill-opacity="0.00000" height="606.3281" width="8" x="365.3999" y="82.6094"/><line style="stroke:#181818;stroke-width:0.5;stroke-dasharray:5,5;" x1="368.7622" x2="368.7622" y1="82.6094" y2="688.9375"/></g><g><title>Listener</title><rect fill="#000000" fill-opacity="0.00000" height="606.3281" width="8" x="455.9409" y="82.6094"/><line style="stroke:#181818;stroke-width:0.5;stroke-dasharray:5,5;" x1="459.0376" x2="459.0376" y1="82.6094" y2="688.9375"/></g><g class="participant participant-head" data-participant="Application"><text fill="#000000" font-family="sans-serif" font-size="14" lengthAdjust="spacing" textLength="68.4893" x="5" y="79.5332">Application</text><ellipse cx="42.2446" cy="13.5" fill="#E2E2F0" rx="8" ry="8" style="stroke:#181818;stroke-width:0.5;"/><path d="M42.2446,21.5 L42.2446,48.5 M29.2446,29.5 L55.2446,29.5 M42.2446,48.5 L29.2446,63.5 M42.2446,48.5 L55.2446,63.5" fill="none" style="stroke:#181818;stroke-width:0.5;"/></g><g class="participant participant-tail" data-participant="Application"><text fill="#000000" font-family="sans-serif" font-size="14" lengthAdjust="spacing" textLength="68.4893" x="5" y="702.4707">Application</text><ellipse cx="42.2446" cy="714.0469" fill="#E2E2F0" rx="8" ry="8" style="stroke:#181818;stroke-width:0.5;"/><path d="M42.2446,722.0469 L42.2446,749.0469 M29.2446,730.0469 L55.2446,730.0469 M42.2446,749.0469 L29.2446,764.0469 M42.2446,749.0469 L55.2446,764.0469" fill="none" style="stroke:#181818;stroke-width:0.5;"/></g><g class="participant participant-head" data-participant="MSQ"><rect fill="#E2E2F0" height="31.6094" rx="2.5" ry="2.5" style="stroke:#181818;stroke-width:0.5;" width="108.1309" x="103.9282" y="50"/><text fill="#000000" font-family="sans-serif" font-size="14" lengthAdjust="spacing" textLength="94.1309" x="110.9282" y="71.5332">MsQuic Library</text></g><g class="participant participant-tail" data-participant="MSQ"><rect fill="#E2E2F0" height="31.6094" rx="2.5" ry="2.5" style="stroke:#181818;stroke-width:0.5;" width="108.1309" x="103.9282" y="687.9375"/><text fill="#000000" font-family="sans-serif" font-size="14" lengthAdjust="spacing" textLength="94.1309" x="110.9282" y="709.4707">MsQuic Library</text></g><g class="participant participant-head" data-participant="Registration"><rect fill="#E2E2F0" height="31.6094" rx="2.5" ry="2.5" style="stroke:#181818;stroke-width:0.5;" width="88.7031" x="222.0591" y="50"/><text fill="#000000" font-family="sans-serif" font-size="14" lengthAdjust="spacing" textLength="74.7031" x="229.0591" y="71.5332">Registration</text></g><g class="participant participant-tail" data-participant="Registration"><rect fill="#E2E2F0" height="31.6094" rx="2.5" ry="2.5" style="stroke:#181818;stroke-width:0.5;" width="88.7031" x="222.0591" y="687.9375"/><text fill="#000000" font-family="sans-serif" font-size="14" lengthAdjust="spacing" textLength="74.7031" x="229.0591" y="709.4707">Registration</text></g><g class="participant participant-head" data-participant="Configuration"><rect fill="#E2E2F0" height="31.6094" rx="2.5" ry="2.5" style="stroke:#181818;stroke-width:0.5;" width="97.2754" x="320.7622" y="50"/><text fill="#000000" font-family="sans-serif" font-size="14" lengthAdjust="spacing" textLength="83.2754" x="327.7622" y="71.5332">Configuration</text></g><g class="participant participant-tail" data-participant="Configuration"><rect fill="#E2E2F0" height="31.6094" rx="2.5" ry="2.5" style="stroke:#181818;stroke-width:0.5;" width="97.2754" x="320.7622" y="687.9375"/><text fill="#000000" font-family="sans-serif" font-size="14" lengthAdjust="spacing" textLength="83.2754" x="327.7622" y="709.4707">Configuration</text></g><g class="participant participant-head" data-participant="Listener"><rect fill="#E2E2F0" height="31.6094" rx="2.5" ry="2.5" style="stroke:#181818;stroke-width:0.5;" width="63.8066" x="428.0376" y="50"/><text fill="#000000" font-family="sans-serif" font-size="14" lengthAdjust="spacing" textLength="49.8066" x="435.0376" y="71.5332">Listener</text></g><g class="participant participant-tail" data-participant="Listener"><rect fill="#E2E2F0" height="31.6094" rx="2.5" ry="2.5" style="stroke:#181818;stroke-width:0.5;" width="63.8066" x="428.0376" y="687.9375"/><text fill="#000000" font-family="sans-serif" font-size="14" lengthAdjust="spacing" textLength="49.8066" x="435.0376" y="709.4707">Listener</text></g><rect fill="#EEEEEE" height="3" style="stroke:#EEEEEE;stroke-width:1;" width="666.1099" x="0" y="113.7852"/><line style="stroke:#000000;stroke-width:1;" x1="0" x2="666.1099" y1="113.7852" y2="113.7852"/><line style="stroke:#000000;stroke-width:1;" x1="0" x2="666.1099" y1="116.7852" y2="116.7852"/><rect fill="#EEEEEE" height="24.3516" style="stroke:#000000;stroke-width:2;" width="53.7236" x="306.1931" y="102.6094"/><text fill="#000000" font-family="sans-serif" font-size="13" font-weight="bold" lengthAdjust="spacing" textLength="36.1118" x="312.1931" y="120.1045">Setup</text><g class="message" data-participant-1="Application" data-participant-2="MSQ"><polygon fill="#181818" points="145.9937,155.3125,155.9937,159.3125,145.9937,163.3125,149.9937,159.3125" style="stroke:#181818;stroke-width:1;"/><line style="stroke:#181818;stroke-width:1;" x1="42.2446" x2="151.9937" y1="159.3125" y2="159.3125"/><text fill="#000000" font-family="sans-serif" font-size="13" lengthAdjust="spacing" textLength="91.749" x="49.2446" y="154.4561">MsQuicOpen2()</text></g><g class="message" data-participant-1="Application" data-participant-2="Registration"><polygon fill="#181818" points="254.4106,185.6641,264.4106,189.6641,254.4106,193.6641,258.4106,189.6641" style="stroke:#181818;stroke-width:1;"/><line style="stroke:#181818;stroke-width:1;" x1="42.2446" x2="260.4106" y1="189.6641" y2="189.6641"/><text fill="#000000" font-family="sans-serif" font-size="13" lengthAdjust="spacing" textLength="120.6626" x="49.2446" y="184.8076">RegistrationOpen(...)</text></g><g class="message" data-participant-1="Application" data-participant-2="Configuration"><polygon fill="#181818" points="357.3999,216.0156,367.3999,220.0156,357.3999,224.0156,361.3999,220.0156" style="stroke:#181818;stroke-width:1;"/><line style="stroke:#181818;stroke-width:1;" x1="42.2446" x2="363.3999" y1="220.0156" y2="220.0156"/><text fill="#000000" font-family="sans-serif" font-size="13" lengthAdjust="spacing" textLength="128.6226" x="49.2446" y="215.1592">ConfigurationOpen(...)</text></g><g class="message" data-participant-1="Application" data-participant-2="Listener"><polygon fill="#181818" points="447.9409,279.0703,457.9409,283.0703,447.9409,287.0703,451.9409,283.0703" style="stroke:#181818;stroke-width:1;"/><line style="stroke:#181818;stroke-width:1;" x1="42.2446" x2="453.9409" y1="283.0703" y2="283.0703"/><text fill="#000000" font-family="sans-serif" font-size="13" lengthAdjust="spacing" textLength="155.3589" x="49.2446" y="245.5107">ListenerOpen(Registration,</text><text fill="#000000" font-family="sans-serif" font-size="13" lengthAdjust="spacing" textLength="98.2681" x="52.8564" y="261.8623">Handler,Context)</text><text fill="#000000" font-family="sans-serif" font-size="13" lengthAdjust="spacing" textLength="110.354" x="49.2446" y="278.2139">&#226;&#8224;&#8217; HQUIC Listener</text></g><rect fill="#EEEEEE" height="3" style="stroke:#EEEEEE;stroke-width:1;" width="666.1099" x="0" y="312.2461"/><line style="stroke:#000000;stroke-width:1;" x1="0" x2="666.1099" y1="312.2461" y2="312.2461"/><line style="stroke:#000000;stroke-width:1;" x1="0" x2="666.1099" y1="315.2461" y2="315.2461"/><rect fill="#EEEEEE" height="24.3516" style="stroke:#000000;stroke-width:2;" width="108.6182" x="278.7458" y="301.0703"/><text fill="#000000" font-family="sans-serif" font-size="13" font-weight="bold" lengthAdjust="spacing" textLength="91.0063" x="284.7458" y="318.5654">Start Listening</text><g class="message" data-participant-1="Application" data-participant-2="Listener"><polygon fill="#181818" points="447.9409,370.125,457.9409,374.125,447.9409,378.125,451.9409,374.125" style="stroke:#181818;stroke-width:1;"/><line style="stroke:#181818;stroke-width:1;" x1="42.2446" x2="453.9409" y1="374.125" y2="374.125"/><text fill="#000000" font-family="sans-serif" font-size="13" lengthAdjust="spacing" textLength="127.8926" x="49.2446" y="352.917">ListenerStart(Listener,</text><text fill="#000000" font-family="sans-serif" font-size="13" lengthAdjust="spacing" textLength="69.3862" x="52.8564" y="369.2686">0.0.0.0:443)</text></g><g class="message" data-participant-1="Listener" data-participant-2="Listener"><line style="stroke:#181818;stroke-width:1;" x1="459.9409" x2="501.9409" y1="404.4766" y2="404.4766"/><line style="stroke:#181818;stroke-width:1;" x1="501.9409" x2="501.9409" y1="404.4766" y2="417.4766"/><line style="stroke:#181818;stroke-width:1;" x1="460.9409" x2="501.9409" y1="417.4766" y2="417.4766"/><polygon fill="#181818" points="470.9409,413.4766,460.9409,417.4766,470.9409,421.4766,466.9409,417.4766" style="stroke:#181818;stroke-width:1;"/><text fill="#000000" font-family="sans-serif" font-size="13" lengthAdjust="spacing" textLength="190.7153" x="466.9409" y="399.6201">OnEvent(LISTENER_STARTED)</text></g><g class="message" data-participant-1="Listener" data-participant-2="Application"><polygon fill="#181818" points="53.2446,443.8281,43.2446,447.8281,53.2446,451.8281,49.2446,447.8281" style="stroke:#181818;stroke-width:1;"/><line style="stroke:#181818;stroke-width:1;stroke-dasharray:2,2;" x1="47.2446" x2="458.9409" y1="447.8281" y2="447.8281"/><text fill="#000000" font-family="sans-serif" font-size="13" lengthAdjust="spacing" textLength="292.5762" x="59.2446" y="442.9717">QUIC_LISTENER_EVENT_LISTENER_STARTED</text></g><rect fill="#EEEEEE" height="3" style="stroke:#EEEEEE;stroke-width:1;" width="666.1099" x="0" y="477.0039"/><line style="stroke:#000000;stroke-width:1;" x1="0" x2="666.1099" y1="477.0039" y2="477.0039"/><line style="stroke:#000000;stroke-width:1;" x1="0" x2="666.1099" y1="480.0039" y2="480.0039"/><rect fill="#EEEEEE" height="24.3516" style="stroke:#000000;stroke-width:2;" width="107.8818" x="279.114" y="465.8281"/><text fill="#000000" font-family="sans-serif" font-size="13" font-weight="bold" lengthAdjust="spacing" textLength="90.27" x="285.114" y="483.3232">Stop Listening</text><g class="message" data-participant-1="Application" data-participant-2="Listener"><polygon fill="#181818" points="447.9409,518.5313,457.9409,522.5313,447.9409,526.5313,451.9409,522.5313" style="stroke:#181818;stroke-width:1;"/><line style="stroke:#181818;stroke-width:1;" x1="42.2446" x2="453.9409" y1="522.5313" y2="522.5313"/><text fill="#000000" font-family="sans-serif" font-size="13" lengthAdjust="spacing" textLength="171.958" x="49.2446" y="517.6748">MsQuicListenerStop(Listener)</text></g><g class="message" data-participant-1="Listener" data-participant-2="Listener"><line style="stroke:#181818;stroke-width:1;" x1="459.9409" x2="501.9409" y1="552.8828" y2="552.8828"/><line style="stroke:#181818;stroke-width:1;" x1="501.9409" x2="501.9409" y1="552.8828" y2="565.8828"/><line style="stroke:#181818;stroke-width:1;" x1="460.9409" x2="501.9409" y1="565.8828" y2="565.8828"/><polygon fill="#181818" points="470.9409,561.8828,460.9409,565.8828,470.9409,569.8828,466.9409,565.8828" style="stroke:#181818;stroke-width:1;"/><text fill="#000000" font-family="sans-serif" font-size="13" lengthAdjust="spacing" textLength="192.1689" x="466.9409" y="548.0264">OnEvent(LISTENER_STOPPED)</text></g><g class="message" data-participant-1="Listener" data-participant-2="Application"><polygon fill="#181818" points="53.2446,592.2344,43.2446,596.2344,53.2446,600.2344,49.2446,596.2344" style="stroke:#181818;stroke-width:1;"/><line style="stroke:#181818;stroke-width:1;stroke-dasharray:2,2;" x1="47.2446" x2="458.9409" y1="596.2344" y2="596.2344"/><text fill="#000000" font-family="sans-serif" font-size="13" lengthAdjust="spacing" textLength="294.0298" x="59.2446" y="591.3779">QUIC_LISTENER_EVENT_LISTENER_STOPPED</text></g><rect fill="#EEEEEE" height="3" style="stroke:#EEEEEE;stroke-width:1;" width="666.1099" x="0" y="625.4102"/><line style="stroke:#000000;stroke-width:1;" x1="0" x2="666.1099" y1="625.4102" y2="625.4102"/><line style="stroke:#000000;stroke-width:1;" x1="0" x2="666.1099" y1="628.4102" y2="628.4102"/><rect fill="#EEEEEE" height="24.3516" style="stroke:#000000;stroke-width:2;" width="79.0063" x="293.5518" y="614.2344"/><text fill="#000000" font-family="sans-serif" font-size="13" font-weight="bold" lengthAdjust="spacing" textLength="61.3945" x="299.5518" y="631.7295">Teardown</text><g class="message" data-participant-1="Application" data-participant-2="Listener"><polygon fill="#181818" points="447.9409,666.9375,457.9409,670.9375,447.9409,674.9375,451.9409,670.9375" style="stroke:#181818;stroke-width:1;"/><line style="stroke:#181818;stroke-width:1;" x1="42.2446" x2="453.9409" y1="670.9375" y2="670.9375"/><text fill="#000000" font-family="sans-serif" font-size="13" lengthAdjust="spacing" textLength="178.4517" x="49.2446" y="666.0811">MsQuicListenerClose(Listener)</text></g><!--SRC=[fP5DReCm48NtdCBA2gGKLMrMaQWKKQH4IaBuQLQHa4jSP0dPbZ7zsUKQtLMzIc-IazH000F98grPZPdlpNjZ60lAmOon5CTGO4eq1hd0CMQG231QPLwEOx34pnpoZn606LW5NgV7HmdE11_2DYKlECdF_5bA0174DSsoG814pe1bQOe9SFDGp07jcOBAYiiGkTEDVhDgecXMwmBHJTCSG1s34khK5wdQVEshhaj0dJlU4J27P9yYFfRI0hqBOqT-le-7h-FX4yozfuNTMuMGIpfTOPASMSgbuIMfrrKn-TOil-baScze3JQGA5LSuhmY8lb543fhnu-2SEQ7pgCAIbBrKe55XAYXdAsp3gE-o2aPPLS5grwxZKTPa-ulSTpDvlznIf4oJeWWtzCtSdKGEwKPQfFy0W00]--></g></svg>