<svg xmlns="http://www.w3.org/2000/svg" xmlns:xlink="http://www.w3.org/1999/xlink" contentStyleType="text/css" data-diagram-type="DESCRIPTION" height="922px" preserveAspectRatio="none" style="width:2657px;height:922px;background:#FFFFFF;" version="1.1" viewBox="0 0 2657 922" width="2657px" zoomAndPan="magnify"><title>QUIC/HTTP3/WebTransport Component Dependencies</title><defs/><g><g class="title" data-source-line="9"><text fill="#000000" font-family="Verdana" font-size="22" font-weight="bold" lengthAdjust="spacing" textLength="678.7559" x="984.813" y="37.1182">QUIC/HTTP3/WebTransport Component Dependencies</text></g><!--cluster Application Layer--><g class="cluster" data-entity="Application Layer" data-source-line="11" data-uid="ent0002" id="cluster_Application Layer"><path d="M996.42,58.7373 L1134.2003,58.7373 A3.75,3.75 0 0 1 1136.7003,61.2373 L1143.7003,81.752 L1414.42,81.752 A2.5,2.5 0 0 1 1416.92,84.252 L1416.92,145.2373 A2.5,2.5 0 0 1 1414.42,147.7373 L996.42,147.7373 A2.5,2.5 0 0 1 993.92,145.2373 L993.92,61.2373 A2.5,2.5 0 0 1 996.42,58.7373" fill="#FFFFFF" style="stroke:#000000;stroke-width:1;"/><line style="stroke:#000000;stroke-width:1;" x1="993.92" x2="1143.7003" y1="81.752" y2="81.752"/><text fill="#000000" font-family="Verdana" font-size="14" font-weight="bold" lengthAdjust="spacing" textLength="136.7803" x="997.92" y="74.8125">Application Layer</text></g><!--cluster WebTransport Protocol--><g class="cluster" data-entity="WebTransport Protocol" data-source-line="16" data-uid="ent0005" id="cluster_WebTransport Protocol"><path d="M1404.42,197.2373 L1587.4132,197.2373 A3.75,3.75 0 0 1 1589.9132,199.7373 L1596.9132,220.252 L1850.42,220.252 A2.5,2.5 0 0 1 1852.92,222.752 L1852.92,422.2373 A2.5,2.5 0 0 1 1850.42,424.7373 L1404.42,424.7373 A2.5,2.5 0 0 1 1401.92,422.2373 L1401.92,199.7373 A2.5,2.5 0 0 1 1404.42,197.2373" fill="#FFFFFF" style="stroke:#000000;stroke-width:1;"/><line style="stroke:#000000;stroke-width:1;" x1="1401.92" x2="1596.9132" y1="220.252" y2="220.252"/><text fill="#000000" font-family="Verdana" font-size="14" font-weight="bold" lengthAdjust="spacing" textLength="181.9932" x="1405.92" y="213.3125">WebTransport Protocol</text></g><!--cluster HTTP/3 Protocol--><g class="cluster" data-entity="HTTP.3 Protocol" data-source-line="25" data-uid="ent0011" id="cluster_HTTP.3 Protocol"><path d="M661.42,335.7373 L793.335,335.7373 A3.75,3.75 0 0 1 795.835,338.2373 L802.835,358.752 L1375.42,358.752 A2.5,2.5 0 0 1 1377.92,361.252 L1377.92,541.2373 A2.5,2.5 0 0 1 1375.42,543.7373 L661.42,543.7373 A2.5,2.5 0 0 1 658.92,541.2373 L658.92,338.2373 A2.5,2.5 0 0 1 661.42,335.7373" fill="#FFFFFF" style="stroke:#000000;stroke-width:1;"/><line style="stroke:#000000;stroke-width:1;" x1="658.92" x2="802.835" y1="358.752" y2="358.752"/><text fill="#000000" font-family="Verdana" font-size="14" font-weight="bold" lengthAdjust="spacing" textLength="130.915" x="662.92" y="351.8125">HTTP/3 Protocol</text></g><!--cluster MsQuic Layer--><g class="cluster" data-entity="MsQuic Layer" data-source-line="40" data-uid="ent0023" id="cluster_MsQuic Layer"><path d="M122.42,197.2373 L228.3175,197.2373 A3.75,3.75 0 0 1 230.8175,199.7373 L237.8175,220.252 L495.42,220.252 A2.5,2.5 0 0 1 497.92,222.752 L497.92,660.2373 A2.5,2.5 0 0 1 495.42,662.7373 L122.42,662.7373 A2.5,2.5 0 0 1 119.92,660.2373 L119.92,199.7373 A2.5,2.5 0 0 1 122.42,197.2373" fill="#FFFFFF" style="stroke:#000000;stroke-width:1;"/><line style="stroke:#000000;stroke-width:1;" x1="119.92" x2="237.8175" y1="220.252" y2="220.252"/><text fill="#000000" font-family="Verdana" font-size="14" font-weight="bold" lengthAdjust="spacing" textLength="104.8975" x="123.92" y="213.3125">MsQuic Layer</text></g><!--cluster Transport Layer--><g class="cluster" data-entity="Transport Layer" data-source-line="59" data-uid="ent0039" id="cluster_Transport Layer"><path d="M78.42,712.2373 L204.7159,712.2373 A3.75,3.75 0 0 1 207.2159,714.7373 L214.2159,735.252 L253.42,735.252 A2.5,2.5 0 0 1 255.92,737.752 L255.92,912.7373 A2.5,2.5 0 0 1 253.42,915.2373 L78.42,915.2373 A2.5,2.5 0 0 1 75.92,912.7373 L75.92,714.7373 A2.5,2.5 0 0 1 78.42,712.2373" fill="#FFFFFF" style="stroke:#000000;stroke-width:1;"/><line style="stroke:#000000;stroke-width:1;" x1="75.92" x2="214.2159" y1="735.252" y2="735.252"/><text fill="#000000" font-family="Verdana" font-size="14" font-weight="bold" lengthAdjust="spacing" textLength="125.2959" x="79.92" y="728.3125">Transport Layer</text></g><!--entity WTApp--><g class="entity" data-entity="WTApp" data-source-line="12" data-uid="ent0003" id="entity_WTApp"><rect fill="#ADD8E6" height="37.0146" rx="2.5" ry="2.5" style="stroke:#000000;stroke-width:1;" width="200.8174" x="1199.42" y="94.7373"/><text fill="#000000" font-family="Verdana" font-size="14" lengthAdjust="spacing" textLength="180.8174" x="1209.42" y="118.8125">WebTransport Application</text></g><!--entity H3App--><g class="entity" data-entity="H3App" data-source-line="13" data-uid="ent0004" id="entity_H3App"><rect fill="#ADD8E6" height="37.0146" rx="2.5" ry="2.5" style="stroke:#000000;stroke-width:1;" width="153.5127" x="1009.92" y="94.7373"/><text fill="#000000" font-family="Verdana" font-size="14" lengthAdjust="spacing" textLength="133.5127" x="1019.92" y="118.8125">HTTP/3 Application</text></g><!--entity WTSession--><g class="entity" data-entity="WTSession" data-source-line="17" data-uid="ent0006" id="entity_WTSession"><rect fill="#ADD8E6" height="37.0146" rx="2.5" ry="2.5" style="stroke:#000000;stroke-width:1;" width="177.3975" x="1443.42" y="233.2373"/><text fill="#000000" font-family="Verdana" font-size="14" lengthAdjust="spacing" textLength="157.3975" x="1453.42" y="257.3125">WebTransport Session</text></g><!--entity WTStreams--><g class="entity" data-entity="WTStreams" data-source-line="18" data-uid="ent0007" id="entity_WTStreams"><rect fill="#ADD8E6" height="37.0146" rx="2.5" ry="2.5" style="stroke:#000000;stroke-width:1;" width="182.4219" x="1654.92" y="371.7373"/><text fill="#000000" font-family="Verdana" font-size="14" lengthAdjust="spacing" textLength="162.4219" x="1664.92" y="395.8125">WebTransport Streams</text></g><!--entity WTDatagrams--><g class="entity" data-entity="WTDatagrams" data-source-line="19" data-uid="ent0008" id="entity_WTDatagrams"><rect fill="#ADD8E6" height="37.0146" rx="2.5" ry="2.5" style="stroke:#000000;stroke-width:1;" width="200.8379" x="1418.42" y="371.7373"/><text fill="#000000" font-family="Verdana" font-size="14" lengthAdjust="spacing" textLength="180.8379" x="1428.42" y="395.8125">WebTransport Datagrams</text></g><!--entity H3Parser--><g class="entity" data-entity="H3Parser" data-source-line="26" data-uid="ent0012" id="entity_H3Parser"><rect fill="#ADD8E6" height="37.0146" rx="2.5" ry="2.5" style="stroke:#000000;stroke-width:1;" width="170.1377" x="894.92" y="371.7373"/><text fill="#000000" font-family="Verdana" font-size="14" lengthAdjust="spacing" textLength="150.1377" x="904.92" y="395.8125">HTTP/3 Frame Parser</text></g><!--entity QPACK--><g class="entity" data-entity="QPACK" data-source-line="27" data-uid="ent0013" id="entity_QPACK"><rect fill="#ADD8E6" height="37.0146" rx="2.5" ry="2.5" style="stroke:#000000;stroke-width:1;" width="194.2822" x="851.92" y="490.7373"/><text fill="#000000" font-family="Verdana" font-size="14" lengthAdjust="spacing" textLength="174.2822" x="861.92" y="514.8125">QPACK Encoder/Decoder</text></g><!--entity H3Control--><g class="entity" data-entity="H3Control" data-source-line="28" data-uid="ent0014" id="entity_H3Control"><rect fill="#ADD8E6" height="37.0146" rx="2.5" ry="2.5" style="stroke:#000000;stroke-width:1;" width="183.707" x="675.92" y="371.7373"/><text fill="#000000" font-family="Verdana" font-size="14" lengthAdjust="spacing" textLength="163.707" x="685.92" y="395.8125">HTTP/3 Control Stream</text></g><!--entity H3Request--><g class="entity" data-entity="H3Request" data-source-line="29" data-uid="ent0015" id="entity_H3Request"><rect fill="#ADD8E6" height="37.0146" rx="2.5" ry="2.5" style="stroke:#000000;stroke-width:1;" width="189.5518" x="1167.92" y="371.7373"/><text fill="#000000" font-family="Verdana" font-size="14" lengthAdjust="spacing" textLength="169.5518" x="1177.92" y="395.8125">HTTP/3 Request Stream</text></g><!--entity H3Settings--><g class="entity" data-entity="H3Settings" data-source-line="30" data-uid="ent0016" id="entity_H3Settings"><rect fill="#ADD8E6" height="37.0146" rx="2.5" ry="2.5" style="stroke:#000000;stroke-width:1;" width="141.7754" x="674.92" y="490.7373"/><text fill="#000000" font-family="Verdana" font-size="14" lengthAdjust="spacing" textLength="121.7754" x="684.92" y="514.8125">SETTINGS Frame</text></g><!--entity H3Headers--><g class="entity" data-entity="H3Headers" data-source-line="31" data-uid="ent0017" id="entity_H3Headers"><rect fill="#ADD8E6" height="37.0146" rx="2.5" ry="2.5" style="stroke:#000000;stroke-width:1;" width="137.1953" x="1081.42" y="490.7373"/><text fill="#000000" font-family="Verdana" font-size="14" lengthAdjust="spacing" textLength="117.1953" x="1091.42" y="514.8125">HEADERS Frame</text></g><!--entity H3Data--><g class="entity" data-entity="H3Data" data-source-line="32" data-uid="ent0018" id="entity_H3Data"><rect fill="#ADD8E6" height="37.0146" rx="2.5" ry="2.5" style="stroke:#000000;stroke-width:1;" width="107.8623" x="1253.92" y="490.7373"/><text fill="#000000" font-family="Verdana" font-size="14" lengthAdjust="spacing" textLength="87.8623" x="1263.92" y="514.8125">DATA Frame</text></g><!--entity Reg--><g class="entity" data-entity="Reg" data-source-line="41" data-uid="ent0024" id="entity_Reg"><rect fill="#ADD8E6" height="37.0146" rx="2.5" ry="2.5" style="stroke:#000000;stroke-width:1;" width="104.5469" x="272.42" y="233.2373"/><text fill="#000000" font-family="Verdana" font-size="14" lengthAdjust="spacing" textLength="84.5469" x="282.42" y="257.3125">Registration</text></g><!--entity Config--><g class="entity" data-entity="Config" data-source-line="42" data-uid="ent0025" id="entity_Config"><rect fill="#ADD8E6" height="37.0146" rx="2.5" ry="2.5" style="stroke:#000000;stroke-width:1;" width="114.5752" x="136.42" y="371.7373"/><text fill="#000000" font-family="Verdana" font-size="14" lengthAdjust="spacing" textLength="94.5752" x="146.42" y="395.8125">Configuration</text></g><!--entity Listener--><g class="entity" data-entity="Listener" data-source-line="43" data-uid="ent0026" id="entity_Listener"><rect fill="#ADD8E6" height="37.0146" rx="2.5" ry="2.5" style="stroke:#000000;stroke-width:1;" width="75.959" x="286.92" y="371.7373"/><text fill="#000000" font-family="Verdana" font-size="14" lengthAdjust="spacing" textLength="55.959" x="296.92" y="395.8125">Listener</text></g><!--entity Conn--><g class="entity" data-entity="Conn" data-source-line="44" data-uid="ent0027" id="entity_Conn"><rect fill="#ADD8E6" height="37.0146" rx="2.5" ry="2.5" style="stroke:#000000;stroke-width:1;" width="98.3398" x="226.92" y="490.7373"/><text fill="#000000" font-family="Verdana" font-size="14" lengthAdjust="spacing" textLength="78.3398" x="236.92" y="514.8125">Connection</text></g><!--entity Stream--><g class="entity" data-entity="Stream" data-source-line="45" data-uid="ent0028" id="entity_Stream"><rect fill="#ADD8E6" height="37.0146" rx="2.5" ry="2.5" style="stroke:#000000;stroke-width:1;" width="71.4268" x="269.42" y="609.7373"/><text fill="#000000" font-family="Verdana" font-size="14" lengthAdjust="spacing" textLength="51.4268" x="279.42" y="633.8125">Stream</text></g><!--entity Datagram--><g class="entity" data-entity="Datagram" data-source-line="46" data-uid="ent0029" id="entity_Datagram"><rect fill="#ADD8E6" height="37.0146" rx="2.5" ry="2.5" style="stroke:#000000;stroke-width:1;" width="89.8428" x="143.92" y="609.7373"/><text fill="#000000" font-family="Verdana" font-size="14" lengthAdjust="spacing" textLength="69.8428" x="153.92" y="633.8125">Datagram</text></g><!--entity TLS--><g class="entity" data-entity="TLS" data-source-line="47" data-uid="ent0030" id="entity_TLS"><rect fill="#ADD8E6" height="37.0146" rx="2.5" ry="2.5" style="stroke:#000000;stroke-width:1;" width="105.7021" x="375.92" y="609.7373"/><text fill="#000000" font-family="Verdana" font-size="14" lengthAdjust="spacing" textLength="85.7021" x="385.92" y="633.8125">TLS Context</text></g><!--entity UDP--><g class="entity" data-entity="UDP" data-source-line="60" data-uid="ent0040" id="entity_UDP"><rect fill="#ADD8E6" height="37.0146" rx="2.5" ry="2.5" style="stroke:#000000;stroke-width:1;" width="101.9014" x="114.92" y="748.2373"/><text fill="#000000" font-family="Verdana" font-size="14" lengthAdjust="spacing" textLength="81.9014" x="124.92" y="772.3125">UDP Socket</text></g><!--entity NetIf--><g class="entity" data-entity="NetIf" data-source-line="61" data-uid="ent0041" id="entity_NetIf"><rect fill="#ADD8E6" height="37.0146" rx="2.5" ry="2.5" style="stroke:#000000;stroke-width:1;" width="147.0117" x="92.42" y="862.2373"/><text fill="#000000" font-family="Verdana" font-size="14" lengthAdjust="spacing" textLength="127.0117" x="102.42" y="886.3125">Network Interface</text></g><g class="entity" data-entity="GMN56" data-source-line="88" data-uid="ent0057" id="entity_GMN56"><path d="M1869.42,230.7373 L1869.42,247.7373 L1620.74,251.7373 L1869.42,255.7373 L1869.42,272.3359 A0,0 0 0 0 1869.42,272.3359 L2052.7042,272.3359 A0,0 0 0 0 2052.7042,272.3359 L2052.7042,240.7373 L2042.7042,230.7373 L1869.42,230.7373 A0,0 0 0 0 1869.42,230.7373" fill="#FFFFFF" style="stroke:#000000;stroke-width:1;"/><path d="M2042.7042,230.7373 L2042.7042,240.7373 L2052.7042,240.7373 L2042.7042,230.7373" fill="#FFFFFF" style="stroke:#000000;stroke-width:1;"/><text fill="#000000" font-family="Verdana" font-size="13" lengthAdjust="spacing" textLength="162.2842" x="1875.42" y="248.8071">Requires HTTP/3 200 OK</text><text fill="#000000" font-family="Verdana" font-size="13" lengthAdjust="spacing" textLength="135.478" x="1875.42" y="264.6064">to CONNECT request</text></g><g class="entity" data-entity="GMN59" data-source-line="89" data-uid="ent0060" id="entity_GMN59"><path d="M2291.92,369.2373 L2291.92,410.8359 L2464.0767,410.8359 L2464.0767,379.2373 L2454.0767,369.2373 L2291.92,369.2373" fill="#FFFFFF" style="stroke:#000000;stroke-width:1;"/><path d="M2454.0767,369.2373 L2454.0767,379.2373 L2464.0767,379.2373 L2454.0767,369.2373" fill="#FFFFFF" style="stroke:#000000;stroke-width:1;"/><text fill="#000000" font-family="Verdana" font-size="13" lengthAdjust="spacing" textLength="94.8149" x="2297.92" y="387.3071">Stream ID 2/3</text><text fill="#000000" font-family="Verdana" font-size="13" lengthAdjust="spacing" textLength="151.1567" x="2297.92" y="403.1064">(client/server initiated)</text></g><g class="entity" data-entity="GMN62" data-source-line="90" data-uid="ent0063" id="entity_GMN62"><path d="M2499.42,369.2373 L2499.42,410.8359 L2650.3819,410.8359 L2650.3819,379.2373 L2640.3819,369.2373 L2499.42,369.2373" fill="#FFFFFF" style="stroke:#000000;stroke-width:1;"/><path d="M2640.3819,369.2373 L2640.3819,379.2373 L2650.3819,379.2373 L2640.3819,369.2373" fill="#FFFFFF" style="stroke:#000000;stroke-width:1;"/><text fill="#000000" font-family="Verdana" font-size="13" lengthAdjust="spacing" textLength="129.9619" x="2505.42" y="387.3071">Stream ID 0, 4, 8...</text><text fill="#000000" font-family="Verdana" font-size="13" lengthAdjust="spacing" textLength="91.3872" x="2505.42" y="403.1064">(bidirectional)</text></g><g class="entity" data-entity="GMN65" data-source-line="91" data-uid="ent0066" id="entity_GMN65"><path d="M874.92,607.2373 L874.92,648.8359 L1007.0294,648.8359 L1007.0294,617.2373 L997.0294,607.2373 L874.92,607.2373" fill="#FFFFFF" style="stroke:#000000;stroke-width:1;"/><path d="M997.0294,607.2373 L997.0294,617.2373 L1007.0294,617.2373 L997.0294,607.2373" fill="#FFFFFF" style="stroke:#000000;stroke-width:1;"/><text fill="#000000" font-family="Verdana" font-size="13" lengthAdjust="spacing" textLength="111.1094" x="880.92" y="625.3071">Reliable, ordered</text><text fill="#000000" font-family="Verdana" font-size="13" lengthAdjust="spacing" textLength="51.6572" x="880.92" y="641.1064">delivery</text></g><g class="entity" data-entity="GMN68" data-source-line="92" data-uid="ent0069" id="entity_GMN68"><path d="M516.92,607.2373 L516.92,648.8359 L661.274,648.8359 L661.274,617.2373 L651.274,607.2373 L516.92,607.2373" fill="#FFFFFF" style="stroke:#000000;stroke-width:1;"/><path d="M651.274,607.2373 L651.274,617.2373 L661.274,617.2373 L651.274,607.2373" fill="#FFFFFF" style="stroke:#000000;stroke-width:1;"/><text fill="#000000" font-family="Verdana" font-size="13" lengthAdjust="spacing" textLength="70.1162" x="522.92" y="625.3071">Unreliable,</text><text fill="#000000" font-family="Verdana" font-size="13" lengthAdjust="spacing" textLength="123.354" x="522.92" y="641.1064">unordered delivery</text></g><g class="entity" data-entity="GMN71" data-source-line="95" data-uid="ent0072" id="entity_GMN71"><path d="M1435.42,92.2373 L1435.42,133.8359 A0,0 0 0 0 1435.42,133.8359 L1530.48,133.8359 L1532.31,233.1173 L1538.48,133.8359 L1633.9576,133.8359 A0,0 0 0 0 1633.9576,133.8359 L1633.9576,102.2373 L1623.9576,92.2373 L1435.42,92.2373 A0,0 0 0 0 1435.42,92.2373" fill="#FFFFFF" style="stroke:#000000;stroke-width:1;"/><path d="M1623.9576,92.2373 L1623.9576,102.2373 L1633.9576,102.2373 L1623.9576,92.2373" fill="#FFFFFF" style="stroke:#000000;stroke-width:1;"/><text fill="#000000" font-family="Verdana" font-size="13" lengthAdjust="spacing" textLength="63.2163" x="1441.42" y="110.3071">RFC&#160;9220</text><text fill="#000000" font-family="Verdana" font-size="13" lengthAdjust="spacing" textLength="177.5376" x="1441.42" y="126.1064">WebTransport over HTTP/3</text></g><g class="entity" data-entity="GMN74" data-source-line="96" data-uid="ent0075" id="entity_GMN74"><path d="M932.92,230.7373 L932.92,272.3359 A0,0 0 0 0 932.92,272.3359 L971.66,272.3359 L979.28,371.6173 L979.66,272.3359 L1017.1363,272.3359 A0,0 0 0 0 1017.1363,272.3359 L1017.1363,240.7373 L1007.1363,230.7373 L932.92,230.7373 A0,0 0 0 0 932.92,230.7373" fill="#FFFFFF" style="stroke:#000000;stroke-width:1;"/><path d="M1007.1363,230.7373 L1007.1363,240.7373 L1017.1363,240.7373 L1007.1363,230.7373" fill="#FFFFFF" style="stroke:#000000;stroke-width:1;"/><text fill="#000000" font-family="Verdana" font-size="13" lengthAdjust="spacing" textLength="63.2163" x="938.92" y="248.8071">RFC&#160;9114</text><text fill="#000000" font-family="Verdana" font-size="13" lengthAdjust="spacing" textLength="47.7979" x="938.92" y="264.6064">HTTP/3</text></g><g class="entity" data-entity="GMN77" data-source-line="97" data-uid="ent0078" id="entity_GMN77"><path d="M517.42,369.2373 L517.42,410.8359 L640.3126,410.8359 L640.3126,379.2373 L630.3126,369.2373 L517.42,369.2373" fill="#FFFFFF" style="stroke:#000000;stroke-width:1;"/><path d="M630.3126,369.2373 L630.3126,379.2373 L640.3126,379.2373 L630.3126,369.2373" fill="#FFFFFF" style="stroke:#000000;stroke-width:1;"/><text fill="#000000" font-family="Verdana" font-size="13" lengthAdjust="spacing" textLength="63.2163" x="523.42" y="387.3071">RFC&#160;9000</text><text fill="#000000" font-family="Verdana" font-size="13" lengthAdjust="spacing" textLength="101.8926" x="523.42" y="403.1064">QUIC Transport</text></g><g class="entity" data-entity="GMN80" data-source-line="98" data-uid="ent0081" id="entity_GMN80"><path d="M1644.92,488.2373 L1644.92,529.8359 L1729.1363,529.8359 L1729.1363,498.2373 L1719.1363,488.2373 L1644.92,488.2373" fill="#FFFFFF" style="stroke:#000000;stroke-width:1;"/><path d="M1719.1363,488.2373 L1719.1363,498.2373 L1729.1363,498.2373 L1719.1363,488.2373" fill="#FFFFFF" style="stroke:#000000;stroke-width:1;"/><text fill="#000000" font-family="Verdana" font-size="13" lengthAdjust="spacing" textLength="63.2163" x="1650.92" y="506.3071">RFC&#160;8446</text><text fill="#000000" font-family="Verdana" font-size="13" lengthAdjust="spacing" textLength="49.9624" x="1650.92" y="522.1064">TLS&#160;1.3</text></g><g class="entity" data-entity="GMN83" data-source-line="101" data-uid="ent0084" id="entity_GMN83"><path d="M1872.42,369.2373 L1872.42,410.8359 L2037.3404,410.8359 L2037.3404,379.2373 L2027.3404,369.2373 L1872.42,369.2373" fill="#FFFFFF" style="stroke:#000000;stroke-width:1;"/><path d="M2027.3404,369.2373 L2027.3404,379.2373 L2037.3404,379.2373 L2027.3404,369.2373" fill="#FFFFFF" style="stroke:#000000;stroke-width:1;"/><text fill="#000000" font-family="Verdana" font-size="13" lengthAdjust="spacing" textLength="138.5566" x="1878.42" y="387.3071">Must load credentials</text><text fill="#000000" font-family="Verdana" font-size="13" lengthAdjust="spacing" textLength="143.9204" x="1878.42" y="403.1064">before connection use</text></g><g class="entity" data-entity="GMN86" data-source-line="102" data-uid="ent0087" id="entity_GMN86"><path d="M2072.92,369.2373 L2072.92,410.8359 L2256.4454,410.8359 L2256.4454,379.2373 L2246.4454,369.2373 L2072.92,369.2373" fill="#FFFFFF" style="stroke:#000000;stroke-width:1;"/><path d="M2246.4454,369.2373 L2246.4454,379.2373 L2256.4454,379.2373 L2246.4454,369.2373" fill="#FFFFFF" style="stroke:#000000;stroke-width:1;"/><text fill="#000000" font-family="Verdana" font-size="13" lengthAdjust="spacing" textLength="145.374" x="2078.92" y="387.3071">Must set configuration</text><text fill="#000000" font-family="Verdana" font-size="13" lengthAdjust="spacing" textLength="162.5254" x="2078.92" y="403.1064">for accepted connections</text></g><g class="entity" data-entity="GMN89" data-source-line="103" data-uid="ent0090" id="entity_GMN89"><path d="M695.92,607.2373 L695.92,648.8359 L840.1978,648.8359 L840.1978,617.2373 L830.1978,607.2373 L695.92,607.2373" fill="#FFFFFF" style="stroke:#000000;stroke-width:1;"/><path d="M830.1978,607.2373 L830.1978,617.2373 L840.1978,617.2373 L830.1978,607.2373" fill="#FFFFFF" style="stroke:#000000;stroke-width:1;"/><text fill="#000000" font-family="Verdana" font-size="13" lengthAdjust="spacing" textLength="111.9473" x="701.92" y="625.3071">Must set callback</text><text fill="#000000" font-family="Verdana" font-size="13" lengthAdjust="spacing" textLength="123.2778" x="701.92" y="641.1064">and enable receive</text></g><!--link WTSession to WTStreams--><g class="link" data-entity-1="WTSession" data-entity-2="WTStreams" data-source-line="21" data-uid="lnk9" id="link_WTSession_WTStreams"><path d="M1559.46,270.3073 C1600.44,296.4373 1671.9819,342.07 1713.0919,368.3" fill="none" id="WTSession-to-WTStreams" style="stroke:#000000;stroke-width:1;"/><polygon fill="#000000" points="1718.15,371.5273,1712.7144,363.3143,1713.9349,368.8379,1708.4113,370.0584,1718.15,371.5273" style="stroke:#000000;stroke-width:1;"/><text fill="#000000" font-family="Verdana" font-size="13" lengthAdjust="spacing" textLength="59.103" x="1632.92" y="316.8071">manages</text></g><!--link WTSession to WTDatagrams--><g class="link" data-entity-1="WTSession" data-entity-2="WTDatagrams" data-source-line="22" data-uid="lnk10" id="link_WTSession_WTDatagrams"><path d="M1530.25,270.3073 C1527.77,296.3673 1523.7105,339.0545 1521.2005,365.3345" fill="none" id="WTSession-to-WTDatagrams" style="stroke:#000000;stroke-width:1;"/><polygon fill="#000000" points="1520.63,371.3073,1525.4676,362.7284,1521.1054,366.33,1517.5038,361.9678,1520.63,371.3073" style="stroke:#000000;stroke-width:1;"/><text fill="#000000" font-family="Verdana" font-size="13" lengthAdjust="spacing" textLength="59.103" x="1527.92" y="316.8071">manages</text></g><!--link H3Parser to QPACK--><g class="link" data-entity-1="H3Parser" data-entity-2="QPACK" data-source-line="34" data-uid="lnk19" id="link_H3Parser_QPACK"><path d="M975.28,408.7573 C969.44,430.8073 960.9972,462.6876 955.1372,484.7976" fill="none" id="H3Parser-to-QPACK" style="stroke:#000000;stroke-width:1;"/><polygon fill="#000000" points="953.6,490.5973,959.7722,482.9224,954.881,485.7642,952.0392,480.8729,953.6,490.5973" style="stroke:#000000;stroke-width:1;"/><text fill="#000000" font-family="Verdana" font-size="13" lengthAdjust="spacing" textLength="29.5166" x="967.92" y="455.3071">uses</text></g><!--link H3Control to H3Settings--><g class="link" data-entity-1="H3Control" data-entity-2="H3Settings" data-source-line="35" data-uid="lnk20" id="link_H3Control_H3Settings"><path d="M764.63,408.7573 C760.48,430.8073 754.5094,462.5908 750.3494,484.7008" fill="none" id="H3Control-to-H3Settings" style="stroke:#000000;stroke-width:1;"/><polygon fill="#000000" points="749.24,490.5973,754.8352,482.4921,750.1645,485.6835,746.9731,481.0129,749.24,490.5973" style="stroke:#000000;stroke-width:1;"/><text fill="#000000" font-family="Verdana" font-size="13" lengthAdjust="spacing" textLength="97.1064" x="759.92" y="455.3071">sends/receives</text></g><!--link H3Request to H3Headers--><g class="link" data-entity-1="H3Request" data-entity-2="H3Headers" data-source-line="36" data-uid="lnk21" id="link_H3Request_H3Headers"><path d="M1219.37,408.8873 C1203.98,416.8773 1187.62,427.6273 1175.92,441.2373 C1163.73,455.4373 1158.3261,470.1692 1154.7561,484.7592" fill="none" id="H3Request-to-H3Headers" style="stroke:#000000;stroke-width:1;"/><polygon fill="#000000" points="1153.33,490.5873,1159.3545,482.7959,1154.5184,485.7306,1151.5837,480.8945,1153.33,490.5873" style="stroke:#000000;stroke-width:1;"/><text fill="#000000" font-family="Verdana" font-size="13" lengthAdjust="spacing" textLength="97.1064" x="1176.92" y="455.3071">sends/receives</text></g><!--link H3Request to H3Data--><g class="link" data-entity-1="H3Request" data-entity-2="H3Data" data-source-line="37" data-uid="lnk22" id="link_H3Request_H3Data"><path d="M1269.66,408.7573 C1278.15,430.8073 1290.487,462.8869 1298.987,484.9969" fill="none" id="H3Request-to-H3Data" style="stroke:#000000;stroke-width:1;"/><polygon fill="#000000" points="1301.14,490.5973,1301.6441,480.7614,1299.3458,485.9303,1294.1769,483.6321,1301.14,490.5973" style="stroke:#000000;stroke-width:1;"/><text fill="#000000" font-family="Verdana" font-size="13" lengthAdjust="spacing" textLength="97.1064" x="1289.92" y="455.3071">sends/receives</text></g><!--link Reg to Config--><g class="link" data-entity-1="Reg" data-entity-2="Config" data-source-line="49" data-uid="lnk31" id="link_Reg_Config"><path d="M303.43,270.3273 C292.46,279.6173 279.12,291.4073 267.92,302.7373 C245.57,325.3773 225.8082,349.0621 211.4482,367.0121" fill="none" id="Reg-to-Config" style="stroke:#000000;stroke-width:1;"/><polygon fill="#000000" points="207.7,371.6973,216.4457,367.1683,210.8235,367.793,210.1988,362.1707,207.7,371.6973" style="stroke:#000000;stroke-width:1;"/><text fill="#000000" font-family="Verdana" font-size="13" lengthAdjust="spacing" textLength="47.5122" x="268.92" y="316.8071">creates</text></g><!--link Reg to Listener--><g class="link" data-entity-1="Reg" data-entity-2="Listener" data-source-line="50" data-uid="lnk32" id="link_Reg_Listener"><path d="M324.92,270.3073 C324.92,296.3673 324.92,339.0273 324.92,365.3073" fill="none" id="Reg-to-Listener" style="stroke:#000000;stroke-width:1;"/><polygon fill="#000000" points="324.92,371.3073,328.92,362.3073,324.92,366.3073,320.92,362.3073,324.92,371.3073" style="stroke:#000000;stroke-width:1;"/><text fill="#000000" font-family="Verdana" font-size="13" lengthAdjust="spacing" textLength="47.5122" x="325.92" y="316.8071">creates</text></g><!--link Reg to Conn--><g class="link" data-entity-1="Reg" data-entity-2="Conn" data-source-line="51" data-uid="lnk33" id="link_Reg_Conn"><path d="M353.87,270.3373 C364.79,278.6673 376,289.6673 381.92,302.7373 C391.25,323.3273 439.14,243.2273 379.92,432.7373 C371.47,459.7873 351.157,475.8553 327.447,487.9253" fill="none" id="Reg-to-Conn" style="stroke:#000000;stroke-width:1;"/><polygon fill="#000000" points="322.1,490.6473,331.9352,490.129,326.5559,488.379,328.3059,482.9996,322.1,490.6473" style="stroke:#000000;stroke-width:1;"/><text fill="#000000" font-family="Verdana" font-size="13" lengthAdjust="spacing" textLength="47.5122" x="408.92" y="395.8071">creates</text></g><!--link Config to Conn--><g class="link" data-entity-1="Config" data-entity-2="Conn" data-source-line="52" data-uid="lnk34" id="link_Config_Conn"><path d="M198.63,408.8173 C202.95,422.9873 210.32,443.0073 220.92,458.2373 C229.4,470.4173 236.7375,477.9221 247.3475,486.7021" fill="none" id="Config-to-Conn" style="stroke:#000000;stroke-width:1;"/><polygon fill="#000000" points="251.97,490.5273,247.5864,481.7078,248.1179,487.3396,242.4861,487.8711,251.97,490.5273" style="stroke:#000000;stroke-width:1;"/><text fill="#000000" font-family="Verdana" font-size="13" lengthAdjust="spacing" textLength="67.4185" x="221.92" y="455.3071">configures</text></g><!--link Listener to Conn--><g class="link" data-entity-1="Listener" data-entity-2="Conn" data-source-line="53" data-uid="lnk35" id="link_Listener_Conn"><path d="M317.59,408.7573 C308.35,430.8073 294.8878,462.9531 285.6278,485.0631" fill="none" id="Listener-to-Conn" style="stroke:#000000;stroke-width:1;"/><polygon fill="#000000" points="283.31,490.5973,290.4762,483.8412,285.2415,485.9854,283.0972,480.7507,283.31,490.5973" style="stroke:#000000;stroke-width:1;"/><text fill="#000000" font-family="Verdana" font-size="13" lengthAdjust="spacing" textLength="49.0928" x="304.92" y="455.3071">accepts</text></g><!--link Conn to Stream--><g class="link" data-entity-1="Conn" data-entity-2="Stream" data-source-line="54" data-uid="lnk36" id="link_Conn_Stream"><path d="M270.18,527.9973 C266.66,541.7473 263.72,561.0973 268.92,577.2373 C272.73,589.0473 276.665,595.7863 284.005,604.6963" fill="none" id="Conn-to-Stream" style="stroke:#000000;stroke-width:1;"/><polygon fill="#000000" points="287.82,609.3273,285.1849,599.8375,284.6409,605.4682,279.0102,604.9241,287.82,609.3273" style="stroke:#000000;stroke-width:1;"/><text fill="#000000" font-family="Verdana" font-size="13" lengthAdjust="spacing" textLength="47.5122" x="269.92" y="574.3071">creates</text></g><!--link Conn to Datagram--><g class="link" data-entity-1="Conn" data-entity-2="Datagram" data-source-line="55" data-uid="lnk37" id="link_Conn_Datagram"><path d="M234.37,527.9573 C220.63,535.8573 206.65,546.5373 197.92,560.2373 C188.53,574.9873 186.8614,589.2694 187.2414,603.6394" fill="none" id="Conn-to-Datagram" style="stroke:#000000;stroke-width:1;"/><polygon fill="#000000" points="187.4,609.6373,191.1607,600.5347,187.2678,604.6391,183.1635,600.7462,187.4,609.6373" style="stroke:#000000;stroke-width:1;"/><text fill="#000000" font-family="Verdana" font-size="13" lengthAdjust="spacing" textLength="59.103" x="198.92" y="574.3071">manages</text></g><!--link Conn to TLS--><g class="link" data-entity-1="Conn" data-entity-2="TLS" data-source-line="56" data-uid="lnk38" id="link_Conn_TLS"><path d="M298.83,527.7573 C327.67,549.8073 372.184,583.8424 401.094,605.9524" fill="none" id="Conn-to-TLS" style="stroke:#000000;stroke-width:1;"/><polygon fill="#000000" points="405.86,609.5973,401.141,600.9526,401.8884,606.5599,396.2811,607.3072,405.86,609.5973" style="stroke:#000000;stroke-width:1;"/><text fill="#000000" font-family="Verdana" font-size="13" lengthAdjust="spacing" textLength="59.103" x="362.92" y="574.3071">manages</text></g><!--link UDP to NetIf--><g class="link" data-entity-1="UDP" data-entity-2="NetIf" data-source-line="63" data-uid="lnk42" id="link_UDP_NetIf"><path d="M165.92,785.7273 C165.92,806.7573 165.92,835.3073 165.92,856.1573" fill="none" id="UDP-to-NetIf" style="stroke:#000000;stroke-width:1;"/><polygon fill="#000000" points="165.92,862.1573,169.92,853.1573,165.92,857.1573,161.92,853.1573,165.92,862.1573" style="stroke:#000000;stroke-width:1;"/><text fill="#000000" font-family="Verdana" font-size="13" lengthAdjust="spacing" textLength="29.5166" x="166.92" y="829.3071">uses</text></g><!--link WTApp to WTSession--><g class="link" data-entity-1="WTApp" data-entity-2="WTSession" data-source-line="67" data-uid="lnk43" id="link_WTApp_WTSession"><path d="M1329.78,131.8073 C1374.2,157.9373 1452.079,203.7541 1496.649,229.9841" fill="none" id="WTApp-to-WTSession" style="stroke:#000000;stroke-width:1;"/><polygon fill="#000000" points="1501.82,233.0273,1496.0923,225.0152,1497.5109,230.4913,1492.0347,231.9098,1501.82,233.0273" style="stroke:#000000;stroke-width:1;"/><text fill="#000000" font-family="Verdana" font-size="13" lengthAdjust="spacing" textLength="29.5166" x="1410.92" y="178.3071">uses</text></g><!--link H3App to H3Parser--><g class="link" data-entity-1="H3App" data-entity-2="H3Parser" data-source-line="68" data-uid="lnk44" id="link_H3App_H3Parser"><path d="M1081.68,132.0573 C1072.81,161.6373 1053.86,222.5873 1033.92,272.7373 C1019.76,308.3673 1002.9238,343.336 991.6538,365.976" fill="none" id="H3App-to-H3Parser" style="stroke:#000000;stroke-width:1;"/><polygon fill="#000000" points="988.98,371.3473,996.5715,365.0729,991.2082,366.8712,989.4098,361.5078,988.98,371.3473" style="stroke:#000000;stroke-width:1;"/><text fill="#000000" font-family="Verdana" font-size="13" lengthAdjust="spacing" textLength="29.5166" x="1064.92" y="257.3071">uses</text></g><!--link WTSession to H3Request--><g class="link" data-entity-1="WTSession" data-entity-2="H3Request" data-source-line="71" data-uid="lnk45" id="link_WTSession_H3Request"><path d="M1477.02,270.2573 C1452.33,278.8773 1423.13,290.1373 1397.92,302.7373 C1357.09,323.1473 1318.0549,349.4234 1291.7649,368.1734" fill="none" id="WTSession-to-H3Request" style="stroke:#000000;stroke-width:1;"/><polygon fill="#000000" points="1286.88,371.6573,1296.53,369.688,1290.9508,368.754,1291.8848,363.1748,1286.88,371.6573" style="stroke:#000000;stroke-width:1;"/><text fill="#000000" font-family="Verdana" font-size="13" lengthAdjust="spacing" textLength="117.895" x="1398.92" y="316.8071">CONNECT request</text></g><!--link WTStreams to Stream--><g class="link" data-entity-1="WTStreams" data-entity-2="Stream" data-source-line="72" data-uid="lnk46" id="link_WTStreams_Stream"><path d="M1708.26,408.8073 C1672.17,426.4573 1616.99,455.6673 1573.92,488.2373 C1541.97,512.4073 1545.62,533.5273 1509.92,551.7373 C1447.34,583.6673 1423.85,570.4973 1353.92,577.2373 C1133.51,598.4773 575.14,564.2273 357.92,607.2373 C352.23,608.3673 352.0401,608.1339 346.3601,610.0339" fill="none" id="WTStreams-to-Stream" style="stroke:#000000;stroke-width:1;"/><polygon fill="#000000" points="340.67,611.9373,350.4741,612.8756,345.4117,610.3512,347.9362,605.2888,340.67,611.9373" style="stroke:#000000;stroke-width:1;"/><text fill="#000000" font-family="Verdana" font-size="13" lengthAdjust="spacing" textLength="52.9077" x="1574.92" y="514.8071">maps to</text></g><!--link WTDatagrams to Datagram--><g class="link" data-entity-1="WTDatagrams" data-entity-2="Datagram" data-source-line="73" data-uid="lnk47" id="link_WTDatagrams_Datagram"><path d="M1508.3,408.8573 C1487.49,441.8973 1438.07,513.2573 1377.92,551.7373 C1344.34,573.2173 1331.29,570.9473 1291.92,577.2373 C835.31,650.2473 707.82,529.8673 251.92,607.2373 C246.04,608.2373 245.7406,608.086 239.7706,609.706" fill="none" id="WTDatagrams-to-Datagram" style="stroke:#000000;stroke-width:1;"/><polygon fill="#000000" points="233.98,611.2773,243.7134,612.7807,238.8055,609.9679,241.6183,605.0599,233.98,611.2773" style="stroke:#000000;stroke-width:1;"/><text fill="#000000" font-family="Verdana" font-size="13" lengthAdjust="spacing" textLength="52.9077" x="1448.92" y="514.8071">maps to</text></g><!--link H3Control to Stream--><g class="link" data-entity-1="H3Control" data-entity-2="Stream" data-source-line="76" data-uid="lnk48" id="link_H3Control_Stream"><path d="M729.82,408.7673 C709.02,417.5273 682.56,427.3773 657.92,432.7373 C603.52,444.5773 586.98,427.8573 532.92,441.2373 C507.91,447.4273 441.46,466.9573 426.92,488.2373 C415.76,504.5873 434.23,560.9773 422.92,577.2373 C420.37,580.9173 379.9337,597.5161 346.1337,610.9861" fill="none" id="H3Control-to-Stream" style="stroke:#000000;stroke-width:1;"/><polygon fill="#000000" points="340.56,613.2073,350.4014,613.5913,345.2047,611.3563,347.4397,606.1597,340.56,613.2073" style="stroke:#000000;stroke-width:1;"/><text fill="#000000" font-family="Verdana" font-size="13" lengthAdjust="spacing" textLength="87.9341" x="427.92" y="514.8071">unidirectional</text></g><!--link H3Request to Stream--><g class="link" data-entity-1="H3Request" data-entity-2="Stream" data-source-line="77" data-uid="lnk49" id="link_H3Request_Stream"><path d="M1200.65,408.7573 C1166,417.6873 1121.91,427.6973 1081.92,432.7373 C934.6,451.3073 894.84,419.6173 747.92,441.2373 C669.52,452.7773 643.18,446.3173 575.92,488.2373 C543.99,508.1473 550.96,530.4573 519.92,551.7373 C457.15,594.7773 429.77,582.1073 357.92,607.2373 C352.26,609.2173 351.9151,609.2996 346.0951,611.4596" fill="none" id="H3Request-to-Stream" style="stroke:#000000;stroke-width:1;"/><polygon fill="#000000" points="340.47,613.5473,350.2994,614.1659,345.1576,611.8076,347.5159,606.6657,340.47,613.5473" style="stroke:#000000;stroke-width:1;"/><text fill="#000000" font-family="Verdana" font-size="13" lengthAdjust="spacing" textLength="79.5806" x="576.92" y="514.8071">bidirectional</text></g><!--link H3Headers to Stream--><g class="link" data-entity-1="H3Headers" data-entity-2="Stream" data-source-line="78" data-uid="lnk50" id="link_H3Headers_Stream"><path d="M1119.98,527.8873 C1103.67,536.6173 1082.81,546.4073 1062.92,551.7373 C759.33,633.0973 664.67,538.7373 357.92,607.2373 C352.17,608.5273 351.8782,608.3687 346.1082,610.3387" fill="none" id="H3Headers-to-Stream" style="stroke:#000000;stroke-width:1;"/><polygon fill="#000000" points="340.43,612.2773,350.2397,613.1548,345.1618,610.6618,347.6548,605.5839,340.43,612.2773" style="stroke:#000000;stroke-width:1;"/><text fill="#000000" font-family="Verdana" font-size="13" lengthAdjust="spacing" textLength="71.7222" x="1028.92" y="574.3071">frame data</text></g><!--link H3Data to Stream--><g class="link" data-entity-1="H3Data" data-entity-2="Stream" data-source-line="79" data-uid="lnk51" id="link_H3Data_Stream"><path d="M1282.27,527.7573 C1268.96,536.1273 1252.13,545.6273 1235.92,551.7373 C1182.05,572.0473 1166.09,570.3973 1108.92,577.2373 C777.24,616.9073 685.28,540.7473 357.92,607.2373 C352.24,608.3873 352.0471,608.1649 346.3671,610.0749" fill="none" id="H3Data-to-Stream" style="stroke:#000000;stroke-width:1;"/><polygon fill="#000000" points="340.68,611.9873,350.4855,612.9101,345.4192,610.3937,347.9357,605.3274,340.68,611.9873" style="stroke:#000000;stroke-width:1;"/><text fill="#000000" font-family="Verdana" font-size="13" lengthAdjust="spacing" textLength="71.7222" x="1211.92" y="574.3071">frame data</text></g><!--link H3Settings to Stream--><g class="link" data-entity-1="H3Settings" data-entity-2="Stream" data-source-line="80" data-uid="lnk52" id="link_H3Settings_Stream"><path d="M704.98,527.7473 C687.44,535.2073 666.7,543.9573 647.92,551.7373 C620.02,563.2973 614.13,569.5273 584.92,577.2373 C486.53,603.2073 456.62,582.4473 357.92,607.2373 C352.2,608.6773 351.915,608.5605 346.155,610.5705" fill="none" id="H3Settings-to-Stream" style="stroke:#000000;stroke-width:1;"/><polygon fill="#000000" points="340.49,612.5473,350.3054,613.3587,345.2108,610.8999,347.6696,605.8054,340.49,612.5473" style="stroke:#000000;stroke-width:1;"/><text fill="#000000" font-family="Verdana" font-size="13" lengthAdjust="spacing" textLength="71.7222" x="629.92" y="574.3071">frame data</text></g><!--link Conn to UDP--><g class="link" data-entity-1="Conn" data-entity-2="UDP" data-source-line="83" data-uid="lnk53" id="link_Conn_UDP"><path d="M226.87,513.5273 C168.04,520.4073 71.76,541.6473 26.92,607.2373 C11,630.5373 13.75,645.7773 26.92,670.7373 C46.44,707.7073 82.0821,730.4817 114.5521,745.6217" fill="none" id="Conn-to-UDP" style="stroke:#000000;stroke-width:1;"/><polygon fill="#000000" points="119.99,748.1573,113.5235,740.7287,115.4584,746.0443,110.1428,747.9792,119.99,748.1573" style="stroke:#000000;stroke-width:1;"/><text fill="#000000" font-family="Verdana" font-size="13" lengthAdjust="spacing" textLength="97.1064" x="27.92" y="633.8071">sends/receives</text></g><!--link Datagram to UDP--><g class="link" data-entity-1="Datagram" data-entity-2="UDP" data-source-line="84" data-uid="lnk54" id="link_Datagram_UDP"><path d="M177.07,646.9173 C171.6,656.1373 165.71,667.8373 162.92,679.2373 C157.22,702.5873 158.8846,724.6091 161.6446,742.2891" fill="none" id="Datagram-to-UDP" style="stroke:#000000;stroke-width:1;"/><polygon fill="#000000" points="162.57,748.2173,165.134,738.708,161.7988,743.2771,157.2297,739.942,162.57,748.2173" style="stroke:#000000;stroke-width:1;"/><text fill="#000000" font-family="Verdana" font-size="13" lengthAdjust="spacing" textLength="97.1064" x="163.92" y="693.3071">sends/receives</text></g><!--link Stream to UDP--><g class="link" data-entity-1="Stream" data-entity-2="UDP" data-source-line="85" data-uid="lnk55" id="link_Stream_UDP"><path d="M297.31,646.8473 C290.51,661.2173 279.53,681.4973 265.92,696.2373 C246.42,717.3673 224.5766,732.5898 203.5466,745.0998" fill="none" id="Stream-to-UDP" style="stroke:#000000;stroke-width:1;"/><polygon fill="#000000" points="198.39,748.1673,208.1699,747.0038,202.6872,745.6111,204.0799,740.1283,198.39,748.1673" style="stroke:#000000;stroke-width:1;"/><text fill="#000000" font-family="Verdana" font-size="13" lengthAdjust="spacing" textLength="207.562" x="280.92" y="693.3071">sends/receives (via connection)</text></g><!--link H3Control to GMN59--><g class="link" data-entity-1="H3Control" data-entity-2="GMN59" data-source-line="89" data-uid="lnk61" id="link_H3Control_GMN59"><path d="M785.98,371.6973 C808.83,349.7073 850.52,314.2573 894.42,300.2373 C966.56,277.1973 2185.56,276.3673 2257.42,300.2373 C2298.06,313.7373 2336.09,346.8773 2358.17,368.9473" fill="none" id="H3Control-GMN59" style="stroke:#000000;stroke-width:1;stroke-dasharray:7,7;"/></g><!--link H3Request to GMN62--><g class="link" data-entity-1="H3Request" data-entity-2="GMN62" data-source-line="90" data-uid="lnk64" id="link_H3Request_GMN62"><path d="M1286.1,371.6373 C1315.21,349.5773 1367.64,314.0673 1419.42,300.2373 C1531.61,270.2773 2355.03,261.3273 2464.42,300.2373 C2502.66,313.8373 2537.25,346.9473 2557.18,368.9873" fill="none" id="H3Request-GMN62" style="stroke:#000000;stroke-width:1;stroke-dasharray:7,7;"/></g><!--link Stream to GMN65--><g class="link" data-entity-1="Stream" data-entity-2="GMN65" data-source-line="91" data-uid="lnk67" id="link_Stream_GMN65"><path d="M324.73,609.6173 C337.97,598.5073 356.39,585.4273 375.42,579.4873 C473.85,548.7673 738.89,556.5973 839.42,579.4873 C863.06,584.8673 887.61,596.4773 906.65,607.0173" fill="none" id="Stream-GMN65" style="stroke:#000000;stroke-width:1;stroke-dasharray:7,7;"/></g><!--link Datagram to GMN68--><g class="link" data-entity-1="Datagram" data-entity-2="GMN68" data-source-line="92" data-uid="lnk70" id="link_Datagram_GMN68"><path d="M211.98,609.5873 C227.27,598.4573 248.34,585.3773 269.42,579.4873 C359.75,554.2673 388.73,559.8373 480.42,579.4873 C505.46,584.8573 531.7,596.4573 552.1,606.9973" fill="none" id="Datagram-GMN68" style="stroke:#000000;stroke-width:1;stroke-dasharray:7,7;"/></g><!--link GMN77 to Conn--><g class="link" data-entity-1="GMN77" data-entity-2="Conn" data-source-line="97" data-uid="lnk79" id="link_GMN77_Conn"><path d="M541.35,411.3673 C527.8,418.3973 512.29,426.1673 497.92,432.7373 C440.36,459.0673 370.82,481.2673 325.09,494.6373" fill="none" id="GMN77-Conn" style="stroke:#000000;stroke-width:1;stroke-dasharray:7,7;"/></g><!--link GMN80 to TLS--><g class="link" data-entity-1="GMN80" data-entity-2="TLS" data-source-line="98" data-uid="lnk82" id="link_GMN80_TLS"><path d="M1663.78,530.2873 C1643.65,546.3573 1612.93,567.7173 1581.92,577.2373 C1466.84,612.5573 617.9,588.8873 498.92,607.2373 C493.43,608.0873 487.75,609.2273 482.12,610.5473" fill="none" id="GMN80-TLS" style="stroke:#000000;stroke-width:1;stroke-dasharray:7,7;"/></g><!--link GMN83 to Config--><g class="link" data-entity-1="GMN83" data-entity-2="Config" data-source-line="101" data-uid="lnk85" id="link_GMN83_Config"><path d="M1935.37,368.9573 C1913.5,346.8873 1875.82,313.7473 1835.42,300.2373 C1753.81,272.9373 366.15,267.8473 286.42,300.2373 C251.14,314.5773 221.92,349.5573 206.28,371.4473" fill="none" id="GMN83-Config" style="stroke:#000000;stroke-width:1;stroke-dasharray:7,7;"/></g><!--link GMN86 to Listener--><g class="link" data-entity-1="GMN86" data-entity-2="Listener" data-source-line="102" data-uid="lnk88" id="link_GMN86_Listener"><path d="M2143.77,368.9273 C2120.19,346.8373 2079.78,313.6773 2037.42,300.2373 C1951.11,272.8473 490.31,263.7773 407.42,300.2373 C374.44,314.7473 348.88,349.6773 335.43,371.5073" fill="none" id="GMN86-Listener" style="stroke:#000000;stroke-width:1;stroke-dasharray:7,7;"/></g><!--link GMN89 to Stream--><g class="link" data-entity-1="GMN89" data-entity-2="Stream" data-source-line="103" data-uid="lnk91" id="link_GMN89_Stream"><path d="M731.47,606.9973 C711.26,596.4573 685.26,584.8573 660.42,579.4873 C536.62,552.7273 496.34,541.7573 375.42,579.4873 C356.39,585.4273 337.97,598.5073 324.73,609.6173" fill="none" id="GMN89-Stream" style="stroke:#000000;stroke-width:1;stroke-dasharray:7,7;"/></g><!--SRC=[ZLVDRXit4BxlKx2wD04SIxQC8j4XW2efjH37aIqPkUo5Mb4oOOhSafHJeyYxv5doP1t-Bhah6VN5tjblFivyyyFrR_gHx0cg6QQyK4-KrrZYFQh4lXQSSBtKBumWIIgD-OwH1BB6rTDEYWFVJ0GJ4dr_f9eSeq3_5WZzsK8pkdlKQtOWvfsG6oATVSq0MFme2aqr77ptC9_qhrUhnR3_ZQnN4dDL2wdH999FIKtuXl2A4bKKDNZZ7K6zSLqpMc5D1KSt-8N8dWsZ2QgNyINm7i8AVLk19SURAFh376b_07uzDF0VoVaP-q8ABIh1NezXIPJoh3O2__oQXvO4xrNZuPvVyPXYZNVI-bYF-5o0KpmIlNltiQ43zX7QOmvvgIEeI96WKYMyRYSryEy_0GL12ooLgLMGrJtd3dUByUGpcl5AGDVqfyJ-xba7- -ee_KHmBGNpalKylRSUzRWdVn-8qYqFRyqzbhFLQdxxrz8buTiYfB0aMbE-QrNbUZQUpkux7ixbcc18gUKn7Q_67NZmC4Km9GoAWTrKnqdbVaRee6m1OzeEqqHeC0g6IVLXtWbzzkWWX4VxuD3_Gvl0mlajTDeaNzJTWLOd9lMUxAZICiuSP0oc70CfRUdk4460SQOSTWD4XFiESrJ1rE7ZiFJYb3k-rZ36rcZOdAbLEJyXoQ71b0DNDqlRgEGV7KO0JAQkaAztDhAwp9oe5PodhVOv9gJr6iPa58hJO1hs3iQBR67D0MqOhYfIQq_5c-ESDaUEIp11c7pdv1WZKpZhsCPfrjtnVdgOBj1IL4z4zvBAWJM7tHBzNSWdD8U2o2skYDsPO9rlJKaCYud66i9qGHY_frS4qY9kFeYrhkqciBSB2blMRrFFOA-IC3rXcFqxuCwsEP3xPPLG1pvF4UPnX2PVRszdanLSvcw59Gk-NHsWKy1U9DkzMnm7WPXy312DkQwRM5gBnXy0kN2weT9D5sP5QsT4sBg5YeidGstjlR4n-o_PDgSXSTcTWa12DWr8fr4wvXGxqRYR5kYijIZIIKHK-XG2lNccs4oRNq5lJL3nG-S5OSw5jlsb2lWBli_CrnGIswoTZAeWe0hrkHmCqDVF9OV4sgsGaoHr6mM9vbDqsH-M_4t5A4n77zho6JgJSgef3FBcROSZ5ZNb69oXgpFq_lpy7AYo0hS9cdQqgJ2AruoS8VkfI3ObAC50AldIScjQ5DmUk0oE9JzmxukYAwWQXvEPLT5LLekwe-kdoQ-V7oul1oNFfb4OGPpMcMywnixtukAgv4UGwH9roC40Jh7j6C_9FD9LQ3tUNrtzKN8m__fvSJuq6IuX7sZjz3FPCZ2orVvGj-v7wCi1wiK4tfZr360eBLCbNvEja2JfHxEDSf9u6NWIHNIyBQoS9GSEVpD02HgkLZInx2aHPipyjr5op3U8S5DGv6VbFm00]--></g></svg>