<svg xmlns="http://www.w3.org/2000/svg" xmlns:xlink="http://www.w3.org/1999/xlink" contentStyleType="text/css" data-diagram-type="SEQUENCE" height="757px" preserveAspectRatio="none" style="width:563px;height:757px;background:#FFFFFF;" version="1.1" viewBox="0 0 563 757" width="563px" zoomAndPan="magnify"><defs/><g><rect fill="none" height="80.8906" style="stroke:#000000;stroke-width:1.5;" width="392.165" x="10" y="312.0703"/><g><title>Application</title><rect fill="#000000" fill-opacity="0.00000" height="540.4609" width="8" x="53.2446" y="82.6094"/><line style="stroke:#181818;stroke-width:0.5;stroke-dasharray:5,5;" x1="57" x2="57" y1="82.6094" y2="623.0703"/></g><line style="stroke:#181818;stroke-width:0.5;stroke-dasharray:1,4;" x1="57" x2="57" y1="623.0703" y2="664.9063"/><g><title>Application</title><rect fill="#000000" fill-opacity="0.00000" height="10" width="8" x="53.2446" y="664.9063"/><line style="stroke:#181818;stroke-width:0.5;stroke-dasharray:5,5;" x1="57" x2="57" y1="664.9063" y2="674.9063"/></g><g><title>Listener</title><rect fill="#000000" fill-opacity="0.00000" height="540.4609" width="8" x="261.4346" y="82.6094"/><line style="stroke:#181818;stroke-width:0.5;stroke-dasharray:5,5;" x1="264.5313" x2="264.5313" y1="82.6094" y2="623.0703"/></g><line style="stroke:#181818;stroke-width:0.5;stroke-dasharray:1,4;" x1="264.5313" x2="264.5313" y1="623.0703" y2="664.9063"/><g><title>Listener</title><rect fill="#000000" fill-opacity="0.00000" height="10" width="8" x="261.4346" y="664.9063"/><line style="stroke:#181818;stroke-width:0.5;stroke-dasharray:5,5;" x1="264.5313" x2="264.5313" y1="664.9063" y2="674.9063"/></g><g><title>Connection</title><rect fill="#000000" fill-opacity="0.00000" height="540.4609" width="8" x="345.7515" y="82.6094"/><line style="stroke:#181818;stroke-width:0.5;stroke-dasharray:5,5;" x1="349.3379" x2="349.3379" y1="82.6094" y2="623.0703"/></g><line style="stroke:#181818;stroke-width:0.5;stroke-dasharray:1,4;" x1="349.3379" x2="349.3379" y1="623.0703" y2="664.9063"/><g><title>Connection</title><rect fill="#000000" fill-opacity="0.00000" height="10" width="8" x="345.7515" y="664.9063"/><line style="stroke:#181818;stroke-width:0.5;stroke-dasharray:5,5;" x1="349.3379" x2="349.3379" y1="664.9063" y2="674.9063"/></g><g><title>RemotePeer</title><rect fill="#000000" fill-opacity="0.00000" height="540.4609" width="8" x="501.3296" y="82.6094"/><line style="stroke:#181818;stroke-width:0.5;stroke-dasharray:5,5;" x1="505.0332" x2="505.0332" y1="82.6094" y2="623.0703"/></g><line style="stroke:#181818;stroke-width:0.5;stroke-dasharray:1,4;" x1="505.0332" x2="505.0332" y1="623.0703" y2="664.9063"/><g><title>RemotePeer</title><rect fill="#000000" fill-opacity="0.00000" height="10" width="8" x="501.3296" y="664.9063"/><line style="stroke:#181818;stroke-width:0.5;stroke-dasharray:5,5;" x1="505.0332" x2="505.0332" y1="664.9063" y2="674.9063"/></g><g class="participant participant-head" data-participant="Application"><text fill="#000000" font-family="sans-serif" font-size="14" lengthAdjust="spacing" textLength="68.4893" x="20" y="79.5332">Application</text><ellipse cx="57.2446" cy="13.5" fill="#E2E2F0" rx="8" ry="8" style="stroke:#181818;stroke-width:0.5;"/><path d="M57.2446,21.5 L57.2446,48.5 M44.2446,29.5 L70.2446,29.5 M57.2446,48.5 L44.2446,63.5 M57.2446,48.5 L70.2446,63.5" fill="none" style="stroke:#181818;stroke-width:0.5;"/></g><g class="participant participant-tail" data-participant="Application"><text fill="#000000" font-family="sans-serif" font-size="14" lengthAdjust="spacing" textLength="68.4893" x="20" y="688.4395">Application</text><ellipse cx="57.2446" cy="700.0156" fill="#E2E2F0" rx="8" ry="8" style="stroke:#181818;stroke-width:0.5;"/><path d="M57.2446,708.0156 L57.2446,735.0156 M44.2446,716.0156 L70.2446,716.0156 M57.2446,735.0156 L44.2446,750.0156 M57.2446,735.0156 L70.2446,750.0156" fill="none" style="stroke:#181818;stroke-width:0.5;"/></g><g class="participant participant-head" data-participant="Listener"><rect fill="#E2E2F0" height="31.6094" rx="2.5" ry="2.5" style="stroke:#181818;stroke-width:0.5;" width="63.8066" x="233.5313" y="50"/><text fill="#000000" font-family="sans-serif" font-size="14" lengthAdjust="spacing" textLength="49.8066" x="240.5313" y="71.5332">Listener</text></g><g class="participant participant-tail" data-participant="Listener"><rect fill="#E2E2F0" height="31.6094" rx="2.5" ry="2.5" style="stroke:#181818;stroke-width:0.5;" width="63.8066" x="233.5313" y="673.9063"/><text fill="#000000" font-family="sans-serif" font-size="14" lengthAdjust="spacing" textLength="49.8066" x="240.5313" y="695.4395">Listener</text></g><g class="participant participant-head" data-participant="Connection"><rect fill="#E2E2F0" height="31.6094" rx="2.5" ry="2.5" style="stroke:#181818;stroke-width:0.5;" width="84.8271" x="307.3379" y="50"/><text fill="#000000" font-family="sans-serif" font-size="14" lengthAdjust="spacing" textLength="70.8271" x="314.3379" y="71.5332">Connection</text></g><g class="participant participant-tail" data-participant="Connection"><rect fill="#E2E2F0" height="31.6094" rx="2.5" ry="2.5" style="stroke:#181818;stroke-width:0.5;" width="84.8271" x="307.3379" y="673.9063"/><text fill="#000000" font-family="sans-serif" font-size="14" lengthAdjust="spacing" textLength="70.8271" x="314.3379" y="695.4395">Connection</text></g><g class="participant participant-head" data-participant="RemotePeer"><rect fill="#E2E2F0" height="31.6094" rx="2.5" ry="2.5" style="stroke:#181818;stroke-width:0.5;" width="92.5928" x="459.0332" y="50"/><text fill="#000000" font-family="sans-serif" font-size="14" lengthAdjust="spacing" textLength="78.5928" x="466.0332" y="71.5332">RemotePeer</text></g><g class="participant participant-tail" data-participant="RemotePeer"><rect fill="#E2E2F0" height="31.6094" rx="2.5" ry="2.5" style="stroke:#181818;stroke-width:0.5;" width="92.5928" x="459.0332" y="673.9063"/><text fill="#000000" font-family="sans-serif" font-size="14" lengthAdjust="spacing" textLength="78.5928" x="466.0332" y="695.4395">RemotePeer</text></g><rect fill="#EEEEEE" height="3" style="stroke:#EEEEEE;stroke-width:1;" width="556.626" x="0" y="113.7852"/><line style="stroke:#000000;stroke-width:1;" x1="0" x2="556.626" y1="113.7852" y2="113.7852"/><line style="stroke:#000000;stroke-width:1;" x1="0" x2="556.626" y1="116.7852" y2="116.7852"/><rect fill="#EEEEEE" height="24.3516" style="stroke:#000000;stroke-width:2;" width="150.4937" x="203.0662" y="102.6094"/><text fill="#000000" font-family="sans-serif" font-size="13" font-weight="bold" lengthAdjust="spacing" textLength="132.8818" x="209.0662" y="120.1045">Incoming Connection</text><g class="message" data-participant-1="Listener" data-participant-2="Application"><polygon fill="#181818" points="68.2446,171.6641,58.2446,175.6641,68.2446,179.6641,64.2446,175.6641" style="stroke:#181818;stroke-width:1;"/><line style="stroke:#181818;stroke-width:1;" x1="62.2446" x2="264.4346" y1="175.6641" y2="175.6641"/><text fill="#000000" font-family="sans-serif" font-size="13" lengthAdjust="spacing" textLength="184.1899" x="74.2446" y="154.4561">OnEvent(NEW_CONNECTION)</text><text fill="#000000" font-family="sans-serif" font-size="13" lengthAdjust="spacing" textLength="119.5898" x="74.2446" y="170.8076">(Event-&gt;Connection)</text></g><rect fill="#EEEEEE" height="3" style="stroke:#EEEEEE;stroke-width:1;" width="556.626" x="0" y="204.8398"/><line style="stroke:#000000;stroke-width:1;" x1="0" x2="556.626" y1="204.8398" y2="204.8398"/><line style="stroke:#000000;stroke-width:1;" x1="0" x2="556.626" y1="207.8398" y2="207.8398"/><rect fill="#EEEEEE" height="24.3516" style="stroke:#000000;stroke-width:2;" width="105.7363" x="225.4448" y="193.6641"/><text fill="#000000" font-family="sans-serif" font-size="13" font-weight="bold" lengthAdjust="spacing" textLength="88.1245" x="231.4448" y="211.1592">Bind Handlers</text><g class="message" data-participant-1="Application" data-participant-2="Connection"><polygon fill="#181818" points="337.7515,262.7188,347.7515,266.7188,337.7515,270.7188,341.7515,266.7188" style="stroke:#181818;stroke-width:1;"/><line style="stroke:#181818;stroke-width:1;" x1="57.2446" x2="343.7515" y1="266.7188" y2="266.7188"/><text fill="#000000" font-family="sans-serif" font-size="13" lengthAdjust="spacing" textLength="163.2808" x="64.2446" y="245.5107">MsQuicSetCallbackHandler(</text><text fill="#000000" font-family="sans-serif" font-size="13" lengthAdjust="spacing" textLength="184.9771" x="67.8564" y="261.8623">Connection, ConnCallback, Ctx)</text></g><g class="message" data-participant-1="Application" data-participant-2="Connection"><polygon fill="#181818" points="337.7515,293.0703,347.7515,297.0703,337.7515,301.0703,341.7515,297.0703" style="stroke:#181818;stroke-width:1;"/><line style="stroke:#181818;stroke-width:1;" x1="57.2446" x2="343.7515" y1="297.0703" y2="297.0703"/><text fill="#000000" font-family="sans-serif" font-size="13" lengthAdjust="spacing" textLength="244.9307" x="64.2446" y="292.2139">(optional) MsQuicConnectionSetParam(...)</text></g><path d="M10,312.0703 L70.1709,312.0703 L70.1709,320.4219 L60.1709,330.4219 L10,330.4219 L10,312.0703" fill="#EEEEEE" style="stroke:#000000;stroke-width:1.5;"/><rect fill="none" height="80.8906" style="stroke:#000000;stroke-width:1.5;" width="392.165" x="10" y="312.0703"/><text fill="#000000" font-family="sans-serif" font-size="13" font-weight="bold" lengthAdjust="spacing" textLength="15.1709" x="25" y="326.5654">alt</text><text fill="#000000" font-family="sans-serif" font-size="11" font-weight="bold" lengthAdjust="spacing" textLength="40.3423" x="85.1709" y="325.4893">[Reject]</text><g class="message" data-participant-1="Application" data-participant-2="Connection"><polygon fill="#181818" points="337.7515,365.125,347.7515,369.125,337.7515,373.125,341.7515,369.125" style="stroke:#181818;stroke-width:1;"/><line style="stroke:#181818;stroke-width:1;" x1="57.2446" x2="343.7515" y1="369.125" y2="369.125"/><text fill="#000000" font-family="sans-serif" font-size="13" lengthAdjust="spacing" textLength="171.9771" x="64.2446" y="347.917">MsQuicConnectionShutdown(</text><text fill="#000000" font-family="sans-serif" font-size="13" lengthAdjust="spacing" textLength="153.8926" x="67.8564" y="364.2686">Connection, REFUSED, 0)</text></g><line style="stroke:#000000;stroke-width:1;stroke-dasharray:2,2;" x1="10" x2="402.165" y1="378.125" y2="378.125"/><text fill="#000000" font-family="sans-serif" font-size="11" font-weight="bold" lengthAdjust="spacing" textLength="44.0054" x="15" y="389.5439">[Accept]</text><rect fill="#EEEEEE" height="3" style="stroke:#EEEEEE;stroke-width:1;" width="556.626" x="0" y="421.1367"/><line style="stroke:#000000;stroke-width:1;" x1="0" x2="556.626" y1="421.1367" y2="421.1367"/><line style="stroke:#000000;stroke-width:1;" x1="0" x2="556.626" y1="424.1367" y2="424.1367"/><rect fill="#EEEEEE" height="24.3516" style="stroke:#000000;stroke-width:2;" width="170.7554" x="192.9353" y="409.9609"/><text fill="#000000" font-family="sans-serif" font-size="13" font-weight="bold" lengthAdjust="spacing" textLength="153.1436" x="198.9353" y="427.4561">Handshake &amp; Connected</text><g class="message" data-participant-1="Connection" data-participant-2="RemotePeer"><polygon fill="#181818" points="493.3296,462.6641,503.3296,466.6641,493.3296,470.6641,497.3296,466.6641" style="stroke:#181818;stroke-width:1;"/><line style="stroke:#181818;stroke-width:1;" x1="349.7515" x2="499.3296" y1="466.6641" y2="466.6641"/><text fill="#000000" font-family="sans-serif" font-size="13" lengthAdjust="spacing" textLength="106.9517" x="356.7515" y="461.8076">Initial / Handshake</text></g><g class="message" data-participant-1="RemotePeer" data-participant-2="Connection"><polygon fill="#181818" points="360.7515,493.0156,350.7515,497.0156,360.7515,501.0156,356.7515,497.0156" style="stroke:#181818;stroke-width:1;"/><line style="stroke:#181818;stroke-width:1;" x1="354.7515" x2="504.3296" y1="497.0156" y2="497.0156"/><text fill="#000000" font-family="sans-serif" font-size="13" lengthAdjust="spacing" textLength="127.918" x="366.7515" y="492.1592">Handshake Response</text></g><g class="message" data-participant-1="Connection" data-participant-2="Connection"><line style="stroke:#181818;stroke-width:1;" x1="349.7515" x2="391.7515" y1="527.3672" y2="527.3672"/><line style="stroke:#181818;stroke-width:1;" x1="391.7515" x2="391.7515" y1="527.3672" y2="540.3672"/><line style="stroke:#181818;stroke-width:1;" x1="350.7515" x2="391.7515" y1="540.3672" y2="540.3672"/><polygon fill="#181818" points="360.7515,536.3672,350.7515,540.3672,360.7515,544.3672,356.7515,540.3672" style="stroke:#181818;stroke-width:1;"/><text fill="#000000" font-family="sans-serif" font-size="13" lengthAdjust="spacing" textLength="141.5781" x="356.7515" y="522.5107">OnEvent(CONNECTED)</text></g><g class="message" data-participant-1="Connection" data-participant-2="Application"><polygon fill="#181818" points="68.2446,566.7188,58.2446,570.7188,68.2446,574.7188,64.2446,570.7188" style="stroke:#181818;stroke-width:1;"/><line style="stroke:#181818;stroke-width:1;stroke-dasharray:2,2;" x1="62.2446" x2="348.7515" y1="570.7188" y2="570.7188"/><text fill="#000000" font-family="sans-serif" font-size="13" lengthAdjust="spacing" textLength="267.2554" x="74.2446" y="565.8623">QUIC_CONNECTION_EVENT_CONNECTED</text></g><rect fill="#EEEEEE" height="3" style="stroke:#EEEEEE;stroke-width:1;" width="556.626" x="0" y="599.8945"/><line style="stroke:#000000;stroke-width:1;" x1="0" x2="556.626" y1="599.8945" y2="599.8945"/><line style="stroke:#000000;stroke-width:1;" x1="0" x2="556.626" y1="602.8945" y2="602.8945"/><rect fill="#EEEEEE" height="24.3516" style="stroke:#000000;stroke-width:2;" width="187.3799" x="184.623" y="588.7188"/><text fill="#000000" font-family="sans-serif" font-size="13" font-weight="bold" lengthAdjust="spacing" textLength="169.7681" x="190.623" y="606.2139">Serve Streams &amp; Shutdown</text><text fill="#000000" font-family="sans-serif" font-size="11" lengthAdjust="spacing" textLength="201.7759" x="180.3992" y="648.4893">(stream events, then shutdown as above)</text><!--SRC=[XLBBJiCm4BpdA_Q44gaKpaYjL48GaI2bBOyBKkKwIsDmrv7j58xy1h_7b-2aJUEs4lXaUsTdTdQNSQiqZCfI2iwiK1IKJ5l1HSd8mgqm5WdrtcUiY90VOQUuKXRlqQ63mG1IucebQEd1OJ08MaOu7VggS05ZIjP8DioIvtayph8aVaZ7MVH2OVD_Eko8eaRXKb0EDunoYThKt3wVe_U4B-3EJ2h1PsXZ9kM2yVTjOlX27h3Nt5k8UzdFw4_QK9NrZSbegz15dTOzqsmLzljzLp2JTOlUN2m0T_wlrMCgAfkh3pgiTPfSFywIgnwSHm5AWp3Y7CiDFxbPW1RBmhPym1LPGHKQA9ntKx1tXCgu4JbQkHtBpzUtgJLUnRBIctr0ofjst-oIJjegCA_RxjNkd7Hhu9oa9AnW4iwwxC0371hl9APeIaK63yYz5tWhirsNv2hQmn-jsEGnZRtTcYTFIVOmtsKtDcUermWpgv6jZBFQDhzswYO9eMb2WBMowO4jaC2q86Q0BTGQ8t3ONm00]--></g></svg>