<svg xmlns="http://www.w3.org/2000/svg" xmlns:xlink="http://www.w3.org/1999/xlink" contentStyleType="text/css" data-diagram-type="SEQUENCE" height="737px" preserveAspectRatio="none" style="width:606px;height:737px;background:#FFFFFF;" version="1.1" viewBox="0 0 606 737" width="606px" zoomAndPan="magnify"><defs/><g><g><title>Application</title><rect fill="#000000" fill-opacity="0.00000" height="572.6797" width="8" x="38.2446" y="82.6094"/><line style="stroke:#181818;stroke-width:0.5;stroke-dasharray:5,5;" x1="42" x2="42" y1="82.6094" y2="655.2891"/></g><g><title>Connection</title><rect fill="#000000" fill-opacity="0.00000" height="572.6797" width="8" x="184.3354" y="82.6094"/><line style="stroke:#181818;stroke-width:0.5;stroke-dasharray:5,5;" x1="187.9219" x2="187.9219" y1="82.6094" y2="655.2891"/></g><g><title>Stream</title><rect fill="#000000" fill-opacity="0.00000" height="572.6797" width="8" x="315.8208" y="82.6094"/><line style="stroke:#181818;stroke-width:0.5;stroke-dasharray:5,5;" x1="319.2588" x2="319.2588" y1="82.6094" y2="655.2891"/></g><g><title>RemotePeer</title><rect fill="#000000" fill-opacity="0.00000" height="572.6797" width="8" x="544.3525" y="82.6094"/><line style="stroke:#181818;stroke-width:0.5;stroke-dasharray:5,5;" x1="548.0562" x2="548.0562" y1="82.6094" y2="655.2891"/></g><g class="participant participant-head" data-participant="Application"><text fill="#000000" font-family="sans-serif" font-size="14" lengthAdjust="spacing" textLength="68.4893" x="5" y="79.5332">Application</text><ellipse cx="42.2446" cy="13.5" fill="#E2E2F0" rx="8" ry="8" style="stroke:#181818;stroke-width:0.5;"/><path d="M42.2446,21.5 L42.2446,48.5 M29.2446,29.5 L55.2446,29.5 M42.2446,48.5 L29.2446,63.5 M42.2446,48.5 L55.2446,63.5" fill="none" style="stroke:#181818;stroke-width:0.5;"/></g><g class="participant participant-tail" data-participant="Application"><text fill="#000000" font-family="sans-serif" font-size="14" lengthAdjust="spacing" textLength="68.4893" x="5" y="668.8223">Application</text><ellipse cx="42.2446" cy="680.3984" fill="#E2E2F0" rx="8" ry="8" style="stroke:#181818;stroke-width:0.5;"/><path d="M42.2446,688.3984 L42.2446,715.3984 M29.2446,696.3984 L55.2446,696.3984 M42.2446,715.3984 L29.2446,730.3984 M42.2446,715.3984 L55.2446,730.3984" fill="none" style="stroke:#181818;stroke-width:0.5;"/></g><g class="participant participant-head" data-participant="C"><rect fill="#E2E2F0" height="31.6094" rx="2.5" ry="2.5" style="stroke:#181818;stroke-width:0.5;" width="84.8271" x="145.9219" y="50"/><text fill="#000000" font-family="sans-serif" font-size="14" lengthAdjust="spacing" textLength="70.8271" x="152.9219" y="71.5332">Connection</text></g><g class="participant participant-tail" data-participant="C"><rect fill="#E2E2F0" height="31.6094" rx="2.5" ry="2.5" style="stroke:#181818;stroke-width:0.5;" width="84.8271" x="145.9219" y="654.2891"/><text fill="#000000" font-family="sans-serif" font-size="14" lengthAdjust="spacing" textLength="70.8271" x="152.9219" y="675.8223">Connection</text></g><g class="participant participant-head" data-participant="S"><rect fill="#E2E2F0" height="31.6094" rx="2.5" ry="2.5" style="stroke:#181818;stroke-width:0.5;" width="59.124" x="290.2588" y="50"/><text fill="#000000" font-family="sans-serif" font-size="14" lengthAdjust="spacing" textLength="45.124" x="297.2588" y="71.5332">Stream</text></g><g class="participant participant-tail" data-participant="S"><rect fill="#E2E2F0" height="31.6094" rx="2.5" ry="2.5" style="stroke:#181818;stroke-width:0.5;" width="59.124" x="290.2588" y="654.2891"/><text fill="#000000" font-family="sans-serif" font-size="14" lengthAdjust="spacing" textLength="45.124" x="297.2588" y="675.8223">Stream</text></g><g class="participant participant-head" data-participant="R"><rect fill="#E2E2F0" height="31.6094" rx="2.5" ry="2.5" style="stroke:#181818;stroke-width:0.5;" width="92.5928" x="502.0562" y="50"/><text fill="#000000" font-family="sans-serif" font-size="14" lengthAdjust="spacing" textLength="78.5928" x="509.0562" y="71.5332">RemotePeer</text></g><g class="participant participant-tail" data-participant="R"><rect fill="#E2E2F0" height="31.6094" rx="2.5" ry="2.5" style="stroke:#181818;stroke-width:0.5;" width="92.5928" x="502.0562" y="654.2891"/><text fill="#000000" font-family="sans-serif" font-size="14" lengthAdjust="spacing" textLength="78.5928" x="509.0562" y="675.8223">RemotePeer</text></g><rect fill="#EEEEEE" height="3" style="stroke:#EEEEEE;stroke-width:1;" width="599.6489" x="0" y="113.7852"/><line style="stroke:#000000;stroke-width:1;" x1="0" x2="599.6489" y1="113.7852" y2="113.7852"/><line style="stroke:#000000;stroke-width:1;" x1="0" x2="599.6489" y1="116.7852" y2="116.7852"/><rect fill="#EEEEEE" height="24.3516" style="stroke:#000000;stroke-width:2;" width="98.5254" x="250.5618" y="102.6094"/><text fill="#000000" font-family="sans-serif" font-size="13" font-weight="bold" lengthAdjust="spacing" textLength="80.9136" x="256.5618" y="120.1045">Open Stream</text><g class="message" data-participant-1="Application" data-participant-2="C"><polygon fill="#181818" points="176.3354,220.7188,186.3354,224.7188,176.3354,228.7188,180.3354,224.7188" style="stroke:#181818;stroke-width:1;"/><line style="stroke:#181818;stroke-width:1;" x1="42.2446" x2="182.3354" y1="224.7188" y2="224.7188"/><text fill="#000000" font-family="sans-serif" font-size="13" lengthAdjust="spacing" textLength="122.0908" x="49.2446" y="154.4561">MsQuicStreamOpen(</text><text fill="#000000" font-family="sans-serif" font-size="13" lengthAdjust="spacing" textLength="13" x="52.8564" y="170.8076">C,</text><text fill="#000000" font-family="sans-serif" font-size="13" lengthAdjust="spacing" textLength="113.4009" x="52.8564" y="187.1592">UNIDIRECTIONAL,</text><text fill="#000000" font-family="sans-serif" font-size="13" lengthAdjust="spacing" textLength="95.3672" x="52.8564" y="203.5107">StreamCallback,</text><text fill="#000000" font-family="sans-serif" font-size="13" lengthAdjust="spacing" textLength="54.7168" x="52.8564" y="219.8623">Ctx) &#226;&#8224;&#8217; S</text></g><g class="message" data-participant-1="Application" data-participant-2="S"><polygon fill="#181818" points="307.8208,251.0703,317.8208,255.0703,307.8208,259.0703,311.8208,255.0703" style="stroke:#181818;stroke-width:1;"/><line style="stroke:#181818;stroke-width:1;" x1="42.2446" x2="313.8208" y1="255.0703" y2="255.0703"/><text fill="#000000" font-family="sans-serif" font-size="13" lengthAdjust="spacing" textLength="175.5254" x="49.2446" y="250.2139">MsQuicStreamStart(S, NONE)</text></g><g class="message" data-participant-1="S" data-participant-2="S"><line style="stroke:#181818;stroke-width:1;" x1="319.8208" x2="361.8208" y1="301.7734" y2="301.7734"/><line style="stroke:#181818;stroke-width:1;" x1="361.8208" x2="361.8208" y1="301.7734" y2="314.7734"/><line style="stroke:#181818;stroke-width:1;" x1="320.8208" x2="361.8208" y1="314.7734" y2="314.7734"/><polygon fill="#181818" points="330.8208,310.7734,320.8208,314.7734,330.8208,318.7734,326.8208,314.7734" style="stroke:#181818;stroke-width:1;"/><text fill="#000000" font-family="sans-serif" font-size="13" lengthAdjust="spacing" textLength="180.5972" x="326.8208" y="280.5654">OnEvent(START_COMPLETE)</text><text fill="#000000" font-family="sans-serif" font-size="13" lengthAdjust="spacing" textLength="109.8018" x="326.8208" y="296.917">(status SUCCESS)</text></g><rect fill="#EEEEEE" height="3" style="stroke:#EEEEEE;stroke-width:1;" width="599.6489" x="0" y="343.9492"/><line style="stroke:#000000;stroke-width:1;" x1="0" x2="599.6489" y1="343.9492" y2="343.9492"/><line style="stroke:#000000;stroke-width:1;" x1="0" x2="599.6489" y1="346.9492" y2="346.9492"/><rect fill="#EEEEEE" height="24.3516" style="stroke:#000000;stroke-width:2;" width="81.1836" x="259.2327" y="332.7734"/><text fill="#000000" font-family="sans-serif" font-size="13" font-weight="bold" lengthAdjust="spacing" textLength="63.5718" x="265.2327" y="350.2686">Send Data</text><g class="message" data-participant-1="Application" data-participant-2="S"><polygon fill="#181818" points="307.8208,401.8281,317.8208,405.8281,307.8208,409.8281,311.8208,405.8281" style="stroke:#181818;stroke-width:1;"/><line style="stroke:#181818;stroke-width:1;" x1="42.2446" x2="313.8208" y1="405.8281" y2="405.8281"/><text fill="#000000" font-family="sans-serif" font-size="13" lengthAdjust="spacing" textLength="132.9326" x="49.2446" y="384.6201">MsQuicStreamSend(S,</text><text fill="#000000" font-family="sans-serif" font-size="13" lengthAdjust="spacing" textLength="237.7134" x="52.8564" y="400.9717">Buffers, Count, FLAGS, &amp;PacketContext)</text></g><path d="M324,418.8281 L324,460.8281 L499,460.8281 L499,428.8281 L489,418.8281 L324,418.8281" fill="#FEFFDD" style="stroke:#181818;stroke-width:0.5;"/><path d="M489,418.8281 L489,428.8281 L499,428.8281 L489,418.8281" fill="#FEFFDD" style="stroke:#181818;stroke-width:0.5;"/><text fill="#000000" font-family="sans-serif" font-size="13" lengthAdjust="spacing" textLength="154.6226" x="330" y="437.3232">Library applies flow-control</text><text fill="#000000" font-family="sans-serif" font-size="13" lengthAdjust="spacing" textLength="94.6753" x="330" y="453.6748">to packet pacing</text><g class="message" data-participant-1="S" data-participant-2="R"><polygon fill="#181818" points="536.3525,484.8828,546.3525,488.8828,536.3525,492.8828,540.3525,488.8828" style="stroke:#181818;stroke-width:1;"/><line style="stroke:#181818;stroke-width:1;" x1="319.8208" x2="542.3525" y1="488.8828" y2="488.8828"/><text fill="#000000" font-family="sans-serif" font-size="13" lengthAdjust="spacing" textLength="109.0845" x="326.8208" y="484.0264">QUIC Stream Data</text></g><rect fill="#EEEEEE" height="3" style="stroke:#EEEEEE;stroke-width:1;" width="599.6489" x="0" y="518.0586"/><line style="stroke:#000000;stroke-width:1;" x1="0" x2="599.6489" y1="518.0586" y2="518.0586"/><line style="stroke:#000000;stroke-width:1;" x1="0" x2="599.6489" y1="521.0586" y2="521.0586"/><rect fill="#EEEEEE" height="24.3516" style="stroke:#000000;stroke-width:2;" width="132.4409" x="233.604" y="506.8828"/><text fill="#000000" font-family="sans-serif" font-size="13" font-weight="bold" lengthAdjust="spacing" textLength="114.8291" x="239.604" y="524.3779">Shutdown &amp; Close</text><g class="message" data-participant-1="Application" data-participant-2="S"><polygon fill="#181818" points="307.8208,559.5859,317.8208,563.5859,307.8208,567.5859,311.8208,563.5859" style="stroke:#181818;stroke-width:1;"/><line style="stroke:#181818;stroke-width:1;" x1="42.2446" x2="313.8208" y1="563.5859" y2="563.5859"/><text fill="#000000" font-family="sans-serif" font-size="13" lengthAdjust="spacing" textLength="253.5762" x="49.2446" y="558.7295">MsQuicStreamShutdown(S, GRACEFUL, 0)</text></g><g class="message" data-participant-1="S" data-participant-2="S"><line style="stroke:#181818;stroke-width:1;" x1="319.8208" x2="361.8208" y1="593.9375" y2="593.9375"/><line style="stroke:#181818;stroke-width:1;" x1="361.8208" x2="361.8208" y1="593.9375" y2="606.9375"/><line style="stroke:#181818;stroke-width:1;" x1="320.8208" x2="361.8208" y1="606.9375" y2="606.9375"/><polygon fill="#181818" points="330.8208,602.9375,320.8208,606.9375,330.8208,610.9375,326.8208,606.9375" style="stroke:#181818;stroke-width:1;"/><text fill="#000000" font-family="sans-serif" font-size="13" lengthAdjust="spacing" textLength="214.5317" x="326.8208" y="589.0811">OnEvent(SHUTDOWN_COMPLETE)</text></g><g class="message" data-participant-1="Application" data-participant-2="S"><polygon fill="#181818" points="307.8208,633.2891,317.8208,637.2891,307.8208,641.2891,311.8208,637.2891" style="stroke:#181818;stroke-width:1;"/><line style="stroke:#181818;stroke-width:1;" x1="42.2446" x2="313.8208" y1="637.2891" y2="637.2891"/><text fill="#000000" font-family="sans-serif" font-size="13" lengthAdjust="spacing" textLength="136.5254" x="49.2446" y="632.4326">MsQuicStreamClose(S)</text></g><!--SRC=[ZL1DQi905Dxd56yb1Y9qBQIGZj46OgAPX6w4CiQ9XiQPC7cfTkSrkYkzIc_YIJgZbLOhj9iP-DxttlV3SfGAlBgkofnXAOLLCuLbNjPC810f1CyD3Am1SZQZg3XR6voUuGbVI-GJpfMP9PRbkX3NN9mMNDVw8GUzMo3GXt4pRSlyI37ixam0SVIJHS4WI7oI1d7aXGOvaWYhgZdBdmn2S6l3n_j-zxRVlMex5_VfnNsAscwNEX35aMzRzCI9XV_CXPwaNf8-adWy2VtKjsUYso33LWVD2F4fjG-PA1SB631aLnBzKjHSBQYjthL5mLNZw6fRWGuCGs-adNGcEWf7tJVoBTgMq1M2AfSh15a0xKDOpXLJBy2C46-WgEIcbskwajLCe8JwSC1yfLWUCoNQnJGBoAbvO_PeVTNYGcu4T81Kik7_IV2rOceR9HxnXrdemCsrzkwpT10_HDy5_dNxuA5BxKy0]--></g></svg>