<svg xmlns="http://www.w3.org/2000/svg" xmlns:xlink="http://www.w3.org/1999/xlink" contentStyleType="text/css" data-diagram-type="SEQUENCE" height="847px" preserveAspectRatio="none" style="width:907px;height:847px;background:#FFFFFF;" version="1.1" viewBox="0 0 907 847" width="907px" zoomAndPan="magnify"><defs/><g><g><title>Application</title><rect fill="#000000" fill-opacity="0.00000" height="682.3828" width="8" x="38.2446" y="82.6094"/><line style="stroke:#181818;stroke-width:0.5;stroke-dasharray:5,5;" x1="42" x2="42" y1="82.6094" y2="764.9922"/></g><g><title>Connection</title><rect fill="#000000" fill-opacity="0.00000" height="682.3828" width="8" x="378.6499" y="82.6094"/><line style="stroke:#181818;stroke-width:0.5;stroke-dasharray:5,5;" x1="382.2363" x2="382.2363" y1="82.6094" y2="764.9922"/></g><g><title>Stream</title><rect fill="#000000" fill-opacity="0.00000" height="682.3828" width="8" x="616.5952" y="82.6094"/><line style="stroke:#181818;stroke-width:0.5;stroke-dasharray:5,5;" x1="620.0332" x2="620.0332" y1="82.6094" y2="764.9922"/></g><g><title>RemotePeer</title><rect fill="#000000" fill-opacity="0.00000" height="682.3828" width="8" x="845.127" y="82.6094"/><line style="stroke:#181818;stroke-width:0.5;stroke-dasharray:5,5;" x1="848.8306" x2="848.8306" y1="82.6094" y2="764.9922"/></g><g class="participant participant-head" data-participant="Application"><text fill="#000000" font-family="sans-serif" font-size="14" lengthAdjust="spacing" textLength="68.4893" x="5" y="79.5332">Application</text><ellipse cx="42.2446" cy="13.5" fill="#E2E2F0" rx="8" ry="8" style="stroke:#181818;stroke-width:0.5;"/><path d="M42.2446,21.5 L42.2446,48.5 M29.2446,29.5 L55.2446,29.5 M42.2446,48.5 L29.2446,63.5 M42.2446,48.5 L55.2446,63.5" fill="none" style="stroke:#181818;stroke-width:0.5;"/></g><g class="participant participant-tail" data-participant="Application"><text fill="#000000" font-family="sans-serif" font-size="14" lengthAdjust="spacing" textLength="68.4893" x="5" y="778.5254">Application</text><ellipse cx="42.2446" cy="790.1016" fill="#E2E2F0" rx="8" ry="8" style="stroke:#181818;stroke-width:0.5;"/><path d="M42.2446,798.1016 L42.2446,825.1016 M29.2446,806.1016 L55.2446,806.1016 M42.2446,825.1016 L29.2446,840.1016 M42.2446,825.1016 L55.2446,840.1016" fill="none" style="stroke:#181818;stroke-width:0.5;"/></g><g class="participant participant-head" data-participant="C"><rect fill="#E2E2F0" height="31.6094" rx="2.5" ry="2.5" style="stroke:#181818;stroke-width:0.5;" width="84.8271" x="340.2363" y="50"/><text fill="#000000" font-family="sans-serif" font-size="14" lengthAdjust="spacing" textLength="70.8271" x="347.2363" y="71.5332">Connection</text></g><g class="participant participant-tail" data-participant="C"><rect fill="#E2E2F0" height="31.6094" rx="2.5" ry="2.5" style="stroke:#181818;stroke-width:0.5;" width="84.8271" x="340.2363" y="763.9922"/><text fill="#000000" font-family="sans-serif" font-size="14" lengthAdjust="spacing" textLength="70.8271" x="347.2363" y="785.5254">Connection</text></g><g class="participant participant-head" data-participant="S"><rect fill="#E2E2F0" height="31.6094" rx="2.5" ry="2.5" style="stroke:#181818;stroke-width:0.5;" width="59.124" x="591.0332" y="50"/><text fill="#000000" font-family="sans-serif" font-size="14" lengthAdjust="spacing" textLength="45.124" x="598.0332" y="71.5332">Stream</text></g><g class="participant participant-tail" data-participant="S"><rect fill="#E2E2F0" height="31.6094" rx="2.5" ry="2.5" style="stroke:#181818;stroke-width:0.5;" width="59.124" x="591.0332" y="763.9922"/><text fill="#000000" font-family="sans-serif" font-size="14" lengthAdjust="spacing" textLength="45.124" x="598.0332" y="785.5254">Stream</text></g><g class="participant participant-head" data-participant="R"><rect fill="#E2E2F0" height="31.6094" rx="2.5" ry="2.5" style="stroke:#181818;stroke-width:0.5;" width="92.5928" x="802.8306" y="50"/><text fill="#000000" font-family="sans-serif" font-size="14" lengthAdjust="spacing" textLength="78.5928" x="809.8306" y="71.5332">RemotePeer</text></g><g class="participant participant-tail" data-participant="R"><rect fill="#E2E2F0" height="31.6094" rx="2.5" ry="2.5" style="stroke:#181818;stroke-width:0.5;" width="92.5928" x="802.8306" y="763.9922"/><text fill="#000000" font-family="sans-serif" font-size="14" lengthAdjust="spacing" textLength="78.5928" x="809.8306" y="785.5254">RemotePeer</text></g><rect fill="#EEEEEE" height="3" style="stroke:#EEEEEE;stroke-width:1;" width="900.4233" x="0" y="113.7852"/><line style="stroke:#000000;stroke-width:1;" x1="0" x2="900.4233" y1="113.7852" y2="113.7852"/><line style="stroke:#000000;stroke-width:1;" x1="0" x2="900.4233" y1="116.7852" y2="116.7852"/><rect fill="#EEEEEE" height="24.3516" style="stroke:#000000;stroke-width:2;" width="123.0781" x="388.6726" y="102.6094"/><text fill="#000000" font-family="sans-serif" font-size="13" font-weight="bold" lengthAdjust="spacing" textLength="105.4663" x="394.6726" y="120.1045">Incoming Stream</text><g class="message" data-participant-1="R" data-participant-2="C"><polygon fill="#181818" points="393.6499,171.6641,383.6499,175.6641,393.6499,179.6641,389.6499,175.6641" style="stroke:#181818;stroke-width:1;"/><line style="stroke:#181818;stroke-width:1;" x1="387.6499" x2="848.127" y1="175.6641" y2="175.6641"/><text fill="#000000" font-family="sans-serif" font-size="13" lengthAdjust="spacing" textLength="117.0317" x="399.6499" y="154.4561">Initial Stream Frame</text><text fill="#000000" font-family="sans-serif" font-size="13" lengthAdjust="spacing" textLength="73.709" x="403.2617" y="170.8076">(peer opens)</text></g><g class="message" data-participant-1="C" data-participant-2="C"><line style="stroke:#181818;stroke-width:1;" x1="382.6499" x2="424.6499" y1="222.3672" y2="222.3672"/><line style="stroke:#181818;stroke-width:1;" x1="424.6499" x2="424.6499" y1="222.3672" y2="235.3672"/><line style="stroke:#181818;stroke-width:1;" x1="383.6499" x2="424.6499" y1="235.3672" y2="235.3672"/><polygon fill="#181818" points="393.6499,231.3672,383.6499,235.3672,393.6499,239.3672,389.6499,235.3672" style="stroke:#181818;stroke-width:1;"/><text fill="#000000" font-family="sans-serif" font-size="13" lengthAdjust="spacing" textLength="223.9453" x="389.6499" y="201.1592">OnEvent(PEER_STREAM_STARTED)</text><text fill="#000000" font-family="sans-serif" font-size="13" lengthAdjust="spacing" textLength="183.4917" x="389.6499" y="217.5107">(NewStream=Event-&gt;STREAM)</text></g><g class="message" data-participant-1="C" data-participant-2="Application"><polygon fill="#181818" points="53.2446,261.7188,43.2446,265.7188,53.2446,269.7188,49.2446,265.7188" style="stroke:#181818;stroke-width:1;"/><line style="stroke:#181818;stroke-width:1;" x1="47.2446" x2="381.6499" y1="265.7188" y2="265.7188"/><text fill="#000000" font-family="sans-serif" font-size="13" lengthAdjust="spacing" textLength="316.4053" x="59.2446" y="260.8623">QUIC_STREAM_EVENT_PEER_STREAM_STARTED</text></g><rect fill="#EEEEEE" height="3" style="stroke:#EEEEEE;stroke-width:1;" width="900.4233" x="0" y="294.8945"/><line style="stroke:#000000;stroke-width:1;" x1="0" x2="900.4233" y1="294.8945" y2="294.8945"/><line style="stroke:#000000;stroke-width:1;" x1="0" x2="900.4233" y1="297.8945" y2="297.8945"/><rect fill="#EEEEEE" height="24.3516" style="stroke:#000000;stroke-width:2;" width="112.2808" x="394.0713" y="283.7188"/><text fill="#000000" font-family="sans-serif" font-size="13" font-weight="bold" lengthAdjust="spacing" textLength="94.6689" x="400.0713" y="301.2139">Server Accepts</text><g class="message" data-participant-1="Application" data-participant-2="S"><polygon fill="#181818" points="608.5952,352.7734,618.5952,356.7734,608.5952,360.7734,612.5952,356.7734" style="stroke:#181818;stroke-width:1;"/><line style="stroke:#181818;stroke-width:1;" x1="42.2446" x2="614.5952" y1="356.7734" y2="356.7734"/><text fill="#000000" font-family="sans-serif" font-size="13" lengthAdjust="spacing" textLength="163.2808" x="49.2446" y="335.5654">MsQuicSetCallbackHandler(</text><text fill="#000000" font-family="sans-serif" font-size="13" lengthAdjust="spacing" textLength="197.939" x="52.8564" y="351.917">NewStream, StreamCallback, Ctx)</text></g><g class="message" data-participant-1="Application" data-participant-2="S"><polygon fill="#181818" points="608.5952,399.4766,618.5952,403.4766,608.5952,407.4766,612.5952,403.4766" style="stroke:#181818;stroke-width:1;"/><line style="stroke:#181818;stroke-width:1;" x1="42.2446" x2="614.5952" y1="403.4766" y2="403.4766"/><text fill="#000000" font-family="sans-serif" font-size="13" lengthAdjust="spacing" textLength="175.5254" x="49.2446" y="382.2686">MsQuicStreamStart(S, NONE)</text><text fill="#000000" font-family="sans-serif" font-size="13" lengthAdjust="spacing" textLength="96.8398" x="49.2446" y="398.6201">(open send side)</text></g><rect fill="#EEEEEE" height="3" style="stroke:#EEEEEE;stroke-width:1;" width="900.4233" x="0" y="432.6523"/><line style="stroke:#000000;stroke-width:1;" x1="0" x2="900.4233" y1="432.6523" y2="432.6523"/><line style="stroke:#000000;stroke-width:1;" x1="0" x2="900.4233" y1="435.6523" y2="435.6523"/><rect fill="#EEEEEE" height="24.3516" style="stroke:#000000;stroke-width:2;" width="110.8145" x="394.8044" y="421.4766"/><text fill="#000000" font-family="sans-serif" font-size="13" font-weight="bold" lengthAdjust="spacing" textLength="93.2026" x="400.8044" y="438.9717">Data Exchange</text><g class="message" data-participant-1="Application" data-participant-2="S"><polygon fill="#181818" points="608.5952,474.1797,618.5952,478.1797,608.5952,482.1797,612.5952,478.1797" style="stroke:#181818;stroke-width:1;"/><line style="stroke:#181818;stroke-width:1;" x1="42.2446" x2="614.5952" y1="478.1797" y2="478.1797"/><text fill="#000000" font-family="sans-serif" font-size="13" lengthAdjust="spacing" textLength="135.8145" x="49.2446" y="473.3232">MsQuicStreamSend(...)</text></g><g class="message" data-participant-1="S" data-participant-2="R"><polygon fill="#181818" points="837.127,504.5313,847.127,508.5313,837.127,512.5313,841.127,508.5313" style="stroke:#181818;stroke-width:1;"/><line style="stroke:#181818;stroke-width:1;" x1="620.5952" x2="843.127" y1="508.5313" y2="508.5313"/><text fill="#000000" font-family="sans-serif" font-size="13" lengthAdjust="spacing" textLength="27.46" x="627.5952" y="503.6748">Data</text></g><g class="message" data-participant-1="R" data-participant-2="S"><polygon fill="#181818" points="631.5952,534.8828,621.5952,538.8828,631.5952,542.8828,627.5952,538.8828" style="stroke:#181818;stroke-width:1;"/><line style="stroke:#181818;stroke-width:1;" x1="625.5952" x2="848.127" y1="538.8828" y2="538.8828"/><text fill="#000000" font-family="sans-serif" font-size="13" lengthAdjust="spacing" textLength="27.46" x="637.5952" y="534.0264">Data</text></g><g class="message" data-participant-1="S" data-participant-2="S"><line style="stroke:#181818;stroke-width:1;" x1="620.5952" x2="662.5952" y1="585.5859" y2="585.5859"/><line style="stroke:#181818;stroke-width:1;" x1="662.5952" x2="662.5952" y1="585.5859" y2="598.5859"/><line style="stroke:#181818;stroke-width:1;" x1="621.5952" x2="662.5952" y1="598.5859" y2="598.5859"/><polygon fill="#181818" points="631.5952,594.5859,621.5952,598.5859,631.5952,602.5859,627.5952,598.5859" style="stroke:#181818;stroke-width:1;"/><text fill="#000000" font-family="sans-serif" font-size="13" lengthAdjust="spacing" textLength="116.3145" x="627.5952" y="564.3779">OnEvent(RECEIVE)</text><text fill="#000000" font-family="sans-serif" font-size="13" lengthAdjust="spacing" textLength="102.5845" x="627.5952" y="580.7295">(BufferList, Flags)</text></g><rect fill="#EEEEEE" height="3" style="stroke:#EEEEEE;stroke-width:1;" width="900.4233" x="0" y="627.7617"/><line style="stroke:#000000;stroke-width:1;" x1="0" x2="900.4233" y1="627.7617" y2="627.7617"/><line style="stroke:#000000;stroke-width:1;" x1="0" x2="900.4233" y1="630.7617" y2="630.7617"/><rect fill="#EEEEEE" height="24.3516" style="stroke:#000000;stroke-width:2;" width="53.0127" x="423.7053" y="616.5859"/><text fill="#000000" font-family="sans-serif" font-size="13" font-weight="bold" lengthAdjust="spacing" textLength="35.4009" x="429.7053" y="634.0811">Close</text><g class="message" data-participant-1="Application" data-participant-2="S"><polygon fill="#181818" points="608.5952,669.2891,618.5952,673.2891,608.5952,677.2891,612.5952,673.2891" style="stroke:#181818;stroke-width:1;"/><line style="stroke:#181818;stroke-width:1;" x1="42.2446" x2="614.5952" y1="673.2891" y2="673.2891"/><text fill="#000000" font-family="sans-serif" font-size="13" lengthAdjust="spacing" textLength="253.5762" x="49.2446" y="668.4326">MsQuicStreamShutdown(S, GRACEFUL, 0)</text></g><g class="message" data-participant-1="S" data-participant-2="S"><line style="stroke:#181818;stroke-width:1;" x1="620.5952" x2="662.5952" y1="703.6406" y2="703.6406"/><line style="stroke:#181818;stroke-width:1;" x1="662.5952" x2="662.5952" y1="703.6406" y2="716.6406"/><line style="stroke:#181818;stroke-width:1;" x1="621.5952" x2="662.5952" y1="716.6406" y2="716.6406"/><polygon fill="#181818" points="631.5952,712.6406,621.5952,716.6406,631.5952,720.6406,627.5952,716.6406" style="stroke:#181818;stroke-width:1;"/><text fill="#000000" font-family="sans-serif" font-size="13" lengthAdjust="spacing" textLength="214.5317" x="627.5952" y="698.7842">OnEvent(SHUTDOWN_COMPLETE)</text></g><g class="message" data-participant-1="Application" data-participant-2="S"><polygon fill="#181818" points="608.5952,742.9922,618.5952,746.9922,608.5952,750.9922,612.5952,746.9922" style="stroke:#181818;stroke-width:1;"/><line style="stroke:#181818;stroke-width:1;" x1="42.2446" x2="614.5952" y1="746.9922" y2="746.9922"/><text fill="#000000" font-family="sans-serif" font-size="13" lengthAdjust="spacing" textLength="136.5254" x="49.2446" y="742.1357">MsQuicStreamClose(S)</text></g><!--SRC=[ZP5VRu8m5CNV-HHzX0JDdfTWmcgT9WhQulPYOhforMPG2Ar_FlvQa4MpnUs9z9xJNy-vS66g1iLrNKZ1ZQoKL_F6I25hhWp2bL8Wt1XnZV2Tnam3l7HpTZUdK5O6bW2DqwZdHH6QAL6LKktxIr7aKJGO8OoUhIQDv4KlJHfUmaOXltQ4gWQb0m_tvbIH4oZZBmcXMvPH4Y_i9wOP6GSRvITmxZ1HQnkCEiiLSDFIebRh6UuHv8qasVONQ9kUGNEoMM8Xe3RQXRybMJ2pk8LU7QLWO30lYWykFgTSvGKqlkto7Ikyjkmz8SBc4Zp0jMvcx7fz5g8aJOYhwRQ2DAWSQPb3q8OSSyCHkOW3LtjudB63skl-S3WCFEPaQcM7wFuBwq-iF_MBfmIJsLkRukMusq4pbzg4Q5BmlUw2uABI_mfmE9gyEYjNx9N6c4pMyn0z1J_VPDDrDaxVaorE5yivoSYV6sip-2pu0W00]--></g></svg>