<svg xmlns="http://www.w3.org/2000/svg" xmlns:xlink="http://www.w3.org/1999/xlink" contentStyleType="text/css" data-diagram-type="SEQUENCE" height="560px" preserveAspectRatio="none" style="width:669px;height:560px;background:#FFFFFF;" version="1.1" viewBox="0 0 669 560" width="669px" zoomAndPan="magnify"><defs/><g><g><title>Client</title><rect fill="#000000" fill-opacity="0.00000" height="395.8672" width="8" x="21.8965" y="82.6094"/><line style="stroke:#181818;stroke-width:0.5;stroke-dasharray:5,5;" x1="25" x2="25" y1="82.6094" y2="478.4766"/></g><g><title>Server App</title><rect fill="#000000" fill-opacity="0.00000" height="395.8672" width="8" x="94.8101" y="82.6094"/><line style="stroke:#181818;stroke-width:0.5;stroke-dasharray:5,5;" x1="98.793" x2="98.793" y1="82.6094" y2="478.4766"/></g><g><title>HQUIC Connection</title><rect fill="#000000" fill-opacity="0.00000" height="395.8672" width="8" x="468.4326" y="82.6094"/><line style="stroke:#181818;stroke-width:0.5;stroke-dasharray:5,5;" x1="471.519" x2="471.519" y1="82.6094" y2="478.4766"/></g><g><title>HQUIC Stream</title><rect fill="#000000" fill-opacity="0.00000" height="395.8672" width="8" x="599.4185" y="82.6094"/><line style="stroke:#181818;stroke-width:0.5;stroke-dasharray:5,5;" x1="603.3462" x2="603.3462" y1="82.6094" y2="478.4766"/></g><g class="participant participant-head" data-participant="Client"><text fill="#000000" font-family="sans-serif" font-size="14" lengthAdjust="spacing" textLength="35.793" x="5" y="79.5332">Client</text><ellipse cx="25.8965" cy="13.5" fill="#E2E2F0" rx="8" ry="8" style="stroke:#181818;stroke-width:0.5;"/><path d="M25.8965,21.5 L25.8965,48.5 M12.8965,29.5 L38.8965,29.5 M25.8965,48.5 L12.8965,63.5 M25.8965,48.5 L38.8965,63.5" fill="none" style="stroke:#181818;stroke-width:0.5;"/></g><g class="participant participant-tail" data-participant="Client"><text fill="#000000" font-family="sans-serif" font-size="14" lengthAdjust="spacing" textLength="35.793" x="5" y="492.0098">Client</text><ellipse cx="25.8965" cy="503.5859" fill="#E2E2F0" rx="8" ry="8" style="stroke:#181818;stroke-width:0.5;"/><path d="M25.8965,511.5859 L25.8965,538.5859 M12.8965,519.5859 L38.8965,519.5859 M25.8965,538.5859 L12.8965,553.5859 M25.8965,538.5859 L38.8965,553.5859" fill="none" style="stroke:#181818;stroke-width:0.5;"/></g><g class="participant participant-head" data-participant="ServerApp"><rect fill="#E2E2F0" height="31.6094" rx="2.5" ry="2.5" style="stroke:#181818;stroke-width:0.5;" width="84.0342" x="56.793" y="50"/><text fill="#000000" font-family="sans-serif" font-size="14" lengthAdjust="spacing" textLength="70.0342" x="63.793" y="71.5332">Server App</text></g><g class="participant participant-tail" data-participant="ServerApp"><rect fill="#E2E2F0" height="31.6094" rx="2.5" ry="2.5" style="stroke:#181818;stroke-width:0.5;" width="84.0342" x="56.793" y="477.4766"/><text fill="#000000" font-family="sans-serif" font-size="14" lengthAdjust="spacing" textLength="70.0342" x="63.793" y="499.0098">Server App</text></g><g class="participant participant-head" data-participant="Conn"><rect fill="#E2E2F0" height="31.6094" rx="2.5" ry="2.5" style="stroke:#181818;stroke-width:0.5;" width="133.8271" x="405.519" y="50"/><text fill="#000000" font-family="sans-serif" font-size="14" lengthAdjust="spacing" textLength="119.8271" x="412.519" y="71.5332">HQUIC Connection</text></g><g class="participant participant-tail" data-participant="Conn"><rect fill="#E2E2F0" height="31.6094" rx="2.5" ry="2.5" style="stroke:#181818;stroke-width:0.5;" width="133.8271" x="405.519" y="477.4766"/><text fill="#000000" font-family="sans-serif" font-size="14" lengthAdjust="spacing" textLength="119.8271" x="412.519" y="499.0098">HQUIC Connection</text></g><g class="participant participant-head" data-participant="Stream"><rect fill="#E2E2F0" height="49.2188" rx="2.5" ry="2.5" style="stroke:#181818;stroke-width:0.5;" width="108.1445" x="549.3462" y="32.3906"/><text fill="#000000" font-family="sans-serif" font-size="14" lengthAdjust="spacing" textLength="94.124" x="556.3564" y="53.9238">HQUIC Stream</text><text fill="#000000" font-family="sans-serif" font-size="14" lengthAdjust="spacing" textLength="94.1445" x="556.3462" y="71.5332">(Unidirectional)</text></g><g class="participant participant-tail" data-participant="Stream"><rect fill="#E2E2F0" height="49.2188" rx="2.5" ry="2.5" style="stroke:#181818;stroke-width:0.5;" width="108.1445" x="549.3462" y="477.4766"/><text fill="#000000" font-family="sans-serif" font-size="14" lengthAdjust="spacing" textLength="94.124" x="556.3564" y="499.0098">HQUIC Stream</text><text fill="#000000" font-family="sans-serif" font-size="14" lengthAdjust="spacing" textLength="94.1445" x="556.3462" y="516.6191">(Unidirectional)</text></g><rect fill="#EEEEEE" height="3" style="stroke:#EEEEEE;stroke-width:1;" width="662.4907" x="0" y="113.7852"/><line style="stroke:#000000;stroke-width:1;" x1="0" x2="662.4907" y1="113.7852" y2="113.7852"/><line style="stroke:#000000;stroke-width:1;" x1="0" x2="662.4907" y1="116.7852" y2="116.7852"/><rect fill="#EEEEEE" height="24.3516" style="stroke:#000000;stroke-width:2;" width="234.3652" x="214.0627" y="102.6094"/><text fill="#000000" font-family="sans-serif" font-size="13" font-weight="bold" lengthAdjust="spacing" textLength="216.7534" x="220.0627" y="120.1045">Server sends unidirectional stream</text><g class="message" data-participant-1="ServerApp" data-participant-2="Conn"><polygon fill="#181818" points="460.4326,155.3125,470.4326,159.3125,460.4326,163.3125,464.4326,159.3125" style="stroke:#181818;stroke-width:1;"/><line style="stroke:#181818;stroke-width:1;" x1="98.8101" x2="466.4326" y1="159.3125" y2="159.3125"/><text fill="#000000" font-family="sans-serif" font-size="13" lengthAdjust="spacing" textLength="192.1499" x="105.8101" y="154.4561">StreamOpen(UNIDIRECTIONAL)</text></g><g class="message" data-participant-1="ServerApp" data-participant-2="Stream"><polygon fill="#181818" points="591.4185,185.6641,601.4185,189.6641,591.4185,193.6641,595.4185,189.6641" style="stroke:#181818;stroke-width:1;"/><line style="stroke:#181818;stroke-width:1;" x1="98.8101" x2="597.4185" y1="189.6641" y2="189.6641"/><text fill="#000000" font-family="sans-serif" font-size="13" lengthAdjust="spacing" textLength="78.0127" x="105.8101" y="184.8076">StreamStart()</text></g><g class="message" data-participant-1="ServerApp" data-participant-2="Stream"><polygon fill="#181818" points="591.4185,216.0156,601.4185,220.0156,591.4185,224.0156,595.4185,220.0156" style="stroke:#181818;stroke-width:1;"/><line style="stroke:#181818;stroke-width:1;" x1="98.8101" x2="597.4185" y1="220.0156" y2="220.0156"/><text fill="#000000" font-family="sans-serif" font-size="13" lengthAdjust="spacing" textLength="156.7808" x="105.8101" y="215.1592">StreamSend(control frame)</text></g><rect fill="#EEEEEE" height="3" style="stroke:#EEEEEE;stroke-width:1;" width="662.4907" x="0" y="249.1914"/><line style="stroke:#000000;stroke-width:1;" x1="0" x2="662.4907" y1="249.1914" y2="249.1914"/><line style="stroke:#000000;stroke-width:1;" x1="0" x2="662.4907" y1="252.1914" y2="252.1914"/><rect fill="#EEEEEE" height="24.3516" style="stroke:#000000;stroke-width:2;" width="109.3862" x="276.5522" y="238.0156"/><text fill="#000000" font-family="sans-serif" font-size="13" font-weight="bold" lengthAdjust="spacing" textLength="91.7744" x="282.5522" y="255.5107">Client receives</text><g class="message" data-participant-1="Conn" data-participant-2="ServerApp"><polygon fill="#181818" points="109.8101,290.7188,99.8101,294.7188,109.8101,298.7188,105.8101,294.7188" style="stroke:#181818;stroke-width:1;"/><line style="stroke:#181818;stroke-width:1;" x1="103.8101" x2="471.4326" y1="294.7188" y2="294.7188"/><text fill="#000000" font-family="sans-serif" font-size="13" lengthAdjust="spacing" textLength="349.6226" x="115.8101" y="289.8623">QUIC_CONNECTION_EVENT_PEER_STREAM_STARTED</text></g><g class="message" data-participant-1="ServerApp" data-participant-2="Stream"><polygon fill="#181818" points="591.4185,321.0703,601.4185,325.0703,591.4185,329.0703,595.4185,325.0703" style="stroke:#181818;stroke-width:1;"/><line style="stroke:#181818;stroke-width:1;" x1="98.8101" x2="597.4185" y1="325.0703" y2="325.0703"/><text fill="#000000" font-family="sans-serif" font-size="13" lengthAdjust="spacing" textLength="215.3062" x="105.8101" y="320.2139">SetCallbackHandler(StreamCallback)</text></g><g class="message" data-participant-1="Stream" data-participant-2="ServerApp"><polygon fill="#181818" points="109.8101,351.4219,99.8101,355.4219,109.8101,359.4219,105.8101,355.4219" style="stroke:#181818;stroke-width:1;"/><line style="stroke:#181818;stroke-width:1;" x1="103.8101" x2="602.4185" y1="355.4219" y2="355.4219"/><text fill="#000000" font-family="sans-serif" font-size="13" lengthAdjust="spacing" textLength="208.7744" x="115.8101" y="350.5654">QUIC_STREAM_EVENT_RECEIVE</text></g><rect fill="#EEEEEE" height="3" style="stroke:#EEEEEE;stroke-width:1;" width="662.4907" x="0" y="384.5977"/><line style="stroke:#000000;stroke-width:1;" x1="0" x2="662.4907" y1="384.5977" y2="384.5977"/><line style="stroke:#000000;stroke-width:1;" x1="0" x2="662.4907" y1="387.5977" y2="387.5977"/><rect fill="#EEEEEE" height="24.3516" style="stroke:#000000;stroke-width:2;" width="80.4282" x="291.0313" y="373.4219"/><text fill="#000000" font-family="sans-serif" font-size="13" font-weight="bold" lengthAdjust="spacing" textLength="62.8164" x="297.0313" y="390.917">Shutdown</text><g class="message" data-participant-1="Stream" data-participant-2="ServerApp"><polygon fill="#181818" points="109.8101,426.125,99.8101,430.125,109.8101,434.125,105.8101,430.125" style="stroke:#181818;stroke-width:1;"/><line style="stroke:#181818;stroke-width:1;" x1="103.8101" x2="602.4185" y1="430.125" y2="430.125"/><text fill="#000000" font-family="sans-serif" font-size="13" lengthAdjust="spacing" textLength="306.9917" x="115.8101" y="425.2686">QUIC_STREAM_EVENT_SHUTDOWN_COMPLETE</text></g><g class="message" data-participant-1="ServerApp" data-participant-2="Stream"><polygon fill="#181818" points="591.4185,456.4766,601.4185,460.4766,591.4185,464.4766,595.4185,460.4766" style="stroke:#181818;stroke-width:1;"/><line style="stroke:#181818;stroke-width:1;" x1="98.8101" x2="597.4185" y1="460.4766" y2="460.4766"/><text fill="#000000" font-family="sans-serif" font-size="13" lengthAdjust="spacing" textLength="83.7954" x="105.8101" y="455.6201">StreamClose()</text></g><!--SRC=[ZP3BQeGm58RtFiLXLhhe2mnOa1XGcD6fb-cc8AcUqj1C8Z4pVVt6n0h2zBAIOxwJ_ylFUgCq4C5Hcc1asl2UZqmQsDMeRwWX6SSTi0dyQASjbJsrEG6YfCJUS2KTEu_tiDfeP9SN6RQI3rpx3IOY7-0EWo2EbooOK0uJN3SiJ0w3E0vM8tXuT96mNoufHxGPHPxc5ILDNXR98ThYdbiNQcDbmpyOQnFsIXgj1BnfTi78oVhkm1eYl-4qcpcP-ORrkZtC1NIaB0flrD4pBPhkH6dLrKr5awFz95L3qvyaq10cn2lhFp8c1u4wz6VVVwszP-y5Bn4-r9P2ypFrLRzVpQ0-fIlqd_jrrZPf-LpOvnnF1zhGNtiZGaqOHby0]--></g></svg>