<svg xmlns="http://www.w3.org/2000/svg" xmlns:xlink="http://www.w3.org/1999/xlink" contentStyleType="text/css" data-diagram-type="ACTIVITY" height="1923px" preserveAspectRatio="none" style="width:774px;height:1923px;background:#FFFFFF;" version="1.1" viewBox="0 0 774 1923" width="774px" zoomAndPan="magnify"><title>WebTransport Message Flow Examples</title><defs/><g><g class="title" data-source-line="8"><text fill="#000000" font-family="Verdana" font-size="22" font-weight="bold" lengthAdjust="spacing" textLength="481.1855" x="145.1108" y="37.1182">WebTransport Message Flow Examples</text></g><ellipse cx="304.2222" cy="62.7373" fill="#FFFFFF" rx="10" ry="10" style="stroke:#000000;stroke-width:1;"/><rect fill="#FFFFFF" height="293.2051" style="stroke:#000000;stroke-width:1;" width="531.7065" x="191.0112" y="82.7373"/><path d="M481.1001,82.7373 L481.1001,92.752 L471.1001,102.752 L191.0112,102.752" fill="none" style="stroke:#000000;stroke-width:1;"/><text fill="#000000" font-family="Verdana" font-size="14" font-weight="bold" lengthAdjust="spacing" textLength="280.0889" x="194.0112" y="97.8125">1. WebTransport CONNECT Request</text><path d="M427.4331,112.752 L427.4331,184.8489 L407.4331,188.8489 L427.4331,192.8489 L427.4331,264.9458 A0,0 0 0 0 427.4331,264.9458 L712.7178,264.9458 A0,0 0 0 0 712.7178,264.9458 L712.7178,122.752 L702.7178,112.752 L427.4331,112.752 A0,0 0 0 0 427.4331,112.752" fill="#FFFFFF" style="stroke:#000000;stroke-width:1;"/><path d="M702.7178,112.752 L702.7178,122.752 L712.7178,122.752 L702.7178,112.752" fill="#FFFFFF" style="stroke:#000000;stroke-width:1;"/><text fill="#000000" font-family="Verdana" font-size="13" font-weight="bold" lengthAdjust="spacing" textLength="264.2847" x="433.4331" y="130.8218">HEADERS Frame (Client &#226;&#8224;&#8217; Server):</text><text fill="#000000" font-family="Verdana" font-size="13" lengthAdjust="spacing" textLength="199.71" x="433.4331" y="146.6211">Frame Type: 0x01 (HEADERS)</text><text fill="#000000" font-family="Verdana" font-size="13" lengthAdjust="spacing" textLength="4.5703" x="433.4331" y="162.4204">&#160;</text><text fill="#000000" font-family="Verdana" font-size="13" lengthAdjust="spacing" textLength="168.6255" x="433.4331" y="178.2197">QPACK Encoded Headers:</text><text fill="#000000" font-family="Verdana" font-size="13" lengthAdjust="spacing" textLength="130.1714" x="433.4331" y="194.019">:method: CONNECT</text><text fill="#000000" font-family="Verdana" font-size="13" lengthAdjust="spacing" textLength="155.7778" x="433.4331" y="209.8184">:protocol: webtransport</text><text fill="#000000" font-family="Verdana" font-size="13" lengthAdjust="spacing" textLength="99.6265" x="433.4331" y="225.6177">:scheme: https</text><text fill="#000000" font-family="Verdana" font-size="13" lengthAdjust="spacing" textLength="193.6162" x="433.4331" y="241.417">:authority: example.com:443</text><text fill="#000000" font-family="Verdana" font-size="13" lengthAdjust="spacing" textLength="79.4663" x="433.4331" y="257.2163">:path: /chat</text><rect fill="#E0FFFF" height="34.584" rx="12.5" ry="12.5" style="stroke:#000000;stroke-width:1;" width="206.4219" x="201.0112" y="171.5569"/><text fill="#000000" font-family="Verdana" font-size="12" lengthAdjust="spacing" textLength="186.4219" x="211.0112" y="193.6213">Client sends CONNECT request</text><path d="M407.9507,274.9458 L407.9507,315.4441 L387.9507,319.4441 L407.9507,323.4441 L407.9507,363.9424 A0,0 0 0 0 407.9507,363.9424 L639.9849,363.9424 A0,0 0 0 0 639.9849,363.9424 L639.9849,284.9458 L629.9849,274.9458 L407.9507,274.9458 A0,0 0 0 0 407.9507,274.9458" fill="#FFFFFF" style="stroke:#000000;stroke-width:1;"/><path d="M629.9849,274.9458 L629.9849,284.9458 L639.9849,284.9458 L629.9849,274.9458" fill="#FFFFFF" style="stroke:#000000;stroke-width:1;"/><text fill="#000000" font-family="Verdana" font-size="13" font-weight="bold" lengthAdjust="spacing" textLength="134.8813" x="413.9507" y="293.0156">Validation Checks:</text><text fill="#000000" font-family="Verdana" font-size="13" lengthAdjust="spacing" textLength="181.0288" x="413.9507" y="308.8149">- Protocol is "webtransport"</text><text fill="#000000" font-family="Verdana" font-size="13" lengthAdjust="spacing" textLength="153.9941" x="413.9507" y="324.6143">- Method is "CONNECT"</text><text fill="#000000" font-family="Verdana" font-size="13" lengthAdjust="spacing" textLength="194.2637" x="413.9507" y="340.4136">- Authority and path are valid</text><text fill="#000000" font-family="Verdana" font-size="13" lengthAdjust="spacing" textLength="211.0342" x="413.9507" y="356.2129">- Server supports WebTransport</text><rect fill="#E0FFFF" height="34.584" rx="12.5" ry="12.5" style="stroke:#000000;stroke-width:1;" width="167.457" x="220.4937" y="302.1521"/><text fill="#000000" font-family="Verdana" font-size="12" lengthAdjust="spacing" textLength="147.457" x="230.4937" y="324.2166">Server validates request</text><rect fill="#FFFFFF" height="261.6064" style="stroke:#000000;stroke-width:1;" width="531.6479" x="191.0405" y="385.9424"/><path d="M412.9067,385.9424 L412.9067,395.957 L402.9067,405.957 L191.0405,405.957" fill="none" style="stroke:#000000;stroke-width:1;"/><text fill="#000000" font-family="Verdana" font-size="14" font-weight="bold" lengthAdjust="spacing" textLength="211.8662" x="194.0405" y="401.0176">2. WebTransport Response</text><path d="M427.4038,415.957 L427.4038,472.2546 L407.4038,476.2546 L427.4038,480.2546 L427.4038,536.5522 A0,0 0 0 0 427.4038,536.5522 L712.6885,536.5522 A0,0 0 0 0 712.6885,536.5522 L712.6885,425.957 L702.6885,415.957 L427.4038,415.957 A0,0 0 0 0 427.4038,415.957" fill="#FFFFFF" style="stroke:#000000;stroke-width:1;"/><path d="M702.6885,415.957 L702.6885,425.957 L712.6885,425.957 L702.6885,415.957" fill="#FFFFFF" style="stroke:#000000;stroke-width:1;"/><text fill="#000000" font-family="Verdana" font-size="13" font-weight="bold" lengthAdjust="spacing" textLength="264.2847" x="433.4038" y="434.0269">HEADERS Frame (Server &#226;&#8224;&#8217; Client):</text><text fill="#000000" font-family="Verdana" font-size="13" lengthAdjust="spacing" textLength="199.71" x="433.4038" y="449.8262">Frame Type: 0x01 (HEADERS)</text><text fill="#000000" font-family="Verdana" font-size="13" lengthAdjust="spacing" textLength="4.5703" x="433.4038" y="465.6255">&#160;</text><text fill="#000000" font-family="Verdana" font-size="13" lengthAdjust="spacing" textLength="168.6255" x="433.4038" y="481.4248">QPACK Encoded Headers:</text><text fill="#000000" font-family="Verdana" font-size="13" lengthAdjust="spacing" textLength="80.9961" x="433.4038" y="497.2241">:status: 200</text><text fill="#000000" font-family="Verdana" font-size="13" lengthAdjust="spacing" textLength="4.5703" x="433.4038" y="513.0234">&#160;</text><text fill="#000000" font-family="Verdana" font-size="13" lengthAdjust="spacing" textLength="233.9429" x="433.4038" y="528.8228">(WebTransport session established)</text><rect fill="#E0FFFF" height="34.584" rx="12.5" ry="12.5" style="stroke:#000000;stroke-width:1;" width="206.3633" x="201.0405" y="458.9626"/><text fill="#000000" font-family="Verdana" font-size="12" lengthAdjust="spacing" textLength="186.3633" x="211.0405" y="481.0271">Server sends 200 OK response</text><path d="M412.3892,546.5522 L412.3892,587.0505 L392.3892,591.0505 L412.3892,595.0505 L412.3892,635.5488 A0,0 0 0 0 412.3892,635.5488 L657.0615,635.5488 A0,0 0 0 0 657.0615,635.5488 L657.0615,556.5522 L647.0615,546.5522 L412.3892,546.5522 A0,0 0 0 0 412.3892,546.5522" fill="#FFFFFF" style="stroke:#000000;stroke-width:1;"/><path d="M647.0615,546.5522 L647.0615,556.5522 L657.0615,556.5522 L647.0615,546.5522" fill="#FFFFFF" style="stroke:#000000;stroke-width:1;"/><text fill="#000000" font-family="Verdana" font-size="13" font-weight="bold" lengthAdjust="spacing" textLength="131.1997" x="418.3892" y="564.6221">Client Processing:</text><text fill="#000000" font-family="Verdana" font-size="13" lengthAdjust="spacing" textLength="146.2246" x="418.3892" y="580.4214">- Parse :status header</text><text fill="#000000" font-family="Verdana" font-size="13" lengthAdjust="spacing" textLength="146.0532" x="418.3892" y="596.2207">- Verify 200 OK status</text><text fill="#000000" font-family="Verdana" font-size="13" lengthAdjust="spacing" textLength="192.042" x="418.3892" y="612.02">- Mark session as established</text><text fill="#000000" font-family="Verdana" font-size="13" lengthAdjust="spacing" textLength="223.6724" x="418.3892" y="627.8193">- Enable WebTransport operations</text><rect fill="#E0FFFF" height="34.584" rx="12.5" ry="12.5" style="stroke:#000000;stroke-width:1;" width="176.334" x="216.0552" y="573.7585"/><text fill="#000000" font-family="Verdana" font-size="12" lengthAdjust="spacing" textLength="156.334" x="226.0552" y="595.823">Client processes response</text><rect fill="#FFFFFF" height="344.8037" style="stroke:#000000;stroke-width:1;" width="514.6846" x="180.9536" y="657.5488"/><path d="M498.9058,657.5488 L498.9058,667.5635 L488.9058,677.5635 L180.9536,677.5635" fill="none" style="stroke:#000000;stroke-width:1;"/><text fill="#000000" font-family="Verdana" font-size="14" font-weight="bold" lengthAdjust="spacing" textLength="307.9521" x="183.9536" y="672.624">3. Bidirectional Stream Communication</text><path d="M437.4907,687.5635 L437.4907,720.1621 L417.4907,724.1621 L437.4907,728.1621 L437.4907,760.7607 A0,0 0 0 0 437.4907,760.7607 L652.437,760.7607 A0,0 0 0 0 652.437,760.7607 L652.437,697.5635 L642.437,687.5635 L437.4907,687.5635 A0,0 0 0 0 437.4907,687.5635" fill="#FFFFFF" style="stroke:#000000;stroke-width:1;"/><path d="M642.437,687.5635 L642.437,697.5635 L652.437,697.5635 L642.437,687.5635" fill="#FFFFFF" style="stroke:#000000;stroke-width:1;"/><text fill="#000000" font-family="Verdana" font-size="13" font-weight="bold" lengthAdjust="spacing" textLength="124.103" x="443.4907" y="705.6333">Stream Creation:</text><text fill="#000000" font-family="Verdana" font-size="13" lengthAdjust="spacing" textLength="193.9463" x="443.4907" y="721.4326">Stream ID: 4 (next available)</text><text fill="#000000" font-family="Verdana" font-size="13" lengthAdjust="spacing" textLength="122.4146" x="443.4907" y="737.2319">Type: Bidirectional</text><text fill="#000000" font-family="Verdana" font-size="13" lengthAdjust="spacing" textLength="161.7573" x="443.4907" y="753.0313">Purpose: Chat messages</text><rect fill="#E0FFFF" height="34.584" rx="12.5" ry="12.5" style="stroke:#000000;stroke-width:1;" width="226.5371" x="190.9536" y="706.8701"/><text fill="#000000" font-family="Verdana" font-size="12" lengthAdjust="spacing" textLength="206.5371" x="200.9536" y="728.9346">Client creates bidirectional stream</text><path d="M415.0171,770.7607 L415.0171,811.259 L395.0171,815.259 L415.0171,819.259 L415.0171,859.7573 A0,0 0 0 0 415.0171,859.7573 L672.1499,859.7573 A0,0 0 0 0 672.1499,859.7573 L672.1499,780.7607 L662.1499,770.7607 L415.0171,770.7607 A0,0 0 0 0 415.0171,770.7607" fill="#FFFFFF" style="stroke:#000000;stroke-width:1;"/><path d="M662.1499,770.7607 L662.1499,780.7607 L672.1499,780.7607 L662.1499,770.7607" fill="#FFFFFF" style="stroke:#000000;stroke-width:1;"/><text fill="#000000" font-family="Verdana" font-size="13" font-weight="bold" lengthAdjust="spacing" textLength="236.1328" x="421.0171" y="788.8306">Stream Data (Client &#226;&#8224;&#8217; Server):</text><text fill="#000000" font-family="Verdana" font-size="13" lengthAdjust="spacing" textLength="219.1655" x="421.0171" y="804.6299">Raw Data: "Hello WebTransport!"</text><text fill="#000000" font-family="Verdana" font-size="13" lengthAdjust="spacing" textLength="4.5703" x="421.0171" y="820.4292">&#160;</text><text fill="#000000" font-family="Verdana" font-size="13" lengthAdjust="spacing" textLength="189.0522" x="421.0171" y="836.2285">(No HTTP/3 framing needed)</text><text fill="#000000" font-family="Verdana" font-size="13" lengthAdjust="spacing" textLength="159.085" x="421.0171" y="852.0278">(Direct application data)</text><rect fill="#E0FFFF" height="34.584" rx="12.5" ry="12.5" style="stroke:#000000;stroke-width:1;" width="181.5898" x="213.4272" y="797.967"/><text fill="#000000" font-family="Verdana" font-size="12" lengthAdjust="spacing" textLength="161.5898" x="223.4272" y="820.0315">Client sends message data</text><path d="M428.5054,869.7573 L428.5054,926.0549 L408.5054,930.0549 L428.5054,934.0549 L428.5054,990.3525 A0,0 0 0 0 428.5054,990.3525 L685.6382,990.3525 A0,0 0 0 0 685.6382,990.3525 L685.6382,879.7573 L675.6382,869.7573 L428.5054,869.7573 A0,0 0 0 0 428.5054,869.7573" fill="#FFFFFF" style="stroke:#000000;stroke-width:1;"/><path d="M675.6382,869.7573 L675.6382,879.7573 L685.6382,879.7573 L675.6382,869.7573" fill="#FFFFFF" style="stroke:#000000;stroke-width:1;"/><text fill="#000000" font-family="Verdana" font-size="13" font-weight="bold" lengthAdjust="spacing" textLength="236.1328" x="434.5054" y="887.8271">Stream Data (Server &#226;&#8224;&#8217; Client):</text><text fill="#000000" font-family="Verdana" font-size="13" lengthAdjust="spacing" textLength="199.6338" x="434.5054" y="903.6265">Raw Data: "Welcome to chat!"</text><text fill="#000000" font-family="Verdana" font-size="13" lengthAdjust="spacing" textLength="4.5703" x="434.5054" y="919.4258">&#160;</text><text fill="#000000" font-family="Verdana" font-size="13" lengthAdjust="spacing" textLength="102.1338" x="434.5054" y="935.2251">Characteristics:</text><text fill="#000000" font-family="Verdana" font-size="13" lengthAdjust="spacing" textLength="117.8379" x="434.5054" y="951.0244">- Reliable delivery</text><text fill="#000000" font-family="Verdana" font-size="13" lengthAdjust="spacing" textLength="119.7168" x="434.5054" y="966.8237">- Ordered delivery</text><text fill="#000000" font-family="Verdana" font-size="13" lengthAdjust="spacing" textLength="109.04" x="434.5054" y="982.623">- Flow controlled</text><rect fill="#E0FFFF" height="34.584" rx="12.5" ry="12.5" style="stroke:#000000;stroke-width:1;" width="208.5664" x="199.939" y="912.7629"/><text fill="#000000" font-family="Verdana" font-size="12" lengthAdjust="spacing" textLength="188.5664" x="209.939" y="934.8274">Server processes and responds</text><rect fill="#FFFFFF" height="245.8071" style="stroke:#000000;stroke-width:1;" width="567.9233" x="177.0981" y="1012.3525"/><path d="M378.5044,1012.3525 L378.5044,1022.3672 L368.5044,1032.3672 L177.0981,1032.3672" fill="none" style="stroke:#000000;stroke-width:1;"/><text fill="#000000" font-family="Verdana" font-size="14" font-weight="bold" lengthAdjust="spacing" textLength="191.4063" x="180.0981" y="1027.4277">4. Unidirectional Stream</text><path d="M441.3462,1042.3672 L441.3462,1074.9658 L421.3462,1078.9658 L441.3462,1082.9658 L441.3462,1115.5645 A0,0 0 0 0 441.3462,1115.5645 L714.7227,1115.5645 A0,0 0 0 0 714.7227,1115.5645 L714.7227,1052.3672 L704.7227,1042.3672 L441.3462,1042.3672 A0,0 0 0 0 441.3462,1042.3672" fill="#FFFFFF" style="stroke:#000000;stroke-width:1;"/><path d="M704.7227,1042.3672 L704.7227,1052.3672 L714.7227,1052.3672 L704.7227,1042.3672" fill="#FFFFFF" style="stroke:#000000;stroke-width:1;"/><text fill="#000000" font-family="Verdana" font-size="13" font-weight="bold" lengthAdjust="spacing" textLength="124.103" x="447.3462" y="1060.437">Stream Creation:</text><text fill="#000000" font-family="Verdana" font-size="13" lengthAdjust="spacing" textLength="193.9463" x="447.3462" y="1076.2363">Stream ID: 6 (next available)</text><text fill="#000000" font-family="Verdana" font-size="13" lengthAdjust="spacing" textLength="252.3765" x="447.3462" y="1092.0356">Type: Unidirectional (client &#226;&#8224;&#8217; server)</text><text fill="#000000" font-family="Verdana" font-size="13" lengthAdjust="spacing" textLength="191.458" x="447.3462" y="1107.835">Purpose: Log data, telemetry</text><rect fill="#E0FFFF" height="34.584" rx="12.5" ry="12.5" style="stroke:#000000;stroke-width:1;" width="234.248" x="187.0981" y="1061.6738"/><text fill="#000000" font-family="Verdana" font-size="12" lengthAdjust="spacing" textLength="214.248" x="197.0981" y="1083.7383">Client creates unidirectional stream</text><path d="M414.2407,1125.5645 L414.2407,1181.8621 L394.2407,1185.8621 L414.2407,1189.8621 L414.2407,1246.1597 A0,0 0 0 0 414.2407,1246.1597 L735.0215,1246.1597 A0,0 0 0 0 735.0215,1246.1597 L735.0215,1135.5645 L725.0215,1125.5645 L414.2407,1125.5645 A0,0 0 0 0 414.2407,1125.5645" fill="#FFFFFF" style="stroke:#000000;stroke-width:1;"/><path d="M725.0215,1125.5645 L725.0215,1135.5645 L735.0215,1135.5645 L725.0215,1125.5645" fill="#FFFFFF" style="stroke:#000000;stroke-width:1;"/><text fill="#000000" font-family="Verdana" font-size="13" font-weight="bold" lengthAdjust="spacing" textLength="108.8179" x="420.2407" y="1143.6343">One-way Data:</text><text fill="#000000" font-family="Verdana" font-size="13" lengthAdjust="spacing" textLength="299.7808" x="420.2407" y="1159.4336">JSON: {"event": "user_action", "data": {...}}</text><text fill="#000000" font-family="Verdana" font-size="13" lengthAdjust="spacing" textLength="4.5703" x="420.2407" y="1175.2329">&#160;</text><text fill="#000000" font-family="Verdana" font-size="13" lengthAdjust="spacing" textLength="102.1338" x="420.2407" y="1191.0322">Characteristics:</text><text fill="#000000" font-family="Verdana" font-size="13" lengthAdjust="spacing" textLength="121.9131" x="420.2407" y="1206.8315">- Client sends only</text><text fill="#000000" font-family="Verdana" font-size="13" lengthAdjust="spacing" textLength="143.7427" x="420.2407" y="1222.6309">- Server receives only</text><text fill="#000000" font-family="Verdana" font-size="13" lengthAdjust="spacing" textLength="114.8545" x="420.2407" y="1238.4302">- Lower overhead</text><rect fill="#E0FFFF" height="34.584" rx="12.5" ry="12.5" style="stroke:#000000;stroke-width:1;" width="180.0371" x="214.2036" y="1168.5701"/><text fill="#000000" font-family="Verdana" font-size="12" lengthAdjust="spacing" textLength="160.0371" x="224.2036" y="1190.6345">Client sends one-way data</text><rect fill="#FFFFFF" height="309.0044" style="stroke:#000000;stroke-width:1;" width="583.7241" x="184.6831" y="1268.1597"/><path d="M416.9399,1268.1597 L416.9399,1278.1743 L406.9399,1288.1743 L184.6831,1288.1743" fill="none" style="stroke:#000000;stroke-width:1;"/><text fill="#000000" font-family="Verdana" font-size="14" font-weight="bold" lengthAdjust="spacing" textLength="222.2568" x="187.6831" y="1283.2349">5. WebTransport Datagrams</text><path d="M433.7612,1298.1743 L433.7612,1362.3716 L413.7612,1366.3716 L433.7612,1370.3716 L433.7612,1434.5688 A0,0 0 0 0 433.7612,1434.5688 L758.3062,1434.5688 A0,0 0 0 0 758.3062,1434.5688 L758.3062,1308.1743 L748.3062,1298.1743 L433.7612,1298.1743 A0,0 0 0 0 433.7612,1298.1743" fill="#FFFFFF" style="stroke:#000000;stroke-width:1;"/><path d="M748.3062,1298.1743 L748.3062,1308.1743 L758.3062,1308.1743 L748.3062,1298.1743" fill="#FFFFFF" style="stroke:#000000;stroke-width:1;"/><text fill="#000000" font-family="Verdana" font-size="13" font-weight="bold" lengthAdjust="spacing" textLength="259.543" x="439.7612" y="1316.2441">QUIC Datagram (Client &#226;&#8224;&#8217; Server):</text><text fill="#000000" font-family="Verdana" font-size="13" lengthAdjust="spacing" textLength="303.5449" x="439.7612" y="1332.0435">JSON: {"type": "ping", "timestamp": 123456}</text><text fill="#000000" font-family="Verdana" font-size="13" lengthAdjust="spacing" textLength="4.5703" x="439.7612" y="1347.8428">&#160;</text><text fill="#000000" font-family="Verdana" font-size="13" lengthAdjust="spacing" textLength="102.1338" x="439.7612" y="1363.6421">Characteristics:</text><text fill="#000000" font-family="Verdana" font-size="13" lengthAdjust="spacing" textLength="132.0884" x="439.7612" y="1379.4414">- Unreliable delivery</text><text fill="#000000" font-family="Verdana" font-size="13" lengthAdjust="spacing" textLength="135.1162" x="439.7612" y="1395.2407">- Unordered delivery</text><text fill="#000000" font-family="Verdana" font-size="13" lengthAdjust="spacing" textLength="87.7437" x="439.7612" y="1411.04">- Low latency</text><text fill="#000000" font-family="Verdana" font-size="13" lengthAdjust="spacing" textLength="128.8701" x="439.7612" y="1426.8394">- No retransmission</text><rect fill="#E0FFFF" height="34.584" rx="12.5" ry="12.5" style="stroke:#000000;stroke-width:1;" width="219.0781" x="194.6831" y="1349.0796"/><text fill="#000000" font-family="Verdana" font-size="12" lengthAdjust="spacing" textLength="199.0781" x="204.6831" y="1371.144">Client sends unreliable datagram</text><path d="M429.5396,1444.5688 L429.5396,1500.8665 L409.5396,1504.8665 L429.5396,1508.8665 L429.5396,1565.1641 A0,0 0 0 0 429.5396,1565.1641 L758.4072,1565.1641 A0,0 0 0 0 758.4072,1565.1641 L758.4072,1454.5688 L748.4072,1444.5688 L429.5396,1444.5688 A0,0 0 0 0 429.5396,1444.5688" fill="#FFFFFF" style="stroke:#000000;stroke-width:1;"/><path d="M748.4072,1444.5688 L748.4072,1454.5688 L758.4072,1454.5688 L748.4072,1444.5688" fill="#FFFFFF" style="stroke:#000000;stroke-width:1;"/><text fill="#000000" font-family="Verdana" font-size="13" font-weight="bold" lengthAdjust="spacing" textLength="259.543" x="435.5396" y="1462.6387">QUIC Datagram (Server &#226;&#8224;&#8217; Client):</text><text fill="#000000" font-family="Verdana" font-size="13" lengthAdjust="spacing" textLength="307.8677" x="435.5396" y="1478.438">JSON: {"type": "pong", "timestamp": 123456}</text><text fill="#000000" font-family="Verdana" font-size="13" lengthAdjust="spacing" textLength="4.5703" x="435.5396" y="1494.2373">&#160;</text><text fill="#000000" font-family="Verdana" font-size="13" lengthAdjust="spacing" textLength="72.6807" x="435.5396" y="1510.0366">Use Cases:</text><text fill="#000000" font-family="Verdana" font-size="13" lengthAdjust="spacing" textLength="142.3335" x="435.5396" y="1525.8359">- Game state updates</text><text fill="#000000" font-family="Verdana" font-size="13" lengthAdjust="spacing" textLength="127.9116" x="435.5396" y="1541.6353">- Real-time sensors</text><text fill="#000000" font-family="Verdana" font-size="13" lengthAdjust="spacing" textLength="152.9595" x="435.5396" y="1557.4346">- Voice/video metadata</text><rect fill="#E0FFFF" height="34.584" rx="12.5" ry="12.5" style="stroke:#000000;stroke-width:1;" width="210.6348" x="198.9048" y="1487.5745"/><text fill="#000000" font-family="Verdana" font-size="12" lengthAdjust="spacing" textLength="190.6348" x="208.9048" y="1509.6389">Server responds with datagram</text><rect fill="#FFFFFF" height="230.0078" style="stroke:#000000;stroke-width:1;" width="471.4194" x="196.5835" y="1587.1641"/><path d="M386.8608,1587.1641 L386.8608,1597.1787 L376.8608,1607.1787 L196.5835,1607.1787" fill="none" style="stroke:#000000;stroke-width:1;"/><text fill="#000000" font-family="Verdana" font-size="14" font-weight="bold" lengthAdjust="spacing" textLength="180.2773" x="199.5835" y="1602.2393">6. Session Termination</text><path d="M418.688,1617.1787 L418.688,1657.677 L398.688,1661.677 L418.688,1665.677 L418.688,1706.1753 A0,0 0 0 0 418.688,1706.1753 L658.0029,1706.1753 A0,0 0 0 0 658.0029,1706.1753 L658.0029,1627.1787 L648.0029,1617.1787 L418.688,1617.1787 A0,0 0 0 0 418.688,1617.1787" fill="#FFFFFF" style="stroke:#000000;stroke-width:1;"/><path d="M648.0029,1617.1787 L648.0029,1627.1787 L658.0029,1627.1787 L648.0029,1617.1787" fill="#FFFFFF" style="stroke:#000000;stroke-width:1;"/><text fill="#000000" font-family="Verdana" font-size="13" font-weight="bold" lengthAdjust="spacing" textLength="144.5298" x="424.688" y="1635.2485">Graceful Shutdown:</text><text fill="#000000" font-family="Verdana" font-size="13" lengthAdjust="spacing" textLength="218.3149" x="424.688" y="1651.0479">- Close all WebTransport streams</text><text fill="#000000" font-family="Verdana" font-size="13" lengthAdjust="spacing" textLength="150.0205" x="424.688" y="1666.8472">- Send final datagrams</text><text fill="#000000" font-family="Verdana" font-size="13" lengthAdjust="spacing" textLength="164.3726" x="424.688" y="1682.6465">- Close CONNECT stream</text><text fill="#000000" font-family="Verdana" font-size="13" lengthAdjust="spacing" textLength="190.7661" x="424.688" y="1698.4458">- Terminate QUIC connection</text><rect fill="#E0FFFF" height="34.584" rx="12.5" ry="12.5" style="stroke:#000000;stroke-width:1;" width="188.9316" x="209.7563" y="1644.385"/><text fill="#000000" font-family="Verdana" font-size="12" lengthAdjust="spacing" textLength="168.9316" x="219.7563" y="1666.4495">Client initiates session close</text><path d="M421.8608,1716.1753 L421.8608,1756.6736 L401.8608,1760.6736 L421.8608,1764.6736 L421.8608,1805.1719 A0,0 0 0 0 421.8608,1805.1719 L632.1416,1805.1719 A0,0 0 0 0 632.1416,1805.1719 L632.1416,1726.1753 L622.1416,1716.1753 L421.8608,1716.1753 A0,0 0 0 0 421.8608,1716.1753" fill="#FFFFFF" style="stroke:#000000;stroke-width:1;"/><path d="M622.1416,1716.1753 L622.1416,1726.1753 L632.1416,1726.1753 L622.1416,1716.1753" fill="#FFFFFF" style="stroke:#000000;stroke-width:1;"/><text fill="#000000" font-family="Verdana" font-size="13" font-weight="bold" lengthAdjust="spacing" textLength="116.3271" x="427.8608" y="1734.2451">Server Cleanup:</text><text fill="#000000" font-family="Verdana" font-size="13" lengthAdjust="spacing" textLength="125.5313" x="427.8608" y="1750.0444">- Process final data</text><text fill="#000000" font-family="Verdana" font-size="13" lengthAdjust="spacing" textLength="180.8003" x="427.8608" y="1765.8438">- Release session resources</text><text fill="#000000" font-family="Verdana" font-size="13" lengthAdjust="spacing" textLength="189.2808" x="427.8608" y="1781.6431">- Update connection tracking</text><text fill="#000000" font-family="Verdana" font-size="13" lengthAdjust="spacing" textLength="140.1372" x="427.8608" y="1797.4424">- Complete shutdown</text><rect fill="#E0FFFF" height="34.584" rx="12.5" ry="12.5" style="stroke:#000000;stroke-width:1;" width="195.2773" x="206.5835" y="1743.3816"/><text fill="#000000" font-family="Verdana" font-size="12" lengthAdjust="spacing" textLength="175.2773" x="216.5835" y="1765.446">Server acknowledges closure</text><path d="M5,1827.1719 L5,1916.1685 A0,0 0 0 0 5,1916.1685 L273.2222,1916.1685 A0,0 0 0 0 273.2222,1916.1685 L273.2222,1875.6702 L293.2222,1871.6702 L273.2222,1867.6702 L273.2222,1837.1719 L263.2222,1827.1719 L5,1827.1719 A0,0 0 0 0 5,1827.1719" fill="#FFFFFF" style="stroke:#000000;stroke-width:1;"/><path d="M263.2222,1827.1719 L263.2222,1837.1719 L273.2222,1837.1719 L263.2222,1827.1719" fill="#FFFFFF" style="stroke:#000000;stroke-width:1;"/><text fill="#000000" font-family="Verdana" font-size="13" font-weight="bold" lengthAdjust="spacing" textLength="220.5049" x="11" y="1845.2417">Message Flow Characteristics:</text><text fill="#000000" font-family="Verdana" font-size="13" lengthAdjust="spacing" textLength="180.0957" x="11" y="1861.041">- HTTP/3 frames for control</text><text fill="#000000" font-family="Verdana" font-size="13" lengthAdjust="spacing" textLength="247.2222" x="11" y="1876.8403">- Raw data for WebTransport streams</text><text fill="#000000" font-family="Verdana" font-size="13" lengthAdjust="spacing" textLength="243.7056" x="11" y="1892.6396">- QUIC datagrams for unreliable data</text><text fill="#000000" font-family="Verdana" font-size="13" lengthAdjust="spacing" textLength="235.8662" x="11" y="1908.439">- Multiplexed over single connection</text><ellipse cx="304.2222" cy="1871.6702" fill="none" rx="11" ry="11" style="stroke:#000000;stroke-width:1;"/><ellipse cx="304.2222" cy="1871.6702" fill="#FFFFFF" rx="6" ry="6" style="stroke:#000000;stroke-width:1;"/><line style="stroke:#000000;stroke-width:1;" x1="304.2222" x2="304.2222" y1="206.1409" y2="302.1521"/><polygon fill="#000000" points="300.2222,292.1521,304.2222,302.1521,308.2222,292.1521,304.2222,296.1521" style="stroke:#000000;stroke-width:1;"/><line style="stroke:#000000;stroke-width:1;" x1="304.2222" x2="304.2222" y1="72.7373" y2="171.5569"/><polygon fill="#000000" points="300.2222,161.5569,304.2222,171.5569,308.2222,161.5569,304.2222,165.5569" style="stroke:#000000;stroke-width:1;"/><line style="stroke:#000000;stroke-width:1;" x1="304.2222" x2="304.2222" y1="493.5466" y2="573.7585"/><polygon fill="#000000" points="300.2222,563.7585,304.2222,573.7585,308.2222,563.7585,304.2222,567.7585" style="stroke:#000000;stroke-width:1;"/><line style="stroke:#000000;stroke-width:1;" x1="304.2222" x2="304.2222" y1="336.7361" y2="458.9626"/><polygon fill="#000000" points="300.2222,448.9626,304.2222,458.9626,308.2222,448.9626,304.2222,452.9626" style="stroke:#000000;stroke-width:1;"/><line style="stroke:#000000;stroke-width:1;" x1="304.2222" x2="304.2222" y1="741.4541" y2="797.967"/><polygon fill="#000000" points="300.2222,787.967,304.2222,797.967,308.2222,787.967,304.2222,791.967" style="stroke:#000000;stroke-width:1;"/><line style="stroke:#000000;stroke-width:1;" x1="304.2222" x2="304.2222" y1="832.551" y2="912.7629"/><polygon fill="#000000" points="300.2222,902.7629,304.2222,912.7629,308.2222,902.7629,304.2222,906.7629" style="stroke:#000000;stroke-width:1;"/><line style="stroke:#000000;stroke-width:1;" x1="304.2222" x2="304.2222" y1="608.3425" y2="706.8701"/><polygon fill="#000000" points="300.2222,696.8701,304.2222,706.8701,308.2222,696.8701,304.2222,700.8701" style="stroke:#000000;stroke-width:1;"/><line style="stroke:#000000;stroke-width:1;" x1="304.2222" x2="304.2222" y1="1096.2578" y2="1168.5701"/><polygon fill="#000000" points="300.2222,1158.5701,304.2222,1168.5701,308.2222,1158.5701,304.2222,1162.5701" style="stroke:#000000;stroke-width:1;"/><line style="stroke:#000000;stroke-width:1;" x1="304.2222" x2="304.2222" y1="947.3469" y2="1061.6738"/><polygon fill="#000000" points="300.2222,1051.6738,304.2222,1061.6738,308.2222,1051.6738,304.2222,1055.6738" style="stroke:#000000;stroke-width:1;"/><line style="stroke:#000000;stroke-width:1;" x1="304.2222" x2="304.2222" y1="1383.6636" y2="1487.5745"/><polygon fill="#000000" points="300.2222,1477.5745,304.2222,1487.5745,308.2222,1477.5745,304.2222,1481.5745" style="stroke:#000000;stroke-width:1;"/><line style="stroke:#000000;stroke-width:1;" x1="304.2222" x2="304.2222" y1="1203.1541" y2="1349.0796"/><polygon fill="#000000" points="300.2222,1339.0796,304.2222,1349.0796,308.2222,1339.0796,304.2222,1343.0796" style="stroke:#000000;stroke-width:1;"/><line style="stroke:#000000;stroke-width:1;" x1="304.2222" x2="304.2222" y1="1678.969" y2="1743.3816"/><polygon fill="#000000" points="300.2222,1733.3816,304.2222,1743.3816,308.2222,1733.3816,304.2222,1737.3816" style="stroke:#000000;stroke-width:1;"/><line style="stroke:#000000;stroke-width:1;" x1="304.2222" x2="304.2222" y1="1522.1584" y2="1644.385"/><polygon fill="#000000" points="300.2222,1634.385,304.2222,1644.385,308.2222,1634.385,304.2222,1638.385" style="stroke:#000000;stroke-width:1;"/><line style="stroke:#000000;stroke-width:1;" x1="304.2222" x2="304.2222" y1="1777.9656" y2="1860.6702"/><polygon fill="#000000" points="300.2222,1850.6702,304.2222,1860.6702,308.2222,1850.6702,304.2222,1854.6702" style="stroke:#000000;stroke-width:1;"/><!--SRC=[hLVDRXit4BxlKqnqaeL8jcF7X-t9MIjnclWdjkGS2tft917cabkIAram3EGrSYlwAdsJF4c7vAwwsaXoWHOm86jcI7mptpSpr2ixmnoX48pBo3nmMJ3DSc2fvNDkb_0K0RnZwSDKgr9cYH9AW-3JcKsNJ3gVqXdgOByN54YsKwtLecbwZYBBhK3uYlSZpQGfbBPmWSQmAS9xeHOmV6Hv8T14aR5CsoWY77I6AmcTNkzmi7uqkRgy72OZkC7VIpIsr-jue74YE4eB1cLcLa4w1Fr20L9P1EtWqvTUxtnuUZQykONtb392jphzrvy_lltnuzjtk4KzHxqNzteK7M96om9ZE7WyE8HkTNgFdFJtvVeq-GH3cQeCCpX7HcKniGELevsfBAxnE5EXbLMf4Z4iyDxMQJcFIHqVCSoiBOmpi99EQw8Y1Wmr6gGgZu-FZ_n5pCvYs4zdp9scj7sA0L4SyCES2PunYsP79Uv2Z2jtCiFqmOIa-t1T8GLkeDC4s_7k2v-RTrRf1VjfZHeOON8eWMaCK7n0XSsKXRlChD7RpEIvfOGtBINS87rAWoi9r1Tx2RmvE82hJvHt27fP0jNfbGI29Fwp14ZJjZInmnD2ksj96Ee4bnznm-u5DpFCzdwciv8dQIUbU4_drhIgsEiGo-LqnIVJ1cj0CFCOlUCEDPyiwue5Vw2OwOSLGcQQ8Br_AEbhgxLLWTghoUpYycW0xtZ6DQREmWJSMeqqV1ALvwNagR-XtTifXJWjtw-TDFxaXaBKLxfJ51hAK1a_diLm35s9ZnROd77X4d653nIlOIFhTQaBPSYHKBT17gQNsSfJK60L1jHSR3kyC_A-C7zksCA7nT0vHo7KMi5VTIfPNIeu7uskzuzWGc8bta4YPa5EtJEV3h2Y45LnFQozhPFZ7wcvBWvooynBQUpieKOQNr7G94Em2jpygdEWwcfQFoH7Otdg-wTFRIwubrb6_z3jIs-zShk7MctDwDT9ggJLIWYlqQq2F1x0M6vGu3RDbVB_4Tt9Tj6ry7JJbYPCq4HJZf_LrFFu6YmAMXxM5sANA9N4_e8jjudogd9xdZpsNs-lBcDuwk2SBkaGToNX-8rvb9tNq74NaVbfC1WyF- -WiOL2B9kxWB96eh7X-AmMP5VaT8Dg5vDlMsl1GPzI1vZDJuDIwfMWgiWDTVWo_fYiRdgXFUiAMMBH5QYWtdELiJnt0pClo7ZuvkZuxSck-emRk9gQ7akrIUfK7n2aJ9c6xzJz6ls6phcVrrixk-vbM71QpV- -1Zjx-wSQg1TgCAPLb32QBo7x3swzkis3K1R-nLBrFXDzTuSZpoWTh7UAfxW_vnag6hAMkHnsAUHaG8I59JP2JQDnutRXaWxuNgytNYhKnWtxWTZ3IKaZOrRQJ2ralM4JTm2O4EkA3CF2L88db1Fk6hmklMcShH-kuOXtr90HF24qtcIO4LiPfdUtL0iQWBIZV1AbtfH65Pq8PB8i6gy-D_WR6EifZ4JNgZQa8bNgjE9fx3bhO0EIOae_AQOXD-KUhnHWgeArs39M5L7auGcSsAZNM_k1qEuNGjflxZhASa8_EAh1JpwtQHnoRzv8HJyKSqM1ZsoD1WgwA8Nb1FsHsa_vjoMb99g9Hgiy_WO0]--></g></svg>