<svg xmlns="http://www.w3.org/2000/svg" xmlns:xlink="http://www.w3.org/1999/xlink" contentStyleType="text/css" data-diagram-type="SEQUENCE" height="1739px" preserveAspectRatio="none" style="width:1344px;height:1739px;background:#FFFFFF;" version="1.1" viewBox="0 0 1344 1739" width="1344px" zoomAndPan="magnify"><title>QUIC Connection Establishment Phase</title><defs/><g><text fill="#000000" font-family="Verdana" font-size="22" font-weight="bold" lengthAdjust="spacing" textLength="474.9766" x="433.2268" y="37.1182">QUIC Connection Establishment Phase</text><g><title>QUIC</title><rect fill="#FFFFFF" height="1377.3638" style="stroke:#000000;stroke-width:1;" width="10" x="434.6646" y="270.7485"/></g><g><title>QUIC</title><rect fill="#FFFFFF" height="975.5747" style="stroke:#000000;stroke-width:1;" width="10" x="1121.9258" y="672.5376"/></g><g><title>Client App</title><rect fill="#000000" fill-opacity="0.00000" height="1526.3604" width="8" x="45.0562" y="130.752"/><line style="stroke:#000000;stroke-width:1;" x1="49" x2="49" y1="130.752" y2="1657.1123"/></g><g><title>Client</title><rect fill="#000000" fill-opacity="0.00000" height="1526.3604" width="8" x="292.811" y="130.752"/><line style="stroke:#000000;stroke-width:1;" x1="296.252" x2="296.252" y1="130.752" y2="1657.1123"/></g><g><title>QUIC</title><rect fill="#000000" fill-opacity="0.00000" height="1526.3604" width="8" x="435.6646" y="130.752"/><line style="stroke:#000000;stroke-width:1;" x1="439.4946" x2="439.4946" y1="130.752" y2="1657.1123"/></g><g><title>Network</title><rect fill="#000000" fill-opacity="0.00000" height="1526.3604" width="8" x="696.0557" y="130.752"/><line style="stroke:#000000;stroke-width:1;" x1="699.7842" x2="699.7842" y1="130.752" y2="1657.1123"/></g><g><title>Server</title><rect fill="#000000" fill-opacity="0.00000" height="1526.3604" width="8" x="855.9653" y="130.752"/><line style="stroke:#000000;stroke-width:1;" x1="858.9858" x2="858.9858" y1="130.752" y2="1657.1123"/></g><g><title>QUIC</title><rect fill="#000000" fill-opacity="0.00000" height="1526.3604" width="8" x="1122.9258" y="130.752"/><line style="stroke:#000000;stroke-width:1;" x1="1126.7559" x2="1126.7559" y1="130.752" y2="1657.1123"/></g><g><title>Server</title><rect fill="#000000" fill-opacity="0.00000" height="1526.3604" width="8" x="1276.8711" y="130.752"/><line style="stroke:#000000;stroke-width:1;" x1="1280.312" x2="1280.312" y1="130.752" y2="1657.1123"/></g><g class="participant participant-head" data-participant="ClientApp"><text fill="#000000" font-family="Verdana" font-size="14" lengthAdjust="spacing" textLength="72.1123" x="10" y="127.8125">Client App</text><ellipse cx="49.0562" cy="61.7373" fill="#FFFFFF" rx="8" ry="8" style="stroke:#000000;stroke-width:1;"/><path d="M49.0562,69.7373 L49.0562,96.7373 M36.0562,77.7373 L62.0562,77.7373 M49.0562,96.7373 L36.0562,111.7373 M49.0562,96.7373 L62.0562,111.7373" fill="none" style="stroke:#000000;stroke-width:1;"/></g><g class="participant participant-tail" data-participant="ClientApp"><text fill="#000000" font-family="Verdana" font-size="14" lengthAdjust="spacing" textLength="72.1123" x="10" y="1670.1875">Client App</text><ellipse cx="49.0562" cy="1682.127" fill="#FFFFFF" rx="8" ry="8" style="stroke:#000000;stroke-width:1;"/><path d="M49.0562,1690.127 L49.0562,1717.127 M36.0562,1698.127 L62.0562,1698.127 M49.0562,1717.127 L36.0562,1732.127 M49.0562,1717.127 L62.0562,1732.127" fill="none" style="stroke:#000000;stroke-width:1;"/></g><g class="participant participant-head" data-participant="ClientCtrl"><rect fill="#FFFFFF" height="48.0293" rx="2.5" ry="2.5" style="stroke:#000000;stroke-width:1;" width="83.1182" x="255.252" y="81.7227"/><text fill="#000000" font-family="Verdana" font-size="14" lengthAdjust="spacing" textLength="40.1748" x="276.7236" y="102.7979">Client</text><text fill="#000000" font-family="Verdana" font-size="14" lengthAdjust="spacing" textLength="69.1182" x="262.252" y="119.8125">Controller</text></g><g class="participant participant-tail" data-participant="ClientCtrl"><rect fill="#FFFFFF" height="48.0293" rx="2.5" ry="2.5" style="stroke:#000000;stroke-width:1;" width="83.1182" x="255.252" y="1656.1123"/><text fill="#000000" font-family="Verdana" font-size="14" lengthAdjust="spacing" textLength="40.1748" x="276.7236" y="1677.1875">Client</text><text fill="#000000" font-family="Verdana" font-size="14" lengthAdjust="spacing" textLength="69.1182" x="262.252" y="1694.2021">Controller</text></g><g class="participant participant-head" data-participant="ClientConn"><rect fill="#FFFFFF" height="65.0439" rx="2.5" ry="2.5" style="stroke:#000000;stroke-width:1;" width="92.3398" x="393.4946" y="64.708"/><text fill="#000000" font-family="Verdana" font-size="14" lengthAdjust="spacing" textLength="36.9346" x="421.1973" y="85.7832">QUIC</text><text fill="#000000" font-family="Verdana" font-size="14" lengthAdjust="spacing" textLength="78.3398" x="400.4946" y="102.7979">Connection</text><text fill="#000000" font-family="Verdana" font-size="14" lengthAdjust="spacing" textLength="52.8896" x="413.2197" y="119.8125">(Client)</text></g><g class="participant participant-tail" data-participant="ClientConn"><rect fill="#FFFFFF" height="65.0439" rx="2.5" ry="2.5" style="stroke:#000000;stroke-width:1;" width="92.3398" x="393.4946" y="1656.1123"/><text fill="#000000" font-family="Verdana" font-size="14" lengthAdjust="spacing" textLength="36.9346" x="421.1973" y="1677.1875">QUIC</text><text fill="#000000" font-family="Verdana" font-size="14" lengthAdjust="spacing" textLength="78.3398" x="400.4946" y="1694.2021">Connection</text><text fill="#000000" font-family="Verdana" font-size="14" lengthAdjust="spacing" textLength="52.8896" x="413.2197" y="1711.2168">(Client)</text></g><g class="participant participant-head" data-participant="Net"><rect fill="#FFFFFF" height="31.0146" rx="2.5" ry="2.5" style="stroke:#000000;stroke-width:1;" width="72.543" x="663.7842" y="98.7373"/><text fill="#000000" font-family="Verdana" font-size="14" lengthAdjust="spacing" textLength="58.543" x="670.7842" y="119.8125">Network</text></g><g class="participant participant-tail" data-participant="Net"><rect fill="#FFFFFF" height="31.0146" rx="2.5" ry="2.5" style="stroke:#000000;stroke-width:1;" width="72.543" x="663.7842" y="1656.1123"/><text fill="#000000" font-family="Verdana" font-size="14" lengthAdjust="spacing" textLength="58.543" x="670.7842" y="1677.1875">Network</text></g><g class="participant participant-head" data-participant="ServerList"><rect fill="#FFFFFF" height="48.0293" rx="2.5" ry="2.5" style="stroke:#000000;stroke-width:1;" width="69.959" x="824.9858" y="81.7227"/><text fill="#000000" font-family="Verdana" font-size="14" lengthAdjust="spacing" textLength="46.4844" x="836.7231" y="102.7979">Server</text><text fill="#000000" font-family="Verdana" font-size="14" lengthAdjust="spacing" textLength="55.959" x="831.9858" y="119.8125">Listener</text></g><g class="participant participant-tail" data-participant="ServerList"><rect fill="#FFFFFF" height="48.0293" rx="2.5" ry="2.5" style="stroke:#000000;stroke-width:1;" width="69.959" x="824.9858" y="1656.1123"/><text fill="#000000" font-family="Verdana" font-size="14" lengthAdjust="spacing" textLength="46.4844" x="836.7231" y="1677.1875">Server</text><text fill="#000000" font-family="Verdana" font-size="14" lengthAdjust="spacing" textLength="55.959" x="831.9858" y="1694.2021">Listener</text></g><g class="participant participant-head" data-participant="ServerConn"><rect fill="#FFFFFF" height="65.0439" rx="2.5" ry="2.5" style="stroke:#000000;stroke-width:1;" width="92.3398" x="1080.7559" y="64.708"/><text fill="#000000" font-family="Verdana" font-size="14" lengthAdjust="spacing" textLength="36.9346" x="1108.4585" y="85.7832">QUIC</text><text fill="#000000" font-family="Verdana" font-size="14" lengthAdjust="spacing" textLength="78.3398" x="1087.7559" y="102.7979">Connection</text><text fill="#000000" font-family="Verdana" font-size="14" lengthAdjust="spacing" textLength="59.1992" x="1097.3262" y="119.8125">(Server)</text></g><g class="participant participant-tail" data-participant="ServerConn"><rect fill="#FFFFFF" height="65.0439" rx="2.5" ry="2.5" style="stroke:#000000;stroke-width:1;" width="92.3398" x="1080.7559" y="1656.1123"/><text fill="#000000" font-family="Verdana" font-size="14" lengthAdjust="spacing" textLength="36.9346" x="1108.4585" y="1677.1875">QUIC</text><text fill="#000000" font-family="Verdana" font-size="14" lengthAdjust="spacing" textLength="78.3398" x="1087.7559" y="1694.2021">Connection</text><text fill="#000000" font-family="Verdana" font-size="14" lengthAdjust="spacing" textLength="59.1992" x="1097.3262" y="1711.2168">(Server)</text></g><g class="participant participant-head" data-participant="ServerCtrl"><rect fill="#FFFFFF" height="48.0293" rx="2.5" ry="2.5" style="stroke:#000000;stroke-width:1;" width="83.1182" x="1239.312" y="81.7227"/><text fill="#000000" font-family="Verdana" font-size="14" lengthAdjust="spacing" textLength="46.4844" x="1257.6289" y="102.7979">Server</text><text fill="#000000" font-family="Verdana" font-size="14" lengthAdjust="spacing" textLength="69.1182" x="1246.312" y="119.8125">Controller</text></g><g class="participant participant-tail" data-participant="ServerCtrl"><rect fill="#FFFFFF" height="48.0293" rx="2.5" ry="2.5" style="stroke:#000000;stroke-width:1;" width="83.1182" x="1239.312" y="1656.1123"/><text fill="#000000" font-family="Verdana" font-size="14" lengthAdjust="spacing" textLength="46.4844" x="1257.6289" y="1677.1875">Server</text><text fill="#000000" font-family="Verdana" font-size="14" lengthAdjust="spacing" textLength="69.1182" x="1246.312" y="1694.2021">Controller</text></g><g><title>QUIC</title><rect fill="#FFFFFF" height="1377.3638" style="stroke:#000000;stroke-width:1;" width="10" x="434.6646" y="270.7485"/></g><g><title>QUIC</title><rect fill="#FFFFFF" height="975.5747" style="stroke:#000000;stroke-width:1;" width="10" x="1121.9258" y="672.5376"/></g><rect fill="#FFFFFF" height="3" style="stroke:#FFFFFF;stroke-width:1;" width="1332.4302" x="5" y="161.6516"/><line style="stroke:#000000;stroke-width:0.5;" x1="5" x2="1337.4302" y1="161.6516" y2="161.6516"/><line style="stroke:#000000;stroke-width:0.5;" x1="5" x2="1337.4302" y1="164.6516" y2="164.6516"/><rect fill="#FFFFFF" height="23.7993" style="stroke:#000000;stroke-width:1;" width="172.9771" x="584.7266" y="150.752"/><text fill="#000000" font-family="Verdana" font-size="13" font-weight="bold" lengthAdjust="spacing" textLength="154.5337" x="590.7266" y="167.8218">Connection Initiation</text><g class="message" data-participant-1="ClientApp" data-participant-2="ClientCtrl"><polygon fill="#000000" points="284.811,218.1499,294.811,222.1499,284.811,226.1499,288.811,222.1499" style="stroke:#000000;stroke-width:1;"/><line style="stroke:#000000;stroke-width:1;" x1="49.0562" x2="290.811" y1="222.1499" y2="222.1499"/><text fill="#000000" font-family="Verdana" font-size="13" lengthAdjust="spacing" textLength="223.7549" x="61.0562" y="201.6211">CreateWebTransportClient(server,</text><text fill="#000000" font-family="Verdana" font-size="13" lengthAdjust="spacing" textLength="31.3892" x="103.1221" y="217.4204">port,</text><text fill="#000000" font-family="Verdana" font-size="13" lengthAdjust="spacing" textLength="4.5703" x="134.5112" y="217.4204">&#160;</text><text fill="#000000" font-family="Verdana" font-size="13" lengthAdjust="spacing" textLength="63.9336" x="139.0815" y="217.4204">authority,</text><text fill="#000000" font-family="Verdana" font-size="13" lengthAdjust="spacing" textLength="4.5703" x="203.0151" y="217.4204">&#160;</text><text fill="#000000" font-family="Verdana" font-size="13" lengthAdjust="spacing" textLength="35.1597" x="207.5854" y="217.4204">path)</text></g><g class="message" data-participant-1="ClientCtrl" data-participant-2="ClientConn"><polygon fill="#000000" points="422.6646,266.7485,432.6646,270.7485,422.6646,274.7485,426.6646,270.7485" style="stroke:#000000;stroke-width:1;"/><line style="stroke:#000000;stroke-width:1;" x1="296.811" x2="428.6646" y1="270.7485" y2="270.7485"/><text fill="#000000" font-family="Verdana" font-size="13" lengthAdjust="spacing" textLength="118.8535" x="306.311" y="266.019">ConnectionOpen()</text></g><path d="M449,235.1499 L449,292.1499 L723,292.1499 L723,245.1499 L713,235.1499 L449,235.1499" fill="#FFFFFF" style="stroke:#000000;stroke-width:1;"/><path d="M713,235.1499 L713,245.1499 L723,245.1499 L713,235.1499" fill="#FFFFFF" style="stroke:#000000;stroke-width:1;"/><text fill="#000000" font-family="Verdana" font-size="13" lengthAdjust="spacing" textLength="166.2959" x="455" y="253.2197">Create connection handle</text><text fill="#000000" font-family="Verdana" font-size="13" lengthAdjust="spacing" textLength="253.3286" x="455" y="269.019">Set callback: ClientConnectionCallback</text><text fill="#000000" font-family="Verdana" font-size="13" lengthAdjust="spacing" textLength="162.8364" x="455" y="284.8184">Context: ClientController</text><g class="message" data-participant-1="ClientConn" data-participant-2="ClientConn"><line style="stroke:#000000;stroke-width:1;" x1="444.6646" x2="486.6646" y1="335.1465" y2="335.1465"/><line style="stroke:#000000;stroke-width:1;" x1="486.6646" x2="486.6646" y1="335.1465" y2="348.1465"/><line style="stroke:#000000;stroke-width:1;" x1="445.6646" x2="486.6646" y1="348.1465" y2="348.1465"/><polygon fill="#000000" points="455.6646,344.1465,445.6646,348.1465,455.6646,352.1465,451.6646,348.1465" style="stroke:#000000;stroke-width:1;"/><text fill="#000000" font-family="Verdana" font-size="13" lengthAdjust="spacing" textLength="40.5869" x="451.6646" y="314.6177">State:</text><text fill="#000000" font-family="Verdana" font-size="13" lengthAdjust="spacing" textLength="4.5703" x="492.2515" y="314.6177">&#160;</text><text fill="#000000" font-family="Verdana" font-size="13" lengthAdjust="spacing" textLength="30.9448" x="496.8218" y="314.6177">IDLE</text><text fill="#000000" font-family="Verdana" font-size="13" lengthAdjust="spacing" textLength="4.5703" x="527.7666" y="314.6177">&#160;</text><text fill="#000000" font-family="Verdana" font-size="13" lengthAdjust="spacing" textLength="19.5635" x="532.3369" y="314.6177">&#226;&#8224;&#8217;</text><text fill="#000000" font-family="Verdana" font-size="13" lengthAdjust="spacing" textLength="89.3433" x="457.1108" y="330.417">CONNECTING</text></g><path d="M573.2358,313.9475 L573.2358,338.9475 L829.2358,338.9475 L829.2358,323.9475 L819.2358,313.9475 L573.2358,313.9475" fill="#FFFFFF" style="stroke:#000000;stroke-width:1;"/><path d="M819.2358,313.9475 L819.2358,323.9475 L829.2358,323.9475 L819.2358,313.9475" fill="#FFFFFF" style="stroke:#000000;stroke-width:1;"/><text fill="#000000" font-family="Verdana" font-size="13" lengthAdjust="spacing" textLength="235.8662" x="579.2358" y="332.0173">Connection state machine transition</text><g class="message" data-participant-1="ClientConn" data-participant-2="Net"><polygon fill="#000000" points="688.0557,408.5444,698.0557,412.5444,688.0557,416.5444,692.0557,412.5444" style="stroke:#000000;stroke-width:1;"/><line style="stroke:#000000;stroke-width:1;" x1="444.6646" x2="694.0557" y1="412.5444" y2="412.5444"/><text fill="#000000" font-family="Verdana" font-size="13" lengthAdjust="spacing" textLength="168.8477" x="487.9363" y="392.0156">ConnectionStart("server",</text><text fill="#000000" font-family="Verdana" font-size="13" lengthAdjust="spacing" textLength="38.9619" x="552.8792" y="407.8149">4443)</text></g><path d="M705,361.1465 L705,434.1465 L917,434.1465 L917,371.1465 L907,361.1465 L705,361.1465" fill="#FFFFFF" style="stroke:#000000;stroke-width:1;"/><path d="M907,361.1465 L907,371.1465 L917,371.1465 L907,361.1465" fill="#FFFFFF" style="stroke:#000000;stroke-width:1;"/><text fill="#000000" font-family="Verdana" font-size="13" lengthAdjust="spacing" textLength="166.4102" x="711" y="379.2163">Initiate QUIC connection:</text><text fill="#000000" font-family="Verdana" font-size="13" lengthAdjust="spacing" textLength="191.4072" x="711" y="395.0156">- Server: localhost/127.0.0.1</text><text fill="#000000" font-family="Verdana" font-size="13" lengthAdjust="spacing" textLength="80.4058" x="711" y="410.8149">- Port: 4443</text><text fill="#000000" font-family="Verdana" font-size="13" lengthAdjust="spacing" textLength="170.5552" x="711" y="426.6143">- Address family: UNSPEC</text><rect fill="#FFFFFF" height="3" style="stroke:#FFFFFF;stroke-width:1;" width="1332.4302" x="5" y="460.2434"/><line style="stroke:#000000;stroke-width:0.5;" x1="5" x2="1337.4302" y1="460.2434" y2="460.2434"/><line style="stroke:#000000;stroke-width:0.5;" x1="5" x2="1337.4302" y1="463.2434" y2="463.2434"/><rect fill="#FFFFFF" height="23.7993" style="stroke:#000000;stroke-width:1;" width="221.2129" x="560.6086" y="449.3438"/><text fill="#000000" font-family="Verdana" font-size="13" font-weight="bold" lengthAdjust="spacing" textLength="202.7695" x="566.6086" y="466.4136">Server Receives Connection</text><g class="message" data-participant-1="Net" data-participant-2="ServerList"><polygon fill="#000000" points="847.9653,516.7417,857.9653,520.7417,847.9653,524.7417,851.9653,520.7417" style="stroke:#000000;stroke-width:1;"/><line style="stroke:#000000;stroke-width:1;" x1="700.0557" x2="853.9653" y1="520.7417" y2="520.7417"/><text fill="#000000" font-family="Verdana" font-size="13" lengthAdjust="spacing" textLength="60.8994" x="712.0557" y="500.2129">Incoming</text><text fill="#000000" font-family="Verdana" font-size="13" lengthAdjust="spacing" textLength="4.5703" x="772.9551" y="500.2129">&#160;</text><text fill="#000000" font-family="Verdana" font-size="13" lengthAdjust="spacing" textLength="70.4399" x="777.5254" y="500.2129">connection</text><text fill="#000000" font-family="Verdana" font-size="13" lengthAdjust="spacing" textLength="49.2578" x="755.3816" y="516.0122">request</text></g><path d="M612,533.7417 L612,574.7417 L787,574.7417 L787,543.7417 L777,533.7417 L612,533.7417" fill="#FFFFFF" style="stroke:#000000;stroke-width:1;"/><path d="M777,533.7417 L777,543.7417 L787,543.7417 L777,533.7417" fill="#FFFFFF" style="stroke:#000000;stroke-width:1;"/><text fill="#000000" font-family="Verdana" font-size="13" lengthAdjust="spacing" textLength="154.0322" x="618" y="551.8115">UDP packets containing</text><text fill="#000000" font-family="Verdana" font-size="13" lengthAdjust="spacing" textLength="130.7808" x="618" y="567.6108">QUIC Initial packets</text><g class="message" data-participant-1="ServerList" data-participant-2="ServerList"><line style="stroke:#000000;stroke-width:1;" x1="859.9653" x2="901.9653" y1="606.5393" y2="606.5393"/><line style="stroke:#000000;stroke-width:1;" x1="901.9653" x2="901.9653" y1="606.5393" y2="619.5393"/><line style="stroke:#000000;stroke-width:1;" x1="860.9653" x2="901.9653" y1="619.5393" y2="619.5393"/><polygon fill="#000000" points="870.9653,615.5393,860.9653,619.5393,870.9653,623.5393,866.9653,619.5393" style="stroke:#000000;stroke-width:1;"/><text fill="#000000" font-family="Verdana" font-size="13" lengthAdjust="spacing" textLength="252.9604" x="866.9653" y="601.8098">LISTENER_EVENT_NEW_CONNECTION</text></g><path d="M661,585.3403 L661,626.3403 L854,626.3403 L854,595.3403 L844,585.3403 L661,585.3403" fill="#FFFFFF" style="stroke:#000000;stroke-width:1;"/><path d="M844,585.3403 L844,595.3403 L854,595.3403 L844,585.3403" fill="#FFFFFF" style="stroke:#000000;stroke-width:1;"/><text fill="#000000" font-family="Verdana" font-size="13" lengthAdjust="spacing" textLength="172.7642" x="667" y="603.4102">Listener callback triggered</text><text fill="#000000" font-family="Verdana" font-size="13" lengthAdjust="spacing" textLength="162.5698" x="667" y="619.2095">with new connection info</text><g class="message" data-participant-1="ServerList" data-participant-2="ServerConn"><polygon fill="#000000" points="1109.9258,668.5376,1119.9258,672.5376,1109.9258,676.5376,1113.9258,672.5376" style="stroke:#000000;stroke-width:1;"/><line style="stroke:#000000;stroke-width:1;" x1="859.9653" x2="1115.9258" y1="672.5376" y2="672.5376"/><text fill="#000000" font-family="Verdana" font-size="13" lengthAdjust="spacing" textLength="43.0435" x="931.9187" y="652.0088">Create</text><text fill="#000000" font-family="Verdana" font-size="13" lengthAdjust="spacing" textLength="4.5703" x="974.9622" y="652.0088">&#160;</text><text fill="#000000" font-family="Verdana" font-size="13" lengthAdjust="spacing" textLength="70.4399" x="979.5325" y="652.0088">connection</text><text fill="#000000" font-family="Verdana" font-size="13" lengthAdjust="spacing" textLength="40.1045" x="970.8933" y="667.8081">object</text></g><path d="M661,636.939 L661,677.939 L853,677.939 L853,646.939 L843,636.939 L661,636.939" fill="#FFFFFF" style="stroke:#000000;stroke-width:1;"/><path d="M843,636.939 L843,646.939 L853,646.939 L843,636.939" fill="#FFFFFF" style="stroke:#000000;stroke-width:1;"/><text fill="#000000" font-family="Verdana" font-size="13" lengthAdjust="spacing" textLength="171.9897" x="667" y="655.0088">Allocate server connection</text><text fill="#000000" font-family="Verdana" font-size="13" lengthAdjust="spacing" textLength="76.1021" x="667" y="670.8081">State: IDLE</text><g class="message" data-participant-1="ServerList" data-participant-2="ServerConn"><polygon fill="#000000" points="1109.9258,720.1362,1119.9258,724.1362,1109.9258,728.1362,1113.9258,724.1362" style="stroke:#000000;stroke-width:1;"/><line style="stroke:#000000;stroke-width:1;" x1="859.9653" x2="1115.9258" y1="724.1362" y2="724.1362"/><text fill="#000000" font-family="Verdana" font-size="13" lengthAdjust="spacing" textLength="138.7153" x="921.5879" y="719.4067">SetCallbackHandler()</text></g><path d="M663,688.5376 L663,745.5376 L854,745.5376 L854,698.5376 L844,688.5376 L663,688.5376" fill="#FFFFFF" style="stroke:#000000;stroke-width:1;"/><path d="M844,688.5376 L844,698.5376 L854,698.5376 L844,688.5376" fill="#FFFFFF" style="stroke:#000000;stroke-width:1;"/><text fill="#000000" font-family="Verdana" font-size="13" lengthAdjust="spacing" textLength="84.3159" x="669" y="706.6074">Set callback:</text><text fill="#000000" font-family="Verdana" font-size="13" lengthAdjust="spacing" textLength="170.3013" x="669" y="722.4067">ServerConnectionCallback</text><text fill="#000000" font-family="Verdana" font-size="13" lengthAdjust="spacing" textLength="168.6953" x="669" y="738.2061">Context: ServerController</text><g class="message" data-participant-1="ServerList" data-participant-2="ServerConn"><polygon fill="#000000" points="1109.9258,795.4338,1119.9258,799.4338,1109.9258,803.4338,1113.9258,799.4338" style="stroke:#000000;stroke-width:1;"/><line style="stroke:#000000;stroke-width:1;" x1="859.9653" x2="1115.9258" y1="799.4338" y2="799.4338"/><text fill="#000000" font-family="Verdana" font-size="13" lengthAdjust="spacing" textLength="194.124" x="893.8835" y="794.7043">ConnectionSetConfiguration()</text></g><path d="M656,755.9355 L656,828.9355 L854,828.9355 L854,765.9355 L844,755.9355 L656,755.9355" fill="#FFFFFF" style="stroke:#000000;stroke-width:1;"/><path d="M844,755.9355 L844,765.9355 L854,765.9355 L844,755.9355" fill="#FFFFFF" style="stroke:#000000;stroke-width:1;"/><text fill="#000000" font-family="Verdana" font-size="13" lengthAdjust="spacing" textLength="177.9565" x="662" y="774.0054">Apply server configuration:</text><text fill="#000000" font-family="Verdana" font-size="13" lengthAdjust="spacing" textLength="103.5176" x="662" y="789.8047">- TLS certificate</text><text fill="#000000" font-family="Verdana" font-size="13" lengthAdjust="spacing" textLength="108.2847" x="662" y="805.604">- ALPN protocols</text><text fill="#000000" font-family="Verdana" font-size="13" lengthAdjust="spacing" textLength="98.0396" x="662" y="821.4033">- Stream limits</text><rect fill="#FFFFFF" height="3" style="stroke:#FFFFFF;stroke-width:1;" width="1332.4302" x="5" y="855.0325"/><line style="stroke:#000000;stroke-width:0.5;" x1="5" x2="1337.4302" y1="855.0325" y2="855.0325"/><line style="stroke:#000000;stroke-width:0.5;" x1="5" x2="1337.4302" y1="858.0325" y2="858.0325"/><rect fill="#FFFFFF" height="23.7993" style="stroke:#000000;stroke-width:1;" width="202.9951" x="569.7175" y="844.1328"/><text fill="#000000" font-family="Verdana" font-size="13" font-weight="bold" lengthAdjust="spacing" textLength="184.5518" x="575.7175" y="861.2026">QUIC Handshake Process</text><g class="message" data-participant-1="Net" data-participant-2="Net"><line style="stroke:#000000;stroke-width:1;" x1="700.0557" x2="742.0557" y1="915.5308" y2="915.5308"/><line style="stroke:#000000;stroke-width:1;" x1="742.0557" x2="742.0557" y1="915.5308" y2="928.5308"/><line style="stroke:#000000;stroke-width:1;" x1="701.0557" x2="742.0557" y1="928.5308" y2="928.5308"/><polygon fill="#000000" points="711.0557,924.5308,701.0557,928.5308,711.0557,932.5308,707.0557,928.5308" style="stroke:#000000;stroke-width:1;"/><text fill="#000000" font-family="Verdana" font-size="13" lengthAdjust="spacing" textLength="34.2964" x="707.0557" y="895.002">QUIC</text><text fill="#000000" font-family="Verdana" font-size="13" lengthAdjust="spacing" textLength="4.5703" x="741.3521" y="895.002">&#160;</text><text fill="#000000" font-family="Verdana" font-size="13" lengthAdjust="spacing" textLength="72.1475" x="745.9224" y="895.002">Handshake</text><text fill="#000000" font-family="Verdana" font-size="13" lengthAdjust="spacing" textLength="4.5703" x="818.0698" y="895.002">&#160;</text><text fill="#000000" font-family="Verdana" font-size="13" lengthAdjust="spacing" textLength="10.6387" x="822.6401" y="895.002">+</text><text fill="#000000" font-family="Verdana" font-size="13" lengthAdjust="spacing" textLength="24.1338" x="745.186" y="910.8013">TLS</text><text fill="#000000" font-family="Verdana" font-size="13" lengthAdjust="spacing" textLength="4.5703" x="769.3198" y="910.8013">&#160;</text><text fill="#000000" font-family="Verdana" font-size="13" lengthAdjust="spacing" textLength="21.2583" x="773.8901" y="910.8013">1.3</text></g><path d="M579,941.5308 L579,1077.5308 L820,1077.5308 L820,951.5308 L810,941.5308 L579,941.5308" fill="#FFFFFF" style="stroke:#000000;stroke-width:1;"/><path d="M810,941.5308 L810,951.5308 L820,951.5308 L810,941.5308" fill="#FFFFFF" style="stroke:#000000;stroke-width:1;"/><text fill="#000000" font-family="Verdana" font-size="13" font-weight="bold" lengthAdjust="spacing" textLength="131.1997" x="585" y="959.6006">Handshake Steps:</text><text fill="#000000" font-family="Verdana" font-size="13" lengthAdjust="spacing" textLength="144.0347" x="585" y="975.3999">1. Version negotiation</text><text fill="#000000" font-family="Verdana" font-size="13" lengthAdjust="spacing" textLength="169.5903" x="585" y="991.1992">2. Initial packet exchange</text><text fill="#000000" font-family="Verdana" font-size="13" lengthAdjust="spacing" textLength="142.7017" x="585" y="1006.9985">3. TLS 1.3 handshake</text><text fill="#000000" font-family="Verdana" font-size="13" lengthAdjust="spacing" textLength="220.1113" x="585" y="1022.7979">4. Transport parameter exchange</text><text fill="#000000" font-family="Verdana" font-size="13" lengthAdjust="spacing" textLength="152.1279" x="585" y="1038.5972">5. Certificate validation</text><text fill="#000000" font-family="Verdana" font-size="13" lengthAdjust="spacing" textLength="111.8457" x="585" y="1054.3965">6. Key derivation</text><text fill="#000000" font-family="Verdana" font-size="13" lengthAdjust="spacing" textLength="165.8071" x="585" y="1070.1958">7. Handshake completion</text><rect fill="#FFFFFF" height="3" style="stroke:#FFFFFF;stroke-width:1;" width="1332.4302" x="5" y="1103.825"/><line style="stroke:#000000;stroke-width:0.5;" x1="5" x2="1337.4302" y1="1103.825" y2="1103.825"/><line style="stroke:#000000;stroke-width:0.5;" x1="5" x2="1337.4302" y1="1106.825" y2="1106.825"/><rect fill="#FFFFFF" height="23.7993" style="stroke:#000000;stroke-width:1;" width="188.4463" x="576.9919" y="1092.9253"/><text fill="#000000" font-family="Verdana" font-size="13" font-weight="bold" lengthAdjust="spacing" textLength="170.0029" x="582.9919" y="1109.9951">Connection Established</text><g class="message" data-participant-1="Net" data-participant-2="ClientConn"><polygon fill="#000000" points="455.6646,1155.4236,445.6646,1159.4236,455.6646,1163.4236,451.6646,1159.4236" style="stroke:#000000;stroke-width:1;"/><line style="stroke:#000000;stroke-width:1;" x1="449.6646" x2="699.0557" y1="1159.4236" y2="1159.4236"/><text fill="#000000" font-family="Verdana" font-size="13" lengthAdjust="spacing" textLength="231.3911" x="456.6646" y="1154.6941">CONNECTION_EVENT_CONNECTED</text></g><path d="M705,1131.7246 L705,1172.7246 L862,1172.7246 L862,1141.7246 L852,1131.7246 L705,1131.7246" fill="#FFFFFF" style="stroke:#000000;stroke-width:1;"/><path d="M852,1131.7246 L852,1141.7246 L862,1141.7246 L852,1131.7246" fill="#FFFFFF" style="stroke:#000000;stroke-width:1;"/><text fill="#000000" font-family="Verdana" font-size="13" lengthAdjust="spacing" textLength="136.3032" x="711" y="1149.7944">Handshake complete</text><text fill="#000000" font-family="Verdana" font-size="13" lengthAdjust="spacing" textLength="114.207" x="711" y="1165.5938">Connection ready</text><g class="message" data-participant-1="ClientConn" data-participant-2="ClientConn"><line style="stroke:#000000;stroke-width:1;" x1="444.6646" x2="486.6646" y1="1215.9219" y2="1215.9219"/><line style="stroke:#000000;stroke-width:1;" x1="486.6646" x2="486.6646" y1="1215.9219" y2="1228.9219"/><line style="stroke:#000000;stroke-width:1;" x1="445.6646" x2="486.6646" y1="1228.9219" y2="1228.9219"/><polygon fill="#000000" points="455.6646,1224.9219,445.6646,1228.9219,455.6646,1232.9219,451.6646,1228.9219" style="stroke:#000000;stroke-width:1;"/><text fill="#000000" font-family="Verdana" font-size="13" lengthAdjust="spacing" textLength="40.5869" x="451.6646" y="1195.3931">State:</text><text fill="#000000" font-family="Verdana" font-size="13" lengthAdjust="spacing" textLength="4.5703" x="492.2515" y="1195.3931">&#160;</text><text fill="#000000" font-family="Verdana" font-size="13" lengthAdjust="spacing" textLength="89.3433" x="496.8218" y="1195.3931">CONNECTING</text><text fill="#000000" font-family="Verdana" font-size="13" lengthAdjust="spacing" textLength="19.5635" x="465.696" y="1211.1924">&#226;&#8224;&#8217;</text><text fill="#000000" font-family="Verdana" font-size="13" lengthAdjust="spacing" textLength="4.5703" x="485.2595" y="1211.1924">&#160;</text><text fill="#000000" font-family="Verdana" font-size="13" lengthAdjust="spacing" textLength="82.3037" x="489.8298" y="1211.1924">CONNECTED</text></g><path d="M607.5005,1186.8232 L607.5005,1227.8232 L788.5005,1227.8232 L788.5005,1196.8232 L778.5005,1186.8232 L607.5005,1186.8232" fill="#FFFFFF" style="stroke:#000000;stroke-width:1;"/><path d="M778.5005,1186.8232 L778.5005,1196.8232 L788.5005,1196.8232 L778.5005,1186.8232" fill="#FFFFFF" style="stroke:#000000;stroke-width:1;"/><text fill="#000000" font-family="Verdana" font-size="13" lengthAdjust="spacing" textLength="160.6655" x="613.5005" y="1204.8931">State machine transition</text><text fill="#000000" font-family="Verdana" font-size="13" lengthAdjust="spacing" textLength="121.3228" x="613.5005" y="1220.6924">to connected state</text><g class="message" data-participant-1="ClientConn" data-participant-2="ClientCtrl"><polygon fill="#000000" points="307.811,1273.5205,297.811,1277.5205,307.811,1281.5205,303.811,1277.5205" style="stroke:#000000;stroke-width:1;"/><line style="stroke:#000000;stroke-width:1;" x1="301.811" x2="433.6646" y1="1277.5205" y2="1277.5205"/><text fill="#000000" font-family="Verdana" font-size="13" lengthAdjust="spacing" textLength="72.7441" x="329.3657" y="1256.9917">Connection</text><text fill="#000000" font-family="Verdana" font-size="13" lengthAdjust="spacing" textLength="73.5249" x="328.9753" y="1272.791">established</text></g><path d="M449,1241.9219 L449,1282.9219 L628,1282.9219 L628,1251.9219 L618,1241.9219 L449,1241.9219" fill="#FFFFFF" style="stroke:#000000;stroke-width:1;"/><path d="M618,1241.9219 L618,1251.9219 L628,1251.9219 L618,1241.9219" fill="#FFFFFF" style="stroke:#000000;stroke-width:1;"/><text fill="#000000" font-family="Verdana" font-size="13" lengthAdjust="spacing" textLength="105.0156" x="455" y="1259.9917">Notify controller</text><text fill="#000000" font-family="Verdana" font-size="13" lengthAdjust="spacing" textLength="158.2407" x="455" y="1275.791">of successful connection</text><g class="message" data-participant-1="Net" data-participant-2="ServerConn"><polygon fill="#000000" points="1109.9258,1317.2195,1119.9258,1321.2195,1109.9258,1325.2195,1113.9258,1321.2195" style="stroke:#000000;stroke-width:1;"/><line style="stroke:#000000;stroke-width:1;" x1="700.0557" x2="1115.9258" y1="1321.2195" y2="1321.2195"/><text fill="#000000" font-family="Verdana" font-size="13" lengthAdjust="spacing" textLength="231.3911" x="795.2952" y="1316.49">CONNECTION_EVENT_CONNECTED</text></g><path d="M537,1293.5205 L537,1334.5205 L694,1334.5205 L694,1303.5205 L684,1293.5205 L537,1293.5205" fill="#FFFFFF" style="stroke:#000000;stroke-width:1;"/><path d="M684,1293.5205 L684,1303.5205 L694,1303.5205 L684,1293.5205" fill="#FFFFFF" style="stroke:#000000;stroke-width:1;"/><text fill="#000000" font-family="Verdana" font-size="13" lengthAdjust="spacing" textLength="136.3032" x="543" y="1311.5903">Handshake complete</text><text fill="#000000" font-family="Verdana" font-size="13" lengthAdjust="spacing" textLength="114.207" x="543" y="1327.3896">Connection ready</text><g class="message" data-participant-1="ServerConn" data-participant-2="ServerConn"><line style="stroke:#000000;stroke-width:1;" x1="1131.9258" x2="1173.9258" y1="1377.7178" y2="1377.7178"/><line style="stroke:#000000;stroke-width:1;" x1="1173.9258" x2="1173.9258" y1="1377.7178" y2="1390.7178"/><line style="stroke:#000000;stroke-width:1;" x1="1132.9258" x2="1173.9258" y1="1390.7178" y2="1390.7178"/><polygon fill="#000000" points="1142.9258,1386.7178,1132.9258,1390.7178,1142.9258,1394.7178,1138.9258,1390.7178" style="stroke:#000000;stroke-width:1;"/><text fill="#000000" font-family="Verdana" font-size="13" lengthAdjust="spacing" textLength="40.5869" x="1138.9258" y="1357.189">State:</text><text fill="#000000" font-family="Verdana" font-size="13" lengthAdjust="spacing" textLength="4.5703" x="1179.5127" y="1357.189">&#160;</text><text fill="#000000" font-family="Verdana" font-size="13" lengthAdjust="spacing" textLength="30.9448" x="1184.083" y="1357.189">IDLE</text><text fill="#000000" font-family="Verdana" font-size="13" lengthAdjust="spacing" textLength="4.5703" x="1215.0278" y="1357.189">&#160;</text><text fill="#000000" font-family="Verdana" font-size="13" lengthAdjust="spacing" textLength="19.5635" x="1219.5981" y="1357.189">&#226;&#8224;&#8217;</text><text fill="#000000" font-family="Verdana" font-size="13" lengthAdjust="spacing" textLength="82.3037" x="1147.8918" y="1372.9883">CONNECTED</text></g><path d="M935,1348.6191 L935,1389.6191 L1116,1389.6191 L1116,1358.6191 L1106,1348.6191 L935,1348.6191" fill="#FFFFFF" style="stroke:#000000;stroke-width:1;"/><path d="M1106,1348.6191 L1106,1358.6191 L1116,1358.6191 L1106,1348.6191" fill="#FFFFFF" style="stroke:#000000;stroke-width:1;"/><text fill="#000000" font-family="Verdana" font-size="13" lengthAdjust="spacing" textLength="160.6655" x="941" y="1366.689">State machine transition</text><text fill="#000000" font-family="Verdana" font-size="13" lengthAdjust="spacing" textLength="121.3228" x="941" y="1382.4883">to connected state</text><g class="message" data-participant-1="ServerConn" data-participant-2="ServerCtrl"><polygon fill="#000000" points="1268.8711,1435.3164,1278.8711,1439.3164,1268.8711,1443.3164,1272.8711,1439.3164" style="stroke:#000000;stroke-width:1;"/><line style="stroke:#000000;stroke-width:1;" x1="1131.9258" x2="1274.8711" y1="1439.3164" y2="1439.3164"/><text fill="#000000" font-family="Verdana" font-size="13" lengthAdjust="spacing" textLength="72.7441" x="1170.0264" y="1418.7876">Connection</text><text fill="#000000" font-family="Verdana" font-size="13" lengthAdjust="spacing" textLength="73.5249" x="1169.636" y="1434.5869">established</text></g><path d="M937,1403.7178 L937,1444.7178 L1116,1444.7178 L1116,1413.7178 L1106,1403.7178 L937,1403.7178" fill="#FFFFFF" style="stroke:#000000;stroke-width:1;"/><path d="M1106,1403.7178 L1106,1413.7178 L1116,1413.7178 L1106,1403.7178" fill="#FFFFFF" style="stroke:#000000;stroke-width:1;"/><text fill="#000000" font-family="Verdana" font-size="13" lengthAdjust="spacing" textLength="105.0156" x="943" y="1421.7876">Notify controller</text><text fill="#000000" font-family="Verdana" font-size="13" lengthAdjust="spacing" textLength="158.2217" x="943" y="1437.5869">of new client connection</text><rect fill="#FFFFFF" height="3" style="stroke:#FFFFFF;stroke-width:1;" width="1332.4302" x="5" y="1471.2161"/><line style="stroke:#000000;stroke-width:0.5;" x1="5" x2="1337.4302" y1="1471.2161" y2="1471.2161"/><line style="stroke:#000000;stroke-width:0.5;" x1="5" x2="1337.4302" y1="1474.2161" y2="1474.2161"/><rect fill="#FFFFFF" height="23.7993" style="stroke:#000000;stroke-width:1;" width="149.6113" x="596.4094" y="1460.3164"/><text fill="#000000" font-family="Verdana" font-size="13" font-weight="bold" lengthAdjust="spacing" textLength="131.168" x="602.4094" y="1477.3862">Connection Ready</text><path d="M385,1499.1157 L385,1556.1157 L1179,1556.1157 L1179,1509.1157 L1169,1499.1157 L385,1499.1157" fill="#FFFFFF" style="stroke:#000000;stroke-width:1;"/><path d="M1169,1499.1157 L1169,1509.1157 L1179,1509.1157 L1169,1499.1157" fill="#FFFFFF" style="stroke:#000000;stroke-width:1;"/><text fill="#000000" font-family="Verdana" font-size="13" lengthAdjust="spacing" textLength="187.4019" x="644.8997" y="1517.1855">QUIC connection established</text><text fill="#000000" font-family="Verdana" font-size="13" lengthAdjust="spacing" textLength="188.5698" x="644.8997" y="1532.9849">Ready for HTTP/3 operations</text><text fill="#000000" font-family="Verdana" font-size="13" lengthAdjust="spacing" textLength="265.8018" x="644.8997" y="1548.7842">Can create streams and send datagrams</text><g class="message" data-participant-1="ClientConn" data-participant-2="ClientConn"><line style="stroke:#000000;stroke-width:1;" x1="444.6646" x2="486.6646" y1="1583.313" y2="1583.313"/><line style="stroke:#000000;stroke-width:1;" x1="486.6646" x2="486.6646" y1="1583.313" y2="1596.313"/><line style="stroke:#000000;stroke-width:1;" x1="445.6646" x2="486.6646" y1="1596.313" y2="1596.313"/><polygon fill="#000000" points="455.6646,1592.313,445.6646,1596.313,455.6646,1600.313,451.6646,1596.313" style="stroke:#000000;stroke-width:1;"/><text fill="#000000" font-family="Verdana" font-size="13" lengthAdjust="spacing" textLength="40.3838" x="451.6646" y="1578.5835">Ready</text><text fill="#000000" font-family="Verdana" font-size="13" lengthAdjust="spacing" textLength="4.5703" x="492.0483" y="1578.5835">&#160;</text><text fill="#000000" font-family="Verdana" font-size="13" lengthAdjust="spacing" textLength="18.0083" x="496.6187" y="1578.5835">for</text><text fill="#000000" font-family="Verdana" font-size="13" lengthAdjust="spacing" textLength="4.5703" x="514.627" y="1578.5835">&#160;</text><text fill="#000000" font-family="Verdana" font-size="13" lengthAdjust="spacing" textLength="52.4126" x="519.1973" y="1578.5835">streams</text></g><g class="message" data-participant-1="ServerConn" data-participant-2="ServerConn"><line style="stroke:#000000;stroke-width:1;" x1="1131.9258" x2="1173.9258" y1="1626.1123" y2="1626.1123"/><line style="stroke:#000000;stroke-width:1;" x1="1173.9258" x2="1173.9258" y1="1626.1123" y2="1639.1123"/><line style="stroke:#000000;stroke-width:1;" x1="1132.9258" x2="1173.9258" y1="1639.1123" y2="1639.1123"/><polygon fill="#000000" points="1142.9258,1635.1123,1132.9258,1639.1123,1142.9258,1643.1123,1138.9258,1639.1123" style="stroke:#000000;stroke-width:1;"/><text fill="#000000" font-family="Verdana" font-size="13" lengthAdjust="spacing" textLength="40.3838" x="1138.9258" y="1621.3828">Ready</text><text fill="#000000" font-family="Verdana" font-size="13" lengthAdjust="spacing" textLength="4.5703" x="1179.3096" y="1621.3828">&#160;</text><text fill="#000000" font-family="Verdana" font-size="13" lengthAdjust="spacing" textLength="18.0083" x="1183.8799" y="1621.3828">for</text><text fill="#000000" font-family="Verdana" font-size="13" lengthAdjust="spacing" textLength="4.5703" x="1201.8882" y="1621.3828">&#160;</text><text fill="#000000" font-family="Verdana" font-size="13" lengthAdjust="spacing" textLength="52.4126" x="1206.4585" y="1621.3828">streams</text></g><!--SRC=[bLRTRjis5BxNKvpboivIjsdI5J2G0O5YhCPSnOsTzaP0mCZ75XUQr4ZcnxlgQ-nkwAliJVeaEwGaYvAJD8C1Go8FptT-llDHFzaSrmY5O5n6veRBWccs1eD_tgBCy2CQmrPuAlXAGeRIeWwirkoXCfZnln0Etxs98ikjGFXqEOuXLb9YPhcIC3AMNGjkyZNvW6dE34OHowpIi1SBxXPFYs8Fc87obTuY0h4yumMZtSegbUJKQYK4wi0wjbgqpLq0thYA89MzqhGV7gFjzh44xRtIDzw6djkRCzHtg5CvuSQYh08e5ztI3mCeJVl1iTq0QenEcfMvIpCwEGahEvRSSkOVJqwYQ5izUFLhK1mOGgoHMVo2rtFDf2cKjkLsptZV1-2M3e3TsbnfRZUqm6pUhrrwBurF2i3vtCPnNg3izLrB-Ht1X0MMYjurN-Ls6mLaJG8vamk1gPoXXOm9SSsocs5mlZIBgvsoClXW0vEgKDj8NMpTI6UMO8SmFfkCuDzltx_-y_thtn2V9yaede-Jtpf1Dj4PTuw8dkLS8bXNEkuskc14bjP1mjEsjrVMTky0Ze-FZ_fjbAfprR0q5HccybNLy248HJN9bR6l3z- -7xoXtw7RdbAlXjwfUpjTB3JD8IpPcelD42wJsNGKUwQKVk02C-HtQCBK75rSs1HzGs8VLwRMNAx29ccd1qHndu1o7ik4By-cH9Fi1grnvfPKX4wcqgTK9YXgWoWAOBgWa_5iFaf65rUZpwDaVfMClbpLtJbFIbY1IszPJT-MBDGLlbgXnaKgxxdDGU9z63kNI_KuTitY7Kwgwp_egM5pCArXAAV2jOVUopO77b8P4EvPSA9zpUqFVX9qhzy2QSs56vFwy9E3iJNP3iPpoJUKHSVc9L_TQgyddJX8KyGcoBGnz8ITJsPqGP2IBRahYQVbP9f0ePLLcHB6izfIgTSW-9exFX0_FL5SuYPdDmXJhJB7v82R9T4wTZzxlCF1qGuZz_SRgvd5mWptzrDvE83Fg8thhSILgXGpbMy77PO2FcIaI2jAu6XGWtYDyYvJUKohjO22lmQHBiNWsBi1n4qTu8u9lgZGVXd0xxY11Mf7Ax_qVX1aHNDN22pbfQtos_iJ5s5jscAydPTgYAg5qLbRTtRmCBodQDJPOlCIBMtKSqTHkv2p9rGqbLRLKqEPUR5z0hgwn9euiIb96ooXzYutNevA_gTIBS7SPevPoriHZ6b705zOo6eWNbR7mFFEw3zp9tMm_by17yNySG4hhCVhvqMr_58BwzUcwONBsHEq6SkccmVjz3lNNXXFAajFI_e-_32VJryVWIgmL1iIafZHnsWfsiOhYW7g1MaJ_T6iiHLDfNcMmetxoi5pVTer_Wy0]--></g></svg>