<svg xmlns="http://www.w3.org/2000/svg" xmlns:xlink="http://www.w3.org/1999/xlink" contentStyleType="text/css" data-diagram-type="SEQUENCE" height="1504px" preserveAspectRatio="none" style="width:1073px;height:1504px;background:#FFFFFF;" version="1.1" viewBox="0 0 1073 1504" width="1073px" zoomAndPan="magnify"><defs/><g><g><title>User</title><rect fill="#000000" fill-opacity="0.00000" height="1339.7109" width="8" x="18.7793" y="82.6094"/><line style="stroke:#181818;stroke-width:0.5;stroke-dasharray:5,5;" x1="22" x2="22" y1="82.6094" y2="1422.3203"/></g><g><title>ClientApp</title><rect fill="#000000" fill-opacity="0.00000" height="1339.7109" width="8" x="148.9883" y="82.6094"/><line style="stroke:#181818;stroke-width:0.5;stroke-dasharray:5,5;" x1="152.6367" x2="152.6367" y1="82.6094" y2="1422.3203"/></g><g><title>MsQuic .Client.</title><rect fill="#000000" fill-opacity="0.00000" height="1339.7109" width="8" x="521.6079" y="82.6094"/><line style="stroke:#181818;stroke-width:0.5;stroke-dasharray:5,5;" x1="525.3804" x2="525.3804" y1="82.6094" y2="1422.3203"/></g><g><title>ServerApp</title><rect fill="#000000" fill-opacity="0.00000" height="1339.7109" width="8" x="626.9077" y="82.6094"/><line style="stroke:#181818;stroke-width:0.5;stroke-dasharray:5,5;" x1="630.8354" x2="630.8354" y1="82.6094" y2="1422.3203"/></g><g><title>MsQuic .Server.</title><rect fill="#000000" fill-opacity="0.00000" height="1339.7109" width="8" x="999.8257" y="82.6094"/><line style="stroke:#181818;stroke-width:0.5;stroke-dasharray:5,5;" x1="1002.8774" x2="1002.8774" y1="82.6094" y2="1422.3203"/></g><g class="participant participant-head" data-participant="User"><text fill="#000000" font-family="sans-serif" font-size="14" lengthAdjust="spacing" textLength="29.5586" x="5" y="79.5332">User</text><ellipse cx="22.7793" cy="13.5" fill="#E2E2F0" rx="8" ry="8" style="stroke:#181818;stroke-width:0.5;"/><path d="M22.7793,21.5 L22.7793,48.5 M9.7793,29.5 L35.7793,29.5 M22.7793,48.5 L9.7793,63.5 M22.7793,48.5 L35.7793,63.5" fill="none" style="stroke:#181818;stroke-width:0.5;"/></g><g class="participant participant-tail" data-participant="User"><text fill="#000000" font-family="sans-serif" font-size="14" lengthAdjust="spacing" textLength="29.5586" x="5" y="1435.8535">User</text><ellipse cx="22.7793" cy="1447.4297" fill="#E2E2F0" rx="8" ry="8" style="stroke:#181818;stroke-width:0.5;"/><path d="M22.7793,1455.4297 L22.7793,1482.4297 M9.7793,1463.4297 L35.7793,1463.4297 M22.7793,1482.4297 L9.7793,1497.4297 M22.7793,1482.4297 L35.7793,1497.4297" fill="none" style="stroke:#181818;stroke-width:0.5;"/></g><g class="participant participant-head" data-participant="Client"><rect fill="#E2E2F0" height="31.6094" rx="2.5" ry="2.5" style="stroke:#181818;stroke-width:0.5;" width="74.7031" x="115.6367" y="50"/><text fill="#000000" font-family="sans-serif" font-size="14" lengthAdjust="spacing" textLength="60.7031" x="122.6367" y="71.5332">ClientApp</text></g><g class="participant participant-tail" data-participant="Client"><rect fill="#E2E2F0" height="31.6094" rx="2.5" ry="2.5" style="stroke:#181818;stroke-width:0.5;" width="74.7031" x="115.6367" y="1421.3203"/><text fill="#000000" font-family="sans-serif" font-size="14" lengthAdjust="spacing" textLength="60.7031" x="122.6367" y="1442.8535">ClientApp</text></g><g class="participant participant-head" data-participant="MsQuicClient"><rect fill="#E2E2F0" height="31.6094" rx="2.5" ry="2.5" style="stroke:#181818;stroke-width:0.5;" width="110.4551" x="470.3804" y="50"/><text fill="#000000" font-family="sans-serif" font-size="14" lengthAdjust="spacing" textLength="96.4551" x="477.3804" y="71.5332">MsQuic (Client)</text></g><g class="participant participant-tail" data-participant="MsQuicClient"><rect fill="#E2E2F0" height="31.6094" rx="2.5" ry="2.5" style="stroke:#181818;stroke-width:0.5;" width="110.4551" x="470.3804" y="1421.3203"/><text fill="#000000" font-family="sans-serif" font-size="14" lengthAdjust="spacing" textLength="96.4551" x="477.3804" y="1442.8535">MsQuic (Client)</text></g><g class="participant participant-head" data-participant="Server"><rect fill="#E2E2F0" height="31.6094" rx="2.5" ry="2.5" style="stroke:#181818;stroke-width:0.5;" width="80.1445" x="590.8354" y="50"/><text fill="#000000" font-family="sans-serif" font-size="14" lengthAdjust="spacing" textLength="66.1445" x="597.8354" y="71.5332">ServerApp</text></g><g class="participant participant-tail" data-participant="Server"><rect fill="#E2E2F0" height="31.6094" rx="2.5" ry="2.5" style="stroke:#181818;stroke-width:0.5;" width="80.1445" x="590.8354" y="1421.3203"/><text fill="#000000" font-family="sans-serif" font-size="14" lengthAdjust="spacing" textLength="66.1445" x="597.8354" y="1442.8535">ServerApp</text></g><g class="participant participant-head" data-participant="MsQuicServer"><rect fill="#E2E2F0" height="31.6094" rx="2.5" ry="2.5" style="stroke:#181818;stroke-width:0.5;" width="115.8965" x="945.8774" y="50"/><text fill="#000000" font-family="sans-serif" font-size="14" lengthAdjust="spacing" textLength="101.8965" x="952.8774" y="71.5332">MsQuic (Server)</text></g><g class="participant participant-tail" data-participant="MsQuicServer"><rect fill="#E2E2F0" height="31.6094" rx="2.5" ry="2.5" style="stroke:#181818;stroke-width:0.5;" width="115.8965" x="945.8774" y="1421.3203"/><text fill="#000000" font-family="sans-serif" font-size="14" lengthAdjust="spacing" textLength="101.8965" x="952.8774" y="1442.8535">MsQuic (Server)</text></g><rect fill="#EEEEEE" height="3" style="stroke:#EEEEEE;stroke-width:1;" width="1066.7739" x="0" y="113.7852"/><line style="stroke:#000000;stroke-width:1;" x1="0" x2="1066.7739" y1="113.7852" y2="113.7852"/><line style="stroke:#000000;stroke-width:1;" x1="0" x2="1066.7739" y1="116.7852" y2="116.7852"/><rect fill="#EEEEEE" height="24.3516" style="stroke:#000000;stroke-width:2;" width="92.7236" x="487.0251" y="102.6094"/><text fill="#000000" font-family="sans-serif" font-size="13" font-weight="bold" lengthAdjust="spacing" textLength="75.1118" x="493.0251" y="120.1045">Initialization</text><g class="message" data-participant-1="User" data-participant-2="Client"><polygon fill="#181818" points="140.9883,155.3125,150.9883,159.3125,140.9883,163.3125,144.9883,159.3125" style="stroke:#181818;stroke-width:1;"/><line style="stroke:#181818;stroke-width:1;" x1="22.7793" x2="146.9883" y1="159.3125" y2="159.3125"/><text fill="#000000" font-family="sans-serif" font-size="13" lengthAdjust="spacing" textLength="76.6099" x="29.7793" y="154.4561">Launch client</text></g><g class="message" data-participant-1="Client" data-participant-2="MsQuicClient"><polygon fill="#181818" points="513.6079,185.6641,523.6079,189.6641,513.6079,193.6641,517.6079,189.6641" style="stroke:#181818;stroke-width:1;"/><line style="stroke:#181818;stroke-width:1;" x1="152.9883" x2="519.6079" y1="189.6641" y2="189.6641"/><text fill="#000000" font-family="sans-serif" font-size="13" lengthAdjust="spacing" textLength="91.749" x="159.9883" y="184.8076">MsQuicOpen2()</text></g><g class="message" data-participant-1="Client" data-participant-2="MsQuicClient"><polygon fill="#181818" points="513.6079,216.0156,523.6079,220.0156,513.6079,224.0156,517.6079,220.0156" style="stroke:#181818;stroke-width:1;"/><line style="stroke:#181818;stroke-width:1;" x1="152.9883" x2="519.6079" y1="220.0156" y2="220.0156"/><text fill="#000000" font-family="sans-serif" font-size="13" lengthAdjust="spacing" textLength="109.8271" x="159.9883" y="215.1592">RegistrationOpen()</text></g><g class="message" data-participant-1="Client" data-participant-2="MsQuicClient"><polygon fill="#181818" points="513.6079,246.3672,523.6079,250.3672,513.6079,254.3672,517.6079,250.3672" style="stroke:#181818;stroke-width:1;"/><line style="stroke:#181818;stroke-width:1;" x1="152.9883" x2="519.6079" y1="250.3672" y2="250.3672"/><text fill="#000000" font-family="sans-serif" font-size="13" lengthAdjust="spacing" textLength="117.7871" x="159.9883" y="245.5107">ConfigurationOpen()</text></g><g class="message" data-participant-1="Client" data-participant-2="MsQuicClient"><polygon fill="#181818" points="513.6079,276.7188,523.6079,280.7188,513.6079,284.7188,517.6079,280.7188" style="stroke:#181818;stroke-width:1;"/><line style="stroke:#181818;stroke-width:1;" x1="152.9883" x2="519.6079" y1="280.7188" y2="280.7188"/><text fill="#000000" font-family="sans-serif" font-size="13" lengthAdjust="spacing" textLength="174.1606" x="159.9883" y="275.8623">ConfigurationLoadCredential()</text></g><g class="message" data-participant-1="Client" data-participant-2="MsQuicClient"><polygon fill="#181818" points="513.6079,307.0703,523.6079,311.0703,513.6079,315.0703,517.6079,311.0703" style="stroke:#181818;stroke-width:1;"/><line style="stroke:#181818;stroke-width:1;" x1="152.9883" x2="519.6079" y1="311.0703" y2="311.0703"/><text fill="#000000" font-family="sans-serif" font-size="13" lengthAdjust="spacing" textLength="106.228" x="159.9883" y="306.2139">ConnectionOpen()</text></g><g class="message" data-participant-1="Client" data-participant-2="MsQuicClient"><polygon fill="#181818" points="513.6079,337.4219,523.6079,341.4219,513.6079,345.4219,517.6079,341.4219" style="stroke:#181818;stroke-width:1;"/><line style="stroke:#181818;stroke-width:1;" x1="152.9883" x2="519.6079" y1="341.4219" y2="341.4219"/><text fill="#000000" font-family="sans-serif" font-size="13" lengthAdjust="spacing" textLength="240.4683" x="159.9883" y="336.5654">ConnectionStart("quic.bmobile.biz", 4443)</text></g><rect fill="#EEEEEE" height="3" style="stroke:#EEEEEE;stroke-width:1;" width="1066.7739" x="0" y="370.5977"/><line style="stroke:#000000;stroke-width:1;" x1="0" x2="1066.7739" y1="370.5977" y2="370.5977"/><line style="stroke:#000000;stroke-width:1;" x1="0" x2="1066.7739" y1="373.5977" y2="373.5977"/><rect fill="#EEEEEE" height="24.3516" style="stroke:#000000;stroke-width:2;" width="165.3408" x="450.7166" y="359.4219"/><text fill="#000000" font-family="sans-serif" font-size="13" font-weight="bold" lengthAdjust="spacing" textLength="147.729" x="456.7166" y="376.917">TLS + ALPN Handshake</text><g class="message" data-participant-1="MsQuicClient" data-participant-2="MsQuicServer"><polygon fill="#181818" points="991.8257,412.125,1001.8257,416.125,991.8257,420.125,995.8257,416.125" style="stroke:#181818;stroke-width:1;"/><line style="stroke:#181818;stroke-width:1;" x1="525.6079" x2="997.8257" y1="416.125" y2="416.125"/><text fill="#000000" font-family="sans-serif" font-size="13" lengthAdjust="spacing" textLength="141.6353" x="532.6079" y="411.2686">Initiate QUIC handshake</text></g><g class="message" data-participant-1="MsQuicServer" data-participant-2="Server"><polygon fill="#181818" points="641.9077,442.4766,631.9077,446.4766,641.9077,450.4766,637.9077,446.4766" style="stroke:#181818;stroke-width:1;"/><line style="stroke:#181818;stroke-width:1;" x1="635.9077" x2="1002.8257" y1="446.4766" y2="446.4766"/><text fill="#000000" font-family="sans-serif" font-size="13" lengthAdjust="spacing" textLength="267.2554" x="647.9077" y="441.6201">QUIC_CONNECTION_EVENT_CONNECTED</text></g><rect fill="#EEEEEE" height="3" style="stroke:#EEEEEE;stroke-width:1;" width="1066.7739" x="0" y="475.6523"/><line style="stroke:#000000;stroke-width:1;" x1="0" x2="1066.7739" y1="475.6523" y2="475.6523"/><line style="stroke:#000000;stroke-width:1;" x1="0" x2="1066.7739" y1="478.6523" y2="478.6523"/><rect fill="#EEEEEE" height="24.3516" style="stroke:#000000;stroke-width:2;" width="203.9854" x="431.3943" y="464.4766"/><text fill="#000000" font-family="sans-serif" font-size="13" font-weight="bold" lengthAdjust="spacing" textLength="186.3735" x="437.3943" y="481.9717">Control Stream Setup (Server)</text><g class="message" data-participant-1="Server" data-participant-2="MsQuicServer"><polygon fill="#181818" points="991.8257,517.1797,1001.8257,521.1797,991.8257,525.1797,995.8257,521.1797" style="stroke:#181818;stroke-width:1;"/><line style="stroke:#181818;stroke-width:1;" x1="630.9077" x2="997.8257" y1="521.1797" y2="521.1797"/><text fill="#000000" font-family="sans-serif" font-size="13" lengthAdjust="spacing" textLength="162.5762" x="637.9077" y="516.3232">StreamOpen (unidirectional)</text></g><g class="message" data-participant-1="Server" data-participant-2="MsQuicServer"><polygon fill="#181818" points="991.8257,547.5313,1001.8257,551.5313,991.8257,555.5313,995.8257,551.5313" style="stroke:#181818;stroke-width:1;"/><line style="stroke:#181818;stroke-width:1;" x1="630.9077" x2="997.8257" y1="551.5313" y2="551.5313"/><text fill="#000000" font-family="sans-serif" font-size="13" lengthAdjust="spacing" textLength="69.3545" x="637.9077" y="546.6748">StreamStart</text></g><g class="message" data-participant-1="Server" data-participant-2="MsQuicServer"><polygon fill="#181818" points="991.8257,577.8828,1001.8257,581.8828,991.8257,585.8828,995.8257,581.8828" style="stroke:#181818;stroke-width:1;"/><line style="stroke:#181818;stroke-width:1;" x1="630.9077" x2="997.8257" y1="581.8828" y2="581.8828"/><text fill="#000000" font-family="sans-serif" font-size="13" lengthAdjust="spacing" textLength="323.6479" x="637.9077" y="577.0264">StreamSend [SETTINGS_ENABLE_WEBTRANSPORT]</text></g><rect fill="#EEEEEE" height="3" style="stroke:#EEEEEE;stroke-width:1;" width="1066.7739" x="0" y="611.0586"/><line style="stroke:#000000;stroke-width:1;" x1="0" x2="1066.7739" y1="611.0586" y2="611.0586"/><line style="stroke:#000000;stroke-width:1;" x1="0" x2="1066.7739" y1="614.0586" y2="614.0586"/><rect fill="#EEEEEE" height="24.3516" style="stroke:#000000;stroke-width:2;" width="276.8945" x="394.9397" y="599.8828"/><text fill="#000000" font-family="sans-serif" font-size="13" font-weight="bold" lengthAdjust="spacing" textLength="259.2827" x="400.9397" y="617.3779">WebTransport CONNECT Request (Client)</text><g class="message" data-participant-1="Client" data-participant-2="MsQuicClient"><polygon fill="#181818" points="513.6079,652.5859,523.6079,656.5859,513.6079,660.5859,517.6079,656.5859" style="stroke:#181818;stroke-width:1;"/><line style="stroke:#181818;stroke-width:1;" x1="152.9883" x2="519.6079" y1="656.5859" y2="656.5859"/><text fill="#000000" font-family="sans-serif" font-size="13" lengthAdjust="spacing" textLength="106.209" x="159.9883" y="651.7295">StreamOpen (bidi)</text></g><g class="message" data-participant-1="Client" data-participant-2="MsQuicClient"><polygon fill="#181818" points="513.6079,682.9375,523.6079,686.9375,513.6079,690.9375,517.6079,686.9375" style="stroke:#181818;stroke-width:1;"/><line style="stroke:#181818;stroke-width:1;" x1="152.9883" x2="519.6079" y1="686.9375" y2="686.9375"/><text fill="#000000" font-family="sans-serif" font-size="13" lengthAdjust="spacing" textLength="69.3545" x="159.9883" y="682.0811">StreamStart</text></g><g class="message" data-participant-1="Client" data-participant-2="MsQuicClient"><polygon fill="#181818" points="513.6079,713.2891,523.6079,717.2891,513.6079,721.2891,517.6079,717.2891" style="stroke:#181818;stroke-width:1;"/><line style="stroke:#181818;stroke-width:1;" x1="152.9883" x2="519.6079" y1="717.2891" y2="717.2891"/><text fill="#000000" font-family="sans-serif" font-size="13" lengthAdjust="spacing" textLength="348.6196" x="159.9883" y="712.4326">StreamSend [:method: CONNECT + :protocol: webtransport]</text></g><g class="message" data-participant-1="MsQuicClient" data-participant-2="MsQuicServer"><polygon fill="#181818" points="991.8257,743.6406,1001.8257,747.6406,991.8257,751.6406,995.8257,747.6406" style="stroke:#181818;stroke-width:1;"/><line style="stroke:#181818;stroke-width:1;" x1="525.6079" x2="997.8257" y1="747.6406" y2="747.6406"/><text fill="#000000" font-family="sans-serif" font-size="13" lengthAdjust="spacing" textLength="145.2217" x="532.6079" y="742.7842">Send CONNECT request</text></g><g class="message" data-participant-1="MsQuicServer" data-participant-2="Server"><polygon fill="#181818" points="641.9077,773.9922,631.9077,777.9922,641.9077,781.9922,637.9077,777.9922" style="stroke:#181818;stroke-width:1;"/><line style="stroke:#181818;stroke-width:1;" x1="635.9077" x2="1002.8257" y1="777.9922" y2="777.9922"/><text fill="#000000" font-family="sans-serif" font-size="13" lengthAdjust="spacing" textLength="348.918" x="647.9077" y="773.1357">QUIC_STREAM_EVENT_RECEIVE [:method: CONNECT...]</text></g><g class="message" data-participant-1="Server" data-participant-2="Server"><line style="stroke:#181818;stroke-width:1;" x1="630.9077" x2="672.9077" y1="808.3438" y2="808.3438"/><line style="stroke:#181818;stroke-width:1;" x1="672.9077" x2="672.9077" y1="808.3438" y2="821.3438"/><line style="stroke:#181818;stroke-width:1;" x1="631.9077" x2="672.9077" y1="821.3438" y2="821.3438"/><polygon fill="#181818" points="641.9077,817.3438,631.9077,821.3438,641.9077,825.3438,637.9077,821.3438" style="stroke:#181818;stroke-width:1;"/><text fill="#000000" font-family="sans-serif" font-size="13" lengthAdjust="spacing" textLength="129.3525" x="637.9077" y="803.4873">Route to Http3Handler</text></g><g class="message" data-participant-1="Server" data-participant-2="Server"><line style="stroke:#181818;stroke-width:1;" x1="630.9077" x2="672.9077" y1="851.6953" y2="851.6953"/><line style="stroke:#181818;stroke-width:1;" x1="672.9077" x2="672.9077" y1="851.6953" y2="864.6953"/><line style="stroke:#181818;stroke-width:1;" x1="631.9077" x2="672.9077" y1="864.6953" y2="864.6953"/><polygon fill="#181818" points="641.9077,860.6953,631.9077,864.6953,641.9077,868.6953,637.9077,864.6953" style="stroke:#181818;stroke-width:1;"/><text fill="#000000" font-family="sans-serif" font-size="13" lengthAdjust="spacing" textLength="165.439" x="637.9077" y="846.8389">EmitSettingsControlStream()</text></g><rect fill="#EEEEEE" height="3" style="stroke:#EEEEEE;stroke-width:1;" width="1066.7739" x="0" y="893.8711"/><line style="stroke:#000000;stroke-width:1;" x1="0" x2="1066.7739" y1="893.8711" y2="893.8711"/><line style="stroke:#000000;stroke-width:1;" x1="0" x2="1066.7739" y1="896.8711" y2="896.8711"/><rect fill="#EEEEEE" height="24.3516" style="stroke:#000000;stroke-width:2;" width="188.0908" x="439.3416" y="882.6953"/><text fill="#000000" font-family="sans-serif" font-size="13" font-weight="bold" lengthAdjust="spacing" textLength="170.479" x="445.3416" y="900.1904">Echo Stream (Bidirectional)</text><g class="message" data-participant-1="User" data-participant-2="Client"><polygon fill="#181818" points="140.9883,935.3984,150.9883,939.3984,140.9883,943.3984,144.9883,939.3984" style="stroke:#181818;stroke-width:1;"/><line style="stroke:#181818;stroke-width:1;" x1="22.7793" x2="146.9883" y1="939.3984" y2="939.3984"/><text fill="#000000" font-family="sans-serif" font-size="13" lengthAdjust="spacing" textLength="101.8926" x="29.7793" y="934.542">Enter text to echo</text></g><g class="message" data-participant-1="Client" data-participant-2="MsQuicClient"><polygon fill="#181818" points="513.6079,965.75,523.6079,969.75,513.6079,973.75,517.6079,969.75" style="stroke:#181818;stroke-width:1;"/><line style="stroke:#181818;stroke-width:1;" x1="152.9883" x2="519.6079" y1="969.75" y2="969.75"/><text fill="#000000" font-family="sans-serif" font-size="13" lengthAdjust="spacing" textLength="106.209" x="159.9883" y="964.8936">StreamOpen (bidi)</text></g><g class="message" data-participant-1="Client" data-participant-2="MsQuicClient"><polygon fill="#181818" points="513.6079,996.1016,523.6079,1000.1016,513.6079,1004.1016,517.6079,1000.1016" style="stroke:#181818;stroke-width:1;"/><line style="stroke:#181818;stroke-width:1;" x1="152.9883" x2="519.6079" y1="1000.1016" y2="1000.1016"/><text fill="#000000" font-family="sans-serif" font-size="13" lengthAdjust="spacing" textLength="69.3545" x="159.9883" y="995.2451">StreamStart</text></g><g class="message" data-participant-1="Client" data-participant-2="MsQuicClient"><polygon fill="#181818" points="513.6079,1026.4531,523.6079,1030.4531,513.6079,1034.4531,517.6079,1030.4531" style="stroke:#181818;stroke-width:1;"/><line style="stroke:#181818;stroke-width:1;" x1="152.9883" x2="519.6079" y1="1030.4531" y2="1030.4531"/><text fill="#000000" font-family="sans-serif" font-size="13" lengthAdjust="spacing" textLength="135.1226" x="159.9883" y="1025.5967">StreamSend(userInput)</text></g><g class="message" data-participant-1="MsQuicClient" data-participant-2="MsQuicServer"><polygon fill="#181818" points="991.8257,1056.8047,1001.8257,1060.8047,991.8257,1064.8047,995.8257,1060.8047" style="stroke:#181818;stroke-width:1;"/><line style="stroke:#181818;stroke-width:1;" x1="525.6079" x2="997.8257" y1="1060.8047" y2="1060.8047"/><text fill="#000000" font-family="sans-serif" font-size="13" lengthAdjust="spacing" textLength="106.9263" x="532.6079" y="1055.9482">Transmit echo text</text></g><g class="message" data-participant-1="MsQuicServer" data-participant-2="Server"><polygon fill="#181818" points="641.9077,1087.1563,631.9077,1091.1563,641.9077,1095.1563,637.9077,1091.1563" style="stroke:#181818;stroke-width:1;"/><line style="stroke:#181818;stroke-width:1;" x1="635.9077" x2="1002.8257" y1="1091.1563" y2="1091.1563"/><text fill="#000000" font-family="sans-serif" font-size="13" lengthAdjust="spacing" textLength="208.7744" x="647.9077" y="1086.2998">QUIC_STREAM_EVENT_RECEIVE</text></g><g class="message" data-participant-1="Server" data-participant-2="Server"><line style="stroke:#181818;stroke-width:1;" x1="630.9077" x2="672.9077" y1="1121.5078" y2="1121.5078"/><line style="stroke:#181818;stroke-width:1;" x1="672.9077" x2="672.9077" y1="1121.5078" y2="1134.5078"/><line style="stroke:#181818;stroke-width:1;" x1="631.9077" x2="672.9077" y1="1134.5078" y2="1134.5078"/><polygon fill="#181818" points="641.9077,1130.5078,631.9077,1134.5078,641.9077,1138.5078,637.9077,1134.5078" style="stroke:#181818;stroke-width:1;"/><text fill="#000000" font-family="sans-serif" font-size="13" lengthAdjust="spacing" textLength="127.9116" x="637.9077" y="1116.6514">Route to EchoHandler</text></g><g class="message" data-participant-1="Server" data-participant-2="MsQuicServer"><polygon fill="#181818" points="991.8257,1160.8594,1001.8257,1164.8594,991.8257,1168.8594,995.8257,1164.8594" style="stroke:#181818;stroke-width:1;"/><line style="stroke:#181818;stroke-width:1;" x1="630.9077" x2="997.8257" y1="1164.8594" y2="1164.8594"/><text fill="#000000" font-family="sans-serif" font-size="13" lengthAdjust="spacing" textLength="196.3901" x="637.9077" y="1160.0029">StreamSend("Echo: &lt;userInput&gt;")</text></g><g class="message" data-participant-1="MsQuicServer" data-participant-2="MsQuicClient"><polygon fill="#181818" points="536.6079,1191.2109,526.6079,1195.2109,536.6079,1199.2109,532.6079,1195.2109" style="stroke:#181818;stroke-width:1;"/><line style="stroke:#181818;stroke-width:1;" x1="530.6079" x2="1002.8257" y1="1195.2109" y2="1195.2109"/><text fill="#000000" font-family="sans-serif" font-size="13" lengthAdjust="spacing" textLength="162.5444" x="542.6079" y="1190.3545">Stream RECEIVE (Echo: ...)</text></g><g class="message" data-participant-1="Client" data-participant-2="Client"><line style="stroke:#181818;stroke-width:1;" x1="152.9883" x2="194.9883" y1="1225.5625" y2="1225.5625"/><line style="stroke:#181818;stroke-width:1;" x1="194.9883" x2="194.9883" y1="1225.5625" y2="1238.5625"/><line style="stroke:#181818;stroke-width:1;" x1="153.9883" x2="194.9883" y1="1238.5625" y2="1238.5625"/><polygon fill="#181818" points="163.9883,1234.5625,153.9883,1238.5625,163.9883,1242.5625,159.9883,1238.5625" style="stroke:#181818;stroke-width:1;"/><text fill="#000000" font-family="sans-serif" font-size="13" lengthAdjust="spacing" textLength="113.4517" x="159.9883" y="1220.7061">Display echoed text</text></g><rect fill="#EEEEEE" height="3" style="stroke:#EEEEEE;stroke-width:1;" width="1066.7739" x="0" y="1267.7383"/><line style="stroke:#000000;stroke-width:1;" x1="0" x2="1066.7739" y1="1267.7383" y2="1267.7383"/><line style="stroke:#000000;stroke-width:1;" x1="0" x2="1066.7739" y1="1270.7383" y2="1270.7383"/><rect fill="#EEEEEE" height="24.3516" style="stroke:#000000;stroke-width:2;" width="80.4282" x="493.1729" y="1256.5625"/><text fill="#000000" font-family="sans-serif" font-size="13" font-weight="bold" lengthAdjust="spacing" textLength="62.8164" x="499.1729" y="1274.0576">Shutdown</text><g class="message" data-participant-1="User" data-participant-2="Client"><polygon fill="#181818" points="140.9883,1309.2656,150.9883,1313.2656,140.9883,1317.2656,144.9883,1313.2656" style="stroke:#181818;stroke-width:1;"/><line style="stroke:#181818;stroke-width:1;" x1="22.7793" x2="146.9883" y1="1313.2656" y2="1313.2656"/><text fill="#000000" font-family="sans-serif" font-size="13" lengthAdjust="spacing" textLength="106.209" x="29.7793" y="1308.4092">Press Enter to exit</text></g><g class="message" data-participant-1="Client" data-participant-2="MsQuicClient"><polygon fill="#181818" points="513.6079,1339.6172,523.6079,1343.6172,513.6079,1347.6172,517.6079,1343.6172" style="stroke:#181818;stroke-width:1;"/><line style="stroke:#181818;stroke-width:1;" x1="152.9883" x2="519.6079" y1="1343.6172" y2="1343.6172"/><text fill="#000000" font-family="sans-serif" font-size="13" lengthAdjust="spacing" textLength="107.6626" x="159.9883" y="1338.7607">ConnectionClose()</text></g><g class="message" data-participant-1="MsQuicClient" data-participant-2="MsQuicServer"><polygon fill="#181818" points="991.8257,1369.9688,1001.8257,1373.9688,991.8257,1377.9688,995.8257,1373.9688" style="stroke:#181818;stroke-width:1;"/><line style="stroke:#181818;stroke-width:1;" x1="525.6079" x2="997.8257" y1="1373.9688" y2="1373.9688"/><text fill="#000000" font-family="sans-serif" font-size="13" lengthAdjust="spacing" textLength="340.209" x="532.6079" y="1369.1123">QUIC_CONNECTION_EVENT_SHUTDOWN_COMPLETE</text></g><g class="message" data-participant-1="MsQuicServer" data-participant-2="Server"><polygon fill="#181818" points="641.9077,1400.3203,631.9077,1404.3203,641.9077,1408.3203,637.9077,1404.3203" style="stroke:#181818;stroke-width:1;"/><line style="stroke:#181818;stroke-width:1;" x1="635.9077" x2="1002.8257" y1="1404.3203" y2="1404.3203"/><text fill="#000000" font-family="sans-serif" font-size="13" lengthAdjust="spacing" textLength="340.209" x="647.9077" y="1399.4639">QUIC_CONNECTION_EVENT_SHUTDOWN_COMPLETE</text></g><!--SRC=[nLLDSzem5BppApISx4dBeU7aAPa1eodC44Em2OSEmyYs2feQoP6VcpI_lh9akvYFECsbHqlxddRVhcGIWP1ebL7PIOa45h6KS41kmYY7OPeYafKVZVtxx25daTae85spW2opP7SRQ9_ANrIMtSp7XMvcez7DBAbkdS40JJa3HXBsIe09ZWQ3JgVWZJxVbGoHWsOavz4UHOPnkQm03RvE-JbFAVzYsTTXIxfZ6KXzNW5-2-iA_eFjyW-0PuB4hgInsbBoMieuZTvvG8dqGGtQwZwftLvu425BQ2zahzrFgD_ltzfwii7CHpTeE5juQ49udEt9Jwhds-XQdr8QvPIE04KFgwcBzbLffm5JPNL1WTkwSy_3RZ2TUrlyYBsWMi1ZJKPH1oaIv8EavA1g8K_h96XMVnkVy34bnMoGbNCMCsbcG1AxhKYFgHL4UOo- -pW8fjutVukzuMY6jsiy2fP3pr_Cby56IrZJC924PwcGwYePTIfCJpdDeBuYMifL0u-bX4g9tGOr0jf0Me1peB0NiLDJkq5EAWM8I2GEUgOXLEGthH7G7Qi-qaXiyTyFbdXuNtg_n2wUFk9pKhrURtDiTTrZANALE11e0f3U5dbDr7Do0OWF35HwWF5TLeRAJC4ogSVHNbGfiqQDj5n-N307jGBq1OhZgIh_7_vPkU8rvMaETgixEeLg39giPlu1RzuqeHZYkGTNRu_LBGeSzBKMSTUjPPpMduX7LLOiqqCbv7YgDNhCiZGXlxLc6XlLXT_-FeTOF5_vSomapRBAOkNk2uFtFAzk8ZAg0jLYnEM7pv-iWl5yxQcT-yKC1_XVNyxp1dy0]--></g></svg>