<svg xmlns="http://www.w3.org/2000/svg" xmlns:xlink="http://www.w3.org/1999/xlink" contentStyleType="text/css" data-diagram-type="ACTIVITY" height="2988px" preserveAspectRatio="none" style="width:814px;height:2988px;background:#FFFFFF;" version="1.1" viewBox="0 0 814 2988" width="814px" zoomAndPan="magnify"><title>WebTransport Error Handling Scenarios</title><defs/><g><g class="title" data-source-line="8"><text fill="#000000" font-family="Verdana" font-size="22" font-weight="bold" lengthAdjust="spacing" textLength="491.541" x="160.0864" y="37.1182">WebTransport Error Handling Scenarios</text></g><ellipse cx="398.3389" cy="62.7373" fill="#FFFFFF" rx="10" ry="10" style="stroke:#000000;stroke-width:1;"/><rect fill="#FFFFFF" height="324.8037" style="stroke:#000000;stroke-width:1;" width="483.0059" x="299.4014" y="82.7373"/><path d="M496.6992,82.7373 L496.6992,92.752 L486.6992,102.752 L299.4014,102.752" fill="none" style="stroke:#000000;stroke-width:1;"/><text fill="#000000" font-family="Verdana" font-size="14" font-weight="bold" lengthAdjust="spacing" textLength="187.2979" x="302.4014" y="97.8125">Connection Level Errors</text><path d="M497.0781,112.752 L497.0781,200.6482 L477.0781,204.6482 L497.0781,208.6482 L497.0781,296.5444 A0,0 0 0 0 497.0781,296.5444 L710.3105,296.5444 A0,0 0 0 0 710.3105,296.5444 L710.3105,122.752 L700.3105,112.752 L497.0781,112.752 A0,0 0 0 0 497.0781,112.752" fill="#FFFFFF" style="stroke:#000000;stroke-width:1;"/><path d="M700.3105,112.752 L700.3105,122.752 L710.3105,122.752 L700.3105,112.752" fill="#FFFFFF" style="stroke:#000000;stroke-width:1;"/><text fill="#000000" font-family="Verdana" font-size="13" font-weight="bold" lengthAdjust="spacing" textLength="175.7539" x="503.0781" y="130.8218">Connection Error Types:</text><text fill="#000000" font-family="Verdana" font-size="13" lengthAdjust="spacing" textLength="129.6699" x="503.0781" y="146.6211">- Protocol violations</text><text fill="#000000" font-family="Verdana" font-size="13" lengthAdjust="spacing" textLength="162.1572" x="503.0781" y="162.4204">- TLS handshake failures</text><text fill="#000000" font-family="Verdana" font-size="13" lengthAdjust="spacing" textLength="189.3188" x="503.0781" y="178.2197">- Version negotiation failures</text><text fill="#000000" font-family="Verdana" font-size="13" lengthAdjust="spacing" textLength="192.2324" x="503.0781" y="194.019">- Network connectivity issues</text><text fill="#000000" font-family="Verdana" font-size="13" lengthAdjust="spacing" textLength="4.5703" x="503.0781" y="209.8184">&#160;</text><text fill="#000000" font-family="Verdana" font-size="13" font-weight="bold" lengthAdjust="spacing" textLength="57.4272" x="503.0781" y="225.6177">Impact:</text><text fill="#000000" font-family="Verdana" font-size="13" lengthAdjust="spacing" textLength="159.6753" x="503.0781" y="241.417">- All streams terminated</text><text fill="#000000" font-family="Verdana" font-size="13" lengthAdjust="spacing" textLength="128.6987" x="503.0781" y="257.2163">- All datagrams lost</text><text fill="#000000" font-family="Verdana" font-size="13" lengthAdjust="spacing" textLength="166.6069" x="503.0781" y="273.0156">- Session completely fails</text><text fill="#000000" font-family="Verdana" font-size="13" lengthAdjust="spacing" textLength="153.7339" x="503.0781" y="288.8149">- Client must reconnect</text><rect fill="#FFB6C1" height="34.584" rx="12.5" ry="12.5" style="stroke:#000000;stroke-width:1;" width="157.4785" x="319.5996" y="187.3562"/><text fill="#000000" font-family="Verdana" font-size="12" lengthAdjust="spacing" textLength="137.4785" x="329.5996" y="209.4207">QUIC Connection Error</text><path d="M507.2764,306.5444 L507.2764,347.0427 L487.2764,351.0427 L507.2764,355.0427 L507.2764,395.541 A0,0 0 0 0 507.2764,395.541 L772.4072,395.541 A0,0 0 0 0 772.4072,395.541 L772.4072,316.5444 L762.4072,306.5444 L507.2764,306.5444 A0,0 0 0 0 507.2764,306.5444" fill="#FFFFFF" style="stroke:#000000;stroke-width:1;"/><path d="M762.4072,306.5444 L762.4072,316.5444 L772.4072,316.5444 L762.4072,306.5444" fill="#FFFFFF" style="stroke:#000000;stroke-width:1;"/><text fill="#000000" font-family="Verdana" font-size="13" font-weight="bold" lengthAdjust="spacing" textLength="114.2451" x="513.2764" y="324.6143">Error Recovery:</text><text fill="#000000" font-family="Verdana" font-size="13" lengthAdjust="spacing" textLength="192.8101" x="513.2764" y="340.4136">- Log connection error details</text><text fill="#000000" font-family="Verdana" font-size="13" lengthAdjust="spacing" textLength="176.7632" x="513.2764" y="356.2129">- Clean up all session state</text><text fill="#000000" font-family="Verdana" font-size="13" lengthAdjust="spacing" textLength="186.7734" x="513.2764" y="372.0122">- Notify application of failure</text><text fill="#000000" font-family="Verdana" font-size="13" lengthAdjust="spacing" textLength="244.1309" x="513.2764" y="387.8115">- Attempt reconnection if appropriate</text><rect fill="#FFB6C1" height="34.584" rx="12.5" ry="12.5" style="stroke:#000000;stroke-width:1;" width="177.875" x="309.4014" y="333.7507"/><text fill="#000000" font-family="Verdana" font-size="12" lengthAdjust="spacing" textLength="157.875" x="319.4014" y="355.8152">Handle Connection Failure</text><rect fill="#FFFFFF" height="388.001" style="stroke:#000000;stroke-width:1;" width="442.0742" x="312.5293" y="417.541"/><path d="M506.5869,417.541 L506.5869,427.5557 L496.5869,437.5557 L312.5293,437.5557" fill="none" style="stroke:#000000;stroke-width:1;"/><text fill="#000000" font-family="Verdana" font-size="14" font-weight="bold" lengthAdjust="spacing" textLength="184.0576" x="315.5293" y="432.6162">HTTP/3 Protocol Errors</text><path d="M494.1484,447.5557 L494.1484,527.5522 L474.1484,531.5522 L494.1484,535.5522 L494.1484,615.5488 A0,0 0 0 0 494.1484,615.5488 L744.6035,615.5488 A0,0 0 0 0 744.6035,615.5488 L744.6035,457.5557 L734.6035,447.5557 L494.1484,447.5557 A0,0 0 0 0 494.1484,447.5557" fill="#FFFFFF" style="stroke:#000000;stroke-width:1;"/><path d="M734.6035,447.5557 L734.6035,457.5557 L744.6035,457.5557 L734.6035,447.5557" fill="#FFFFFF" style="stroke:#000000;stroke-width:1;"/><text fill="#000000" font-family="Verdana" font-size="13" font-weight="bold" lengthAdjust="spacing" textLength="140.0547" x="500.1484" y="465.6255">Frame Error Types:</text><text fill="#000000" font-family="Verdana" font-size="13" lengthAdjust="spacing" textLength="178.6992" x="500.1484" y="481.4248">- Malformed frame headers</text><text fill="#000000" font-family="Verdana" font-size="13" lengthAdjust="spacing" textLength="170.4663" x="500.1484" y="497.2241">- Invalid frame sequences</text><text fill="#000000" font-family="Verdana" font-size="13" lengthAdjust="spacing" textLength="176.7061" x="500.1484" y="513.0234">- Unsupported frame types</text><text fill="#000000" font-family="Verdana" font-size="13" lengthAdjust="spacing" textLength="162.335" x="500.1484" y="528.8228">- QPACK encoding errors</text><text fill="#000000" font-family="Verdana" font-size="13" lengthAdjust="spacing" textLength="4.5703" x="500.1484" y="544.6221">&#160;</text><text fill="#000000" font-family="Verdana" font-size="13" font-weight="bold" lengthAdjust="spacing" textLength="72.6108" x="500.1484" y="560.4214">Recovery:</text><text fill="#000000" font-family="Verdana" font-size="13" lengthAdjust="spacing" textLength="207.6572" x="500.1484" y="576.2207">- Send HTTP/3 connection error</text><text fill="#000000" font-family="Verdana" font-size="13" lengthAdjust="spacing" textLength="172.9038" x="500.1484" y="592.02">- Close HTTP/3 connection</text><text fill="#000000" font-family="Verdana" font-size="13" lengthAdjust="spacing" textLength="229.4551" x="500.1484" y="607.8193">- May allow QUIC connection reuse</text><rect fill="#FFB6C1" height="34.584" rx="12.5" ry="12.5" style="stroke:#000000;stroke-width:1;" width="151.6191" x="322.5293" y="514.2603"/><text fill="#000000" font-family="Verdana" font-size="12" lengthAdjust="spacing" textLength="131.6191" x="332.5293" y="536.3247">Invalid HTTP/3 Frame</text><path d="M491.7754,625.5488 L491.7754,705.5454 L471.7754,709.5454 L491.7754,713.5454 L491.7754,793.542 A0,0 0 0 0 491.7754,793.542 L715.8433,793.542 A0,0 0 0 0 715.8433,793.542 L715.8433,635.5488 L705.8433,625.5488 L491.7754,625.5488 A0,0 0 0 0 491.7754,625.5488" fill="#FFFFFF" style="stroke:#000000;stroke-width:1;"/><path d="M705.8433,625.5488 L705.8433,635.5488 L715.8433,635.5488 L705.8433,625.5488" fill="#FFFFFF" style="stroke:#000000;stroke-width:1;"/><text fill="#000000" font-family="Verdana" font-size="13" font-weight="bold" lengthAdjust="spacing" textLength="146.7578" x="497.7754" y="643.6187">Stream Error Types:</text><text fill="#000000" font-family="Verdana" font-size="13" lengthAdjust="spacing" textLength="165.4009" x="497.7754" y="659.418">- Invalid HEADERS frame</text><text fill="#000000" font-family="Verdana" font-size="13" lengthAdjust="spacing" textLength="166.8101" x="497.7754" y="675.2173">- Protocol state violations</text><text fill="#000000" font-family="Verdana" font-size="13" lengthAdjust="spacing" textLength="203.0679" x="497.7754" y="691.0166">- Unsupported pseudo-headers</text><text fill="#000000" font-family="Verdana" font-size="13" lengthAdjust="spacing" textLength="168.7017" x="497.7754" y="706.8159">- Content encoding errors</text><text fill="#000000" font-family="Verdana" font-size="13" lengthAdjust="spacing" textLength="4.5703" x="497.7754" y="722.6152">&#160;</text><text fill="#000000" font-family="Verdana" font-size="13" font-weight="bold" lengthAdjust="spacing" textLength="72.6108" x="497.7754" y="738.4146">Recovery:</text><text fill="#000000" font-family="Verdana" font-size="13" lengthAdjust="spacing" textLength="149.5444" x="497.7754" y="754.2139">- Reset specific stream</text><text fill="#000000" font-family="Verdana" font-size="13" lengthAdjust="spacing" textLength="164.6392" x="497.7754" y="770.0132">- Continue other streams</text><text fill="#000000" font-family="Verdana" font-size="13" lengthAdjust="spacing" textLength="165.9595" x="497.7754" y="785.8125">- Log error for debugging</text><rect fill="#FFB6C1" height="34.584" rx="12.5" ry="12.5" style="stroke:#000000;stroke-width:1;" width="146.873" x="324.9023" y="692.2534"/><text fill="#000000" font-family="Verdana" font-size="12" lengthAdjust="spacing" textLength="126.873" x="334.9023" y="714.3179">HTTP/3 Stream Error</text><rect fill="#FFFFFF" height="388.001" style="stroke:#000000;stroke-width:1;" width="514.6973" x="294.0166" y="815.542"/><path d="M548.6748,815.542 L548.6748,825.5566 L538.6748,835.5566 L294.0166,835.5566" fill="none" style="stroke:#000000;stroke-width:1;"/><text fill="#000000" font-family="Verdana" font-size="14" font-weight="bold" lengthAdjust="spacing" textLength="244.6582" x="297.0166" y="830.6172">WebTransport CONNECT Errors</text><path d="M512.6611,845.5566 L512.6611,933.4529 L492.6611,937.4529 L512.6611,941.4529 L512.6611,1029.3491 A0,0 0 0 0 512.6611,1029.3491 L798.7139,1029.3491 A0,0 0 0 0 798.7139,1029.3491 L798.7139,855.5566 L788.7139,845.5566 L512.6611,845.5566 A0,0 0 0 0 512.6611,845.5566" fill="#FFFFFF" style="stroke:#000000;stroke-width:1;"/><path d="M788.7139,845.5566 L788.7139,855.5566 L798.7139,855.5566 L788.7139,845.5566" fill="#FFFFFF" style="stroke:#000000;stroke-width:1;"/><text fill="#000000" font-family="Verdana" font-size="13" font-weight="bold" lengthAdjust="spacing" textLength="149.5508" x="518.6611" y="863.6265">Rejection Scenarios:</text><text fill="#000000" font-family="Verdana" font-size="13" lengthAdjust="spacing" textLength="208.8696" x="518.6611" y="879.4258">- 400 Bad Request (malformed)</text><text fill="#000000" font-family="Verdana" font-size="13" lengthAdjust="spacing" textLength="199.7925" x="518.6611" y="895.2251">- 404 Not Found (invalid path)</text><text fill="#000000" font-family="Verdana" font-size="13" lengthAdjust="spacing" textLength="206.7939" x="518.6611" y="911.0244">- 403 Forbidden (authorization)</text><text fill="#000000" font-family="Verdana" font-size="13" lengthAdjust="spacing" textLength="167.7686" x="518.6611" y="926.8237">- 503 Service Unavailable</text><text fill="#000000" font-family="Verdana" font-size="13" lengthAdjust="spacing" textLength="4.5703" x="518.6611" y="942.623">&#160;</text><text fill="#000000" font-family="Verdana" font-size="13" font-weight="bold" lengthAdjust="spacing" textLength="116.9429" x="518.6611" y="958.4224">Client Handling:</text><text fill="#000000" font-family="Verdana" font-size="13" lengthAdjust="spacing" textLength="162.5063" x="518.6611" y="974.2217">- Parse error status code</text><text fill="#000000" font-family="Verdana" font-size="13" lengthAdjust="spacing" textLength="201.2842" x="518.6611" y="990.021">- Read error details if provided</text><text fill="#000000" font-family="Verdana" font-size="13" lengthAdjust="spacing" textLength="265.0527" x="518.6611" y="1005.8203">- Do not establish WebTransport session</text><text fill="#000000" font-family="Verdana" font-size="13" lengthAdjust="spacing" textLength="192.2007" x="518.6611" y="1021.6196">- Report failure to application</text><rect fill="#FFB6C1" height="34.584" rx="12.5" ry="12.5" style="stroke:#000000;stroke-width:1;" width="188.6445" x="304.0166" y="920.1609"/><text fill="#000000" font-family="Verdana" font-size="12" lengthAdjust="spacing" textLength="168.6445" x="314.0166" y="942.2253">CONNECT Request Rejected</text><path d="M493.1553,1039.3491 L493.1553,1111.446 L473.1553,1115.446 L493.1553,1119.446 L493.1553,1191.543 A0,0 0 0 0 493.1553,1191.543 L770.334,1191.543 A0,0 0 0 0 770.334,1191.543 L770.334,1049.3491 L760.334,1039.3491 L493.1553,1039.3491 A0,0 0 0 0 493.1553,1039.3491" fill="#FFFFFF" style="stroke:#000000;stroke-width:1;"/><path d="M760.334,1039.3491 L760.334,1049.3491 L770.334,1049.3491 L760.334,1039.3491" fill="#FFFFFF" style="stroke:#000000;stroke-width:1;"/><text fill="#000000" font-family="Verdana" font-size="13" font-weight="bold" lengthAdjust="spacing" textLength="140.2007" x="499.1553" y="1057.4189">Protocol Mismatch:</text><text fill="#000000" font-family="Verdana" font-size="13" lengthAdjust="spacing" textLength="256.1787" x="499.1553" y="1073.2183">- Server doesn't support WebTransport</text><text fill="#000000" font-family="Verdana" font-size="13" lengthAdjust="spacing" textLength="167.9019" x="499.1553" y="1089.0176">- Invalid :protocol header</text><text fill="#000000" font-family="Verdana" font-size="13" lengthAdjust="spacing" textLength="158.9961" x="499.1553" y="1104.8169">- Version incompatibility</text><text fill="#000000" font-family="Verdana" font-size="13" lengthAdjust="spacing" textLength="4.5703" x="499.1553" y="1120.6162">&#160;</text><text fill="#000000" font-family="Verdana" font-size="13" font-weight="bold" lengthAdjust="spacing" textLength="117" x="499.1553" y="1136.4155">Error Response:</text><text fill="#000000" font-family="Verdana" font-size="13" lengthAdjust="spacing" textLength="154.2544" x="499.1553" y="1152.2148">- 501 Not Implemented</text><text fill="#000000" font-family="Verdana" font-size="13" lengthAdjust="spacing" textLength="226.2686" x="499.1553" y="1168.0142">- 505 HTTP Version Not Supported</text><text fill="#000000" font-family="Verdana" font-size="13" lengthAdjust="spacing" textLength="138.9058" x="499.1553" y="1183.8135">- Custom error codes</text><rect fill="#FFB6C1" height="34.584" rx="12.5" ry="12.5" style="stroke:#000000;stroke-width:1;" width="149.6328" x="323.5225" y="1098.1541"/><text fill="#000000" font-family="Verdana" font-size="12" lengthAdjust="spacing" textLength="129.6328" x="333.5225" y="1120.2185">Unsupported Protocol</text><rect fill="#FFFFFF" height="486.9976" style="stroke:#000000;stroke-width:1;" width="422.564" x="312.5439" y="1213.543"/><path d="M478.6152,1213.543 L478.6152,1223.5576 L468.6152,1233.5576 L312.5439,1233.5576" fill="none" style="stroke:#000000;stroke-width:1;"/><text fill="#000000" font-family="Verdana" font-size="14" font-weight="bold" lengthAdjust="spacing" textLength="156.0713" x="315.5439" y="1228.6182">Stream Level Errors</text><path d="M494.1338,1243.5576 L494.1338,1323.5542 L474.1338,1327.5542 L494.1338,1331.5542 L494.1338,1411.5508 A0,0 0 0 0 494.1338,1411.5508 L725.1079,1411.5508 A0,0 0 0 0 725.1079,1411.5508 L725.1079,1253.5576 L715.1079,1243.5576 L494.1338,1243.5576 A0,0 0 0 0 494.1338,1243.5576" fill="#FFFFFF" style="stroke:#000000;stroke-width:1;"/><path d="M715.1079,1243.5576 L715.1079,1253.5576 L725.1079,1253.5576 L715.1079,1243.5576" fill="#FFFFFF" style="stroke:#000000;stroke-width:1;"/><text fill="#000000" font-family="Verdana" font-size="13" font-weight="bold" lengthAdjust="spacing" textLength="121.748" x="500.1338" y="1261.6274">Reset Scenarios:</text><text fill="#000000" font-family="Verdana" font-size="13" lengthAdjust="spacing" textLength="173.6211" x="500.1338" y="1277.4268">- Peer calls stream.abort()</text><text fill="#000000" font-family="Verdana" font-size="13" lengthAdjust="spacing" textLength="169" x="500.1338" y="1293.2261">- Application error in peer</text><text fill="#000000" font-family="Verdana" font-size="13" lengthAdjust="spacing" textLength="146.0596" x="500.1338" y="1309.0254">- Resource exhaustion</text><text fill="#000000" font-family="Verdana" font-size="13" lengthAdjust="spacing" textLength="147.7988" x="500.1338" y="1324.8247">- Invalid data received</text><text fill="#000000" font-family="Verdana" font-size="13" lengthAdjust="spacing" textLength="4.5703" x="500.1338" y="1340.624">&#160;</text><text fill="#000000" font-family="Verdana" font-size="13" font-weight="bold" lengthAdjust="spacing" textLength="90.6318" x="500.1338" y="1356.4233">Error Codes:</text><text fill="#000000" font-family="Verdana" font-size="13" lengthAdjust="spacing" textLength="177.8867" x="500.1338" y="1372.2227">- Application-defined codes</text><text fill="#000000" font-family="Verdana" font-size="13" lengthAdjust="spacing" textLength="208.2158" x="500.1338" y="1388.022">- Standard WebTransport codes</text><text fill="#000000" font-family="Verdana" font-size="13" lengthAdjust="spacing" textLength="209.9741" x="500.1338" y="1403.8213">- Implementation-specific codes</text><rect fill="#FFB6C1" height="34.584" rx="12.5" ry="12.5" style="stroke:#000000;stroke-width:1;" width="151.5898" x="322.5439" y="1310.2622"/><text fill="#000000" font-family="Verdana" font-size="12" lengthAdjust="spacing" textLength="131.5898" x="332.5439" y="1332.3267">Stream Reset by Peer</text><path d="M492.2764,1421.5508 L492.2764,1469.9487 L472.2764,1473.9487 L492.2764,1477.9487 L492.2764,1526.3467 A0,0 0 0 0 492.2764,1526.3467 L700.6147,1526.3467 A0,0 0 0 0 700.6147,1526.3467 L700.6147,1431.5508 L690.6147,1421.5508 L492.2764,1421.5508 A0,0 0 0 0 492.2764,1421.5508" fill="#FFFFFF" style="stroke:#000000;stroke-width:1;"/><path d="M690.6147,1421.5508 L690.6147,1431.5508 L700.6147,1431.5508 L690.6147,1421.5508" fill="#FFFFFF" style="stroke:#000000;stroke-width:1;"/><text fill="#000000" font-family="Verdana" font-size="13" font-weight="bold" lengthAdjust="spacing" textLength="118.1235" x="498.2764" y="1439.6206">Reset Recovery:</text><text fill="#000000" font-family="Verdana" font-size="13" lengthAdjust="spacing" textLength="166.6768" x="498.2764" y="1455.4199">- Stop sending on stream</text><text fill="#000000" font-family="Verdana" font-size="13" lengthAdjust="spacing" textLength="185.5928" x="498.2764" y="1471.2192">- Clean up stream resources</text><text fill="#000000" font-family="Verdana" font-size="13" lengthAdjust="spacing" textLength="119.7612" x="498.2764" y="1487.0186">- Log reset reason</text><text fill="#000000" font-family="Verdana" font-size="13" lengthAdjust="spacing" textLength="187.3384" x="498.2764" y="1502.8179">- Continue session operation</text><text fill="#000000" font-family="Verdana" font-size="13" lengthAdjust="spacing" textLength="161.0718" x="498.2764" y="1518.6172">- Notify application layer</text><rect fill="#FFB6C1" height="34.584" rx="12.5" ry="12.5" style="stroke:#000000;stroke-width:1;" width="147.875" x="324.4014" y="1456.6567"/><text fill="#000000" font-family="Verdana" font-size="12" lengthAdjust="spacing" textLength="127.875" x="334.4014" y="1478.7212">Handle Stream Reset</text><path d="M494.1338,1536.3467 L494.1338,1608.4436 L474.1338,1612.4436 L494.1338,1616.4436 L494.1338,1688.5405 A0,0 0 0 0 494.1338,1688.5405 L716.3672,1688.5405 A0,0 0 0 0 716.3672,1688.5405 L716.3672,1546.3467 L706.3672,1536.3467 L494.1338,1536.3467 A0,0 0 0 0 494.1338,1536.3467" fill="#FFFFFF" style="stroke:#000000;stroke-width:1;"/><path d="M706.3672,1536.3467 L706.3672,1546.3467 L716.3672,1546.3467 L706.3672,1536.3467" fill="#FFFFFF" style="stroke:#000000;stroke-width:1;"/><text fill="#000000" font-family="Verdana" font-size="13" font-weight="bold" lengthAdjust="spacing" textLength="146.9229" x="500.1338" y="1554.4165">Flow Control Errors:</text><text fill="#000000" font-family="Verdana" font-size="13" lengthAdjust="spacing" textLength="176.4331" x="500.1338" y="1570.2158">- Exceeded stream window</text><text fill="#000000" font-family="Verdana" font-size="13" lengthAdjust="spacing" textLength="201.2334" x="500.1338" y="1586.0151">- Exceeded connection window</text><text fill="#000000" font-family="Verdana" font-size="13" lengthAdjust="spacing" textLength="185.3896" x="500.1338" y="1601.8145">- Invalid flow control frames</text><text fill="#000000" font-family="Verdana" font-size="13" lengthAdjust="spacing" textLength="4.5703" x="500.1338" y="1617.6138">&#160;</text><text fill="#000000" font-family="Verdana" font-size="13" font-weight="bold" lengthAdjust="spacing" textLength="109.4082" x="500.1338" y="1633.4131">Consequences:</text><text fill="#000000" font-family="Verdana" font-size="13" lengthAdjust="spacing" textLength="138.2646" x="500.1338" y="1649.2124">- Stream termination</text><text fill="#000000" font-family="Verdana" font-size="13" lengthAdjust="spacing" textLength="188.8301" x="500.1338" y="1665.0117">- Possible connection closure</text><text fill="#000000" font-family="Verdana" font-size="13" lengthAdjust="spacing" textLength="164.2583" x="500.1338" y="1680.811">- Protocol error reporting</text><rect fill="#FFB6C1" height="34.584" rx="12.5" ry="12.5" style="stroke:#000000;stroke-width:1;" width="151.5898" x="322.5439" y="1595.1516"/><text fill="#000000" font-family="Verdana" font-size="12" lengthAdjust="spacing" textLength="131.5898" x="332.5439" y="1617.2161">Flow Control Violation</text><rect fill="#FFFFFF" height="388.001" style="stroke:#000000;stroke-width:1;" width="440.1538" x="308.7002" y="1710.5405"/><path d="M449.458,1710.5405 L449.458,1720.5552 L439.458,1730.5552 L308.7002,1730.5552" fill="none" style="stroke:#000000;stroke-width:1;"/><text fill="#000000" font-family="Verdana" font-size="14" font-weight="bold" lengthAdjust="spacing" textLength="130.7578" x="311.7002" y="1725.6157">Datagram Errors</text><path d="M497.9775,1740.5552 L497.9775,1820.5518 L477.9775,1824.5518 L497.9775,1828.5518 L497.9775,1908.5483 A0,0 0 0 0 497.9775,1908.5483 L738.854,1908.5483 A0,0 0 0 0 738.854,1908.5483 L738.854,1750.5552 L728.854,1740.5552 L497.9775,1740.5552 A0,0 0 0 0 497.9775,1740.5552" fill="#FFFFFF" style="stroke:#000000;stroke-width:1;"/><path d="M728.854,1740.5552 L728.854,1750.5552 L738.854,1750.5552 L728.854,1740.5552" fill="#FFFFFF" style="stroke:#000000;stroke-width:1;"/><text fill="#000000" font-family="Verdana" font-size="13" font-weight="bold" lengthAdjust="spacing" textLength="143.4761" x="503.9775" y="1758.625">Send Failure Types:</text><text fill="#000000" font-family="Verdana" font-size="13" lengthAdjust="spacing" textLength="138.1377" x="503.9775" y="1774.4243">- Datagram too large</text><text fill="#000000" font-family="Verdana" font-size="13" lengthAdjust="spacing" textLength="150.4902" x="503.9775" y="1790.2236">- Connection not ready</text><text fill="#000000" font-family="Verdana" font-size="13" lengthAdjust="spacing" textLength="139.7183" x="503.9775" y="1806.0229">- Network congestion</text><text fill="#000000" font-family="Verdana" font-size="13" lengthAdjust="spacing" textLength="219.8765" x="503.9775" y="1821.8223">- Peer doesn't support datagrams</text><text fill="#000000" font-family="Verdana" font-size="13" lengthAdjust="spacing" textLength="4.5703" x="503.9775" y="1837.6216">&#160;</text><text fill="#000000" font-family="Verdana" font-size="13" font-weight="bold" lengthAdjust="spacing" textLength="70.3892" x="503.9775" y="1853.4209">Handling:</text><text fill="#000000" font-family="Verdana" font-size="13" lengthAdjust="spacing" textLength="183.9106" x="503.9775" y="1869.2202">- Return error to application</text><text fill="#000000" font-family="Verdana" font-size="13" lengthAdjust="spacing" textLength="133.8467" x="503.9775" y="1885.0195">- No automatic retry</text><text fill="#000000" font-family="Verdana" font-size="13" lengthAdjust="spacing" textLength="212.7671" x="503.9775" y="1900.8188">- Application decides next action</text><rect fill="#FFB6C1" height="34.584" rx="12.5" ry="12.5" style="stroke:#000000;stroke-width:1;" width="159.2773" x="318.7002" y="1807.2598"/><text fill="#000000" font-family="Verdana" font-size="12" lengthAdjust="spacing" textLength="139.2773" x="328.7002" y="1829.3242">Datagram Send Failure</text><path d="M473.6143,1918.5483 L473.6143,1998.5449 L453.6143,2002.5449 L473.6143,2006.5449 L473.6143,2086.5415 A0,0 0 0 0 473.6143,2086.5415 L693.0166,2086.5415 A0,0 0 0 0 693.0166,2086.5415 L693.0166,1928.5483 L683.0166,1918.5483 L473.6143,1918.5483 A0,0 0 0 0 473.6143,1918.5483" fill="#FFFFFF" style="stroke:#000000;stroke-width:1;"/><path d="M683.0166,1918.5483 L683.0166,1928.5483 L693.0166,1928.5483 L683.0166,1918.5483" fill="#FFFFFF" style="stroke:#000000;stroke-width:1;"/><text fill="#000000" font-family="Verdana" font-size="13" font-weight="bold" lengthAdjust="spacing" textLength="151.3535" x="479.6143" y="1936.6182">Loss Characteristics:</text><text fill="#000000" font-family="Verdana" font-size="13" lengthAdjust="spacing" textLength="155.2129" x="479.6143" y="1952.4175">- No delivery guarantee</text><text fill="#000000" font-family="Verdana" font-size="13" lengthAdjust="spacing" textLength="134.564" x="479.6143" y="1968.2168">- No loss notification</text><text fill="#000000" font-family="Verdana" font-size="13" lengthAdjust="spacing" textLength="198.4023" x="479.6143" y="1984.0161">- No automatic retransmission</text><text fill="#000000" font-family="Verdana" font-size="13" lengthAdjust="spacing" textLength="172.8911" x="479.6143" y="1999.8154">- Application responsibility</text><text fill="#000000" font-family="Verdana" font-size="13" lengthAdjust="spacing" textLength="4.5703" x="479.6143" y="2015.6147">&#160;</text><text fill="#000000" font-family="Verdana" font-size="13" font-weight="bold" lengthAdjust="spacing" textLength="78.6855" x="479.6143" y="2031.4141">Mitigation:</text><text fill="#000000" font-family="Verdana" font-size="13" lengthAdjust="spacing" textLength="162.2397" x="479.6143" y="2047.2134">- Use sequence numbers</text><text fill="#000000" font-family="Verdana" font-size="13" lengthAdjust="spacing" textLength="143.3999" x="479.6143" y="2063.0127">- Implement timeouts</text><text fill="#000000" font-family="Verdana" font-size="13" lengthAdjust="spacing" textLength="193.1909" x="479.6143" y="2078.812">- Switch to streams if needed</text><rect fill="#FFB6C1" height="34.584" rx="12.5" ry="12.5" style="stroke:#000000;stroke-width:1;" width="110.5508" x="343.0635" y="1985.2529"/><text fill="#000000" font-family="Verdana" font-size="12" lengthAdjust="spacing" textLength="90.5508" x="353.0635" y="2007.3174">Datagram Loss</text><rect fill="#FFFFFF" height="419.5996" style="stroke:#000000;stroke-width:1;" width="436.1699" x="306.5439" y="2108.5415"/><path d="M536.1895,2108.5415 L536.1895,2118.5562 L526.1895,2128.5562 L306.5439,2128.5562" fill="none" style="stroke:#000000;stroke-width:1;"/><text fill="#000000" font-family="Verdana" font-size="14" font-weight="bold" lengthAdjust="spacing" textLength="219.6455" x="309.5439" y="2123.6167">Session Management Errors</text><path d="M500.1338,2138.5562 L500.1338,2226.4524 L480.1338,2230.4524 L500.1338,2234.4524 L500.1338,2322.3486 A0,0 0 0 0 500.1338,2322.3486 L732.7139,2322.3486 A0,0 0 0 0 732.7139,2322.3486 L732.7139,2148.5562 L722.7139,2138.5562 L500.1338,2138.5562 A0,0 0 0 0 500.1338,2138.5562" fill="#FFFFFF" style="stroke:#000000;stroke-width:1;"/><path d="M722.7139,2138.5562 L722.7139,2148.5562 L732.7139,2148.5562 L722.7139,2138.5562" fill="#FFFFFF" style="stroke:#000000;stroke-width:1;"/><text fill="#000000" font-family="Verdana" font-size="13" font-weight="bold" lengthAdjust="spacing" textLength="132.4629" x="506.1338" y="2156.626">State Error Types:</text><text fill="#000000" font-family="Verdana" font-size="13" lengthAdjust="spacing" textLength="199.9067" x="506.1338" y="2172.4253">- Operations on closed session</text><text fill="#000000" font-family="Verdana" font-size="13" lengthAdjust="spacing" textLength="178.3564" x="506.1338" y="2188.2246">- Invalid stream operations</text><text fill="#000000" font-family="Verdana" font-size="13" lengthAdjust="spacing" textLength="211.5801" x="506.1338" y="2204.0239">- Concurrent modification issues</text><text fill="#000000" font-family="Verdana" font-size="13" lengthAdjust="spacing" textLength="169.4634" x="506.1338" y="2219.8232">- Resource limit exceeded</text><text fill="#000000" font-family="Verdana" font-size="13" lengthAdjust="spacing" textLength="4.5703" x="506.1338" y="2235.6226">&#160;</text><text fill="#000000" font-family="Verdana" font-size="13" font-weight="bold" lengthAdjust="spacing" textLength="84.7476" x="506.1338" y="2251.4219">Prevention:</text><text fill="#000000" font-family="Verdana" font-size="13" lengthAdjust="spacing" textLength="147.6909" x="506.1338" y="2267.2212">- Proper state tracking</text><text fill="#000000" font-family="Verdana" font-size="13" lengthAdjust="spacing" textLength="200.7065" x="506.1338" y="2283.0205">- Synchronization mechanisms</text><text fill="#000000" font-family="Verdana" font-size="13" lengthAdjust="spacing" textLength="145.5645" x="506.1338" y="2298.8198">- Resource monitoring</text><text fill="#000000" font-family="Verdana" font-size="13" lengthAdjust="spacing" textLength="147.3735" x="506.1338" y="2314.6191">- Graceful degradation</text><rect fill="#FFB6C1" height="34.584" rx="12.5" ry="12.5" style="stroke:#000000;stroke-width:1;" width="163.5898" x="316.5439" y="2213.1604"/><text fill="#000000" font-family="Verdana" font-size="12" lengthAdjust="spacing" textLength="143.5898" x="326.5439" y="2235.2249">Session State Mismatch</text><path d="M491.1367,2332.3486 L491.1367,2420.2449 L471.1367,2424.2449 L491.1367,2428.2449 L491.1367,2516.1411 A0,0 0 0 0 491.1367,2516.1411 L718.8291,2516.1411 A0,0 0 0 0 718.8291,2516.1411 L718.8291,2342.3486 L708.8291,2332.3486 L491.1367,2332.3486 A0,0 0 0 0 491.1367,2332.3486" fill="#FFFFFF" style="stroke:#000000;stroke-width:1;"/><path d="M708.8291,2332.3486 L708.8291,2342.3486 L718.8291,2342.3486 L708.8291,2332.3486" fill="#FFFFFF" style="stroke:#000000;stroke-width:1;"/><text fill="#000000" font-family="Verdana" font-size="13" font-weight="bold" lengthAdjust="spacing" textLength="121.6782" x="497.1367" y="2350.4185">Resource Limits:</text><text fill="#000000" font-family="Verdana" font-size="13" lengthAdjust="spacing" textLength="197.209" x="497.1367" y="2366.2178">- Maximum streams exceeded</text><text fill="#000000" font-family="Verdana" font-size="13" lengthAdjust="spacing" textLength="182.1143" x="497.1367" y="2382.0171">- Memory allocation failures</text><text fill="#000000" font-family="Verdana" font-size="13" lengthAdjust="spacing" textLength="180.8638" x="497.1367" y="2397.8164">- Buffer overflow conditions</text><text fill="#000000" font-family="Verdana" font-size="13" lengthAdjust="spacing" textLength="150.5093" x="497.1367" y="2413.6157">- CPU/bandwidth limits</text><text fill="#000000" font-family="Verdana" font-size="13" lengthAdjust="spacing" textLength="4.5703" x="497.1367" y="2429.415">&#160;</text><text fill="#000000" font-family="Verdana" font-size="13" font-weight="bold" lengthAdjust="spacing" textLength="83.0781" x="497.1367" y="2445.2144">Responses:</text><text fill="#000000" font-family="Verdana" font-size="13" lengthAdjust="spacing" textLength="155.7905" x="497.1367" y="2461.0137">- Reject new operations</text><text fill="#000000" font-family="Verdana" font-size="13" lengthAdjust="spacing" textLength="206.6924" x="497.1367" y="2476.813">- Close least important streams</text><text fill="#000000" font-family="Verdana" font-size="13" lengthAdjust="spacing" textLength="173.1387" x="497.1367" y="2492.6123">- Implement backpressure</text><text fill="#000000" font-family="Verdana" font-size="13" lengthAdjust="spacing" textLength="182.6348" x="497.1367" y="2508.4116">- Scale resources if possible</text><rect fill="#FFB6C1" height="34.584" rx="12.5" ry="12.5" style="stroke:#000000;stroke-width:1;" width="145.5957" x="325.541" y="2406.9529"/><text fill="#000000" font-family="Verdana" font-size="12" lengthAdjust="spacing" textLength="125.5957" x="335.541" y="2429.0173">Resource Exhaustion</text><rect fill="#FFFFFF" height="329.0044" style="stroke:#000000;stroke-width:1;" width="410.6343" x="314.2695" y="2538.1411"/><path d="M526.9414,2538.1411 L526.9414,2548.1558 L516.9414,2558.1558 L314.2695,2558.1558" fill="none" style="stroke:#000000;stroke-width:1;"/><text fill="#000000" font-family="Verdana" font-size="14" font-weight="bold" lengthAdjust="spacing" textLength="202.6719" x="317.2695" y="2553.2163">Error Recovery Strategies</text><path d="M492.4082,2568.1558 L492.4082,2608.6541 L472.4082,2612.6541 L492.4082,2616.6541 L492.4082,2657.1523 A0,0 0 0 0 492.4082,2657.1523 L698.6646,2657.1523 A0,0 0 0 0 698.6646,2657.1523 L698.6646,2578.1558 L688.6646,2568.1558 L492.4082,2568.1558 A0,0 0 0 0 492.4082,2568.1558" fill="#FFFFFF" style="stroke:#000000;stroke-width:1;"/><path d="M688.6646,2568.1558 L688.6646,2578.1558 L698.6646,2578.1558 L688.6646,2568.1558" fill="#FFFFFF" style="stroke:#000000;stroke-width:1;"/><text fill="#000000" font-family="Verdana" font-size="13" font-weight="bold" lengthAdjust="spacing" textLength="185.2563" x="498.4082" y="2586.2256">Degradation Approaches:</text><text fill="#000000" font-family="Verdana" font-size="13" lengthAdjust="spacing" textLength="183.2124" x="498.4082" y="2602.0249">- Fall back to fewer streams</text><text fill="#000000" font-family="Verdana" font-size="13" lengthAdjust="spacing" textLength="168.7778" x="498.4082" y="2617.8242">- Disable datagram usage</text><text fill="#000000" font-family="Verdana" font-size="13" lengthAdjust="spacing" textLength="129.0732" x="498.4082" y="2633.6235">- Reduce data rates</text><text fill="#000000" font-family="Verdana" font-size="13" lengthAdjust="spacing" textLength="173.1514" x="498.4082" y="2649.4229">- Use alternative protocols</text><rect fill="#FFB6C1" height="34.584" rx="12.5" ry="12.5" style="stroke:#000000;stroke-width:1;" width="148.1387" x="324.2695" y="2595.3621"/><text fill="#000000" font-family="Verdana" font-size="12" lengthAdjust="spacing" textLength="128.1387" x="334.2695" y="2617.4265">Graceful Degradation</text><path d="M483.3584,2667.1523 L483.3584,2707.6506 L463.3584,2711.6506 L483.3584,2715.6506 L483.3584,2756.1489 A0,0 0 0 0 483.3584,2756.1489 L714.9038,2756.1489 A0,0 0 0 0 714.9038,2756.1489 L714.9038,2677.1523 L704.9038,2667.1523 L483.3584,2667.1523 A0,0 0 0 0 483.3584,2667.1523" fill="#FFFFFF" style="stroke:#000000;stroke-width:1;"/><path d="M704.9038,2667.1523 L704.9038,2677.1523 L714.9038,2677.1523 L704.9038,2667.1523" fill="#FFFFFF" style="stroke:#000000;stroke-width:1;"/><text fill="#000000" font-family="Verdana" font-size="13" font-weight="bold" lengthAdjust="spacing" textLength="124.0586" x="489.3584" y="2685.2222">Retry Strategies:</text><text fill="#000000" font-family="Verdana" font-size="13" lengthAdjust="spacing" textLength="138.6138" x="489.3584" y="2701.0215">- Exponential backoff</text><text fill="#000000" font-family="Verdana" font-size="13" lengthAdjust="spacing" textLength="159.3516" x="489.3584" y="2716.8208">- Circuit breaker pattern</text><text fill="#000000" font-family="Verdana" font-size="13" lengthAdjust="spacing" textLength="210.5454" x="489.3584" y="2732.6201">- Jitter to avoid thundering herd</text><text fill="#000000" font-family="Verdana" font-size="13" lengthAdjust="spacing" textLength="150.0522" x="489.3584" y="2748.4194">- Maximum retry limits</text><rect fill="#FFB6C1" height="34.584" rx="12.5" ry="12.5" style="stroke:#000000;stroke-width:1;" width="130.0391" x="333.3193" y="2694.3586"/><text fill="#000000" font-family="Verdana" font-size="12" lengthAdjust="spacing" textLength="110.0391" x="343.3193" y="2716.4231">Retry Mechanisms</text><path d="M474.7979,2766.1489 L474.7979,2806.6472 L454.7979,2810.6472 L474.7979,2814.6472 L474.7979,2855.1455 A0,0 0 0 0 474.7979,2855.1455 L711.2817,2855.1455 A0,0 0 0 0 711.2817,2855.1455 L711.2817,2776.1489 L701.2817,2766.1489 L474.7979,2766.1489 A0,0 0 0 0 474.7979,2766.1489" fill="#FFFFFF" style="stroke:#000000;stroke-width:1;"/><path d="M701.2817,2766.1489 L701.2817,2776.1489 L711.2817,2776.1489 L701.2817,2766.1489" fill="#FFFFFF" style="stroke:#000000;stroke-width:1;"/><text fill="#000000" font-family="Verdana" font-size="13" font-weight="bold" lengthAdjust="spacing" textLength="180.521" x="480.7979" y="2784.2188">Comprehensive Logging:</text><text fill="#000000" font-family="Verdana" font-size="13" lengthAdjust="spacing" textLength="196.5361" x="480.7979" y="2800.0181">- Error codes and descriptions</text><text fill="#000000" font-family="Verdana" font-size="13" lengthAdjust="spacing" textLength="215.4839" x="480.7979" y="2815.8174">- Context and timing information</text><text fill="#000000" font-family="Verdana" font-size="13" lengthAdjust="spacing" textLength="162.4937" x="480.7979" y="2831.6167">- Recovery actions taken</text><text fill="#000000" font-family="Verdana" font-size="13" lengthAdjust="spacing" textLength="194.1367" x="480.7979" y="2847.416">- Performance impact metrics</text><rect fill="#FFB6C1" height="34.584" rx="12.5" ry="12.5" style="stroke:#000000;stroke-width:1;" width="112.918" x="341.8799" y="2793.3552"/><text fill="#000000" font-family="Verdana" font-size="12" lengthAdjust="spacing" textLength="92.918" x="351.8799" y="2815.4197">Error Reporting</text><path d="M5,2877.1455 L5,2981.9414 A0,0 0 0 0 5,2981.9414 L367.3389,2981.9414 A0,0 0 0 0 367.3389,2981.9414 L367.3389,2933.5435 L387.3389,2929.5435 L367.3389,2925.5435 L367.3389,2887.1455 L357.3389,2877.1455 L5,2877.1455 A0,0 0 0 0 5,2877.1455" fill="#FFFFFF" style="stroke:#000000;stroke-width:1;"/><path d="M357.3389,2877.1455 L357.3389,2887.1455 L367.3389,2887.1455 L357.3389,2877.1455" fill="#FFFFFF" style="stroke:#000000;stroke-width:1;"/><text fill="#000000" font-family="Verdana" font-size="13" font-weight="bold" lengthAdjust="spacing" textLength="219.7622" x="11" y="2895.2153">Error Handling Best Practices:</text><text fill="#000000" font-family="Verdana" font-size="13" lengthAdjust="spacing" textLength="329.0308" x="11" y="2911.0146">- Distinguish between recoverable and fatal errors</text><text fill="#000000" font-family="Verdana" font-size="13" lengthAdjust="spacing" textLength="269.877" x="11" y="2926.814">- Implement proper timeout mechanisms</text><text fill="#000000" font-family="Verdana" font-size="13" lengthAdjust="spacing" textLength="233.3018" x="11" y="2942.6133">- Log sufficient detail for debugging</text><text fill="#000000" font-family="Verdana" font-size="13" lengthAdjust="spacing" textLength="218.6958" x="11" y="2958.4126">- Gracefully degrade functionality</text><text fill="#000000" font-family="Verdana" font-size="13" lengthAdjust="spacing" textLength="341.3389" x="11" y="2974.2119">- Provide meaningful error messages to applications</text><ellipse cx="398.3389" cy="2929.5435" fill="none" rx="11" ry="11" style="stroke:#000000;stroke-width:1;"/><ellipse cx="398.3389" cy="2929.5435" fill="#FFFFFF" rx="6" ry="6" style="stroke:#000000;stroke-width:1;"/><line style="stroke:#000000;stroke-width:1;" x1="398.3389" x2="398.3389" y1="221.9402" y2="333.7507"/><polygon fill="#000000" points="394.3389,323.7507,398.3389,333.7507,402.3389,323.7507,398.3389,327.7507" style="stroke:#000000;stroke-width:1;"/><line style="stroke:#000000;stroke-width:1;" x1="398.3389" x2="398.3389" y1="72.7373" y2="187.3562"/><polygon fill="#000000" points="394.3389,177.3562,398.3389,187.3562,402.3389,177.3562,398.3389,181.3562" style="stroke:#000000;stroke-width:1;"/><line style="stroke:#000000;stroke-width:1;" x1="398.3389" x2="398.3389" y1="548.8442" y2="692.2534"/><polygon fill="#000000" points="394.3389,682.2534,398.3389,692.2534,402.3389,682.2534,398.3389,686.2534" style="stroke:#000000;stroke-width:1;"/><line style="stroke:#000000;stroke-width:1;" x1="398.3389" x2="398.3389" y1="368.3347" y2="514.2603"/><polygon fill="#000000" points="394.3389,504.2603,398.3389,514.2603,402.3389,504.2603,398.3389,508.2603" style="stroke:#000000;stroke-width:1;"/><line style="stroke:#000000;stroke-width:1;" x1="398.3389" x2="398.3389" y1="954.7449" y2="1098.1541"/><polygon fill="#000000" points="394.3389,1088.1541,398.3389,1098.1541,402.3389,1088.1541,398.3389,1092.1541" style="stroke:#000000;stroke-width:1;"/><line style="stroke:#000000;stroke-width:1;" x1="398.3389" x2="398.3389" y1="726.8374" y2="920.1609"/><polygon fill="#000000" points="394.3389,910.1609,398.3389,920.1609,402.3389,910.1609,398.3389,914.1609" style="stroke:#000000;stroke-width:1;"/><line style="stroke:#000000;stroke-width:1;" x1="398.3389" x2="398.3389" y1="1344.8462" y2="1456.6567"/><polygon fill="#000000" points="394.3389,1446.6567,398.3389,1456.6567,402.3389,1446.6567,398.3389,1450.6567" style="stroke:#000000;stroke-width:1;"/><line style="stroke:#000000;stroke-width:1;" x1="398.3389" x2="398.3389" y1="1491.2407" y2="1595.1516"/><polygon fill="#000000" points="394.3389,1585.1516,398.3389,1595.1516,402.3389,1585.1516,398.3389,1589.1516" style="stroke:#000000;stroke-width:1;"/><line style="stroke:#000000;stroke-width:1;" x1="398.3389" x2="398.3389" y1="1132.738" y2="1310.2622"/><polygon fill="#000000" points="394.3389,1300.2622,398.3389,1310.2622,402.3389,1300.2622,398.3389,1304.2622" style="stroke:#000000;stroke-width:1;"/><line style="stroke:#000000;stroke-width:1;" x1="398.3389" x2="398.3389" y1="1841.8438" y2="1985.2529"/><polygon fill="#000000" points="394.3389,1975.2529,398.3389,1985.2529,402.3389,1975.2529,398.3389,1979.2529" style="stroke:#000000;stroke-width:1;"/><line style="stroke:#000000;stroke-width:1;" x1="398.3389" x2="398.3389" y1="1629.7356" y2="1807.2598"/><polygon fill="#000000" points="394.3389,1797.2598,398.3389,1807.2598,402.3389,1797.2598,398.3389,1801.2598" style="stroke:#000000;stroke-width:1;"/><line style="stroke:#000000;stroke-width:1;" x1="398.3389" x2="398.3389" y1="2247.7444" y2="2406.9529"/><polygon fill="#000000" points="394.3389,2396.9529,398.3389,2406.9529,402.3389,2396.9529,398.3389,2400.9529" style="stroke:#000000;stroke-width:1;"/><line style="stroke:#000000;stroke-width:1;" x1="398.3389" x2="398.3389" y1="2019.8369" y2="2213.1604"/><polygon fill="#000000" points="394.3389,2203.1604,398.3389,2213.1604,402.3389,2203.1604,398.3389,2207.1604" style="stroke:#000000;stroke-width:1;"/><line style="stroke:#000000;stroke-width:1;" x1="398.3389" x2="398.3389" y1="2629.946" y2="2694.3586"/><polygon fill="#000000" points="394.3389,2684.3586,398.3389,2694.3586,402.3389,2684.3586,398.3389,2688.3586" style="stroke:#000000;stroke-width:1;"/><line style="stroke:#000000;stroke-width:1;" x1="398.3389" x2="398.3389" y1="2728.9426" y2="2793.3552"/><polygon fill="#000000" points="394.3389,2783.3552,398.3389,2793.3552,402.3389,2783.3552,398.3389,2787.3552" style="stroke:#000000;stroke-width:1;"/><line style="stroke:#000000;stroke-width:1;" x1="398.3389" x2="398.3389" y1="2441.5369" y2="2595.3621"/><polygon fill="#000000" points="394.3389,2585.3621,398.3389,2595.3621,402.3389,2585.3621,398.3389,2589.3621" style="stroke:#000000;stroke-width:1;"/><line style="stroke:#000000;stroke-width:1;" x1="398.3389" x2="398.3389" y1="2827.9392" y2="2918.5435"/><polygon fill="#000000" points="394.3389,2908.5435,398.3389,2918.5435,402.3389,2908.5435,398.3389,2912.5435" style="stroke:#000000;stroke-width:1;"/><!--SRC=[ZLXTTzos4NtVNu7c9QxESUEUnY_EaxoI6hUoesZbv1bB3dSHaG0BW2jlU_BVSmTV_12jz4qYG73cphrt1liNVwIEHDzAfJVkKUbUMja9MNbrKlui_hSHuhsi7W_M3BhUcjPOqQh3qVTAF_AQiJNP-7pVOYEUNLfhdgQFVjzilF8jYLzf_s2bThsnNbnZcnK_IbstIX_4hY8jhJ9kit5UMh_P81IyfemMtrnSR8tML8N_Rkb4RNpTNLny4s9yz_Fd3rinsHIMVy2ADfw4vP3np-oS6C33kIVtxk82gw_5dJNULAOL9sLQoRjSUFvmknD7HEgEyf548rKxM8fBlv1rV9gcW_4gl3FVy8dyax6FeafV3hWgvuQm7eBwqFL0F0TnsRR2UKkoSyAJxPIMdkgoL4il3vONM-DyUBmZ5sAeJDUtvAazXn3YzxUj8kr5DpWlBAKei4Aw3k348Dw5Gj0KmfkOnGg84Rbx77OYUyvntvf3IHAlKzXKavz4GbABeHUICqmnezWX1W05_9gpa7tVgYe2QPgCPKpVU-hwIHgyHpNyYZMzLV6aajZl2mxz-F1mzzq_nY8lAFH1dsIhQf6stG3ZjUJ3ypNoV9HjOsn7jMZ2bYD9Q2Ecdi-EAux-Cv2k4a4-QpVqB8dofkTZmzhFTvVRVoEZojGiae1feSso03lEF4M_B4GgW77qV4UA_inrCKyYI6dolgN1qGfXuZ6xmDIlwcswF8Uhm7rzUNLzlukfprKOkB7KuXIktj5GczTJf45Wptp_Fp6x9qTUk9ugrQWgwQuSfFH0mi0ZRLPaONgaTnCelXyE1tpg9UxDh6_xqwTFrzk79G7putkc1zHwJx-X15Ilm1gN-EpYcpcZxz-yWMNNvPHNNURbNzFwzomrSSEEBbwfL8PU-cFU0F8RkrTrJLgyaeC_6gl-6qeGTxp5ZXtPawe8vP0dI5JkMyeO9yV9rbxCLLgmB-B6bHqSM5PJAWCYdZa6wnggFgawUT-LOH04KiAtb3lEkqcoatHOU9ISGtWpzPJdH9uIAbDl1VB2oe_ATT9Nnr5s5emIjI6dlqKayR1PU3F2l-lpIP6tipQYD9iu8jsh5eqYGveT5wTfH_dBRz_yFPJo0zj-1ymJL6_Vl0qgBwVofbrECh8RxS1q2N8kWtk9lKd5gvqthKKXxS_YZiYkCfRNdx6LTuiAnkEImluczuZoLIJQvQGNn52L5Zqbp72a6ImuI5-E4lda-cUWkLDoho1r2bbFaDnongNXZbzvNLEZD8YG8K5vFNWiRJtdsxXUm8y752jv1kgipqvH-ofQpmpUcnvCry7NGkyStIhtrlWCQKTiHiEouKWikWHJCRZSYarFLXOKLzfnAyy1-aLADzmr-3GBJl-ItNgjTKutHXhbrAw_L4IGUex_IUdQFCsN9ZrfibnQAnzUfSD3CocclsNHf9OxOXc-amUidFMT0HRmikd7AhJDF88K5uXqjC5g_iJxhzB4jbHEUHuQzzV7hUdol8UM4xmng8uzKAviZfqj4udMv-KiUg1HC464I_ygSsP6SUddz-G7ctNvp6IPG0Azmy0heGPBtfwVQRg6Lg0I3CzVVBXqhFbpIV8MjLc1Xn-BxH4N5pHBgv1MLG1233MrYaKa3WEsm2FpjCdpi-F3MAulX0t9TshiBjFuRJJaXLb_HEKFOKCEuxCRXpwXXsvVvi9i7iAhZipWa-SyAJGO1ZLV1D0DTL31YpQTXFnHQdc8noxDEktOXSagTxBLkOqth8njFsMJS299WqKxwRvPZqd8nLJAU5ODreOR2UQpZFnu8PhOUgiwXOQVv9_HlRFeGdgABZJPaqtJ8kfLFKP10iUphexMw3IzY8ugNEEGzU9B7RPu33dfjN_Y36e6tBK8nAk_CZUKjwzB-rbtyhZhbhEPN1Q-g6xeIdqdMMAHEcFZE5wjt2ZV3qs3VBarPDEhrGJYky_VxQ7L9rNxOmHnClx62SAD8kP14jnwUbQfS5b0My4CgJgs18XdDWQFvDq3ynxX5PlSeQNJs8J2C9USzIK2po-MxD4ewK7HIE1IcgknD2keJrPPiDR8wZWcVSCNK8wP5TRGqsAylrAEnzdYW69myf3dr7geA4qMYCqLUSiMviEDv4GY3tXkZJJmGHGuyt2LCNwM-zWYKJfclep1cwQ9XLAs6Y2KFJ9uH2gO7ZcKiFOlnNy7TpuPYD8VCVGJ4nt3fwrdL0mMFV9b4NWkJUftgp-jTE30aU27m00Zns7IBAx7GLE0cr2MgwpgPyRWGnV08hoG8rIQxosZCnTUn4xXX4U-kOFPi9VzLOLVKw1rRz495dJ3rDjlDY7obXg_oPmhlqEzvplJ7VSIbQQ5G0ZEUU1Rnnujb4Y7to0GJ20Anzo04cs-R4wrqKTtIlu-jQ0ubpceMLNXnXIlFejBvMX7xJaP4ebcq0436VfEi42-AU5qdAqFB93Obp45CNdTea6xJG7b3m00]--></g></svg>