<svg xmlns="http://www.w3.org/2000/svg" xmlns:xlink="http://www.w3.org/1999/xlink" contentStyleType="text/css" data-diagram-type="SEQUENCE" height="1514px" preserveAspectRatio="none" style="width:1102px;height:1514px;background:#FFFFFF;" version="1.1" viewBox="0 0 1102 1514" width="1102px" zoomAndPan="magnify"><title>WebTransport Initialization Phase</title><defs/><g><text fill="#000000" font-family="Verdana" font-size="22" font-weight="bold" lengthAdjust="spacing" textLength="423.4248" x="337.9927" y="37.1182">WebTransport Initialization Phase</text><g><title>Client</title><rect fill="#FFFFFF" height="1217.1665" style="stroke:#000000;stroke-width:1;" width="10" x="176.5991" y="206.3506"/></g><g><title>Server</title><rect fill="#FFFFFF" height="453.5884" style="stroke:#000000;stroke-width:1;" width="10" x="755.8286" y="969.9287"/></g><g><title>Server</title><rect fill="#FFFFFF" height="828.3774" style="stroke:#000000;stroke-width:1;" width="10" x="882.8999" y="595.1396"/></g><g><title>Client App</title><rect fill="#000000" fill-opacity="0.00000" height="1301.7651" width="8" x="45.0562" y="130.752"/><line style="stroke:#000000;stroke-width:1;" x1="49" x2="49" y1="130.752" y2="1432.5171"/></g><g><title>Client</title><rect fill="#000000" fill-opacity="0.00000" height="1301.7651" width="8" x="177.5991" y="130.752"/><line style="stroke:#000000;stroke-width:1;" x1="181.04" x2="181.04" y1="130.752" y2="1432.5171"/></g><g><title>MsQuic</title><rect fill="#000000" fill-opacity="0.00000" height="1301.7651" width="8" x="403.7637" y="130.752"/><line style="stroke:#000000;stroke-width:1;" x1="407.6157" x2="407.6157" y1="130.752" y2="1432.5171"/></g><g><title>Network</title><rect fill="#000000" fill-opacity="0.00000" height="1301.7651" width="8" x="515.1831" y="130.752"/><line style="stroke:#000000;stroke-width:1;" x1="518.9116" x2="518.9116" y1="130.752" y2="1432.5171"/></g><g><title>MsQuic</title><rect fill="#000000" fill-opacity="0.00000" height="1301.7651" width="8" x="629.7573" y="130.752"/><line style="stroke:#000000;stroke-width:1;" x1="633.4546" x2="633.4546" y1="130.752" y2="1432.5171"/></g><g><title>Server</title><rect fill="#000000" fill-opacity="0.00000" height="1301.7651" width="8" x="756.8286" y="130.752"/><line style="stroke:#000000;stroke-width:1;" x1="759.8491" x2="759.8491" y1="130.752" y2="1432.5171"/></g><g><title>Server</title><rect fill="#000000" fill-opacity="0.00000" height="1301.7651" width="8" x="883.8999" y="130.752"/><line style="stroke:#000000;stroke-width:1;" x1="887.3408" x2="887.3408" y1="130.752" y2="1432.5171"/></g><g><title>Server App</title><rect fill="#000000" fill-opacity="0.00000" height="1301.7651" width="8" x="1044.1992" y="130.752"/><line style="stroke:#000000;stroke-width:1;" x1="1047.9883" x2="1047.9883" y1="130.752" y2="1432.5171"/></g><g class="participant participant-head" data-participant="ClientApp"><text fill="#000000" font-family="Verdana" font-size="14" lengthAdjust="spacing" textLength="72.1123" x="10" y="127.8125">Client App</text><ellipse cx="49.0562" cy="61.7373" fill="#FFFFFF" rx="8" ry="8" style="stroke:#000000;stroke-width:1;"/><path d="M49.0562,69.7373 L49.0562,96.7373 M36.0562,77.7373 L62.0562,77.7373 M49.0562,96.7373 L36.0562,111.7373 M49.0562,96.7373 L62.0562,111.7373" fill="none" style="stroke:#000000;stroke-width:1;"/></g><g class="participant participant-tail" data-participant="ClientApp"><text fill="#000000" font-family="Verdana" font-size="14" lengthAdjust="spacing" textLength="72.1123" x="10" y="1445.5923">Client App</text><ellipse cx="49.0562" cy="1457.5317" fill="#FFFFFF" rx="8" ry="8" style="stroke:#000000;stroke-width:1;"/><path d="M49.0562,1465.5317 L49.0562,1492.5317 M36.0562,1473.5317 L62.0562,1473.5317 M49.0562,1492.5317 L36.0562,1507.5317 M49.0562,1492.5317 L62.0562,1507.5317" fill="none" style="stroke:#000000;stroke-width:1;"/></g><g class="participant participant-head" data-participant="ClientCtrl"><rect fill="#FFFFFF" height="48.0293" rx="2.5" ry="2.5" style="stroke:#000000;stroke-width:1;" width="83.1182" x="140.04" y="81.7227"/><text fill="#000000" font-family="Verdana" font-size="14" lengthAdjust="spacing" textLength="40.1748" x="161.5117" y="102.7979">Client</text><text fill="#000000" font-family="Verdana" font-size="14" lengthAdjust="spacing" textLength="69.1182" x="147.04" y="119.8125">Controller</text></g><g class="participant participant-tail" data-participant="ClientCtrl"><rect fill="#FFFFFF" height="48.0293" rx="2.5" ry="2.5" style="stroke:#000000;stroke-width:1;" width="83.1182" x="140.04" y="1431.5171"/><text fill="#000000" font-family="Verdana" font-size="14" lengthAdjust="spacing" textLength="40.1748" x="161.5117" y="1452.5923">Client</text><text fill="#000000" font-family="Verdana" font-size="14" lengthAdjust="spacing" textLength="69.1182" x="147.04" y="1469.6069">Controller</text></g><g class="participant participant-head" data-participant="ClientAPI"><rect fill="#FFFFFF" height="48.0293" rx="2.5" ry="2.5" style="stroke:#000000;stroke-width:1;" width="90.2959" x="362.6157" y="81.7227"/><text fill="#000000" font-family="Verdana" font-size="14" lengthAdjust="spacing" textLength="50.1074" x="382.71" y="102.7979">MsQuic</text><text fill="#000000" font-family="Verdana" font-size="14" lengthAdjust="spacing" textLength="76.2959" x="369.6157" y="119.8125">Client APIs</text></g><g class="participant participant-tail" data-participant="ClientAPI"><rect fill="#FFFFFF" height="48.0293" rx="2.5" ry="2.5" style="stroke:#000000;stroke-width:1;" width="90.2959" x="362.6157" y="1431.5171"/><text fill="#000000" font-family="Verdana" font-size="14" lengthAdjust="spacing" textLength="50.1074" x="382.71" y="1452.5923">MsQuic</text><text fill="#000000" font-family="Verdana" font-size="14" lengthAdjust="spacing" textLength="76.2959" x="369.6157" y="1469.6069">Client APIs</text></g><g class="participant participant-head" data-participant="Net"><rect fill="#FFFFFF" height="31.0146" rx="2.5" ry="2.5" style="stroke:#000000;stroke-width:1;" width="72.543" x="482.9116" y="98.7373"/><text fill="#000000" font-family="Verdana" font-size="14" lengthAdjust="spacing" textLength="58.543" x="489.9116" y="119.8125">Network</text></g><g class="participant participant-tail" data-participant="Net"><rect fill="#FFFFFF" height="31.0146" rx="2.5" ry="2.5" style="stroke:#000000;stroke-width:1;" width="72.543" x="482.9116" y="1431.5171"/><text fill="#000000" font-family="Verdana" font-size="14" lengthAdjust="spacing" textLength="58.543" x="489.9116" y="1452.5923">Network</text></g><g class="participant participant-head" data-participant="ServerAPI"><rect fill="#FFFFFF" height="48.0293" rx="2.5" ry="2.5" style="stroke:#000000;stroke-width:1;" width="96.6055" x="585.4546" y="81.7227"/><text fill="#000000" font-family="Verdana" font-size="14" lengthAdjust="spacing" textLength="50.1074" x="608.7036" y="102.7979">MsQuic</text><text fill="#000000" font-family="Verdana" font-size="14" lengthAdjust="spacing" textLength="82.6055" x="592.4546" y="119.8125">Server APIs</text></g><g class="participant participant-tail" data-participant="ServerAPI"><rect fill="#FFFFFF" height="48.0293" rx="2.5" ry="2.5" style="stroke:#000000;stroke-width:1;" width="96.6055" x="585.4546" y="1431.5171"/><text fill="#000000" font-family="Verdana" font-size="14" lengthAdjust="spacing" textLength="50.1074" x="608.7036" y="1452.5923">MsQuic</text><text fill="#000000" font-family="Verdana" font-size="14" lengthAdjust="spacing" textLength="82.6055" x="592.4546" y="1469.6069">Server APIs</text></g><g class="participant participant-head" data-participant="ServerList"><rect fill="#FFFFFF" height="48.0293" rx="2.5" ry="2.5" style="stroke:#000000;stroke-width:1;" width="69.959" x="725.8491" y="81.7227"/><text fill="#000000" font-family="Verdana" font-size="14" lengthAdjust="spacing" textLength="46.4844" x="737.5864" y="102.7979">Server</text><text fill="#000000" font-family="Verdana" font-size="14" lengthAdjust="spacing" textLength="55.959" x="732.8491" y="119.8125">Listener</text></g><g class="participant participant-tail" data-participant="ServerList"><rect fill="#FFFFFF" height="48.0293" rx="2.5" ry="2.5" style="stroke:#000000;stroke-width:1;" width="69.959" x="725.8491" y="1431.5171"/><text fill="#000000" font-family="Verdana" font-size="14" lengthAdjust="spacing" textLength="46.4844" x="737.5864" y="1452.5923">Server</text><text fill="#000000" font-family="Verdana" font-size="14" lengthAdjust="spacing" textLength="55.959" x="732.8491" y="1469.6069">Listener</text></g><g class="participant participant-head" data-participant="ServerCtrl"><rect fill="#FFFFFF" height="48.0293" rx="2.5" ry="2.5" style="stroke:#000000;stroke-width:1;" width="83.1182" x="846.3408" y="81.7227"/><text fill="#000000" font-family="Verdana" font-size="14" lengthAdjust="spacing" textLength="46.4844" x="864.6577" y="102.7979">Server</text><text fill="#000000" font-family="Verdana" font-size="14" lengthAdjust="spacing" textLength="69.1182" x="853.3408" y="119.8125">Controller</text></g><g class="participant participant-tail" data-participant="ServerCtrl"><rect fill="#FFFFFF" height="48.0293" rx="2.5" ry="2.5" style="stroke:#000000;stroke-width:1;" width="83.1182" x="846.3408" y="1431.5171"/><text fill="#000000" font-family="Verdana" font-size="14" lengthAdjust="spacing" textLength="46.4844" x="864.6577" y="1452.5923">Server</text><text fill="#000000" font-family="Verdana" font-size="14" lengthAdjust="spacing" textLength="69.1182" x="853.3408" y="1469.6069">Controller</text></g><g class="participant participant-head" data-participant="ServerApp"><text fill="#000000" font-family="Verdana" font-size="14" lengthAdjust="spacing" textLength="78.4219" x="1005.9883" y="127.8125">Server App</text><ellipse cx="1048.1992" cy="61.7373" fill="#FFFFFF" rx="8" ry="8" style="stroke:#000000;stroke-width:1;"/><path d="M1048.1992,69.7373 L1048.1992,96.7373 M1035.1992,77.7373 L1061.1992,77.7373 M1048.1992,96.7373 L1035.1992,111.7373 M1048.1992,96.7373 L1061.1992,111.7373" fill="none" style="stroke:#000000;stroke-width:1;"/></g><g class="participant participant-tail" data-participant="ServerApp"><text fill="#000000" font-family="Verdana" font-size="14" lengthAdjust="spacing" textLength="78.4219" x="1005.9883" y="1445.5923">Server App</text><ellipse cx="1048.1992" cy="1457.5317" fill="#FFFFFF" rx="8" ry="8" style="stroke:#000000;stroke-width:1;"/><path d="M1048.1992,1465.5317 L1048.1992,1492.5317 M1035.1992,1473.5317 L1061.1992,1473.5317 M1048.1992,1492.5317 L1035.1992,1507.5317 M1048.1992,1492.5317 L1061.1992,1507.5317" fill="none" style="stroke:#000000;stroke-width:1;"/></g><g><title>Client</title><rect fill="#FFFFFF" height="1217.1665" style="stroke:#000000;stroke-width:1;" width="10" x="176.5991" y="206.3506"/></g><g><title>Server</title><rect fill="#FFFFFF" height="453.5884" style="stroke:#000000;stroke-width:1;" width="10" x="755.8286" y="969.9287"/></g><g><title>Server</title><rect fill="#FFFFFF" height="828.3774" style="stroke:#000000;stroke-width:1;" width="10" x="882.8999" y="595.1396"/></g><rect fill="#FFFFFF" height="3" style="stroke:#FFFFFF;stroke-width:1;" width="1090.4102" x="5" y="161.6516"/><line style="stroke:#000000;stroke-width:0.5;" x1="5" x2="1095.4102" y1="161.6516" y2="161.6516"/><line style="stroke:#000000;stroke-width:0.5;" x1="5" x2="1095.4102" y1="164.6516" y2="164.6516"/><rect fill="#FFFFFF" height="23.7993" style="stroke:#000000;stroke-width:1;" width="158.7266" x="470.8418" y="150.752"/><text fill="#000000" font-family="Verdana" font-size="13" font-weight="bold" lengthAdjust="spacing" textLength="140.2832" x="476.8418" y="167.8218">Client Initialization</text><g class="message" data-participant-1="ClientApp" data-participant-2="ClientCtrl"><polygon fill="#000000" points="164.5991,202.3506,174.5991,206.3506,164.5991,210.3506,168.5991,206.3506" style="stroke:#000000;stroke-width:1;"/><line style="stroke:#000000;stroke-width:1;" x1="49.0562" x2="170.5991" y1="206.3506" y2="206.3506"/><text fill="#000000" font-family="Verdana" font-size="13" lengthAdjust="spacing" textLength="67.2788" x="79.1882" y="201.6211">Initialize()</text></g><g class="message" data-participant-1="ClientCtrl" data-participant-2="ClientAPI"><polygon fill="#000000" points="395.7637,243.0496,405.7637,247.0496,395.7637,251.0496,399.7637,247.0496" style="stroke:#000000;stroke-width:1;"/><line style="stroke:#000000;stroke-width:1;" x1="186.5991" x2="401.7637" y1="247.0496" y2="247.0496"/><text fill="#000000" font-family="Verdana" font-size="13" lengthAdjust="spacing" textLength="100.9023" x="246.7302" y="242.3201">MsQuicOpen2()</text></g><path d="M412,219.3506 L412,260.3506 L576,260.3506 L576,229.3506 L566,219.3506 L412,219.3506" fill="#FFFFFF" style="stroke:#000000;stroke-width:1;"/><path d="M566,219.3506 L566,229.3506 L576,229.3506 L566,219.3506" fill="#FFFFFF" style="stroke:#000000;stroke-width:1;"/><text fill="#000000" font-family="Verdana" font-size="13" lengthAdjust="spacing" textLength="131.8027" x="418" y="237.4204">Open MsQuic library</text><text fill="#000000" font-family="Verdana" font-size="13" lengthAdjust="spacing" textLength="143.7998" x="418" y="253.2197">Get API function table</text><g class="message" data-participant-1="ClientCtrl" data-participant-2="ClientAPI"><polygon fill="#000000" points="395.7637,302.5479,405.7637,306.5479,395.7637,310.5479,399.7637,306.5479" style="stroke:#000000;stroke-width:1;"/><line style="stroke:#000000;stroke-width:1;" x1="186.5991" x2="401.7637" y1="306.5479" y2="306.5479"/><text fill="#000000" font-family="Verdana" font-size="13" lengthAdjust="spacing" textLength="124.6172" x="234.8728" y="301.8184">RegistrationOpen()</text></g><path d="M412,270.9492 L412,327.9492 L657,327.9492 L657,280.9492 L647,270.9492 L412,270.9492" fill="#FFFFFF" style="stroke:#000000;stroke-width:1;"/><path d="M647,270.9492 L647,280.9492 L657,280.9492 L647,270.9492" fill="#FFFFFF" style="stroke:#000000;stroke-width:1;"/><text fill="#000000" font-family="Verdana" font-size="13" lengthAdjust="spacing" textLength="160.6592" x="418" y="289.019">Create registration with:</text><text fill="#000000" font-family="Verdana" font-size="13" lengthAdjust="spacing" textLength="224.9165" x="418" y="304.8184">- AppName: "WebTransportClient"</text><text fill="#000000" font-family="Verdana" font-size="13" lengthAdjust="spacing" textLength="159.415" x="418" y="320.6177">- Profile: LOW_LATENCY</text><g class="message" data-participant-1="ClientCtrl" data-participant-2="ClientAPI"><polygon fill="#000000" points="395.7637,377.8455,405.7637,381.8455,395.7637,385.8455,399.7637,381.8455" style="stroke:#000000;stroke-width:1;"/><line style="stroke:#000000;stroke-width:1;" x1="186.5991" x2="401.7637" y1="381.8455" y2="381.8455"/><text fill="#000000" font-family="Verdana" font-size="13" lengthAdjust="spacing" textLength="133.9292" x="230.2168" y="377.116">ConfigurationOpen()</text></g><path d="M412,338.3472 L412,411.3472 L583,411.3472 L583,348.3472 L573,338.3472 L412,338.3472" fill="#FFFFFF" style="stroke:#000000;stroke-width:1;"/><path d="M573,338.3472 L573,348.3472 L583,348.3472 L573,338.3472" fill="#FFFFFF" style="stroke:#000000;stroke-width:1;"/><text fill="#000000" font-family="Verdana" font-size="13" lengthAdjust="spacing" textLength="68.853" x="418" y="356.417">Configure:</text><text fill="#000000" font-family="Verdana" font-size="13" lengthAdjust="spacing" textLength="83.0591" x="418" y="372.2163">- ALPN: "h3"</text><text fill="#000000" font-family="Verdana" font-size="13" lengthAdjust="spacing" textLength="114.2261" x="418" y="388.0156">- Stream settings</text><text fill="#000000" font-family="Verdana" font-size="13" lengthAdjust="spacing" textLength="150.0332" x="418" y="403.8149">- Flow control windows</text><g class="message" data-participant-1="ClientCtrl" data-participant-2="ClientAPI"><polygon fill="#000000" points="395.7637,461.0427,405.7637,465.0427,395.7637,469.0427,399.7637,465.0427" style="stroke:#000000;stroke-width:1;"/><line style="stroke:#000000;stroke-width:1;" x1="186.5991" x2="401.7637" y1="465.0427" y2="465.0427"/><text fill="#000000" font-family="Verdana" font-size="13" lengthAdjust="spacing" textLength="197.1646" x="198.5991" y="460.3132">ConfigurationLoadCredential()</text></g><path d="M412,421.5444 L412,494.5444 L704,494.5444 L704,431.5444 L694,421.5444 L412,421.5444" fill="#FFFFFF" style="stroke:#000000;stroke-width:1;"/><path d="M694,421.5444 L694,431.5444 L704,431.5444 L694,421.5444" fill="#FFFFFF" style="stroke:#000000;stroke-width:1;"/><text fill="#000000" font-family="Verdana" font-size="13" lengthAdjust="spacing" textLength="118.752" x="418" y="439.6143">Client credentials:</text><text fill="#000000" font-family="Verdana" font-size="13" lengthAdjust="spacing" textLength="222.8979" x="418" y="455.4136">- Type: CREDENTIAL_TYPE_NONE</text><text fill="#000000" font-family="Verdana" font-size="13" lengthAdjust="spacing" textLength="271.1084" x="418" y="471.2129">- Flags: CLIENT | NO_CERT_VALIDATION</text><text fill="#000000" font-family="Verdana" font-size="13" lengthAdjust="spacing" textLength="157.1934" x="418" y="487.0122">- Allow self-signed certs</text><g class="message" data-participant-1="ClientCtrl" data-participant-2="ClientApp"><polygon fill="#000000" points="60.0562,517.541,50.0562,521.541,60.0562,525.541,56.0562,521.541" style="stroke:#000000;stroke-width:1;"/><line style="stroke:#000000;stroke-width:1;" x1="54.0562" x2="175.5991" y1="521.541" y2="521.541"/><text fill="#000000" font-family="Verdana" font-size="13" lengthAdjust="spacing" textLength="37.3052" x="61.0562" y="516.8115">Client</text><text fill="#000000" font-family="Verdana" font-size="13" lengthAdjust="spacing" textLength="4.5703" x="98.3613" y="516.8115">&#160;</text><text fill="#000000" font-family="Verdana" font-size="13" lengthAdjust="spacing" textLength="61.6675" x="102.9316" y="516.8115">initialized</text></g><rect fill="#FFFFFF" height="3" style="stroke:#FFFFFF;stroke-width:1;" width="1090.4102" x="5" y="550.4407"/><line style="stroke:#000000;stroke-width:0.5;" x1="5" x2="1095.4102" y1="550.4407" y2="550.4407"/><line style="stroke:#000000;stroke-width:0.5;" x1="5" x2="1095.4102" y1="553.4407" y2="553.4407"/><rect fill="#FFFFFF" height="23.7993" style="stroke:#000000;stroke-width:1;" width="164.4902" x="467.96" y="539.541"/><text fill="#000000" font-family="Verdana" font-size="13" font-weight="bold" lengthAdjust="spacing" textLength="146.0469" x="473.96" y="556.6108">Server Initialization</text><g class="message" data-participant-1="ServerApp" data-participant-2="ServerCtrl"><polygon fill="#000000" points="903.8999,591.1396,893.8999,595.1396,903.8999,599.1396,899.8999,595.1396" style="stroke:#000000;stroke-width:1;"/><line style="stroke:#000000;stroke-width:1;" x1="897.8999" x2="1047.1992" y1="595.1396" y2="595.1396"/><text fill="#000000" font-family="Verdana" font-size="13" lengthAdjust="spacing" textLength="67.2788" x="936.9102" y="590.4102">Initialize()</text></g><g class="message" data-participant-1="ServerCtrl" data-participant-2="ServerAPI"><polygon fill="#000000" points="644.7573,631.8386,634.7573,635.8386,644.7573,639.8386,640.7573,635.8386" style="stroke:#000000;stroke-width:1;"/><line style="stroke:#000000;stroke-width:1;" x1="638.7573" x2="881.8999" y1="635.8386" y2="635.8386"/><text fill="#000000" font-family="Verdana" font-size="13" lengthAdjust="spacing" textLength="100.9023" x="707.8774" y="631.1091">MsQuicOpen2()</text></g><path d="M463,608.1396 L463,649.1396 L627,649.1396 L627,618.1396 L617,608.1396 L463,608.1396" fill="#FFFFFF" style="stroke:#000000;stroke-width:1;"/><path d="M617,608.1396 L617,618.1396 L627,618.1396 L617,608.1396" fill="#FFFFFF" style="stroke:#000000;stroke-width:1;"/><text fill="#000000" font-family="Verdana" font-size="13" lengthAdjust="spacing" textLength="131.8027" x="469" y="626.2095">Open MsQuic library</text><text fill="#000000" font-family="Verdana" font-size="13" lengthAdjust="spacing" textLength="143.7998" x="469" y="642.0088">Get API function table</text><g class="message" data-participant-1="ServerCtrl" data-participant-2="ServerAPI"><polygon fill="#000000" points="644.7573,691.3369,634.7573,695.3369,644.7573,699.3369,640.7573,695.3369" style="stroke:#000000;stroke-width:1;"/><line style="stroke:#000000;stroke-width:1;" x1="638.7573" x2="881.8999" y1="695.3369" y2="695.3369"/><text fill="#000000" font-family="Verdana" font-size="13" lengthAdjust="spacing" textLength="124.6172" x="696.02" y="690.6074">RegistrationOpen()</text></g><path d="M376,659.7383 L376,716.7383 L627,716.7383 L627,669.7383 L617,659.7383 L376,659.7383" fill="#FFFFFF" style="stroke:#000000;stroke-width:1;"/><path d="M617,659.7383 L617,669.7383 L627,669.7383 L617,659.7383" fill="#FFFFFF" style="stroke:#000000;stroke-width:1;"/><text fill="#000000" font-family="Verdana" font-size="13" lengthAdjust="spacing" textLength="160.6592" x="382" y="677.8081">Create registration with:</text><text fill="#000000" font-family="Verdana" font-size="13" lengthAdjust="spacing" textLength="230.7754" x="382" y="693.6074">- AppName: "WebTransportServer"</text><text fill="#000000" font-family="Verdana" font-size="13" lengthAdjust="spacing" textLength="159.415" x="382" y="709.4067">- Profile: LOW_LATENCY</text><g class="message" data-participant-1="ServerCtrl" data-participant-2="ServerAPI"><polygon fill="#000000" points="644.7573,774.5342,634.7573,778.5342,644.7573,782.5342,640.7573,778.5342" style="stroke:#000000;stroke-width:1;"/><line style="stroke:#000000;stroke-width:1;" x1="638.7573" x2="881.8999" y1="778.5342" y2="778.5342"/><text fill="#000000" font-family="Verdana" font-size="13" lengthAdjust="spacing" textLength="133.9292" x="691.364" y="773.8047">ConfigurationOpen()</text></g><path d="M457,727.1362 L457,815.1362 L628,815.1362 L628,737.1362 L618,727.1362 L457,727.1362" fill="#FFFFFF" style="stroke:#000000;stroke-width:1;"/><path d="M618,727.1362 L618,737.1362 L628,737.1362 L618,727.1362" fill="#FFFFFF" style="stroke:#000000;stroke-width:1;"/><text fill="#000000" font-family="Verdana" font-size="13" lengthAdjust="spacing" textLength="68.853" x="463" y="745.2061">Configure:</text><text fill="#000000" font-family="Verdana" font-size="13" lengthAdjust="spacing" textLength="83.0591" x="463" y="761.0054">- ALPN: "h3"</text><text fill="#000000" font-family="Verdana" font-size="13" lengthAdjust="spacing" textLength="114.2261" x="463" y="776.8047">- Stream settings</text><text fill="#000000" font-family="Verdana" font-size="13" lengthAdjust="spacing" textLength="150.0332" x="463" y="792.604">- Flow control windows</text><text fill="#000000" font-family="Verdana" font-size="13" lengthAdjust="spacing" textLength="129.6572" x="463" y="808.4033">- Datagram support</text><g class="message" data-participant-1="ServerCtrl" data-participant-2="ServerAPI"><polygon fill="#000000" points="644.7573,865.6311,634.7573,869.6311,644.7573,873.6311,640.7573,869.6311" style="stroke:#000000;stroke-width:1;"/><line style="stroke:#000000;stroke-width:1;" x1="638.7573" x2="881.8999" y1="869.6311" y2="869.6311"/><text fill="#000000" font-family="Verdana" font-size="13" lengthAdjust="spacing" textLength="197.1646" x="659.7463" y="864.9016">ConfigurationLoadCredential()</text></g><path d="M370,826.1328 L370,899.1328 L628,899.1328 L628,836.1328 L618,826.1328 L370,826.1328" fill="#FFFFFF" style="stroke:#000000;stroke-width:1;"/><path d="M618,826.1328 L618,836.1328 L628,836.1328 L618,826.1328" fill="#FFFFFF" style="stroke:#000000;stroke-width:1;"/><text fill="#000000" font-family="Verdana" font-size="13" lengthAdjust="spacing" textLength="124.6108" x="376" y="844.2026">Server credentials:</text><text fill="#000000" font-family="Verdana" font-size="13" lengthAdjust="spacing" textLength="237.6816" x="376" y="860.002">- Type: CERTIFICATE_HASH_STORE</text><text fill="#000000" font-family="Verdana" font-size="13" lengthAdjust="spacing" textLength="212.6084" x="376" y="875.8013">- Certificate from Windows store</text><text fill="#000000" font-family="Verdana" font-size="13" lengthAdjust="spacing" textLength="156.8379" x="376" y="891.6006">- Machine store location</text><rect fill="#FFFFFF" height="3" style="stroke:#FFFFFF;stroke-width:1;" width="1090.4102" x="5" y="925.2297"/><line style="stroke:#000000;stroke-width:0.5;" x1="5" x2="1095.4102" y1="925.2297" y2="925.2297"/><line style="stroke:#000000;stroke-width:0.5;" x1="5" x2="1095.4102" y1="928.2297" y2="928.2297"/><rect fill="#FFFFFF" height="23.7993" style="stroke:#000000;stroke-width:1;" width="176.6968" x="461.8567" y="914.3301"/><text fill="#000000" font-family="Verdana" font-size="13" font-weight="bold" lengthAdjust="spacing" textLength="158.2534" x="467.8567" y="931.3999">Server Listener Setup</text><g class="message" data-participant-1="ServerCtrl" data-participant-2="ServerList"><polygon fill="#000000" points="776.8286,965.9287,766.8286,969.9287,776.8286,973.9287,772.8286,969.9287" style="stroke:#000000;stroke-width:1;"/><line style="stroke:#000000;stroke-width:1;" x1="770.8286" x2="881.8999" y1="969.9287" y2="969.9287"/><text fill="#000000" font-family="Verdana" font-size="13" lengthAdjust="spacing" textLength="98.0713" x="775.3286" y="965.1992">ListenerOpen()</text></g><g class="message" data-participant-1="ServerList" data-participant-2="ServerAPI"><polygon fill="#000000" points="644.7573,1014.5273,634.7573,1018.5273,644.7573,1022.5273,640.7573,1018.5273" style="stroke:#000000;stroke-width:1;"/><line style="stroke:#000000;stroke-width:1;" x1="638.7573" x2="754.8286" y1="1018.5273" y2="1018.5273"/><text fill="#000000" font-family="Verdana" font-size="13" lengthAdjust="spacing" textLength="98.0713" x="645.7573" y="1013.7979">ListenerOpen()</text></g><path d="M382,982.9287 L382,1039.9287 L627,1039.9287 L627,992.9287 L617,982.9287 L382,982.9287" fill="#FFFFFF" style="stroke:#000000;stroke-width:1;"/><path d="M617,982.9287 L617,992.9287 L627,992.9287 L617,982.9287" fill="#FFFFFF" style="stroke:#000000;stroke-width:1;"/><text fill="#000000" font-family="Verdana" font-size="13" lengthAdjust="spacing" textLength="133.9355" x="388" y="1000.9985">Create listener with:</text><text fill="#000000" font-family="Verdana" font-size="13" lengthAdjust="spacing" textLength="224.8594" x="388" y="1016.7979">- Callback: ServerListenerCallback</text><text fill="#000000" font-family="Verdana" font-size="13" lengthAdjust="spacing" textLength="179.1689" x="388" y="1032.5972">- Context: ServerController</text><g class="message" data-participant-1="ServerList" data-participant-2="ServerAPI"><polygon fill="#000000" points="644.7573,1089.825,634.7573,1093.825,644.7573,1097.825,640.7573,1093.825" style="stroke:#000000;stroke-width:1;"/><line style="stroke:#000000;stroke-width:1;" x1="638.7573" x2="754.8286" y1="1093.825" y2="1093.825"/><text fill="#000000" font-family="Verdana" font-size="13" lengthAdjust="spacing" textLength="96.2559" x="646.665" y="1089.0955">ListenerStart()</text></g><path d="M446,1050.3267 L446,1123.3267 L627,1123.3267 L627,1060.3267 L617,1050.3267 L446,1050.3267" fill="#FFFFFF" style="stroke:#000000;stroke-width:1;"/><path d="M617,1050.3267 L617,1060.3267 L627,1060.3267 L617,1050.3267" fill="#FFFFFF" style="stroke:#000000;stroke-width:1;"/><text fill="#000000" font-family="Verdana" font-size="13" lengthAdjust="spacing" textLength="97.8555" x="452" y="1068.3965">Start listening:</text><text fill="#000000" font-family="Verdana" font-size="13" lengthAdjust="spacing" textLength="80.4058" x="452" y="1084.1958">- Port: 4443</text><text fill="#000000" font-family="Verdana" font-size="13" lengthAdjust="spacing" textLength="160.9004" x="452" y="1099.9951">- Address: INADDR_ANY</text><text fill="#000000" font-family="Verdana" font-size="13" lengthAdjust="spacing" textLength="83.0591" x="452" y="1115.7944">- ALPN: "h3"</text><g class="message" data-participant-1="ServerList" data-participant-2="ServerApp"><polygon fill="#000000" points="1036.1992,1146.3232,1046.1992,1150.3232,1036.1992,1154.3232,1040.1992,1150.3232" style="stroke:#000000;stroke-width:1;"/><line style="stroke:#000000;stroke-width:1;" x1="765.8286" x2="1042.1992" y1="1150.3232" y2="1150.3232"/><text fill="#000000" font-family="Verdana" font-size="13" lengthAdjust="spacing" textLength="40.3838" x="834.6411" y="1145.5938">Ready</text><text fill="#000000" font-family="Verdana" font-size="13" lengthAdjust="spacing" textLength="4.5703" x="875.0249" y="1145.5938">&#160;</text><text fill="#000000" font-family="Verdana" font-size="13" lengthAdjust="spacing" textLength="18.0083" x="879.5952" y="1145.5938">for</text><text fill="#000000" font-family="Verdana" font-size="13" lengthAdjust="spacing" textLength="4.5703" x="897.6035" y="1145.5938">&#160;</text><text fill="#000000" font-family="Verdana" font-size="13" lengthAdjust="spacing" textLength="77.2129" x="902.1738" y="1145.5938">connections</text></g><path d="M649,1163.3232 L649,1204.3232 L872,1204.3232 L872,1173.3232 L862,1163.3232 L649,1163.3232" fill="#FFFFFF" style="stroke:#000000;stroke-width:1;"/><path d="M862,1163.3232 L862,1173.3232 L872,1173.3232 L862,1163.3232" fill="#FFFFFF" style="stroke:#000000;stroke-width:1;"/><text fill="#000000" font-family="Verdana" font-size="13" lengthAdjust="spacing" textLength="133.9546" x="655" y="1181.3931">Server now listening</text><text fill="#000000" font-family="Verdana" font-size="13" lengthAdjust="spacing" textLength="202.2236" x="655" y="1197.1924">for incoming QUIC connections</text><rect fill="#FFFFFF" height="3" style="stroke:#FFFFFF;stroke-width:1;" width="1090.4102" x="5" y="1230.8215"/><line style="stroke:#000000;stroke-width:0.5;" x1="5" x2="1095.4102" y1="1230.8215" y2="1230.8215"/><line style="stroke:#000000;stroke-width:0.5;" x1="5" x2="1095.4102" y1="1233.8215" y2="1233.8215"/><rect fill="#FFFFFF" height="23.7993" style="stroke:#000000;stroke-width:1;" width="185.4248" x="457.4927" y="1219.9219"/><text fill="#000000" font-family="Verdana" font-size="13" font-weight="bold" lengthAdjust="spacing" textLength="166.9814" x="463.4927" y="1236.9917">Initialization Complete</text><path d="M132,1258.7212 L132,1299.7212 L936,1299.7212 L936,1268.7212 L926,1258.7212 L132,1258.7212" fill="#FFFFFF" style="stroke:#000000;stroke-width:1;"/><path d="M926,1258.7212 L926,1268.7212 L936,1268.7212 L926,1258.7212" fill="#FFFFFF" style="stroke:#000000;stroke-width:1;"/><text fill="#000000" font-family="Verdana" font-size="13" lengthAdjust="spacing" textLength="235.9551" x="411.7319" y="1276.791">Both client and server are initialized</text><text fill="#000000" font-family="Verdana" font-size="13" lengthAdjust="spacing" textLength="233.9619" x="411.7319" y="1292.5903">Ready for connection establishment</text><g class="message" data-participant-1="ClientCtrl" data-participant-2="ClientCtrl"><line style="stroke:#000000;stroke-width:1;" x1="186.5991" x2="228.5991" y1="1342.9185" y2="1342.9185"/><line style="stroke:#000000;stroke-width:1;" x1="228.5991" x2="228.5991" y1="1342.9185" y2="1355.9185"/><line style="stroke:#000000;stroke-width:1;" x1="187.5991" x2="228.5991" y1="1355.9185" y2="1355.9185"/><polygon fill="#000000" points="197.5991,1351.9185,187.5991,1355.9185,197.5991,1359.9185,193.5991,1355.9185" style="stroke:#000000;stroke-width:1;"/><text fill="#000000" font-family="Verdana" font-size="13" lengthAdjust="spacing" textLength="40.5869" x="193.5991" y="1322.3896">State:</text><text fill="#000000" font-family="Verdana" font-size="13" lengthAdjust="spacing" textLength="4.5703" x="234.186" y="1322.3896">&#160;</text><text fill="#000000" font-family="Verdana" font-size="13" lengthAdjust="spacing" textLength="40.3838" x="238.7563" y="1322.3896">Ready</text><text fill="#000000" font-family="Verdana" font-size="13" lengthAdjust="spacing" textLength="4.5703" x="279.1401" y="1322.3896">&#160;</text><text fill="#000000" font-family="Verdana" font-size="13" lengthAdjust="spacing" textLength="18.0083" x="283.7104" y="1322.3896">for</text><text fill="#000000" font-family="Verdana" font-size="13" lengthAdjust="spacing" textLength="77.2129" x="209.0525" y="1338.189">connections</text></g><g class="message" data-participant-1="ServerCtrl" data-participant-2="ServerCtrl"><line style="stroke:#000000;stroke-width:1;" x1="892.8999" x2="934.8999" y1="1401.5171" y2="1401.5171"/><line style="stroke:#000000;stroke-width:1;" x1="934.8999" x2="934.8999" y1="1401.5171" y2="1414.5171"/><line style="stroke:#000000;stroke-width:1;" x1="893.8999" x2="934.8999" y1="1414.5171" y2="1414.5171"/><polygon fill="#000000" points="903.8999,1410.5171,893.8999,1414.5171,903.8999,1418.5171,899.8999,1414.5171" style="stroke:#000000;stroke-width:1;"/><text fill="#000000" font-family="Verdana" font-size="13" lengthAdjust="spacing" textLength="40.5869" x="899.8999" y="1380.9883">State:</text><text fill="#000000" font-family="Verdana" font-size="13" lengthAdjust="spacing" textLength="4.5703" x="940.4868" y="1380.9883">&#160;</text><text fill="#000000" font-family="Verdana" font-size="13" lengthAdjust="spacing" textLength="58.5635" x="945.0571" y="1380.9883">Listening</text><text fill="#000000" font-family="Verdana" font-size="13" lengthAdjust="spacing" textLength="4.5703" x="1003.6206" y="1380.9883">&#160;</text><text fill="#000000" font-family="Verdana" font-size="13" lengthAdjust="spacing" textLength="18.0083" x="1008.1909" y="1380.9883">for</text><text fill="#000000" font-family="Verdana" font-size="13" lengthAdjust="spacing" textLength="77.2129" x="924.4431" y="1396.7876">connections</text></g><!--SRC=[fLRVRzem47xFN-7nj4chjAtT2nAJia2tI6cWm5PLGa8cES2giJFRz9Vsn-_ic11IWhhj3P-_k_lkxlE5DsOD6o05fqm4-ew9WYgw8Hf-RK5aS0LQqnM4dAq4oK0OK3NKXZvwm8Gz0_du-KCG66Oua1jOJ1KLkf3Aa5WmmoXdpzGmASXeJJK40SsCLAGJSOPXILWK7K8rAOzu2Z25OHahADvwr4n4KXWbEGTLGqT6yKFubRxUiWpXFlWerlNee_WGde9vaEhEGV3tyLWJKFUWzh7AyujOfNac4gOD2C-pD5hJSN2ZhDBiol9TsYNtNVAviKj1h-UhQhQvrmk2gflax4kjMQIx1yFRTpO9kwS6wlqCQl3A6Qj5tx8ZmmB49tGM4XqLMwqDNbcZloUSBHHLJpFn3Tm8o78hCaVDq0M7Knd6iC9UALU83TbC4ocmT5KDHXwOMNTduimsAQKRw99ENOLb-8u5Z9HSCew0P7WpJyBf88rkJx71wIpPQdk2ZWT0cJyPfPXyVUwIJGnojG_A62PMsfekkNmWMJbof2ro-Q1VdJ-HDCVoSxp5-RrWKaeXgm3QKPe-5LXkD1xq1-aq3fFvz7OqcAV3T53oeIkDrqcCj-GtIOVpQ32Upd-6ITmFf_4mTMLnIri3Nvvft0QGupvGfequIgvYmogjvKwlNin7z5hfsaRQlu9MlTOUIb23LywjUkMm_6kvjYTeawlFyWzgBQEVK6ixcLQrxjZylrYjlKyDNRbFnRQmZ5zDwRY0FJalZHRzeYZZopZ27io_XvFlyybqE7OAZb29RCaos-QbaXjoKn8b6hSdMCGLpTPCG6aWN6QEIrsEkuMDPxCjQd8yhCZ2aEWExHlSKAJRz47DeT6GXlSHiV0Tcqee4ULyGRExRYs7HUpi3eDpWaUpW-m_AwyXCp7uQMhEmzey6LI48pB2QNV9nSN5kHDGdYly3u0lD0tx_V4yJ6yFTTMIsYs8CT3yYIpn2uSA4-2Ucou9o7itYbhB_Pm4wh4YD1FMcObCRl14hd_4qK4eEz_6dedafk206Uo4zwdsM-pzuURvAisQPEKceoB7n-5eK9HHRR7DnB5Q26YxF9XURz3z-AhqQR3J1jewSao8Xtx9hYClVFy0]--></g></svg>