<svg xmlns="http://www.w3.org/2000/svg" xmlns:xlink="http://www.w3.org/1999/xlink" contentStyleType="text/css" data-diagram-type="SEQUENCE" height="1938px" preserveAspectRatio="none" style="width:1699px;height:1938px;background:#FFFFFF;" version="1.1" viewBox="0 0 1699 1938" width="1699px" zoomAndPan="magnify"><title>WebTransport Session Establishment Phase</title><defs/><g><text fill="#000000" font-family="Verdana" font-size="22" font-weight="bold" lengthAdjust="spacing" textLength="542.4912" x="577.1606" y="37.1182">WebTransport Session Establishment Phase</text><g><title>WebTransport</title><rect fill="#FFFFFF" height="1569.2532" style="stroke:#000000;stroke-width:1;" width="10" x="611.9561" y="307.2615"/></g><g><title>WebTransport</title><rect fill="#FFFFFF" height="713.6785" style="stroke:#000000;stroke-width:1;" width="10" x="1284.916" y="1162.8362"/></g><g><title>Server</title><rect fill="#000000" fill-opacity="0.00000" height="1783.748" width="8" x="276.5776" y="101.7666"/><line style="stroke:#000000;stroke-width:1;" x1="280" x2="280" y1="101.7666" y2="1885.5146"/></g><g><title>Server</title><rect fill="#000000" fill-opacity="0.00000" height="1783.748" width="8" x="439.915" y="101.7666"/><line style="stroke:#000000;stroke-width:1;" x1="443.356" x2="443.356" y1="101.7666" y2="1885.5146"/></g><g><title>WebTransport</title><rect fill="#000000" fill-opacity="0.00000" height="1783.748" width="8" x="612.9561" y="101.7666"/><line style="stroke:#000000;stroke-width:1;" x1="616.0474" x2="616.0474" y1="101.7666" y2="1885.5146"/></g><g><title>Network</title><rect fill="#000000" fill-opacity="0.00000" height="1783.748" width="8" x="781.4565" y="101.7666"/><line style="stroke:#000000;stroke-width:1;" x1="785.1851" x2="785.1851" y1="101.7666" y2="1885.5146"/></g><g><title>Client</title><rect fill="#000000" fill-opacity="0.00000" height="1783.748" width="8" x="976.1831" y="101.7666"/><line style="stroke:#000000;stroke-width:1;" x1="979.6055" x2="979.6055" y1="101.7666" y2="1885.5146"/></g><g><title>Client</title><rect fill="#000000" fill-opacity="0.00000" height="1783.748" width="8" x="1126.9839" y="101.7666"/><line style="stroke:#000000;stroke-width:1;" x1="1130.4248" x2="1130.4248" y1="101.7666" y2="1885.5146"/></g><g><title>WebTransport</title><rect fill="#000000" fill-opacity="0.00000" height="1783.748" width="8" x="1285.916" y="101.7666"/><line style="stroke:#000000;stroke-width:1;" x1="1289.1621" x2="1289.1621" y1="101.7666" y2="1885.5146"/></g><g class="participant participant-head" data-participant="ServerReqStream"><rect fill="#FFFFFF" height="48.0293" rx="2.5" ry="2.5" style="stroke:#000000;stroke-width:1;" width="127.1553" x="217" y="52.7373"/><text fill="#000000" font-family="Verdana" font-size="14" lengthAdjust="spacing" textLength="46.4844" x="257.3354" y="73.8125">Server</text><text fill="#000000" font-family="Verdana" font-size="14" lengthAdjust="spacing" textLength="113.1553" x="224" y="90.8271">Request Stream</text></g><g class="participant participant-tail" data-participant="ServerReqStream"><rect fill="#FFFFFF" height="48.0293" rx="2.5" ry="2.5" style="stroke:#000000;stroke-width:1;" width="127.1553" x="217" y="1884.5146"/><text fill="#000000" font-family="Verdana" font-size="14" lengthAdjust="spacing" textLength="46.4844" x="257.3354" y="1905.5898">Server</text><text fill="#000000" font-family="Verdana" font-size="14" lengthAdjust="spacing" textLength="113.1553" x="224" y="1922.6045">Request Stream</text></g><g class="participant participant-head" data-participant="ServerCtrl"><rect fill="#FFFFFF" height="48.0293" rx="2.5" ry="2.5" style="stroke:#000000;stroke-width:1;" width="83.1182" x="402.356" y="52.7373"/><text fill="#000000" font-family="Verdana" font-size="14" lengthAdjust="spacing" textLength="46.4844" x="420.6729" y="73.8125">Server</text><text fill="#000000" font-family="Verdana" font-size="14" lengthAdjust="spacing" textLength="69.1182" x="409.356" y="90.8271">Controller</text></g><g class="participant participant-tail" data-participant="ServerCtrl"><rect fill="#FFFFFF" height="48.0293" rx="2.5" ry="2.5" style="stroke:#000000;stroke-width:1;" width="83.1182" x="402.356" y="1884.5146"/><text fill="#000000" font-family="Verdana" font-size="14" lengthAdjust="spacing" textLength="46.4844" x="420.6729" y="1905.5898">Server</text><text fill="#000000" font-family="Verdana" font-size="14" lengthAdjust="spacing" textLength="69.1182" x="409.356" y="1922.6045">Controller</text></g><g class="participant participant-head" data-participant="ServerSession"><rect fill="#FFFFFF" height="48.0293" rx="2.5" ry="2.5" style="stroke:#000000;stroke-width:1;" width="131.8174" x="551.0474" y="52.7373"/><text fill="#000000" font-family="Verdana" font-size="14" lengthAdjust="spacing" textLength="98.7793" x="567.5664" y="73.8125">WebTransport</text><text fill="#000000" font-family="Verdana" font-size="14" lengthAdjust="spacing" textLength="117.8174" x="558.0474" y="90.8271">Session (Server)</text></g><g class="participant participant-tail" data-participant="ServerSession"><rect fill="#FFFFFF" height="48.0293" rx="2.5" ry="2.5" style="stroke:#000000;stroke-width:1;" width="131.8174" x="551.0474" y="1884.5146"/><text fill="#000000" font-family="Verdana" font-size="14" lengthAdjust="spacing" textLength="98.7793" x="567.5664" y="1905.5898">WebTransport</text><text fill="#000000" font-family="Verdana" font-size="14" lengthAdjust="spacing" textLength="117.8174" x="558.0474" y="1922.6045">Session (Server)</text></g><g class="participant participant-head" data-participant="Net"><rect fill="#FFFFFF" height="31.0146" rx="2.5" ry="2.5" style="stroke:#000000;stroke-width:1;" width="72.543" x="749.1851" y="69.752"/><text fill="#000000" font-family="Verdana" font-size="14" lengthAdjust="spacing" textLength="58.543" x="756.1851" y="90.8271">Network</text></g><g class="participant participant-tail" data-participant="Net"><rect fill="#FFFFFF" height="31.0146" rx="2.5" ry="2.5" style="stroke:#000000;stroke-width:1;" width="72.543" x="749.1851" y="1884.5146"/><text fill="#000000" font-family="Verdana" font-size="14" lengthAdjust="spacing" textLength="58.543" x="756.1851" y="1905.5898">Network</text></g><g class="participant participant-head" data-participant="ClientReqStream"><rect fill="#FFFFFF" height="48.0293" rx="2.5" ry="2.5" style="stroke:#000000;stroke-width:1;" width="127.1553" x="916.6055" y="52.7373"/><text fill="#000000" font-family="Verdana" font-size="14" lengthAdjust="spacing" textLength="40.1748" x="960.0957" y="73.8125">Client</text><text fill="#000000" font-family="Verdana" font-size="14" lengthAdjust="spacing" textLength="113.1553" x="923.6055" y="90.8271">Request Stream</text></g><g class="participant participant-tail" data-participant="ClientReqStream"><rect fill="#FFFFFF" height="48.0293" rx="2.5" ry="2.5" style="stroke:#000000;stroke-width:1;" width="127.1553" x="916.6055" y="1884.5146"/><text fill="#000000" font-family="Verdana" font-size="14" lengthAdjust="spacing" textLength="40.1748" x="960.0957" y="1905.5898">Client</text><text fill="#000000" font-family="Verdana" font-size="14" lengthAdjust="spacing" textLength="113.1553" x="923.6055" y="1922.6045">Request Stream</text></g><g class="participant participant-head" data-participant="ClientCtrl"><rect fill="#FFFFFF" height="48.0293" rx="2.5" ry="2.5" style="stroke:#000000;stroke-width:1;" width="83.1182" x="1089.4248" y="52.7373"/><text fill="#000000" font-family="Verdana" font-size="14" lengthAdjust="spacing" textLength="40.1748" x="1110.8965" y="73.8125">Client</text><text fill="#000000" font-family="Verdana" font-size="14" lengthAdjust="spacing" textLength="69.1182" x="1096.4248" y="90.8271">Controller</text></g><g class="participant participant-tail" data-participant="ClientCtrl"><rect fill="#FFFFFF" height="48.0293" rx="2.5" ry="2.5" style="stroke:#000000;stroke-width:1;" width="83.1182" x="1089.4248" y="1884.5146"/><text fill="#000000" font-family="Verdana" font-size="14" lengthAdjust="spacing" textLength="40.1748" x="1110.8965" y="1905.5898">Client</text><text fill="#000000" font-family="Verdana" font-size="14" lengthAdjust="spacing" textLength="69.1182" x="1096.4248" y="1922.6045">Controller</text></g><g class="participant participant-head" data-participant="ClientSession"><rect fill="#FFFFFF" height="48.0293" rx="2.5" ry="2.5" style="stroke:#000000;stroke-width:1;" width="125.5078" x="1227.1621" y="52.7373"/><text fill="#000000" font-family="Verdana" font-size="14" lengthAdjust="spacing" textLength="98.7793" x="1240.5264" y="73.8125">WebTransport</text><text fill="#000000" font-family="Verdana" font-size="14" lengthAdjust="spacing" textLength="111.5078" x="1234.1621" y="90.8271">Session (Client)</text></g><g class="participant participant-tail" data-participant="ClientSession"><rect fill="#FFFFFF" height="48.0293" rx="2.5" ry="2.5" style="stroke:#000000;stroke-width:1;" width="125.5078" x="1227.1621" y="1884.5146"/><text fill="#000000" font-family="Verdana" font-size="14" lengthAdjust="spacing" textLength="98.7793" x="1240.5264" y="1905.5898">WebTransport</text><text fill="#000000" font-family="Verdana" font-size="14" lengthAdjust="spacing" textLength="111.5078" x="1234.1621" y="1922.6045">Session (Client)</text></g><g><title>WebTransport</title><rect fill="#FFFFFF" height="1569.2532" style="stroke:#000000;stroke-width:1;" width="10" x="611.9561" y="307.2615"/></g><g><title>WebTransport</title><rect fill="#FFFFFF" height="713.6785" style="stroke:#000000;stroke-width:1;" width="10" x="1284.916" y="1162.8362"/></g><rect fill="#FFFFFF" height="3" style="stroke:#FFFFFF;stroke-width:1;" width="1687.8125" x="5" y="132.6663"/><line style="stroke:#000000;stroke-width:0.5;" x1="5" x2="1692.8125" y1="132.6663" y2="132.6663"/><line style="stroke:#000000;stroke-width:0.5;" x1="5" x2="1692.8125" y1="135.6663" y2="135.6663"/><rect fill="#FFFFFF" height="23.7993" style="stroke:#000000;stroke-width:1;" width="258.8228" x="719.4949" y="121.7666"/><text fill="#000000" font-family="Verdana" font-size="13" font-weight="bold" lengthAdjust="spacing" textLength="240.3794" x="725.4949" y="138.8364">Server Processes Valid CONNECT</text><path d="M141,160.5659 L141,201.5659 L418,201.5659 L418,170.5659 L408,160.5659 L141,160.5659" fill="#FFFFFF" style="stroke:#000000;stroke-width:1;"/><path d="M408,160.5659 L408,170.5659 L418,170.5659 L408,160.5659" fill="#FFFFFF" style="stroke:#000000;stroke-width:1;"/><text fill="#000000" font-family="Verdana" font-size="13" lengthAdjust="spacing" textLength="256.3438" x="147" y="178.6357">Valid WebTransport CONNECT received</text><text fill="#000000" font-family="Verdana" font-size="13" lengthAdjust="spacing" textLength="172.5356" x="147" y="194.4351">Ready to establish session</text><g class="message" data-participant-1="ServerReqStream" data-participant-2="ServerCtrl"><polygon fill="#000000" points="431.915,243.7632,441.915,247.7632,431.915,251.7632,435.915,247.7632" style="stroke:#000000;stroke-width:1;"/><line style="stroke:#000000;stroke-width:1;" x1="280.5776" x2="437.915" y1="247.7632" y2="247.7632"/><text fill="#000000" font-family="Verdana" font-size="13" lengthAdjust="spacing" textLength="43.0435" x="292.5776" y="227.2344">Create</text><text fill="#000000" font-family="Verdana" font-size="13" lengthAdjust="spacing" textLength="4.5703" x="335.6211" y="227.2344">&#160;</text><text fill="#000000" font-family="Verdana" font-size="13" lengthAdjust="spacing" textLength="91.7236" x="340.1914" y="227.2344">WebTransport</text><text fill="#000000" font-family="Verdana" font-size="13" lengthAdjust="spacing" textLength="47.7471" x="338.3728" y="243.0337">session</text></g><path d="M87,212.1646 L87,253.1646 L275,253.1646 L275,222.1646 L265,212.1646 L87,212.1646" fill="#FFFFFF" style="stroke:#000000;stroke-width:1;"/><path d="M265,212.1646 L265,222.1646 L275,222.1646 L265,212.1646" fill="#FFFFFF" style="stroke:#000000;stroke-width:1;"/><text fill="#000000" font-family="Verdana" font-size="13" lengthAdjust="spacing" textLength="167.3369" x="93" y="230.2344">Authority: localhost:4443</text><text fill="#000000" font-family="Verdana" font-size="13" lengthAdjust="spacing" textLength="131.9932" x="93" y="246.0337">Path: /webtransport</text><g class="message" data-participant-1="ServerCtrl" data-participant-2="ServerSession"><polygon fill="#000000" points="599.9561,303.2615,609.9561,307.2615,599.9561,311.2615,603.9561,307.2615" style="stroke:#000000;stroke-width:1;"/><line style="stroke:#000000;stroke-width:1;" x1="443.915" x2="605.9561" y1="307.2615" y2="307.2615"/><text fill="#000000" font-family="Verdana" font-size="13" lengthAdjust="spacing" textLength="43.0435" x="457.9177" y="302.532">Create</text><text fill="#000000" font-family="Verdana" font-size="13" lengthAdjust="spacing" textLength="4.5703" x="500.9612" y="302.532">&#160;</text><text fill="#000000" font-family="Verdana" font-size="13" lengthAdjust="spacing" textLength="47.7471" x="505.5315" y="302.532">session</text><text fill="#000000" font-family="Verdana" font-size="13" lengthAdjust="spacing" textLength="4.5703" x="553.2786" y="302.532">&#160;</text><text fill="#000000" font-family="Verdana" font-size="13" lengthAdjust="spacing" textLength="40.1045" x="557.8489" y="302.532">object</text></g><path d="M164,263.7632 L164,336.7632 L438,336.7632 L438,273.7632 L428,263.7632 L164,263.7632" fill="#FFFFFF" style="stroke:#000000;stroke-width:1;"/><path d="M428,263.7632 L428,273.7632 L438,273.7632 L428,263.7632" fill="#FFFFFF" style="stroke:#000000;stroke-width:1;"/><text fill="#000000" font-family="Verdana" font-size="13" font-weight="bold" lengthAdjust="spacing" textLength="127.334" x="170" y="281.833">Session Creation:</text><text fill="#000000" font-family="Verdana" font-size="13" lengthAdjust="spacing" textLength="167.3369" x="170" y="297.6323">Authority: localhost:4443</text><text fill="#000000" font-family="Verdana" font-size="13" lengthAdjust="spacing" textLength="131.9932" x="170" y="313.4316">Path: /webtransport</text><text fill="#000000" font-family="Verdana" font-size="13" lengthAdjust="spacing" textLength="253.1318" x="170" y="329.231">State: INITIALIZING &#226;&#8224;&#8217; CONNECTING</text><g class="message" data-participant-1="ServerSession" data-participant-2="ServerSession"><line style="stroke:#000000;stroke-width:1;" x1="621.9561" x2="663.9561" y1="399.7581" y2="399.7581"/><line style="stroke:#000000;stroke-width:1;" x1="663.9561" x2="663.9561" y1="399.7581" y2="412.7581"/><line style="stroke:#000000;stroke-width:1;" x1="622.9561" x2="663.9561" y1="412.7581" y2="412.7581"/><polygon fill="#000000" points="632.9561,408.7581,622.9561,412.7581,632.9561,416.7581,628.9561,412.7581" style="stroke:#000000;stroke-width:1;"/><text fill="#000000" font-family="Verdana" font-size="13" lengthAdjust="spacing" textLength="49.3403" x="628.9561" y="379.2292">Process</text><text fill="#000000" font-family="Verdana" font-size="13" lengthAdjust="spacing" textLength="4.5703" x="678.2964" y="379.2292">&#160;</text><text fill="#000000" font-family="Verdana" font-size="13" lengthAdjust="spacing" textLength="64.0669" x="682.8667" y="379.2292">CONNECT</text><text fill="#000000" font-family="Verdana" font-size="13" lengthAdjust="spacing" textLength="49.2578" x="663.3159" y="395.0286">request</text></g><path d="M382,346.9604 L382,434.9604 L606,434.9604 L606,356.9604 L596,346.9604 L382,346.9604" fill="#FFFFFF" style="stroke:#000000;stroke-width:1;"/><path d="M596,346.9604 L596,356.9604 L606,356.9604 L596,346.9604" fill="#FFFFFF" style="stroke:#000000;stroke-width:1;"/><text fill="#000000" font-family="Verdana" font-size="13" font-weight="bold" lengthAdjust="spacing" textLength="145.0122" x="388" y="365.0303">Session Processing:</text><text fill="#000000" font-family="Verdana" font-size="13" lengthAdjust="spacing" textLength="203.4043" x="388" y="380.8296">1. Validate request parameters</text><text fill="#000000" font-family="Verdana" font-size="13" lengthAdjust="spacing" textLength="181.3081" x="388" y="396.6289">2. Check path authorization</text><text fill="#000000" font-family="Verdana" font-size="13" lengthAdjust="spacing" textLength="188.8301" x="388" y="412.4282">3. Allocate session resources</text><text fill="#000000" font-family="Verdana" font-size="13" lengthAdjust="spacing" textLength="167.9146" x="388" y="428.2275">4. Prepare for acceptance</text><rect fill="#FFFFFF" height="3" style="stroke:#FFFFFF;stroke-width:1;" width="1687.8125" x="5" y="461.8567"/><line style="stroke:#000000;stroke-width:0.5;" x1="5" x2="1692.8125" y1="461.8567" y2="461.8567"/><line style="stroke:#000000;stroke-width:0.5;" x1="5" x2="1692.8125" y1="464.8567" y2="464.8567"/><rect fill="#FFFFFF" height="23.7993" style="stroke:#000000;stroke-width:1;" width="246.959" x="725.4268" y="450.957"/><text fill="#000000" font-family="Verdana" font-size="13" font-weight="bold" lengthAdjust="spacing" textLength="228.5156" x="731.4268" y="468.0269">Server Sends 200 OK Response</text><g class="message" data-participant-1="ServerSession" data-participant-2="ServerReqStream"><polygon fill="#000000" points="291.5776,518.355,281.5776,522.355,291.5776,526.355,287.5776,522.355" style="stroke:#000000;stroke-width:1;"/><line style="stroke:#000000;stroke-width:1;" x1="285.5776" x2="610.9561" y1="522.355" y2="522.355"/><text fill="#000000" font-family="Verdana" font-size="13" lengthAdjust="spacing" textLength="43.3989" x="376.4204" y="501.8262">Accept</text><text fill="#000000" font-family="Verdana" font-size="13" lengthAdjust="spacing" textLength="4.5703" x="419.8193" y="501.8262">&#160;</text><text fill="#000000" font-family="Verdana" font-size="13" lengthAdjust="spacing" textLength="91.7236" x="424.3896" y="501.8262">WebTransport</text><text fill="#000000" font-family="Verdana" font-size="13" lengthAdjust="spacing" textLength="47.7471" x="422.3933" y="517.6255">session</text></g><path d="M44,494.656 L44,519.656 L274,519.656 L274,504.656 L264,494.656 L44,494.656" fill="#FFFFFF" style="stroke:#000000;stroke-width:1;"/><path d="M264,494.656 L264,504.656 L274,504.656 L264,494.656" fill="#FFFFFF" style="stroke:#000000;stroke-width:1;"/><text fill="#000000" font-family="Verdana" font-size="13" lengthAdjust="spacing" textLength="209.8916" x="50" y="512.7258">Session ready for establishment</text><g class="message" data-participant-1="ServerReqStream" data-participant-2="ServerReqStream"><line style="stroke:#000000;stroke-width:1;" x1="280.5776" x2="322.5776" y1="588.1526" y2="588.1526"/><line style="stroke:#000000;stroke-width:1;" x1="322.5776" x2="322.5776" y1="588.1526" y2="601.1526"/><line style="stroke:#000000;stroke-width:1;" x1="281.5776" x2="322.5776" y1="601.1526" y2="601.1526"/><polygon fill="#000000" points="291.5776,597.1526,281.5776,601.1526,291.5776,605.1526,287.5776,601.1526" style="stroke:#000000;stroke-width:1;"/><text fill="#000000" font-family="Verdana" font-size="13" lengthAdjust="spacing" textLength="32.373" x="287.5776" y="567.6238">Build</text><text fill="#000000" font-family="Verdana" font-size="13" lengthAdjust="spacing" textLength="4.5703" x="319.9507" y="567.6238">&#160;</text><text fill="#000000" font-family="Verdana" font-size="13" lengthAdjust="spacing" textLength="47.7979" x="324.521" y="567.6238">HTTP/3</text><text fill="#000000" font-family="Verdana" font-size="13" lengthAdjust="spacing" textLength="4.5703" x="372.3188" y="567.6238">&#160;</text><text fill="#000000" font-family="Verdana" font-size="13" lengthAdjust="spacing" textLength="24.7939" x="376.8892" y="567.6238">200</text><text fill="#000000" font-family="Verdana" font-size="13" lengthAdjust="spacing" textLength="4.5703" x="401.6831" y="567.6238">&#160;</text><text fill="#000000" font-family="Verdana" font-size="13" lengthAdjust="spacing" textLength="19.2397" x="406.2534" y="567.6238">OK</text><text fill="#000000" font-family="Verdana" font-size="13" lengthAdjust="spacing" textLength="58.7983" x="327.1362" y="583.4231">response</text></g><path d="M10,535.355 L10,623.355 L276,623.355 L276,545.355 L266,535.355 L10,535.355" fill="#FFFFFF" style="stroke:#000000;stroke-width:1;"/><path d="M266,535.355 L266,545.355 L276,545.355 L266,535.355" fill="#FFFFFF" style="stroke:#000000;stroke-width:1;"/><text fill="#000000" font-family="Verdana" font-size="13" font-weight="bold" lengthAdjust="spacing" textLength="124.5981" x="16" y="553.4248">HEADERS Frame:</text><text fill="#000000" font-family="Verdana" font-size="13" lengthAdjust="spacing" textLength="120.2944" x="16" y="569.2241">Frame Type: 0x01</text><text fill="#000000" font-family="Verdana" font-size="13" lengthAdjust="spacing" textLength="109.1797" x="16" y="585.0234">Frame Length: 1</text><text fill="#000000" font-family="Verdana" font-size="13" font-weight="bold" lengthAdjust="spacing" textLength="121.3037" x="16" y="600.8228">QPACK Encoded:</text><text fill="#000000" font-family="Verdana" font-size="13" lengthAdjust="spacing" textLength="245.0132" x="16" y="616.6221">:status: 200 (static index 15 = 0x8F)</text><g class="message" data-participant-1="ServerReqStream" data-participant-2="Net"><polygon fill="#000000" points="773.4565,673.8499,783.4565,677.8499,773.4565,681.8499,777.4565,677.8499" style="stroke:#000000;stroke-width:1;"/><line style="stroke:#000000;stroke-width:1;" x1="280.5776" x2="779.4565" y1="677.8499" y2="677.8499"/><text fill="#000000" font-family="Verdana" font-size="13" lengthAdjust="spacing" textLength="32.957" x="490.3545" y="657.321">Send</text><text fill="#000000" font-family="Verdana" font-size="13" lengthAdjust="spacing" textLength="4.5703" x="523.3115" y="657.321">&#160;</text><text fill="#000000" font-family="Verdana" font-size="13" lengthAdjust="spacing" textLength="47.7979" x="527.8818" y="657.321">HTTP/3</text><text fill="#000000" font-family="Verdana" font-size="13" lengthAdjust="spacing" textLength="156.0063" x="455.0139" y="673.1204">HEADERS(:status=200)</text></g><path d="M122,634.3516 L122,691.3516 L275,691.3516 L275,644.3516 L265,634.3516 L122,634.3516" fill="#FFFFFF" style="stroke:#000000;stroke-width:1;"/><path d="M265,634.3516 L265,644.3516 L275,644.3516 L265,634.3516" fill="#FFFFFF" style="stroke:#000000;stroke-width:1;"/><text fill="#000000" font-family="Verdana" font-size="13" font-weight="bold" lengthAdjust="spacing" textLength="125.7979" x="128" y="652.4214">Response Frame:</text><text fill="#000000" font-family="Verdana" font-size="13" lengthAdjust="spacing" textLength="132.0884" x="128" y="668.2207">[0x01][0x01][0x8F]</text><text fill="#000000" font-family="Verdana" font-size="13" lengthAdjust="spacing" textLength="91.1396" x="128" y="684.02">Total: 3 bytes</text><g class="message" data-participant-1="ServerSession" data-participant-2="ServerSession"><line style="stroke:#000000;stroke-width:1;" x1="621.9561" x2="663.9561" y1="734.3481" y2="734.3481"/><line style="stroke:#000000;stroke-width:1;" x1="663.9561" x2="663.9561" y1="734.3481" y2="747.3481"/><line style="stroke:#000000;stroke-width:1;" x1="622.9561" x2="663.9561" y1="747.3481" y2="747.3481"/><polygon fill="#000000" points="632.9561,743.3481,622.9561,747.3481,632.9561,751.3481,628.9561,747.3481" style="stroke:#000000;stroke-width:1;"/><text fill="#000000" font-family="Verdana" font-size="13" lengthAdjust="spacing" textLength="40.5869" x="628.9561" y="713.8193">State:</text><text fill="#000000" font-family="Verdana" font-size="13" lengthAdjust="spacing" textLength="4.5703" x="669.543" y="713.8193">&#160;</text><text fill="#000000" font-family="Verdana" font-size="13" lengthAdjust="spacing" textLength="89.3433" x="674.1133" y="713.8193">CONNECTING</text><text fill="#000000" font-family="Verdana" font-size="13" lengthAdjust="spacing" textLength="19.5635" x="642.9875" y="729.6187">&#226;&#8224;&#8217;</text><text fill="#000000" font-family="Verdana" font-size="13" lengthAdjust="spacing" textLength="4.5703" x="662.551" y="729.6187">&#160;</text><text fill="#000000" font-family="Verdana" font-size="13" lengthAdjust="spacing" textLength="82.3037" x="667.1213" y="729.6187">CONNECTED</text></g><path d="M353,705.2495 L353,746.2495 L606,746.2495 L606,715.2495 L596,705.2495 L353,705.2495" fill="#FFFFFF" style="stroke:#000000;stroke-width:1;"/><path d="M596,705.2495 L596,715.2495 L606,715.2495 L596,705.2495" fill="#FFFFFF" style="stroke:#000000;stroke-width:1;"/><text fill="#000000" font-family="Verdana" font-size="13" lengthAdjust="spacing" textLength="127.9561" x="359" y="723.3193">Session established</text><text fill="#000000" font-family="Verdana" font-size="13" lengthAdjust="spacing" textLength="232.4956" x="359" y="739.1187">Ready for WebTransport operations</text><g class="message" data-participant-1="ServerSession" data-participant-2="ServerCtrl"><polygon fill="#000000" points="454.915,791.9468,444.915,795.9468,454.915,799.9468,450.915,795.9468" style="stroke:#000000;stroke-width:1;"/><line style="stroke:#000000;stroke-width:1;" x1="448.915" x2="610.9561" y1="795.9468" y2="795.9468"/><text fill="#000000" font-family="Verdana" font-size="13" lengthAdjust="spacing" textLength="91.7236" x="455.915" y="775.418">WebTransport</text><text fill="#000000" font-family="Verdana" font-size="13" lengthAdjust="spacing" textLength="4.5703" x="547.6387" y="775.418">&#160;</text><text fill="#000000" font-family="Verdana" font-size="13" lengthAdjust="spacing" textLength="47.7471" x="552.209" y="775.418">session</text><text fill="#000000" font-family="Verdana" font-size="13" lengthAdjust="spacing" textLength="73.5249" x="491.1731" y="791.2173">established</text></g><path d="M242,760.3481 L242,801.3481 L438,801.3481 L438,770.3481 L428,760.3481 L242,760.3481" fill="#FFFFFF" style="stroke:#000000;stroke-width:1;"/><path d="M428,760.3481 L428,770.3481 L438,770.3481 L428,760.3481" fill="#FFFFFF" style="stroke:#000000;stroke-width:1;"/><text fill="#000000" font-family="Verdana" font-size="13" lengthAdjust="spacing" textLength="122.0464" x="248" y="778.418">Notify controller of</text><text fill="#000000" font-family="Verdana" font-size="13" lengthAdjust="spacing" textLength="175.7666" x="248" y="794.2173">successful session creation</text><rect fill="#FFFFFF" height="3" style="stroke:#FFFFFF;stroke-width:1;" width="1687.8125" x="5" y="827.8464"/><line style="stroke:#000000;stroke-width:0.5;" x1="5" x2="1692.8125" y1="827.8464" y2="827.8464"/><line style="stroke:#000000;stroke-width:0.5;" x1="5" x2="1692.8125" y1="830.8464" y2="830.8464"/><rect fill="#FFFFFF" height="23.7993" style="stroke:#000000;stroke-width:1;" width="187.0054" x="755.4036" y="816.9468"/><text fill="#000000" font-family="Verdana" font-size="13" font-weight="bold" lengthAdjust="spacing" textLength="168.562" x="761.4036" y="834.0166">Client Receives 200 OK</text><g class="message" data-participant-1="Net" data-participant-2="ClientReqStream"><polygon fill="#000000" points="968.1831,879.4451,978.1831,883.4451,968.1831,887.4451,972.1831,883.4451" style="stroke:#000000;stroke-width:1;"/><line style="stroke:#000000;stroke-width:1;" x1="785.4565" x2="974.1831" y1="883.4451" y2="883.4451"/><text fill="#000000" font-family="Verdana" font-size="13" lengthAdjust="spacing" textLength="170.7266" x="797.4565" y="878.7156">STREAM_EVENT_RECEIVE</text></g><path d="M985,855.7461 L985,896.7461 L1174,896.7461 L1174,865.7461 L1164,855.7461 L985,855.7461" fill="#FFFFFF" style="stroke:#000000;stroke-width:1;"/><path d="M1164,855.7461 L1164,865.7461 L1174,865.7461 L1164,855.7461" fill="#FFFFFF" style="stroke:#000000;stroke-width:1;"/><text fill="#000000" font-family="Verdana" font-size="13" lengthAdjust="spacing" textLength="168.5557" x="991" y="873.8159">Stream callback triggered</text><text fill="#000000" font-family="Verdana" font-size="13" lengthAdjust="spacing" textLength="124.3315" x="991" y="889.6152">with response data</text><g class="message" data-participant-1="ClientReqStream" data-participant-2="ClientReqStream"><line style="stroke:#000000;stroke-width:1;" x1="980.1831" x2="1022.1831" y1="952.2427" y2="952.2427"/><line style="stroke:#000000;stroke-width:1;" x1="1022.1831" x2="1022.1831" y1="952.2427" y2="965.2427"/><line style="stroke:#000000;stroke-width:1;" x1="981.1831" x2="1022.1831" y1="965.2427" y2="965.2427"/><polygon fill="#000000" points="991.1831,961.2427,981.1831,965.2427,991.1831,969.2427,987.1831,965.2427" style="stroke:#000000;stroke-width:1;"/><text fill="#000000" font-family="Verdana" font-size="13" lengthAdjust="spacing" textLength="35.7119" x="987.1831" y="931.7139">Parse</text><text fill="#000000" font-family="Verdana" font-size="13" lengthAdjust="spacing" textLength="4.5703" x="1022.895" y="931.7139">&#160;</text><text fill="#000000" font-family="Verdana" font-size="13" lengthAdjust="spacing" textLength="47.7979" x="1027.4653" y="931.7139">HTTP/3</text><text fill="#000000" font-family="Verdana" font-size="13" lengthAdjust="spacing" textLength="58.7983" x="1001.824" y="947.5132">response</text></g><path d="M1087.0801,907.3447 L1087.0801,980.3447 L1298.0801,980.3447 L1298.0801,917.3447 L1288.0801,907.3447 L1087.0801,907.3447" fill="#FFFFFF" style="stroke:#000000;stroke-width:1;"/><path d="M1288.0801,907.3447 L1288.0801,917.3447 L1298.0801,917.3447 L1288.0801,907.3447" fill="#FFFFFF" style="stroke:#000000;stroke-width:1;"/><text fill="#000000" font-family="Verdana" font-size="13" font-weight="bold" lengthAdjust="spacing" textLength="159.2246" x="1093.0801" y="925.4146">Response Processing:</text><text fill="#000000" font-family="Verdana" font-size="13" lengthAdjust="spacing" textLength="178.2549" x="1093.0801" y="941.2139">1. Parse frame type (0x01)</text><text fill="#000000" font-family="Verdana" font-size="13" lengthAdjust="spacing" textLength="190.582" x="1093.0801" y="957.0132">2. Parse frame length (0x01)</text><text fill="#000000" font-family="Verdana" font-size="13" lengthAdjust="spacing" textLength="190.3154" x="1093.0801" y="972.8125">3. Parse status (0x8F = 200)</text><g class="message" data-participant-1="ClientReqStream" data-participant-2="ClientReqStream"><line style="stroke:#000000;stroke-width:1;" x1="980.1831" x2="1022.1831" y1="1027.5403" y2="1027.5403"/><line style="stroke:#000000;stroke-width:1;" x1="1022.1831" x2="1022.1831" y1="1027.5403" y2="1040.5403"/><line style="stroke:#000000;stroke-width:1;" x1="981.1831" x2="1022.1831" y1="1040.5403" y2="1040.5403"/><polygon fill="#000000" points="991.1831,1036.5403,981.1831,1040.5403,991.1831,1044.5403,987.1831,1040.5403" style="stroke:#000000;stroke-width:1;"/><text fill="#000000" font-family="Verdana" font-size="13" lengthAdjust="spacing" textLength="42.5229" x="987.1831" y="1022.8108">Detect</text><text fill="#000000" font-family="Verdana" font-size="13" lengthAdjust="spacing" textLength="4.5703" x="1029.7061" y="1022.8108">&#160;</text><text fill="#000000" font-family="Verdana" font-size="13" lengthAdjust="spacing" textLength="81.1611" x="1034.2764" y="1022.8108">:status=200</text></g><path d="M1127.2544,990.542 L1127.2544,1063.542 L1371.2544,1063.542 L1371.2544,1000.542 L1361.2544,990.542 L1127.2544,990.542" fill="#FFFFFF" style="stroke:#000000;stroke-width:1;"/><path d="M1361.2544,990.542 L1361.2544,1000.542 L1371.2544,1000.542 L1361.2544,990.542" fill="#FFFFFF" style="stroke:#000000;stroke-width:1;"/><text fill="#000000" font-family="Verdana" font-size="13" font-weight="bold" lengthAdjust="spacing" textLength="117.2222" x="1133.2544" y="1008.6118">Status Analysis:</text><text fill="#000000" font-family="Verdana" font-size="13" lengthAdjust="spacing" textLength="184.5518" x="1133.2544" y="1024.4111">0x8F = static table index 15</text><text fill="#000000" font-family="Verdana" font-size="13" lengthAdjust="spacing" textLength="159.1104" x="1133.2544" y="1040.2104">Index 15 = :status: 200</text><text fill="#000000" font-family="Verdana" font-size="13" lengthAdjust="spacing" textLength="223.0947" x="1133.2544" y="1056.0098">WebTransport CONNECT accepted</text><g class="message" data-participant-1="ClientReqStream" data-participant-2="ClientCtrl"><polygon fill="#000000" points="1118.9839,1102.3379,1128.9839,1106.3379,1118.9839,1110.3379,1122.9839,1106.3379" style="stroke:#000000;stroke-width:1;"/><line style="stroke:#000000;stroke-width:1;" x1="980.1831" x2="1124.9839" y1="1106.3379" y2="1106.3379"/><text fill="#000000" font-family="Verdana" font-size="13" lengthAdjust="spacing" textLength="91.7236" x="1009.7217" y="1085.8091">WebTransport</text><text fill="#000000" font-family="Verdana" font-size="13" lengthAdjust="spacing" textLength="64.0669" x="992.1831" y="1101.6084">CONNECT</text><text fill="#000000" font-family="Verdana" font-size="13" lengthAdjust="spacing" textLength="4.5703" x="1056.25" y="1101.6084">&#160;</text><text fill="#000000" font-family="Verdana" font-size="13" lengthAdjust="spacing" textLength="58.1636" x="1060.8203" y="1101.6084">accepted</text></g><path d="M1135,1078.6389 L1135,1103.6389 L1347,1103.6389 L1347,1088.6389 L1337,1078.6389 L1135,1078.6389" fill="#FFFFFF" style="stroke:#000000;stroke-width:1;"/><path d="M1337,1078.6389 L1337,1088.6389 L1347,1088.6389 L1337,1078.6389" fill="#FFFFFF" style="stroke:#000000;stroke-width:1;"/><text fill="#000000" font-family="Verdana" font-size="13" lengthAdjust="spacing" textLength="191.166" x="1141" y="1096.7087">Successful response received</text><g class="message" data-participant-1="ClientCtrl" data-participant-2="ClientSession"><polygon fill="#000000" points="1272.916,1158.8362,1282.916,1162.8362,1272.916,1166.8362,1276.916,1162.8362" style="stroke:#000000;stroke-width:1;"/><line style="stroke:#000000;stroke-width:1;" x1="1130.9839" x2="1278.916" y1="1162.8362" y2="1162.8362"/><text fill="#000000" font-family="Verdana" font-size="13" lengthAdjust="spacing" textLength="43.0435" x="1140.4839" y="1158.1067">Create</text><text fill="#000000" font-family="Verdana" font-size="13" lengthAdjust="spacing" textLength="4.5703" x="1183.5273" y="1158.1067">&#160;</text><text fill="#000000" font-family="Verdana" font-size="13" lengthAdjust="spacing" textLength="35.001" x="1188.0977" y="1158.1067">client</text><text fill="#000000" font-family="Verdana" font-size="13" lengthAdjust="spacing" textLength="4.5703" x="1223.0986" y="1158.1067">&#160;</text><text fill="#000000" font-family="Verdana" font-size="13" lengthAdjust="spacing" textLength="47.7471" x="1227.6689" y="1158.1067">session</text></g><path d="M1299,1119.3379 L1299,1192.3379 L1565,1192.3379 L1565,1129.3379 L1555,1119.3379 L1299,1119.3379" fill="#FFFFFF" style="stroke:#000000;stroke-width:1;"/><path d="M1555,1119.3379 L1555,1129.3379 L1565,1129.3379 L1555,1119.3379" fill="#FFFFFF" style="stroke:#000000;stroke-width:1;"/><text fill="#000000" font-family="Verdana" font-size="13" font-weight="bold" lengthAdjust="spacing" textLength="107.707" x="1305" y="1137.4077">Client Session:</text><text fill="#000000" font-family="Verdana" font-size="13" lengthAdjust="spacing" textLength="167.3369" x="1305" y="1153.207">Authority: localhost:4443</text><text fill="#000000" font-family="Verdana" font-size="13" lengthAdjust="spacing" textLength="131.9932" x="1305" y="1169.0063">Path: /webtransport</text><text fill="#000000" font-family="Verdana" font-size="13" lengthAdjust="spacing" textLength="245.5083" x="1305" y="1184.8057">State: CONNECTING &#226;&#8224;&#8217; CONNECTED</text><rect fill="#FFFFFF" height="3" style="stroke:#FFFFFF;stroke-width:1;" width="1687.8125" x="5" y="1218.4348"/><line style="stroke:#000000;stroke-width:0.5;" x1="5" x2="1692.8125" y1="1218.4348" y2="1218.4348"/><line style="stroke:#000000;stroke-width:0.5;" x1="5" x2="1692.8125" y1="1221.4348" y2="1221.4348"/><rect fill="#FFFFFF" height="23.7993" style="stroke:#000000;stroke-width:1;" width="255.7822" x="721.0151" y="1207.5352"/><text fill="#000000" font-family="Verdana" font-size="13" font-weight="bold" lengthAdjust="spacing" textLength="237.3389" x="727.0151" y="1224.605">Session Establishment Complete</text><g class="message" data-participant-1="ClientSession" data-participant-2="ClientSession"><line style="stroke:#000000;stroke-width:1;" x1="1294.916" x2="1336.916" y1="1283.3328" y2="1283.3328"/><line style="stroke:#000000;stroke-width:1;" x1="1336.916" x2="1336.916" y1="1283.3328" y2="1296.3328"/><line style="stroke:#000000;stroke-width:1;" x1="1295.916" x2="1336.916" y1="1296.3328" y2="1296.3328"/><polygon fill="#000000" points="1305.916,1292.3328,1295.916,1296.3328,1305.916,1300.3328,1301.916,1296.3328" style="stroke:#000000;stroke-width:1;"/><text fill="#000000" font-family="Verdana" font-size="13" lengthAdjust="spacing" textLength="49.8608" x="1301.916" y="1278.6033">Session</text><text fill="#000000" font-family="Verdana" font-size="13" lengthAdjust="spacing" textLength="4.5703" x="1351.7769" y="1278.6033">&#160;</text><text fill="#000000" font-family="Verdana" font-size="13" lengthAdjust="spacing" textLength="36.8926" x="1356.3472" y="1278.6033">ready</text></g><path d="M1414.3237,1246.3345 L1414.3237,1319.3345 L1676.3237,1319.3345 L1676.3237,1256.3345 L1666.3237,1246.3345 L1414.3237,1246.3345" fill="#FFFFFF" style="stroke:#000000;stroke-width:1;"/><path d="M1666.3237,1246.3345 L1666.3237,1256.3345 L1676.3237,1256.3345 L1666.3237,1246.3345" fill="#FFFFFF" style="stroke:#000000;stroke-width:1;"/><text fill="#000000" font-family="Verdana" font-size="13" font-weight="bold" lengthAdjust="spacing" textLength="157.187" x="1420.3237" y="1264.4043">Client Session Ready:</text><text fill="#000000" font-family="Verdana" font-size="13" lengthAdjust="spacing" textLength="234.1714" x="1420.3237" y="1280.2036">- Can create WebTransport streams</text><text fill="#000000" font-family="Verdana" font-size="13" lengthAdjust="spacing" textLength="241.5728" x="1420.3237" y="1296.0029">- Can send WebTransport datagrams</text><text fill="#000000" font-family="Verdana" font-size="13" lengthAdjust="spacing" textLength="170.625" x="1420.3237" y="1311.8022">- Session fully established</text><g class="message" data-participant-1="ServerSession" data-participant-2="ServerSession"><line style="stroke:#000000;stroke-width:1;" x1="621.9561" x2="663.9561" y1="1366.53" y2="1366.53"/><line style="stroke:#000000;stroke-width:1;" x1="663.9561" x2="663.9561" y1="1366.53" y2="1379.53"/><line style="stroke:#000000;stroke-width:1;" x1="622.9561" x2="663.9561" y1="1379.53" y2="1379.53"/><polygon fill="#000000" points="632.9561,1375.53,622.9561,1379.53,632.9561,1383.53,628.9561,1379.53" style="stroke:#000000;stroke-width:1;"/><text fill="#000000" font-family="Verdana" font-size="13" lengthAdjust="spacing" textLength="49.8608" x="628.9561" y="1361.8005">Session</text><text fill="#000000" font-family="Verdana" font-size="13" lengthAdjust="spacing" textLength="4.5703" x="678.8169" y="1361.8005">&#160;</text><text fill="#000000" font-family="Verdana" font-size="13" lengthAdjust="spacing" textLength="36.8926" x="683.3872" y="1361.8005">ready</text></g><path d="M328,1329.5317 L328,1402.5317 L606,1402.5317 L606,1339.5317 L596,1329.5317 L328,1329.5317" fill="#FFFFFF" style="stroke:#000000;stroke-width:1;"/><path d="M596,1329.5317 L596,1339.5317 L606,1339.5317 L596,1329.5317" fill="#FFFFFF" style="stroke:#000000;stroke-width:1;"/><text fill="#000000" font-family="Verdana" font-size="13" font-weight="bold" lengthAdjust="spacing" textLength="162.9507" x="334" y="1347.6016">Server Session Ready:</text><text fill="#000000" font-family="Verdana" font-size="13" lengthAdjust="spacing" textLength="235.752" x="334" y="1363.4009">- Can accept WebTransport streams</text><text fill="#000000" font-family="Verdana" font-size="13" lengthAdjust="spacing" textLength="257.5435" x="334" y="1379.2002">- Can receive WebTransport datagrams</text><text fill="#000000" font-family="Verdana" font-size="13" lengthAdjust="spacing" textLength="170.625" x="334" y="1394.9995">- Session fully established</text><rect fill="#FFFFFF" height="3" style="stroke:#FFFFFF;stroke-width:1;" width="1687.8125" x="5" y="1428.6287"/><line style="stroke:#000000;stroke-width:0.5;" x1="5" x2="1692.8125" y1="1428.6287" y2="1428.6287"/><line style="stroke:#000000;stroke-width:0.5;" x1="5" x2="1692.8125" y1="1431.6287" y2="1431.6287"/><rect fill="#FFFFFF" height="23.7993" style="stroke:#000000;stroke-width:1;" width="232.2134" x="732.7996" y="1417.729"/><text fill="#000000" font-family="Verdana" font-size="13" font-weight="bold" lengthAdjust="spacing" textLength="213.77" x="738.7996" y="1434.7988">WebTransport Session Active</text><path d="M545,1456.5283 L545,1513.5283 L1361,1513.5283 L1361,1466.5283 L1351,1456.5283 L545,1456.5283" fill="#FFFFFF" style="stroke:#000000;stroke-width:1;"/><path d="M1351,1456.5283 L1351,1466.5283 L1361,1466.5283 L1351,1456.5283" fill="#FFFFFF" style="stroke:#000000;stroke-width:1;"/><text fill="#000000" font-family="Verdana" font-size="13" font-weight="bold" lengthAdjust="spacing" textLength="252.4526" x="807.5823" y="1474.5981">WebTransport Session Established</text><text fill="#000000" font-family="Verdana" font-size="13" lengthAdjust="spacing" textLength="282.458" x="807.5823" y="1490.3975">Both client and server have active sessions</text><text fill="#000000" font-family="Verdana" font-size="13" lengthAdjust="spacing" textLength="251.0435" x="807.5823" y="1506.1968">Ready for bidirectional communication</text><path d="M1179,1523.9263 L1179,1611.9263 L1399,1611.9263 L1399,1533.9263 L1389,1523.9263 L1179,1523.9263" fill="#FFFFFF" style="stroke:#000000;stroke-width:1;"/><path d="M1389,1523.9263 L1389,1533.9263 L1399,1533.9263 L1389,1523.9263" fill="#FFFFFF" style="stroke:#000000;stroke-width:1;"/><text fill="#000000" font-family="Verdana" font-size="13" font-weight="bold" lengthAdjust="spacing" textLength="136.7793" x="1185" y="1541.9961">Client Capabilities:</text><text fill="#000000" font-family="Verdana" font-size="13" lengthAdjust="spacing" textLength="191.166" x="1185" y="1557.7954">- createBidirectionalStream()</text><text fill="#000000" font-family="Verdana" font-size="13" lengthAdjust="spacing" textLength="199.9956" x="1185" y="1573.5947">- createUnidirectionalStream()</text><text fill="#000000" font-family="Verdana" font-size="13" lengthAdjust="spacing" textLength="117.9775" x="1185" y="1589.394">- sendDatagram()</text><text fill="#000000" font-family="Verdana" font-size="13" lengthAdjust="spacing" textLength="150.9727" x="1185" y="1605.1934">- Session management</text><path d="M505,1622.9229 L505,1710.9229 L727,1710.9229 L727,1632.9229 L717,1622.9229 L505,1622.9229" fill="#FFFFFF" style="stroke:#000000;stroke-width:1;"/><path d="M717,1622.9229 L717,1632.9229 L727,1632.9229 L717,1622.9229" fill="#FFFFFF" style="stroke:#000000;stroke-width:1;"/><text fill="#000000" font-family="Verdana" font-size="13" font-weight="bold" lengthAdjust="spacing" textLength="142.543" x="511" y="1640.9927">Server Capabilities:</text><text fill="#000000" font-family="Verdana" font-size="13" lengthAdjust="spacing" textLength="192.7466" x="511" y="1656.792">- acceptBidirectionalStream()</text><text fill="#000000" font-family="Verdana" font-size="13" lengthAdjust="spacing" textLength="201.5762" x="511" y="1672.5913">- acceptUnidirectionalStream()</text><text fill="#000000" font-family="Verdana" font-size="13" lengthAdjust="spacing" textLength="133.9482" x="511" y="1688.3906">- receiveDatagram()</text><text fill="#000000" font-family="Verdana" font-size="13" lengthAdjust="spacing" textLength="150.9727" x="511" y="1704.1899">- Session management</text><g class="message" data-participant-1="ClientSession" data-participant-2="ClientCtrl"><polygon fill="#000000" points="1141.9839,1750.5181,1131.9839,1754.5181,1141.9839,1758.5181,1137.9839,1754.5181" style="stroke:#000000;stroke-width:1;"/><line style="stroke:#000000;stroke-width:1;" x1="1135.9839" x2="1283.916" y1="1754.5181" y2="1754.5181"/><text fill="#000000" font-family="Verdana" font-size="13" lengthAdjust="spacing" textLength="49.8608" x="1143.9719" y="1733.9893">Session</text><text fill="#000000" font-family="Verdana" font-size="13" lengthAdjust="spacing" textLength="4.5703" x="1193.8328" y="1733.9893">&#160;</text><text fill="#000000" font-family="Verdana" font-size="13" lengthAdjust="spacing" textLength="73.5249" x="1198.4031" y="1733.9893">established</text><text fill="#000000" font-family="Verdana" font-size="13" lengthAdjust="spacing" textLength="72.3315" x="1171.7842" y="1749.7886">notification</text></g><g class="message" data-participant-1="ServerSession" data-participant-2="ServerCtrl"><polygon fill="#000000" points="454.915,1796.1167,444.915,1800.1167,454.915,1804.1167,450.915,1800.1167" style="stroke:#000000;stroke-width:1;"/><line style="stroke:#000000;stroke-width:1;" x1="448.915" x2="610.9561" y1="1800.1167" y2="1800.1167"/><text fill="#000000" font-family="Verdana" font-size="13" lengthAdjust="spacing" textLength="49.8608" x="463.9575" y="1779.5879">Session</text><text fill="#000000" font-family="Verdana" font-size="13" lengthAdjust="spacing" textLength="4.5703" x="513.8184" y="1779.5879">&#160;</text><text fill="#000000" font-family="Verdana" font-size="13" lengthAdjust="spacing" textLength="73.5249" x="518.3887" y="1779.5879">established</text><text fill="#000000" font-family="Verdana" font-size="13" lengthAdjust="spacing" textLength="72.3315" x="491.7698" y="1795.3872">notification</text></g><path d="M394,1813.1167 L394,1870.1167 L1179,1870.1167 L1179,1823.1167 L1169,1813.1167 L394,1813.1167" fill="#FFFFFF" style="stroke:#000000;stroke-width:1;"/><path d="M1169,1813.1167 L1169,1823.1167 L1179,1823.1167 L1169,1813.1167" fill="#FFFFFF" style="stroke:#000000;stroke-width:1;"/><text fill="#000000" font-family="Verdana" font-size="13" lengthAdjust="spacing" textLength="304.186" x="625.7476" y="1831.1865">WebTransport session establishment complete</text><text fill="#000000" font-family="Verdana" font-size="13" lengthAdjust="spacing" textLength="238.3545" x="625.7476" y="1846.9858">Ready for application data exchange</text><text fill="#000000" font-family="Verdana" font-size="13" lengthAdjust="spacing" textLength="312.6919" x="625.7476" y="1862.7852">Next: Create WebTransport streams/datagrams</text><!--SRC=[fLVRRjj647tNLqppP0c9Bx4B609KGARfHaYYg9Rg0gs2O4MDfArNIvMxigqyvJVwLlHN-YVvaixUA9AYRATzCUJTkPoPEJEp_4ulS8cm4epBXhhbSiKojWI5VwnH9lWUbM9px0e-bv2Wr9WLf9RimGiC-MU4a- -F6mtDjK3u1IUZZ4crIZCDGvBXgOHOQJOHN2sMP0W62wQmqI1BcYTynUZenH2pEyp6yjguLwIfCsJB5y0Kk2kwS6VrUb4gTPOAWLb19zAPA8iNqOrbW7VWn9i5LNzLrkwZla-pMoj6lykNaU0KN6q4xcfF146l4e4xVdO4JhnPK0qHD3eT7nCCiZIXKrHmmmIVGlIXtu-Z4NGwZOPCDK9gf2hvXhQNBbKsg6QO8B_3gOcRJJUWKy1GREAIXr0r-Ug7GeN8GKIdkiATe6o12PnfakkkzIBDkDwqGQG94ujKwVRPsTdfM0wONhJXw1udEfW8VgsJt6L8MUxLEu9qyZicki4IpU_CUPa8HHYjLZ1YJT2FTgirbj-6ZegdoKqRUltUgDTzr_krr_yH_ldxwvU_ldxvCoIOpa8OmMTD9BwmXQfO3ku1xQMvd5lO9uUkm2PchmYsov5wNetbwqE85fZSqg5U07D1VhPXZ-Nf8NI5YRQGo0nLkix8nLYU7P8t96i8ipG3bYIuqep6Iv6MGvHJ1Q-FZ-73MxX6oevKQ4cv9_0YDxlMvDFK6URW34qD62mEfKSuMlHsiUPY2cz6ey7HQK2SUSILRB-9kvVnzH2kJ2Pjekql66rMLFJZX-EJSF8EvTpGWmvQhPy6tUWjn399fpYrQct2gTUgRVqTc7zu0bnEyO7cBdJ8rFbLinO_pIWRkSmXUr07tcQ7J3OhkFC2R87_Pj1-pF-UNtqSor6gcMZ3AKms6jKpEEhPlkNr3jVZozgAvNNQJXbJlbB5qnLcbf7xaVXHKqUKeeiIX7wg-Mm3IJwQ8PsDfLedfdzcQv4RIFmSiBHsyvUOR4TZpcn3Q5CHGbHP22ROqNNSVVyfledxeq_NSHJtRc879UFpXKs74wMv8YQCkb7JnHmpavHxJeqPQ0ZKoApHgBgezJfW6IbuRfHv7DmM2B4xDvp-pB9O4w_Xm72aQMT6yKvOXkUtf-7MiT2SdryHaoqRduVyaePJGlYsFAx27ZhRNSd4Hd5b8Ni_leTCpJ7lfB7iRNkgs7DZMRlvt2mZmkm7N4Uv7VLoaRVKokiPLcnm5DPPQSrlrrdYs1TcOBxEog-2Ih8yPVtj_zbcZ_Utc_frZy8eNQu45TMsIJcqcbXBq_pnOC2E31lIAuYOxzNgOyDMJWKHPKPcIS0qrJpp8i4obKbiIiFZ6MDm5tbXGVjzM0-SrQswCd3FbV-6dMfJ-thl6WfXvPLOgiZBdJ1RhSS_171guhf8QIfumZ9AkN89M31onvnNpsDL7FqJFkKKgHcuJD1qNYxNaYT-0E-1M6H6n5PimWNN79NFhoF5HT6mw-Q3vlRwPxdltX3cqgVPdGItIoRfAyazCQflx28qN_iQQAxiUw6vw_tGF2MUHhUdwVmGgzd68Crw38b_VEq-gRvJDwFuybjsjnqZYHyZHRgmrKfuDxON01-I1PDp4khZWzxp-U4QwoXldiQ_]--></g></svg>