<svg xmlns="http://www.w3.org/2000/svg" xmlns:xlink="http://www.w3.org/1999/xlink" contentStyleType="text/css" data-diagram-type="DESCRIPTION" height="1621px" preserveAspectRatio="none" style="width:772px;height:1621px;background:#FFFFFF;" version="1.1" viewBox="0 0 772 1621" width="772px" zoomAndPan="magnify"><title>WebTransport Protocol Stack</title><defs/><g><g class="title" data-source-line="7"><text fill="#000000" font-family="Verdana" font-size="22" font-weight="bold" lengthAdjust="spacing" textLength="361.5605" x="200.9949" y="37.1182">WebTransport Protocol Stack</text></g><!--cluster **Client Side Protocol Stack**--><g class="cluster" data-entity="..Client Side Protocol Stack.." data-source-line="9" data-uid="ent0002" id="cluster_..Client Side Protocol Stack.."><path d="M48.5,58.7373 L251.7822,58.7373 A3.75,3.75 0 0 1 254.2822,61.2373 L261.2822,81.752 L516.5,81.752 A2.5,2.5 0 0 1 519,84.252 L519,679.2373 A2.5,2.5 0 0 1 516.5,681.7373 L48.5,681.7373 A2.5,2.5 0 0 1 46,679.2373 L46,61.2373 A2.5,2.5 0 0 1 48.5,58.7373" fill="#FFFFFF" style="stroke:#000000;stroke-width:1;"/><line style="stroke:#000000;stroke-width:1;" x1="46" x2="261.2822" y1="81.752" y2="81.752"/><text fill="#000000" font-family="Verdana" font-size="14" font-weight="bold" lengthAdjust="spacing" textLength="202.2822" x="50" y="74.8125">Client Side Protocol Stack</text></g><!--cluster **Network Layer**--><g class="cluster" data-entity="..Network Layer.." data-source-line="46" data-uid="ent0019" id="cluster_..Network Layer.."><path d="M13.5,730.7373 L130.1299,730.7373 A3.75,3.75 0 0 1 132.6299,733.2373 L139.6299,753.752 L242.5,753.752 A2.5,2.5 0 0 1 245,756.252 L245,1007.2373 A2.5,2.5 0 0 1 242.5,1009.7373 L13.5,1009.7373 A2.5,2.5 0 0 1 11,1007.2373 L11,733.2373 A2.5,2.5 0 0 1 13.5,730.7373" fill="#FFFFFF" style="stroke:#000000;stroke-width:1;"/><line style="stroke:#000000;stroke-width:1;" x1="11" x2="139.6299" y1="753.752" y2="753.752"/><text fill="#000000" font-family="Verdana" font-size="14" font-weight="bold" lengthAdjust="spacing" textLength="115.6299" x="15" y="746.8125">Network Layer</text></g><!--cluster **Server Side Protocol Stack**--><g class="cluster" data-entity="..Server Side Protocol Stack.." data-source-line="57" data-uid="ent0024" id="cluster_..Server Side Protocol Stack.."><path d="M271.5,876.7373 L480.9893,876.7373 A3.75,3.75 0 0 1 483.4893,879.2373 L490.4893,899.752 L747.5,899.752 A2.5,2.5 0 0 1 750,902.252 L750,1507.2373 A2.5,2.5 0 0 1 747.5,1509.7373 L271.5,1509.7373 A2.5,2.5 0 0 1 269,1507.2373 L269,879.2373 A2.5,2.5 0 0 1 271.5,876.7373" fill="#FFFFFF" style="stroke:#000000;stroke-width:1;"/><line style="stroke:#000000;stroke-width:1;" x1="269" x2="490.4893" y1="899.752" y2="899.752"/><text fill="#000000" font-family="Verdana" font-size="14" font-weight="bold" lengthAdjust="spacing" textLength="208.4893" x="273" y="892.8125">Server Side Protocol Stack</text></g><!--entity WTClient--><g class="entity" data-entity="WTClient" data-source-line="10" data-uid="ent0003" id="entity_WTClient"><rect fill="#ADD8E6" height="47.0146" rx="2.5" ry="2.5" style="stroke:#000000;stroke-width:1;" width="183.876" x="62" y="115.7373"/><rect fill="#ADD8E6" height="10" style="stroke:#000000;stroke-width:1;" width="15" x="225.876" y="120.7373"/><rect fill="#ADD8E6" height="2" style="stroke:#000000;stroke-width:1;" width="4" x="223.876" y="122.7373"/><rect fill="#ADD8E6" height="2" style="stroke:#000000;stroke-width:1;" width="4" x="223.876" y="126.7373"/><text fill="#000000" font-family="Verdana" font-size="14" lengthAdjust="spacing" textLength="143.876" x="77" y="149.8125">WebTransport Client</text></g><g class="entity" data-entity="GMN4" data-source-line="12" data-uid="ent0005" id="entity_GMN4"><path d="M281.5,94.7373 L281.5,135.2373 L246.04,139.2373 L281.5,143.2373 L281.5,183.7339 A0,0 0 0 0 281.5,183.7339 L502.4956,183.7339 A0,0 0 0 0 502.4956,183.7339 L502.4956,104.7373 L492.4956,94.7373 L281.5,94.7373 A0,0 0 0 0 281.5,94.7373" fill="#FFFFFF" style="stroke:#000000;stroke-width:1;"/><path d="M492.4956,94.7373 L492.4956,104.7373 L502.4956,104.7373 L492.4956,94.7373" fill="#FFFFFF" style="stroke:#000000;stroke-width:1;"/><text fill="#000000" font-family="Verdana" font-size="13" font-weight="bold" lengthAdjust="spacing" textLength="193.6289" x="287.5" y="112.8071">WebTransport Operations:</text><text fill="#000000" font-family="Verdana" font-size="13" lengthAdjust="spacing" textLength="191.166" x="287.5" y="128.6064">- createBidirectionalStream()</text><text fill="#000000" font-family="Verdana" font-size="13" lengthAdjust="spacing" textLength="199.9956" x="287.5" y="144.4058">- createUnidirectionalStream()</text><text fill="#000000" font-family="Verdana" font-size="13" lengthAdjust="spacing" textLength="117.9775" x="287.5" y="160.2051">- sendDatagram()</text><text fill="#000000" font-family="Verdana" font-size="13" lengthAdjust="spacing" textLength="55.0278" x="287.5" y="176.0044">- close()</text></g><!--entity H3Client--><g class="entity" data-entity="H3Client" data-source-line="19" data-uid="ent0007" id="entity_H3Client"><rect fill="#ADD8E6" height="47.0146" rx="2.5" ry="2.5" style="stroke:#000000;stroke-width:1;" width="136.5713" x="85.5" y="281.7373"/><rect fill="#ADD8E6" height="10" style="stroke:#000000;stroke-width:1;" width="15" x="202.0713" y="286.7373"/><rect fill="#ADD8E6" height="2" style="stroke:#000000;stroke-width:1;" width="4" x="200.0713" y="288.7373"/><rect fill="#ADD8E6" height="2" style="stroke:#000000;stroke-width:1;" width="4" x="200.0713" y="292.7373"/><text fill="#000000" font-family="Verdana" font-size="14" lengthAdjust="spacing" textLength="96.5713" x="100.5" y="315.8125">HTTP/3 Client</text></g><g class="entity" data-entity="GMN8" data-source-line="21" data-uid="ent0009" id="entity_GMN8"><path d="M258,260.7373 L258,301.2373 L222.55,305.2373 L258,309.2373 L258,349.7339 A0,0 0 0 0 258,349.7339 L477.6436,349.7339 A0,0 0 0 0 477.6436,349.7339 L477.6436,270.7373 L467.6436,260.7373 L258,260.7373 A0,0 0 0 0 258,260.7373" fill="#FFFFFF" style="stroke:#000000;stroke-width:1;"/><path d="M467.6436,260.7373 L467.6436,270.7373 L477.6436,270.7373 L467.6436,260.7373" fill="#FFFFFF" style="stroke:#000000;stroke-width:1;"/><text fill="#000000" font-family="Verdana" font-size="13" font-weight="bold" lengthAdjust="spacing" textLength="119.7168" x="264" y="278.8071">HTTP/3 Frames:</text><text fill="#000000" font-family="Verdana" font-size="13" lengthAdjust="spacing" textLength="153.9561" x="264" y="294.6064">- HEADERS (CONNECT)</text><text fill="#000000" font-family="Verdana" font-size="13" lengthAdjust="spacing" textLength="46.2744" x="264" y="310.4058">- DATA</text><text fill="#000000" font-family="Verdana" font-size="13" lengthAdjust="spacing" textLength="77.7651" x="264" y="326.2051">- SETTINGS</text><text fill="#000000" font-family="Verdana" font-size="13" lengthAdjust="spacing" textLength="198.6436" x="264" y="342.0044">- Control stream management</text></g><!--entity QClient--><g class="entity" data-entity="QClient" data-source-line="28" data-uid="ent0011" id="entity_QClient"><rect fill="#ADD8E6" height="47.0146" rx="2.5" ry="2.5" style="stroke:#000000;stroke-width:1;" width="122.0313" x="93" y="447.7373"/><rect fill="#ADD8E6" height="10" style="stroke:#000000;stroke-width:1;" width="15" x="195.0313" y="452.7373"/><rect fill="#ADD8E6" height="2" style="stroke:#000000;stroke-width:1;" width="4" x="193.0313" y="454.7373"/><rect fill="#ADD8E6" height="2" style="stroke:#000000;stroke-width:1;" width="4" x="193.0313" y="458.7373"/><text fill="#000000" font-family="Verdana" font-size="14" lengthAdjust="spacing" textLength="82.0313" x="108" y="481.8125">QUIC Client</text></g><g class="entity" data-entity="GMN12" data-source-line="30" data-uid="ent0013" id="entity_GMN12"><path d="M250,426.7373 L250,467.2373 L215.19,471.2373 L250,475.2373 L250,515.7339 A0,0 0 0 0 250,515.7339 L413.9238,515.7339 A0,0 0 0 0 413.9238,515.7339 L413.9238,436.7373 L403.9238,426.7373 L250,426.7373 A0,0 0 0 0 250,426.7373" fill="#FFFFFF" style="stroke:#000000;stroke-width:1;"/><path d="M403.9238,426.7373 L403.9238,436.7373 L413.9238,436.7373 L403.9238,426.7373" fill="#FFFFFF" style="stroke:#000000;stroke-width:1;"/><text fill="#000000" font-family="Verdana" font-size="13" font-weight="bold" lengthAdjust="spacing" textLength="111.5474" x="256" y="444.8071">QUIC Features:</text><text fill="#000000" font-family="Verdana" font-size="13" lengthAdjust="spacing" textLength="142.9238" x="256" y="460.6064">- Stream multiplexing</text><text fill="#000000" font-family="Verdana" font-size="13" lengthAdjust="spacing" textLength="89.6289" x="256" y="476.4058">- Flow control</text><text fill="#000000" font-family="Verdana" font-size="13" lengthAdjust="spacing" textLength="117.8379" x="256" y="492.2051">- Reliable delivery</text><text fill="#000000" font-family="Verdana" font-size="13" lengthAdjust="spacing" textLength="83.1099" x="256" y="508.0044">- 0-RTT data</text></g><!--entity UClient--><g class="entity" data-entity="UClient" data-source-line="37" data-uid="ent0015" id="entity_UClient"><rect fill="#ADD8E6" height="47.0146" rx="2.5" ry="2.5" style="stroke:#000000;stroke-width:1;" width="114.5732" x="96.5" y="605.7373"/><rect fill="#ADD8E6" height="10" style="stroke:#000000;stroke-width:1;" width="15" x="191.0732" y="610.7373"/><rect fill="#ADD8E6" height="2" style="stroke:#000000;stroke-width:1;" width="4" x="189.0732" y="612.7373"/><rect fill="#ADD8E6" height="2" style="stroke:#000000;stroke-width:1;" width="4" x="189.0732" y="616.7373"/><text fill="#000000" font-family="Verdana" font-size="14" lengthAdjust="spacing" textLength="74.5732" x="111.5" y="639.8125">UDP Client</text></g><g class="entity" data-entity="GMN16" data-source-line="39" data-uid="ent0017" id="entity_GMN16"><path d="M247,592.7373 L247,625.2373 L211.77,629.2373 L247,633.2373 L247,665.9346 A0,0 0 0 0 247,665.9346 L408.9434,665.9346 A0,0 0 0 0 408.9434,665.9346 L408.9434,602.7373 L398.9434,592.7373 L247,592.7373 A0,0 0 0 0 247,592.7373" fill="#FFFFFF" style="stroke:#000000;stroke-width:1;"/><path d="M398.9434,592.7373 L398.9434,602.7373 L408.9434,602.7373 L398.9434,592.7373" fill="#FFFFFF" style="stroke:#000000;stroke-width:1;"/><text fill="#000000" font-family="Verdana" font-size="13" font-weight="bold" lengthAdjust="spacing" textLength="111.9282" x="253" y="610.8071">UDP Transport:</text><text fill="#000000" font-family="Verdana" font-size="13" lengthAdjust="spacing" textLength="140.9434" x="253" y="626.6064">- Packet transmission</text><text fill="#000000" font-family="Verdana" font-size="13" lengthAdjust="spacing" textLength="126.5088" x="253" y="642.4058">- Network interface</text><text fill="#000000" font-family="Verdana" font-size="13" lengthAdjust="spacing" textLength="89.3306" x="253" y="658.2051">- Port binding</text></g><!--entity Net--><g class="entity" data-entity="Net" data-source-line="47" data-uid="ent0020" id="entity_Net"><rect fill="#ADD8E6" height="47.0146" rx="2.5" ry="2.5" style="stroke:#000000;stroke-width:1;" width="97.2988" x="105.5" y="766.7373"/><rect fill="#ADD8E6" height="10" style="stroke:#000000;stroke-width:1;" width="15" x="182.7988" y="771.7373"/><rect fill="#ADD8E6" height="2" style="stroke:#000000;stroke-width:1;" width="4" x="180.7988" y="773.7373"/><rect fill="#ADD8E6" height="2" style="stroke:#000000;stroke-width:1;" width="4" x="180.7988" y="777.7373"/><text fill="#000000" font-family="Verdana" font-size="14" lengthAdjust="spacing" textLength="57.2988" x="120.5" y="800.8125">Internet</text></g><g class="entity" data-entity="GMN21" data-source-line="49" data-uid="ent0022" id="entity_GMN21"><path d="M27,904.7373 L27,993.7339 L229.124,993.7339 L229.124,914.7373 L219.124,904.7373 L27,904.7373" fill="#FFFFFF" style="stroke:#000000;stroke-width:1;"/><path d="M219.124,904.7373 L219.124,914.7373 L229.124,914.7373 L219.124,904.7373" fill="#FFFFFF" style="stroke:#000000;stroke-width:1;"/><text fill="#000000" font-family="Verdana" font-size="13" font-weight="bold" lengthAdjust="spacing" textLength="181.124" x="33" y="922.8071">Network Characteristics:</text><text fill="#000000" font-family="Verdana" font-size="13" lengthAdjust="spacing" textLength="83.0273" x="33" y="938.6064">- Packet loss</text><text fill="#000000" font-family="Verdana" font-size="13" lengthAdjust="spacing" textLength="81.98" x="33" y="954.4058">- Reordering</text><text fill="#000000" font-family="Verdana" font-size="13" lengthAdjust="spacing" textLength="122.8779" x="33" y="970.2051">- Latency variation</text><text fill="#000000" font-family="Verdana" font-size="13" lengthAdjust="spacing" textLength="118.9868" x="33" y="986.0044">- Bandwidth limits</text></g><!--entity UServer--><g class="entity" data-entity="UServer" data-source-line="58" data-uid="ent0025" id="entity_UServer"><rect fill="#ADD8E6" height="47.0146" rx="2.5" ry="2.5" style="stroke:#000000;stroke-width:1;" width="120.8828" x="493.5" y="925.7373"/><rect fill="#ADD8E6" height="10" style="stroke:#000000;stroke-width:1;" width="15" x="594.3828" y="930.7373"/><rect fill="#ADD8E6" height="2" style="stroke:#000000;stroke-width:1;" width="4" x="592.3828" y="932.7373"/><rect fill="#ADD8E6" height="2" style="stroke:#000000;stroke-width:1;" width="4" x="592.3828" y="936.7373"/><text fill="#000000" font-family="Verdana" font-size="14" lengthAdjust="spacing" textLength="80.8828" x="508.5" y="959.8125">UDP Server</text></g><g class="entity" data-entity="GMN26" data-source-line="60" data-uid="ent0027" id="entity_GMN26"><path d="M310,912.7373 L310,985.9346 A0,0 0 0 0 310,985.9346 L457.5088,985.9346 A0,0 0 0 0 457.5088,985.9346 L457.5088,953.2373 L493.28,949.2373 L457.5088,945.2373 L457.5088,922.7373 L447.5088,912.7373 L310,912.7373 A0,0 0 0 0 310,912.7373" fill="#FFFFFF" style="stroke:#000000;stroke-width:1;"/><path d="M447.5088,912.7373 L447.5088,922.7373 L457.5088,922.7373 L447.5088,912.7373" fill="#FFFFFF" style="stroke:#000000;stroke-width:1;"/><text fill="#000000" font-family="Verdana" font-size="13" font-weight="bold" lengthAdjust="spacing" textLength="111.9282" x="316" y="930.8071">UDP Transport:</text><text fill="#000000" font-family="Verdana" font-size="13" lengthAdjust="spacing" textLength="118.7393" x="316" y="946.6064">- Packet reception</text><text fill="#000000" font-family="Verdana" font-size="13" lengthAdjust="spacing" textLength="126.5088" x="316" y="962.4058">- Network interface</text><text fill="#000000" font-family="Verdana" font-size="13" lengthAdjust="spacing" textLength="96.3384" x="316" y="978.2051">- Port listening</text></g><!--entity QServer--><g class="entity" data-entity="QServer" data-source-line="66" data-uid="ent0029" id="entity_QServer"><rect fill="#ADD8E6" height="47.0146" rx="2.5" ry="2.5" style="stroke:#000000;stroke-width:1;" width="128.3408" x="517" y="1093.7373"/><rect fill="#ADD8E6" height="10" style="stroke:#000000;stroke-width:1;" width="15" x="625.3408" y="1098.7373"/><rect fill="#ADD8E6" height="2" style="stroke:#000000;stroke-width:1;" width="4" x="623.3408" y="1100.7373"/><rect fill="#ADD8E6" height="2" style="stroke:#000000;stroke-width:1;" width="4" x="623.3408" y="1104.7373"/><text fill="#000000" font-family="Verdana" font-size="14" lengthAdjust="spacing" textLength="88.3408" x="532" y="1127.8125">QUIC Server</text></g><g class="entity" data-entity="GMN30" data-source-line="68" data-uid="ent0031" id="entity_GMN30"><path d="M286.5,1072.7373 L286.5,1161.7339 A0,0 0 0 0 286.5,1161.7339 L481.356,1161.7339 A0,0 0 0 0 481.356,1161.7339 L481.356,1121.2373 L516.63,1117.2373 L481.356,1113.2373 L481.356,1082.7373 L471.356,1072.7373 L286.5,1072.7373 A0,0 0 0 0 286.5,1072.7373" fill="#FFFFFF" style="stroke:#000000;stroke-width:1;"/><path d="M471.356,1072.7373 L471.356,1082.7373 L481.356,1082.7373 L471.356,1072.7373" fill="#FFFFFF" style="stroke:#000000;stroke-width:1;"/><text fill="#000000" font-family="Verdana" font-size="13" font-weight="bold" lengthAdjust="spacing" textLength="127.2007" x="292.5" y="1090.8071">QUIC Processing:</text><text fill="#000000" font-family="Verdana" font-size="13" lengthAdjust="spacing" textLength="173.856" x="292.5" y="1106.6064">- Connection management</text><text fill="#000000" font-family="Verdana" font-size="13" lengthAdjust="spacing" textLength="114.7974" x="292.5" y="1122.4058">- Stream lifecycle</text><text fill="#000000" font-family="Verdana" font-size="13" lengthAdjust="spacing" textLength="132.6787" x="292.5" y="1138.2051">- Congestion control</text><text fill="#000000" font-family="Verdana" font-size="13" lengthAdjust="spacing" textLength="100.3501" x="292.5" y="1154.0044">- Loss recovery</text></g><!--entity H3Server--><g class="entity" data-entity="H3Server" data-source-line="75" data-uid="ent0033" id="entity_H3Server"><rect fill="#ADD8E6" height="47.0146" rx="2.5" ry="2.5" style="stroke:#000000;stroke-width:1;" width="142.8809" x="510.5" y="1259.7373"/><rect fill="#ADD8E6" height="10" style="stroke:#000000;stroke-width:1;" width="15" x="633.3809" y="1264.7373"/><rect fill="#ADD8E6" height="2" style="stroke:#000000;stroke-width:1;" width="4" x="631.3809" y="1266.7373"/><rect fill="#ADD8E6" height="2" style="stroke:#000000;stroke-width:1;" width="4" x="631.3809" y="1270.7373"/><text fill="#000000" font-family="Verdana" font-size="14" lengthAdjust="spacing" textLength="102.8809" x="525.5" y="1293.8125">HTTP/3 Server</text></g><g class="entity" data-entity="GMN34" data-source-line="77" data-uid="ent0035" id="entity_GMN34"><path d="M285,1238.7373 L285,1327.7339 A0,0 0 0 0 285,1327.7339 L474.6509,1327.7339 A0,0 0 0 0 474.6509,1327.7339 L474.6509,1287.2373 L510.16,1283.2373 L474.6509,1279.2373 L474.6509,1248.7373 L464.6509,1238.7373 L285,1238.7373 A0,0 0 0 0 285,1238.7373" fill="#FFFFFF" style="stroke:#000000;stroke-width:1;"/><path d="M464.6509,1238.7373 L464.6509,1248.7373 L474.6509,1248.7373 L464.6509,1238.7373" fill="#FFFFFF" style="stroke:#000000;stroke-width:1;"/><text fill="#000000" font-family="Verdana" font-size="13" font-weight="bold" lengthAdjust="spacing" textLength="145.4312" x="291" y="1256.8071">HTTP/3 Processing:</text><text fill="#000000" font-family="Verdana" font-size="13" lengthAdjust="spacing" textLength="168.6509" x="291" y="1272.6064">- Parse CONNECT request</text><text fill="#000000" font-family="Verdana" font-size="13" lengthAdjust="spacing" textLength="159.9736" x="291" y="1288.4058">- Send 200 OK response</text><text fill="#000000" font-family="Verdana" font-size="13" lengthAdjust="spacing" textLength="152.2295" x="291" y="1304.2051">- Frame demultiplexing</text><text fill="#000000" font-family="Verdana" font-size="13" lengthAdjust="spacing" textLength="103.6191" x="291" y="1320.0044">- Error handling</text></g><!--entity WTServer--><g class="entity" data-entity="WTServer" data-source-line="84" data-uid="ent0037" id="entity_WTServer"><rect fill="#ADD8E6" height="47.0146" rx="2.5" ry="2.5" style="stroke:#000000;stroke-width:1;" width="190.1855" x="544" y="1425.7373"/><rect fill="#ADD8E6" height="10" style="stroke:#000000;stroke-width:1;" width="15" x="714.1855" y="1430.7373"/><rect fill="#ADD8E6" height="2" style="stroke:#000000;stroke-width:1;" width="4" x="712.1855" y="1432.7373"/><rect fill="#ADD8E6" height="2" style="stroke:#000000;stroke-width:1;" width="4" x="712.1855" y="1436.7373"/><text fill="#000000" font-family="Verdana" font-size="14" lengthAdjust="spacing" textLength="150.1855" x="559" y="1459.8125">WebTransport Server</text></g><g class="entity" data-entity="GMN38" data-source-line="86" data-uid="ent0039" id="entity_GMN38"><path d="M285.5,1404.7373 L285.5,1493.7339 L508.0762,1493.7339 L508.0762,1414.7373 L498.0762,1404.7373 L285.5,1404.7373" fill="#FFFFFF" style="stroke:#000000;stroke-width:1;"/><path d="M498.0762,1404.7373 L498.0762,1414.7373 L508.0762,1414.7373 L498.0762,1404.7373" fill="#FFFFFF" style="stroke:#000000;stroke-width:1;"/><text fill="#000000" font-family="Verdana" font-size="13" font-weight="bold" lengthAdjust="spacing" textLength="193.6289" x="291.5" y="1422.8071">WebTransport Operations:</text><text fill="#000000" font-family="Verdana" font-size="13" lengthAdjust="spacing" textLength="192.7466" x="291.5" y="1438.6064">- acceptBidirectionalStream()</text><text fill="#000000" font-family="Verdana" font-size="13" lengthAdjust="spacing" textLength="201.5762" x="291.5" y="1454.4058">- acceptUnidirectionalStream()</text><text fill="#000000" font-family="Verdana" font-size="13" lengthAdjust="spacing" textLength="133.9482" x="291.5" y="1470.2051">- receiveDatagram()</text><text fill="#000000" font-family="Verdana" font-size="13" lengthAdjust="spacing" textLength="55.0278" x="291.5" y="1486.0044">- close()</text></g><g class="entity" data-entity="GMN49" data-source-line="106" data-uid="ent0050" id="entity_GMN49"><path d="M179.5,1556.7373 L179.5,1614.1353 L614.4751,1614.1353 L614.4751,1566.7373 L604.4751,1556.7373 L179.5,1556.7373" fill="#FFFFFF" style="stroke:#000000;stroke-width:1;"/><path d="M604.4751,1556.7373 L604.4751,1566.7373 L614.4751,1566.7373 L604.4751,1556.7373" fill="#FFFFFF" style="stroke:#000000;stroke-width:1;"/><text fill="#000000" font-family="Verdana" font-size="13" font-weight="bold" lengthAdjust="spacing" textLength="172.6689" x="185.5" y="1574.8071">Protocol Encapsulation:</text><text fill="#000000" font-family="Verdana" font-size="13" lengthAdjust="spacing" textLength="413.9751" x="185.5" y="1590.6064">WebTransport &#226;&#8224;&#8217; HTTP/3 &#226;&#8224;&#8217; QUIC &#226;&#8224;&#8217; UDP &#226;&#8224;&#8217; IP &#226;&#8224;&#8217; Ethernet</text><text fill="#000000" font-family="Verdana" font-size="13" lengthAdjust="spacing" textLength="324.8159" x="185.5" y="1606.4058">Each layer adds its own headers and functionality</text></g><!--link Net to GMN21--><g class="link" data-entity-1="Net" data-entity-2="GMN21" data-source-line="49" data-uid="lnk23" id="link_Net_GMN21"><path d="M144.83,813.8873 C141.5,823.0173 138.06,833.7373 136,843.7373 C131.92,863.5173 129.88,885.7873 128.87,904.6773" fill="none" id="Net-GMN21" style="stroke:#000000;stroke-width:1;stroke-dasharray:7,7;"/></g><!--link GMN38 to WTServer--><g class="link" data-entity-1="GMN38" data-entity-2="WTServer" data-source-line="86" data-uid="lnk40" id="link_GMN38_WTServer"><path d="M508.55,1449.2373 C520.35,1449.2373 532.16,1449.2373 543.96,1449.2373" fill="none" id="GMN38-WTServer" style="stroke:#000000;stroke-width:1;stroke-dasharray:7,7;"/></g><!--link WTClient to H3Client--><g class="link" data-entity-1="WTClient" data-entity-2="H3Client" data-source-line="95" data-uid="lnk41" id="link_WTClient_H3Client"><path d="M154,163.0373 C154,194.3773 154,244.3973 154,275.6273" fill="none" id="WTClient-to-H3Client" style="stroke:#000000;stroke-width:1;"/><polygon fill="#000000" points="154,281.6273,158,272.6273,154,276.6273,150,272.6273,154,281.6273" style="stroke:#000000;stroke-width:1;"/><text fill="#000000" font-family="Verdana" font-size="13" lengthAdjust="spacing" textLength="151.5503" x="155" y="227.8071">WebTransport API calls</text></g><!--link H3Client to QClient--><g class="link" data-entity-1="H3Client" data-entity-2="QClient" data-source-line="96" data-uid="lnk42" id="link_H3Client_QClient"><path d="M154,329.0373 C154,360.3773 154,410.3973 154,441.6273" fill="none" id="H3Client-to-QClient" style="stroke:#000000;stroke-width:1;"/><polygon fill="#000000" points="154,447.6273,158,438.6273,154,442.6273,150,438.6273,154,447.6273" style="stroke:#000000;stroke-width:1;"/><text fill="#000000" font-family="Verdana" font-size="13" lengthAdjust="spacing" textLength="100.3564" x="155" y="393.8071">HTTP/3 Frames</text></g><!--link QClient to UClient--><g class="link" data-entity-1="QClient" data-entity-2="UClient" data-source-line="97" data-uid="lnk43" id="link_QClient_UClient"><path d="M154,494.9173 C154,524.4973 154,569.9373 154,599.5273" fill="none" id="QClient-to-UClient" style="stroke:#000000;stroke-width:1;"/><polygon fill="#000000" points="154,605.5273,158,596.5273,154,600.5273,150,596.5273,154,605.5273" style="stroke:#000000;stroke-width:1;"/><text fill="#000000" font-family="Verdana" font-size="13" lengthAdjust="spacing" textLength="88.6196" x="155" y="559.8071">QUIC Packets</text></g><!--link UClient to Net--><g class="link" data-entity-1="UClient" data-entity-2="Net" data-source-line="98" data-uid="lnk44" id="link_UClient_Net"><path d="M154,653.0173 C154,683.2473 154,730.2973 154,760.4973" fill="none" id="UClient-to-Net" style="stroke:#000000;stroke-width:1;"/><polygon fill="#000000" points="154,766.4973,158,757.4973,154,761.4973,150,757.4973,154,766.4973" style="stroke:#000000;stroke-width:1;"/><text fill="#000000" font-family="Verdana" font-size="13" lengthAdjust="spacing" textLength="103.5684" x="155" y="711.8071">UDP Datagrams</text></g><!--link Net to UServer--><g class="link" data-entity-1="Net" data-entity-2="UServer" data-source-line="100" data-uid="lnk45" id="link_Net_UServer"><path d="M202.61,794.5673 C268.44,800.8773 387.83,818.7773 476,868.7373 C501.07,882.9373 519.6627,902.8375 533.9327,920.9175" fill="none" id="Net-to-UServer" style="stroke:#000000;stroke-width:1;"/><polygon fill="#000000" points="537.65,925.6273,535.2139,916.0845,534.5523,921.7025,528.9342,921.0408,537.65,925.6273" style="stroke:#000000;stroke-width:1;"/><text fill="#000000" font-family="Verdana" font-size="13" lengthAdjust="spacing" textLength="103.5684" x="461" y="857.8071">UDP Datagrams</text></g><!--link UServer to QServer--><g class="link" data-entity-1="UServer" data-entity-2="QServer" data-source-line="101" data-uid="lnk46" id="link_UServer_QServer"><path d="M557.7,972.9673 C562.85,1004.6673 571.1879,1055.895 576.3379,1087.595" fill="none" id="UServer-to-QServer" style="stroke:#000000;stroke-width:1;"/><polygon fill="#000000" points="577.3,1093.5173,579.805,1083.9923,576.4982,1088.582,571.9085,1085.2752,577.3,1093.5173" style="stroke:#000000;stroke-width:1;"/><text fill="#000000" font-family="Verdana" font-size="13" lengthAdjust="spacing" textLength="88.6196" x="569" y="1039.8071">QUIC Packets</text></g><!--link QServer to H3Server--><g class="link" data-entity-1="QServer" data-entity-2="H3Server" data-source-line="102" data-uid="lnk47" id="link_QServer_H3Server"><path d="M581.14,1141.0373 C581.33,1172.3773 581.6335,1222.3974 581.8235,1253.6274" fill="none" id="QServer-to-H3Server" style="stroke:#000000;stroke-width:1;"/><polygon fill="#000000" points="581.86,1259.6273,585.8052,1250.6031,581.8296,1254.6274,577.8053,1250.6518,581.86,1259.6273" style="stroke:#000000;stroke-width:1;"/><text fill="#000000" font-family="Verdana" font-size="13" lengthAdjust="spacing" textLength="100.3564" x="582" y="1205.8071">HTTP/3 Frames</text></g><!--link H3Server to WTServer--><g class="link" data-entity-1="H3Server" data-entity-2="WTServer" data-source-line="103" data-uid="lnk48" id="link_H3Server_WTServer"><path d="M589.93,1307.0373 C600.82,1338.3773 618.3209,1388.7296 629.1709,1419.9596" fill="none" id="H3Server-to-WTServer" style="stroke:#000000;stroke-width:1;"/><polygon fill="#000000" points="631.14,1425.6273,631.9648,1415.813,629.4991,1420.9042,624.4079,1418.4385,631.14,1425.6273" style="stroke:#000000;stroke-width:1;"/><text fill="#000000" font-family="Verdana" font-size="13" lengthAdjust="spacing" textLength="151.5503" x="613" y="1371.8071">WebTransport API calls</text></g><!--link GMN38 to GMN49--><g class="link" data-entity-1="GMN38" data-entity-2="GMN49" data-source-line="106" data-uid="lnk51" id="link_GMN38_GMN49"><path d="M397,1493.7473 C397,1514.3773 397,1538.4173 397,1556.5273" fill="none" id="GMN38-GMN49" style="stroke:#000000;stroke-width:1;stroke-dasharray:7,7;"/></g><!--SRC=[ZLR1JXin4BtlLqnxQRiIAYet3fKWX18LGK8sub3ruEnE4WkllRKTQ5HLuZTwg_eh_HE-f6DxrtY1G2-HT_nc_SRpvcrUsHNM28rWN6RcYik6QLP3gUf6IPGMVcG0XwoyMcgrbjL02QL1yENApiKQtPxI5UeGdmi2PZ-pp78h42vnNcWcJQEqXR5MLfLAmDGwKDRGBriYlCxpWU3kf2cly04iprzx0lTqllHU6ZA_0ZDmMOG7Gajb4RJZ26gHRkHvB_kyGSqiLzBivpbjxq2faLayv1NNMBeT9gQMOlNRTyd-J6u569JL4RDigUzpX3BerxJdkT6oNzD9KOpVxwNLdEnjgIRPoFCsxvWEmrZ3oV3WQ7WnXRU3yxEpuQ08B8uEYWE_c0wBOdJsQUeV1afQJPTjV0rGCqajgSFhjxATp4Q3bEja2zL9mjJd7DFbhVKzqsbxwbfOtWZypkNInu-5kg43FJKVk431sPmKLT7Y6lN6HtTtBee2AhhjvzZEZiOfsTaMihE4h4k9Akd8ZacEQC6wUCsDeTxx-1dQ6wMlW4kBUi5A36YdhpcNLQWfillP4twNUyesgAFMXLfNy6NatYSni2PWntYkh5Mreno2zsyPh6XqIyhYnlBIF21EAZJjPVg9xIxxb0GjomrSCytzCFZe8PFL3Q_iYcQzvjPihs6AcZhodyFhRZOaX6Q4TLUQm4NeHGm_tmiQGMpiVpH2q8sWVD2A9sMTa9iyJMwIaFCfL7I9f0UvxEZHLCdW3ls9YeeNV87bfXJOmPTeF3mL_Iarp9MeMi6_v1u9zPEzfxadyMWUZ-cFcJO8hNiGWszhOXVeEmuVTdVX_3F5gINIX1Ay0z5qFXhbeTRqNLYHciGBrzzpvgIMo-BfMfBuYxREIYUKxROUzf-nTQSqCfwNdPrcumqu62nQ4skLOBBkEmGxEn-ZZSD-_ojvC1v1oOGmMKGu-2IYUvQVJHBCB6A2BFsCc6oMG6X4QDkDL5U9oJ8NzFdj93y4T77F8s9wPqmIIAUnHrpZXaDrtTjUVvQuNPRdqLg6icIDMGlVOTVWNlxVFtUtl-zkVtLdnsVFDpwv2kF3A5aFwU-GSzrio4hoFkVBmAhA07aWg1i9AsHadWP8qR1OorOit6wog85_]--></g></svg>