<svg xmlns="http://www.w3.org/2000/svg" xmlns:xlink="http://www.w3.org/1999/xlink" contentStyleType="text/css" data-diagram-type="ACTIVITY" height="1958px" preserveAspectRatio="none" style="width:807px;height:1958px;background:#FFFFFF;" version="1.1" viewBox="0 0 807 1958" width="807px" zoomAndPan="magnify"><title>QUIC Stream ID Allocation and Management</title><defs/><g><g class="title" data-source-line="8"><text fill="#000000" font-family="Verdana" font-size="22" font-weight="bold" lengthAdjust="spacing" textLength="549.957" x="127.1541" y="37.1182">QUIC Stream ID Allocation and Management</text></g><ellipse cx="321.3481" cy="62.7373" fill="#FFFFFF" rx="10" ry="10" style="stroke:#000000;stroke-width:1;"/><rect fill="#FFFFFF" height="230.0078" style="stroke:#000000;stroke-width:1;" width="586.3691" x="214.896" y="82.7373"/><path d="M436.9604,82.7373 L436.9604,92.752 L426.9604,102.752 L214.896,102.752" fill="none" style="stroke:#000000;stroke-width:1;"/><text fill="#000000" font-family="Verdana" font-size="14" font-weight="bold" lengthAdjust="spacing" textLength="212.0645" x="217.896" y="97.8125">Stream ID Allocation Rules</text><path d="M437.8003,112.752 L437.8003,145.3506 L417.8003,149.3506 L437.8003,153.3506 L437.8003,185.9492 A0,0 0 0 0 437.8003,185.9492 L791.2651,185.9492 A0,0 0 0 0 791.2651,185.9492 L791.2651,122.752 L781.2651,112.752 L437.8003,112.752 A0,0 0 0 0 437.8003,112.752" fill="#FFFFFF" style="stroke:#000000;stroke-width:1;"/><path d="M781.2651,112.752 L781.2651,122.752 L791.2651,122.752 L781.2651,112.752" fill="#FFFFFF" style="stroke:#000000;stroke-width:1;"/><text fill="#000000" font-family="Verdana" font-size="13" font-weight="bold" lengthAdjust="spacing" textLength="163.8203" x="443.8003" y="130.8218">Stream ID Bit Pattern:</text><text fill="#000000" font-family="Verdana" font-size="13" lengthAdjust="spacing" textLength="237.1865" x="443.8003" y="146.6211">Bit 0: Initiator (0=Client, 1=Server)</text><text fill="#000000" font-family="Verdana" font-size="13" lengthAdjust="spacing" textLength="332.4648" x="443.8003" y="162.4204">Bit 1: Direction (0=Bidirectional, 1=Unidirectional)</text><text fill="#000000" font-family="Verdana" font-size="13" lengthAdjust="spacing" textLength="162.6333" x="443.8003" y="178.2197">Bits 2+: Stream Number</text><rect fill="#FFFFE0" height="34.584" rx="12.5" ry="12.5" style="stroke:#000000;stroke-width:1;" width="192.9043" x="224.896" y="132.0586"/><text fill="#000000" font-family="Verdana" font-size="12" lengthAdjust="spacing" textLength="172.9043" x="234.896" y="154.123">QUIC Stream ID Assignment</text><path d="M423.7173,195.9492 L423.7173,244.3472 L403.7173,248.3472 L423.7173,252.3472 L423.7173,300.7451 A0,0 0 0 0 423.7173,300.7451 L668.3262,300.7451 A0,0 0 0 0 668.3262,300.7451 L668.3262,205.9492 L658.3262,195.9492 L423.7173,195.9492 A0,0 0 0 0 423.7173,195.9492" fill="#FFFFFF" style="stroke:#000000;stroke-width:1;"/><path d="M658.3262,195.9492 L658.3262,205.9492 L668.3262,205.9492 L658.3262,195.9492" fill="#FFFFFF" style="stroke:#000000;stroke-width:1;"/><text fill="#000000" font-family="Verdana" font-size="13" font-weight="bold" lengthAdjust="spacing" textLength="182.9775" x="429.7173" y="214.019">Stream Type Calculation:</text><text fill="#000000" font-family="Verdana" font-size="13" lengthAdjust="spacing" textLength="105.1108" x="429.7173" y="229.8184">Stream ID % 4:</text><text fill="#000000" font-family="Verdana" font-size="13" lengthAdjust="spacing" textLength="209.3965" x="429.7173" y="245.6177">- 0: Client-initiated bidirectional</text><text fill="#000000" font-family="Verdana" font-size="13" lengthAdjust="spacing" textLength="215.2554" x="429.7173" y="261.417">- 1: Server-initiated bidirectional</text><text fill="#000000" font-family="Verdana" font-size="13" lengthAdjust="spacing" textLength="217.75" x="429.7173" y="277.2163">- 2: Client-initiated unidirectional</text><text fill="#000000" font-family="Verdana" font-size="13" lengthAdjust="spacing" textLength="223.6089" x="429.7173" y="293.0156">- 3: Server-initiated unidirectional</text><rect fill="#FFFFE0" height="34.584" rx="12.5" ry="12.5" style="stroke:#000000;stroke-width:1;" width="164.7383" x="238.979" y="231.0552"/><text fill="#000000" font-family="Verdana" font-size="12" lengthAdjust="spacing" textLength="144.7383" x="248.979" y="253.1196">Determine Stream Type</text><rect fill="#FFFFFF" height="293.2051" style="stroke:#000000;stroke-width:1;" width="551.1592" x="213.5659" y="322.7451"/><path d="M413.8511,322.7451 L413.8511,332.7598 L403.8511,342.7598 L213.5659,342.7598" fill="none" style="stroke:#000000;stroke-width:1;"/><text fill="#000000" font-family="Verdana" font-size="14" font-weight="bold" lengthAdjust="spacing" textLength="190.2852" x="216.5659" y="337.8203">Client-Initiated Streams</text><path d="M435.0552,352.7598 L435.0552,409.0574 L415.0552,413.0574 L435.0552,417.0574 L435.0552,473.355 A0,0 0 0 0 435.0552,473.355 L754.7251,473.355 A0,0 0 0 0 754.7251,473.355 L754.7251,362.7598 L744.7251,352.7598 L435.0552,352.7598 A0,0 0 0 0 435.0552,352.7598" fill="#FFFFFF" style="stroke:#000000;stroke-width:1;"/><path d="M744.7251,352.7598 L744.7251,362.7598 L754.7251,362.7598 L744.7251,352.7598" fill="#FFFFFF" style="stroke:#000000;stroke-width:1;"/><text fill="#000000" font-family="Verdana" font-size="13" font-weight="bold" lengthAdjust="spacing" textLength="244.5244" x="441.0552" y="370.8296">Stream IDs: 0, 4, 8, 12, 16, 20, ...</text><text fill="#000000" font-family="Verdana" font-size="13" lengthAdjust="spacing" textLength="4.5703" x="441.0552" y="386.6289">&#160;</text><text fill="#000000" font-family="Verdana" font-size="13" lengthAdjust="spacing" textLength="45.8428" x="441.0552" y="402.4282">Usage:</text><text fill="#000000" font-family="Verdana" font-size="13" lengthAdjust="spacing" textLength="169.0825" x="441.0552" y="418.2275">- HTTP/3 request streams</text><text fill="#000000" font-family="Verdana" font-size="13" lengthAdjust="spacing" textLength="265.7446" x="441.0552" y="434.0269">- WebTransport CONNECT stream (ID 0)</text><text fill="#000000" font-family="Verdana" font-size="13" lengthAdjust="spacing" textLength="298.6699" x="441.0552" y="449.8262">- WebTransport bidirectional streams (ID 4+)</text><text fill="#000000" font-family="Verdana" font-size="13" lengthAdjust="spacing" textLength="185.2246" x="441.0552" y="465.6255">- Interactive communication</text><rect fill="#FFFFE0" height="34.584" rx="12.5" ry="12.5" style="stroke:#000000;stroke-width:1;" width="187.4141" x="227.6411" y="395.7654"/><text fill="#000000" font-family="Verdana" font-size="12" lengthAdjust="spacing" textLength="167.4141" x="237.6411" y="417.8298">Client Bidirectional Streams</text><path d="M439.1304,483.355 L439.1304,539.6526 L419.1304,543.6526 L439.1304,547.6526 L439.1304,603.9502 A0,0 0 0 0 439.1304,603.9502 L713.897,603.9502 A0,0 0 0 0 713.897,603.9502 L713.897,493.355 L703.897,483.355 L439.1304,483.355 A0,0 0 0 0 439.1304,483.355" fill="#FFFFFF" style="stroke:#000000;stroke-width:1;"/><path d="M703.897,483.355 L703.897,493.355 L713.897,493.355 L703.897,483.355" fill="#FFFFFF" style="stroke:#000000;stroke-width:1;"/><text fill="#000000" font-family="Verdana" font-size="13" font-weight="bold" lengthAdjust="spacing" textLength="253.7666" x="445.1304" y="501.4248">Stream IDs: 2, 6, 10, 14, 18, 22, ...</text><text fill="#000000" font-family="Verdana" font-size="13" lengthAdjust="spacing" textLength="4.5703" x="445.1304" y="517.2241">&#160;</text><text fill="#000000" font-family="Verdana" font-size="13" lengthAdjust="spacing" textLength="45.8428" x="445.1304" y="533.0234">Usage:</text><text fill="#000000" font-family="Verdana" font-size="13" lengthAdjust="spacing" textLength="202.7695" x="445.1304" y="548.8228">- HTTP/3 control stream (ID 2)</text><text fill="#000000" font-family="Verdana" font-size="13" lengthAdjust="spacing" textLength="214.6904" x="445.1304" y="564.6221">- HTTP/3 QPACK encoder stream</text><text fill="#000000" font-family="Verdana" font-size="13" lengthAdjust="spacing" textLength="214.5635" x="445.1304" y="580.4214">- HTTP/3 QPACK decoder stream</text><text fill="#000000" font-family="Verdana" font-size="13" lengthAdjust="spacing" textLength="251.6846" x="445.1304" y="596.2207">- WebTransport unidirectional streams</text><rect fill="#FFFFE0" height="34.584" rx="12.5" ry="12.5" style="stroke:#000000;stroke-width:1;" width="195.5645" x="223.5659" y="526.3606"/><text fill="#000000" font-family="Verdana" font-size="12" lengthAdjust="spacing" textLength="175.5645" x="233.5659" y="548.425">Client Unidirectional Streams</text><rect fill="#FFFFFF" height="293.2051" style="stroke:#000000;stroke-width:1;" width="515.7393" x="210.8618" y="625.9502"/><path d="M417.354,625.9502 L417.354,635.9648 L407.354,645.9648 L210.8618,645.9648" fill="none" style="stroke:#000000;stroke-width:1;"/><text fill="#000000" font-family="Verdana" font-size="14" font-weight="bold" lengthAdjust="spacing" textLength="196.4922" x="213.8618" y="641.0254">Server-Initiated Streams</text><path d="M437.7593,655.9648 L437.7593,712.2625 L417.7593,716.2625 L437.7593,720.2625 L437.7593,776.5601 A0,0 0 0 0 437.7593,776.5601 L703.2837,776.5601 A0,0 0 0 0 703.2837,776.5601 L703.2837,665.9648 L693.2837,655.9648 L437.7593,655.9648 A0,0 0 0 0 437.7593,655.9648" fill="#FFFFFF" style="stroke:#000000;stroke-width:1;"/><path d="M693.2837,655.9648 L693.2837,665.9648 L703.2837,665.9648 L693.2837,655.9648" fill="#FFFFFF" style="stroke:#000000;stroke-width:1;"/><text fill="#000000" font-family="Verdana" font-size="13" font-weight="bold" lengthAdjust="spacing" textLength="244.5244" x="443.7593" y="674.0347">Stream IDs: 1, 5, 9, 13, 17, 21, ...</text><text fill="#000000" font-family="Verdana" font-size="13" lengthAdjust="spacing" textLength="4.5703" x="443.7593" y="689.834">&#160;</text><text fill="#000000" font-family="Verdana" font-size="13" lengthAdjust="spacing" textLength="45.8428" x="443.7593" y="705.6333">Usage:</text><text fill="#000000" font-family="Verdana" font-size="13" lengthAdjust="spacing" textLength="216.2964" x="443.7593" y="721.4326">- Server-initiated communication</text><text fill="#000000" font-family="Verdana" font-size="13" lengthAdjust="spacing" textLength="193.21" x="443.7593" y="737.2319">- Push streams (if supported)</text><text fill="#000000" font-family="Verdana" font-size="13" lengthAdjust="spacing" textLength="243.3311" x="443.7593" y="753.0313">- WebTransport bidirectional streams</text><text fill="#000000" font-family="Verdana" font-size="13" lengthAdjust="spacing" textLength="134.6782" x="443.7593" y="768.8306">- Response channels</text><rect fill="#FFFFE0" height="34.584" rx="12.5" ry="12.5" style="stroke:#000000;stroke-width:1;" width="192.8223" x="224.937" y="698.9705"/><text fill="#000000" font-family="Verdana" font-size="12" lengthAdjust="spacing" textLength="172.8223" x="234.937" y="721.0349">Server Bidirectional Streams</text><path d="M441.8345,786.5601 L441.8345,842.8577 L421.8345,846.8577 L441.8345,850.8577 L441.8345,907.1553 A0,0 0 0 0 441.8345,907.1553 L716.6011,907.1553 A0,0 0 0 0 716.6011,907.1553 L716.6011,796.5601 L706.6011,786.5601 L441.8345,786.5601 A0,0 0 0 0 441.8345,786.5601" fill="#FFFFFF" style="stroke:#000000;stroke-width:1;"/><path d="M706.6011,786.5601 L706.6011,796.5601 L716.6011,796.5601 L706.6011,786.5601" fill="#FFFFFF" style="stroke:#000000;stroke-width:1;"/><text fill="#000000" font-family="Verdana" font-size="13" font-weight="bold" lengthAdjust="spacing" textLength="253.7666" x="447.8345" y="804.6299">Stream IDs: 3, 7, 11, 15, 19, 23, ...</text><text fill="#000000" font-family="Verdana" font-size="13" lengthAdjust="spacing" textLength="4.5703" x="447.8345" y="820.4292">&#160;</text><text fill="#000000" font-family="Verdana" font-size="13" lengthAdjust="spacing" textLength="45.8428" x="447.8345" y="836.2285">Usage:</text><text fill="#000000" font-family="Verdana" font-size="13" lengthAdjust="spacing" textLength="202.7695" x="447.8345" y="852.0278">- HTTP/3 control stream (ID 3)</text><text fill="#000000" font-family="Verdana" font-size="13" lengthAdjust="spacing" textLength="146.5166" x="447.8345" y="867.8271">- Server push streams</text><text fill="#000000" font-family="Verdana" font-size="13" lengthAdjust="spacing" textLength="251.6846" x="447.8345" y="883.6265">- WebTransport unidirectional streams</text><text fill="#000000" font-family="Verdana" font-size="13" lengthAdjust="spacing" textLength="186.729" x="447.8345" y="899.4258">- Telemetry/logging streams</text><rect fill="#FFFFE0" height="34.584" rx="12.5" ry="12.5" style="stroke:#000000;stroke-width:1;" width="200.9727" x="220.8618" y="829.5657"/><text fill="#000000" font-family="Verdana" font-size="12" lengthAdjust="spacing" textLength="180.9727" x="230.8618" y="851.6301">Server Unidirectional Streams</text><rect fill="#FFFFFF" height="329.0044" style="stroke:#000000;stroke-width:1;" width="526.9668" x="220.5649" y="929.1553"/><path d="M409.9126,929.1553 L409.9126,939.1699 L399.9126,949.1699 L220.5649,949.1699" fill="none" style="stroke:#000000;stroke-width:1;"/><text fill="#000000" font-family="Verdana" font-size="14" font-weight="bold" lengthAdjust="spacing" textLength="179.3477" x="223.5649" y="944.2305">HTTP/3 Specific Usage</text><path d="M424.6343,959.1699 L424.6343,999.6682 L404.6343,1003.6682 L424.6343,1007.6682 L424.6343,1048.1665 A0,0 0 0 0 424.6343,1048.1665 L680.4658,1048.1665 A0,0 0 0 0 680.4658,1048.1665 L680.4658,969.1699 L670.4658,959.1699 L424.6343,959.1699 A0,0 0 0 0 424.6343,959.1699" fill="#FFFFFF" style="stroke:#000000;stroke-width:1;"/><path d="M670.4658,959.1699 L670.4658,969.1699 L680.4658,969.1699 L670.4658,959.1699" fill="#FFFFFF" style="stroke:#000000;stroke-width:1;"/><text fill="#000000" font-family="Verdana" font-size="13" font-weight="bold" lengthAdjust="spacing" textLength="206.0386" x="430.6343" y="977.2397">Control Stream Assignment:</text><text fill="#000000" font-family="Verdana" font-size="13" lengthAdjust="spacing" textLength="186.3735" x="430.6343" y="993.0391">- Client control stream: ID 2</text><text fill="#000000" font-family="Verdana" font-size="13" lengthAdjust="spacing" textLength="192.2324" x="430.6343" y="1008.8384">- Server control stream: ID 3</text><text fill="#000000" font-family="Verdana" font-size="13" lengthAdjust="spacing" textLength="178.0581" x="430.6343" y="1024.6377">- Carries SETTINGS frames</text><text fill="#000000" font-family="Verdana" font-size="13" lengthAdjust="spacing" textLength="234.8315" x="430.6343" y="1040.437">- Must be first unidirectional stream</text><rect fill="#FFFFE0" height="34.584" rx="12.5" ry="12.5" style="stroke:#000000;stroke-width:1;" width="166.5723" x="238.062" y="986.3762"/><text fill="#000000" font-family="Verdana" font-size="12" lengthAdjust="spacing" textLength="146.5723" x="248.062" y="1008.4407">HTTP/3 Control Streams</text><path d="M427.1392,1058.1665 L427.1392,1098.6648 L407.1392,1102.6648 L427.1392,1106.6648 L427.1392,1147.1631 A0,0 0 0 0 427.1392,1147.1631 L727.9248,1147.1631 A0,0 0 0 0 727.9248,1147.1631 L727.9248,1068.1665 L717.9248,1058.1665 L427.1392,1058.1665 A0,0 0 0 0 427.1392,1058.1665" fill="#FFFFFF" style="stroke:#000000;stroke-width:1;"/><path d="M717.9248,1058.1665 L717.9248,1068.1665 L727.9248,1068.1665 L717.9248,1058.1665" fill="#FFFFFF" style="stroke:#000000;stroke-width:1;"/><text fill="#000000" font-family="Verdana" font-size="13" font-weight="bold" lengthAdjust="spacing" textLength="212.1133" x="433.1392" y="1076.2363">Request Stream Assignment:</text><text fill="#000000" font-family="Verdana" font-size="13" lengthAdjust="spacing" textLength="209.6313" x="433.1392" y="1092.0356">- WebTransport CONNECT: ID 0</text><text fill="#000000" font-family="Verdana" font-size="13" lengthAdjust="spacing" textLength="279.7856" x="433.1392" y="1107.835">- Additional HTTP requests: ID 4, 8, 12, ...</text><text fill="#000000" font-family="Verdana" font-size="13" lengthAdjust="spacing" textLength="209.0283" x="433.1392" y="1123.6343">- Each request gets new stream</text><text fill="#000000" font-family="Verdana" font-size="13" lengthAdjust="spacing" textLength="231.9751" x="433.1392" y="1139.4336">- Bidirectional for request/response</text><rect fill="#FFFFE0" height="34.584" rx="12.5" ry="12.5" style="stroke:#000000;stroke-width:1;" width="171.582" x="235.5571" y="1085.3728"/><text fill="#000000" font-family="Verdana" font-size="12" lengthAdjust="spacing" textLength="151.582" x="245.5571" y="1107.4373">HTTP/3 Request Streams</text><path d="M432.1313,1157.1631 L432.1313,1197.6614 L412.1313,1201.6614 L432.1313,1205.6614 L432.1313,1246.1597 A0,0 0 0 0 432.1313,1246.1597 L737.5317,1246.1597 A0,0 0 0 0 737.5317,1246.1597 L737.5317,1167.1631 L727.5317,1157.1631 L432.1313,1157.1631 A0,0 0 0 0 432.1313,1157.1631" fill="#FFFFFF" style="stroke:#000000;stroke-width:1;"/><path d="M727.5317,1157.1631 L727.5317,1167.1631 L737.5317,1167.1631 L727.5317,1157.1631" fill="#FFFFFF" style="stroke:#000000;stroke-width:1;"/><text fill="#000000" font-family="Verdana" font-size="13" font-weight="bold" lengthAdjust="spacing" textLength="202.7949" x="438.1313" y="1175.2329">QPACK Stream Assignment:</text><text fill="#000000" font-family="Verdana" font-size="13" lengthAdjust="spacing" textLength="276.2627" x="438.1313" y="1191.0322">- QPACK encoder stream: ID 6, 10, 14, ...</text><text fill="#000000" font-family="Verdana" font-size="13" lengthAdjust="spacing" textLength="284.4004" x="438.1313" y="1206.8315">- QPACK decoder stream: ID 14, 18, 22, ...</text><text fill="#000000" font-family="Verdana" font-size="13" lengthAdjust="spacing" textLength="217.9214" x="438.1313" y="1222.6309">- Used for dynamic table updates</text><text fill="#000000" font-family="Verdana" font-size="13" lengthAdjust="spacing" textLength="263.9355" x="438.1313" y="1238.4302">- Rarely used in simple implementations</text><rect fill="#FFFFE0" height="34.584" rx="12.5" ry="12.5" style="stroke:#000000;stroke-width:1;" width="181.5664" x="230.5649" y="1184.3694"/><text fill="#000000" font-family="Verdana" font-size="12" lengthAdjust="spacing" textLength="161.5664" x="240.5649" y="1206.4338">QPACK Streams (Optional)</text><rect fill="#FFFFFF" height="230.0078" style="stroke:#000000;stroke-width:1;" width="552.2163" x="206.6167" y="1268.1597"/><path d="M442.7974,1268.1597 L442.7974,1278.1743 L432.7974,1288.1743 L206.6167,1288.1743" fill="none" style="stroke:#000000;stroke-width:1;"/><text fill="#000000" font-family="Verdana" font-size="14" font-weight="bold" lengthAdjust="spacing" textLength="226.1807" x="209.6167" y="1283.2349">WebTransport Stream Usage</text><path d="M446.0796,1298.1743 L446.0796,1338.6726 L426.0796,1342.6726 L446.0796,1346.6726 L446.0796,1387.1709 A0,0 0 0 0 446.0796,1387.1709 L748.833,1387.1709 A0,0 0 0 0 748.833,1387.1709 L748.833,1308.1743 L738.833,1298.1743 L446.0796,1298.1743 A0,0 0 0 0 446.0796,1298.1743" fill="#FFFFFF" style="stroke:#000000;stroke-width:1;"/><path d="M738.833,1298.1743 L738.833,1308.1743 L748.833,1308.1743 L738.833,1298.1743" fill="#FFFFFF" style="stroke:#000000;stroke-width:1;"/><text fill="#000000" font-family="Verdana" font-size="13" font-weight="bold" lengthAdjust="spacing" textLength="204.2104" x="452.0796" y="1316.2441">After CONNECT Established:</text><text fill="#000000" font-family="Verdana" font-size="13" lengthAdjust="spacing" textLength="265.1353" x="452.0796" y="1332.0435">- Additional bidirectional: ID 4, 8, 12, ...</text><text fill="#000000" font-family="Verdana" font-size="13" lengthAdjust="spacing" textLength="281.7534" x="452.0796" y="1347.8428">- Additional unidirectional: ID 6, 10, 14, ...</text><text fill="#000000" font-family="Verdana" font-size="13" lengthAdjust="spacing" textLength="247.5332" x="452.0796" y="1363.6421">- Each stream = independent channel</text><text fill="#000000" font-family="Verdana" font-size="13" lengthAdjust="spacing" textLength="199.5767" x="452.0796" y="1379.4414">- Application-specific purposes</text><rect fill="#FFFFE0" height="34.584" rx="12.5" ry="12.5" style="stroke:#000000;stroke-width:1;" width="209.4629" x="216.6167" y="1325.3806"/><text fill="#000000" font-family="Verdana" font-size="12" lengthAdjust="spacing" textLength="189.4629" x="226.6167" y="1347.4451">WebTransport Session Streams</text><path d="M414.4419,1397.1709 L414.4419,1437.6692 L394.4419,1441.6692 L414.4419,1445.6692 L414.4419,1486.1675 A0,0 0 0 0 414.4419,1486.1675 L685.7681,1486.1675 A0,0 0 0 0 685.7681,1486.1675 L685.7681,1407.1709 L675.7681,1397.1709 L414.4419,1397.1709 A0,0 0 0 0 414.4419,1397.1709" fill="#FFFFFF" style="stroke:#000000;stroke-width:1;"/><path d="M675.7681,1397.1709 L675.7681,1407.1709 L685.7681,1407.1709 L675.7681,1397.1709" fill="#FFFFFF" style="stroke:#000000;stroke-width:1;"/><text fill="#000000" font-family="Verdana" font-size="13" font-weight="bold" lengthAdjust="spacing" textLength="146.5801" x="420.4419" y="1415.2407">Flow Control Limits:</text><text fill="#000000" font-family="Verdana" font-size="13" lengthAdjust="spacing" textLength="249.4312" x="420.4419" y="1431.04">- MAX_STREAMS frame controls limits</text><text fill="#000000" font-family="Verdana" font-size="13" lengthAdjust="spacing" textLength="250.3262" x="420.4419" y="1446.8394">- Client/server negotiate max streams</text><text fill="#000000" font-family="Verdana" font-size="13" lengthAdjust="spacing" textLength="186.7861" x="420.4419" y="1462.6387">- Stream creation may block</text><text fill="#000000" font-family="Verdana" font-size="13" lengthAdjust="spacing" textLength="167.3052" x="420.4419" y="1478.438">- Proper cleanup required</text><rect fill="#FFFFE0" height="34.584" rx="12.5" ry="12.5" style="stroke:#000000;stroke-width:1;" width="146.1875" x="248.2544" y="1424.3772"/><text fill="#000000" font-family="Verdana" font-size="12" lengthAdjust="spacing" textLength="126.1875" x="258.2544" y="1446.4417">Stream Management</text><rect fill="#FFFFFF" height="329.0044" style="stroke:#000000;stroke-width:1;" width="478.9063" x="235.8667" y="1508.1675"/><path d="M482.2603,1508.1675 L482.2603,1518.1821 L472.2603,1528.1821 L235.8667,1528.1821" fill="none" style="stroke:#000000;stroke-width:1;"/><text fill="#000000" font-family="Verdana" font-size="14" font-weight="bold" lengthAdjust="spacing" textLength="236.3936" x="238.8667" y="1523.2427">Stream Lifecycle Management</text><path d="M400.8745,1538.1821 L400.8745,1578.6804 L380.8745,1582.6804 L400.8745,1586.6804 L400.8745,1627.1787 A0,0 0 0 0 400.8745,1627.1787 L598.7837,1627.1787 A0,0 0 0 0 598.7837,1627.1787 L598.7837,1548.1821 L588.7837,1538.1821 L400.8745,1538.1821 A0,0 0 0 0 400.8745,1538.1821" fill="#FFFFFF" style="stroke:#000000;stroke-width:1;"/><path d="M588.7837,1538.1821 L588.7837,1548.1821 L598.7837,1548.1821 L588.7837,1538.1821" fill="#FFFFFF" style="stroke:#000000;stroke-width:1;"/><text fill="#000000" font-family="Verdana" font-size="13" font-weight="bold" lengthAdjust="spacing" textLength="128.0322" x="406.8745" y="1556.252">Creation Process:</text><text fill="#000000" font-family="Verdana" font-size="13" lengthAdjust="spacing" textLength="147.1006" x="406.8745" y="1572.0513">1. Check stream limits</text><text fill="#000000" font-family="Verdana" font-size="13" lengthAdjust="spacing" textLength="175.5381" x="406.8745" y="1587.8506">2. Assign next available ID</text><text fill="#000000" font-family="Verdana" font-size="13" lengthAdjust="spacing" textLength="150.3887" x="406.8745" y="1603.6499">3. Send stream frames</text><text fill="#000000" font-family="Verdana" font-size="13" lengthAdjust="spacing" textLength="176.9092" x="406.8745" y="1619.4492">4. Notify peer via callbacks</text><rect fill="#FFFFE0" height="34.584" rx="12.5" ry="12.5" style="stroke:#000000;stroke-width:1;" width="119.0527" x="261.8218" y="1565.3884"/><text fill="#000000" font-family="Verdana" font-size="12" lengthAdjust="spacing" textLength="99.0527" x="271.8218" y="1587.4529">Stream Creation</text><path d="M416.8296,1637.1787 L416.8296,1677.677 L396.8296,1681.677 L416.8296,1685.677 L416.8296,1726.1753 A0,0 0 0 0 416.8296,1726.1753 L623.3081,1726.1753 A0,0 0 0 0 623.3081,1726.1753 L623.3081,1647.1787 L613.3081,1637.1787 L416.8296,1637.1787 A0,0 0 0 0 416.8296,1637.1787" fill="#FFFFFF" style="stroke:#000000;stroke-width:1;"/><path d="M613.3081,1637.1787 L613.3081,1647.1787 L623.3081,1647.1787 L613.3081,1637.1787" fill="#FFFFFF" style="stroke:#000000;stroke-width:1;"/><text fill="#000000" font-family="Verdana" font-size="13" font-weight="bold" lengthAdjust="spacing" textLength="105.3203" x="422.8296" y="1655.2485">Data Transfer:</text><text fill="#000000" font-family="Verdana" font-size="13" lengthAdjust="spacing" textLength="185.4785" x="422.8296" y="1671.0479">- STREAM frames carry data</text><text fill="#000000" font-family="Verdana" font-size="13" lengthAdjust="spacing" textLength="165.8008" x="422.8296" y="1686.8472">- Flow control per stream</text><text fill="#000000" font-family="Verdana" font-size="13" lengthAdjust="spacing" textLength="177.8105" x="422.8296" y="1702.6465">- Reliable, ordered delivery</text><text fill="#000000" font-family="Verdana" font-size="13" lengthAdjust="spacing" textLength="174.0591" x="422.8296" y="1718.4458">- FIN marks end of stream</text><rect fill="#FFFFE0" height="34.584" rx="12.5" ry="12.5" style="stroke:#000000;stroke-width:1;" width="150.9629" x="245.8667" y="1664.385"/><text fill="#000000" font-family="Verdana" font-size="12" lengthAdjust="spacing" textLength="130.9629" x="255.8667" y="1686.4495">Stream Data Transfer</text><path d="M411.6616,1736.1753 L411.6616,1776.6736 L391.6616,1780.6736 L411.6616,1784.6736 L411.6616,1825.1719 A0,0 0 0 0 411.6616,1825.1719 L704.7729,1825.1719 A0,0 0 0 0 704.7729,1825.1719 L704.7729,1746.1753 L694.7729,1736.1753 L411.6616,1736.1753 A0,0 0 0 0 411.6616,1736.1753" fill="#FFFFFF" style="stroke:#000000;stroke-width:1;"/><path d="M694.7729,1736.1753 L694.7729,1746.1753 L704.7729,1746.1753 L694.7729,1736.1753" fill="#FFFFFF" style="stroke:#000000;stroke-width:1;"/><text fill="#000000" font-family="Verdana" font-size="13" font-weight="bold" lengthAdjust="spacing" textLength="160.1895" x="417.6616" y="1754.2451">Termination Methods:</text><text fill="#000000" font-family="Verdana" font-size="13" lengthAdjust="spacing" textLength="255.417" x="417.6616" y="1770.0444">- Graceful: Send FIN, wait for peer FIN</text><text fill="#000000" font-family="Verdana" font-size="13" lengthAdjust="spacing" textLength="225.9829" x="417.6616" y="1785.8438">- Reset: Send RST_STREAM frame</text><text fill="#000000" font-family="Verdana" font-size="13" lengthAdjust="spacing" textLength="272.1113" x="417.6616" y="1801.6431">- Connection close: All streams terminate</text><text fill="#000000" font-family="Verdana" font-size="13" lengthAdjust="spacing" textLength="187.9541" x="417.6616" y="1817.4424">- Proper cleanup in callbacks</text><rect fill="#FFFFE0" height="34.584" rx="12.5" ry="12.5" style="stroke:#000000;stroke-width:1;" width="140.627" x="251.0347" y="1763.3816"/><text fill="#000000" font-family="Verdana" font-size="12" lengthAdjust="spacing" textLength="120.627" x="261.0347" y="1785.446">Stream Termination</text><path d="M5,1847.1719 L5,1951.9678 A0,0 0 0 0 5,1951.9678 L290.3481,1951.9678 A0,0 0 0 0 290.3481,1951.9678 L290.3481,1903.5698 L310.3481,1899.5698 L290.3481,1895.5698 L290.3481,1857.1719 L280.3481,1847.1719 L5,1847.1719 A0,0 0 0 0 5,1847.1719" fill="#FFFFFF" style="stroke:#000000;stroke-width:1;"/><path d="M280.3481,1847.1719 L280.3481,1857.1719 L290.3481,1857.1719 L280.3481,1847.1719" fill="#FFFFFF" style="stroke:#000000;stroke-width:1;"/><text fill="#000000" font-family="Verdana" font-size="13" font-weight="bold" lengthAdjust="spacing" textLength="264.3481" x="11" y="1865.2417">Stream Management Best Practices:</text><text fill="#000000" font-family="Verdana" font-size="13" lengthAdjust="spacing" textLength="213.313" x="11" y="1881.041">- Use lowest available stream ID</text><text fill="#000000" font-family="Verdana" font-size="13" lengthAdjust="spacing" textLength="182.4063" x="11" y="1896.8403">- Respect flow control limits</text><text fill="#000000" font-family="Verdana" font-size="13" lengthAdjust="spacing" textLength="198.6182" x="11" y="1912.6396">- Clean up resources promptly</text><text fill="#000000" font-family="Verdana" font-size="13" lengthAdjust="spacing" textLength="218.3403" x="11" y="1928.439">- Handle stream resets gracefully</text><text fill="#000000" font-family="Verdana" font-size="13" lengthAdjust="spacing" textLength="190.5059" x="11" y="1944.2383">- Monitor stream count limits</text><ellipse cx="321.3481" cy="1899.5698" fill="none" rx="11" ry="11" style="stroke:#000000;stroke-width:1;"/><ellipse cx="321.3481" cy="1899.5698" fill="#FFFFFF" rx="6" ry="6" style="stroke:#000000;stroke-width:1;"/><line style="stroke:#000000;stroke-width:1;" x1="321.3481" x2="321.3481" y1="166.6426" y2="231.0552"/><polygon fill="#000000" points="317.3481,221.0552,321.3481,231.0552,325.3481,221.0552,321.3481,225.0552" style="stroke:#000000;stroke-width:1;"/><line style="stroke:#000000;stroke-width:1;" x1="321.3481" x2="321.3481" y1="72.7373" y2="132.0586"/><polygon fill="#000000" points="317.3481,122.0586,321.3481,132.0586,325.3481,122.0586,321.3481,126.0586" style="stroke:#000000;stroke-width:1;"/><line style="stroke:#000000;stroke-width:1;" x1="321.3481" x2="321.3481" y1="430.3494" y2="526.3606"/><polygon fill="#000000" points="317.3481,516.3606,321.3481,526.3606,325.3481,516.3606,321.3481,520.3606" style="stroke:#000000;stroke-width:1;"/><line style="stroke:#000000;stroke-width:1;" x1="321.3481" x2="321.3481" y1="265.6392" y2="395.7654"/><polygon fill="#000000" points="317.3481,385.7654,321.3481,395.7654,325.3481,385.7654,321.3481,389.7654" style="stroke:#000000;stroke-width:1;"/><line style="stroke:#000000;stroke-width:1;" x1="321.3481" x2="321.3481" y1="733.5544" y2="829.5657"/><polygon fill="#000000" points="317.3481,819.5657,321.3481,829.5657,325.3481,819.5657,321.3481,823.5657" style="stroke:#000000;stroke-width:1;"/><line style="stroke:#000000;stroke-width:1;" x1="321.3481" x2="321.3481" y1="560.9446" y2="698.9705"/><polygon fill="#000000" points="317.3481,688.9705,321.3481,698.9705,325.3481,688.9705,321.3481,692.9705" style="stroke:#000000;stroke-width:1;"/><line style="stroke:#000000;stroke-width:1;" x1="321.3481" x2="321.3481" y1="1020.9602" y2="1085.3728"/><polygon fill="#000000" points="317.3481,1075.3728,321.3481,1085.3728,325.3481,1075.3728,321.3481,1079.3728" style="stroke:#000000;stroke-width:1;"/><line style="stroke:#000000;stroke-width:1;" x1="321.3481" x2="321.3481" y1="1119.9568" y2="1184.3694"/><polygon fill="#000000" points="317.3481,1174.3694,321.3481,1184.3694,325.3481,1174.3694,321.3481,1178.3694" style="stroke:#000000;stroke-width:1;"/><line style="stroke:#000000;stroke-width:1;" x1="321.3481" x2="321.3481" y1="864.1497" y2="986.3762"/><polygon fill="#000000" points="317.3481,976.3762,321.3481,986.3762,325.3481,976.3762,321.3481,980.3762" style="stroke:#000000;stroke-width:1;"/><line style="stroke:#000000;stroke-width:1;" x1="321.3481" x2="321.3481" y1="1359.9646" y2="1424.3772"/><polygon fill="#000000" points="317.3481,1414.3772,321.3481,1424.3772,325.3481,1414.3772,321.3481,1418.3772" style="stroke:#000000;stroke-width:1;"/><line style="stroke:#000000;stroke-width:1;" x1="321.3481" x2="321.3481" y1="1218.9534" y2="1325.3806"/><polygon fill="#000000" points="317.3481,1315.3806,321.3481,1325.3806,325.3481,1315.3806,321.3481,1319.3806" style="stroke:#000000;stroke-width:1;"/><line style="stroke:#000000;stroke-width:1;" x1="321.3481" x2="321.3481" y1="1599.9724" y2="1664.385"/><polygon fill="#000000" points="317.3481,1654.385,321.3481,1664.385,325.3481,1654.385,321.3481,1658.385" style="stroke:#000000;stroke-width:1;"/><line style="stroke:#000000;stroke-width:1;" x1="321.3481" x2="321.3481" y1="1698.969" y2="1763.3816"/><polygon fill="#000000" points="317.3481,1753.3816,321.3481,1763.3816,325.3481,1753.3816,321.3481,1757.3816" style="stroke:#000000;stroke-width:1;"/><line style="stroke:#000000;stroke-width:1;" x1="321.3481" x2="321.3481" y1="1458.9612" y2="1565.3884"/><polygon fill="#000000" points="317.3481,1555.3884,321.3481,1565.3884,325.3481,1555.3884,321.3481,1559.3884" style="stroke:#000000;stroke-width:1;"/><line style="stroke:#000000;stroke-width:1;" x1="321.3481" x2="321.3481" y1="1797.9656" y2="1888.5698"/><polygon fill="#000000" points="317.3481,1878.5698,321.3481,1888.5698,325.3481,1878.5698,321.3481,1882.5698" style="stroke:#000000;stroke-width:1;"/><!--SRC=[dLTTJniv57tFhxXRQQL2Go09-vKL3o6mRRI5KXAq-rOvCtSI2yUUjJtGQCL_t-kFIMR834ih4I1pZ-rxxZq-zlnWLxX6o0NZicFkkSoPPcjWYUKFt6xWtmx0EKlkbreLCfqeeJG8lbpP3GgX7brKwHHrY2m4GUdPM6lrM7tqrEbORWN2vxlf16PM8oqolO0nJP8movK49bEuOf8jAHzfEnrZcQO_b0-DT80tXuUD0syBWURmy8tFTVHy0MFuKhePVwUeL1P1k_JfItMwSsxXXbcBMeuE3nqhUd0oWgcajPab7czFpYQ2qpnTw9_DK3-WFeYu_WWkkCR4PqEuSvwMNvbmy3jPVHA76HYy6vMPNXVh1MeA85N1PKd_EZONI2cjkSGIED_asCx4HM72H588Nvl0PKVpHpWTqOCZHosmEUA18QQmg2RfKKGiC7qHDMYOgv1xi673P7kmBVsdPvsFAqotGmEfNTy306grBq4ljTwCuAGBfrtubJereC_FNHZGarwlvuj7FtU6H1dgzc4-lpaUWiP_2ZGMJ9ZVX_x2nLmpQNAbBKm-NLzVJkOH06-fzYS7-x1QCSlPFFhqNO1F9Gd0xqQ4HAtNLB4W-tsjn0hKnVRA4X1nujqdtdqgHPzgCHZyJmqI9QrMeafnS505VBuPJ_wa91D5_X1X-_4Kz-Ar4jKbKgbugrIYojgb4W3V9PL-5txgmczKeY5zVg4ozTlAj2Vsv-qxWfl2h7PTvncO8dUaCNsjLZpi5WaX3GbanQH4OVQr4Ib_bpQ8AH7j4z4-SUyJ-S7msxKnFAXK1V8Ays_e-H7CKT3vOFNcMAZbailbQnGHivhbcF2C9o7XhHnYT19pRYzA7L4vMeBD7aKRVCP-v8ntK2NV41-6yKnhZWPcb_FvzFhz338wYp4Gloh8RnO86TUcfKBxRO_KRgDTjLEh8ngeDRcRp_p4XyTfocCkRitI88s7xCoLHEFXbonPRKrqYNGMIdoiMa1zRsPq_aRqiOvYtoSR_6HMRgTFUJnk6-XMeGracvpBCwbuP4cboSKyzfcHUl2T8HzmRDADP6jIecKBkXGLUKeE4JSpqoWsK3Wabs3uEYU4_-rIzERnejXhdOeKwuAl8v3eqyXsROmpEeAs9zgbSJbpiyAqB5Ub-JMJQcb-1LwNSLk9lLgYbPnHKLBCYRtVQS7mmhHvBgAv7fbof-U5pfN19aSCy-rkd0tC_w0RxjONFl8rNTfApbVZlx_CvhUNuwkuIyjTRUXwx80LGpWsOTzBN2f_5i2QVQsvMamceT- -ZMkseOkpydTfEYQqofrj26IooFrEeAAbBvw1OSAFFCDaGmChF7V7OC1Cug9DXbVcGnaaf9D0lj-3oGgJ-x8bMxw3NjnBnFIh1VR0kF3wdbvGTDWZhL6-STJMsavxS4rboJQG8x5yu0mI9iI2NXlQstR1B0CluWnrG-QrUDcpqA-uCYsYzGPeup4VzBqkdJclNqXkKN17f0l-NOTsPafFgAMRC7HwJHtJzyOdgx9MEovlwVvAtrRqIXIkqAvKkXNTUxe9ObQ8KQWahTk5HqPl8CvIVFNeKNabG1jXjxFvbohre4n56oUyiII2TiZ8lL5jxo8sve1D-YDNQcpGatjdKtcduma9p6ndAyIT_E3SUVwDlzEIfXmrxuj0zNUHdMfCUGVfX2iEfGjPjKjHU6wRKMRWjuPHXQPf8TTgdLkneUW7UhFSJQTTPGmiOoazuahH9KsLBQVv2yepphwbzny0]--></g></svg>